<svg width="250" height="301" xmlns="http://www.w3.org/2000/svg" xmlns:xlink="http://www.w3.org/1999/xlink" overflow="hidden"><defs><clipPath id="clip0"><path d="M0 0 250 0 250 301 0 301Z" fill-rule="evenodd" clip-rule="evenodd"/></clipPath></defs><g clip-path="url(#clip0)"><rect x="0" y="0" width="250" height="300.901" fill="#FFFFFF" transform="scale(1 1.00033)"/><path d="M0 0 211.482 0.000105127" stroke="#000000" stroke-miterlimit="8" fill="none" fill-rule="evenodd" transform="matrix(1 0 -0 1.00033 19.5 14.5)"/><path d="M0 0 211.482 0.000105127" stroke="#000000" stroke-miterlimit="8" fill="none" fill-rule="evenodd" transform="matrix(1 0 -0 1.00033 19.5 23.5)"/><path d="M0 0 0.203631 77.6897" stroke="#000000" stroke-miterlimit="8" fill="none" fill-rule="evenodd" transform="matrix(-1 -8.74228e-08 -8.74515e-08 1.00033 45.7037 23.5)"/><path d="M0 0 0.000105127 66.646" stroke="#000000" stroke-miterlimit="8" fill="none" fill-rule="evenodd" transform="matrix(1 0 -0 1.00033 205.5 23.5)"/><path d="M0 10.4965 25.5 0 51 10.4965 25.5 20.993Z" stroke="#000000" stroke-miterlimit="8" fill="#843C0C" fill-rule="evenodd" transform="matrix(1 0 -0 1.00033 20.5 101.5)"/><path d="M0 0 0.000105127 61.8763" stroke="#000000" stroke-miterlimit="8" fill="none" fill-rule="evenodd" transform="matrix(1 0 -0 1.00033 100.5 23.5)"/><path d="M0 0 0.000105127 146.376" stroke="#000000" stroke-miterlimit="8" fill="none" fill-rule="evenodd" transform="matrix(1 0 -0 1.00033 149.5 23.5)"/><path d="M0 0 0.000105127 129.115" stroke="#000000" stroke-miterlimit="8" fill="none" fill-rule="evenodd" transform="matrix(1 0 -0 1.00033 46.5 122.5)"/><rect x="0" y="0" width="22" height="21.9928" stroke="#000000" stroke-miterlimit="8" fill="#00B0F0" transform="matrix(1 0 -0 1.00033 34.5 251.5)"/><path d="M0 17.9941C-2.86455e-15 8.05624 10.0736-2.29089e-15 22.5-4.58178e-15 34.9264-9.16357e-15 44.9999 8.05624 44.9999 17.9941 44.9999 27.932 34.9264 35.9882 22.5 35.9882 10.0736 35.9882-1.43227e-14 27.932 0 17.9941Z" stroke="#000000" stroke-miterlimit="8" fill="#993366" fill-rule="evenodd" transform="matrix(1 0 -0 1.00033 78.5 200.5)"/><path d="M0 17.9941C-2.86455e-15 8.05622 10.0736-2.29089e-15 22.5-4.58177e-15 34.9264-9.16354e-15 44.9999 8.05622 44.9999 17.9941 44.9999 27.9319 34.9264 35.9881 22.5 35.9881 10.0736 35.9881-1.43227e-14 27.9319 0 17.9941Z" stroke="#000000" stroke-miterlimit="8" fill="#FFC000" fill-rule="evenodd" transform="matrix(1 0 -0 1.00033 78.5 85.5)"/><path d="M0 0 0.000105127 79.2512" stroke="#000000" stroke-miterlimit="8" fill="none" fill-rule="evenodd" transform="matrix(1 0 -0 1.00033 100.5 121.5)"/><path d="M0 14.9951C-4.01036e-15 6.71352 14.103-1.90907e-15 31.5-3.81814e-15 48.8969-7.63628e-15 62.9999 6.71352 62.9999 14.9951 62.9999 23.2766 48.8969 29.9901 31.5 29.9901 14.103 29.9901-2.00518e-14 23.2766 0 14.9951Z" stroke="#000000" stroke-miterlimit="8" fill="#0033CC" fill-rule="evenodd" transform="matrix(1 0 -0 1.00033 118.5 170.5)"/><rect x="0" y="0" width="49" height="29.9901" stroke="#000000" stroke-miterlimit="8" fill="#FF0000" transform="matrix(1 0 -0 1.00033 180.5 90.5)"/></g></svg>