<svg width="250" height="301" xmlns="http://www.w3.org/2000/svg" xmlns:xlink="http://www.w3.org/1999/xlink" overflow="hidden"><defs><clipPath id="clip0"><path d="M0 0 250 0 250 301 0 301Z" fill-rule="evenodd" clip-rule="evenodd"/></clipPath></defs><g clip-path="url(#clip0)"><rect x="0" y="0" width="250" height="300.901" fill="#FFFFFF" transform="scale(1 1.00033)"/><path d="M0 0 211.482 0.000105127" stroke="#000000" stroke-miterlimit="8" fill="none" fill-rule="evenodd" transform="matrix(1 0 -0 1.00033 19.5 14.5)"/><path d="M0 0 211.482 0.000105127" stroke="#000000" stroke-miterlimit="8" fill="none" fill-rule="evenodd" transform="matrix(1 0 -0 1.00033 19.5 23.5)"/><path d="M0 0 0.000105127 201.321" stroke="#000000" stroke-miterlimit="8" fill="none" fill-rule="evenodd" transform="matrix(-1 -8.74228e-08 -8.74515e-08 1.00033 45.5001 23.5)"/><path d="M0 0 0.697623 95.6312" stroke="#000000" stroke-miterlimit="8" fill="none" fill-rule="evenodd" transform="matrix(1 0 -0 1.00033 125.5 23.5)"/><path d="M0 0 0.000105127 22.98" stroke="#000000" stroke-miterlimit="8" fill="none" fill-rule="evenodd" transform="matrix(1 0 -0 1.00033 205.5 23.5)"/><path d="M0 0 0.888639 179.905" stroke="#000000" stroke-miterlimit="8" fill="none" fill-rule="evenodd" transform="matrix(1 0 -0 1.00033 85.5 23.5)"/><path d="M0 0 0.000105127 62.977" stroke="#000000" stroke-miterlimit="8" fill="none" fill-rule="evenodd" transform="matrix(1 0 -0 1.00033 166.5 23.5)"/><path d="M0 48.9838 11.5 0 34.5 0 46 48.9838Z" stroke="#000000" stroke-miterlimit="8" fill="#993366" fill-rule="evenodd" transform="matrix(-1 -8.74228e-08 8.74515e-08 -1.00033 189.5 106.5)"/><path d="M0 11.996C-2.48261e-15 5.37081 8.73045-1.52726e-15 19.5-3.05451e-15 30.2696-6.10903e-15 39 5.37081 39 11.996 39 18.6213 30.2696 23.9921 19.5 23.9921 8.73045 23.9921-1.24131e-14 18.6213 0 11.996Z" stroke="#000000" stroke-miterlimit="8" fill="#843C0C" fill-rule="evenodd" transform="matrix(1 0 -0 1.00033 186.5 34.5)"/><rect x="0" y="0" width="38" height="69.977" stroke="#000000" stroke-miterlimit="8" fill="#FFFF00" transform="matrix(1 0 -0 1.00033 26.5 225.5)"/><path d="M0 10.4965C-1.33679e-15 4.69945 4.701-1.33635e-15 10.5-2.67269e-15 16.299-5.34539e-15 21 4.69945 21 10.4965 21 16.2936 16.299 20.993 10.5 20.993 4.701 20.993-6.68394e-15 16.2936 0 10.4965Z" stroke="#000000" stroke-miterlimit="8" fill="#FF0000" fill-rule="evenodd" transform="matrix(1 0 -0 1.00033 75.5 101.5)"/><path d="M0 30.9898C-1.65507e-15 13.8746 5.8203-3.94542e-15 13-7.89084e-15 20.1797-1.57817e-14 26 13.8746 26 30.9898 26 48.105 20.1797 61.9796 13 61.9796 5.8203 61.9796-8.27537e-15 48.105 0 30.9898Z" stroke="#000000" stroke-miterlimit="8" fill="#FF66FF" fill-rule="evenodd" transform="matrix(1 0 -0 1.00033 112.5 31.5)"/><path d="M0 31.9895 30.5 0 61 31.9895 30.5 63.9791Z" stroke="#000000" stroke-miterlimit="8" fill="#FF0000" fill-rule="evenodd" transform="matrix(1 0 -0 1.00033 95.5 112.5)"/><rect x="0" y="0" width="29" height="64.9786" stroke="#000000" stroke-miterlimit="8" fill="#0033CC" transform="matrix(1 0 -0 1.00033 31.5 79.5)"/><path d="M0 18.5C-6.17267e-15 8.28273 21.7071-2.3553e-15 48.4841-4.71059e-15 75.2611-9.42118e-15 96.9681 8.28273 96.9681 18.5 96.9681 28.7173 75.2611 37 48.4841 37 21.7071 37-3.08633e-14 28.7173 0 18.5Z" stroke="#000000" stroke-miterlimit="8" fill="#FFC000" fill-rule="evenodd" transform="matrix(-4.37257e-08 1.00033 -1 -4.37114e-08 104.5 187.5)"/><path d="M0 0 15.6321 0.000105127" stroke="#000000" stroke-miterlimit="8" fill="none" fill-rule="evenodd" transform="matrix(-1 -8.74228e-08 -8.74515e-08 1.00033 76.1321 112.5)"/></g></svg>