<svg width="250" height="301" xmlns="http://www.w3.org/2000/svg" xmlns:xlink="http://www.w3.org/1999/xlink" overflow="hidden"><defs><clipPath id="clip0"><path d="M0 0 250 0 250 301 0 301Z" fill-rule="evenodd" clip-rule="evenodd"/></clipPath></defs><g clip-path="url(#clip0)"><rect x="0" y="0" width="250" height="300.901" fill="#FFFFFF" transform="scale(1 1.00033)"/><path d="M0 0 211.482 0.000105127" stroke="#000000" stroke-miterlimit="8" fill="none" fill-rule="evenodd" transform="matrix(1 0 -0 1.00033 19.5 14.5)"/><path d="M0 0 211.482 0.000105127" stroke="#000000" stroke-miterlimit="8" fill="none" fill-rule="evenodd" transform="matrix(1 0 -0 1.00033 19.5 23.5)"/><path d="M0 0 0.000105127 189.191" stroke="#000000" stroke-miterlimit="8" fill="none" fill-rule="evenodd" transform="matrix(-1 -8.74228e-08 -8.74515e-08 1.00033 45.5001 23.5)"/><path d="M0 0 0.337773 192.86" stroke="#000000" stroke-miterlimit="8" fill="none" fill-rule="evenodd" transform="matrix(-1 -8.74228e-08 -8.74515e-08 1.00033 124.838 23.5)"/><path d="M0 0 0.556332 200.932" stroke="#000000" stroke-miterlimit="8" fill="none" fill-rule="evenodd" transform="matrix(1 0 -0 1.00033 205.5 23.5)"/><path d="M0 0 0.733997 221.845" stroke="#000000" stroke-miterlimit="8" fill="none" fill-rule="evenodd" transform="matrix(-1 -8.74228e-08 -8.74515e-08 1.00033 85.234 23.5)"/><path d="M0 0 2.01718 197.63" stroke="#000000" stroke-miterlimit="8" fill="none" fill-rule="evenodd" transform="matrix(1 0 -0 1.00033 166.5 23.5)"/><rect x="0" y="0" width="28.0001" height="66.978" stroke="#000000" stroke-miterlimit="8" fill="#9966FF" transform="matrix(1 0 -0 1.00033 31.5 213.5)"/><path d="M0 23.4923 22 0 44 23.4923 22 46.9846Z" stroke="#000000" stroke-miterlimit="8" fill="#00B0F0" fill-rule="evenodd" transform="matrix(1 0 -0 1.00033 103.5 212.5)"/><path d="M0 7.99733C-1.14582e-15 3.58053 4.02945-1.01817e-15 9.00003-2.03633e-15 13.9706-4.07267e-15 18.0001 3.58053 18.0001 7.99733 18.0001 12.4141 13.9706 15.9947 9.00003 15.9947 4.02945 15.9947-5.72912e-15 12.4141 0 7.99733Z" stroke="#000000" stroke-miterlimit="8" fill="#843C0C" fill-rule="evenodd" transform="matrix(1 0 -0 1.00033 197.5 214.5)"/><path d="M5.03062e-05 15.2736 23 0 46 15.2736 37.2148 39.9868 8.78523 39.9868Z" stroke="#000000" stroke-miterlimit="8" fill="#FF66FF" fill-rule="evenodd" transform="matrix(1 0 0 -1.00033 102.5 72.5)"/><path d="M0 17.9941C-1.4641e-15 8.05622 5.14873-2.29089e-15 11.5-4.58177e-15 17.8513-9.16354e-15 23 8.05622 23 17.9941 23 27.9319 17.8513 35.9881 11.5 35.9881 5.14873 35.9881-7.32052e-15 27.9319 0 17.9941Z" stroke="#000000" stroke-miterlimit="8" fill="#FFFF00" fill-rule="evenodd" transform="matrix(1 0 -0 1.00033 194.5 107.5)"/><path d="M0 25.9915 6.49787 0 19.5021 0 26 25.9915Z" stroke="#000000" stroke-miterlimit="8" fill="#FFFF00" fill-rule="evenodd" transform="matrix(1 0 -0 1.00033 71.5 245.5)"/><path d="M0 17.1972 6.96706 6.29509 19.033 0 32.9671 0 45.033 6.29509 52 17.1972 52 29.7874 45.033 40.6896 32.9671 46.9846 19.033 46.9846 6.96706 40.6896 0 29.7874Z" stroke="#000000" stroke-miterlimit="8" fill="#FF0000" fill-rule="evenodd" transform="matrix(1 0 -0 1.00033 141.5 190.5)"/><path d="M2.95277e-05 10.3097 13.5 0 27.0001 10.3097 21.8435 26.9911 5.15656 26.9911Z" stroke="#000000" stroke-miterlimit="8" fill="#0033CC" fill-rule="evenodd" transform="matrix(1 0 -0 1.00033 71.5 77.5)"/></g></svg>