<svg width="250" height="301" xmlns="http://www.w3.org/2000/svg" xmlns:xlink="http://www.w3.org/1999/xlink" overflow="hidden"><defs><clipPath id="clip0"><path d="M0 0 250 0 250 301 0 301Z" fill-rule="evenodd" clip-rule="evenodd"/></clipPath></defs><g clip-path="url(#clip0)"><rect x="0" y="0" width="250" height="300.901" fill="#FFFFFF" transform="scale(1 1.00033)"/><path d="M0 0 211.482 0.000105127" stroke="#000000" stroke-miterlimit="8" fill="none" fill-rule="evenodd" transform="matrix(1 0 -0 1.00033 19.5 14.5)"/><path d="M0 0 211.482 0.000105127" stroke="#000000" stroke-miterlimit="8" fill="none" fill-rule="evenodd" transform="matrix(1 0 -0 1.00033 19.5 23.5)"/><path d="M0 0 0.000105127 30.9382" stroke="#000000" stroke-miterlimit="8" fill="none" fill-rule="evenodd" transform="matrix(-1 -8.74228e-08 -8.74515e-08 1.00033 45.5001 23.5)"/><path d="M0 0 0.187126 60.7884" stroke="#000000" stroke-miterlimit="8" fill="none" fill-rule="evenodd" transform="matrix(1 0 -0 1.00033 45.5 85.5)"/><path d="M0 0 0.000105127 122.048" stroke="#000000" stroke-miterlimit="8" fill="none" fill-rule="evenodd" transform="matrix(1 0 -0 1.00033 205.5 23.5)"/><rect x="0" y="0" width="30" height="30.9899" stroke="#000000" stroke-miterlimit="8" fill="#FF0000" transform="matrix(1 0 -0 1.00033 30.5 54.5)"/><path d="M0 0 0.000105127 81.3221" stroke="#000000" stroke-miterlimit="8" fill="none" fill-rule="evenodd" transform="matrix(1 0 -0 1.00033 100.5 23.5)"/><path d="M0 0 0.000105127 146.376" stroke="#000000" stroke-miterlimit="8" fill="none" fill-rule="evenodd" transform="matrix(1 0 -0 1.00033 149.5 23.5)"/><path d="M0 7.99738C-1.14582e-15 3.58055 4.02943-1.01817e-15 8.99998-2.03635e-15 13.9705-4.07269e-15 18 3.58055 18 7.99738 18 12.4142 13.9705 15.9948 8.99998 15.9948 4.02943 15.9948-5.72909e-15 12.4142 0 7.99738Z" stroke="#000000" stroke-miterlimit="8" fill="#FFFF00" fill-rule="evenodd" transform="matrix(1 0 -0 1.00033 36.5 145.5)"/><path d="M0 0 0.000105127 93.1945" stroke="#000000" stroke-miterlimit="8" fill="none" fill-rule="evenodd" transform="matrix(1 0 -0 1.00033 45.5 161.5)"/><rect x="0" y="0" width="50" height="30.9898" stroke="#000000" stroke-miterlimit="8" fill="#993366" transform="matrix(1 0 -0 1.00033 20.5 254.5)"/><rect x="0" y="0" width="40" height="17.9941" stroke="#000000" stroke-miterlimit="8" fill="#008000" transform="matrix(1 0 -0 1.00033 80.5 103.5)"/><path d="M0 0 0.000105127 81.3221" stroke="#000000" stroke-miterlimit="8" fill="none" fill-rule="evenodd" transform="matrix(1 0 -0 1.00033 100.5 121.5)"/><path d="M0 21.493 22.5 0 44.9999 21.493 22.5 42.9859Z" stroke="#000000" stroke-miterlimit="8" fill="#0033CC" fill-rule="evenodd" transform="matrix(1 0 -0 1.00033 78.5 199.5)"/><path d="M0 13.9954C-2.92821e-15 6.26596 10.2975-1.7818e-15 23-3.5636e-15 35.7026-7.12721e-15 46 6.26596 46 13.9954 46 21.7249 35.7026 27.9908 23 27.9908 10.2975 27.9908-1.4641e-14 21.7249 0 13.9954Z" stroke="#000000" stroke-miterlimit="8" fill="#00FF00" fill-rule="evenodd" transform="matrix(1 0 -0 1.00033 126.5 156.5)"/><path d="M0 18.9938C-2.92821e-15 8.5038 10.2975-2.41816e-15 23-4.83632e-15 35.7026-9.67265e-15 46 8.5038 46 18.9938 46 29.4837 35.7026 37.9876 23 37.9876 10.2975 37.9876-1.4641e-14 29.4837 0 18.9938Z" stroke="#000000" stroke-miterlimit="8" fill="#9966FF" fill-rule="evenodd" transform="matrix(1 0 -0 1.00033 182.5 121.5)"/></g></svg>