<svg width="250" height="301" xmlns="http://www.w3.org/2000/svg" xmlns:xlink="http://www.w3.org/1999/xlink" overflow="hidden"><defs><clipPath id="clip0"><path d="M0 0 250 0 250 301 0 301Z" fill-rule="evenodd" clip-rule="evenodd"/></clipPath></defs><g clip-path="url(#clip0)"><rect x="0" y="0" width="250" height="300.901" fill="#FFFFFF" transform="scale(1 1.00033)"/><path d="M0 0 211.482 0.000105127" stroke="#000000" stroke-miterlimit="8" fill="none" fill-rule="evenodd" transform="matrix(1 0 -0 1.00033 19.5 14.5)"/><path d="M0 0 211.482 0.000105127" stroke="#000000" stroke-miterlimit="8" fill="none" fill-rule="evenodd" transform="matrix(1 0 -0 1.00033 19.5 23.5)"/><path d="M0 0 0.000105127 21.5171" stroke="#000000" stroke-miterlimit="8" fill="none" fill-rule="evenodd" transform="matrix(-1 -8.74228e-08 -8.74515e-08 1.00033 45.5001 23.5)"/><path d="M0 0 0.000105127 10.7585" stroke="#000000" stroke-miterlimit="8" fill="none" fill-rule="evenodd" transform="matrix(1 0 -0 1.00033 205.5 23.5)"/><path d="M0 0 0.000105127 132.99" stroke="#000000" stroke-miterlimit="8" fill="none" fill-rule="evenodd" transform="matrix(1 0 -0 1.00033 100.5 23.5)"/><path d="M0 0 0.000105127 109.207" stroke="#000000" stroke-miterlimit="8" fill="none" fill-rule="evenodd" transform="matrix(1 0 -0 1.00033 149.5 23.5)"/><path d="M0 10.4965C-2.80089e-15 4.69945 9.84973-1.33635e-15 22-2.67269e-15 34.1502-5.34539e-15 44 4.69945 44 10.4965 44 16.2936 34.1502 20.993 22 20.993 9.84973 20.993-1.40045e-14 16.2936 0 10.4965Z" stroke="#000000" stroke-miterlimit="8" fill="#FFFF00" fill-rule="evenodd" transform="matrix(1 0 -0 1.00033 23.5 45.5)"/><path d="M0 0 0.000105127 179.912" stroke="#000000" stroke-miterlimit="8" fill="none" fill-rule="evenodd" transform="matrix(-1 -8.74228e-08 -8.74515e-08 1.00033 45.5001 66.5)"/><rect x="0" y="0" width="41.0001" height="37.9876" stroke="#000000" stroke-miterlimit="8" fill="#FFC000" transform="matrix(1 0 -0 1.00033 24.5 246.5)"/><path d="M0 62.9794 22.5 0 44.9999 62.9794Z" stroke="#000000" stroke-miterlimit="8" fill="#FF0000" fill-rule="evenodd" transform="matrix(1 0 -0 1.00033 78.5 156.5)"/><path d="M0 27.9908C-1.9097e-15 12.5319 6.71573-3.5636e-15 15-7.12721e-15 23.2843-1.42544e-14 30 12.5319 30 27.9908 30 43.4497 23.2843 55.9816 15 55.9816 6.71573 55.9816-9.5485e-15 43.4497 0 27.9908Z" stroke="#000000" stroke-miterlimit="8" fill="#9966FF" fill-rule="evenodd" transform="matrix(1 0 -0 1.00033 134.5 132.5)"/><path d="M0 10.9964C-2.8009e-15 4.92325 9.84975-1.39999e-15 22-2.79998e-15 34.1503-5.59995e-15 44.0001 4.92325 44.0001 10.9964 44.0001 17.0695 34.1503 21.9928 22 21.9928 9.84975 21.9928-1.40045e-14 17.0695 0 10.9964Z" stroke="#000000" stroke-miterlimit="8" fill="#0033CC" fill-rule="evenodd" transform="matrix(1 0 -0 1.00033 184.5 34.5)"/></g></svg>