<svg width="250" height="301" xmlns="http://www.w3.org/2000/svg" xmlns:xlink="http://www.w3.org/1999/xlink" overflow="hidden"><defs><clipPath id="clip0"><path d="M0 0 250 0 250 301 0 301Z" fill-rule="evenodd" clip-rule="evenodd"/></clipPath></defs><g clip-path="url(#clip0)"><rect x="0" y="0" width="250" height="300.901" fill="#FFFFFF" transform="scale(1 1.00033)"/><path d="M0 0 211.482 0.000105127" stroke="#000000" stroke-miterlimit="8" fill="none" fill-rule="evenodd" transform="matrix(1 0 -0 1.00033 19.5 14.5)"/><path d="M0 0 211.482 0.000105127" stroke="#000000" stroke-miterlimit="8" fill="none" fill-rule="evenodd" transform="matrix(1 0 -0 1.00033 19.5 23.5)"/><path d="M0 0 0.203631 77.6897" stroke="#000000" stroke-miterlimit="8" fill="none" fill-rule="evenodd" transform="matrix(-1 -8.74228e-08 -8.74515e-08 1.00033 45.7037 23.5)"/><path d="M0 0 0.000105127 55.272" stroke="#000000" stroke-miterlimit="8" fill="none" fill-rule="evenodd" transform="matrix(1 0 -0 1.00033 205.5 23.5)"/><path d="M0 0 0.000105127 132.99" stroke="#000000" stroke-miterlimit="8" fill="none" fill-rule="evenodd" transform="matrix(1 0 -0 1.00033 100.5 23.5)"/><path d="M0 0 0.000105127 27.0206" stroke="#000000" stroke-miterlimit="8" fill="none" fill-rule="evenodd" transform="matrix(1 0 -0 1.00033 149.5 23.5)"/><path d="M0 27.4909C-2.29164e-15 12.3081 8.05888-3.49996e-15 18-6.99993e-15 27.9411-1.39999e-14 36 12.3081 36 27.4909 36 42.6738 27.9411 54.9819 18 54.9819 8.05888 54.9819-1.14582e-14 42.6738 0 27.4909Z" stroke="#000000" stroke-miterlimit="8" fill="#FFC000" fill-rule="evenodd" transform="matrix(1 0 -0 1.00033 27.5 101.5)"/><path d="M0 0 0.000105127 35.1864" stroke="#000000" stroke-miterlimit="8" fill="none" fill-rule="evenodd" transform="matrix(-1 -8.74228e-08 -8.74515e-08 1.00033 45.5001 156.5)"/><rect x="0" y="0" width="20" height="57.9809" stroke="#000000" stroke-miterlimit="8" fill="#FFFF00" transform="matrix(1 0 -0 1.00033 35.5 192.5)"/><path d="M3.3902e-05 11.0733 15.5 0 30.9999 11.0733 25.0795 28.9904 5.92047 28.9904Z" stroke="#000000" stroke-miterlimit="8" fill="#993366" fill-rule="evenodd" transform="matrix(1 0 -0 1.00033 85.5 155.5)"/><rect x="0" y="0" width="40" height="56.9814" stroke="#000000" stroke-miterlimit="8" fill="#008000" transform="matrix(1 0 -0 1.00033 129.5 50.5)"/><rect x="0" y="0" width="56" height="13.9955" stroke="#000000" stroke-miterlimit="8" fill="#FF66FF" transform="matrix(1 0 -0 1.00033 121.5 122.5)"/><path d="M0 0 0.000105127 13.9423" stroke="#000000" stroke-miterlimit="8" fill="none" fill-rule="evenodd" transform="matrix(1 0 -0 1.00033 149.5 107.5)"/><path d="M0 14.9951C-1.27313e-15 6.71352 4.47715-1.90907e-15 10-3.81814e-15 15.5228-7.63628e-15 20 6.71352 20 14.9951 20 23.2766 15.5228 29.9901 10 29.9901 4.47715 29.9901-6.36567e-15 23.2766 0 14.9951Z" stroke="#000000" stroke-miterlimit="8" fill="#00B0F0" fill-rule="evenodd" transform="matrix(1 0 -0 1.00033 196.5 79.5)"/></g></svg>