<svg width="250" height="301" xmlns="http://www.w3.org/2000/svg" xmlns:xlink="http://www.w3.org/1999/xlink" overflow="hidden"><defs><clipPath id="clip0"><path d="M0 0 250 0 250 301 0 301Z" fill-rule="evenodd" clip-rule="evenodd"/></clipPath></defs><g clip-path="url(#clip0)"><rect x="0" y="0" width="250" height="300.901" fill="#FFFFFF" transform="scale(1 1.00033)"/><path d="M0 0 211.482 0.000105127" stroke="#000000" stroke-miterlimit="8" fill="none" fill-rule="evenodd" transform="matrix(1 0 -0 1.00033 19.5 14.5)"/><path d="M0 0 211.482 0.000105127" stroke="#000000" stroke-miterlimit="8" fill="none" fill-rule="evenodd" transform="matrix(1 0 -0 1.00033 19.5 23.5)"/><path d="M0 0 0.000105127 205.053" stroke="#000000" stroke-miterlimit="8" fill="none" fill-rule="evenodd" transform="matrix(1 0 -0 1.00033 45.5 23.5)"/><path d="M0 0 0.000105127 73.305" stroke="#000000" stroke-miterlimit="8" fill="none" fill-rule="evenodd" transform="matrix(1 0 -0 1.00033 205.5 23.5)"/><path d="M0 0 0.000105127 133.702" stroke="#000000" stroke-miterlimit="8" fill="none" fill-rule="evenodd" transform="matrix(1 0 -0 1.00033 138.5 24.5)"/><path d="M0 0 0.000105127 146.141" stroke="#000000" stroke-miterlimit="8" fill="none" fill-rule="evenodd" transform="matrix(1 0 -0 1.00033 85.5 23.5)"/><path d="M0 28.9905 7.2476 0 25.7523 0 32.9999 28.9905Z" stroke="#000000" stroke-miterlimit="8" fill="#843C0C" fill-rule="evenodd" transform="matrix(1 0 -0 1.00033 188.5 81.5)"/><path d="M0 28.9905 7.2476 0 25.7523 0 32.9999 28.9905Z" stroke="#000000" stroke-miterlimit="8" fill="#FF66FF" fill-rule="evenodd" transform="matrix(1 0 -0 1.00033 188.5 37.5)"/><rect x="0" y="0" width="59" height="35.9882" stroke="#000000" stroke-miterlimit="8" fill="#FF0000" transform="matrix(1 0 -0 1.00033 16.5 224.5)"/><path d="M0 16.9944C-1.65507e-15 7.60866 5.8203-2.16362e-15 13-4.32723e-15 20.1797-8.65446e-15 26 7.60866 26 16.9944 26 26.3802 20.1797 33.9888 13 33.9888 5.8203 33.9888-8.27537e-15 26.3802 0 16.9944Z" stroke="#000000" stroke-miterlimit="8" fill="#00B0F0" fill-rule="evenodd" transform="matrix(1 0 -0 1.00033 72.5 165.5)"/><path d="M0 17.5631 6.29716 6.42902 17.2029 0 29.7972 0 40.7029 6.42902 47.0001 17.5631 47.0001 30.4212 40.7029 41.5553 29.7972 47.9843 17.2029 47.9843 6.29716 41.5553 0 30.4212Z" stroke="#000000" stroke-miterlimit="8" fill="#FFC000" fill-rule="evenodd" transform="matrix(1 0 -0 1.00033 21.5 87.5)"/><path d="M4.59318e-05 15.2736 21 0 42 15.2736 33.9787 39.9868 8.0213 39.9868Z" stroke="#000000" stroke-miterlimit="8" fill="#FFFF00" fill-rule="evenodd" transform="matrix(1 0 -0 1.00033 117.5 126.5)"/></g></svg>