<svg width="250" height="301" xmlns="http://www.w3.org/2000/svg" xmlns:xlink="http://www.w3.org/1999/xlink" overflow="hidden"><defs><clipPath id="clip0"><path d="M0 0 250 0 250 301 0 301Z" fill-rule="evenodd" clip-rule="evenodd"/></clipPath></defs><g clip-path="url(#clip0)"><rect x="0" y="0" width="250" height="300.901" fill="#FFFFFF" transform="scale(1 1.00033)"/><path d="M0 0 211.482 0.000105127" stroke="#000000" stroke-miterlimit="8" fill="none" fill-rule="evenodd" transform="matrix(1 0 -0 1.00033 19.5 14.5)"/><path d="M0 0 211.482 0.000105127" stroke="#000000" stroke-miterlimit="8" fill="none" fill-rule="evenodd" transform="matrix(1 0 -0 1.00033 19.5 23.5)"/><path d="M0 0 0.824932 228.463" stroke="#000000" stroke-miterlimit="8" fill="none" fill-rule="evenodd" transform="matrix(-1 -8.74228e-08 -8.74515e-08 1.00033 45.3249 23.5)"/><path d="M0 0 0.000105127 127.206" stroke="#000000" stroke-miterlimit="8" fill="none" fill-rule="evenodd" transform="matrix(1 0 -0 1.00033 205.5 23.5)"/><path d="M0 0 0.40558 120.221" stroke="#000000" stroke-miterlimit="8" fill="none" fill-rule="evenodd" transform="matrix(1 0 -0 1.00033 138.5 24.5)"/><path d="M0 0 0.000105127 177.95" stroke="#000000" stroke-miterlimit="8" fill="none" fill-rule="evenodd" transform="matrix(1 0 -0 1.00033 85.5 23.5)"/><rect x="0" y="0" width="65.0001" height="67.9777" stroke="#000000" stroke-miterlimit="8" fill="#00FF00" transform="matrix(1 0 -0 1.00033 173.5 89.5)"/><path d="M0 23.4923 22.5 0 45.0001 23.4923 22.5 46.9845Z" stroke="#000000" stroke-miterlimit="8" fill="#00B0F0" fill-rule="evenodd" transform="matrix(1 0 -0 1.00033 183.5 30.5)"/><path d="M0 8.49721C-1.20947e-15 3.80433 4.25328-1.08181e-15 9.49996-2.16362e-15 14.7466-4.32723e-15 18.9999 3.80433 18.9999 8.49721 18.9999 13.1901 14.7466 16.9944 9.49996 16.9944 4.25328 16.9944-6.04736e-15 13.1901 0 8.49721Z" stroke="#000000" stroke-miterlimit="8" fill="#FF0000" fill-rule="evenodd" transform="matrix(1 0 -0 1.00033 35.5 249.5)"/><path d="M5.03062e-05 15.2736 23 0 46 15.2736 37.2148 39.9868 8.78523 39.9868Z" stroke="#000000" stroke-miterlimit="8" fill="#FFFF00" fill-rule="evenodd" transform="matrix(1 0 0 -1.00033 62.5 113.5)"/><path d="M0 17.9941C-1.4641e-15 8.05624 5.14873-2.29089e-15 11.5-4.58178e-15 17.8513-9.16357e-15 23 8.05624 23 17.9941 23 27.932 17.8513 35.9882 11.5 35.9882 5.14873 35.9882-7.32052e-15 27.932 0 17.9941Z" stroke="#000000" stroke-miterlimit="8" fill="#002060" fill-rule="evenodd" transform="matrix(1 0 -0 1.00033 74.5 190.5)"/><path d="M0 25.9914 6.49786 0 20.5022 0 27 25.9914Z" stroke="#000000" stroke-miterlimit="8" fill="#9966FF" fill-rule="evenodd" transform="matrix(1 0 -0 1.00033 126.5 143.5)"/><path d="M0 17.1972 7.10103 6.29509 19.3989 0 33.601 0 45.8989 6.29509 52.9999 17.1972 52.9999 29.7874 45.8989 40.6896 33.601 46.9846 19.3989 46.9846 7.10103 40.6896 0 29.7874Z" stroke="#000000" stroke-miterlimit="8" fill="#008000" fill-rule="evenodd" transform="matrix(1 0 -0 1.00033 18.5 133.5)"/><path d="M4.59318e-05 15.2736 21 0 42 15.2736 33.9787 39.9868 8.0213 39.9868Z" stroke="#000000" stroke-miterlimit="8" fill="#993366" fill-rule="evenodd" transform="matrix(1 0 -0 1.00033 117.5 39.5)"/></g></svg>