<svg width="250" height="301" xmlns="http://www.w3.org/2000/svg" xmlns:xlink="http://www.w3.org/1999/xlink" overflow="hidden"><defs><clipPath id="clip0"><path d="M0 0 250 0 250 301 0 301Z" fill-rule="evenodd" clip-rule="evenodd"/></clipPath></defs><g clip-path="url(#clip0)"><rect x="0" y="0" width="250" height="300.901" fill="#FFFFFF" transform="scale(1 1.00033)"/><path d="M0 0 211.482 0.000105127" stroke="#000000" stroke-miterlimit="8" fill="none" fill-rule="evenodd" transform="matrix(1 0 -0 1.00033 19.5 14.5)"/><path d="M0 0 211.482 0.000105127" stroke="#000000" stroke-miterlimit="8" fill="none" fill-rule="evenodd" transform="matrix(1 0 -0 1.00033 19.5 23.5)"/><path d="M0 0 0.000105127 133.926" stroke="#000000" stroke-miterlimit="8" fill="none" fill-rule="evenodd" transform="matrix(-1 -8.74228e-08 -8.74515e-08 1.00033 45.5001 23.5)"/><path d="M0 0 0.374252 69.412" stroke="#000000" stroke-miterlimit="8" fill="none" fill-rule="evenodd" transform="matrix(1 0 -0 1.00033 125.5 23.5)"/><path d="M0 0 0.000105127 62.6101" stroke="#000000" stroke-miterlimit="8" fill="none" fill-rule="evenodd" transform="matrix(1 0 -0 1.00033 205.5 23.5)"/><path d="M0 10.9964C-3.18283e-15 4.92325 11.1929-1.39999e-15 25-2.79998e-15 38.8071-5.59995e-15 50 4.92325 50 10.9964 50 17.0695 38.8071 21.9928 25 21.9928 11.1929 21.9928-1.59142e-14 17.0695 0 10.9964Z" stroke="#000000" stroke-miterlimit="8" fill="#0033CC" fill-rule="evenodd" transform="matrix(1 0 -0 1.00033 179.5 83.5)"/><path d="M0 31.9895 18 0 35.9999 31.9895 18 63.9789Z" stroke="#000000" stroke-miterlimit="8" fill="#FF0000" fill-rule="evenodd" transform="matrix(1 0 -0 1.00033 108.5 62.5)"/><rect x="0" y="0" width="81.0001" height="13.9955" stroke="#000000" stroke-miterlimit="8" fill="#FF66FF" transform="matrix(1 0 -0 1.00033 164.5 42.5)"/><path d="M0 62.9794 22.5 0 45.0001 62.9794Z" stroke="#000000" stroke-miterlimit="8" fill="#843C0C" fill-rule="evenodd" transform="matrix(-1 -8.74228e-08 8.74515e-08 -1.00033 68.5 214.5)"/></g></svg>