<svg width="250" height="301" xmlns="http://www.w3.org/2000/svg" xmlns:xlink="http://www.w3.org/1999/xlink" overflow="hidden"><defs><clipPath id="clip0"><path d="M0 0 250 0 250 301 0 301Z" fill-rule="evenodd" clip-rule="evenodd"/></clipPath></defs><g clip-path="url(#clip0)"><rect x="0" y="0" width="250" height="300.901" fill="#FFFFFF" transform="scale(1 1.00033)"/><path d="M0 0 211.482 0.000105127" stroke="#000000" stroke-miterlimit="8" fill="none" fill-rule="evenodd" transform="matrix(1 0 -0 1.00033 19.5 14.5)"/><path d="M0 0 211.482 0.000105127" stroke="#000000" stroke-miterlimit="8" fill="none" fill-rule="evenodd" transform="matrix(1 0 -0 1.00033 19.5 23.5)"/><path d="M0 0 0.000105127 254.412" stroke="#000000" stroke-miterlimit="8" fill="none" fill-rule="evenodd" transform="matrix(1 0 -0 1.00033 45.5 23.5)"/><path d="M0 0 0.000105127 229.25" stroke="#000000" stroke-miterlimit="8" fill="none" fill-rule="evenodd" transform="matrix(1 0 -0 1.00033 125.5 23.5)"/><path d="M0 0 0.000105127 211.351" stroke="#000000" stroke-miterlimit="8" fill="none" fill-rule="evenodd" transform="matrix(1 0 -0 1.00033 205.5 23.5)"/><rect x="0" y="0" width="31" height="21.9928" stroke="#000000" stroke-miterlimit="8" fill="#FF0000" transform="matrix(1 0 -0 1.00033 29.5 117.5)"/><rect x="0" y="0" width="51.9999" height="50.9833" stroke="#000000" stroke-miterlimit="8" fill="#FF66FF" transform="matrix(1 0 -0 1.00033 99.5 227.5)"/><path d="M0 24.9918C-2.73724e-15 11.1892 9.62588-3.18179e-15 21.5-6.36358e-15 33.3741-1.27272e-14 43 11.1892 43 24.9918 43 38.7944 33.3741 49.9836 21.5 49.9836 9.62588 49.9836-1.36862e-14 38.7944 0 24.9918Z" stroke="#000000" stroke-miterlimit="8" fill="#0033CC" fill-rule="evenodd" transform="matrix(1 0 -0 1.00033 103.5 103.5)"/><path d="M0 29.9902 7.49754 0 48.5025 0 56 29.9902Z" stroke="#000000" stroke-miterlimit="8" fill="#00B0F0" fill-rule="evenodd" transform="matrix(1 0 -0 1.00033 177.5 235.5)"/><path d="M0 23.4923 22.5 0 44.9999 23.4923 22.5 46.9846Z" stroke="#000000" stroke-miterlimit="8" fill="#FFC000" fill-rule="evenodd" transform="matrix(1 0 -0 1.00033 182.5 50.5)"/><path d="M0 0 43.2601 0.301504" stroke="#000000" stroke-miterlimit="8" fill="none" fill-rule="evenodd" transform="matrix(1 0 -0 1.00033 60.5 128.5)"/><path d="M0 10.2451 4.68937 3.75025 12.8107 0 22.1894 0 30.3107 3.75025 35.0001 10.2451 35.0001 17.7456 30.3107 24.2405 22.1894 27.9907 12.8107 27.9907 4.68937 24.2405 0 17.7456Z" stroke="#000000" stroke-miterlimit="8" fill="#843C0C" fill-rule="evenodd" transform="matrix(1 0 -0 1.00033 27.5 264.5)"/></g></svg>