<svg width="301" height="250" xmlns="http://www.w3.org/2000/svg" xmlns:xlink="http://www.w3.org/1999/xlink" overflow="hidden"><defs><clipPath id="clip0"><path d="M0 0 301 0 301 250 0 250Z" fill-rule="evenodd" clip-rule="evenodd"/></clipPath></defs><g clip-path="url(#clip0)"><rect x="0" y="0" width="300.901" height="250" fill="#D3D3C3" transform="scale(1.00033 1)"/><path d="M17.2125 0 17.2125 0C13.9118 0.112608 10.6016 0.0571556 7.31057 0.337931 6.61718 0.397109 5.90912 0.6186 5.33019 1.01379L4.34 1.68966C4.11992 2.02759 3.85733 2.34019 3.67987 2.70345 3.52425 3.02201 3.56718 3.43913 3.34981 3.71724 3.10197 4.03442 2.68968 4.16778 2.35962 4.39311L1.69949 6.42069C1.5895 6.75863 1.56237 7.13807 1.36943 7.43449 0.516355 8.7447 0.834775 8.06299 0.379235 9.46207-0.0935613 14.3032-0.158327 13.2702 0.379235 19.6 0.466351 20.626 1.64231 22.0467 2.02955 22.6414 2.24963 22.9793 2.5642 23.2699 2.68968 23.6552 2.79967 23.9931 2.8268 24.3726 3.01974 24.669 3.2787 25.0666 3.67987 25.3448 4.00993 25.6828L5.33019 29.738C5.44017 30.0759 5.46731 30.4553 5.66025 30.7517 5.88033 31.0897 6.15925 31.3944 6.32038 31.7655 6.60293 32.4166 6.59451 33.2004 6.98051 33.7931 7.42056 34.469 8.04991 35.0501 8.30076 35.8207 8.41075 36.1586 8.54641 36.4889 8.63082 36.8345 9.10196 38.7639 8.7827 38.1413 9.29095 39.8759 9.49086 40.5582 9.81458 41.2048 9.95108 41.9035 10.0611 42.4667 10.1335 43.039 10.2811 43.5931 10.4642 44.2805 10.2811 45.3954 10.9413 45.6207 11.2713 45.7333 11.6273 45.7857 11.9315 45.9586 12.625 46.3531 13.1592 47.0535 13.9118 47.3104 16.4007 48.1597 13.3329 47.014 15.8922 48.3242 16.3657 48.5665 17.7797 48.8918 18.2027 49 18.8628 48.8874 19.5268 48.7965 20.183 48.6621 20.6279 48.571 21.057 48.4073 21.5033 48.3242 22.2687 48.1817 23.0436 48.0988 23.8137 47.9862L26.7843 46.9724C27.1144 46.8598 27.485 46.8321 27.7745 46.6345L29.7549 45.2828 30.7451 44.6069C31.7912 43.0004 31.0289 43.7216 33.3856 42.9173L34.3758 42.5793C34.7058 42.2414 35.0074 41.8715 35.366 41.5655 36.61 40.5041 36.9486 41.0977 37.6764 38.8621L38.6666 35.8207 38.9967 34.8069C39.1067 34.469 39.2423 34.1387 39.3267 33.7931 39.7412 32.0958 39.5133 32.882 39.9869 31.4276 39.8769 28.2736 39.8378 25.1161 39.6568 21.9655 39.6132 21.208 39.2443 19.4312 38.9967 18.5862 38.6665 17.4595 38.1967 16.3752 38.0065 15.2069 37.8606 14.3111 37.8623 13.3914 37.6764 12.5035 36.8632 8.61773 37.4181 11.9083 36.3562 9.46207 35.1985 6.79524 36.4871 7.97443 34.7058 6.75863 34.0633 4.785 34.8785 6.59748 33.3856 5.06897 31.1851 2.81606 34.3758 5.18158 31.7353 3.37931 30.1518 0.947378 32.3941 3.94172 29.0948 1.68966 28.7647 1.46433 28.4594 1.19548 28.1046 1.01379 27.7934 0.85446 27.4621 0.688528 27.1144 0.675862 24.3657 0.575388 18.8628 0.112608 17.2125 0Z" stroke="#000000" stroke-miterlimit="8" fill="#D9D9D9" fill-rule="evenodd" transform="matrix(1.00033 0 -0 1 239.5 144.5)"/><path d="M26.4566 0 26.4566 0C25.4524 0.111393 24.4406 0.168354 23.444 0.334286 23.096 0.392193 22.7906 0.631721 22.4398 0.668571 20.6609 0.855561 18.8692 0.891464 17.084 1.00286 13.7091 2.12627 18.9439 0.412198 14.7408 1.67143 13.7269 1.97518 12.7324 2.34 11.7282 2.67429L9.71973 3.34286 8.71552 3.67714C8.26923 4.34571 7.63097 4.92058 7.37656 5.68286 7.26502 6.01714 7.19966 6.37059 7.04183 6.68571 6.86186 7.04506 6.55232 7.32923 6.37235 7.68857 6.21452 8.00369 6.19544 8.3763 6.03761 8.69143 5.85765 9.05077 5.54811 9.33494 5.36814 9.69428 5.21031 10.0094 5.25385 10.422 5.0334 10.6971 4.78206 11.0109 4.36393 11.1428 4.02919 11.3657 3.91764 11.7 3.85228 12.0534 3.69445 12.3686 3.51448 12.7279 3.18839 13.0043 3.02497 13.3714 2.73842 14.0155 2.3555 15.3771 2.3555 15.3771 2.24396 16.2686 2.18165 17.1675 2.02076 18.0514 1.95761 18.3981 1.78291 18.7155 1.68602 19.0543 1.55961 19.4961 1.46283 19.9457 1.35129 20.3914 1.23974 22.7314 1.21138 25.0769 1.01655 27.4114 0.987239 27.7626 0.7787 28.0755 0.681811 28.4143 0.555401 28.8561 0.458617 29.3057 0.347073 29.7514-0.0495517 54.3073-0.177543 49.9036 0.347073 76.8857 0.399155 79.5618 0.497415 82.2383 0.681811 84.9086 0.727989 85.5772 1.637 89.1075 1.68602 89.2543L3.02497 93.2657 3.35971 94.2686C3.47126 94.6029 3.49877 94.9782 3.69445 95.2714 4.14073 95.94 4.36393 96.8315 5.0334 97.2771L6.03761 97.9457C6.26081 98.28 6.42264 98.6645 6.70709 98.9486 6.99154 99.2326 7.44636 99.3148 7.7113 99.6171 8.24119 100.222 8.60397 100.954 9.05025 101.623 9.27345 101.957 9.38499 102.403 9.71973 102.626L10.7239 103.294C11.8397 104.966 11.0587 104.074 13.4018 105.634 13.7366 105.857 14.0244 106.176 14.4061 106.303 14.7408 106.414 15.0947 106.48 15.4103 106.637 15.7701 106.817 16.0547 107.126 16.4145 107.306 16.73 107.463 17.1102 107.469 17.4187 107.64 18.122 108.03 18.7576 108.531 19.4271 108.977 19.7619 109.2 20.0497 109.519 20.4313 109.646L23.444 110.649C23.7787 110.76 24.1546 110.787 24.4482 110.983 24.7829 111.206 25.0848 111.488 25.4524 111.651 26.0973 111.938 26.7914 112.097 27.4608 112.32 27.7956 112.431 28.1714 112.459 28.465 112.654 28.7998 112.877 29.1016 113.16 29.4693 113.323 31.1079 114.05 31.3187 113.877 32.8166 114.326 33.4925 114.528 34.1556 114.771 34.8251 114.994L36.8335 115.663 37.8377 115.997C38.1724 116.109 38.4926 116.282 38.8419 116.331 41.857 116.762 40.4068 116.536 43.1935 117 47.9914 116.889 52.7974 116.965 57.5872 116.666 58.911 116.583 59.2453 115.838 60.2651 115.329 60.5807 115.171 60.9346 115.106 61.2693 114.994 61.4925 114.66 61.6813 114.3 61.9388 113.991 62.9016 112.838 63.7179 112.673 64.282 110.983L65.2862 107.974C65.3977 107.64 65.4253 107.265 65.6209 106.971 67.5902 104.021 64.5698 108.737 66.9599 103.963 68.0823 101.721 67.2805 103.564 67.9641 101.289 68.1668 100.614 68.2421 99.8692 68.6336 99.2828 69.4349 98.0824 69.631 97.9792 69.9725 96.2743 70.0841 95.7171 70.1576 95.151 70.3073 94.6029 70.4929 93.9229 70.9767 92.5971 70.9767 92.5971 70.8652 84.3514 70.9514 76.1007 70.642 67.86 70.6155 67.1557 70.0885 66.5494 69.9725 65.8543 69.861 65.1857 69.7709 64.5132 69.6378 63.8486 69.0116 60.7222 69.6064 64.0575 68.9683 61.5086 68.4905 59.6 68.8143 60.2159 68.2988 58.5 68.0961 57.825 67.8005 57.178 67.6294 56.4943 67.4062 55.6028 67.2509 54.6917 66.9599 53.82 65.835 50.4497 67.5513 55.6775 66.2904 51.48 66.0877 50.805 65.7594 50.1654 65.6209 49.4743 64.3871 43.3136 65.9808 50.9117 64.9515 46.8 64.8135 46.2488 64.7547 45.6797 64.6167 45.1286 64.5311 44.7867 64.3789 44.4645 64.282 44.1257 64.1556 43.6839 64.1285 43.2109 63.9472 42.7886 63.7888 42.4193 63.501 42.12 63.2778 41.7857 63.1705 41.3573 62.8484 39.9253 62.6083 39.4457 62.4283 39.0864 62.162 38.7771 61.9388 38.4429 61.0982 35.0848 61.5603 36.6402 60.5999 33.7629L60.2651 32.76C60.1536 32.4257 60.1261 32.0504 59.9304 31.7571 59.7072 31.4229 59.4243 31.1214 59.2609 30.7543 58.9744 30.1102 58.8146 29.4171 58.5914 28.7486L57.922 26.7429 57.2525 24.7371C57.1409 24.4029 57.0034 24.0761 56.9177 23.7343 56.8062 23.2886 56.7152 22.8372 56.583 22.3971 56.3803 21.7221 56.1367 21.06 55.9135 20.3914L54.5746 16.38 52.9009 11.3657 52.5662 10.3629C52.4546 10.0286 52.525 9.55541 52.2314 9.36 49.3535 7.44399 52.9947 9.74114 50.223 8.35714 49.8632 8.17742 49.5885 7.84682 49.2188 7.68857 48.7959 7.50758 48.3205 7.48631 47.8798 7.35428 47.2039 7.15182 46.5409 6.90861 45.8714 6.68571 45.5367 6.57432 45.2132 6.4205 44.8672 6.35143 44.2306 6.22424 42.8755 6.02546 42.1893 5.68286 41.8295 5.50313 41.5449 5.19401 41.1851 5.01429 40.8695 4.85667 40.4964 4.83761 40.1809 4.68 39.821 4.50027 39.5365 4.19115 39.1767 4.01143 38.8611 3.85381 38.4809 3.84823 38.1724 3.67714 37.4691 3.28695 36.8335 2.78568 36.164 2.34 35.8293 2.11711 35.5415 1.79851 35.1598 1.67143 32.6 0.819342 35.231 1.60499 29.804 1.00286 22.7846 0.223945 27.0145 0.16709 26.4566 0Z" stroke="#000000" stroke-miterlimit="8" fill="#A6A6A6" fill-rule="evenodd" transform="matrix(1.00033 0 -0 1 26.5 72.5)"/><path d="M19.1673 3.409 19.1673 3.409C18.3962 2.8408 17.7015 2.1416 16.854 1.7045 16.3515 1.44542 15.7633 1.3636 15.2016 1.3636 12.5556 1.3636 9.9141 1.5909 7.27034 1.7045 4.77844 2.56131 7.84999 1.40547 5.28752 2.7272 4.97599 2.88793 4.60764 2.90737 4.29611 3.0681 3.94087 3.25138 3.66764 3.58348 3.3047 3.7499 2.66801 4.04173 1.32188 4.4317 1.32188 4.4317 0.491281 7.00224 1.61176 3.83375 0.33047 6.4771 0.174655 6.79846 0.110122 7.1589 0 7.4998 0.252302 10.8836 0.0179026 10.9732 0.66094 13.2951 0.756594 13.6406 0.835594 13.9964 0.99141 14.3178 1.16908 14.6842 1.47468 14.974 1.65235 15.3405 2.45047 16.9871 1.30294 15.8957 2.97423 17.045 4.08836 18.769 3.03033 17.5853 4.62658 18.4086 4.98182 18.5919 5.25504 18.924 5.61799 19.0904 6.25468 19.3822 6.93987 19.5449 7.60081 19.7722 10.8936 20.9044 8.24426 20.0968 15.8626 20.454 22.5389 21.3149 19.3113 21.036 31.7251 20.454 32.3394 20.4252 33.4181 19.955 34.0384 19.7722 34.3907 19.6684 35.9322 19.3308 36.3517 19.0904 37.046 18.6925 38.3345 17.7268 38.3345 17.7268 39.8496 15.3824 39.4052 16.4588 39.9869 14.6587 39.8767 12.2724 39.8487 9.88051 39.6564 7.4998 39.6275 7.14172 39.4216 6.82261 39.3259 6.4771 39.2011 6.02657 39.126 5.5623 38.9954 5.1135 38.7953 4.42515 38.5549 3.7499 38.3345 3.0681 38.2244 2.7272 38.2939 2.24468 38.004 2.0454 37.3431 1.5909 36.7748 0.940884 36.0212 0.6818L34.0384 0C29.3017 0.113597 24.5574 0.0421964 19.8282 0.3409 19.1328 0.384814 17.8454 1.0227 17.8454 1.0227L19.1673 3.409Z" stroke="#000000" stroke-miterlimit="8" fill="#D9D9D9" fill-rule="evenodd" transform="matrix(1.00033 0 -0 1 31.5 52.5)"/><path d="M29.0173 0 29.0173 0C28.1189 0.333333 27.2646 0.822362 26.322 1 24.8836 1.27108 23.405 1.27045 21.9421 1.33333 18.2379 1.4927 14.5295 1.53806 10.8239 1.66667L2.73798 2C2.17642 2.11108 1.60891 2.19591 1.0534 2.33333 0.708848 2.41858 0.201512 2.35244 0.0426582 2.66667-0.116196 2.98089 0.207136 3.35948 0.379573 3.66667 0.772835 4.36703 1.47118 4.90656 1.72723 5.66667 1.95188 6.33333 2.00706 7.082 2.40106 7.66667 3.27184 8.95906 2.94681 8.28662 3.41181 9.66667 3.52408 12.8889 3.54541 16.1155 3.74872 19.3333 3.7709 19.684 3.99947 19.9924 4.08564 20.3333 4.22454 20.8829 4.31028 21.4444 4.42255 22 4.31028 25.1111 4.28821 28.2267 4.08564 31.3333 4.06282 31.684 3.84221 31.9943 3.74872 32.3333 3.50508 33.2173 3.36777 34.1308 3.07489 35L2.40106 37C2.28879 37.3333 2.2611 37.7076 2.06415 38 1.8395 38.3333 1.5548 38.6339 1.39032 39 1.1019 39.6422 0.941133 40.3333 0.716488 41L0.379573 42C0.491843 50 0.405677 58.0052 0.716488 66 0.74376 66.7023 1.16567 67.3333 1.39032 68L2.06415 70C2.17642 70.3334 2.20411 70.7076 2.40106 71 2.62571 71.3334 2.91041 71.6339 3.07489 72 3.36331 72.6422 3.52408 73.3334 3.74872 74L4.42255 76C4.69654 76.8133 4.78016 77.3538 5.4333 78 5.71959 78.2833 6.10713 78.4444 6.44404 78.6667 6.66869 79 6.80165 79.4164 7.11787 79.6667 7.39515 79.8862 7.81101 79.8429 8.12862 80 8.49079 80.1792 8.77719 80.4875 9.13936 80.6667 9.70548 80.9468 10.9581 81.1731 11.4978 81.3334 12.1781 81.5352 12.8454 81.7778 13.5193 82L17.5622 83.3334 18.573 83.6667C19.3278 83.9156 20.1457 84.2138 20.9314 84.3334 22.9258 84.637 26.5393 84.8627 28.3435 85 29.0635 85.2375 29.9615 85.562 30.7019 85.6667 31.8192 85.8246 32.948 85.8889 34.0711 86L50.9168 85.6667C52.1753 85.6197 52.9175 84.395 53.2752 83.3334 53.3875 83 53.4533 82.6476 53.6121 82.3334 53.7933 81.975 54.1048 81.6917 54.286 81.3334 54.4448 81.0191 54.483 80.6563 54.6229 80.3334 54.8207 79.8767 55.0989 79.4567 55.2967 79 55.8481 77.7272 55.9718 76.3284 56.3074 75 57.3434 70.9001 55.7394 78.4764 56.9813 72.3334 56.869 69.6667 56.8436 66.9951 56.6444 64.3334 56.6181 63.9829 56.4009 63.6723 56.3074 63.3333 56.0638 62.4494 55.8153 61.5652 55.6336 60.6667 55.2059 58.5508 55.4356 59.5496 54.9598 57.6667 54.8475 56 54.7094 54.3348 54.6229 52.6667 54.4847 50.0012 54.5544 47.3224 54.286 44.6667 54.2153 43.9675 53.7844 43.3485 53.6121 42.6667 53.3875 41.7778 53.2312 40.8692 52.9383 40 52.826 39.6667 52.6989 39.3379 52.6014 39 52.4742 38.5595 52.365 38.1139 52.2645 37.6667 52.1402 37.1136 52.0782 36.5466 51.9276 36 51.7407 35.322 51.3931 34.6891 51.2537 34 51.0291 32.8889 50.9421 31.7416 50.5799 30.6667 50.0965 29.232 50.3291 30.0076 49.9061 28.3333 49.3437 23.3251 49.8372 27.2235 49.2322 23.3333 49.0621 22.2392 48.8724 20.4724 48.5584 19.3333 48.3715 18.6553 48.0568 18.0151 47.8846 17.3333L47.5477 16C47.4354 15 47.3296 13.9993 47.2107 13 47.1049 12.1103 47.0636 11.2092 46.8738 10.3333 46.7251 9.6462 46.4246 9 46.2 8.33334L45.8631 7.33333C45.7508 7 45.6123 6.67423 45.5262 6.33333 45.2454 5.22205 45.0438 3.85606 44.1785 3 43.8922 2.71675 43.5047 2.55559 43.1678 2.33333 42.5049 1.3495 42.6958 1.1894 41.4832 1 39.6945 0.720525 36.0926 0.333333 36.0926 0.333333 30.8142 0.44441 25.5286 0.371444 20.2576 0.666667 18.7226 0.752651 18.5958 0.977428 17.8991 1.66667" stroke="#000000" stroke-miterlimit="8" fill="#595959" fill-rule="evenodd" transform="matrix(1.00033 0 -0 1 96.5 102.5)"/><path d="M7.00841 19.2377 7.00841 19.2377C7.10564 18.7954 7.84742 14.9274 8.34334 14.1752 8.56587 13.8377 8.84789 13.5333 9.01081 13.1627 9.29651 12.5124 9.45575 11.8126 9.67828 11.1376 10.4785 8.70994 9.50768 11.7416 10.3457 8.7751 10.4423 8.43303 10.5683 8.10009 10.6795 7.76259 10.4613 3.34825 12.1749 1.76863 9.34454 0.337504 9.02994 0.178372 8.67708 0.112466 8.34334 0 7.56467 0.112466 6.78315 0.206754 6.00721 0.337504 4.73618 0.551699 4.20368 0.70913 3.0036 1.01251 2.78108 1.35002 2.61973 1.73822 2.33614 2.02502 2.05254 2.31182 1.54747 2.35604 1.33493 2.70003 0.961994 3.30339 0.889992 4.05005 0.667467 4.72505L0.333734 5.73757 0 6.75008C0.11121 8.88757 0.0815677 11.0374 0.333734 13.1627 0.417509 13.8691 1.0012 15.1877 1.0012 15.1877 1.46065 21.2274-0.131707 19.175 5.33974 19.9127 8.10663 20.2858 6.73028 19.3502 7.00841 19.2377Z" stroke="#000000" stroke-miterlimit="8" fill="#A6A6A6" fill-rule="evenodd" transform="matrix(1.00033 0 -0 1 114.5 83.5)"/><path d="M53.8951 26.6364 53.8951 26.6364 45.5263 26.2992 34.1448 25.962C32.3264 25.8788 30.279 25.5503 28.454 25.2877 24.1451 23.841 28.557 25.2293 24.7717 24.2762 21.6746 23.4963 26.6177 24.4304 22.0937 23.6019 21.3281 23.4617 19.2383 23.1547 18.4114 22.9275 17.7305 22.7405 17.0724 22.478 16.4029 22.2532L14.3944 21.5788 13.3901 21.2417C13.0553 21.1293 12.6795 21.1016 12.3858 20.9045 10.7944 19.8359 11.7633 20.3583 9.37307 19.5558L7.36455 18.8815C7.0298 18.7691 6.65393 18.7414 6.3603 18.5443 4.76888 17.4757 5.73771 17.9982 3.34752 17.1956L2.34327 16.8585 1.33901 16.5213C1.11581 16.1841 0.832927 15.8801 0.669505 15.5098 0.382936 14.8602 0 13.4868 0 13.4868 0.111549 13.0372 0.202538 12.582 0.334753 12.1381 0.537502 11.4573 0.865823 10.8121 1.00426 10.1151 1.11581 9.5531 1.18929 8.98209 1.33901 8.42923 1.52468 7.74343 1.8374 7.09585 2.00851 6.40622 2.28749 5.28214 2.48782 3.90044 3.34752 3.03452 4.46207 1.91194 4.1309 2.70861 5.35604 2.02302 6.05939 1.62946 6.69505 1.12386 7.36455 0.674339L8.36881 0C14.164 0.110124 28.1659 0.275895 35.4838 0.674339 36.8125 0.746657 38.7724 0.996641 40.1703 1.34868 40.5126 1.43491 40.8241 1.64432 41.1746 1.68585 42.73 1.8702 44.2989 1.91066 45.8611 2.02302 46.5306 1.91066 47.2112 1.85162 47.8696 1.68585 48.5543 1.51349 49.8781 1.01151 49.8781 1.01151 50.7708 1.12386 51.671 1.18662 52.5561 1.34868 52.9033 1.41229 53.2211 1.58825 53.5604 1.68585 54.0028 1.81317 54.4587 1.88985 54.8994 2.02302 55.5753 2.22723 56.2384 2.47254 56.9079 2.69735 57.2427 2.80971 57.5698 2.94829 57.9122 3.03452 58.2693 3.12447 62.0224 3.99623 62.5987 4.3832 62.9335 4.60802 63.2353 4.89294 63.603 5.05754 67.1882 6.66247 64.343 4.88009 66.6157 6.40622 68.4011 9.10357 66.0578 5.84423 68.2895 8.09206 70.5212 10.3399 67.2852 7.97971 69.9633 9.77791 70.0748 10.1151 70.0776 10.5119 70.298 10.7894 70.5494 11.1059 71.0891 11.1201 71.3023 11.4638 71.6764 12.0665 71.5803 12.8954 71.9718 13.4868 72.837 14.794 72.514 14.1139 72.976 15.5098 72.7878 17.0263 72.8375 19.021 71.637 20.2302 71.3526 20.5167 70.9675 20.6797 70.6328 20.9045 69.9024 23.1114 70.9168 20.9454 69.2938 22.2532 65.5318 25.2845 71.5466 21.6244 67.62 23.6019 67.2602 23.7831 66.9756 24.0949 66.6157 24.2762 66.3002 24.4352 65.927 24.4544 65.6115 24.6134 65.2516 24.7946 64.9749 25.1231 64.6072 25.2877 62.5779 26.1961 62.6955 25.828 60.5902 26.2992 57.9195 26.897 61.9637 26.7724 56.5732 26.9735 54.566 27.0484 52.5561 26.9735 53.8951 26.6364Z" stroke="#000000" stroke-miterlimit="8" fill="#D9D9D9" fill-rule="evenodd" transform="matrix(1.00033 0 -0 1 160.5 115.5)"/><path d="M53.9823 2.01242 53.9823 2.01242C52.9826 2.23606 51.997 2.53745 50.9833 2.68323 46.4183 3.33967 43.7432 2.88817 38.654 2.68323 33.6902 2.79426 24.7395 2.77133 18.6605 3.35404 17.9879 3.41848 17.3309 3.59954 16.6612 3.68944 15.6642 3.82328 14.6603 3.89924 13.6622 4.02484 6.05471 4.98204 17.5903 3.66007 8.3306 4.69565L4.33191 6.03726 2.33257 6.70807C1.99934 6.81984 1.62519 6.84741 1.3329 7.04348L0.333224 7.71428C0.222184 8.04969 0 8.36692 0 8.72049 0 9.33848 0.256084 11.2484 0.666448 12.0745 0.845602 12.4351 1.17022 12.7124 1.3329 13.0807 1.61816 13.7269 1.77716 14.4224 1.99934 15.0932L2.99902 18.1118 3.33224 19.118C3.44328 19.4534 3.58024 19.7812 3.66547 20.1242L4.33191 22.8074C4.22087 26.7205 4.28248 30.6424 3.99869 34.5466L2.99902 37.5652 2.66579 38.5714 2.33257 39.5776C2.44361 40.9192 2.44592 42.2745 2.66579 43.6025 2.78124 44.2999 3.11006 44.9441 3.33224 45.6149 3.44328 45.9503 3.33224 46.5093 3.66547 46.6211L4.66514 46.9565C6.26377 49.3702 3.99995 46.3983 7.33093 48.6335 8.11786 49.1616 9.23026 50.163 10.3299 50.3105 11.6557 50.4884 12.9957 50.5342 14.3286 50.6459 14.7729 50.7577 15.206 50.9339 15.6615 50.9813 18.4325 51.2698 23.9921 51.6522 23.9921 51.6522 25.1587 51.9457 26.4637 52.323 27.6576 52.323 29.2166 52.323 30.7677 52.0993 32.3227 51.9876 38.1065 51.0173 36.0244 51.2354 46.9846 51.9876 47.6855 52.0356 48.3995 52.2661 48.9839 52.6584 49.6136 53.0808 50.1846 53.5915 50.9833 53.6646 53.0879 53.8572 55.2042 53.8882 57.3145 54L81.6399 53.6646C82.5916 53.6409 85.3476 53.3009 86.305 52.6584L87.3047 51.9876C87.5269 51.6522 87.688 51.2664 87.9712 50.9813 88.2543 50.6963 88.7206 50.6253 88.9708 50.3105 89.1903 50.0345 89.1335 49.6134 89.3041 49.3043 89.693 48.5996 90.1927 47.9627 90.637 47.2919 90.8591 46.9565 91.1767 46.6681 91.3034 46.2857 92.1409 43.7566 91.0111 46.874 92.3031 44.2733 92.5421 43.7921 92.8628 42.3553 92.9695 41.9254 92.8455 39.3043 92.8836 35.4558 92.3031 32.5341 92.2342 32.1874 92.0809 31.8633 91.9698 31.5279 91.8588 30.7454 91.7772 29.9579 91.6366 29.1801 91.4352 28.0649 90.9848 26.8762 90.637 25.8261L89.6373 22.8074 88.6376 19.7888C88.5266 19.4534 88.3732 19.1293 88.3044 18.7826 88.1933 18.2236 88.0941 17.6621 87.9712 17.1056 87.8718 16.6556 87.7223 16.2171 87.6379 15.764 87.3889 14.4271 87.2993 13.0587 86.9715 11.7391 86.8605 11.292 86.7377 10.8475 86.6383 10.3975 86.0102 7.55308 86.6789 9.84935 85.6386 6.70807 85.419 6.04519 85.2261 5.16849 84.6389 4.69565 84.3647 4.47476 83.9725 4.47201 83.6392 4.36025 83.5282 4.02484 83.5545 3.60408 83.306 3.35404 83.0576 3.10399 82.6205 3.17677 82.3064 3.01863 81.9482 2.83831 81.6649 2.52815 81.3067 2.34783 80.9926 2.18968 80.6298 2.15165 80.307 2.01242 78.5298 1.2458 79.5374 1.4557 77.9744 1.00621 77.5341 0.87955 77.0802 0.803278 76.6415 0.670807 75.9687 0.467663 74.6422 0 74.6422 0 73.4203 0.111766 72.1849 0.120851 70.9767 0.335404L67.9777 1.34161C67.6445 1.45338 67.3225 1.60772 66.978 1.67702 65.8673 1.90066 64.7204 1.98728 63.6458 2.34783 62.2279 2.82352 62.2628 2.87845 60.3136 3.01863 59.538 3.07441 55.0375 2.18007 53.9823 2.01242Z" stroke="#000000" stroke-miterlimit="8" fill="#A6A6A6" fill-rule="evenodd" transform="matrix(1.00033 0 -0 1 150.5 138.5)"/></g></svg>