<svg width="301" height="250" xmlns="http://www.w3.org/2000/svg" xmlns:xlink="http://www.w3.org/1999/xlink" overflow="hidden"><defs><clipPath id="clip0"><path d="M0 0 301 0 301 250 0 250Z" fill-rule="evenodd" clip-rule="evenodd"/></clipPath></defs><g clip-path="url(#clip0)"><rect x="0" y="0" width="300.901" height="250" fill="#D3D3C3" transform="scale(1.00033 1)"/><path d="M2.65259 0 2.65259 0 17.905 0.345323C19.1002 0.396116 18.9203 0.754926 19.2313 1.72662L29.5101 1.38129C30.3999 1.33376 31.2733 1.09383 32.1627 1.03597 34.8124 0.863472 37.4678 0.805718 40.1204 0.690647L55.0413 1.03597C55.8344 1.117 56.2746 2.15482 57.0307 2.41726L59.0201 3.10791C60.5675 5.52517 59.6833 4.71946 61.3412 5.8705 61.5622 6.21582 61.826 6.53526 62.0043 6.90647 62.7306 8.41937 62.5603 11.4836 62.6675 12.4316 62.7207 12.903 62.8681 13.3583 62.999 13.8129L63.9937 16.9208 65.32 21.0647 65.6516 22.1007 65.9832 23.1367C66.11 24.9849 66.2764 28.6151 66.6463 30.7338 66.7089 31.0919 66.8674 31.4244 66.9779 31.7698 66.1776 35.9369 66.6712 34.1094 65.6516 37.2949 65.5411 37.6403 65.6109 38.129 65.32 38.3309L64.3253 39.0215C64.1042 39.3669 63.9621 39.7842 63.6622 40.0575 60.8742 42.5981 62.6515 40.7565 60.678 41.7841 60.3216 41.9698 60.0474 42.3062 59.6833 42.4748 57.4319 43.517 56.4854 43.2703 53.715 43.5108 53.3834 43.8561 53.0205 44.1716 52.7202 44.5467 52.4651 44.8655 52.3388 45.2892 52.0571 45.5827 50.7074 46.9883 51.0428 45.5963 49.0729 46.964 47.6093 47.9802 48.469 47.5733 46.4203 48L37.7994 47.6546C36.3602 47.5777 34.9268 47.4092 33.489 47.3093L27.8522 46.964C26.6345 46.8734 25.4217 46.72 24.2049 46.6187L19.5629 46.2733C17.1285 45.4282 18.0677 46.0975 16.5787 44.5467 15.8051 44.6618 15.0392 44.892 14.2577 44.892 11.4498 44.892 11.2384 44.6496 8.95249 43.8561L6.96305 43.1654 5.96833 42.8201C5.74724 42.4748 5.61639 42.0434 5.30518 41.7841 5.0323 41.5567 4.55765 41.6963 4.31046 41.4388 4.06327 41.1814 4.13522 40.7284 3.97889 40.4028 3.80062 40.0316 3.47761 39.7461 3.31574 39.3669L2.32102 36.259C2.21053 35.9136 2.07424 35.5761 1.98944 35.223L1.3263 32.4604C0.504306 23.0435 1.52576 35.5798 0.663148 17.6115 0.60383 16.3767 0.209701 14.0875 0 12.777 0.11049 11.0503 0.157589 9.31808 0.331574 7.59712 0.3793 7.12508 0.56425 6.67915 0.663148 6.21582 0.785438 5.64286 0.858019 5.05858 0.994721 4.4892 1.36128 2.96228 1.3263 3.93799 2.65259 0Z" stroke="#000000" stroke-miterlimit="8" fill="#A6A6A6" fill-rule="evenodd" transform="matrix(1.00033 0 -0 1 135.5 112.5)"/><path d="M46.8429 1.66223 46.8429 1.66223C45.1706 1.77302 43.4994 2.08714 41.8259 1.99468 41.4245 1.97248 41.1898 1.49208 40.8225 1.32979L37.8123 0.332447 36.8089 0C36.0285 0.110781 35.2358 0.156224 34.4676 0.332447 31.2262 1.07598 33.6655 0.87033 31.123 1.32979 30.3473 1.46999 29.5574 1.52203 28.7817 1.66223 28.3295 1.74401 27.8995 1.93427 27.4438 1.99468 26.2232 2.15646 24.9911 2.21635 23.7647 2.32713 21.2427 3.1627 24.3514 2.03552 21.7579 3.32447 18.9884 4.70085 22.6267 2.41634 19.7511 4.32181 19.6397 4.65426 19.7035 5.11549 19.4166 5.31915 18.8428 5.72657 17.4099 5.98405 17.4099 5.98405 17.2866 6.8416 17.2079 8.38018 16.7409 9.30851 16.5611 9.66588 16.3859 10.0562 16.072 10.3059 15.7967 10.5248 15.4031 10.5275 15.0686 10.6383 14.8456 10.9707 14.6839 11.3531 14.3997 11.6356 13.4411 12.5884 13.4809 12.0922 12.3929 12.633 12.0333 12.8117 11.7239 13.0762 11.3895 13.2979 10.9435 13.9628 10.3058 14.5345 10.0516 15.2926 9.94013 15.625 9.87482 15.9765 9.71712 16.2899 8.42034 18.8677 9.55437 15.7778 8.71372 18.2846 8.25368 22.3998 8.5773 20.2926 7.71032 24.6011L7.37586 26.2633C7.2644 27.7039 7.26809 29.158 7.04139 30.5851 6.93141 31.2774 6.51077 31.8925 6.37246 32.5798 5.96888 34.5857 6.21781 33.7059 5.70352 35.2394 5.39065 38.3488 5.45712 38.1612 5.03459 40.891 4.69823 43.0642 4.88542 42.3331 4.36566 43.883 4.20606 45.3107 3.96946 47.7113 3.69672 49.2021 3.22215 51.7964 3.40187 49.1806 3.02779 52.5266 2.87957 53.8528 2.80478 55.1862 2.69332 56.516 2.58187 63.1649 2.66267 69.8198 2.35886 76.4628 2.32683 77.163 1.8609 77.7775 1.68993 78.4575L1.35546 79.7873C1.244 84.774 1.30458 89.7674 1.02099 94.7474 0.969058 95.6597 0.352059 97.407 0.352059 97.407-0.0358169 102.034-0.192568 101.573 0.352059 106.715 0.388929 107.064 0.466252 107.439 0.686525 107.713 0.937665 108.025 1.35546 108.156 1.68993 108.378 2.13585 109.043 2.7736 109.614 3.02779 110.372 3.2508 111.037 3.02779 112.145 3.69672 112.367L6.70692 113.364C7.04139 113.475 7.36132 113.647 7.71032 113.697L10.0516 114.029C13.711 115.242 8.16815 113.308 12.0584 115.027 12.7028 115.311 13.3963 115.47 14.0652 115.692L18.0788 117.021 21.089 118.019C21.4234 118.129 21.799 118.157 22.0924 118.351 22.4268 118.573 22.7362 118.837 23.0958 119.016 23.4111 119.173 23.7909 119.178 24.0992 119.348 24.8019 119.736 25.3433 120.426 26.106 120.678 26.7749 120.9 27.5261 120.954 28.1128 121.343 28.7817 121.786 29.3569 122.42 30.1196 122.673 30.454 122.784 30.8077 122.849 31.123 123.005 33.1893 124.032 30.9583 123.449 33.4642 124.003 34.0192 124.125 34.5882 124.186 35.1366 124.335 35.8169 124.52 37.1434 125 37.1434 125 40.2947 124.687 41.2036 124.578 44.5016 124.335L49.5186 124.003C52.3942 122.097 48.7559 124.382 51.5254 123.005 54.1189 121.716 51.0102 122.844 53.5322 122.008 57.3631 122.22 59.6459 122.637 63.2318 122.008 63.9262 121.886 64.5696 121.565 65.2386 121.343 65.573 121.232 65.9486 121.205 66.242 121.011 66.5764 120.789 66.8858 120.525 67.2454 120.346 68.2766 119.833 70.0021 119.795 70.9245 119.681 72.7784 118.452 71.3121 119.719 72.2624 118.019 72.6528 117.32 73.1543 116.689 73.6002 116.024 73.8232 115.692 74.142 115.406 74.2692 115.027 74.4922 114.362 74.5469 113.615 74.9381 113.032 75.9982 111.451 75.4799 112.414 76.276 110.04 76.3874 109.707 76.4149 109.334 76.6104 109.043 78.5275 106.184 76.2291 109.801 77.6138 107.048 77.7936 106.691 78.1029 106.408 78.2828 106.051 78.4405 105.737 78.4595 105.367 78.6172 105.053 78.797 104.696 79.1229 104.421 79.2862 104.056 79.5725 103.415 79.7321 102.726 79.9551 102.061L80.2896 101.064C80.401 100.731 80.4285 100.358 80.624 100.067 81.6841 98.4861 81.1658 99.4482 81.9619 97.0745L82.6308 95.0798C82.7423 94.7474 82.8798 94.4225 82.9653 94.0825L83.2998 92.7527C83.9066 82.4979 82.9871 89.6812 83.9687 86.1038 84.2106 85.2221 84.4146 84.3307 84.6376 83.4442L84.9721 82.1144C84.8606 80.4522 84.7661 78.7887 84.6376 77.1277 84.4625 74.866 84.384 73.5401 83.9687 71.4761 83.8785 71.0281 83.7457 70.5895 83.6342 70.1463 83.5228 66.4894 83.4984 62.8288 83.2998 59.1756 83.2749 58.7193 83.0476 58.2953 82.9653 57.8458 82.3504 54.4841 82.9832 56.5695 82.2964 54.5213 82.1849 51.9725 82.0286 49.4253 81.9619 46.875 81.8056 40.8919 81.9281 34.9004 81.6274 28.9229 81.5922 28.2229 81.1295 27.6082 80.9585 26.9282 80.7355 26.0416 80.5803 25.1355 80.2896 24.2686 80.1781 23.9362 80.0519 23.6082 79.9551 23.2713 79.8288 22.8319 79.7527 22.3792 79.6206 21.9415 79.3167 20.9345 78.9517 19.9468 78.6172 18.9495 78.3452 18.1383 78.2622 17.5993 77.6138 16.9548 77.3296 16.6723 76.9449 16.5116 76.6104 16.2899 76.3874 15.9575 76.2554 15.5422 75.9415 15.2926 75.5076 14.9474 72.953 14.632 72.9313 14.6277 71.6676 14.3765 70.8664 14.0544 69.5866 13.6303 69.2522 13.5195 68.8766 13.4922 68.5832 13.2979 68.2488 13.0762 67.9394 12.8117 67.5798 12.633 67.2645 12.4762 66.8847 12.4707 66.5764 12.3005 65.8737 11.9125 65.2386 11.414 64.5696 10.9707L63.5662 10.3059C62.4514 8.64362 63.2318 9.53018 60.8905 7.97873 60.556 7.75706 60.2684 7.44021 59.8871 7.31383 59.5526 7.20305 59.1919 7.15154 58.8837 6.98139 58.181 6.59334 57.5458 6.09483 56.8769 5.6516 56.5424 5.42993 56.2548 5.11309 55.8735 4.9867 55.539 4.87592 55.1854 4.811 54.8701 4.65426 54.5106 4.47552 54.234 4.15166 53.8667 3.98936 53.2223 3.70477 52.5288 3.54614 51.8599 3.32447L48.8497 2.32713C48.5152 2.21635 48.1397 2.18902 47.8463 1.99468 47.5118 1.77302 47.2403 1.39052 46.8429 1.32979 45.741 1.16131 46.8429 1.60684 46.8429 1.66223Z" stroke="#000000" stroke-miterlimit="8" fill="#595959" fill-rule="evenodd" transform="matrix(1.00033 0 -0 1 57.5 31.5)"/><path d="M48.9971 24.5274 48.9971 24.5274C49.1067 23.5055 49.1312 22.4699 49.3259 21.4615 49.4619 20.7572 49.9836 19.4176 49.9836 19.4176 49.874 18.5091 49.8873 17.5755 49.6548 16.6923 49.2858 15.291 48.9501 15.8704 48.0106 15.3297 47.3196 14.932 46.6952 14.4212 46.0375 13.967L44.0645 12.6044 43.078 11.9231C42.9684 11.5824 42.9943 11.1551 42.7491 10.9011 40.6754 8.75284 41.4436 10.0545 39.7896 9.19779 39.4361 9.01464 39.1642 8.68278 38.8031 8.51647 38.1695 8.22485 37.4877 8.0623 36.83 7.83516L35.8435 7.4945C35.5147 7.38098 35.1933 7.24096 34.857 7.15384 34.4186 7.04032 33.9746 6.94773 33.5416 6.81318 32.8776 6.60685 31.5686 6.13186 31.5686 6.13186 31.3519 5.45859 31.1616 4.56816 30.5821 4.08791 30.3114 3.86356 29.9244 3.86077 29.5956 3.74725 29.3763 3.40659 29.273 2.94222 28.9379 2.72527 28.35 2.34459 27.6225 2.2711 26.9648 2.04395L25.9783 1.70329C21.9743 0.320702 25.3382 1.37497 15.4555 1.02198 15.017 0.90846 14.573 0.815865 14.1401 0.681318 13.4761 0.474991 12.1671 0 12.1671 0 8.05507 1.065 13.1675-0.296132 9.86518 0.681318 6.38632 1.71102 11.2656 0.0842259 6.57679 1.70329 6.24795 1.81681 5.87872 1.84482 5.59027 2.04395L3.61723 3.40659 2.63072 4.08791C2.52114 4.42857 2.51844 4.82953 2.30188 5.10988 2.05496 5.42962 1.39676 5.39057 1.31536 5.7912 1.21054 6.30707 1.53141 10.7941 0.657679 12.6044 0.480882 12.9706 0.219261 13.2857 0 13.6264 0.109579 13.967 0.112271 14.368 0.328839 14.6483 0.575754 14.9681 1.10594 14.9825 1.31536 15.3297 1.68283 15.9387 1.97304 17.3736 1.97304 17.3736 2.08262 19.304 1.71162 21.3303 2.30188 23.1648 2.55179 23.9416 3.61723 24.0733 4.27491 24.5274 4.60375 24.7546 4.8865 25.0793 5.26143 25.2088L9.20751 26.5714 10.194 26.9121C10.5229 27.0256 10.8353 27.2202 11.1805 27.2527L18.415 27.934C20.9456 28.4584 19.517 28.1342 22.6899 28.956 23.1283 29.0695 23.5552 29.2543 24.0053 29.2967 28.3944 29.7101 26.424 29.46 29.9244 29.978 30.2532 30.0915 30.5746 30.2315 30.9109 30.3186 32.8525 30.8214 33.9261 30.7884 36.1723 31 38.0358 30.8864 39.9043 30.8427 41.7626 30.6593 42.4584 30.5906 44.6312 29.7823 45.051 29.6373L46.0375 29.2967C46.3664 29.1832 46.869 29.2771 47.024 28.956L48.9971 24.5274Z" stroke="#000000" stroke-miterlimit="8" fill="#A6A6A6" fill-rule="evenodd" transform="matrix(1.00033 0 -0 1 211.5 138.5)"/><path d="M112.952 4.33333 112.952 4.33333C112.197 4.27958 105.776 3.85239 104.597 3.66667 103.69 3.52378 102.795 3.28976 101.924 3 101.313 2.79695 100.184 2.39318 99.5845 2.33333 97.8076 2.15612 96.0181 2.13659 94.2376 2 93.1214 1.91433 92.0098 1.77774 90.8959 1.66667 90.0093 1.37186 89.5157 1.17942 88.5566 1 87.2247 0.750866 85.8832 0.55559 84.5465 0.333333L82.5415 0 60.82 0.333333C60.468 0.343622 60.1644 0.605564 59.8175 0.666667 58.2662 0.939737 55.139 1.33333 55.139 1.33333 51.7698 2.45354 56.9959 0.744357 52.7998 2L49.7922 3 47.7872 3.66667C47.1659 3.87328 46.0612 4.26898 45.4479 4.33333 43.7825 4.50824 42.1036 4.52199 40.4353 4.66667 39.5407 4.74425 38.6531 4.88892 37.7619 5 37.1014 5.21963 36.2279 5.4126 35.7568 6 35.5368 6.27433 35.7093 6.7958 35.4227 7 34.8494 7.4085 34.086 7.44441 33.4176 7.66667L32.4151 8C27.5012 9.6338 31.7647 8.32388 19.048 8.66667 14.5183 10.1728 18.6559 8.34226 16.3746 10.3333 15.7702 10.861 14.3696 11.6667 14.3696 11.6667 13.617 13.9186 14.6607 11.4777 13.0329 13.3333 12.5039 13.9363 12.1417 14.6667 11.6962 15.3333L11.0278 16.3333 9.69111 18.3333C9.46829 18.6667 9.14979 18.9533 9.02275 19.3333 8.9114 19.6667 8.84614 20.0191 8.68858 20.3333 8.50891 20.6917 8.18337 20.9672 8.02023 21.3333 7.73415 21.9755 7.74267 22.7487 7.35187 23.3333 7.12905 23.6667 6.84666 23.9672 6.68352 24.3333 6.1541 25.5216 6.25441 26.428 5.34682 27.3333 5.06285 27.6166 4.67846 27.7777 4.34429 28 3.75614 29.7601 4.20546 28.7076 2.67341 31 2.45059 31.3333 2.1321 31.6199 2.00506 32L1.00253 35 0.668352 36C0.556995 36.3333 0.392065 36.6534 0.334176 37L0 39C0.0528367 39.7373-0.0911485 43.1514 0.668352 44.6667 1.36849 46.0635 1.19346 45.381 2.33923 46.3333 5.48028 48.9442 0.279129 45.2968 5.34682 48.6667 5.68099 48.8889 5.96833 49.2066 6.34935 49.3333L10.3595 50.6667 11.362 51C11.6962 51.1111 12.0137 51.3015 12.3645 51.3333 16.9349 51.7478 14.8196 51.5144 18.7139 52 19.3822 52.2222 20.0354 52.4963 20.7189 52.6667 21.6101 52.8889 22.5209 53.0436 23.3923 53.3333 26.1447 54.2485 24.7 53.9006 27.7366 54.3333 29.0904 54.7834 28.6962 54.6983 30.41 55 31.7445 55.235 33.1346 55.2393 34.4201 55.6667 36.5667 56.3804 34.8116 55.8784 38.7644 56.3333L44.1112 57C47.2302 56.8889 50.3536 56.8671 53.4682 56.6667 53.8197 56.6441 54.132 56.4298 54.4707 56.3333 54.9123 56.2074 55.3658 56.1259 55.8074 56 56.1461 55.9035 56.4599 55.7055 56.8099 55.6667 58.4743 55.4822 60.1485 55.3767 61.8226 55.3333L82.5415 55C83.0985 54.8889 83.6614 54.8041 84.2124 54.6667 84.5541 54.5814 84.871 54.4095 85.2149 54.3333 85.8763 54.1867 86.5555 54.1326 87.2199 54 87.6703 53.9101 88.115 53.7925 88.5566 53.6667 88.8954 53.5702 89.2117 53.3911 89.5592 53.3333 90.5541 53.1679 91.5642 53.1111 92.5668 53 97.8932 51.6717 88.5342 53.9679 95.9085 52.3333 96.2524 52.2571 96.5591 52.0146 96.911 52 101.921 51.7918 106.936 51.7777 111.949 51.6667L133.67 52 158.734 52.6667 169.761 52.3333C183.956 51.6426 145.122 52.1156 180.455 51.6667L224.9 51.3333C226.665 50.7467 225.61 51.1948 227.908 49.6667L228.911 49C230.129 45.353 228.186 50.8771 229.913 47 230.199 46.3578 229.995 45.3898 230.581 45L232.587 43.6667C233.426 41.1532 232.293 44.2513 233.589 41.6667 233.747 41.3524 233.812 41 233.923 40.6667 233.812 33.4444 233.908 26.2161 233.589 19 233.571 18.5998 233.223 18.2638 232.921 18 232.465 17.6024 230.87 16.4242 229.913 16.3333 227.914 16.1434 225.903 16.1111 223.898 16 223.452 15.8889 223.001 15.7983 222.561 15.6667 221.886 15.4648 221.247 15.1378 220.556 15 219.999 14.8889 219.44 14.7896 218.885 14.6667 218.437 14.5672 218.004 14.3939 217.549 14.3333 216.329 14.1711 215.095 14.1434 213.873 14 209.981 13.5433 213.644 13.8246 210.197 13.3333 203.407 12.3658 210.763 13.6014 204.516 12.6667 203.176 12.4661 201.85 12.1677 200.506 12 199.575 11.8839 196.508 11.5174 195.493 11.3333 195.041 11.2513 194.611 11.0606 194.156 11 192.937 10.8378 191.702 10.8101 190.48 10.6667 189.807 10.5877 189.147 10.4227 188.475 10.3333 187.475 10.2003 186.47 10.1111 185.468 10 184.512 9.68231 184.178 9.54257 183.128 9.33333 182.464 9.20073 181.785 9.14666 181.123 9 180.78 8.92378 180.46 8.76315 180.121 8.66667 176.586 7.65911 181.544 9.25092 176.779 7.66667L175.777 7.33333C175.442 7.22226 175.12 7.06887 174.774 7 172.331 6.51254 173.665 6.74677 170.764 6.33333 170.43 6.22226 170.101 6.09249 169.761 6 168.875 5.75895 167.959 5.6231 167.088 5.33333 165.648 4.85438 165.297 4.70929 163.412 4.33333 161.396 3.93113 162.28 4.17921 160.739 3.66667L112.952 4.33333Z" stroke="#000000" stroke-miterlimit="8" fill="#D9D9D9" fill-rule="evenodd" transform="matrix(1.00033 0 -0 1 27.5 153.5)"/></g></svg>