<svg width="301" height="250" xmlns="http://www.w3.org/2000/svg" xmlns:xlink="http://www.w3.org/1999/xlink" overflow="hidden"><defs><clipPath id="clip0"><path d="M0 0 301 0 301 250 0 250Z" fill-rule="evenodd" clip-rule="evenodd"/></clipPath></defs><g clip-path="url(#clip0)"><rect x="0" y="0" width="300.901" height="250" fill="#D3D3C3" transform="scale(1.00033 1)"/><path d="M56.5528 9.28113 56.5528 9.28113C55.5607 8.94837 54.4466 8.86652 53.5764 8.28286 51.8705 7.1387 52.6537 7.47429 51.3439 7.03505 51.0959 6.86862 50.8666 6.67001 50.5999 6.53586 50.3661 6.41817 50.0843 6.41408 49.8558 6.28632 49.3345 5.99496 48.8636 5.62081 48.3675 5.28805 48.1195 5.12173 47.9062 4.88382 47.6234 4.78897 47.3754 4.70575 47.1131 4.65702 46.8793 4.53932 46.6126 4.40517 46.4075 4.16202 46.1352 4.04024 45.6574 3.82654 45.143 3.70748 44.647 3.54105L43.1587 3.04197 40.9264 2.29324 40.1822 2.0437C39.9342 1.96049 39.6976 1.82675 39.4381 1.79416L37.4538 1.54451 35.2215 0.795891C34.9734 0.712675 34.7381 0.565005 34.4773 0.546245 30.3399 0.248912 32.1563 0.441544 29.0205 0.0471623 27.6736 0.131845 25.4981-0.401823 24.3077 0.795891 22.3603 2.75533 25.2404 0.579573 23.0676 1.79416 22.5463 2.08552 21.5793 2.79243 21.5793 2.79243 21.414 3.04197 21.3361 3.38206 21.0833 3.54105 20.6398 3.81994 19.595 4.04024 19.595 4.04024 17.1793 5.66063 19.71 4.14976 13.146 4.78897 12.4674 4.855 11.8232 5.12173 11.1617 5.28805 10.831 5.37127 10.5058 5.48121 10.1696 5.53759 9.67343 5.62081 9.1722 5.6774 8.68128 5.78724 8.42608 5.84436 8.18525 5.95356 7.93724 6.03678 7.77183 6.28632 7.67392 6.59812 7.44111 6.78551 7.23695 6.94984 6.88186 6.84902 6.69697 7.03505 5.37409 8.36608 7.68923 7.36791 5.70481 8.03332 5.16369 9.66692 5.91533 8.0635 4.71266 9.03159 4.47985 9.21898 4.441 9.58276 4.21663 9.78032 3.7679 10.1753 2.72835 10.7786 2.72835 10.7786 2.39763 11.2777 1.80202 11.6797 1.73619 12.2759 1.65349 13.0247 1.60203 13.7775 1.48818 14.522 1.381 15.2229 0.937365 16.4343 0.744038 17.0177L0.248013 18.5151 0 19.2638C0.158536 23.0925-0.215826 23.7446 0.496025 26.2517 0.567898 26.5047 0.617063 26.7705 0.744038 27.0004 1.03361 27.5248 1.24017 28.165 1.73619 28.4978L2.48034 28.997C2.64575 29.2465 2.72366 29.5867 2.97646 29.7457 3.51624 30.0851 4.78651 30.2921 5.4568 30.4943 5.95772 30.6456 6.94509 30.9935 6.94509 30.9935 7.39767 31.6767 7.40184 31.891 8.18525 32.2413 8.66305 32.455 9.23834 32.4487 9.67343 32.7405 10.6352 33.3855 10.1348 33.1447 11.1617 33.4891 12.3411 34.2802 11.6228 33.8934 13.394 34.4874 14.692 34.9228 15.375 35.2121 16.8666 35.2361L45.8871 35.4857C47.6399 35.8386 46.7275 35.6013 48.6156 36.2344L49.3596 36.484C49.6076 36.5672 49.8439 36.7046 50.1038 36.7336L54.5685 37.2327 56.0567 37.7319 56.8009 37.9814C58.7025 37.8982 60.6592 38.1964 62.5058 37.7319 62.9148 37.6289 62.6981 36.9044 62.7538 36.484 62.8636 35.6553 62.8754 34.8146 63.0018 33.9883 63.1327 33.1317 63.8015 32.407 64.242 31.7422L64.7381 30.9935 65.2341 29.4961C65.3168 29.2465 65.4188 29.0026 65.4822 28.7474L65.7302 27.7492C65.813 27.0004 65.9783 26.2563 65.9783 25.503 65.9783 23.5879 65.9261 21.668 65.7302 19.763 65.6764 19.2396 65.3995 18.7647 65.2341 18.2656L64.7381 16.7682C64.6554 16.5187 64.5535 16.2747 64.4901 16.0195 64.4074 15.6867 64.3399 15.3498 64.242 15.0212 64.0917 14.5173 64.181 13.8155 63.7459 13.5237 62.7842 12.8788 63.2846 13.1195 62.2576 12.7751 60.1259 11.345 62.8227 13.0594 60.7695 12.0264 60.5028 11.8922 60.2977 11.649 60.0253 11.5272 59.5475 11.3135 59.0332 11.1945 58.5372 11.0281L57.793 10.7786 56.5528 9.28113Z" stroke="#000000" stroke-miterlimit="8" fill="#D9D9D9" fill-rule="evenodd" transform="matrix(1.00033 0 -0 1 214.5 160.5)"/><path d="M35.8737 1.34185 35.8737 1.34185C30.4384 3.36224 36.1442 1.51154 29.4435 2.6837 28.7408 2.80658 28.1228 3.28426 27.4129 3.35463L24.0286 3.69009 21.998 4.36102C21.6596 4.47281 21.2796 4.50038 20.9827 4.69648 19.3738 5.75972 20.3533 5.23988 17.9368 6.03834L16.9215 6.3738C16.5831 6.48558 16.2581 6.65115 15.9062 6.70926 14.3107 6.97288 13.9356 6.97985 12.5219 7.38019 12.1789 7.47729 11.8257 7.55748 11.5066 7.71565 11.1428 7.89601 10.8652 8.22777 10.4914 8.38658 9.16705 8.9492 8.47196 8.49097 7.10705 9.39297L5.07646 10.7348C4.85081 11.0703 4.56482 11.3728 4.3996 11.7412 4.10988 12.3875 4.11852 13.1656 3.72274 13.754 1.78297 16.6381 4.1086 12.989 2.70745 15.7668 1.39529 18.368 2.54276 15.25 1.69215 17.7795 1.57938 18.8977 1.51404 20.0217 1.35372 21.1342 1.24745 21.8713 0.917974 22.7655 0.676862 23.4824 0.789636 26.5016 0.825132 29.5246 1.01529 32.5399 1.05121 33.109 1.27239 33.6528 1.35372 34.2172 1.49816 35.2196 1.53685 36.2356 1.69215 37.2364 1.81356 38.0187 2.11629 38.8331 2.36902 39.5846 2.25624 41.4856 2.08623 43.3841 2.03058 45.2875 1.86057 51.1008 1.97569 56.9226 1.69215 62.7316 1.63651 63.8706 1.37909 65.0044 1.01529 66.0862L0.338431 68.099C0.225656 70.559 0 73.0166 0 75.4792 0 76.8191 0.312849 81.5457 0.676862 83.5303 0.74071 83.8782 0.917334 84.1967 1.01529 84.5367 1.1431 84.98 1.22592 85.4352 1.35372 85.8786 1.45168 86.2186 1.5942 86.5449 1.69215 86.8849 1.81996 87.3283 1.90278 87.7835 2.03058 88.2268 3.00164 91.5956 1.64941 86.3802 2.70745 90.575 2.82022 91.5814 2.87789 92.5954 3.04588 93.5942 3.1045 93.943 3.16142 94.3245 3.38431 94.6006 3.63842 94.9155 4.06117 95.0478 4.3996 95.2715 5.07646 96.2779 4.96369 96.3897 6.09175 96.9488 6.41079 97.107 6.79516 97.1126 7.10705 97.2843 7.81812 97.6759 9.13763 98.6261 9.13763 98.6261 11.8451 102.652 7.67113 96.7252 10.8298 100.303 11.3655 100.91 11.4118 102.061 12.1835 102.316L14.2141 102.987 15.2294 103.323C19.5641 104.755 15.8881 103.647 26.736 103.994 27.1872 104.105 27.6357 104.229 28.0898 104.329 28.6513 104.453 29.2239 104.526 29.7819 104.664 30.128 104.75 30.4588 104.888 30.7972 105L51.103 104.664C51.4618 104.653 53.6841 104.132 54.1489 103.994 54.8323 103.79 55.4704 103.401 56.1795 103.323L59.2254 102.987C59.5638 102.875 59.9622 102.873 60.2407 102.652 60.5583 102.4 60.63 101.93 60.9175 101.645 61.2051 101.36 61.5944 101.198 61.9328 100.974 63.8726 98.0903 61.547 101.739 62.9481 98.9616 63.8105 97.2521 63.8652 98.5389 64.3018 95.9424 64.6989 93.5809 64.4233 94.5749 64.9787 92.9233 64.8659 86.9967 64.85 81.0676 64.6403 75.1437 64.624 74.683 64.4355 74.2435 64.3018 73.8019 64.0969 73.1245 64.0208 72.3775 63.625 71.7891 62.7503 70.4884 63.0768 71.1652 62.6097 69.7763 62.4969 62.0607 62.5666 54.3403 62.2713 46.6294 62.2276 45.4899 61.7835 44.3996 61.5944 43.2747 61.3895 42.0561 60.8496 38.7117 60.5791 37.9073L60.2407 36.9009C60.0459 35.3562 59.6384 32.3045 59.5638 30.8626 59.3961 27.6221 59.3382 24.377 59.2254 21.1342 59.3382 20.016 59.4035 18.892 59.5638 17.7795 59.715 16.7308 59.9651 16.3872 60.2407 15.4313 60.3685 14.988 60.4663 14.5367 60.5791 14.0894 60.4663 11.7412 60.5026 9.38124 60.2407 7.04472 60.1272 6.032 59.5651 4.83215 58.887 4.02556 58.5805 3.66114 58.1781 3.38358 57.8717 3.01917 57.009 1.99302 57.4934 1.92064 56.1795 1.34185 55.5275 1.05467 54.8258 0.894603 54.1489 0.670926 52.5879 0.155105 53.4835 0.404775 51.4415 0 48.0572 0.111786 44.6685 0.132389 41.2886 0.335463 40.9324 0.356806 40.5923 0.512757 40.2733 0.670926 39.9095 0.851284 39.6476 1.22605 39.258 1.34185 34.5817 2.73241 36.4377 1.34185 35.8737 1.34185Z" stroke="#000000" stroke-miterlimit="8" fill="#D9D9D9" fill-rule="evenodd" transform="matrix(1.00033 0 -0 1 50.5 32.5)"/><path d="M102.966 3.08817 102.966 3.08817C99.9672 2.97597 96.9579 3.02603 93.9692 2.75147 93.2696 2.68721 91.9698 2.07808 91.9698 2.07808 89.25-2.04415 91.8795 1.34668 80.307 0.731294 79.352 0.680498 78.5235 0.355042 77.6412 0.0579012L62.3129 0.394598C57.4233 0.559287 47.651 1.06799 47.651 1.06799 37.6909 2.07437 48.9739 1.06799 26.3247 1.06799 24.5441 1.06799 22.7703 1.29249 20.9931 1.40469 19.8479 1.63608 19.0921 1.76111 17.9941 2.07808 17.6564 2.17554 17.3085 2.25603 16.9944 2.41478 16.6362 2.5958 16.353 2.90715 15.9948 3.08817 15.6806 3.24692 15.3092 3.26612 14.9951 3.42487 14.6369 3.60589 14.3614 3.93389 13.9954 4.09826 10.4265 5.70093 13.2587 3.92106 10.9964 5.44504 10.4309 7.15917 11.1176 5.97559 9.6635 6.79183 8.96336 7.18484 7.66415 8.13862 7.66415 8.13862 7.44197 8.47531 7.28087 8.86259 6.99771 9.14871 6.71454 9.43482 6.24824 9.50608 5.99803 9.8221 5.77858 10.0992 5.8596 10.5369 5.66481 10.8322 5.40337 11.2284 4.99836 11.5056 4.66514 11.8423 4.44295 12.5157 4.38838 13.2719 3.99869 13.8625 3.7765 14.1992 3.49492 14.5028 3.33224 14.8725 3.04698 15.5212 3.05548 16.3022 2.66579 16.8927 2.22153 17.5661 1.58615 18.1451 1.3329 18.9129L0.333224 21.9432 0 22.9533C0.11104 24.4122 0.153545 25.8783 0.333224 27.3303 0.376779 27.6825 0.597599 27.9924 0.666448 28.3404 0.820518 29.1186 0.902276 29.9098 0.999672 30.6973 1.15364 31.9423 1.39828 34.7315 1.66612 36.0844 1.73497 36.4325 1.91412 36.7502 1.99934 37.0945 2.13673 37.6497 2.22153 38.2168 2.33257 38.778 2.44361 40.686 2.47761 42.6001 2.66579 44.5018 2.70074 44.855 2.82847 45.2016 2.99902 45.5119 3.38797 46.2194 3.66546 47.0832 4.33191 47.5321L5.33158 48.2055C5.55377 48.8789 5.60834 49.6351 5.99803 50.2257 7.05417 51.8263 6.5378 50.8519 7.33093 53.2559 7.521 53.8321 7.77687 54.9032 8.3306 55.2761 8.71168 55.5329 9.21063 55.5442 9.6635 55.6128 11.4347 55.8812 13.222 56.0303 14.9951 56.2862 16.9424 56.5673 17.2396 56.5658 18.9938 56.9596 19.4409 57.06 19.8863 57.1692 20.3267 57.2963 21.5227 57.6416 21.5316 57.8414 22.9925 57.9697 24.9874 58.145 26.9911 58.1942 28.9905 58.3064 29.6569 58.4186 30.3194 58.5585 30.9898 58.6431 32.0975 58.783 33.2188 58.8083 34.3221 58.9798 37.3489 59.4503 32.5749 59.3228 36.9879 59.6532 39.4274 59.8358 41.8737 59.9165 44.3188 59.9899L70.6435 60.6633C71.6432 60.7755 72.6367 61 73.6425 61 76.4814 61 81.5219 60.5689 84.6389 60.3266 92.046 60.652 92.3322 60.8941 99.634 60.3266 100.289 60.2757 102.618 59.4338 102.966 59.3165 103.299 59.2043 103.619 59.0381 103.966 58.9798 106.658 58.5264 105.324 58.859 107.965 57.9697L108.964 57.633C109.297 57.5208 109.613 57.303 109.964 57.2963L127.625 56.9596C128.069 56.2862 128.704 55.7072 128.958 54.9394L129.957 51.9092C130.068 51.5725 130.096 51.1944 130.291 50.8991 130.513 50.5624 130.794 50.2588 130.957 49.889 131.242 49.2403 131.624 47.8688 131.624 47.8688 131.512 47.1954 131.454 46.5109 131.29 45.8486 131.12 45.16 130.624 43.8284 130.624 43.8284 130.735 40.686 130.757 37.539 130.957 34.4009 130.98 34.0467 131.194 33.7321 131.29 33.3909 132.127 30.4314 131.158 33.4559 131.957 31.034 131.846 28.0037 131.895 24.963 131.624 21.9432 131.56 21.2363 131.179 20.5964 130.957 19.923L129.624 15.8826 128.624 12.8524C128.513 12.5157 128.54 12.0933 128.291 11.8423 126.073 9.60057 128.462 11.7136 126.292 10.4955 125.592 10.1025 124.959 9.5976 124.293 9.14871 123.959 8.92421 123.673 8.60331 123.293 8.47531 122.96 8.36312 122.607 8.29737 122.293 8.13862 121.935 7.9576 121.66 7.6296 121.294 7.46522 120.652 7.17699 119.294 6.79183 119.294 6.79183 119.072 6.45513 118.941 6.03456 118.628 5.78174 118.354 5.56 117.966 5.5425 117.628 5.44504 115.822 4.92372 116.478 5.21259 114.296 4.77165 113.631 4.63719 111.328 4.00695 110.964 3.76156 110.63 3.53706 110.363 3.11807 109.964 3.08817 107.305 2.88923 104.132 3.08817 102.966 3.08817Z" stroke="#000000" stroke-miterlimit="8" fill="#A6A6A6" fill-rule="evenodd" transform="matrix(1.00033 0 -0 1 26.5 136.5)"/><path d="M21.4276 0 21.4276 0C20.4231 0.11173 19.4111 0.168862 18.4143 0.335294 18.0662 0.393377 17.761 0.635422 17.4099 0.670589 15.5188 0.859938 13.6155 0.894153 11.7182 1.00588 9.1936 1.84861 12.2076 0.613773 10.0442 2.34706 9.76863 2.56788 9.35536 2.52427 9.03975 2.68235 8.67985 2.86262 8.37014 3.12938 8.03533 3.35294L6.69611 5.36471C6.47287 5.7 6.15378 5.9883 6.0265 6.37059L5.35689 8.38236C5.24532 8.71765 5.2178 9.09413 5.02208 9.38824 4.79885 9.72354 4.53248 10.0337 4.35247 10.3941 4.19461 10.7102 4.17553 11.0839 4.01767 11.4 3.83766 11.7604 3.5115 12.0376 3.34806 12.4059 3.06144 13.0519 2.67844 14.4177 2.67844 14.4177 2.56688 19.8941 2.5461 25.3732 2.34364 30.8471 2.32255 31.4166 2.02096 31.9538 2.00883 32.5236 1.79751 42.469 1.79667 52.4179 1.67403 62.3648 1.57343 70.5238 1.6484 78.6875 1.33922 86.8412L0.334806 89.8589 0 90.8648C0.111567 94.3294 0.14278 97.7977 0.334806 101.259 0.397865 102.396 0.998406 103.923 1.33922 104.947L2.34364 107.965 3.34806 110.982C3.45962 111.318 3.38918 111.792 3.68286 111.988L4.68728 112.659C5.06015 113.779 4.81983 114 6.36131 114 11.4962 114 16.6287 113.777 21.7624 113.665 24.1706 112.861 21.1632 113.836 24.106 112.994 24.4453 112.897 24.7584 112.684 25.1104 112.659 27.8956 112.46 30.6914 112.457 33.4806 112.324 35.3789 112.233 37.275 112.1 39.1723 111.988L41.8507 111.653C42.6329 111.549 43.4063 111.36 44.1943 111.318 47.5393 111.137 50.8905 111.094 54.2385 110.982 54.5733 110.759 55.0297 110.654 55.2429 110.312 55.6171 109.712 55.6893 108.971 55.9125 108.3 56.3929 106.857 56.1617 107.637 56.5821 105.953 57.0901 93.2364 57.1385 96.0673 56.5821 78.7942 56.5338 77.2946 56.0435 76.1699 55.5777 74.7706 55.4662 74.4353 55.4386 74.0589 55.2429 73.7648 55.0197 73.4295 54.7368 73.1271 54.5733 72.7589 53.399 70.1128 54.7062 71.2828 52.8993 70.0765 52.676 69.4059 52.6212 68.6529 52.2297 68.0648 52.0064 67.7295 51.7401 67.4193 51.5601 67.0589 51.4022 66.7428 51.3966 66.362 51.2253 66.053 50.8345 65.3485 50.1405 64.8058 49.886 64.0412L49.2164 62.0295C49.1049 61.6942 49.0773 61.3177 48.8816 61.0236 46.9626 58.1409 49.2633 61.7882 47.8772 59.0118 47.6972 58.6514 47.371 58.3742 47.2076 58.0059 46.921 57.3599 46.7612 56.6647 46.538 55.9942L45.8684 53.9824 45.5336 52.9765 45.1988 51.9706C45.0872 50.9647 45.0068 49.9548 44.8639 48.953 44.7835 48.3888 44.6227 47.8386 44.5291 47.2765 44.3994 46.4969 44.3059 45.7118 44.1943 44.9294 44.0828 42.5824 43.9418 40.2366 43.8595 37.8883 43.7185 33.8657 43.7254 29.8377 43.5247 25.8177 43.5017 25.3574 43.3222 24.9179 43.1899 24.4765 42.9871 23.7995 42.7435 23.1353 42.5203 22.4647L41.8507 20.453 41.1811 18.4412C41.0695 18.1059 40.9319 17.7782 40.8463 17.4353 40.7347 16.9883 40.6437 16.5356 40.5115 16.0941 40.3087 15.4171 40.0651 14.753 39.8419 14.0824 39.7303 13.7471 39.7028 13.3706 39.5071 13.0765 39.2838 12.7412 39.0009 12.4388 38.8374 12.0706 38.5508 11.4246 38.5594 10.6469 38.1678 10.0588 37.9446 9.72354 37.6782 9.41338 37.4982 9.05295 36.9536 7.96216 37.4533 8.00208 36.4938 7.04118 36.2093 6.75626 35.8242 6.59416 35.4894 6.37059 35.2662 6.0353 35.134 5.61647 34.8198 5.36471 34.5442 5.14389 34.131 5.18751 33.8154 5.02942 30.6319 3.43542 35.9847 5.41825 30.8021 3.68824L29.7977 3.35294C29.4629 3.24121 29.087 3.21365 28.7933 3.01765 28.1237 2.57063 27.5892 1.67647 26.7844 1.67647L21.4276 0Z" stroke="#000000" stroke-miterlimit="8" fill="#595959" fill-rule="evenodd" transform="matrix(1.00033 0 -0 1 157.5 84.5)"/><path d="M30.0256 2.26955 30.0256 2.26955C29.3639 2.0174 28.7389 1.62218 28.0404 1.513 27.6236 1.44787 27.2214 1.76514 26.7997 1.76514 26.1329 1.76514 25.4763 1.59708 24.8145 1.513 24.3182 1.34493 23.8331 1.13769 23.3256 1.0087 22.9948 0.924615 22.6597 0.855991 22.333 0.756445 21.832 0.603631 21.362 0.327338 20.8442 0.252148L19.1072 0C17.3701 0.0840848 15.6245 0.0569743 13.8961 0.252148 13.3761 0.310817 12.9036 0.588276 12.4072 0.756445L11.6628 1.0087C11.4974 1.26085 11.4194 1.60449 11.1665 1.76514 10.7229 2.04695 9.6776 2.26955 9.6776 2.26955 9.42948 2.43761 9.20574 2.65079 8.93324 2.77384 8.45513 2.98977 7.94066 3.11008 7.44431 3.27825 7.19619 3.36233 6.9536 3.4659 6.69985 3.5304 6.38097 3.61141 5.31951 3.8536 4.96291 4.0348 4.2717 4.38607 4.02306 4.73766 3.47398 5.29565 3.03725 6.62724 3.37092 5.83108 2.23328 7.56519L1.73694 8.32174C0.83231 11.08 2.27486 6.90279 0.992582 9.83474 0.476022 11.0158 0.507598 11.422 0.248119 12.6087 0.174132 12.947 0.0827412 13.2812 0 13.6174 0.061587 14.0557 0.163086 15.5298 0.496239 16.1392 0.785937 16.669 0.992582 17.316 1.48882 17.6522L2.23328 18.1566 2.72952 19.6696C2.94805 20.3357 3.33059 21.7224 3.97033 21.9391 4.99761 22.2872 4.4971 22.044 5.45915 22.6957 5.62463 22.9478 5.72259 23.2629 5.95549 23.4522 6.15974 23.6183 6.4659 23.5856 6.69985 23.7044 6.96662 23.8399 7.17181 24.0857 7.44431 24.2088 7.92242 24.4247 8.43689 24.545 8.93324 24.7131 8.93365 24.7132 10.4217 25.2173 10.4221 25.2175 11.3842 25.8692 10.8836 25.6259 11.911 25.9739 12.0764 26.2261 12.1828 26.5309 12.4072 26.7305 12.8562 27.1296 13.3303 27.5475 13.8961 27.7392 17.0841 28.8193 15.9297 28.5623 21.5886 28.7479L29.2811 29C29.6947 28.9159 30.1556 28.9605 30.5218 28.7479 30.7808 28.5975 30.7853 28.1807 31.0182 27.9913 31.2224 27.8253 31.5145 27.8233 31.7626 27.7392 31.9144 27.2766 32.2188 25.9057 32.7552 25.4696 32.9595 25.3036 33.2514 25.3016 33.4996 25.2175 33.5823 24.9653 33.6965 24.7216 33.7478 24.4609 34.1322 22.5077 33.8027 23.1819 34.244 21.687 34.3944 21.1778 34.5749 20.6783 34.7404 20.174L34.9885 19.4174C34.9057 14.7943 35.1121 10.1564 34.7404 5.54779 34.6916 4.94363 34.3136 4.22648 33.7478 4.0348 33.4997 3.95071 33.2373 3.90147 33.0033 3.78254 32.7366 3.64699 32.5146 3.43413 32.2589 3.27825 32.1003 3.18156 30.3978 2.43772 30.0256 2.26955Z" stroke="#000000" stroke-miterlimit="8" fill="#595959" fill-rule="evenodd" transform="matrix(1.00033 0 -0 1 231.5 133.5)"/></g></svg>