<svg width="301" height="250" xmlns="http://www.w3.org/2000/svg" xmlns:xlink="http://www.w3.org/1999/xlink" overflow="hidden"><defs><clipPath id="clip0"><path d="M0 0 301 0 301 250 0 250Z" fill-rule="evenodd" clip-rule="evenodd"/></clipPath></defs><g clip-path="url(#clip0)"><rect x="0" y="0" width="300.901" height="250" fill="#D3D3C3" transform="scale(1.00033 1)"/><path d="M56.8252 2.50526 56.8252 2.50526C56.2437 2.08768 55.7198 1.57394 55.0807 1.25263 54.7002 1.06136 51.8481 0.752461 51.8409 0.751619 51.5918 0.668082 51.3481 0.565082 51.0933 0.501009L49.0996 0C48.733 0.0368234 46.6484 0.0606009 45.8598 0.501009 44.5675 1.22275 44.3713 1.8155 42.8693 2.00425 38.0717 2.6071 41.5451 2.23497 32.4023 2.50526 31.997 2.57322 30.6851 2.71284 30.1594 3.00637 27.5884 4.44217 29.6082 3.69213 27.9165 4.259L25.9228 7.26537C25.7566 7.51587 25.7085 7.92177 25.4244 8.01699L24.6767 8.26749C24.5936 8.518 24.6133 8.83236 24.4275 9.01911 24.2417 9.20586 23.9148 9.15147 23.6798 9.26962 23.4119 9.40428 23.2002 9.63606 22.9323 9.77073 22.6973 9.88888 22.4196 9.90319 22.1846 10.0212 21.9167 10.1559 21.7106 10.4 21.4369 10.5222 20.9569 10.7368 19.9417 11.0234 19.9417 11.0234 18.513 13.1777 20.4155 10.6422 18.6956 12.0255 18.4617 12.2136 18.4311 12.589 18.1972 12.7771 17.9921 12.9421 17.6792 12.8994 17.4495 13.0276 16.9259 13.3201 16.4527 13.6957 15.9543 14.0297L15.2067 14.5307C14.2856 15.9195 15.2351 14.8211 13.9606 15.5329 13.4369 15.8253 12.4653 16.535 12.4653 16.535 12.3822 16.7855 12.4019 17.0999 12.2161 17.2866 12.0303 17.4734 11.7034 17.419 11.4684 17.5371 11.2005 17.6718 10.97 17.8711 10.7208 18.0382 10.5547 18.2887 10.4342 18.5769 10.2224 18.7898 10.0106 19.0028 9.67202 19.0642 9.47474 19.2908 7.43949 21.6291 9.41247 20.1678 7.73022 21.2951L5.73652 24.3015C5.57043 24.552 5.48734 24.8861 5.23815 25.0531L4.49049 25.5541C4.40739 25.8046 4.35883 26.0695 4.2413 26.3057 4.10734 26.5751 3.86443 26.7822 3.74282 27.0573 2.55654 29.7406 3.87406 27.6111 2.74597 29.3121L2.2476 30.8153C2.1645 31.0658 2.06215 31.3107 1.99841 31.5668 1.37288 34.0819 1.71626 32.919 1.00156 35.0743L0.503083 36.5775 0.253896 37.3291C0.0251175 46.7602-0.179381 48.2562 0.253896 57.622 0.266141 57.8858 0.44615 58.1159 0.503083 58.3737 0.612658 58.8695 0.669172 59.3758 0.752269 59.8769 0.84625 62.5202 0.803446 66.2234 1.25075 69.1465 1.34012 69.7308 1.56304 70.3391 1.74912 70.9003 1.66602 71.9024 1.66435 72.9147 1.49993 73.9066 1.41359 74.4276 1.16765 74.9088 1.00156 75.4098L0.752269 76.1614C0.835366 77.9986 0.855669 79.8397 1.00156 81.673 1.0497 82.2774 1.99548 83.8434 2.2476 83.9279L2.99526 84.1784C3.07836 84.4289 3.17224 84.676 3.24445 84.93 3.33853 85.2611 3.39526 85.6023 3.49363 85.9321 3.64465 86.438 3.99211 87.4352 3.99211 87.4352 3.90902 89.189 3.88787 90.9467 3.74282 92.6964 3.72105 92.9595 3.49363 93.1839 3.49363 93.448 3.49363 94.6201 3.46004 95.8184 3.74282 96.9555 3.88808 97.5397 4.55024 97.8873 4.73967 98.4586 5.33286 100.247 4.801 99.6688 5.98581 100.463L6.98266 101.966 7.48104 102.718 7.97951 104.221C8.06261 104.471 8.16497 104.716 8.2287 104.972 8.39479 105.641 8.34707 106.404 8.72707 106.977 8.89327 107.227 8.97155 107.569 9.22555 107.728 9.67107 108.008 10.2224 108.062 10.7208 108.229L12.2161 108.73C12.4653 108.814 12.7451 108.835 12.9638 108.981 13.4621 109.315 13.8907 109.793 14.459 109.983 14.9575 110.15 15.4391 110.381 15.9543 110.484 16.3697 110.568 16.7917 110.623 17.2004 110.735 17.7072 110.874 18.1972 111.069 18.6956 111.236L19.4432 111.486 20.1909 111.737C20.4401 111.904 20.6707 112.103 20.9386 112.238 21.337 112.438 22.3103 112.632 22.683 112.739 22.9356 112.811 23.1731 112.938 23.4306 112.989 24.4216 113.189 25.4408 113.244 26.4212 113.49 26.7535 113.574 27.09 113.642 27.4181 113.741 27.9213 113.893 28.3951 114.155 28.9134 114.242 32.2896 114.808 28.1332 114.15 33.15 114.743 34.1881 114.866 34.8833 115.06 35.8913 115.244 36.3885 115.335 36.8933 115.385 37.3866 115.495 37.643 115.552 37.8794 115.681 38.1342 115.745 38.599 115.862 40.4856 116.204 40.8756 116.246 42.7003 116.443 44.5416 116.486 46.3582 116.747 46.9397 116.831 47.5248 116.892 48.1027 116.998 49.7682 117.302 48.5911 117.353 50.8441 117.499 52.8354 117.628 54.8319 117.656 56.8252 117.749L61.5602 118C63.3878 117.917 65.2188 117.891 67.0429 117.749 67.5759 117.708 68.266 117.398 68.7874 117.248 69.1168 117.154 69.4562 117.097 69.7843 116.998 70.2874 116.846 70.7548 116.525 71.2795 116.497L76.0145 116.246C76.2637 116.163 76.5326 116.124 76.7622 115.996 77.2858 115.703 78.2574 114.994 78.2574 114.994L79.2543 113.49 79.7528 112.739C80.4172 110.735 79.4206 113.073 80.7496 111.737 83.6576 108.813 80.3756 111.152 82.494 109.732 83.6571 107.979 82.9925 108.563 84.2385 107.728 85.0693 106.476 84.4878 107.144 86.2322 105.975L86.9799 105.473C87.063 105.223 87.1015 104.953 87.2291 104.722 87.52 104.195 88.0365 103.79 88.2259 103.219L88.7244 101.715 88.9736 100.964 89.2228 100.212C89.3059 99.5443 89.4186 98.8792 89.472 98.2081 89.8839 93.0322 89.3437 95.4676 89.9705 92.947 89.8874 89.4395 89.9303 85.9267 89.7213 82.4246 89.6803 81.7372 89.3354 81.0996 89.2228 80.4204L88.9736 78.9173C89.1397 71.9859 90.0009 65.0361 89.472 58.1232 89.3889 57.0375 89.3917 55.9418 89.2228 54.8663 89.1408 54.3445 88.8519 53.8754 88.7244 53.363 88.1622 51.1026 88.4426 52.0122 87.9768 50.6072 87.8937 47.1832 87.843 43.7584 87.7276 40.3354 87.6768 38.8308 87.6203 37.3247 87.4783 35.8259 87.4534 35.563 87.2928 35.3305 87.2291 35.0743L86.7307 33.0701C86.657 32.4777 86.4117 30.2843 86.2322 29.5626 86.2315 29.5595 85.6096 27.6851 85.4846 27.3078L84.9862 25.8047C84.737 25.5542 84.455 25.3327 84.2385 25.0531 83.8708 24.5777 83.574 24.051 83.2417 23.5498L82.2448 22.0467 80.2511 19.0403C80.085 18.7898 80.002 18.4557 79.7528 18.2887L79.0051 17.7877C77.7674 15.9215 79.3581 18.2136 77.7591 16.2845 76.7209 15.0321 77.8833 15.9501 76.5129 15.0319 76.2632 14.2788 76.302 14.1761 75.7654 13.5286 75.5397 13.2564 75.2433 13.0493 75.0177 12.7771 74.826 12.5457 74.7447 12.2238 74.5192 12.0255 74.0685 11.6289 73.5224 11.3574 73.024 11.0234L71.5287 10.0212 70.7811 9.77073C68.6384 8.33462 71.3494 10.0564 69.2858 9.01911 69.0179 8.88444 68.8118 8.64025 68.5381 8.518 68.0581 8.30347 67.0429 8.01699 67.0429 8.01699 66.8767 7.76648 66.8045 7.41477 66.5444 7.26537 66.1767 7.05411 65.7093 7.11818 65.2984 7.01486 65.0435 6.95079 64.8034 6.83695 64.5507 6.76436 63.64 6.50281 62.7181 6.28145 61.8095 6.01274 61.3054 5.86366 60.8126 5.6787 60.3141 5.51163L59.5665 5.26112 58.0712 4.259 56.8252 2.50526Z" stroke="#000000" stroke-miterlimit="8" fill="#595959" fill-rule="evenodd" transform="matrix(1.00033 0 -0 1 22.4999 51.5)"/><path d="M37.1624 0.760205 37.1624 0.760205C36.0309 0.506094 34.1116 0 32.9003 0 30.4753 0 28.0532 0.168982 25.6296 0.253473 25.2953 0.337964 24.9568 0.406812 24.6267 0.506839 24.1205 0.660285 23.6239 0.844696 23.1225 1.01357L20.114 2.02714 18.6097 2.53398 17.8576 2.78735C17.3561 3.12521 16.6876 3.29408 16.3533 3.80092 15.6848 4.81449 16.1026 4.39225 15.0998 5.06786 13.7627 7.09479 15.5173 4.64594 13.8462 6.3349 13.6331 6.55028 13.5801 6.90474 13.3447 7.095 13.1384 7.26186 12.8236 7.21876 12.5926 7.34847 12.0658 7.6443 11.5897 8.02419 11.0884 8.36205 10.8377 8.53092 10.6221 8.77248 10.3362 8.86878L9.58405 9.12215C9.38022 9.74029 9.31789 10.1515 8.832 10.6426 8.6189 10.8579 8.33052 10.9804 8.07983 11.1493 7.99624 11.4027 7.94738 11.6706 7.82915 11.9095 7.09647 13.3904 7.49708 11.9435 7.07699 13.4299 6.31946 16.1099 7.51613 12.3518 6.32483 15.9638L6.07414 16.724C5.99054 16.9774 5.97001 17.2619 5.82346 17.4842 5.48917 17.9909 5.01118 18.4267 4.82061 19.0045 4.47454 20.0536 4.78976 19.6166 3.81776 20.2714 3.37641 21.6095 3.71353 20.8095 2.56413 22.552L2.06276 23.3121C1.97916 23.5655 1.93031 23.8335 1.81207 24.0724 1.67731 24.3448 1.39925 24.5414 1.3106 24.8326 1.06002 25.6559 0.976419 26.5218 0.809226 27.3664 0.725629 27.7888 0.693201 28.2249 0.558435 28.6335L0.30775 29.3936C-0.0986527 33.5014-0.10676 32.3963 0.30775 38.2624 0.326596 38.5288 0.440199 38.7837 0.558435 39.0226 0.693201 39.295 0.892717 39.5294 1.05991 39.7828 1.69005 41.6935 0.839864 39.338 1.81207 41.3031 1.93031 41.542 1.94463 41.8244 2.06276 42.0633 2.19752 42.3357 2.42936 42.5511 2.56413 42.8235 2.68236 43.0624 2.69668 43.3447 2.81492 43.5836 2.94968 43.856 3.19395 44.0655 3.31629 44.3438 3.58708 44.9597 4.00475 47.1096 4.82061 47.3845L5.57267 47.6379C7.72828 49.0904 5.00096 47.349 7.07699 48.3981 7.34652 48.5343 7.55383 48.7813 7.82915 48.9049 9.21229 49.5263 9.23861 49.3243 10.5869 49.665 10.8433 49.7298 11.0841 49.8483 11.3391 49.9185 14.8036 50.8735 11.9654 49.9605 14.8491 50.9321 15.0998 51.0165 15.3813 51.0373 15.6011 51.1854 15.8518 51.3543 16.078 51.5685 16.3533 51.6922 16.3535 51.6923 18.2335 52.3256 18.6097 52.4524L22.3704 53.7193 23.8747 54.2261C24.1254 54.3106 24.3627 54.4706 24.6267 54.4795L39.6694 54.9863 41.9259 55.7464 42.678 55.9999C43.5137 55.8309 44.3583 55.702 45.1851 55.4931 45.5194 55.4086 45.8567 55.3354 46.188 55.2397 46.4421 55.1663 46.6822 55.0443 46.9401 54.9863 47.9705 54.7549 48.6956 54.7557 49.6979 54.4795 50.2078 54.3389 50.7007 54.1418 51.2022 53.9728 51.4529 53.8883 51.7344 53.8674 51.9544 53.7193 52.9264 53.0644 52.4206 53.3089 53.4586 52.9592 53.9601 52.6213 54.6286 52.4525 54.9629 51.9456 55.6108 50.9631 55.1784 51.2817 56.2164 50.9321 56.8465 49.0215 55.9233 51.3023 57.2193 49.665 57.3542 49.4946 57.6991 47.9642 57.7207 47.8913 57.8726 47.3796 58.0549 46.8778 58.2221 46.3709 58.3057 46.1176 58.421 45.8726 58.4728 45.6107 58.7911 44.0023 58.6201 44.7616 58.9743 43.3302 59.1519 41.8936 59.1208 41.485 59.4757 40.2895 59.6276 39.7779 59.81 39.2759 59.9771 38.7692L60.2278 38.009C60.3114 37.4178 60.3626 36.8209 60.4785 36.2352 60.5303 35.9733 60.6651 35.7341 60.7292 35.475 60.8326 35.0572 60.8964 34.6304 60.98 34.2081 60.8964 31.5052 60.8819 28.7993 60.7292 26.0995 60.7141 25.8328 60.6069 25.5728 60.4785 25.3393 60.1858 24.8069 59.4757 23.819 59.4757 23.819 59.3086 23.1433 59.1922 22.4526 58.9743 21.7918L56.9686 15.7104 56.7178 14.9502C56.6342 14.6968 56.6137 14.4123 56.4671 14.19 56.3 13.9366 56.1005 13.7022 55.9658 13.4299 55.5581 12.6059 55.9318 12.6353 55.2136 11.9095 55.0005 11.6941 54.7121 11.5716 54.4614 11.4028 53.6258 10.1357 54.2109 10.8115 52.4557 9.62898L51.7036 9.12215C51.62 8.86878 51.6398 8.55093 51.4529 8.36205 51.266 8.17317 50.9371 8.22807 50.7007 8.10857 50.4313 7.97237 50.1994 7.77072 49.9487 7.60184 48.6111 5.57417 50.3669 8.02461 48.695 6.3349 47.5609 5.18864 48.9059 5.81466 47.4415 5.32133 47.1908 5.15235 46.9209 5.00944 46.6894 4.81449 46.417 4.58507 46.2473 4.22827 45.9373 4.05429 45.4753 3.79486 44.433 3.54755 44.433 3.54755 44.1823 3.37857 43.9503 3.17692 43.6808 3.04071 43.4445 2.92132 43.1887 2.83513 42.9288 2.78735 41.3219 2.49206 38.1234 1.09806 37.1624 0.760205Z" stroke="#000000" stroke-miterlimit="8" fill="#D9D9D9" fill-rule="evenodd" transform="matrix(1.00033 0 -0 1 108.5 115.5)"/><path d="M40.2237 0 40.2237 0 38.225 0.744709C37.481 1.00875 36.726 1.24122 35.9765 1.48942L35.227 1.73762C34.9772 1.82039 34.7398 1.96414 34.4774 1.98582 33.4781 2.06859 32.4756 2.11977 31.4794 2.23402 30.3094 2.36818 27.9817 2.73053 27.9817 2.73053 25.9167 3.41436 29.1514 2.40394 24.7339 3.22693 23.493 3.45814 23.3634 3.63817 22.4853 4.21984 21.5621 5.59584 22.5139 4.50745 21.2361 5.21275 21.2353 5.21317 19.3627 6.45365 18.9876 6.70217L18.2381 7.19857 17.4885 7.69508C16.1562 9.681 17.9049 7.28134 16.2394 8.93619 15.1092 10.0591 16.4495 9.44583 14.9902 9.9291 14.4905 10.2601 13.8243 10.4255 13.4911 10.922 12.8455 11.8845 13.2764 11.5724 12.242 11.9149 11.7424 12.2459 11.0761 12.4114 10.743 12.9078 10.0972 13.8702 10.5281 13.5582 9.49375 13.9007 8.34835 15.6078 9.06411 15.2015 7.74497 15.6384 6.59957 17.3454 7.31533 16.939 5.99608 17.376 5.50979 18.8256 6.12681 17.4943 4.99674 18.6171 3.33126 20.2718 5.74585 18.5345 3.74758 19.8582L1.74888 22.8369 0.749537 24.3263C0.40467 25.354 0.645667 24.8533 0 25.8157 0.0879216 26.6895 0.119922 28.849 0.749537 29.7873 1.08265 30.2838 1.24916 30.9457 1.74888 31.2767 3.6862 32.5599 2.67804 32.081 4.74693 32.766L5.49636 33.0142C5.74617 33.1798 5.9773 33.3773 6.24589 33.5107 6.48144 33.6278 6.73334 33.7329 6.99543 33.7589 9.2389 33.9818 11.4889 34.1489 13.7411 34.2554L18.9876 34.5037 20.9863 34.7519C21.4877 34.823 21.9787 35.0001 22.4853 35.0001 29.9808 35.0001 37.4755 34.8346 44.9706 34.7519 46.3031 34.6691 47.6403 34.6425 48.968 34.5037 49.2299 34.4762 49.4643 34.3274 49.7176 34.2554 50.0477 34.1617 50.3782 34.0632 50.7169 34.0071 51.3791 33.8975 52.0494 33.8417 52.7156 33.7589L54.2146 33.2625 54.9641 33.0142C56.0683 31.3687 54.7706 33.1972 56.2133 31.5249 56.4843 31.2108 56.713 30.863 56.9628 30.532 57.0461 30.2838 57.0948 30.0213 57.2126 29.7873 58.1146 27.995 57.3354 30.2269 58.212 28.0497 58.4075 27.5638 58.7117 26.5604 58.7117 26.5604 58.9529 22.9656 59.1715 21.9282 58.7117 18.1206 58.6489 17.601 58.3786 17.1277 58.212 16.6313 58.1286 16.3831 58.08 16.1206 57.9621 15.8866 57.7955 15.5556 57.6472 15.2149 57.4624 14.8937 56.0499 12.4376 57.9733 16.1565 56.4631 13.156 55.8976 10.9084 56.7011 13.6291 55.2139 10.6738 54.8808 10.0119 54.6277 9.30375 54.2146 8.68799 54.0481 8.43979 53.8492 8.21014 53.7149 7.94328 52.6818 5.89033 54.5238 8.78629 52.9654 6.20566 51.3416 3.51673 52.6428 5.67225 51.2165 3.97164 51.0243 3.74241 50.9476 3.4179 50.7169 3.22693 50.4308 2.99009 50.0507 2.89596 49.7176 2.73053 49.4677 2.48233 49.2394 2.21057 48.968 1.98582 48.7373 1.79485 48.4792 1.63744 48.2185 1.48942 47.3908 1.01949 46.9557 0.820076 45.97 0.744709 45.3057 0.693942 44.6375 0.744709 40.2237 0Z" stroke="#000000" stroke-miterlimit="8" fill="#D9D9D9" fill-rule="evenodd" transform="matrix(1.00033 0 -0 1 167.5 131.5)"/><path d="M4.24484 0 4.24484 0C3.72065 4.62425 4.27484 0.306939 3.7523 3.37927 3.65683 3.94043 3.63645 4.51458 3.50592 5.06895 3.38915 5.56474 3.17753 6.03447 3.01338 6.51718 3.01317 6.51769 2.52105 7.9651 2.52074 7.96551 2.35659 8.20686 2.14838 8.4246 2.02819 8.68967 1.8173 9.15464 1.82361 9.71449 1.53555 10.1379L0.55036 11.5862C-0.0257545 13.2803-0.216379 13.1664 0.304089 15.2069 0.375871 15.4883 0.632485 15.6897 0.796735 15.931 1.4799 17.9398 0.439895 14.7376 1.28928 18.3449 1.40605 18.8407 1.61767 19.3104 1.78192 19.7931 1.86405 20.0344 1.81212 20.3762 2.02819 20.5173L2.76711 21C6.62574 20.9195 10.4896 20.9724 14.343 20.7586 14.8614 20.7298 15.3282 20.4369 15.8208 20.2759 17.6779 19.6692 15.3891 20.4874 17.2985 19.5517 17.5308 19.438 17.7912 19.3909 18.0375 19.3104 18.5301 18.9885 19.1869 18.8277 19.5153 18.3449 19.6794 18.1035 19.8754 17.8802 20.0078 17.6207 20.1239 17.3931 20.1858 17.142 20.2541 16.8965 21.0875 13.902 20.4262 15.9082 20.993 14.2413 20.9109 12.3908 21.0679 10.5151 20.7468 8.68967 20.6461 8.11786 19.9488 7.79177 19.7616 7.24134 19.6794 6.99999 19.6315 6.74475 19.5153 6.51718 19.3829 6.25768 19.1869 6.03447 19.0227 5.79312 18.9405 5.55176 18.9025 5.29135 18.7764 5.06895 17.8105 3.36497 17.9361 3.7153 16.3134 2.6551L15.5746 2.17239C15.0667 1.84052 14.7243 1.52506 14.0967 1.44823 12.3782 1.23769 8.92451 0.965519 8.92451 0.965519L4.24484 0Z" stroke="#000000" stroke-miterlimit="8" fill="#595959" fill-rule="evenodd" transform="matrix(1.00033 0 -0 1 226.5 145.5)"/><path d="M0 0.689914 0 0.689914C0.749654 0.513546 1.48126 0.179591 2.24896 0.160698 9.38431-0.015003 8.20264-0.247715 11.7442 0.689914 11.9108 0.954521 12.1097 1.19935 12.244 1.48385 12.6714 2.38903 12.55 3.43745 12.7437 4.39487 12.8541 4.94042 13.2435 5.98262 13.2435 5.98262 12.968 7.73241 12.8389 7.56616 13.2435 9.42286 13.362 9.96652 13.5767 10.4814 13.7432 11.0107L13.993 11.8047C13.9097 12.2457 14.1661 13.0861 13.7432 13.1278 4.60821 14.0278 6.01748 14.8184 2.49881 12.3339L1.99901 10.7461C1.91569 10.4815 1.81306 10.2228 1.74916 9.95218 1.66584 9.59933 1.57381 9.24871 1.49931 8.89364 1.40717 8.45455 1.36121 8.00447 1.24946 7.57049 1.11084 7.03227 0.749654 5.98262 0.749654 5.98262L0 0.689914Z" stroke="#000000" stroke-miterlimit="8" fill="#A6A6A6" fill-rule="evenodd" transform="matrix(1.00033 0 -0 1 247.5 153.5)"/></g></svg>