<svg width="301" height="250" xmlns="http://www.w3.org/2000/svg" xmlns:xlink="http://www.w3.org/1999/xlink" overflow="hidden"><defs><clipPath id="clip0"><path d="M0 0 301 0 301 250 0 250Z" fill-rule="evenodd" clip-rule="evenodd"/></clipPath></defs><g clip-path="url(#clip0)"><rect x="0" y="0" width="300.901" height="250" fill="#D3D3C3" transform="scale(1.00033 1)"/><path d="M77.3079 0.984733 77.3079 0.984733 74.3089 0.656489C73.5295 0.560548 72.7611 0.359776 71.9764 0.328244 67.3137 0.140809 62.6461 0.10938 57.981 0 54.7598 0.10938 51.5288 0.057068 48.3175 0.328244 47.6175 0.38738 46.9846 0.765869 46.3181 0.984733L43.3191 1.96947 42.3194 2.29771C41.9862 2.40709 41.6696 2.59463 41.3198 2.62595 40.0979 2.73534 38.8736 2.82073 37.6543 2.9542 36.8737 3.03959 36.105 3.22527 35.3217 3.28244 33.1036 3.44434 30.878 3.48911 28.6573 3.61069L23.3257 3.93893C22.9924 4.04831 22.6689 4.19212 22.326 4.26718 19.313 4.92677 16.5436 4.72579 13.329 4.92367 12.1045 4.99903 10.8853 5.14253 9.66349 5.25191 8.99704 5.47077 8.05384 5.33265 7.66415 5.9084 7.44196 6.23664 7.33733 6.68409 6.9977 6.89313 6.40199 7.25994 5.58284 7.16576 4.99836 7.54962L3.99869 8.20611C3.2064 10.5476 4.32981 7.71679 2.66579 10.1756 2.471 10.4635 2.50311 10.8578 2.33257 11.1603 1.94361 11.85 1.25292 12.3813 0.999672 13.1298 0.18839 15.5272 0.503562 14.4279 0 16.4122 0.11104 19.1476 0.135179 21.8877 0.333224 24.6183 0.358203 24.9634 0.4959 25.3006 0.666448 25.6031 1.0554 26.2927 1.55508 26.916 1.99934 27.5725 2.22153 27.9008 2.33257 28.3384 2.66579 28.5573L4.66513 29.8702 5.66481 30.5267 6.66448 31.1832C6.88666 31.5115 7.01817 31.9215 7.33092 32.1679 7.60517 32.3841 8.01647 32.3414 8.3306 32.4962 8.6888 32.6727 8.9643 32.9924 9.33027 33.1527 9.97226 33.4337 10.6632 33.5903 11.3296 33.8092L12.3293 34.1374 13.329 34.4657C13.6622 34.575 14.0363 34.602 14.3286 34.7939 14.6618 35.0128 14.9623 35.2901 15.3283 35.4504 15.9703 35.7314 16.7432 35.723 17.3276 36.1069 20.1925 37.9883 16.5678 35.7326 19.327 37.0916 19.6852 37.2681 19.9607 37.5879 20.3267 37.7481 20.9687 38.0291 21.7415 38.0207 22.326 38.4046 22.6592 38.6235 22.9675 38.8846 23.3257 39.0611 23.8856 39.3369 25.1245 39.5598 25.6582 39.7176 26.3311 39.9164 26.976 40.2063 27.6576 40.3741 28.5462 40.5929 29.4545 40.7452 30.3234 41.0305 30.6566 41.1399 30.9738 41.3226 31.323 41.3588 33.0939 41.5424 34.8779 41.5703 36.6546 41.687 41.7627 42.0225 39.948 41.8223 43.6523 42.3435 46.4292 42.2341 49.21 42.1973 51.9829 42.0153 53.1604 41.9379 54.5722 41.3839 55.6484 41.0305L56.6481 40.7023 80.6402 41.0305C82.1987 41.0662 83.7487 41.2736 85.3053 41.3588 87.7477 41.4925 90.1926 41.5777 92.6362 41.687 93.5249 41.7964 94.4106 41.9316 95.302 42.0153 106.928 43.106 118.633 42.8469 130.291 43L156.282 42.6718C157.398 42.6467 158.499 42.3828 159.614 42.3435 164.722 42.1638 169.833 42.1247 174.943 42.0153 175.72 41.9059 176.51 41.861 177.275 41.687 177.96 41.5314 178.573 41.0606 179.274 41.0305L193.27 40.3741C200.995 39.4228 191.816 40.4648 209.265 39.7176 209.94 39.6886 210.59 39.4385 211.264 39.3893 213.593 39.2194 215.929 39.1705 218.262 39.0611 221.439 38.2787 219.568 38.6519 225.593 38.4046L235.589 38.0763 236.922 36.1069C237.144 35.7786 237.462 35.4964 237.589 35.1221L237.922 34.1374C237.811 32.1679 237.818 30.1886 237.589 28.229 237.456 27.0966 236.974 25.7575 236.589 24.6183 236.478 21.5547 236.456 18.4867 236.256 15.4275 236.15 13.8176 234.273 13.1813 232.923 12.8015 232.483 12.6776 232.031 12.5972 231.591 12.4733 231.253 12.3783 230.924 12.2544 230.591 12.145 217.089 12.9762 223.551 12.71 198.601 12.145 197.816 12.1273 197.045 11.9344 196.269 11.8168 195.036 11.63 194.099 11.5039 192.937 11.1603 192.264 10.9615 191.626 10.6396 190.937 10.5038 184.796 9.29392 192.37 10.8567 188.271 9.84733 187.722 9.712 187.152 9.66589 186.605 9.51909 185.928 9.33703 185.295 8.99834 184.606 8.8626 184.051 8.75322 183.493 8.65542 182.94 8.53435 182.493 8.43645 182.059 8.28023 181.607 8.20611 180.724 8.06106 179.828 8.00265 178.941 7.87786 178.272 7.78378 177.617 7.58549 176.942 7.54962 173.502 7.36642 170.055 7.33076 166.612 7.22138L153.949 7.54962C153.274 7.57981 152.615 7.75877 151.95 7.87786 151.393 7.97763 150.833 8.07078 150.284 8.20611 148.274 8.70111 150.341 8.56154 147.285 8.8626 145.734 9.0154 144.174 9.07309 142.62 9.19084L138.621 9.51909C138.177 9.62847 137.729 9.72337 137.288 9.84733 136.951 9.94234 136.64 10.1756 136.289 10.1756 129.401 10.1756 122.515 9.95671 115.629 9.84733L113.629 9.19084C113.296 9.08146 112.977 8.9115 112.63 8.8626 107.656 8.16269 111.082 8.56661 102.3 8.20611 101.873 8.10097 100.445 7.78503 99.9672 7.54962 98.7262 6.93841 99.0733 6.8158 97.9678 5.9084 97.6602 5.65583 97.3263 5.42839 96.9681 5.25191 96.654 5.09714 96.2913 5.05993 95.9685 4.92367 95.5119 4.73096 95.0921 4.45988 94.6356 4.26718 94.3127 4.13092 93.943 4.10693 93.6359 3.93893 92.9358 3.55579 92.303 3.06358 91.6366 2.62595 91.3033 2.40709 91.0168 2.09425 90.6369 1.96947 90.0818 1.7872 88.8319 1.34885 88.3043 1.31298 85.5318 1.12461 82.7506 1.09411 79.9737 0.984733 77.1977 0.642945 78.2035 0.656489 77.3079 0.984733Z" stroke="#000000" stroke-miterlimit="8" fill="#595959" fill-rule="evenodd" transform="matrix(1.00033 0 -0 1 37.5 159.5)"/><path d="M8.95316 1.67732 8.95316 1.67732C12.7112 1.56553 16.4774 1.61287 20.2275 1.34185 21.1367 1.27613 21.9865 0.851813 22.8803 0.670927L26.1963 0C30.8386 0.111786 35.4843 0.126895 40.1234 0.335463 40.4725 0.351206 40.8126 0.499233 41.1182 0.670927 41.8149 1.06249 42.3516 1.75783 43.1078 2.01278 43.771 2.23646 44.5158 2.2914 45.0974 2.68371 45.429 2.90738 45.728 3.19086 46.0922 3.35463 46.731 3.64181 47.5001 3.63325 48.0818 4.02556 48.4134 4.24924 48.7201 4.51613 49.0766 4.69649 49.3892 4.85466 49.7658 4.86026 50.0714 5.03195 50.7681 5.42352 51.3978 5.92656 52.0609 6.37381L53.0557 7.04473C53.2768 7.3802 53.4372 7.76606 53.7189 8.05112 55.0453 9.39298 54.4926 7.93934 55.3769 9.72844 55.5333 10.0447 55.5522 10.4186 55.7085 10.7348 55.8868 11.0954 56.2098 11.3728 56.3717 11.7412 56.6556 12.3875 56.6471 13.1656 57.0349 13.754 57.256 14.0895 57.5198 14.3998 57.6981 14.7604 58.0771 15.5273 58.1722 16.6785 58.3613 17.4441 58.4461 17.7872 58.5969 18.1105 58.6929 18.4505 58.8181 18.8938 58.8993 19.349 59.0245 19.7923 59.1205 20.1323 59.2713 20.4557 59.3561 20.7987 59.4928 21.3519 59.5772 21.9169 59.6877 22.476 59.6918 22.6385 60.2791 46.3076 60.3509 47.3003 60.4019 48.0057 60.793 48.6422 61.0141 49.3131L61.6773 51.3259 62.0089 52.3323 62.3405 53.3387C62.451 54.9042 62.5008 56.4752 62.6721 58.0352 62.7224 58.4934 62.8727 58.9354 63.0037 59.377L63.9985 62.3962 64.9933 65.4154 65.3249 66.4218C65.4354 67.4281 65.515 68.4386 65.6565 69.4409 66.3937 74.6621 65.5956 68.065 66.3197 72.4601 66.5767 74.0199 66.6038 75.6224 66.9829 77.1566 67.8091 80.5001 67.4962 78.9308 67.9777 81.8531 67.8672 84.0895 67.8226 86.3302 67.6461 88.5623 67.6012 89.1307 67.3633 89.6716 67.3145 90.2397 67.1418 92.248 67.2301 94.2777 66.9829 96.278 66.8962 96.9798 66.5408 97.6199 66.3197 98.2908L65.6565 100.304 65.3249 101.31 64.9933 102.316C63.5564 102.205 62.106 102.208 60.6825 101.981 59.9919 101.871 59.3915 101.335 58.6929 101.31L49.4082 100.974C48.6345 101.086 47.8534 101.155 47.087 101.31 46.7442 101.379 46.4364 101.584 46.0922 101.645 44.5528 101.92 42.9973 102.093 41.4498 102.316L39.1286 102.652C38.1805 102.972 37.8484 103.112 36.8074 103.323 36.1481 103.456 35.4741 103.511 34.8178 103.658 34.4766 103.735 34.1591 103.897 33.823 103.994 33.3848 104.12 32.9349 104.202 32.4966 104.329 29.1667 105.292 34.3219 103.951 30.1755 105 25.8647 104.888 21.5457 104.955 17.2431 104.665 16.5456 104.618 15.9167 104.217 15.2535 103.994L14.2587 103.658C13.9271 103.546 13.5548 103.519 13.2639 103.323 12.9323 103.099 12.6256 102.832 12.2691 102.652 11.9566 102.494 11.5869 102.475 11.2743 102.316 10.9179 102.136 10.6437 101.809 10.2795 101.645 9.64069 101.358 8.87159 101.367 8.28996 100.974 7.95836 100.751 7.65935 100.467 7.29516 100.304 3.74367 98.7068 6.5621 100.48 4.31078 98.9617 3.56403 96.6954 4.59966 99.1519 2.98439 97.2844 1.59982 95.6837 1.62092 95.1591 0.994795 93.2588L0.331598 91.246 0 90.2397C0.116347 88.9455 0.282929 86.0754 0.663197 84.5368 0.832704 83.8506 1.10529 83.1949 1.32639 82.524 1.43689 82.1885 1.57319 81.8607 1.65799 81.5176L2.32119 78.8339 2.65279 77.4921C2.69446 75.806 2.41362 66.2897 3.31598 61.7253 3.3845 61.3785 3.53708 61.0543 3.64758 60.7189 4.45814 51.6987 4.055 57.6969 3.64758 40.5911 3.54471 36.2703 3.47066 29.4084 2.98439 24.4888 2.91744 23.812 2.74167 23.1503 2.65279 22.476 2.52046 21.4723 2.47336 20.4577 2.32119 19.4569 2.25184 19.0012 2.0885 18.5651 1.98959 18.115 1.86729 17.5584 1.75063 17.0001 1.65799 16.4377 1.52953 15.6577 1.47971 14.8648 1.32639 14.0895 1.14759 13.1852 0.841999 12.31 0.663197 11.4058 0.242197 9.27633 0.468311 10.2816 0 8.38659 0.0951452 7.42447 0.065693 5.2345 0.663197 4.02556 0.841477 3.66495 0.988424 3.23281 1.32639 3.01917 1.9192 2.6443 2.65279 2.57192 3.31598 2.34824L4.31078 2.01278C10.3893 2.37455 8.17946 1.73321 8.95316 1.67732Z" stroke="#000000" stroke-miterlimit="8" fill="#A6A6A6" fill-rule="evenodd" transform="matrix(1.00033 0 -0 1 43.5 57.5)"/><path d="M0 29.3146 0 29.3146C0.99929 29.5367 1.97644 29.9127 2.99787 29.9808 4.86835 30.1056 4.6024 29.5932 5.99574 29.3146 6.76559 29.1605 7.54362 29.0275 8.32742 28.9814 11.3221 28.8053 14.3232 28.7593 17.321 28.6483L19.3196 27.9821 20.3189 27.649C22.0408 25.0659 21.3981 26.4099 22.3175 23.6515L22.6506 22.6522 22.9837 21.6528C23.0426 20.8864 22.598 17.4309 23.983 16.3229 24.2571 16.1035 24.6492 16.1008 24.9822 15.9898 25.0932 15.6566 25.1583 15.3044 25.3153 14.9904 25.4944 14.6323 25.9249 14.3874 25.9815 13.991 26.0463 13.5378 25.78 13.0971 25.6484 12.6586 25.4467 11.9859 25.2043 11.3261 24.9822 10.6598L24.3161 8.66112C24.2051 8.328 24.0407 8.0081 23.983 7.66176 23.872 6.99552 23.8136 6.31826 23.6499 5.66304 23.4796 4.98169 23.6499 3.88643 22.9837 3.66432 20.472 2.82706 23.5679 3.95652 20.9851 2.66496 20.2708 2.30781 19.0044 2.15075 18.3203 1.99872 15.4933 1.37046 18.6981 1.90996 14.6563 1.33248L11.6584 0.33312 10.6591 0C10.326 0.111005 9.99741 0.236699 9.6598 0.33312 9.16178 0.475391 7.86056 0.733074 7.32813 0.99936 4.74529 2.29092 7.84125 1.16146 5.32955 1.99872 3.80244 4.28964 4.75673 3.74427 2.99787 4.33056 2.16067 6.84244 3.38741 3.84363 1.66548 5.99616 1.44611 6.27031 1.48944 6.6815 1.33239 6.99552 1.1533 7.35361 0.888293 7.66176 0.666193 7.99488-0.247908 13.4796 0.0899099 10.6584 0.666193 21.3197 0.716971 22.2585 1.2708 22.529 1.66548 23.3184 1.82254 23.6324 1.88758 23.9846 1.99858 24.3178 1.75948 25.2741 1.40478 26.8379 0.99929 27.649L0 29.3146Z" stroke="#000000" stroke-miterlimit="8" fill="#D9D9D9" fill-rule="evenodd" transform="matrix(1.00033 0 -0 1 50.5 29.5)"/><path d="M0.898676 19.6666 0.898676 19.6666C1.23956 25.1125 1.45531 25.1083 0.898676 30.6666 0.863663 31.0162 0.676084 31.3333 0.56484 31.6666-0.215653 37.901-0.160557 36.377 0.56484 47 0.612681 47.7011 1.06186 48.3182 1.23251 49 1.737 51.0151 1.42125 49.8986 2.23402 52.3333L3.56936 56.3333 3.9032 57.3333C4.01444 57.6666 4.04189 58.0409 4.23704 58.3333 4.45963 58.6666 4.74173 58.9672 4.90471 59.3333 5.19049 59.9755 5.18198 60.7486 5.57238 61.3333 6.01746 61.9999 6.65401 62.5732 6.90772 63.3333L8.91074 69.3333 9.24458 70.3333C9.48273 71.0465 9.63698 71.8011 10.2461 72.3333 10.8499 72.8609 11.5814 73.2222 12.2491 73.6666 12.5829 73.8889 12.87 74.2065 13.2506 74.3333 13.5844 74.4443 13.9374 74.5094 14.2521 74.6666 14.611 74.8458 14.8644 75.2361 15.2536 75.3333 16.5905 75.667 23.9303 75.9997 23.9334 75.9999 24.3784 76.111 24.8292 76.2016 25.2687 76.3333 26.6118 76.7356 27.9429 77.2233 29.2747 77.6666L30.2762 77.9999C30.6101 78.111 30.926 78.3212 31.2778 78.3333L51.9756 78.9999C54.0062 78.662 54.5089 79.0782 55.3139 76.6666L55.9816 74.6666C55.8704 66.6666 55.9558 58.6615 55.6478 50.6666 55.6208 49.9644 55.2027 49.3333 54.9801 48.6666L54.3124 46.6666 53.9786 45.6666 53.6448 44.6666C53.388 38.5138 53.3387 36.4432 52.9771 30.6666 52.8796 29.1102 52.7254 27.5574 52.6433 26 52.5028 23.3347 52.4815 20.6634 52.3094 18 52.2386 16.9033 51.9753 15.4433 51.6418 14.3333 51.4396 13.6602 51.6418 12.5556 50.9741 12.3333L49.9726 12C49.8613 11.6667 49.8586 11.2743 49.6387 11 49.3881 10.6871 48.9454 10.5898 48.6372 10.3333 45.4994 7.72241 50.6952 11.3699 45.6327 7.99999 44.0456 6.94351 45.0118 7.46004 42.6282 6.66666L41.6267 6.33333C41.2928 6.22225 40.918 6.19485 40.6252 5.99999 40.2913 5.77774 39.9825 5.51254 39.6237 5.33333 39.309 5.17616 38.9298 5.1706 38.6222 5 37.9207 4.61091 37.3804 3.92 36.6191 3.66666L33.6146 2.66666 30.6101 1.66667C30.2762 1.55559 29.95 1.41858 29.6086 1.33333 29.1635 1.22226 28.7127 1.13165 28.2732 0.999999 27.5991 0.798109 26.9379 0.55559 26.2702 0.333333L25.2687 0C22.7093 0.111076 20.1387 0.0701312 17.5905 0.333333 16.8904 0.405669 16.2551 0.777742 15.5875 0.999999 15.2536 1.11108 14.8788 1.13848 14.586 1.33333L12.5829 2.66666 11.2476 4.66666C11.025 5 10.9138 5.4444 10.5799 5.66666L9.57841 6.33333 7.5754 9.33332C7.3528 9.66666 7.24156 10.1111 6.90772 10.3333 4.61188 11.8615 5.66596 11.4133 3.9032 12L2.56786 14C1.96275 14.9062 1.23251 15.81 1.23251 17L0.898676 19.6666Z" stroke="#000000" stroke-miterlimit="8" fill="#A6A6A6" fill-rule="evenodd" transform="matrix(1.00033 0 -0 1 127.5 92.5)"/><path d="M33.8512 42.1321 33.8512 42.1321C32.8556 41.9074 31.8538 41.7093 30.8643 41.458 30.5249 41.3718 30.1816 41.2799 29.8687 41.121 29.512 40.9398 29.2298 40.6281 28.8731 40.4469 27.9464 39.9763 26.4104 39.897 25.5543 39.7727L22.5675 38.7616 21.5718 38.4245C21.24 38.3122 20.9213 38.1459 20.5762 38.0875 19.9125 37.9751 19.2378 37.9161 18.585 37.7504 17.9062 37.5781 17.2575 37.301 16.5937 37.0763L15.5981 36.7392C13.6959 33.8414 16.2287 37.2517 13.9387 35.391 11.7942 33.6486 14.7819 34.8899 12.2794 34.0428 12.0581 33.7057 11.9271 33.2847 11.6156 33.0316 11.3425 32.8096 10.8674 32.9458 10.62 32.6945 10.3726 32.4433 10.4446 32.0011 10.2881 31.6834 10.1097 31.3211 9.80279 31.0345 9.62436 30.6722 9.46789 30.3545 9.46235 29.9717 9.29249 29.661 8.90511 28.9528 8.21722 28.4073 7.96499 27.6387 7.6951 26.8163 7.61273 26.2698 6.96937 25.6163 6.68735 25.3299 6.30562 25.167 5.97374 24.9422 5.13961 22.4007 6.26485 25.5334 4.97812 22.9199 4.82164 22.6022 4.75683 22.2458 4.64624 21.9087 4.56377 21.3225 4.4281 19.3527 3.9825 18.5381L1.99125 15.5046C1.76996 15.1676 1.45366 14.8778 1.3275 14.4935L0.995624 13.4823C0.885034 12.1341 0.882734 10.7721 0.663749 9.4376 0.548769 8.73673 0 7.41526 0 7.41526 0.12836 6.24198 0.21125 3.55444 0.995624 2.3594 1.21691 2.02234 1.32112 1.56288 1.65937 1.34823 2.25267 0.971574 2.98687 0.898854 3.65062 0.674114L4.64624 0.337057 5.64187 0 15.93 0.337057C16.9305 0.387908 17.9201 0.572838 18.9169 0.674114L22.5675 1.01117C28.2334 2.92927 23.8593 1.70556 36.1743 1.34823 39.0042 0.390243 37.15 0.879958 43.1437 1.34823 44.0329 1.41766 44.9108 1.5994 45.7987 1.68529 47.2346 1.82414 48.675 1.91003 50.1131 2.02234 50.5555 2.13466 51.002 2.23211 51.4406 2.3594 51.7769 2.45696 52.0904 2.64242 52.4362 2.69646 54.8341 3.0711 59.8564 3.26494 61.7287 3.37057 62.0605 3.48289 62.3849 3.62143 62.7243 3.70763 64.1481 4.0691 64.8954 4.08121 66.3749 4.38174 66.8222 4.47262 67.2638 4.59152 67.7024 4.7188 69.6488 5.28357 67.7544 4.74513 69.6937 5.72997 70.0065 5.88889 70.3574 5.95471 70.6893 6.06703 71.5689 6.96036 72.752 7.89765 73.3443 9.10054 73.5008 9.41828 73.5197 9.79398 73.6762 10.1117 73.8546 10.474 74.1615 10.7606 74.3399 11.1229 74.4964 11.4406 74.4532 11.8567 74.6718 12.1341 74.921 12.4504 75.3355 12.5834 75.6674 12.8082 75.778 13.1452 75.8428 13.5016 75.9993 13.8193 76.1777 14.1817 76.5848 14.4333 76.663 14.8305 76.9242 16.1572 76.7759 17.5407 76.9949 18.8752 77.1099 19.5761 77.4374 20.2234 77.6587 20.8975L78.6543 23.9311 79.6499 26.9646 79.9818 27.9757 80.3137 28.9869C80.4242 30.7845 80.4599 32.5886 80.6455 34.3798 80.7567 35.453 81.1787 35.4629 81.6412 36.4022 81.7976 36.7199 81.8624 37.0763 81.973 37.4133 81.8624 39.4357 82.0323 41.4942 81.6412 43.4804 81.5665 43.8592 79.9609 44.4583 79.6499 44.4916 77.8862 44.6801 76.1099 44.7163 74.3399 44.8286 68.0504 44.6801 63.8766 45.6444 58.7418 44.1545 58.4054 44.0569 58.0781 43.9297 57.7462 43.8174 49.7881 44.1849 50.2583 44.3706 41.8162 43.8174 41.3743 43.7885 39.358 43.2967 38.8293 43.1433 38.493 43.0458 38.1787 42.8647 37.8337 42.8063L33.8512 42.1321Z" stroke="#000000" stroke-miterlimit="8" fill="#595959" fill-rule="evenodd" transform="matrix(1.00033 0 -0 1 107.5 52.5)"/><path d="M8.2795 2.33333 8.2795 2.33333C8.16914 3.33333 8.01956 4.32976 7.94832 5.33333 7.79863 7.44199 7.86737 9.56765 7.61714 11.6667 7.534 12.3644 7.1756 13 6.95478 13.6666 6.44554 15.2042 6.69202 14.3221 6.29242 16.3333 6.18206 18.6666 6.21752 21.0116 5.96124 23.3333 5.88415 24.0318 5.5197 24.6666 5.29888 25.3333L4.9677 26.3333C4.62254 27.3754 4.28792 28.6784 3.3118 29.3333L2.31826 30C2.2079 30.3333 2.15658 30.6928 1.98708 31 0.0890796 34.4385 1.08053 31.7372 0.33118 34 0.220821 35.111 0 36.2166 0 37.3333 0 41.6681 0.0568482 46.0073 0.33118 50.3333 0.441643 52.0747 0.949834 52.6163 1.32472 53.9999 1.56421 54.8839 1.76626 55.7777 1.98708 56.6666 2.00867 56.7537 2.4767 58.7826 2.64944 58.9999 2.89811 59.3128 3.27925 59.5039 3.64298 59.6666 4.28103 59.9519 4.9677 60.111 5.63006 60.3333 7.80114 61.0616 6.20334 60.6104 10.2666 60.9999L13.5784 61.3333C14.0199 61.4443 14.4671 61.5349 14.9031 61.6666 15.5718 61.8685 16.2128 62.1629 16.8902 62.3333 17.3317 62.4443 17.7789 62.5349 18.2149 62.6666 19.9046 63.1768 20 63.3593 21.5267 63.6666 23.7419 64.1125 24.6149 64.1007 27.1567 64.3333 28.1022 64.5236 29.2019 64.7175 30.1374 64.9999 30.8061 65.2018 31.4268 65.6385 32.1244 65.6666L40.4039 65.9999C43.0534 65.8888 45.7137 65.9322 48.3523 65.6666 49.047 65.5967 49.6482 65.0993 50.3393 64.9999L52.6576 64.6666C53.0033 63.6229 53.451 62.4416 53.6511 61.3333 53.7908 60.5602 53.872 59.7777 53.9823 58.9999 53.872 57.7777 53.8413 56.5455 53.6511 55.3333 53.427 53.9047 53.0761 52.9303 52.6576 51.6666 52.4368 46.7777 52.7946 41.8273 51.9952 37 51.8849 36.3333 51.8269 35.6556 51.6641 35L50.6705 32 50.3393 31 50.0082 30C49.9234 25.9017 49.7071 6.96419 49.0146 1.66666 48.969 1.31832 48.3567 1.42981 48.0211 1.33333 47.5834 1.20745 47.134 1.12588 46.6964 0.999999 45.455 0.643044 45.8017 0.593805 44.3781 0.333333 43.6101 0.192756 42.8326 0.111076 42.0598 0L28.8126 0.333333C27.7324 0.381627 26.1275 1.01197 25.1697 1.33333 24.8385 1.44441 24.5248 1.65071 24.1761 1.66666L8.2795 2.33333Z" stroke="#000000" stroke-miterlimit="8" fill="#A6A6A6" fill-rule="evenodd" transform="matrix(1.00033 0 -0 1 205.5 105.5)"/><path d="M53.3159 26.0465 53.3159 26.0465C55.3164 26.2637 56.4445 26.6554 58.3142 26.0465 58.6942 25.9227 58.9807 25.6124 59.3139 25.3953 59.9004 23.6761 59.4523 24.7042 60.98 22.4651 61.2022 22.1395 61.5198 21.8596 61.6465 21.4883 62.4455 19.1464 61.4761 22.071 62.3129 19.2093 62.4094 18.8793 62.4756 18.5326 62.6461 18.2325 64.7993 14.4456 63.3481 18.1285 64.6455 14.3256L64.9787 13.3488C64.8677 12.2636 64.7759 11.1762 64.6455 10.093 64.481 8.7268 64.4119 6.93451 63.3126 5.86046 63.0294 5.58379 62.6461 5.42638 62.3129 5.20929 62.1093 4.61238 61.7001 2.84194 60.98 2.27907 60.7058 2.06464 60.2945 2.107 59.9803 1.95349 59.6221 1.77844 59.3466 1.46127 58.9807 1.30232 57.4202 0.624705 56.8831 0.666031 55.3152 0.325581 54.8681 0.228471 54.4266 0.108493 53.9823 0 52.6494 0.108493 51.313 0.1813 49.9836 0.325581 49.3121 0.398491 48.6596 0.634037 47.9843 0.651162 40.0998 0.851227 32.2117 0.86825 24.3254 0.976743 20.9657 2.0709 26.1769 0.401464 21.9928 1.6279L18.9938 2.60465 14.9951 3.90697 13.9954 4.23255C13.6622 4.34104 13.3443 4.51558 12.9957 4.55813L10.3299 4.88371C9.6635 5.1008 8.91508 5.15413 8.3306 5.53488L6.33126 6.8372C6.10907 7.16278 5.97757 7.56947 5.66481 7.81394 5.39057 8.02836 4.91356 7.8968 4.66514 8.13952 4.41672 8.38225 4.50246 8.81622 4.33191 9.11627 3.18846 11.1272 3.45965 10.7697 1.99934 11.7209 1.55508 12.3721 0.919699 12.932 0.666448 13.6744L0 15.6279C0.11104 16.9302 0.156484 18.2395 0.333224 19.5349 0.379613 19.875 0.418026 20.2689 0.666448 20.5116 1.23277 21.0649 1.99934 21.3798 2.66579 21.8139L3.66547 22.4651C3.99869 22.6822 4.28521 22.9925 4.66514 23.1162 5.33159 23.3333 6.08 23.3867 6.66448 23.7674 8.24864 24.7993 7.28423 24.2948 9.6635 25.0697 11.423 25.6428 10.3709 25.205 12.6625 26.6976 12.9957 26.9147 13.2823 27.225 13.6622 27.3488L15.6615 28C37.4646 27.2653 10.6758 28 42.9859 28 45.3211 28 51.5942 26.3721 53.3159 26.0465Z" stroke="#000000" stroke-miterlimit="8" fill="#D9D9D9" fill-rule="evenodd" transform="matrix(1.00033 0 -0 1 201.5 79.5)"/><path d="M16.9842 0 16.9842 0C11.1767 2.17592 17.2521 0.117374 11.9889 1.33093 11.3048 1.48865 10.6568 1.77454 9.99074 1.9964L6.99351 2.9946C4.13506 3.94658 8.68507 2.48885 3.99629 3.66007 3.31514 3.83015 1.99815 4.32553 1.99815 4.32553 1.7761 4.65827 1.51114 4.96606 1.3321 5.32373 1.17508 5.63739 1.2184 6.0481 0.999073 6.32193 0.749017 6.63423 0.333024 6.76554 0 6.9874 0.110973 7.54199 0.184081 8.10549 0.333024 8.65107 0.517735 9.32785 0.883695 9.95559 0.999073 10.6475 1.11005 11.3129 1.18557 11.9853 1.3321 12.6439 1.40825 12.9862 1.36031 13.4681 1.66512 13.6421 2.25135 13.9768 2.9989 13.8541 3.66327 13.9748 4.22013 14.0759 4.78234 14.1587 5.32839 14.3075 6.00577 14.4921 6.66049 14.7511 7.32654 14.973 7.65956 15.0839 7.97675 15.267 8.32561 15.3057L11.3228 15.6385C13.8615 16.2726 11.8967 15.941 15.9852 15.6385 17.8705 15.499 19.7594 15.4166 21.6466 15.3057 22.4236 15.1949 23.2081 15.1268 23.9778 14.973 24.8754 14.7936 25.7539 14.5294 26.642 14.3075 27.086 14.1967 27.5209 14.0395 27.9741 13.9748L30.3052 13.6421 34.3015 12.3111C34.6345 12.2003 35.0085 12.1729 35.3006 11.9784L37.2987 10.6475C37.5771 9.81317 38.4822 8.29119 37.6318 7.32013 37.1046 6.71828 36.2997 6.43281 35.6336 5.9892L34.6345 5.32373C34.3015 5.10188 34.0152 4.78476 33.6355 4.65827L31.6373 3.9928C31.3043 3.88192 30.9845 3.71771 30.6383 3.66007 27.332 3.10956 29.655 3.45162 25.3099 2.9946L22.3126 2.66187 20.3145 1.9964C19.9815 1.88552 19.5637 1.91172 19.3154 1.66367L16.9842 0Z" stroke="#000000" stroke-miterlimit="8" fill="#595959" fill-rule="evenodd" transform="matrix(1.00033 0 -0 1 216.5 64.5)"/></g></svg>