<svg width="301" height="250" xmlns="http://www.w3.org/2000/svg" xmlns:xlink="http://www.w3.org/1999/xlink" overflow="hidden"><defs><clipPath id="clip0"><path d="M0 0 301 0 301 250 0 250Z" fill-rule="evenodd" clip-rule="evenodd"/></clipPath></defs><g clip-path="url(#clip0)"><rect x="0" y="0" width="300.901" height="250" fill="#D3D3C3" transform="scale(1.00033 1)"/><path d="M7.5238 11 7.5238 11C6.50045 10.7777 5.49999 10.3972 4.45375 10.3333-1.52176 9.96837 4.66723 11.3021 0.701465 10.3333 0.474018 9.99997 0.0865953 9.72848 0.0192315 9.33331-0.145579 8.36722 0.785804 8.05614 1.3837 7.66664 1.61115 7.33331 1.75737 6.93048 2.06593 6.66665 2.68295 6.13899 4.11263 5.33332 4.11263 5.33332 4.2263 4.99999 4.25434 4.62571 4.45375 4.33332 4.72138 3.94109 5.07571 3.59485 5.4771 3.33332 6.12657 2.91023 8.68607 2.6949 8.88827 2.66666 9.86359 2.34897 10.2052 2.20923 11.2761 1.99999 11.9543 1.8674 12.6518 1.83055 13.3228 1.66666 14.0205 1.49627 14.6643 1.13784 15.3695 0.999997 18.3066 0.425931 16.4977 0.718003 20.8274 0.333332 21.1685 0.222257 21.4911 0 21.8507 0 24.8401 0 24.7324 0.0497636 26.6263 0.666665 27.6373 3.63054 26.2084-0.834013 27.3086 6.33332 27.4153 7.02822 27.9908 8.33331 27.9908 8.33331 27.8771 8.8889 28.0597 9.59934 27.6497 9.99997 27.1412 10.4969 26.2852 10.4444 25.603 10.6666L24.5796 11 7.5238 11Z" stroke="#000000" stroke-miterlimit="8" fill="#A6A6A6" fill-rule="evenodd" transform="matrix(1.00033 0 -0 1 247.5 190.5)"/><path d="M15.3283 140.663 15.3283 140.663C17.7719 140.775 20.2209 140.802 22.6593 140.998 23.0094 141.026 23.3161 141.255 23.6589 141.332 27.1777 142.116 24.4076 141.248 26.658 142 28.5463 141.889 30.4397 141.846 32.3228 141.666 32.7787 141.622 33.2012 141.389 33.6557 141.332 34.9829 141.165 36.3215 141.109 37.6544 140.998 40.5033 140.045 38.9566 140.417 42.3195 139.995 44.6988 139.2 43.7344 139.718 45.3185 138.659 45.4296 138.325 45.5755 138 45.6517 137.656 46.3834 134.355 45.7005 134.72 46.3182 129.972 46.4091 129.273 46.9846 127.967 46.9846 127.967 46.8736 116.607 46.8652 105.246 46.6514 93.8878 46.6428 93.4287 46.4498 92.9913 46.3182 92.5514 46.0154 91.5394 45.6517 90.5467 45.3185 89.5444 45.2075 89.2103 45.0541 88.8874 44.9853 88.542 44.1701 84.4554 45.0873 88.6944 44.3188 85.8691 44.0779 84.9831 43.8746 84.0873 43.6524 83.1963 43.5414 82.7508 43.464 82.2955 43.3192 81.8598 43.097 81.1916 42.8231 80.5385 42.6527 79.8551 42.4305 78.9641 42.2759 78.0535 41.9863 77.1822 41.8752 76.8481 41.7495 76.5185 41.653 76.1799 41.5272 75.7384 41.4514 75.2833 41.3198 74.8435 41.118 74.1688 40.8237 73.5222 40.6534 72.8388 40.5423 72.3933 40.4161 71.9514 40.3202 71.5023 40.0829 70.3918 40.0119 69.2387 39.6537 68.1612L38.3208 64.1519 37.6544 62.1472C37.5433 61.7018 37.4527 61.2506 37.3211 60.8108 37.1193 60.1361 36.825 59.4895 36.6547 58.8061 36.5436 58.3606 36.4473 57.9112 36.3215 57.4697 36.225 57.131 36.0644 56.8111 35.9882 56.4673 35.5767 54.6107 35.492 52.6651 35.3218 50.7874 35.2107 42.4346 35.1917 34.08 34.9886 25.729 34.9695 24.9418 34.6946 24.1768 34.6553 23.3902 34.4722 19.718 34.4849 16.0379 34.3221 12.3646 34.2627 11.0248 34.2088 9.67809 33.9889 8.35522 33.8734 7.66047 33.5446 7.01877 33.3224 6.35054L32.9892 5.34821C32.7515 4.63326 32.5975 3.87696 31.9895 3.34354 30.1507 1.73033 30.4575 2.2145 28.6573 1.67298 25.164 0.622237 27.6059 0.900786 22.326 0.670644 18.6623 0.510902 14.9951 0.447868 11.3296 0.336532 10.8854 0.225197 10.4547 0.00242034 9.99673 0.00242034 6.05597 0.00242034 6.56846-0.0768194 4.33192 0.670644 4.22088 1.00476 4.24712 1.4239 3.99869 1.67298 3.75027 1.92206 3.31314 1.84956 2.99902 2.00709 2.64082 2.18672 2.33257 2.45254 1.99935 2.67531 1.88831 3.00943 1.83667 3.36974 1.66612 3.67765 1.27717 4.37965 0.586475 4.92044 0.333224 5.68232L0 6.68466C0.11104 16.3739 0.138013 26.0645 0.333224 35.7524 0.38696 38.4177 0.616072 39.4589 0.999673 41.7664 1.18838 44.605 1.18156 47.386 1.99935 50.1192 2.30213 51.1312 2.6658 52.1239 2.99902 53.1262L3.33224 54.1285C3.44328 56.2445 3.66547 58.3577 3.66547 60.4767 3.66547 70.485 4.42281 67.8878 2.99902 72.1706 3.11006 80.412 3.04562 88.6577 3.33224 96.8948 3.37937 98.2489 3.99869 100.904 3.99869 100.904 4.43456 130.183 3.39805 115.163 4.66514 125.963 4.77219 126.875 5.16304 130.629 5.33159 131.642 5.40684 132.095 5.55378 132.533 5.66481 132.979 5.69074 133.213 6.16344 137.764 6.33126 138.325 6.55345 139.067 7.33094 139.698 7.99739 139.995 8.63938 140.281 9.33028 140.441 9.99673 140.663 12.6824 141.561 14.4397 140.663 15.3283 140.663Z" stroke="#000000" stroke-miterlimit="8" fill="#D9D9D9" fill-rule="evenodd" transform="matrix(1.00033 0 -0 1 33.5 62.5)"/><path d="M9.99672 11.9643 9.99672 11.9643 16.6612 12.3096C21.0632 12.586 19.6871 12.2038 21.9928 13 21.8972 12.0099 21.9268 9.75615 21.3263 8.51202 21.1472 8.14091 20.839 7.84744 20.6599 7.47633 20.5028 7.15089 20.5751 6.69801 20.3267 6.44064 20.0782 6.18326 19.6341 6.2721 19.327 6.09541 18.6269 5.69244 18.0875 4.97686 17.3277 4.71449L13.329 3.33356C12.7372 3.12925 11.5717 2.69725 10.9964 2.6431 9.00219 2.45532 6.99771 2.41291 4.99836 2.29787 5.22055 1.95264 5.599 1.67146 5.66481 1.26218 6.04201-1.08277 1.84475 0.554869 1.66612 0.571723 1.3329 0.686763 0.870581 0.620871 0.666448 0.916953 0.258078 1.50923 0 2.98833 0 2.98833 0.0217252 3.07858 0.492647 5.17987 0.666448 5.40495 0.916655 5.72897 1.3329 5.86522 1.66612 6.09541 2.36605 7.18318 2.34747 6.95734 2.66579 8.16679 3.29771 10.5672 2.62769 10.7363 4.33191 11.6191 4.64604 11.7819 4.98157 11.9341 5.33158 11.9643 7.6587 12.1653 9.99609 12.2089 12.3293 12.3096 12.6622 12.3239 12.9957 12.3096 9.99672 11.9643Z" stroke="#000000" stroke-miterlimit="8" fill="#595959" fill-rule="evenodd" transform="matrix(1.00033 0 -0 1 37.5 49.5)"/><path d="M17.4732 4.99999 17.4732 4.99999C15.2331 5.11107 12.9769 5.04556 10.7528 5.33333 9.79645 5.45711 8.52115 7.64136 8.4006 7.99999L5.04036 18 3.69626 22 3.36024 23C3.24827 23.3333 3.09364 23.6554 3.02422 24 2.91224 24.5556 2.83848 25.1201 2.68819 25.6666 2.50182 26.3446 2.01614 27.6666 2.01614 27.6666 1.90417 29.5556 1.92682 31.4571 1.68012 33.3333 1.58847 34.0303 0.885833 35.4848 0.672048 36.3333 0.197487 38.2162 0.426618 37.2174 0 39.3333 0.111973 44.8889 0.124779 50.4472 0.336024 55.9999 0.349359 56.351 0.450748 56.7256 0.672048 56.9999 1.25297 57.7202 3.0802 58.1296 3.69626 58.3333L4.70434 58.6666 5.71241 58.9999 24.5298 58.6666C25.6549 58.6328 26.7644 58.3503 27.89 58.3333L68.5489 57.9999C71.2638 57.5511 69.9187 57.8803 72.5812 56.9999 72.9172 56.8889 73.2945 56.8615 73.5893 56.6666L75.6054 55.3333 76.9495 53.3333C77.1736 52.9999 77.4938 52.7133 77.6216 52.3333L77.9576 51.3333C78.3814 47.9693 78.0081 49.5165 78.9656 46.6666L79.6377 44.6666 79.9737 43.6666C79.8617 39.2222 79.8205 34.7754 79.6377 30.3333 79.5963 29.3279 79.367 28.3374 79.3017 27.3333 79.1428 24.8914 79.0988 22.4433 78.9656 20 78.8174 17.279 78.8833 15.6732 78.2936 13.3333 78.2077 12.9924 78.0548 12.6712 77.9576 12.3333 77.8307 11.8928 77.7543 11.4388 77.6216 11 77.2862 9.8908 76.6674 7.70235 75.6054 6.99999L74.5973 6.33333C74.4854 5.99999 74.5118 5.58183 74.2613 5.33333 74.0108 5.08482 73.5629 5.1706 73.2532 4.99999 72.5472 4.61091 72.0033 3.91999 71.2371 3.66666 70.9011 3.55559 70.5458 3.49049 70.229 3.33333 69.8678 3.15412 69.5822 2.84588 69.2209 2.66666 68.9042 2.5095 68.5296 2.4905 68.2129 2.33333 67.8517 2.15412 67.576 1.82446 67.2048 1.66666 66.423 1.33428 64.5116 1.16546 63.8446 0.999999 58.9245-0.220157 64.9362 0.773752 59.4762 0 58.2441 0.111076 57.0076 0.181102 55.78 0.333333 49.7645 1.07926 57.115 0.27433 53.0918 0.999999 52.2033 1.16021 51.305 1.27916 50.4036 1.33333 47.6063 1.50152 44.8032 1.55559 42.003 1.66666 41.667 1.77774 41.3423 1.93113 40.9949 2 32.4788 3.68955 21.3936 4.50005 17.4732 4.99999Z" stroke="#000000" stroke-miterlimit="8" fill="#A6A6A6" fill-rule="evenodd" transform="matrix(1.00033 0 -0 1 80.5 142.5)"/><path d="M17.2207 66 17.2207 66C24.3115 65.8872 31.4082 65.9704 38.4932 65.6616 39.2044 65.6305 39.8439 65.2103 40.5192 64.9846L42.5451 64.3077C42.8828 64.1949 43.2026 63.9862 43.5581 63.9692L50.649 63.6308C51.0992 63.518 51.5551 63.426 51.9996 63.2923 53.0224 62.9848 54.0256 62.6154 55.0386 62.2769L56.0515 61.9385 57.0645 61.6C58.9999 58.6901 56.4229 62.1146 58.7528 60.2462 59.0697 59.992 59.1112 59.4849 59.4281 59.2308 59.706 59.0079 60.1228 59.0519 60.4411 58.8923 60.8041 58.7104 61.1164 58.4411 61.4541 58.2154 62.3028 55.6632 61.0592 58.7101 62.8047 56.5231 63.0271 56.2445 62.9696 55.8196 63.1424 55.5077 63.5365 54.7966 64.0428 54.1539 64.493 53.4769 64.7182 53.1385 65.04 52.8475 65.1684 52.4616 65.2809 52.1231 65.3332 51.7581 65.506 51.4462 65.9001 50.735 66.6 50.1872 66.8567 49.4154 67.7053 46.8632 66.5605 50.0091 67.8696 47.3846 68.0288 47.0656 68.0481 46.6883 68.2073 46.3692 68.3888 46.0054 68.7178 45.7256 68.8826 45.3539 69.7104 43.4867 69.4417 43.4508 69.8956 41.6308 69.9819 41.2846 70.1395 40.9596 70.2332 40.6154 70.4774 39.7178 70.9086 37.9077 70.9086 37.9077 70.7798 33.6477 71.4444 29.4311 70.2332 25.3846 70.0287 24.7012 69.7831 24.0308 69.5579 23.3539 69.4454 23.0154 69.4176 22.6354 69.2203 22.3385L67.8696 20.3077 66.519 18.2769C66.2938 17.9385 66.1813 17.4872 65.8437 17.2615L64.8307 16.5846C63.0299 13.8769 65.3935 17.1488 63.1424 14.8923 61.6151 13.3614 63.4261 14.1974 61.4541 13.5385 59.5187 10.6285 62.0957 14.053 59.7658 12.1846 59.4489 11.9305 59.3959 11.4371 59.0905 11.1692 58.4797 10.6335 57.6384 10.3906 57.0645 9.81539 55.4777 8.22478 56.4489 9.06555 54.0256 7.44616L53.0126 6.76923C52.1019 6.16075 52.0351 5.98741 50.9866 5.75385 50.3183 5.60492 49.6415 5.48724 48.9607 5.41539 47.5012 5.26135 46.0343 5.18971 44.5711 5.07692 43.5584 4.90775 41.411 4.65745 40.5192 4.06154 39.4093 3.31991 39.7165 3.39645 38.4932 3.04615 36.1934 2.38757 36.1046 2.62763 32.753 2.36923 31.7197 2.1103 31.1667 2.133 30.3894 1.35385 28.8621-0.177066 30.6731 0.658908 28.7011 0 27.6881 0.112785 26.6779 0.253606 25.6621 0.338462 23.976 0.479283 22.28 0.499324 20.5972 0.676923 20.1357 0.72564 19.6912 0.881706 19.2466 1.01538 18.5648 1.22038 17.2207 1.69231 17.2207 1.69231 16.883 2.03077 16.605 2.44215 16.2077 2.70769 15.9115 2.90555 15.513 2.88657 15.1947 3.04615 14.8317 3.22812 14.5447 3.54111 14.1817 3.72308 13.8634 3.88266 13.4799 3.88831 13.1687 4.06154 12.4593 4.45661 11.1428 5.41539 11.1428 5.41539 9.34196 8.12308 11.7056 4.85125 9.45448 7.10769 7.20337 9.36414 10.4675 6.99491 7.76618 8.8 6.91751 11.3522 8.06236 8.20634 6.7532 10.8308 6.59399 11.1498 6.57474 11.5271 6.41554 11.8462 6.234 12.21 5.90506 12.4898 5.74022 12.8615 5.45116 13.5136 5.45977 14.2986 5.0649 14.8923 4.83976 15.2308 4.57112 15.5439 4.38958 15.9077 4.23037 16.2268 4.13827 16.5769 4.05192 16.9231 3.01682 21.0732 4.60674 15.5687 3.3766 21.3231 2.93514 23.3882 2.53686 23.6011 1.35064 25.3846L1.35064 25.3846 0.67532 27.4154 0.33766 28.4308C0.225142 30.8 0 33.1666 0 35.5385 0 40.3911 0.127407 45.2443 0.33766 50.0923 0.378073 51.024 0.963102 51.3462 1.35064 52.1231 1.50984 52.4422 1.51548 52.8266 1.6883 53.1385 2.08243 53.8496 2.78232 54.3974 3.03894 55.1692 3.15146 55.5077 3.20378 55.8727 3.3766 56.1846 3.77073 56.8958 4.47062 57.4436 4.72724 58.2154 5.00183 59.0412 5.08564 59.59 5.74022 60.2462 6.02715 60.5338 6.41554 60.6974 6.7532 60.9231 6.97834 61.2616 7.08437 61.7229 7.42852 61.9385 8.03216 62.3167 8.86222 62.2196 9.45448 62.6154L11.4804 63.9692C11.8181 64.1949 12.1084 64.5175 12.4934 64.6462 12.8311 64.759 13.1952 64.8114 13.5064 64.9846 14.2159 65.3797 16.6016 65.8307 17.2207 66Z" stroke="#000000" stroke-miterlimit="8" fill="#D9D9D9" fill-rule="evenodd" transform="matrix(1.00033 0 -0 1 78.5 81.5)"/><path d="M22.7902 0 22.7902 0C22.5319 0.0974986 19.9953 1.09245 19.1035 1.34884 16.1577 2.19563 19.1683 1.2147 16.7575 2.02326 15.6953 3.62635 16.2146 2.65041 15.4169 5.05814 15.3052 5.39535 15.2777 5.77398 15.0817 6.06977 14.8583 6.40698 14.5751 6.71105 14.4114 7.0814 14.1245 7.73107 14.1331 8.51318 13.7411 9.10465 12.6789 10.7077 13.1983 9.73181 12.4005 12.1395L12.0654 13.1512C11.9537 13.4884 11.816 13.8179 11.7302 14.1628 11.2238 16.2013 11.5408 15.0719 10.7248 17.5349 10.6131 17.8721 10.5856 18.2507 10.3896 18.5465 10.1662 18.8837 9.88296 19.1878 9.71935 19.5581 9.43244 20.2078 9.27252 20.907 9.04905 21.5814L8.7139 22.593 7.3733 26.6395C6.15103 30.329 8.10039 24.7406 6.36785 28.6628 5.63865 30.3136 5.8124 30.5259 5.3624 32.0349 5.15941 32.7158 4.91557 33.3837 4.6921 34.0581L4.0218 36.0814C3.91012 36.4186 3.77236 36.7482 3.68665 37.093L3.3515 38.4419C3.23982 40.1279 3.25386 41.8272 3.01635 43.5 2.91638 44.2037 2.56952 44.8488 2.34605 45.5233L2.0109 46.5349C1.89922 46.8721 1.76146 47.2017 1.67575 47.5465 0.915619 50.6058 1.80601 46.8256 1.00545 51.2558 0.743558 52.7053 0.694051 52.3523 0.33515 53.6163 0.208585 54.0619 0.111681 54.5155 0 54.9651 0.111681 60.2481 0.12931 65.5338 0.33515 70.8139 0.3532 71.277 0.579941 71.7083 0.6703 72.1628 0.803621 72.8333 0.893768 73.5116 1.00545 74.186 1.11713 75.8721 1.15513 77.5647 1.3406 79.2442 1.37966 79.5974 1.50422 79.9451 1.67575 80.2558 2.06695 80.9643 2.34605 81.8295 3.01635 82.2791L5.02725 83.6279C5.3624 83.8527 5.65057 84.1741 6.0327 84.3023 6.36785 84.4147 6.72221 84.4805 7.03815 84.6395 7.39842 84.8208 7.67551 85.1493 8.0436 85.3139 8.6893 85.6026 9.46664 85.594 10.0545 85.9884 11.6478 87.0571 10.6778 86.5346 13.0708 87.3372 13.406 87.4496 13.7823 87.4773 14.0763 87.6744 14.7466 88.124 15.3229 88.767 16.0872 89.0232L18.0981 89.6977C18.895 89.9649 19.6025 90.2309 20.4441 90.3721 24.6666 91.0802 29.5232 90.9169 33.515 91.0465 40.2077 92.73 35.2753 91.746 48.5967 91.3837 49.267 91.1589 50.2157 91.3008 50.6076 90.7093L51.9482 88.686C52.1717 88.3488 52.4911 88.0589 52.6185 87.6744 52.842 87 52.8969 86.2426 53.2888 85.6512 55.2098 82.752 52.9067 86.4201 54.2943 83.6279 54.4745 83.2654 54.801 82.9866 54.9646 82.6163 55.2515 81.9666 55.2429 81.1845 55.6349 80.593 57.5558 77.6939 55.2528 81.362 56.6403 78.5698 56.8205 78.2073 57.147 77.9285 57.3106 77.5581 57.5975 76.9085 57.9809 75.5349 57.9809 75.5349 57.8692 69.5775 57.8498 63.6176 57.6458 57.6628 57.6057 56.4932 57.2648 55.984 56.9755 54.9651 56.8489 54.5195 56.752 54.0659 56.6403 53.6163 56.5286 52.6046 56.4715 51.5854 56.3052 50.5814 56.2471 50.2308 56.067 49.9115 55.97 49.5698 55.8435 49.1241 55.7252 48.6754 55.6349 48.2209 55.5016 47.5504 55.4645 46.8609 55.2997 46.1977 55.1284 45.508 54.8008 44.8641 54.6294 44.1744 54.5177 43.7248 54.4267 43.2695 54.2943 42.8256 54.0913 42.1447 53.8475 41.4767 53.624 40.8023L53.2888 39.7907C53.0163 38.9679 52.9331 38.4212 52.2834 37.7674 51.9986 37.4809 51.6131 37.3179 51.2779 37.093 50.5467 34.8858 51.5623 37.0521 49.9373 35.7442 49.6228 35.491 49.6086 34.9473 49.267 34.7326 48.6679 34.3557 47.2561 34.0581 47.2561 34.0581 47.0327 34.3953 46.766 34.7073 46.5858 35.0698 46.4278 35.3876 46.604 36.0814 46.2507 36.0814 45.8974 36.0814 46.0125 35.4115 45.9155 35.0698 45.789 34.6241 45.6921 34.1705 45.5804 33.7209 45.4687 29.3372 45.5229 24.9461 45.2452 20.5698 45.0753 17.8908 44.6415 18.612 44.2398 16.8605 44.1204 16.3397 43.5022 12.3752 42.8992 11.4651 42.6757 11.1279 42.4868 10.7648 42.2289 10.4535 41.2444 9.26492 40.6138 9.03296 39.2125 8.09302L38.2071 7.4186C37.8719 7.19376 37.5838 6.87238 37.2016 6.74419 36.5313 6.51934 35.7786 6.46412 35.1907 6.06977 34.8556 5.84493 34.5534 5.55997 34.1853 5.39535 33.5396 5.10668 32.7622 5.11528 32.1744 4.72093 31.8392 4.49609 31.537 4.21113 31.1689 4.04651L28.1526 3.03488C27.5978 2.84881 26.3325 2.39573 25.8065 2.36047 24.5804 2.27826 23.2929 0.393393 22.7902 0Z" stroke="#000000" stroke-miterlimit="8" fill="#595959" fill-rule="evenodd" transform="matrix(1.00033 0 -0 1 159.5 111.5)"/><path d="M46.9981 4.61702 46.9981 4.61702C48.236 7.90626 47.693 6.36432 48.653 9.23403L48.9839 10.2234C48.8737 14.4007 48.9383 18.5863 48.653 22.7553 48.5182 24.7256 48.0058 24.3747 47.3291 25.7234 47.173 26.0343 47.1542 26.4019 46.9981 26.7127 46.8202 27.0672 46.5141 27.3476 46.3362 27.7021 46.1801 28.013 46.1746 28.3875 46.0052 28.6915 45.6189 29.3844 45.1226 30.0106 44.6813 30.6702 44.4606 31 44.3503 31.4396 44.0194 31.6595L43.0264 32.3191C42.8058 32.6489 42.6457 33.0282 42.3645 33.3085 42.0832 33.5887 41.6201 33.6585 41.3716 33.968 39.5445 36.2436 42.8932 33.7268 40.0477 35.617 38.2825 38.2553 40.5993 35.0673 38.3928 37.2659 38.1116 37.5462 38.0415 38.0076 37.7309 38.2553 37.4585 38.4725 37.05 38.4296 36.738 38.5851 36.3822 38.7624 36.076 39.0247 35.745 39.2446 35.5244 39.5744 35.3937 39.9864 35.0831 40.234 34.8107 40.4512 34.4022 40.4083 34.0902 40.5638 33.7344 40.7411 33.4282 41.0035 33.0973 41.2234 31.2002 44.0587 33.7262 40.722 31.4424 42.5425 29.3037 44.2473 32.2832 43.0328 29.7875 43.8617 29.6772 44.1914 29.7033 44.6052 29.4566 44.851 29.2098 45.0969 28.8101 45.1402 28.4636 45.1808 26.9257 45.3611 25.3746 45.4007 23.83 45.5106 20.7287 46.2832 22.2954 46.0312 16.5486 45.5106 16.0956 45.4696 15.6718 45.2643 15.2247 45.1808 13.9055 44.9343 12.5263 44.9441 11.2531 44.5212 9.87508 44.0636 10.3626 44.18 8.60529 43.8617 7.58162 43.6762 5.54001 43.4744 4.63362 42.8723L2.64778 41.5531C0.750761 38.7178 3.02514 42.3052 1.65486 39.5744 1.47692 39.2199 1.1545 38.9473 0.992918 38.5851 0.709584 37.9497 0.551656 37.2659 0.330973 36.6063L0 35.617C0.152612 34.5527 0.332119 32.3175 0.992918 31.3298L2.97875 28.3617C3.19944 28.0319 3.51488 27.7483 3.6407 27.3723 3.75099 27.0425 3.81562 26.6938 3.97167 26.3829 4.14961 26.0284 4.47204 25.7558 4.63362 25.3936 4.91695 24.7582 5.07488 24.0744 5.29556 23.4149L5.62653 22.4255 7.61237 16.4893 8.27432 14.5106C8.3846 14.1808 8.41181 13.8105 8.60529 13.5213 8.82597 13.1915 9.08929 12.8864 9.26723 12.5319 9.42329 12.221 9.44215 11.8534 9.59821 11.5425 9.77615 11.188 10.0822 10.9077 10.2602 10.5532 10.4162 10.2423 10.3732 9.83523 10.5911 9.56382 10.8396 9.25429 11.2531 9.12414 11.584 8.90425 11.8202 8.19855 11.9731 7.45204 12.577 6.92552 13.1756 6.40347 13.9008 6.04606 14.5628 5.60638 14.8938 5.38648 15.1784 5.07217 15.5557 4.9468 15.8867 4.83691 16.2436 4.7858 16.5486 4.61702L19.5274 2.63829C19.8584 2.4184 20.1429 2.10409 20.5203 1.97872 20.8513 1.86883 21.2012 1.80443 21.5132 1.64893 23.3208 0.748382 21.6689 1.1569 23.4991 0.659574 24.3768 0.421088 26.1468 0 26.1468 0 30.7805 0.109894 35.4218 0.0416518 40.0477 0.329787 40.744 0.373204 41.3566 0.82078 42.0335 0.989361 45.1094 1.75561 46.1707 4.01239 46.9981 4.61702Z" stroke="#000000" stroke-miterlimit="8" fill="#D9D9D9" fill-rule="evenodd" transform="matrix(1.00033 0 -0 1 215.5 154.5)"/><path d="M35.5489 9.53945 35.5489 9.53945C35.11 8.66223 34.8348 7.68202 34.2323 6.90788 34.0192 6.63416 33.5551 6.73403 33.2448 6.57893 32.891 6.40208 32.5865 6.14037 32.2573 5.92104 32.0378 5.26315 32.2573 4.16669 31.599 3.94736L29.6241 3.28947C29.2949 3.17985 28.9253 3.15281 28.6366 2.96052 25.8067 1.07511 29.3872 3.33557 26.6617 1.97368 26.3078 1.79683 26.0357 1.47637 25.6742 1.31579 23.6978 0.437939 21.5346 0.26409 19.4202 0 15.9554 0.247306 15.8376-0.0108786 13.4954 0.657893 13.1618 0.753107 12.8113 0.818482 12.5079 0.98684 11.8163 1.3708 10.533 2.30263 10.533 2.30263 10.3135 2.63157 10.1544 3.00994 9.87469 3.28947 9.59499 3.56899 9.13437 3.63862 8.88722 3.94736 7.61051 5.54226 9.72509 4.54547 7.5706 5.26315 7.01201 6.93782 7.69034 5.78148 6.25397 6.57893 5.56238 6.96289 4.27903 7.89472 4.27903 7.89472 2.39242 10.7228 4.90448 7.39462 2.63325 9.21051 2.32431 9.4575 2.25464 9.91782 1.97494 10.1973 1.69523 10.4769 1.31663 10.6359 0.987469 10.8552 0.654581 11.3542 0 12.1479 0 12.8289 0 14.9037 0.375186 15.5984 0.987469 17.4342 1.09715 17.7631 1.12421 18.1325 1.31663 18.421 1.5361 18.75 1.79797 19.0542 1.97494 19.4079 2.13013 19.7179 2.08732 20.124 2.30409 20.3947 2.55125 20.7034 2.96241 20.8333 3.29156 21.0526 3.51104 21.3815 3.6144 21.8299 3.94988 22.0394 4.53831 22.407 5.2665 22.478 5.92481 22.6973L7.89975 23.3552C8.22891 23.4648 8.542 23.6497 8.88722 23.6842L12.1788 24.0131C12.5079 24.1227 12.826 24.2741 13.1663 24.3421 15.2933 24.7671 18.0741 24.8569 20.0785 24.9999 23.9187 24.8903 27.7626 24.8728 31.599 24.671 33.0055 24.597 32.3869 24.3064 32.9156 23.3552 33.2998 22.6641 33.7934 22.0394 34.2323 21.3815 34.4517 21.0526 34.7654 20.7697 34.8906 20.3947L35.5489 18.421C36.5373 15.4578 35.5489 11.0197 35.5489 9.53945Z" stroke="#000000" stroke-miterlimit="8" fill="#A6A6A6" fill-rule="evenodd" transform="matrix(1.00033 0 -0 1 225.5 128.5)"/></g></svg>