<svg width="301" height="250" xmlns="http://www.w3.org/2000/svg" xmlns:xlink="http://www.w3.org/1999/xlink" overflow="hidden"><defs><clipPath id="clip0"><path d="M0 0 301 0 301 250 0 250Z" fill-rule="evenodd" clip-rule="evenodd"/></clipPath></defs><g clip-path="url(#clip0)"><rect x="0" y="0" width="300.901" height="250" fill="#D3D3C3" transform="scale(1.00033 1)"/><path d="M63.274 4.69512 63.274 4.69512C62.2749 4.58336 61.2683 4.52622 60.2768 4.35975 59.9306 4.30166 59.6146 4.1241 59.2778 4.02439 57.7272 3.56512 56.2003 3.00213 54.6155 2.68292 54.0604 2.57117 53.4964 2.49755 52.9504 2.34756 52.273 2.16155 51.5364 2.06902 50.9522 1.67683 49.9852 1.02754 49.252 0.407931 47.955 0.335366L41.9607 0C38.9635 0.111753 35.956 0.0618974 32.9691 0.335366 32.2699 0.399375 31.637 0.782484 30.971 1.0061L29.9719 1.34146C28.3068 1.22971 26.6362 1.18207 24.9766 1.0061 24.3654 0.941347 23.2646 0.543239 22.6454 0.335366 22.3319 0.414269 20.7052 0.787449 20.3143 1.0061 19.6146 1.39755 19.0756 2.09268 18.3162 2.34756L16.318 3.01829C15.985 3.13004 15.6595 3.26789 15.319 3.35366 14.4309 3.57727 13.5232 3.73286 12.6548 4.02439 10.0161 4.91017 11.3491 4.57893 8.65855 5.03048 8.32553 5.2541 7.94247 5.41623 7.65948 5.70121 6.7051 6.66231 7.20217 6.62239 6.66042 7.71341 6.48138 8.07391 6.15696 8.35118 5.99438 8.7195 5.70929 9.36562 5.55039 10.061 5.32834 10.7317L4.99532 11.7378 4.6623 12.7439C4.55132 13.0793 4.41444 13.407 4.32927 13.75 3.82602 15.7774 4.141 14.6542 3.33021 17.1036L2.66417 19.1158C2.5532 19.4512 2.39995 19.7753 2.33115 20.1219 1.86041 22.4921 2.17717 21.2579 1.33208 23.811 1.22111 24.1463 1.19374 24.5229 0.999063 24.817 0.138348 26.1173 0.459622 25.4408 0 26.8292 0.0850646 27.7718 0.025383 30.234 0.666042 31.5244 0.845087 31.8849 1.16951 32.1621 1.33208 32.5305 1.61717 33.1766 1.77608 33.8719 1.99813 34.5427 2.1091 34.878 2.13647 35.2546 2.33115 35.5487 2.5532 35.8841 2.74095 36.2453 2.99719 36.5548 3.29874 36.9192 3.66323 37.2256 3.99625 37.5609 4.83326 40.0898 3.6068 37.0707 5.32834 39.2378 5.54766 39.5138 5.49091 39.9348 5.66136 40.2439 6.05008 40.9485 6.54945 41.5853 6.99344 42.2561L7.65948 43.2622 8.32553 44.2682C8.54758 44.6036 8.65855 45.0507 8.99157 45.2743L9.99063 45.9451C10.625 47.8615 9.80037 46.2645 11.3227 47.2865 11.7146 47.5497 11.9299 48.0295 12.3218 48.2926 12.6139 48.4887 13.0069 48.4699 13.3208 48.628 13.6788 48.8083 13.9619 49.1184 14.3199 49.2987 14.6338 49.4569 15.005 49.476 15.319 49.6341 15.677 49.8144 15.9502 50.1461 16.318 50.3048 16.7669 50.4985 18.9728 50.896 19.3152 50.9756 20.2072 51.1828 21.111 51.3548 21.9794 51.6463 22.3124 51.758 22.6358 51.905 22.9785 51.9817 24.2131 52.258 26.4886 52.5074 27.6408 52.6524 27.9738 52.7641 28.3011 52.8947 28.6398 52.9878 29.523 53.2303 30.4356 53.367 31.304 53.6585 31.637 53.7702 31.9655 53.8968 32.303 53.9939 33.7244 54.4028 33.7551 54.3188 35.3002 54.6646 35.7471 54.7646 36.1883 54.8882 36.6323 54.9999L52.6173 54.6646C53.5959 54.6288 55.2399 54.3083 56.2806 53.9939 56.953 53.7907 57.6946 53.7153 58.2787 53.3231L60.2768 51.9817C60.6098 51.758 60.8962 51.4384 61.2759 51.3109L62.2749 50.9756C62.608 50.6402 62.8623 50.1998 63.274 49.9695 63.8877 49.6261 64.6061 49.5223 65.2721 49.2987L67.2703 48.628C67.6033 48.5163 67.9772 48.4887 68.2693 48.2926 71.1325 46.3704 67.5099 48.675 70.2674 47.2865 70.6254 47.1062 70.9085 46.7961 71.2665 46.6158 71.5804 46.4577 71.9516 46.4386 72.2656 46.2804 74.8478 44.9802 71.7526 46.1172 74.2637 45.2743 74.4857 44.939 74.7672 44.6366 74.9297 44.2682 75.2148 43.6221 75.3737 42.9268 75.5958 42.2561L75.9288 41.25 76.2618 40.2439 76.5948 39.2378C76.7058 35.7724 76.9279 32.3086 76.9279 28.8414 76.9279 21.5199 77.3032 23.2678 75.9288 19.1158 75.658 18.2975 75.5753 17.7538 74.9297 17.1036 74.6468 16.8187 74.2637 16.6565 73.9307 16.4329 72.4039 14.1265 73.358 14.6756 71.5995 14.0854 71.3775 13.75 71.2347 13.3447 70.9335 13.0793L67.9363 11.0671 66.9372 10.3963C66.6042 10.1727 66.3179 9.85309 65.9382 9.7256 65.6052 9.61385 65.246 9.56188 64.9391 9.39023 64.2394 8.99878 63.607 8.49589 62.941 8.04877 62.608 7.82516 62.2999 7.55835 61.9419 7.37804L63.274 4.69512Z" stroke="#000000" stroke-miterlimit="8" fill="#595959" fill-rule="evenodd" transform="matrix(1.00033 0 -0 1 203.5 139.5)"/><path d="M42.6353 26.0776 42.6353 26.0776C41.3376 20.2619 42.2995 26.0149 42.2995 19.391 42.2995 17.2707 42.1336 15.1524 41.9638 13.0388 41.8211 11.2616 41.5218 10.7151 40.9567 9.02686L40.2853 7.02089 39.9496 6.01791C39.8377 5.68358 39.8101 5.30818 39.6139 5.01492 39.39 4.68059 39.1229 4.37133 38.9424 4.01194 38.7841 3.69677 38.8278 3.2841 38.6067 3.00895 38.3547 2.69516 37.9704 2.49856 37.5996 2.3403 36.7793 1.99017 34.5008 1.7702 33.9068 1.67164 33.3439 1.57824 32.7852 1.46062 32.2282 1.33731 31.7778 1.23759 31.3393 1.08522 30.8854 1.00298 30.1068 0.861988 29.3223 0.751106 28.5354 0.668656 22.1475-0.000947702 26.6852 0.695929 22.4926 0 18.011 0.194068 15.7799-0.223342 12.0856 1.00298 11.4142 1.22591 10.6602 1.28066 10.0713 1.67164L9.06419 2.3403C8.61661 3.00895 7.97649 3.58389 7.72134 4.34627 7.60948 4.68059 7.60673 5.0741 7.38563 5.34925 7.13356 5.66305 6.71421 5.79499 6.3785 6.01791 5.26786 9.33613 7.13123 4.26729 5.03566 8.02388 4.69191 8.63999 4.58808 9.36119 4.36424 10.0298 4.04428 10.9858 3.90355 11.3206 3.69282 12.3701 3.55927 13.0349 3.46897 13.7075 3.35711 14.3761 3.24524 16.0478 3.17366 17.7226 3.0214 19.391 2.94971 20.1758 2.77302 20.9481 2.68569 21.7313 2.54918 22.9547 2.46184 24.183 2.34997 25.4089 2.23811 38.3363 2.33337 51.2671 2.01426 64.191 1.99682 64.8956 1.48167 65.5058 1.34284 66.197 1.23097 66.7542 1.14554 67.3174 1.00713 67.8686-0.0251651 71.9808 1.57313 64.3818 0.335711 70.5432 0.223842 73.1065 0 75.6671 0 78.2328 0 83.0262 0.131112 87.82 0.335711 92.6089 0.345756 92.8431 0.841127 94.6186 1.00713 94.9492 1.18762 95.3086 1.49806 95.5928 1.67855 95.9522 1.83684 96.2673 1.85598 96.64 2.01426 96.9552 3.61024 100.134 1.62495 94.7889 3.35711 99.9641 4.48531 103.335 2.76393 98.1064 4.02853 102.304 4.31349 103.25 4.60045 104.546 5.37137 105.313 5.65665 105.597 6.04279 105.759 6.3785 105.982 7.11093 108.17 6.09365 106.023 7.72134 107.319 9.53979 108.768 7.13388 107.988 9.3999 108.991L12.4213 109.994 13.4284 110.328C13.7641 110.44 14.0865 110.605 14.4356 110.663 15.107 110.774 15.7854 110.85 16.4498 110.997 16.7953 111.073 17.1155 111.239 17.457 111.331 18.3472 111.573 20.1426 112 20.1426 112 25.514 111.889 30.8925 111.962 36.2568 111.666 37.773 111.582 39.1228 110.431 40.2853 109.66L41.2924 108.991 42.2995 108.322C43.8386 106.023 43.3872 107.079 43.9781 105.313 44.09 98.8497 44.1011 92.3835 44.3138 85.9223 44.3254 85.5701 44.5728 85.2634 44.6495 84.9193 44.7972 84.2576 44.8734 83.582 44.9852 82.9134 44.8734 78.4557 44.8398 73.9953 44.6495 69.5403 44.6159 68.7529 44.4119 67.9819 44.3138 67.2 44.1881 66.1986 44.0742 65.1956 43.9781 64.191 43.6802 61.0761 43.3373 56.3293 43.3067 53.4925 43.2188 45.3576 42.7471 30.6468 42.6353 26.0776Z" stroke="#000000" stroke-miterlimit="8" fill="#A6A6A6" fill-rule="evenodd" transform="matrix(1.00033 0 -0 1 158.5 82.5)"/><path d="M107.471 2.55156 107.471 2.55156C106.464 2.44077 105.449 2.38411 104.449 2.21907 104.099 2.16147 103.793 1.92145 103.441 1.88658 101.544 1.69881 99.6329 1.69347 97.7316 1.55408 96.6096 1.47177 95.4905 1.35176 94.3732 1.22159 93.587 1.13006 92.8126 0.932554 92.0222 0.889094 88.7787 0.710752 85.5292 0.667397 82.2826 0.5566 75.0681 0.976747 71.9389 1.22159 63.4752 1.22159 56.6454 1.22159 49.8173 0.999891 42.9885 0.889094 42.6526 0.778298 42.3213 0.65284 41.9809 0.5566 37.9875-0.573042 37.5705 0.328829 30.898 0.5566L24.8527 2.55156 22.8376 3.21655C22.5018 3.32735 22.1247 3.35468 21.8301 3.54905L20.8225 4.21404C19.2552 6.54149 20.1509 5.76571 18.4716 6.87399 18.1985 7.68527 18.1151 8.22439 17.4641 8.86895 17.1787 9.15149 16.7924 9.31224 16.4565 9.53394 14.8892 11.8614 15.7848 11.0856 14.1056 12.1939 12.5383 14.5214 13.4339 13.7456 11.7547 14.8538 10.859 17.5138 12.2024 14.4106 10.4113 16.1838 7.71667 18.8515 10.3402 17.759 8.06034 18.5113 7.16471 21.1712 8.5081 18.068 6.71695 19.8413 6.46657 20.0891 6.53945 20.5253 6.3811 20.8387 5.82132 21.947 5.70941 21.8362 4.70187 22.5012 3.26084 26.781 4.64369 22.3989 3.69432 26.1586 3.60843 26.4987 3.45569 26.8191 3.35848 27.1561 3.01988 28.3293 2.85888 29.2315 2.68678 30.4811 2.44285 32.2518 2.4529 34.0672 2.01508 35.801 1.90317 36.2443 1.76185 36.6814 1.67924 37.131 1.5376 37.902 1.52142 38.6948 1.34339 39.4584 1.18419 40.1414 0.843374 40.7733 0.671695 41.4534 0.197383 43.3316 0.426394 42.3352 0 44.4458 0.111914 47.1058 0.0995378 49.7737 0.335848 52.4257 0.436232 53.5516 0.64652 54.6784 1.00754 55.7506 1.27368 56.5412 1.53866 57.2431 1.67924 58.0781 1.82765 58.9594 1.93332 59.8481 2.01508 60.738 2.15736 62.2872 2.1178 63.8546 2.35093 65.393 2.45597 66.0861 2.43355 66.9991 3.02263 67.3879L4.03017 68.0529C4.68399 69.9948 3.85447 68.2115 5.37356 69.7154 5.65895 69.9979 5.78684 70.4059 6.04526 70.7129 6.34937 71.074 6.76117 71.3392 7.0528 71.7103 7.54837 72.3412 7.72449 73.262 8.39619 73.7053 10.8977 75.3564 7.82541 73.2344 10.4113 75.3678 11.855 76.5589 10.9117 75.6154 12.4264 76.3653 15.0305 77.6544 11.909 76.527 14.4414 77.3627 15.0812 79.2627 14.2496 77.6794 15.7848 78.6927 16.18 78.9536 16.4175 79.4015 16.7924 79.6902 17.4296 80.1808 18.1358 80.5769 18.8075 81.0202L19.815 81.6852C20.1509 81.9069 20.5372 82.0676 20.8225 82.3501 21.1584 82.6826 21.4149 83.1192 21.8301 83.3476 22.449 83.6881 23.2561 83.6238 23.8452 84.0126 24.5169 84.4559 25.0944 85.0899 25.8603 85.3426L28.8829 86.3401C29.6814 86.6036 30.3904 86.8659 31.2338 87.0051 32.1241 87.152 33.025 87.2268 33.9206 87.3376 35.8814 87.9846 33.9879 87.4174 36.9432 88.0025 40.0842 88.6245 36.7334 88.0338 39.2942 88.6675 39.8479 88.8046 40.4136 88.8892 40.9734 89L69.5204 88.6675C70.3119 88.6505 71.0817 88.3909 71.8714 88.335 74.219 88.1691 76.5732 88.1133 78.9242 88.0025 79.4839 87.8918 80.0497 87.8071 80.6034 87.6701 80.9469 87.585 81.2582 87.3667 81.6109 87.3376 83.9564 87.144 86.3128 87.1159 88.6637 87.0051 90.9669 86.245 88.1083 87.1426 91.3505 86.3401 91.694 86.255 92.0052 86.0355 92.3581 86.0076 94.8156 85.8129 97.2839 85.7859 99.7467 85.6751 100.53 85.5643 101.321 85.4963 102.098 85.3426 102.445 85.2739 102.755 85.0596 103.105 85.0101 105.363 84.6908 108.656 84.7299 110.83 84.0126 114.018 82.9605 112.14 83.4111 116.539 83.0151 117.359 82.7447 117.903 82.6622 118.554 82.0177 120.073 80.5137 118.272 81.335 120.233 80.6877L121.577 78.6927C121.801 78.3602 122.121 78.0743 122.248 77.6952 122.36 77.3627 122.426 77.0112 122.584 76.6977 122.765 76.3403 123.092 76.0654 123.256 75.7003 124.079 73.8661 123.812 73.8308 124.264 72.0428 124.349 71.7028 124.506 71.3835 124.599 71.0453 124.842 70.1636 124.979 69.2524 125.271 68.3854L126.615 64.3955 126.95 63.398 127.286 62.4005C127.398 60.5163 127.441 58.627 127.622 56.7481 127.666 56.2932 127.958 55.8751 127.958 55.4181 127.958 53.222 127.782 40.7063 127.286 35.801 127.181 34.7644 126.853 34.4187 126.615 33.4735 126.476 32.9253 126.391 32.3652 126.279 31.811 126.197 29.7147 126.46 24.6 125.607 21.5037 125.421 20.8274 125.328 20.092 124.935 19.5088 124.711 19.1763 124.444 18.8687 124.264 18.5113 124.105 18.1978 124.1 17.8202 123.928 17.5138 122.775 15.4602 123.049 15.8253 121.577 14.8538 120.923 12.912 121.753 14.6953 120.233 13.1914 117.994 10.9747 121.241 13.3022 118.554 11.5289 116.651 8.70276 119.786 13.0806 115.867 9.20145 114.289 7.63888 115.255 8.46483 112.845 6.87399 112.509 6.65229 112.22 6.3354 111.837 6.209 109.305 5.37331 112.426 6.50065 109.822 5.21152 109.506 5.05475 107.863 2.99486 107.471 2.55156Z" stroke="#000000" stroke-miterlimit="8" fill="#A6A6A6" fill-rule="evenodd" transform="matrix(1.00033 0 -0 1 29.5 106.5)"/><path d="M121.616 12.2202 121.616 12.2202C120.72 11.8899 119.784 11.65 118.928 11.2294 118.206 10.8743 117.678 10.1593 116.912 9.90826 114.379 9.07815 117.502 10.198 114.897 8.91744 114.58 8.76171 114.198 8.7562 113.889 8.58716 113.183 8.20165 112.545 7.70639 111.873 7.26606 111.537 7.04584 111.248 6.73106 110.865 6.60551L107.842 5.61468C107.506 5.50462 107.128 5.47747 106.834 5.28441 106.498 5.06419 106.187 4.80142 105.826 4.62386 105.509 4.46813 105.128 4.46262 104.818 4.29358L101.794 2.31193C101.458 2.09171 101.17 1.77693 100.787 1.65138L98.7708 0.990826C98.4348 0.880769 98.1143 0.703721 97.7629 0.660551 93.9585 0.193068 95.9736 0.418592 91.7157 0 84.3689 0.200662 82.5262-0.200766 77.2697 0.660551 75.3702 0.97179 75.5426 1.00633 73.5742 1.65138L72.5663 1.98165 71.5584 2.31193 42.3303 1.98165C38.8575 1.92382 35.3841 1.83571 31.9157 1.65138 31.3267 1.62007 28.8999 1.1245 28.2202 0.990826 25.6445 1.10088 23.0638 1.12668 20.4933 1.3211 20.1402 1.34784 19.795 1.48234 19.4854 1.65138 18.7795 2.03689 18.1416 2.53215 17.4697 2.97248L16.4618 3.63303C16.1258 3.85325 15.837 4.16802 15.4539 4.29358 15.118 4.40364 14.7557 4.45482 14.4461 4.62386 13.7402 5.00937 13.1964 5.69395 12.4303 5.94496 11.7584 6.16518 11.0039 6.21927 10.4146 6.60551 9.7427 7.04584 9.16496 7.6756 8.39888 7.92661 7.00797 8.38244 7.6857 8.06382 6.38315 8.91744 6.15914 9.24771 5.99672 9.62761 5.71124 9.90826 5.42575 10.1889 4.96928 10.2701 4.70337 10.5688 4.17156 11.1662 3.80745 11.8899 3.35955 12.5505 3.13555 12.8807 2.81536 13.1647 2.68764 13.5413 2.57569 13.8716 2.51009 14.2208 2.35169 14.5321 2.17106 14.8872 1.8604 15.1679 1.67977 15.5229 1.52137 15.8343 1.50222 16.2024 1.34382 16.5138 1.1632 16.8688 0.83592 17.1419 0.67191 17.5046 0.384311 18.1409 0 19.4862 0 19.4862 0.11195 20.9174 0.108246 22.362 0.335955 23.7798 0.446423 24.4676 0.335955 25.5413 1.00787 25.7615L2.01573 26.0918C2.12768 26.422 2.10123 26.8364 2.35169 27.0826 2.60214 27.3288 3.04285 27.2571 3.35955 27.4129 6.55393 28.983 1.18277 27.0298 6.38315 28.734L8.39888 29.3945C8.73483 29.5046 9.11205 29.5317 9.40674 29.7248 9.7427 29.945 10.0456 30.2241 10.4146 30.3853 11.8516 31.0132 12.406 30.9919 13.7742 31.3762 14.1147 31.4718 14.4291 31.6775 14.782 31.7064 17.1282 31.8987 19.4854 31.9267 21.8371 32.0367 22.285 32.1468 22.7369 32.2423 23.1809 32.367 23.5214 32.4626 23.8471 32.6056 24.1888 32.6973 25.0797 32.9361 25.9709 33.1797 26.8764 33.3578 27.4364 33.4679 28.0022 33.5519 28.5562 33.6881 28.8997 33.7726 29.2235 33.9228 29.564 34.0184 30.008 34.1431 30.4571 34.2501 30.9079 34.3486 31.4653 34.4705 32.0337 34.5428 32.5876 34.6789 34.416 35.1283 32.7987 35.0351 35.2753 35.3395 36.5026 35.4903 37.7407 35.5424 38.9708 35.6697 39.8687 35.7626 40.7625 35.89 41.6584 36 68.8564 34.7268 51.06 35.379 95.0753 35.0092 97.8423 34.1024 96.3899 34.4472 99.4427 34.0184 102.21 33.1116 100.757 33.2593 103.81 33.6881 104.146 33.7982 104.464 34.0184 104.818 34.0184 107.284 34.0184 109.757 33.9464 112.209 33.6881 113.866 33.5135 114.918 32.5734 116.24 31.7064 116.576 31.4862 116.865 31.1714 117.248 31.0459L118.256 30.7156 119.6 28.734C119.824 28.4037 120.144 28.1197 120.272 27.7431 121.401 24.4132 119.678 29.5783 120.944 25.4312 121.147 24.7643 121.392 24.1101 121.616 23.4496L122.624 20.4771 122.96 19.4862C122.605 15.3036 121.84 13.4312 121.616 12.2202Z" stroke="#000000" stroke-miterlimit="8" fill="#595959" fill-rule="evenodd" transform="matrix(1.00033 0 -0 1 28.5 71.5)"/><path d="M41.2009 34.7165 41.2009 34.7165C42.2141 34.6031 43.2407 34.5777 44.2403 34.3762 44.9385 34.2354 45.5912 33.9224 46.2666 33.6954 47.6648 33.2257 46.9835 33.5541 48.2929 32.6744 48.5181 31.9937 49.0853 31.34 48.9683 30.6322 48.8558 29.9515 48.7649 29.2668 48.6306 28.5901 48.3754 27.3041 48.0482 26.4889 47.6175 25.1865 47.5049 24.8461 47.4772 24.464 47.2797 24.1654 47.0546 23.8251 46.7692 23.5182 46.6043 23.1444 46.3152 22.4886 46.1541 21.7829 45.9289 21.1022 45.8164 20.7618 45.7886 20.3797 45.5912 20.0811 44.5208 18.4631 45.0441 19.4481 44.2403 17.0179L42.8895 12.9336C42.2951 11.1364 42.7492 12.2111 41.2009 9.87038 40.9757 9.53003 40.6539 9.23737 40.5255 8.84931 40.3415 8.29294 40.0637 7.15438 39.5124 6.80716 38.9086 6.42682 38.0784 6.52448 37.4861 6.12645 34.5826 4.17563 38.2562 6.51451 35.4598 5.10537 35.0968 4.92238 34.8176 4.59081 34.4467 4.42466 33.796 4.13329 33.0127 4.14197 32.4204 3.74394 31.745 3.29016 31.1642 2.64118 30.3941 2.38251 30.0564 2.26909 29.6993 2.20263 29.381 2.04215 26.1699 0.424081 31.5692 2.43686 26.3416 0.680716L25.3284 0.340358 24.3153 0C20.8256 0.113417 17.3242 0.0310878 13.8462 0.340358 12.7731 0.435766 12.7804 1.49286 12.1576 2.04215 11.5468 2.58093 10.1314 3.40358 10.1314 3.40358 8.19572 6.3298 10.7731 2.88613 8.44281 4.76501 8.12584 5.02058 8.05436 5.49686 7.76739 5.78609 7.48041 6.07531 7.09196 6.23986 6.75425 6.4668 6.52907 6.80716 6.38431 7.21849 6.07882 7.48788 5.46796 8.02666 4.05255 8.84931 4.05255 8.84931 3.82737 9.18967 3.6641 9.58116 3.37712 9.87038 1.99809 11.2602 1.97001 9.70026 1.01314 12.5932L0.337712 14.6354 0 15.6565C0.112535 17.9256 0.0793491 20.2068 0.337712 22.4636 0.419295 23.1764 0.78796 23.8251 1.01314 24.5058L2.02627 27.569 2.36399 28.5901C2.58651 29.2628 2.78201 30.1524 3.37712 30.6322 3.65506 30.8564 4.07903 30.7984 4.39026 30.9726 5.09983 31.3699 5.64645 32.0753 6.41654 32.334 6.75425 32.4474 7.11132 32.5139 7.42967 32.6744 7.7927 32.8574 8.07978 33.1721 8.44281 33.3551 9.01028 33.6411 10.2658 33.8722 10.8068 34.0358 11.4887 34.242 12.1576 34.4896 12.8331 34.7165 21.4286 37.6042 36.4729 34.7165 41.2009 34.7165Z" stroke="#000000" stroke-miterlimit="8" fill="#D9D9D9" fill-rule="evenodd" transform="matrix(1.00033 0 -0 1 48.5 38.5)"/><path d="M16.4453 4.80001 16.4453 4.80001C16.774 3.94664 17.6585 3.12411 17.4314 2.24 17.2398 1.49377 15.4592 0.960001 15.4592 0.960001 11.0423 2.035 16.1031 0.896908 5.26919 1.6 4.9235 1.62248 4.61622 1.82738 4.28306 1.92 1.39383 2.72358 4.34652 1.79271 1.98209 2.56 1.15592 4.97296 2.3665 2.09225 0.667254 4.16001 0.450772 4.42336 0.44808 4.80001 0.338545 5.12001 0.194223 6.52539-0.345171 9.38241 0.338545 10.88 0.479243 11.1882 1.02174 11.0362 1.32467 11.2 2.01532 11.5735 2.63951 12.0534 3.29693 12.48L5.26919 13.76C5.59789 13.9734 5.88053 14.2784 6.25531 14.4 6.58402 14.5067 6.93157 14.5691 7.24144 14.72 8.32489 15.2474 8.0203 15.5013 9.2137 15.68 10.302 15.843 11.4051 15.8934 12.5008 16 15.24 15.8934 17.9841 15.8702 20.7185 15.68 21.0641 15.656 21.3948 15.5109 21.7047 15.36 22.058 15.188 22.3621 14.9334 22.6908 14.72 24.39 12.2387 23.7558 13.5297 24.663 10.88L24.9917 9.92001C24.4575 5.23944 25.0352 8.46807 24.3343 6.08001 24.2102 5.6571 24.2878 5.14339 24.0056 4.80001 23.7891 4.53665 23.3224 4.64379 23.0195 4.48001 22.3288 4.10649 21.0472 3.2 21.0472 3.2 20.8464 2.61332 20.4427 0.873223 19.7324 0.32 19.4619 0.109254 19.075 0.106633 18.7463 0 18.4176 0.106633 18.0052 0.0814363 17.7601 0.32 17.5151 0.558565 17.5864 0.978345 17.4314 1.28 17.3622 1.41496 16.6097 4.21332 16.4453 4.80001Z" stroke="#000000" stroke-miterlimit="8" fill="#D9D9D9" fill-rule="evenodd" transform="matrix(1.00033 0 -0 1 102.5 54.5)"/></g></svg>