<svg width="301" height="250" xmlns="http://www.w3.org/2000/svg" xmlns:xlink="http://www.w3.org/1999/xlink" overflow="hidden"><defs><clipPath id="clip0"><path d="M0 0 301 0 301 250 0 250Z" fill-rule="evenodd" clip-rule="evenodd"/></clipPath></defs><g clip-path="url(#clip0)"><rect x="0" y="0" width="300.901" height="250" fill="#D3D3C3" transform="scale(1.00033 1)"/><path d="M28.0248 0.986565 28.0248 0.986565C27.1867 1.09615 26.351 1.23297 25.5107 1.31542 21.3573 1.72289 18.4714 1.77323 14.0574 1.97313 13.3758 2.24056 12.9228 2.32218 12.3813 2.9597 11.1178 4.44716 12.616 3.63491 10.9846 4.27512 10.7983 4.60397 10.6633 4.98223 10.4259 5.26168 9.28517 6.60455 9.26194 5.0973 8.47044 7.89252 8.37735 8.22138 8.27195 8.54578 8.19109 8.87909 8.0856 9.31369 8.16452 9.85436 7.91174 10.1945 7.46954 10.7893 6.79435 11.0715 6.23566 11.5099L5.39761 12.1676C4.69551 14.6474 5.64265 11.5908 4.55957 14.1408 4.42786 14.4508 4.37331 14.7985 4.28022 15.1273 4.08349 17.2116 4.14842 17.7271 3.72153 19.4024 3.55234 20.0665 3.48952 20.7988 3.16283 21.3756 2.49407 22.5566 2.33042 22.6581 2.04544 24.3353 1.95235 24.8834 1.86912 25.4339 1.76609 25.9795 1.68277 26.4208 1.55546 26.8503 1.48675 27.295 1.36894 28.0576 1.30048 28.8297 1.2074 29.597 1.11431 32.8855 1.09715 36.1783 0.92805 39.4626 0.910278 39.8087 0.729559 40.1159 0.648703 40.4492 0.54321 40.8838 0.462441 41.3261 0.369355 41.7646-0.214328 62.3786-0.0228757 51.3957 0.369355 86.4889 0.536612 101.455-0.177991 96.7504 0.92805 103.26 1.01612 104.816 1.06988 108.204 1.48675 110.166 2.20742 113.56 1.68691 110.967 2.60414 113.126 2.73585 113.436 2.75177 113.803 2.88348 114.113 3.03367 114.466 3.30581 114.738 3.44218 115.099 3.88474 116.272 3.80089 117.166 4.55957 118.059 5.36013 119.001 5.32688 118.511 6.23566 119.046 6.53594 119.222 6.77341 119.526 7.0737 119.703 7.33704 119.858 7.64841 119.877 7.91174 120.032 8.21203 120.209 8.44299 120.529 8.74979 120.69 9.28798 120.971 9.86718 121.128 10.4259 121.348 10.7052 121.457 11.0189 121.484 11.2639 121.676 11.5433 121.896 11.7952 122.174 12.102 122.334 12.6402 122.616 13.2193 122.773 13.778 122.992L14.6161 123.321 15.4541 123.649C16.5715 123.54 17.7003 123.538 18.8063 123.321 19.3872 123.207 20.4824 122.663 20.4824 122.663 22.9034 122.773 25.3226 122.992 27.7454 122.992 30.8197 122.992 33.8944 122.864 36.9639 122.663 37.2579 122.644 37.5386 122.489 37.802 122.334 38.1022 122.157 38.3332 121.837 38.64 121.676 41.6319 120.111 39.2575 121.849 41.1541 120.361 41.819 118.013 41.3861 118.965 42.2715 117.401 42.3646 116.744 42.4883 116.091 42.5509 115.428 42.6747 114.116 42.6459 112.784 42.8302 111.482 42.927 110.798 43.2461 110.181 43.3889 109.509 43.482 109.07 43.5579 108.626 43.6683 108.193 43.8374 107.529 44.1114 106.9 44.2269 106.22 44.4189 105.09 44.5227 104.344 44.7856 103.26 44.8665 102.927 44.9719 102.603 45.065 102.274 45.9194 95.2328 45.5591 99.0952 45.065 84.8446 45.053 84.4982 44.8787 84.1869 44.7856 83.858 44.6508 81.952 44.4688 78.9455 44.2269 76.9521 44.1598 76.3988 44.0407 75.8559 43.9476 75.3078 43.8545 62.3729 43.8128 49.4372 43.6683 36.5029 43.6265 32.7746 43.5511 29.0456 43.3889 25.3218 43.341 24.2232 42.8293 22.6879 42.5509 21.7044 42.1501 20.2891 42.343 21.0542 41.9922 19.4024 41.895 18.259 41.7222 15.5007 41.4335 14.1408 41.2907 13.4681 41.061 12.8253 40.8748 12.1676L40.3161 10.1945C40.223 9.86565 40.2 9.4964 40.0367 9.20794 39.8505 8.87909 39.6144 8.58255 39.478 8.22138 39.2389 7.5878 39.246 6.82506 38.9193 6.24825 37.6157 3.94626 38.3606 4.71355 36.9639 3.61741 36.8708 3.28855 36.9241 2.8323 36.6846 2.63084 36.2053 2.22782 35.4985 2.35771 35.0085 1.97313 33.6805 0.930841 34.4889 1.44044 32.4943 0.65771L31.6563 0.328855 30.8183 0 28.0248 0.986565Z" stroke="#000000" stroke-miterlimit="8" fill="#D9D9D9" fill-rule="evenodd" transform="matrix(-0.0531704 0.998585 -0.998911 -0.0531878 280.473 134.277)"/><path d="M65.7566 121.005 65.7566 121.005C66.5434 120.451 67.2879 119.834 68.1171 119.343 68.4219 119.163 68.8774 119.259 69.1288 119.011 69.3801 118.763 69.2934 118.32 69.466 118.014 69.8596 117.315 70.3652 116.684 70.8148 116.019 71.0397 115.686 71.1048 115.148 71.4893 115.022L72.5009 114.689C72.7257 114.024 72.781 113.278 73.1753 112.695L74.5242 110.7C75.0447 107.621 75.2018 107.617 74.5242 103.386 74.461 102.992 74.1363 102.672 73.8497 102.389 73.5632 102.107 73.1753 101.946 72.8381 101.724 72.5639 100.913 72.4802 100.374 71.8265 99.7297 71.5399 99.4473 71.152 99.2865 70.8148 99.0649 70.7025 98.7324 70.6502 98.3739 70.4776 98.0676 70.084 97.3691 69.5783 96.7378 69.1288 96.073L68.4543 95.0757C68.2295 94.7433 67.9081 94.4574 67.7799 94.0784L67.1055 92.0838C66.9931 90.6433 66.9395 89.197 66.7683 87.7622 66.7141 87.3084 66.5016 86.884 66.431 86.4324 65.6542 81.455 66.5175 85.1114 65.7566 82.1108 65.6442 79.5621 65.576 77.0113 65.4194 74.4649 65.3511 73.3532 65.1265 72.2533 65.0822 71.1405 64.9015 66.5995 64.8573 62.0541 64.745 57.5108 64.6326 46.873 64.6114 36.2338 64.4078 25.5973 64.3885 24.5923 64.0227 21.5617 63.7333 20.2784 63.6562 19.9363 63.4732 19.6231 63.3961 19.2811 63.2478 18.6231 63.2022 17.9456 63.0589 17.2865 62.5508 14.9489 62.4178 14.7256 61.7101 12.6324L61.0356 10.6378C60.9233 10.3054 60.9942 9.83487 60.6984 9.64054L57.6635 7.64595C57.3263 7.42429 57.0363 7.10746 56.6519 6.98108L53.6169 5.98378C53.2797 5.87301 52.9502 5.73637 52.6053 5.65135 52.1557 5.54058 51.7089 5.41807 51.2564 5.31892 50.6969 5.19631 50.1233 5.13517 49.5704 4.98649 48.8845 4.8021 48.2215 4.54328 47.5471 4.32162L45.5238 3.65676C45.1866 3.54598 44.808 3.51865 44.5122 3.32432 44.175 3.10267 43.8709 2.82175 43.5005 2.65946L40.4656 1.66216 38.4423 0.997297C38.1051 0.886521 37.7834 0.708317 37.4307 0.664865 32.6108 0.070884 35.638 0.379339 28.3259 0 25.7406 0.110776 23.144 0.0699417 20.57 0.332432 19.8629 0.404573 19.1382 0.608535 18.5467 0.997297 18.2095 1.21895 17.8464 1.40637 17.5351 1.66216 17.1688 1.96318 16.9203 2.39864 16.5235 2.65946 16.2277 2.85379 15.8226 2.82175 15.5118 2.99189 14.8033 3.37992 13.4885 4.32162 13.4885 4.32162 13.1371 5.36091 12.7964 6.66038 11.8025 7.31351L10.7908 7.97838C9.98821 10.352 10.7079 9.58421 9.10476 10.6378 8.87992 10.9703 8.71689 11.3526 8.43034 11.6351 8.14378 11.9176 7.6719 11.988 7.4187 12.3 5.55717 14.5938 8.96903 12.0568 6.06984 13.9622 5.95747 14.2946 5.92975 14.6679 5.73263 14.9595 4.67383 16.5252 4.78206 15.3226 4.04656 16.9541 3.75789 17.5945 3.76649 18.3656 3.37213 18.9487 3.14729 19.2811 2.86233 19.5808 2.69771 19.9459 2.40903 20.5864 2.24813 21.2757 2.02328 21.9405L1.68607 22.9378C1.5737 23.2703 1.4351 23.5952 1.34885 23.9351 1.23648 24.3783 1.14483 24.8272 1.01164 25.2649-0.219853 29.3115 0.777237 25.5243 0 28.5892 0.112369 34.7946 0.123946 41.0026 0.337213 47.2054 0.349215 47.5556 0.597319 47.8606 0.674427 48.2027 0.822801 48.8607 0.899271 49.5324 1.01164 50.1973 1.17648 54.097 1.17202 57.6991 1.68607 61.5 1.76179 62.0601 1.91091 62.6081 2.02328 63.1622 2.11791 65.4006 2.21297 71.359 2.69771 74.4649 2.75177 74.8112 2.93731 75.1252 3.03492 75.4622 3.16227 75.9015 3.24479 76.3526 3.37213 76.7919 3.46974 77.1288 3.62311 77.4492 3.70935 77.7892L4.38377 80.4487C4.49614 81.6676 4.57591 82.8898 4.72099 84.1054 4.90473 85.6451 5.04801 86.06 5.39542 87.4297 5.50757 89.3098 6.02375 97.7617 6.06984 99.3973 6.23532 105.269 6.19443 111.146 6.40706 117.016 6.45772 118.415 7.68645 118.633 8.76755 119.343L9.77919 120.008C10.6086 121.235 10.489 121.5 12.4769 121.67 14.4144 121.836 19.6885 122.147 22.5933 122.668 23.0493 122.749 23.4926 122.889 23.9422 123L60.6984 122.668C61.4931 122.654 64.9136 121.282 65.7566 121.005Z" stroke="#000000" stroke-miterlimit="8" fill="#A6A6A6" fill-rule="evenodd" transform="matrix(1.00033 0 -0 1 31.5 53.5)"/><path d="M50.3499 87.3334 50.3499 87.3334C49.5821 87.889 48.8555 88.5083 48.0463 89.0001 47.7488 89.1809 47.4057 89.3211 47.059 89.3334 41.1381 89.5438 35.212 89.5557 29.2885 89.6667 28.8498 89.7778 28.4054 89.8684 27.9722 90.0001 27.3077 90.202 26.678 90.5289 25.9977 90.6667L24.3522 91.0001C22.1583 90.889 19.9527 90.9218 17.7705 90.6667 17.0814 90.5862 16.4542 90.2223 15.796 90.0001L12.8343 89.0001 8.88527 87.6667 7.89802 87.3334C7.56894 87.2223 7.19943 87.1949 6.91077 87.0001 6.58168 86.7778 6.27727 86.5126 5.92352 86.3334 3.19859 84.9533 6.77831 87.244 3.94901 85.3334 2.24783 82.7487 2.88278 84.0935 1.97451 81.3334L1.64542 80.3334C1.75508 75.1111 1.77633 69.8863 1.97451 64.6667 1.99596 64.1006 2.21165 63.5589 2.30359 63 2.43108 62.225 2.45823 61.4323 2.63267 60.6667 2.78866 59.982 3.29084 58.6667 3.29084 58.6667 3.4005 57.6667 3.61993 56.6729 3.61993 55.6667 3.61993 51.7463 3.78141 50.2392 2.96176 47.3334 2.8665 46.9955 2.74233 46.6667 2.63267 46.3334 2.52301 45.5556 2.3834 44.7816 2.30359 44 1.47606 35.8977 2.43149 39.0553 1.31634 35.6667 1.20668 34.1111 1.05276 32.5581 0.987253 31 0.833231 27.335 0.859039 23.6627 0.658168 20 0.63889 19.6491 0.404333 19.343 0.329084 19 0.184287 18.3403 0.10966 17.6667 0 17 0.10966 14.1111 0.13267 11.2175 0.329084 8.33334 0.352923 7.98279 0.412832 7.58184 0.658168 7.33334 0.903505 7.08484 1.31634 7.11108 1.64542 7.00001 1.86485 6.66667 1.96818 6.21229 2.30359 6 2.8919 5.62751 3.61993 5.55559 4.27809 5.33334L5.26535 5 7.23985 4.33334C7.56894 4.22226 7.88071 4.01953 8.22711 4L14.1506 3.66667 16.1251 3C16.4542 2.88893 16.8237 2.86152 17.1124 2.66667 17.4415 2.44441 17.7382 2.16273 18.0996 2 18.7337 1.71465 19.4969 1.72315 20.0741 1.33333 20.4032 1.11108 20.7 0.829397 21.0614 0.666667 21.6954 0.381313 23.0359 0 23.0359 0 25.1201 0.111076 27.2093 0.150236 29.2885 0.333334 30.8147 0.467717 30.8862 1.08829 32.5793 1.33333L34.8829 1.66667 40.1483 2.33334C40.8525 2.57113 41.5974 2.72515 42.1228 3.33334 43.4968 4.92389 43.4759 5.44515 44.0973 7.33334L44.4264 8.33334C44.536 8.66667 44.6875 8.98877 44.7555 9.33334L45.0845 11C45.1942 20.6667 45.1059 30.3378 45.4136 40 45.4738 41.8919 45.9067 41.8885 47.059 42.6667 47.2785 43.3334 47.3324 44.082 47.7172 44.6667 47.9366 45 48.2147 45.3006 48.3754 45.6667 48.6571 46.3089 48.8141 47 49.0335 47.6667L50.3499 51.6667 51.6662 55.6667C52.027 56.7631 52.4484 57.8576 52.6535 59 52.7923 59.7731 52.8729 60.5556 52.9826 61.3334 52.7576 63.8394 52.8932 64.413 52.3244 66.3334L51.3371 69.3334C51.2275 69.6667 51.0922 69.9925 51.0081 70.3334 50.8984 70.7778 50.69 71.2088 50.679 71.6667 50.58 75.7766 50.4047 84.7223 50.3499 87.3334Z" stroke="#000000" stroke-miterlimit="8" fill="#595959" fill-rule="evenodd" transform="matrix(1.00033 0 -0 1 104.5 84.5)"/><path d="M8.4172 26.0114 8.4172 26.0114C9.31204 26.6307 10.1908 27.2963 11.1016 27.8694 11.4236 28.072 11.7682 28.1994 12.1083 28.3339 15.5757 29.7052 16.5681 28.971 21.8392 29.2628L24.5236 29.7273C25.7522 29.9064 26.9848 30.0297 28.2147 30.1918L31.5702 30.6563C32.6835 30.5893 38.2427 32.103 40.2945 29.2628 40.5797 28.8681 40.7419 28.3339 40.9656 27.8694 41.0388 27.0595 41.1362 24.0073 41.6367 22.76 42.0284 21.7841 42.5316 20.902 42.9789 19.9731 43.2027 19.5086 43.5225 19.1092 43.65 18.5796L43.9856 17.1861C43.8738 15.3282 43.8171 13.4623 43.65 11.6122 43.5486 10.4891 42.838 7.77563 42.6434 6.96734 42.5316 6.50286 42.504 5.98131 42.3078 5.57388 41.8605 4.6449 41.7308 3.13995 40.9656 2.78694 40.6301 2.63216 40.2753 2.54145 39.959 2.32245 39.5983 2.07272 39.3506 1.48052 38.9523 1.39347 37.1811 1.00637 35.3709 1.12692 33.5835 0.928979 32.3748 0.795119 29.158 0.221346 27.8791 0 25.754 0.154781 23.6245 0.219883 21.5037 0.46449 20.9353 0.53003 20.3885 0.799215 19.8259 0.928979 19.0458 1.10892 18.26 1.23869 17.4771 1.39347 14.0973 2.95298 17.7696 1.3983 9.42385 2.32245 9.16788 2.35083 7.42291 3.01062 7.075 3.25143 6.71429 3.50115 6.43687 3.95365 6.06834 4.18041 5.42187 4.57804 4.6436 4.56619 4.05504 5.10939 1.7474 7.23887 2.8069 6.61433 1.03508 7.43183 0.695726 8.1364 0.0284293 9.25717 0.0284293 10.2188 0.0284293 10.4052-0.211371 17.4512 0.699531 19.9731 0.879936 20.4724 1.08549 20.9718 1.37063 21.3665 2.16824 22.4706 3.39387 22.7645 4.39059 23.2245 4.72614 23.3793 5.10291 23.4174 5.39724 23.689 6.30032 24.5224 6.56982 24.9967 7.7461 25.0824 9.42153 25.2045 8.30538 25.8566 8.4172 26.0114Z" stroke="#000000" stroke-miterlimit="8" fill="#595959" fill-rule="evenodd" transform="matrix(1.00033 0 -0 1 164.5 100.5)"/><path d="M1.34693 17.0001 1.34693 17.0001C4.60204 16.8868 7.86478 16.9123 11.1122 16.6601 12.2534 16.5714 13.3571 16.2068 14.4795 15.9801L16.1631 15.6401 18.1835 14.2801C18.5203 14.0534 18.8011 13.6991 19.1937 13.6001 19.6427 13.4868 20.0868 13.3517 20.5406 13.2601 22.7457 12.8148 22.0829 13.1065 23.908 12.5801 24.2493 12.4817 24.6078 12.4141 24.9182 12.2401 25.6257 11.8432 26.9386 10.8801 26.9386 10.8801 27.1631 10.5401 27.296 10.1154 27.612 9.86005 27.8891 9.63614 28.3048 9.68036 28.6222 9.52005 28.9842 9.33726 29.2957 9.06675 29.6324 8.84005 29.7446 8.50005 29.7474 8.09986 29.9691 7.82004 30.222 7.50092 30.7649 7.48657 30.9793 7.14004 31.3556 6.53221 31.4283 5.78003 31.6528 5.10003L31.9895 4.08002C31.5524 0.99045 32.4058 1.95348 29.6324 1.02001L27.612 0.340002 26.6018 0C25.7038 0.113298 24.7928 0.14853 23.908 0.340002 23.2138 0.490138 22.561 0.793302 21.8876 1.02001 19.4654 1.83526 22.4902 0.846203 19.5304 1.70001 19.1892 1.79842 18.8615 1.9416 18.5203 2.04001 16.7101 2.56217 17.1053 2.33482 14.8162 2.72002 14.2517 2.815 13.6878 2.91984 13.1325 3.06002 12.7882 3.14697 12.4688 3.32227 12.1223 3.40002 11.4559 3.54962 10.7643 3.57286 10.102 3.74002L7.07137 4.76003C6.73464 4.87332 6.35654 4.90127 6.06117 5.10003 4.75561 5.97879 5.43491 5.65078 4.04078 6.12003 2.81275 9.84003 4.77131 4.20542 3.03059 8.16004 2.74232 8.8151 2.58165 9.52005 2.35712 10.2001 2.24491 10.5401 2.21723 10.9218 2.02039 11.2201L0.673464 13.2601C0.44894 13.6001 0 13.8714 0 14.2801L1.34693 17.0001Z" stroke="#000000" stroke-miterlimit="8" fill="#D9D9D9" fill-rule="evenodd" transform="matrix(1.00033 0 -0 1 106.5 71.5)"/><path d="M21.8451 3.90349 21.8451 3.90349C21.0849 3.25291 20.3087 2.62046 19.5644 1.95175 19.222 1.64397 18.9704 1.23109 18.587 0.975873 18.3012 0.785719 17.9167 0.803956 17.6096 0.650582 17.2593 0.475693 16.958 0.216895 16.6321 0 16.0377 0.890222 16.0319 1.16992 15.0031 1.62646 14.3754 1.90492 13.6197 1.89663 13.0483 2.27704 12.7225 2.49393 12.4287 2.76882 12.0709 2.92762 11.4432 3.20609 10.7676 3.36131 10.116 3.5782L8.16117 4.22878 7.18375 4.55407C6.85795 4.66247 6.49212 4.68921 6.20634 4.87937L4.25149 6.18053C4.03426 6.50582 3.87674 6.87998 3.59988 7.1564 3.32302 7.43282 2.88034 7.51274 2.62246 7.80699 1.87193 8.6634 1.24094 9.62236 0.993428 10.7346 0.850073 11.3784 0.827806 12.0465 0.667621 12.6864 0.501075 13.3517 0.0160081 14.6381 0.0160081 14.6381 0.124576 15.9393-0.242995 17.3737 0.341815 18.5416 0.648945 19.155 1.72518 18.8118 2.29665 19.1922 5.00603 20.9956 2.816 19.7776 9.4644 20.168L14.3515 20.4933C18.3284 21.2875 16.4173 21.0393 23.7999 20.4933 24.1424 20.468 24.4702 20.3214 24.7773 20.168 25.1275 19.9932 25.4289 19.7344 25.7547 19.5175 25.8633 19.1922 25.866 18.8093 26.0805 18.5416 26.5399 17.9684 27.3915 17.7801 28.0354 17.5657 29.9028 14.769 27.6639 18.3075 29.0128 15.614 30.276 13.0917 29.1713 16.1151 29.9902 13.6622 29.892 12.682 30.1742 10.3611 29.0128 9.43344 28.7447 9.21921 28.3612 9.21655 28.0354 9.10815 26.5149 6.83111 27.3838 7.59009 25.7547 6.50582 25.5772 5.97409 25.3092 4.88592 24.7773 4.55407 23.6798 3.86917 22.3337 4.01189 21.8451 3.90349Z" stroke="#000000" stroke-miterlimit="8" fill="#A6A6A6" fill-rule="evenodd" transform="matrix(1.00033 0 -0 1 218.5 111.5)"/></g></svg>