<svg width="301" height="250" xmlns="http://www.w3.org/2000/svg" xmlns:xlink="http://www.w3.org/1999/xlink" overflow="hidden"><defs><clipPath id="clip0"><path d="M0 0 301 0 301 250 0 250Z" fill-rule="evenodd" clip-rule="evenodd"/></clipPath></defs><g clip-path="url(#clip0)"><rect x="0" y="0" width="300.901" height="250" fill="#D3D3C3" transform="scale(1.00033 1)"/><path d="M16.4652 51.5223 16.4652 51.5223C19.1534 51.6383 21.8392 51.8704 24.5298 51.8704 32.5714 51.8704 30.6291 52.433 34.2744 51.1742 35.1442 50.2731 36.2247 49.2903 36.6266 48.0411 36.7386 47.693 36.7907 47.3175 36.9626 46.9967 37.3549 46.2653 38.3067 44.908 38.3067 44.908 38.4187 43.3995 38.4722 41.8849 38.6428 40.3824 38.8764 38.3242 39.2532 39.3727 39.6508 36.9011L39.9869 34.8124C39.8749 32.8396 39.8406 30.8605 39.6508 28.8943 39.5465 27.813 38.4006 26.4292 37.9707 25.7612L37.2987 24.7168C37.0746 24.3687 36.7544 24.0693 36.6266 23.6724 36.4026 22.9762 36.3475 22.1943 35.9546 21.5837 35.7305 21.2355 35.4466 20.9216 35.2825 20.5393 34.9949 19.8686 34.8345 19.1468 34.6105 18.4506 34.4985 18.1024 34.4709 17.7115 34.2744 17.4062 32.3485 14.4132 34.6576 18.2 33.2664 15.3174 33.0857 14.9432 32.775 14.6473 32.5943 14.2731 32.4359 13.9449 32.5088 13.4882 32.2583 13.2287 29.0859 9.94209 31.5056 13.405 28.226 11.14L27.2179 10.4437C26.6579 10.5597 26.0797 10.979 25.5378 10.7918 25.2018 10.6758 25.2652 10.1085 25.2018 9.74747 25.0403 8.82699 25.0273 7.88295 24.8658 6.96248 24.8024 6.60141 24.7511 6.20461 24.5298 5.9181 24.2774 5.59136 23.8577 5.45398 23.5217 5.22186 23.2976 4.87373 23.1536 4.45302 22.8496 4.17748 20.0243 1.61628 21.8254 3.4728 19.8254 2.43687 19.4642 2.2497 19.1864 1.91057 18.8173 1.74062 18.17 1.4426 17.4732 1.27649 16.8012 1.04437L15.7931 0.696248C15.4571 0.580243 15.1324 0.420051 14.7851 0.348124L13.1049 0C12.1412 0.0998868 9.94758 0.0689669 8.73662 0.696248 8.37541 0.883412 8.06458 1.16038 7.72855 1.3925 6.60851 3.13311 7.39253 2.20475 5.04036 3.82936L4.03229 4.52561C2.10631 7.5186 4.41541 3.73178 3.02422 6.61435 2.84356 6.98857 2.51621 7.27639 2.35217 7.65872L1.3441 10.7918 0.672048 12.8806 0.336024 13.925C0.224051 15.5496 0 17.17 0 18.7987 0 24.6019 0.128695 30.4056 0.336024 36.2049 0.357191 36.7967 1.27255 39.4637 1.3441 39.6861L2.35217 42.8192C2.46414 43.1673 2.49176 43.5582 2.68819 43.8636 2.91224 44.2117 3.17958 44.5337 3.36024 44.908 3.51867 45.2361 3.53783 45.6242 3.69626 45.9523 3.87692 46.3266 4.18765 46.6225 4.36831 46.9967 4.52675 47.3249 4.48304 47.7546 4.70434 48.0411 5.42041 48.9683 5.84385 48.581 6.72048 49.0854 7.4265 49.4918 8.06458 50.0138 8.73662 50.4779 9.07265 50.7101 9.36158 51.0419 9.7447 51.1742 10.4167 51.4063 11.0596 51.7666 11.7608 51.8704 14.5566 52.2842 15.6812 51.5803 16.4652 51.5223Z" stroke="#000000" stroke-miterlimit="8" fill="#595959" fill-rule="evenodd" transform="matrix(1.00033 0 -0 1 109.5 77.5)"/><path d="M22.9563 28.6506 22.9563 28.6506C31.4149 28.9073 36.7573 29.2883 45.2473 28.6506 45.9467 28.5981 46.5557 28.1221 47.2435 27.9843 47.798 27.8733 48.3454 27.7174 48.907 27.6512 51.4649 27.3498 54.0694 27.3997 56.5591 26.6517 57.5669 26.349 58.5553 25.9854 59.5534 25.6523L60.5515 25.3192C61.137 23.5606 61.1087 24.1108 60.5515 21.3214 60.4139 20.6326 60.108 19.9888 59.8861 19.3225L59.5534 18.3231 57.5572 12.3264C56.721 9.81435 57.849 12.9108 56.5591 10.3275 56.4022 10.0135 56.4744 9.57647 56.2264 9.32811 55.9784 9.07974 55.561 9.10598 55.2283 8.99496 53.3214 6.13074 55.8605 9.50145 53.5648 7.66237 53.2525 7.41223 53.2117 6.91308 52.8994 6.66293 52.6256 6.44353 52.2149 6.48687 51.9013 6.32979 51.5437 6.15068 51.2608 5.84261 50.9032 5.6635 50.5896 5.50642 50.2187 5.48743 49.9051 5.33035 47.6075 4.18002 50.3458 5.02427 47.5762 4.33091 47.2435 4.10878 46.9357 3.84373 46.5781 3.66461 45.9246 3.33745 44.5032 3.10199 43.9165 2.99832 35.6142 1.53122 43.9188 2.97639 36.5971 1.99888 34.4739 1.71536 35.5419 1.77129 33.9355 1.33259 33.0532 1.09167 32.1706 0.84593 31.2739 0.666294 28.8414 0.179112 30.1701 0.413207 27.2815 0L12.3099 0.333147C11.853 0.351824 11.4188 0.540485 10.9791 0.666294 9.44199 1.10605 9.77207 1.13889 7.98482 2.33203L6.98671 2.99832C6.54315 3.66461 5.90876 4.23752 5.65591 4.9972L4.32511 8.99496 3.65971 10.9938C3.54884 11.327 3.65971 11.8823 3.32701 11.9933L2.3289 12.3264 0.998102 14.3253C0.776267 14.6585 0.459179 14.9449 0.332701 15.3247L0 16.3242C0.117048 17.4964 0.159906 20.3955 0.998102 21.6545 1.44167 22.3208 1.6635 23.2093 2.3289 23.6534 5.18929 25.5629 1.57024 23.2736 4.32511 24.6529 4.68275 24.832 4.95782 25.1565 5.32321 25.3192 5.9642 25.6043 6.65401 25.7633 7.31941 25.9854L8.31752 26.3186 10.3137 26.9849C10.6464 27.0959 10.9616 27.2985 11.3118 27.318L17.3004 27.6512C18.2517 27.9687 18.5849 28.1084 19.6293 28.3175 19.7381 28.3393 22.4018 28.5951 22.9563 28.6506Z" stroke="#000000" stroke-miterlimit="8" fill="#595959" fill-rule="evenodd" transform="matrix(1.00033 0 -0 1 211.5 139.5)"/><path d="M32.1852 2.3467 32.1852 2.3467C31.3003 2.68195 30.376 2.92544 29.5307 3.35244 28.8174 3.71281 27.5399 4.69341 27.5399 4.69341 26.3137 6.55166 27.5778 5.08187 25.8809 6.03438 25.1837 6.42569 24.6467 7.12057 23.89 7.37536L21.8992 8.04584C20.3074 10.4584 22.5616 7.48791 19.2447 9.72206L17.2539 11.063C17.0327 11.3983 16.9017 11.817 16.5903 12.0688 16.3172 12.2896 15.9077 12.2459 15.5949 12.404 15.2382 12.5843 14.9313 12.851 14.5995 13.0745L13.2722 15.086C13.051 15.4212 12.7348 15.7095 12.6086 16.0917 10.8966 21.281 12.8588 15.9213 11.2814 19.1089 11.125 19.4249 11.0456 19.7748 10.9496 20.1146 10.5026 21.6953 10.5546 21.9031 10.286 23.8023 10.1754 25.5902 10.1398 27.3846 9.95418 29.1662 9.9176 29.5176 9.71841 29.8321 9.62237 30.1719 9.49707 30.615 9.42162 31.0715 9.29057 31.5129L8.29515 34.5301 7.96334 35.5358C7.85278 35.8711 7.70009 36.195 7.63154 36.5415 7.40351 37.6937 7.28029 38.4541 6.96793 39.5587 6.87189 39.8985 6.74669 40.2292 6.63612 40.5645 6.52555 47.0458 6.50162 53.5294 6.30431 60.0086 6.253 61.6948 5.96101 62.2398 5.6407 63.6963 5.37003 64.9267 5.32384 65.5454 4.97709 66.7135 4.77613 67.3904 4.53472 68.0544 4.31348 68.7249 4.20291 69.0602 4.05023 69.3841 3.98167 69.7307 3.75364 70.8828 3.63043 71.6432 3.31806 72.7478 2.36601 76.1144 3.69177 70.9025 2.65445 75.0946 2.54388 76.7708 2.53772 78.4573 2.32264 80.1232 2.20465 81.037 1.77211 81.8908 1.65903 82.8052 1.60991 83.2021 1.1203 87.2871 0.995418 87.8338 0.838137 88.5225 0.501419 89.1596 0.331806 89.8453L0 91.1862C0.110567 92.0803 0.211311 92.9755 0.331806 93.8682 0.469545 94.8886 0.907006 98.5396 1.32722 100.238 1.50718 100.965 1.78203 101.703 2.32264 102.249 2.6046 102.534 2.98625 102.696 3.31806 102.92 3.58789 103.738 3.67024 104.281 4.31348 104.931 4.59544 105.216 5.00259 105.344 5.3089 105.602 5.66934 105.905 5.93395 106.316 6.30431 106.607 6.93386 107.102 7.63154 107.501 8.29515 107.948L9.29057 108.619C10.4092 110.314 9.3469 109.15 10.9496 109.96 11.3063 110.14 11.5883 110.45 11.945 110.63 12.4754 110.898 13.7716 111.158 14.2677 111.301 16.5176 111.95 13.8744 111.517 17.9175 111.971 19.0223 112.095 20.1296 112.195 21.2356 112.307 27.3199 114.356 22.5272 112.959 36.1669 113.312 37.1623 113.424 38.1639 113.49 39.1531 113.648 40.2672 113.825 41.3466 114.231 42.4712 114.318L46.7846 114.653 50.4345 114.989C51.9819 115.114 53.5362 115.157 55.0798 115.324 56.6351 115.492 58.2077 115.611 59.7251 115.994L62.3795 116.665 63.7068 117C63.8857 116.974 67.6749 116.446 68.0202 116.329 68.3985 116.202 68.6491 115.818 69.0156 115.659 69.4348 115.478 69.9005 115.435 70.3429 115.324 71.9022 113.748 70.9479 114.581 73.3291 112.977L74.3245 112.307C76.0398 109.707 75.3996 111.06 76.3154 108.284L76.6472 107.278C76.7578 106.272 76.8143 105.259 76.979 104.261 77.0365 103.912 77.2148 103.595 77.3108 103.255 77.7068 101.855 77.7137 101.483 77.9744 99.9026 77.8638 93.3094 77.8434 86.7141 77.6426 80.1232 77.6372 79.9438 77.2019 77.2213 76.979 76.7708 76.6223 76.05 75.9039 75.5238 75.6518 74.7593L74.3245 70.7364 73.9927 69.7307C73.8822 69.3954 73.7458 69.0678 73.6609 68.7249 73.5504 68.278 73.4544 67.827 73.3291 67.3839 72.3771 64.0174 73.7028 69.2293 72.6655 65.0372 72.5549 62.9141 72.3965 60.7928 72.3337 58.6676 72.1753 53.305 72.21 47.9369 72.0019 42.5759 71.9654 41.6356 70.6155 39.972 70.3429 39.5587 67.3969 35.0939 71.637 41.7112 69.3475 37.5473 68.9602 36.8429 68.2724 36.3003 68.0202 35.5358 67.9097 35.2006 67.8582 34.839 67.6884 34.5301 67.3011 33.8257 66.6134 33.2831 66.3612 32.5186L65.3658 29.5014C65.2552 29.1662 65.2279 28.7898 65.034 28.4957 63.1322 25.6134 65.4123 29.2602 64.0386 26.4842 63.8602 26.1239 63.5369 25.8467 63.3749 25.4785 63.0909 24.8326 62.9326 24.1375 62.7113 23.467 62.6008 23.1318 62.5735 22.7554 62.3795 22.4613 62.1583 22.1261 61.8779 21.8238 61.7159 21.4556 61.4319 20.8097 61.4403 20.0321 61.0523 19.4441 59.1505 16.5619 61.4306 20.2086 60.0569 17.4327 59.8785 17.0723 59.5553 16.7951 59.3933 16.4269 59.1092 15.781 59.1177 15.0035 58.7297 14.4155 56.8279 11.5332 59.108 15.1799 57.7342 12.404 57.5559 12.0436 57.2326 11.7665 57.0706 11.3983 56.545 10.2032 56.6446 9.29158 55.7434 8.38109 55.4615 8.09621 55.0798 7.93413 54.748 7.7106 54.5113 6.99323 54.358 6.23437 53.7526 5.69914 53.1524 5.16845 52.4254 4.80512 51.7617 4.35817L50.7663 3.68768C50.4345 3.46415 50.0529 3.30207 49.7709 3.01719 49.4391 2.68195 49.1659 2.27448 48.7755 2.01146 48.4844 1.81549 48.0928 1.83428 47.7801 1.67622 47.4234 1.49598 47.1491 1.16939 46.7846 1.00573 44.6248 0.0359001 43.7616 0.240425 41.1439 0 40.4803 0.111713 39.811 0.192805 39.1531 0.335244 38.2613 0.528365 37.3639 0.714306 36.4987 1.00573 35.835 1.22926 34.5078 0.969514 34.5078 1.67622L32.1852 2.3467Z" stroke="#000000" stroke-miterlimit="8" fill="#A6A6A6" fill-rule="evenodd" transform="matrix(1.00033 0 -0 1 25.5 56.5)"/><path d="M53.1502 3 53.1502 3C48.8318 2.88893 44.506 2.94278 40.1949 2.66667 39.2836 2.6083 37.5374 2 37.5374 2L28.2361 2.33333C23.6967 2.46541 19.1531 2.46436 14.6163 2.66667 14.1603 2.68704 13.7249 2.86835 13.2876 3 11.9511 3.40231 10.6266 3.89008 9.30129 4.33334L7.30816 5C6.97597 5.11108 6.60298 5.13848 6.31159 5.33334L5.31502 6C4.09696 7.83329 5.31502 6.2778 3.65408 7.66667 1.09638 9.80547 4.13526 7.67811 1.66095 9.33334 0.826026 11.8468 1.95233 8.74867 0.664378 11.3333 0.426144 11.8116 0.106405 13.2395 0 13.6667 0.110695 20.3333 0.130888 27.0021 0.332189 33.6667 0.376969 35.1479 0.869969 36.2856 1.32876 37.6667L1.99313 39.6667C2.10383 40 2.03394 40.4718 2.32532 40.6667L4.31846 42C4.65065 42.2223 4.93628 42.54 5.31502 42.6667 5.64721 42.7778 5.99845 42.8429 6.31159 43 6.66868 43.1792 6.95107 43.4875 7.30816 43.6667 7.87335 43.9503 9.5207 44.3003 9.96567 44.3334 12.3976 44.5141 14.8378 44.5556 17.2738 44.6667 18.1597 44.889 19.0307 45.1827 19.9313 45.3334 20.5957 45.4444 21.267 45.52 21.9245 45.6667 23.3428 45.983 22.5961 46.1259 24.2498 46.3334 25.5729 46.4993 26.9073 46.5556 28.2361 46.6667 28.679 46.7778 29.1184 46.9041 29.5648 47 30.6689 47.2374 31.7912 47.3918 32.8867 47.6667 33.3296 47.7778 33.7765 47.8741 34.2155 48 34.5522 48.0965 34.8659 48.2799 35.212 48.3334 39.7119 49.0281 50.2839 48.9615 51.8215 49L66.77 48.6667C67.4431 48.6402 68.1097 48.4972 68.7631 48.3334 69.4426 48.163 70.0919 47.889 70.7563 47.6667 71.0885 47.5556 71.4614 47.5282 71.7528 47.3334 72.085 47.1111 72.3825 46.8245 72.7494 46.6667 73.1691 46.4862 73.6408 46.465 74.0782 46.3334 74.7489 46.1315 75.4069 45.889 76.0713 45.6667 76.4035 45.5556 76.7225 45.3911 77.0679 45.3334L79.061 45C79.6165 44.8987 80.1608 44.7293 80.7219 44.6667 82.1569 44.5067 83.601 44.4444 85.0404 44.3334 85.4833 44.2223 85.92 44.082 86.3692 44 87.1395 43.8595 87.9315 43.8434 88.6945 43.6667 89.3769 43.5087 90.0008 43.1379 90.6876 43 91.2413 42.889 91.7974 42.7896 92.3486 42.6667 93.045 42.5114 95.2564 41.9436 95.6704 41.6667 96.3348 41.2223 96.9061 40.5867 97.6636 40.3334 100.414 39.4134 99.0741 40.0565 101.65 38.3334L102.646 37.6667 103.643 37C105.193 34.6667 104.307 35.4444 105.968 34.3334 106.19 34 106.454 33.6917 106.633 33.3334 106.789 33.0191 106.965 32.6847 106.965 32.3334 106.965 28.8872 106.91 25.435 106.633 22 106.391 19.0044 105.587 20.8532 104.64 18 103.805 15.4865 104.931 18.5847 103.643 16 103.486 15.6858 103.467 15.3142 103.311 15 101.732 11.8306 103.696 17.1598 101.982 12L101.318 10C101.207 9.66667 101.18 9.29239 100.985 9.00001 100.764 8.66667 100.483 8.36609 100.321 8 100.037 7.3578 99.8782 6.66667 99.6567 6L98.9923 4C98.4286 2.30299 99.1132 3.47475 97.6636 2.66667 96.9656 2.27759 96.3348 1.77774 95.6704 1.33333 95.3383 1.11108 95.0526 0.793386 94.6739 0.666667L92.6807 0 79.7254 0.333334C79.3181 0.351916 77.2365 0.856378 76.7357 1 76.0325 1.20158 75.1315 1.60882 74.4103 1.66667 72.0898 1.85291 69.7597 1.88892 67.4344 2 66.8807 2.11108 66.3212 2.19591 65.7734 2.33333 64.2511 2.71517 64.9044 2.92662 62.7837 3 60.2385 3.08809 54.7558 3 53.1502 3Z" stroke="#000000" stroke-miterlimit="8" fill="#D9D9D9" fill-rule="evenodd" transform="matrix(1.00033 0 -0 1 105.5 126.5)"/><path d="M15.8423 26.9137 15.8423 26.9137C16.837 26.8019 17.8343 26.7122 18.8263 26.5783 19.4927 26.4885 20.145 26.2882 20.8157 26.243 23.4647 26.0644 26.1208 26.0194 28.7733 25.9076 29.4364 25.684 30.1811 25.6291 30.7627 25.2369 31.0943 25.0133 31.401 24.7465 31.7574 24.5662 32.07 24.4081 32.4395 24.389 32.7521 24.2309 33.1085 24.0506 33.3904 23.7405 33.7468 23.5602 36.4923 22.1718 32.8856 24.4763 35.7362 22.5541 35.9573 22.2188 36.0614 21.7617 36.3993 21.5481 36.9921 21.1733 37.7256 21.101 38.3887 20.8774L39.3834 20.542C43.211 19.2517 40.0289 20.2198 49.3304 19.8713 50.1268 19.6699 51.0789 19.589 51.6513 18.8653 51.8697 18.5893 51.8724 18.1946 51.9829 17.8592 51.8724 17.1885 51.7922 16.512 51.6513 15.8471 51.4603 14.9458 51.1171 14.0769 50.9882 13.1643 50.8353 12.0821 50.6555 9.80913 49.9935 8.80477 49.7724 8.46942 49.5086 8.15921 49.3304 7.79872 49.174 7.48259 49.2172 7.06866 48.9988 6.79267 48.7499 6.47791 48.3357 6.34557 48.0041 6.12197 46.4134 3.70861 48.666 6.68008 45.3516 4.44522 42.501 2.5231 46.1077 4.82757 43.3622 3.43916 43.0058 3.25887 42.7239 2.94876 42.3675 2.76846 42.0549 2.61035 41.6854 2.59123 41.3728 2.43311 40.5835 2.03397 40.321 1.47977 39.3834 1.42706 35.7402 1.22237 32.089 1.20346 28.4417 1.09171 28.1102 0.979963 27.7882 0.833042 27.4471 0.75636 26.2178 0.480053 23.9523 0.230679 22.8051 0.0856596 16.6874 0.257507 14.0119-0.535188 9.54251 0.75636 9.20645 0.853427 8.85338 0.920075 8.54781 1.09171L5.56372 3.10381 4.56903 3.77451 3.57433 4.44522C3.13228 5.11592 2.50006 5.69261 2.24807 6.45732L1.25337 9.47547C1.14288 9.81082 1.0066 10.1386 0.921805 10.4815 0.45354 12.3759 0.679631 11.371 0.258673 13.4997 0.766308 22.7406-1.32741 18.3985 1.58494 19.8713 1.94136 20.0516 2.24807 20.3184 2.57963 20.542 2.80071 20.8774 2.96101 21.2631 3.24276 21.5481 3.52452 21.8331 3.9885 21.904 4.23746 22.2188 4.45582 22.4948 4.41269 22.9087 4.56903 23.2248 4.74729 23.5853 5.05389 23.8704 5.23216 24.2309 5.38849 24.547 5.31654 24.9869 5.56372 25.2369 5.81091 25.487 6.24586 25.4142 6.55842 25.5723 6.91484 25.7526 7.18897 26.0793 7.55312 26.243 10.3034 27.4793 14.4608 26.8019 15.8423 26.9137Z" stroke="#000000" stroke-miterlimit="8" fill="#A6A6A6" fill-rule="evenodd" transform="matrix(1.00033 0 -0 1 150.5 102.5)"/></g></svg>