<svg width="301" height="250" xmlns="http://www.w3.org/2000/svg" xmlns:xlink="http://www.w3.org/1999/xlink" overflow="hidden"><defs><clipPath id="clip0"><path d="M0 0 301 0 301 250 0 250Z" fill-rule="evenodd" clip-rule="evenodd"/></clipPath></defs><g clip-path="url(#clip0)"><rect x="0" y="0" width="300.901" height="250" fill="#D3D3C3" transform="scale(1.00033 1)"/><path d="M6.282 2.1386 6.282 2.1386C4.17373 1.67743 3.68558 1.01495 2.09971 1.79553 1.72506 1.97998 1.40266 2.25293 1.05414 2.48168 0.937997 2.82475 0.869939 3.18748 0.705611 3.51089 0.518231 3.87968 0.054776 4.13026 0.00856217 4.5401-0.0575202 5.12532 0.251706 7.13405 1.05414 7.62775 1.6772 8.01112 2.44823 8.08514 3.14528 8.31389 4.86123 8.87696 3.8285 8.59753 6.282 9.00003 7.21144 8.88571 8.14867 8.82185 9.0702 8.65696 9.43167 8.59224 9.75341 8.37332 10.1158 8.31389 11.1534 8.1436 12.2069 8.08514 13.2525 7.97082 13.601 7.8565 14.0846 7.92198 14.2981 7.62775 14.7252 7.03918 14.9951 5.56932 14.9951 5.56932 14.7355 4.80267 14.3807 3.15323 13.601 2.48168 12.9706 1.9386 11.5099 1.10939 11.5099 1.10939 11.2775 0.766319 11.2284 0.131286 10.8128 0.080176 6.51494-0.44864 7.03712 1.79553 6.282 2.1386Z" stroke="#000000" stroke-miterlimit="8" fill="#D9D9D9" fill-rule="evenodd" transform="matrix(1.00033 0 -0 1 206.5 113.5)"/><path d="M42.1001 1.3458 42.1001 1.3458C41.1056 1.57013 40.105 1.76787 39.1167 2.01869 38.7777 2.10474 38.4712 2.33787 38.1222 2.35514 33.9267 2.56284 29.7243 2.57948 25.5253 2.69159 25.1938 2.8037 24.8698 2.94199 24.5308 3.02804 21.2025 3.87261 18.3327 3.54887 14.5859 3.70094 12.5819 4.20937 13.6921 3.89115 11.2709 4.71028L10.2764 5.04673C9.94491 5.15885 9.62459 5.31367 9.28192 5.38318L7.62443 5.71963C6.10811 5.99949 5.6626 5.98052 4.30946 6.39253 3.6401 6.5963 2.90193 6.67197 2.32048 7.06542L1.32599 7.73832C1.10496 8.07477 0.824828 8.37816 0.662994 8.74767 0.379212 9.39588 0 10.7664 0 10.7664 0.110464 12.4486 0.0965779 14.1441 0.331497 15.8131 0.430372 16.5152 0.773459 17.1589 0.994491 17.8318L1.65749 19.8505C1.76795 20.1869 1.7952 20.5647 1.98898 20.8598 2.21002 21.1963 2.47375 21.5075 2.65198 21.8692 2.80828 22.1863 2.82717 22.5614 2.98347 22.8785 3.1617 23.2402 3.48464 23.5184 3.64647 23.8879 4.72261 26.3454 3.49518 25.631 5.30395 26.243 5.88655 28.0168 5.25039 26.5816 6.62994 28.2617 8.01116 29.9439 6.46425 28.7103 8.28743 29.9439 8.50846 30.2804 8.65056 30.687 8.95042 30.9533 9.55004 31.4859 10.1835 32.0434 10.9394 32.2991L12.9284 32.972C13.2599 33.0841 13.5839 33.2224 13.9229 33.3084 14.3648 33.4205 14.8124 33.512 15.2489 33.6449 15.9182 33.8487 16.5749 34.0934 17.2379 34.3178L19.2268 34.9907 20.2213 35.3271C20.5528 35.4392 20.8699 35.6134 21.2158 35.6636L23.5363 36C24.5788 35.9378 29.9 35.7455 31.8237 35.3271 32.5071 35.1786 33.1497 34.8786 33.8127 34.6542 34.1442 34.5421 34.5164 34.5145 34.8072 34.3178 35.1387 34.0934 35.4453 33.8258 35.8017 33.6449 36.1142 33.4862 36.4837 33.4671 36.7962 33.3084 39.0854 32.1467 36.357 32.9993 39.1167 32.2991 39.8901 32.4112 40.671 32.48 41.4371 32.6355 41.7798 32.705 42.0822 32.972 42.4316 32.972 44.9756 32.972 47.5146 32.7476 50.0561 32.6355 51.0024 32.4434 52.1032 32.2477 53.0395 31.9626 53.7089 31.7589 54.4471 31.6832 55.0285 31.2897L57.0175 29.9439 58.012 29.271 59.0065 28.5981C60.7744 25.9066 58.454 29.1589 60.664 26.9159 63.4585 24.0797 59.5016 27.6336 61.6585 24.8972 61.9074 24.5814 62.3215 24.4486 62.653 24.2243L63.316 22.2056C63.4264 21.8692 63.59 21.5461 63.6475 21.1963L63.979 19.1776C63.8685 16.9346 63.8391 14.6859 63.6475 12.4486 63.5598 11.4248 63.0881 11.3134 62.653 10.4299 62.4967 10.1128 62.4778 9.73773 62.3215 9.42057 62.1432 9.0589 61.8367 8.77289 61.6585 8.41122 61.5022 8.09406 61.4833 7.71904 61.327 7.40187 61.1488 7.0402 60.8422 6.7542 60.664 6.39253 59.9164 4.87517 60.857 5.82019 59.6695 4.37383 58.8718 3.40242 58.6584 3.35326 57.6805 2.69159 57.4595 2.35514 57.3554 1.89651 57.0175 1.68224 56.4249 1.30627 55.61 1.40281 55.0285 1.00935 53.7433 0.139772 54.412 0.464352 53.0395 0 52.2661 0.112114 51.4804 0.158104 50.7191 0.336449 50.1419 0.471664 48.2058 1.28317 47.4041 1.3458 46.4125 1.42326 42.9842 1.3458 42.1001 1.3458Z" stroke="#000000" stroke-miterlimit="8" fill="#595959" fill-rule="evenodd" transform="matrix(1.00033 0 -0 1 188.5 119.5)"/><path d="M44.1447 0.349419 44.1447 0.349419C42.817 0.461581 41.4837 0.518404 40.1617 0.68601 39.709 0.743364 39.2889 0.987088 38.834 1.0226 36.4046 1.21215 33.9659 1.24703 31.5319 1.35919 29.7793 1.95159 30.8273 1.49902 28.5447 3.04215 28.2128 3.26658 27.9274 3.58738 27.5489 3.71533 26.1747 4.17988 26.8443 3.85516 25.5574 4.72511 25.3361 5.0617 25.1757 5.44886 24.8936 5.73488 24.6116 6.02091 24.1606 6.1036 23.8979 6.40807 23.3724 7.0169 23.0127 7.75443 22.5702 8.42761L21.2425 10.4472C21.0212 10.7838 20.9106 11.2325 20.5787 11.4569L19.583 12.1301C18.6978 14.8229 20.0255 11.6814 18.2553 13.4765 17.6912 14.0485 17.3702 14.8229 16.9277 15.496 15.2795 18.0031 17.3978 14.924 15.2681 17.5156 13.8851 19.1985 15.434 17.9643 13.6085 19.1985 12.7743 21.7366 13.8996 18.6082 12.6128 21.2181 12.4563 21.5354 12.4373 21.9106 12.2808 22.2279 12.1024 22.5897 11.7791 22.868 11.617 23.2376 11.3329 23.8861 11.1745 24.584 10.9532 25.2572 10.8426 25.5938 10.8153 25.9717 10.6213 26.267 8.71885 29.1608 10.9997 25.4994 9.62553 28.2865 9.44708 28.6483 9.12374 28.9266 8.9617 29.2963 8.67756 29.9448 8.51918 30.6427 8.29787 31.3158L7.63404 33.3354 7.30213 34.3452C7.19152 34.6817 7.16424 35.0597 6.97021 35.3549 6.7489 35.6915 6.46842 35.995 6.30638 36.3647 6.02224 37.0132 5.86386 37.7111 5.64255 38.3843L4.97872 40.4038C4.86812 40.7404 4.84083 41.1183 4.64681 41.4136 4.4255 41.7502 4.14501 42.0537 3.98298 42.4234 3.69884 43.0718 3.54046 43.7697 3.31915 44.4429L2.3234 47.4722 1.99149 48.482C1.88089 48.8186 1.8536 49.1965 1.65957 49.4918 1.43826 49.8284 1.17419 50.1397 0.995744 50.5015 0.63989 51.2233 0.483393 52.503 0.331915 53.1943 0.232915 53.6459 0.110603 54.0919 0 54.5406 0.110603 59.8139 0.0379481 65.0945 0.331915 70.3604 0.371431 71.0689 0.774433 71.7068 0.995744 72.38L1.32766 73.3898 2.98723 78.4386 3.31915 79.4484C3.42975 79.785 3.45704 80.1629 3.65106 80.4582 4.09358 81.1314 4.72647 81.7102 4.97872 82.4777 5.35737 83.6298 5.86721 85.7711 6.97021 86.5168L7.96595 87.19C9.73613 89.8828 7.41273 86.629 9.62553 88.873 11.1268 90.3954 9.34662 89.5641 11.2851 90.2193 12.4041 91.9216 11.3414 90.7528 12.9447 91.5657 13.3015 91.7467 13.5759 92.0746 13.9404 92.2389 14.5799 92.527 15.3497 92.5184 15.9319 92.9121 16.5957 93.3608 17.1665 94.0026 17.9234 94.2584 18.2553 94.3706 18.6133 94.4228 18.9191 94.595 19.6165 94.9879 20.1538 95.6856 20.9106 95.9414L27.8808 98.2975 30.8681 99.3073C31.2 99.4195 31.5207 99.5744 31.8638 99.6439 32.9702 99.8683 34.1126 99.9553 35.183 100.317 35.5149 100.429 35.8378 100.574 36.1787 100.654 37.2782 100.911 38.3915 101.102 39.4979 101.327 40.0511 101.439 40.6222 101.482 41.1574 101.663L42.1532 102C44.5872 101.888 47.019 101.695 49.4553 101.663 98.7448 101.023 78.8443 102.602 97.9149 100.99 98.2468 100.766 98.5538 100.498 98.9106 100.317 99.2235 100.158 99.6152 100.177 99.9063 99.9805 100.297 99.7164 100.546 99.2805 100.902 98.9707 101.623 98.3445 102.437 97.8206 103.225 97.2878 103.447 96.9512 103.634 96.5887 103.889 96.278 104.19 95.9123 104.612 95.6556 104.885 95.2682 105.173 94.86 105.328 94.3706 105.549 93.9219 105.608 93.6224 106.037 91.3084 106.213 90.8925 106.37 90.5207 106.655 90.2193 106.877 89.8828 107.346 87.5039 107.03 88.7426 107.872 86.1802L107.872 86.1802C107.979 85.7489 108.298 84.307 108.536 83.8241 108.715 83.4623 108.979 83.1509 109.2 82.8143 110.569 75.8738 109.798 80.4114 109.2 64.6384 109.176 64.0175 108.367 62.7228 108.204 62.2822 108.044 61.8491 107.998 61.3807 107.872 60.9359 107.776 60.5947 107.651 60.2627 107.54 59.9261 107.353 58.5962 107.2 57.1995 106.877 55.887 106.792 55.5428 106.641 55.2184 106.545 54.8772 106.419 54.4324 106.312 53.9825 106.213 53.5309 106.09 52.9724 106.079 52.3836 105.881 51.8479 105.741 51.4691 105.438 51.1747 105.217 50.8381 104.996 49.9405 104.842 49.0231 104.553 48.1454 104.443 47.8088 104.395 47.4437 104.221 47.1356 103.947 46.6486 103.519 46.2649 103.225 45.7893 102.963 45.3637 102.816 44.8732 102.562 44.4429 102.151 43.7492 101.591 43.147 101.234 42.4234 101.013 41.9746 100.825 41.5073 100.57 41.077 100.16 40.3832 99.685 39.7306 99.2425 39.0574 99.0212 38.7208 98.7049 38.4314 98.5787 38.0477 97.7445 35.5096 98.8698 38.6381 97.5829 36.0281 97.4265 35.7108 97.4075 35.3356 97.251 35.0183 97.0726 34.6565 96.7782 34.3637 96.5872 34.0086 96.1133 33.1276 95.8085 32.1508 95.2595 31.3158 95.0382 30.9792 94.7742 30.6679 94.5957 30.3061 94.4392 29.9888 94.4373 29.6044 94.2638 29.2963 93.4319 27.8198 93.2812 28.1339 92.2723 26.9401 91.9123 26.5142 91.6366 26.0197 91.2766 25.5938 90.9711 25.2324 90.5814 24.9496 90.2808 24.584 90.0254 24.2733 89.9172 23.8406 89.617 23.5742 89.0166 23.0414 88.1896 22.7999 87.6255 22.2279 86.8511 21.4425 85.9097 20.7958 85.3021 19.8717 85.0808 19.5351 84.9203 19.148 84.6383 18.8619 84.3562 18.5759 83.9671 18.4239 83.6425 18.1888 83.1924 17.8627 82.7839 17.4764 82.3149 17.179 81.8952 16.9131 81.4115 16.764 80.9872 16.5058 80.3031 16.0895 79.6595 15.6082 78.9957 15.1594L77.0042 13.8131C76.6723 13.5886 76.3869 13.2679 76.0085 13.1399 75.6766 13.0277 75.3256 12.962 75.0127 12.8033 74.6559 12.6223 74.3836 12.2895 74.017 12.1301 73.5977 11.9479 73.128 11.9206 72.6893 11.7935 70.0894 11.0402 73.6113 11.9805 70.3659 10.7838 69.609 10.5046 68.8124 10.3508 68.0425 10.1106 67.3738 9.90194 66.051 9.43739 66.051 9.43739 65.3872 8.76421 64.8106 7.98904 64.0596 7.41784 63.617 7.08125 63.182 6.73416 62.7319 6.40807 62.4073 6.17293 62.0426 5.99387 61.7361 5.73488 60.8918 5.02131 60.7627 4.49432 59.7447 4.05193 59.3253 3.86969 58.8442 3.87775 58.417 3.71533 55.276 2.52088 59.0667 3.4432 55.4298 2.70556 55.0979 2.48113 54.7986 2.1967 54.434 2.03238 53.7946 1.74423 53.0247 1.75282 52.4425 1.35919 50.7859 0.239165 52.0107 0.867717 49.4553 0.349419 49.008 0.258672 48.583 0.0399669 48.1276 0.0128276 46.6918-0.072831 44.8085 0.293338 44.1447 0.349419Z" stroke="#000000" stroke-miterlimit="8" fill="#D9D9D9" fill-rule="evenodd" transform="matrix(1.00033 0 -0 1 16.5 90.5)"/><path d="M16.9944 48.1338 16.9944 48.1338C23.7477 48.8918 15.5142 48.1338 26.3247 48.1338 28.4381 48.1338 30.5456 48.3582 32.656 48.4704 34.951 49.2431 34.1206 49.1068 38.3208 48.4704 39.0155 48.3651 40.3202 47.7972 40.3202 47.7972 40.6534 47.4606 40.9277 47.0515 41.3198 46.7874 41.6121 46.5906 42.0453 46.6725 42.3195 46.4508 42.6323 46.198 42.7295 45.7517 42.9859 45.441 43.2877 45.0753 43.6524 44.7678 43.9856 44.4312 44.2078 43.758 44.2624 43.002 44.6521 42.4116 44.8743 42.075 45.1394 41.7636 45.3185 41.4018 45.4756 41.0845 45.4946 40.7093 45.6517 40.392 45.8309 40.0301 46.139 39.744 46.3182 39.3822 46.5572 38.8993 46.8779 37.4574 46.9846 37.026 46.8736 33.8844 46.8518 30.7383 46.6514 27.6012 46.6289 27.2471 46.4034 26.9356 46.3182 26.5914 46.1808 26.0364 46.134 25.4603 45.985 24.9084 45.8001 24.2237 45.5407 23.562 45.3185 22.8888L44.6521 20.8692C44.541 20.5326 44.3877 20.2073 44.3188 19.8594L43.9856 18.1764C43.8746 14.1372 43.8427 10.095 43.6524 6.0588 43.6062 5.07974 43.1975 2.42744 41.9863 2.0196L40.9866 1.683C40.7644 1.3464 40.6598 0.887563 40.3202 0.6732 39.7244 0.297056 38.3208 0 38.3208 0 37.3462 0.0702884 32.5696 0.331193 30.9899 0.6732 30.303 0.821834 29.657 1.12196 28.9905 1.3464 28.6573 1.45856 28.2831 1.48623 27.9909 1.683 27.6576 1.90743 27.3494 2.17523 26.9912 2.3562 26.6771 2.5149 26.3056 2.53409 25.9915 2.6928 25.6333 2.87377 25.3578 3.20167 24.9918 3.366 24.3498 3.65415 23.6589 3.81476 22.9925 4.0392L21.9928 4.3758C21.6596 4.48796 21.3339 4.62631 20.9931 4.7124 20.1045 4.93683 19.1962 5.09299 18.3273 5.3856L14.3286 6.732 13.329 7.0686C12.9958 7.18076 12.6216 7.20843 12.3293 7.4052 11.0373 8.27516 11.7096 7.95043 10.33 8.415L9.33028 11.4444 8.99706 12.4542 8.66383 13.464C8.27677 18.5473 8.78862 16.4519 7.66416 19.8594 7.55312 20.196 7.57936 20.6182 7.33094 20.8692L6.33126 21.879C5.74479 23.6563 6.19283 22.5935 4.66514 24.9084 4.44296 25.245 4.33192 25.6938 3.99869 25.9182L2.99902 26.5914C2.41254 28.3687 2.86059 27.3059 1.3329 29.6208 1.11071 29.9574 0.793127 30.2468 0.666449 30.6306L0 32.6502C0.11104 33.8844 0.159738 35.126 0.333224 36.3528 0.500729 37.5373 0.804986 37.3058 1.3329 38.3724 1.49001 38.6897 1.49557 39.072 1.66612 39.3822 2.80958 41.4611 2.53838 41.0916 3.99869 42.075 4.5541 43.758 3.99869 42.9726 6.33126 43.758L7.33094 44.0946 8.33061 44.4312C11.4682 47.6005 6.43685 42.8192 11.3296 46.1142 12.0163 46.5766 13.2729 47.6786 14.3286 47.7972 14.991 47.8715 16.5502 48.0777 16.9944 48.1338Z" stroke="#000000" stroke-miterlimit="8" fill="#595959" fill-rule="evenodd" transform="matrix(1.00033 0 -0 1 38.5 43.5)"/><path d="M71.9763 4.96551 71.9763 4.96551 66.3115 4.30344C65.9659 4.24099 65.6575 4.03486 65.3119 3.97241 64.4308 3.81331 63.5326 3.76722 62.6461 3.64138 61.9772 3.5465 61.3191 3.37717 60.6467 3.31034 59.0954 3.15624 57.5367 3.08962 55.9816 2.97931 52.97 2.23133 54.4602 2.46123 48.9839 2.97931 48.528 3.02247 48.1086 3.29053 47.651 3.31034 42.9889 3.51167 38.3207 3.53107 33.6556 3.64138 33.1002 3.75169 32.5389 3.83593 31.9895 3.97241 31.6487 4.05707 31.3321 4.22493 30.9898 4.30344 29.886 4.55649 28.7322 4.60966 27.6576 4.96551 27.3244 5.07582 27.0008 5.22085 26.6579 5.29655 25.9984 5.4422 25.3192 5.48693 24.6586 5.62758 23.7629 5.81828 22.8814 6.06893 21.9928 6.28965 20.8788 6.56626 19.8216 6.86633 18.6605 6.95172 16.3317 7.12313 13.9954 7.17244 11.6628 7.28275 7.49601 8.31766 12.6766 6.99499 9.33027 7.94482 8.975 8.04564 7.42066 8.37344 6.9977 8.60689 6.29756 8.99329 5.75821 9.67944 4.99836 9.93103 4.66513 10.0413 4.30578 10.0926 3.99869 10.2621 3.29855 10.6485 2.66579 11.1449 1.99934 11.5862L0.999671 12.2483 0.333224 14.2345 0 15.2276C0.11104 17.8758 0.196576 20.5253 0.333224 23.1724 0.470816 25.8369 0.41813 27.4822 0.999671 29.7931 1.35158 31.1915 1.67305 31.293 2.66579 32.7724L2.66579 32.7724C3.6769 35.7857 2.12592 31.0265 3.33224 35.4207 3.51706 36.094 3.41421 37.0197 3.99869 37.4069L4.99836 38.0689C6.90828 40.915 4.36518 37.5657 6.66448 39.3931 6.97723 39.6416 6.9913 40.1754 7.33092 40.3862 7.92663 40.7561 8.74579 40.6611 9.33027 41.0482 9.66349 41.269 9.96397 41.5487 10.3299 41.7103 10.9719 41.9937 11.6628 42.1516 12.3293 42.3724L14.3286 43.0344C17.9745 44.2417 12.4522 42.3163 16.328 44.0275 16.97 44.3109 17.6609 44.4689 18.3273 44.6896L19.327 45.0206C19.6602 45.131 19.9859 45.267 20.3267 45.3517 24.5302 46.3957 17.9397 44.7963 23.6589 46.0138 24.5546 46.2044 25.4212 46.5262 26.3247 46.6758 26.9911 46.7861 27.6615 46.8752 28.324 47.0069 28.7731 47.0961 29.2014 47.2902 29.6569 47.3379 31.3176 47.5116 32.9897 47.5507 34.6553 47.6689L38.9872 48 75.975 47.6689C78.2177 47.6301 76.437 47.1926 78.3076 47.0069 80.1897 46.8199 82.0816 46.7266 83.9724 46.6758L102.966 46.3448C104.948 45.6887 103.862 45.9671 107.298 45.6827 110.635 45.4064 112.16 45.4101 115.295 45.0206 115.966 44.9375 116.639 44.8524 117.295 44.6896 117.976 44.5204 118.628 44.2483 119.294 44.0275 119.627 43.9172 120.001 43.89 120.294 43.6965L122.293 42.3724 123.293 41.7103 124.292 41.0482C126.07 38.4 123.737 41.6 125.959 39.3931 126.242 39.1118 126.324 38.662 126.625 38.4 127.228 37.8759 128.624 37.0758 128.624 37.0758L130.29 32.1103 130.957 30.1241C131.068 29.7931 131.205 29.4695 131.29 29.131 131.787 27.1558 131.548 28.2556 131.957 25.8207 131.846 21.0759 131.904 16.3241 131.623 11.5862 131.57 10.6779 131.465 9.69508 130.957 8.93792 129.047 6.09186 131.337 9.69279 129.957 6.95172 129.778 6.59587 129.454 6.32218 129.291 5.95862 129.006 5.32084 129.209 4.35954 128.624 3.97241L126.625 2.64827C126.403 2.31724 126.298 1.86599 125.959 1.65517 125.363 1.28525 124.588 1.30516 123.959 0.993103 122.312 0.174953 123.098 0.487116 121.627 0 119.183 0.11031 116.728 0.0721498 114.296 0.331034 113.597 0.405374 112.963 0.772378 112.296 0.993103L108.298 2.31724 106.298 2.97931C105.965 3.08962 105.643 3.24195 105.299 3.31034 104.743 3.42065 104.179 3.49332 103.633 3.64138 102.955 3.82498 102.322 4.16655 101.633 4.30344 100.488 4.53095 99.7323 4.65387 98.6342 4.96551 98.2965 5.06133 97.9775 5.22085 97.6346 5.29655 96.9751 5.4422 96.3017 5.51727 95.6352 5.62758L77.6411 5.29655C77.2901 5.28435 76.9871 5.02797 76.6415 4.96551 75.7604 4.80641 74.8622 4.76032 73.9757 4.63448 73.3068 4.5396 72.6359 4.4491 71.9763 4.30344 71.6335 4.22775 70.9767 3.97241 71.9763 4.96551Z" stroke="#000000" stroke-miterlimit="8" fill="#A6A6A6" fill-rule="evenodd" transform="matrix(1.00033 0 -0 1 125.5 149.5)"/><path d="M2.01803 46.2497 2.01803 46.2497C3.27599 49.5684 2.72418 48.0126 3.69972 50.908L4.03606 51.9062C4.14814 53.9026 4.18076 55.9049 4.3724 57.8953 4.40598 58.2445 4.64528 58.5484 4.70874 58.8935 4.87039 59.7733 4.90768 60.6716 5.04507 61.5554 5.17145 62.3679 5.63353 64.5915 6.05409 65.2154L7.39944 67.2118C7.6237 67.5446 7.68864 68.0835 8.07212 68.21L9.08113 68.5428C9.30539 68.8755 9.41101 69.3291 9.75381 69.541 10.3551 69.9128 11.0992 69.9846 11.7718 70.2064 12.3772 70.4061 13.535 70.8161 14.1262 70.8719 16.0269 71.051 17.9376 71.1027 19.844 71.2046L26.5707 71.5374C27.695 71.6115 28.8121 71.7692 29.9341 71.8701 33.3589 72.1781 35.1639 72.2872 38.6789 72.5355 43.6533 73.3557 40.1554 72.9163 49.7781 72.5355L57.5138 72.2028 59.5319 71.5374C59.8682 71.4265 60.2459 71.3991 60.5409 71.2046L63.5679 69.2082 65.586 67.8773 66.595 67.2118C67.4403 64.7029 66.3 67.7954 67.604 65.2154 67.7626 64.9018 67.7817 64.5309 67.9403 64.2172 68.1212 63.8596 68.4322 63.5767 68.613 63.2191 68.7716 62.9054 68.7908 62.5345 68.9493 62.2209 69.1302 61.8632 69.4578 61.5881 69.622 61.2227 69.9099 60.5816 69.9014 59.8099 70.2947 59.2263 70.519 58.8935 70.8032 58.5935 70.9674 58.2281 71.588 56.8465 71.6887 55.9913 71.9764 54.568 71.7395 52.4592 71.8177 51.9376 71.3037 50.2425 71.1 49.5707 70.631 48.2461 70.631 48.2461 70.519 47.2479 70.449 46.2442 70.2947 45.2515 70.1495 44.3177 69.5475 42.7015 69.2857 41.9242 68.4792 39.5308 69.4576 42.5197 68.613 39.5951 67.6479 36.2537 68.9918 41.4266 67.9403 37.266 68.0524 35.1587 68.0835 33.0456 68.2767 30.9441 68.3088 30.5948 68.613 30.2966 68.613 29.9459 68.613 28.6103 68.4551 27.2769 68.2767 25.9531 68.123 24.8127 67.783 24.9764 67.2676 23.9567 65.4917 20.4428 69.8279 27.2568 65.586 20.9621 65.3617 20.6294 65.0411 20.3433 64.9133 19.9639 64.8012 19.6312 64.7985 19.2396 64.577 18.9657 64.3244 18.6534 63.9043 18.5221 63.5679 18.3003 63.4559 17.9675 63.4037 17.6087 63.2316 17.3021 62.839 16.603 62.3347 15.9711 61.8862 15.3057L60.5409 13.3093C60.3166 12.9765 59.9961 12.6904 59.8682 12.3111 59.7561 11.9783 59.7534 11.5867 59.5319 11.3129 59.2793 11.0006 58.8592 10.8693 58.5229 10.6474 58.2829 9.93543 58.1275 9.18225 57.5138 8.65103 56.9055 8.12432 56.0674 7.88559 55.4958 7.3201 55.1595 6.98737 54.8622 6.61083 54.4868 6.32191 53.8487 5.83093 52.4688 4.99098 52.4688 4.99098 52.2445 4.65825 52.1389 4.20468 51.7961 3.99278 51.1948 3.62096 50.4507 3.54917 49.7781 3.32732L48.769 2.99459 45.742 1.99639C45.4057 1.88552 45.0848 1.70715 44.733 1.66366L42.0423 1.33093C39.8774 0.617047 42.1457 1.29257 38.3426 0.665464 37.8866 0.590324 37.4505 0.422438 36.9972 0.332732 36.3284 0.200373 35.6519 0.110876 34.9792 0 31.7279 0.110876 28.4667 0.0578482 25.2254 0.332732 24.5189 0.392676 23.7973 0.609083 23.2073 0.998196L21.1893 2.32912C20.853 2.55098 20.4661 2.71184 20.1803 2.99459 19.844 3.32732 19.5467 3.70386 19.1713 3.99278 18.5331 4.48376 17.8259 4.8801 17.1533 5.32371L16.1442 5.98917C14.2165 8.84983 16.7833 5.48332 14.4625 7.3201 12.2892 9.04014 15.317 7.81475 12.7809 8.65103 10.8531 11.5117 13.4199 8.14517 11.0992 9.98196 10.7835 10.2318 10.7123 10.6974 10.4265 10.9802 10.1407 11.2629 9.75381 11.4238 9.41747 11.6456 9.19321 11.9783 9.0306 12.3611 8.74479 12.6438 8.45899 12.9266 8.00199 13.0083 7.73578 13.3093 4.98904 16.4147 7.65167 14.4738 5.38141 15.9711 4.933 16.6366 4.29168 17.2088 4.03606 17.9675 3.92398 18.3003 3.8583 18.6521 3.69972 18.9657 3.51889 19.3234 3.20787 19.6062 3.02704 19.9639 2.86846 20.2776 2.84929 20.6484 2.69071 20.9621 2.50988 21.3198 2.18223 21.5949 2.01803 21.9603 1.7301 22.6013 1.56961 23.2912 1.34535 23.9567L0.672677 25.9531C0.560599 26.2858 0.405831 26.6073 0.336338 26.9513L0 28.6149C0.112077 32.275 0.13104 35.939 0.336338 39.5951 0.389199 40.536 0.945031 40.7994 1.34535 41.5915 1.50394 41.9051 1.90595 45.4734 2.01803 46.2497Z" stroke="#000000" stroke-miterlimit="8" fill="#D9D9D9" fill-rule="evenodd" transform="matrix(1.00033 0 -0 1 117.5 80.5)"/><path d="M5.94805 28.3408 5.94805 28.3408C10.2633 28.4507 14.5823 28.4674 18.8938 28.6704 19.2622 28.6877 19.5746 28.9999 19.9435 28.9999 20.7682 28.9999 21.5721 28.7477 22.3926 28.6704 23.9057 28.5279 25.425 28.4507 26.9412 28.3408 27.295 27.841 27.9908 27.0458 27.9908 26.3636 27.9908 25.9875 27.5671 24.2473 27.291 23.7272 27.1029 23.373 26.7794 23.0928 26.5913 22.7386 26.4263 22.4279 26.4718 22.0212 26.2414 21.7499 25.9787 21.4406 25.5416 21.3106 25.1917 21.0909 24.3123 18.6059 25.4986 21.6689 24.1421 19.1136 23.9771 18.8029 24.0226 18.3962 23.7922 18.125 23.5295 17.8156 23.0924 17.6856 22.7425 17.4659 21.8631 14.9809 23.0494 18.0439 21.6929 15.4886 21.5279 15.1779 21.508 14.8106 21.343 14.5 21.1549 14.1457 20.814 13.8733 20.6432 13.5113 20.3437 12.8764 20.1767 12.1932 19.9435 11.5341 19.8269 11.2045 19.7981 10.8345 19.5936 10.5454 17.5881 7.71217 19.9925 11.2969 18.5439 8.56816 18.3558 8.21391 18.015 7.94145 17.8441 7.57953 17.5446 6.94462 17.3777 6.26135 17.1444 5.60226 17.0278 5.27271 16.999 4.90269 16.7945 4.61362 16.328 3.95454 15.6609 3.38782 15.3949 2.63636 15.2784 2.30681 15.21 1.95838 15.0451 1.64772 14.8569 1.29348 14.7214 0.836265 14.3453 0.659089 13.4851 0.253983 11.5462 0 11.5462 0 10.7298 0.109814 9.90566 0.177176 9.09701 0.329545 8.73534 0.397633 8.3082 0.41341 8.04736 0.659089 7.78651 0.904769 7.86244 1.33707 7.69747 1.64772 7.50936 2.00197 7.231 2.30681 6.9977 2.63636 6.88111 3.07572 6.72683 3.50781 6.64782 3.95454 5.96292 7.82521 6.6163 5.8251 5.94805 10.5454 5.89934 10.8897 5.69944 11.2001 5.59816 11.5341 5.46603 11.9696 5.33434 12.4067 5.24828 12.8522 5.10072 13.6165 5.08386 14.4022 4.89839 15.1591 4.73254 15.836 4.34331 16.455 4.19862 17.1363 4.0655 17.763 3.85744 19.0971 3.49885 19.7727 3.31074 20.1269 3.12748 20.5139 2.79908 20.7613 2.51113 20.9783 2.09931 20.981 1.74943 21.0909 0.145354 23.3572 0.615798 22.3167 0 24.0568 0.116592 24.7158 0.125518 25.4002 0.349885 26.034 0.725447 27.0953 1.11445 27.0872 2.09931 27.3522 3.62095 27.7617 5.30657 28.176 5.94805 28.3408Z" stroke="#000000" stroke-miterlimit="8" fill="#D9D9D9" fill-rule="evenodd" transform="matrix(1.00033 0 -0 1 252.5 165.5)"/></g></svg>