<svg width="301" height="250" xmlns="http://www.w3.org/2000/svg" xmlns:xlink="http://www.w3.org/1999/xlink" overflow="hidden"><defs><clipPath id="clip0"><path d="M0 0 301 0 301 250 0 250Z" fill-rule="evenodd" clip-rule="evenodd"/></clipPath></defs><g clip-path="url(#clip0)"><rect x="0" y="0" width="300.901" height="250" fill="#D3D3C3" transform="scale(1.00033 1)"/><path d="M40.6533 0.699071 40.6533 0.699071 27.3244 1.03465C25.1779 1.13073 25.937 1.659 23.6589 2.04141 22.6595 2.20914 20.5403 2.45732 19.6602 3.04816L18.6605 3.71932 17.3276 5.73283C17.1055 6.06841 16.9944 6.51582 16.6612 6.73958L15.6615 7.41074C15.5505 7.74633 15.4988 8.10823 15.3283 8.4175 14.9393 9.12259 14.2487 9.66576 13.9954 10.431L12.6625 14.458C12.5515 14.7936 12.5241 15.1704 12.3293 15.4648 12.1071 15.8003 11.8255 16.1029 11.6628 16.4715 11.3776 17.118 11.2186 17.8138 10.9964 18.485L9.99672 21.5053 8.3306 26.539 7.66415 28.5525 7.33093 29.5593C7.18441 31.3305 6.89768 35.0637 6.66448 36.9421 6.29305 39.9346 6.32107 38.0511 5.99803 41.3047 5.1518 49.8267 6.16291 46.5114 4.99836 50.0299 4.77617 52.4908 4.92699 55.0154 4.33191 57.4127 3.67103 60.0751 3.88062 59.0348 3.33224 63.4532 3.05852 65.6584 2.79006 67.5762 2.66579 69.8293 1.95726 82.6738 2.59253 79.947 1.66612 86.9441 1.18481 90.5798 1.57198 88.0418 0.999672 90.6355 0.463575 93.0652 0.928724 91.5211 0.333224 93.3202 0.222184 94.4387 0 95.5518 0 96.676 0 104.06 0.0280223 111.447 0.333224 118.825 0.362506 119.531 0.777488 120.167 0.999672 120.838L1.99934 123.858 2.33257 124.865C2.44361 125.201 2.471 125.577 2.66579 125.872 2.88798 126.207 3.16956 126.51 3.33224 126.879L4.33191 129.899C4.44295 130.234 4.47034 130.611 4.66513 130.906 4.88732 131.241 5.15243 131.552 5.33158 131.912 5.4887 132.229 5.47001 132.625 5.66481 132.919 5.92624 133.314 6.33125 133.59 6.66448 133.926 7.01177 134.975 7.34845 136.287 8.3306 136.946L10.3299 138.288C10.9164 140.06 10.3709 139.099 12.6625 140.637 12.9957 140.861 13.2823 141.181 13.6622 141.309L15.6615 141.98C18.6661 142.988 16.3104 142.297 22.9925 142.651 24.1032 142.875 25.2257 143.045 26.3247 143.322 26.769 143.434 27.1999 143.641 27.6576 143.658 36.6518 143.977 54.6487 144.329 54.6487 144.329 56.1565 144.498 60.3961 145 61.6464 145 68.0897 145 74.5311 144.776 80.9734 144.664 81.3066 144.553 81.659 144.487 81.9731 144.329 82.3313 144.148 82.625 143.858 82.9728 143.658 83.404 143.41 83.8614 143.21 84.3057 142.987 86.6871 139.389 82.9784 144.849 85.9718 140.973 86.4635 140.336 86.8604 139.631 87.3047 138.96 87.5269 138.624 87.8444 138.335 87.9711 137.953 88.0822 137.617 88.2281 137.291 88.3043 136.946 88.451 136.282 88.505 135.6 88.6376 134.933 88.7274 134.48 88.8597 134.038 88.9708 133.59 89.0818 132.472 89.2215 131.355 89.304 130.234 89.6493 125.539 89.7836 120.844 89.9705 116.14 89.8594 108.533 89.7811 100.926 89.6372 93.3202 89.5589 89.1805 89.5901 85.0339 89.304 80.9036 89.2551 80.1978 88.753 79.5879 88.6376 78.8901 88.5265 78.2189 88.3881 77.5518 88.3043 76.8766 87.8903 73.5406 87.9648 71.1526 86.9714 68.1514 86.8604 67.8158 86.7953 67.461 86.6382 67.1446 86.4591 66.7839 86.1509 66.4986 85.9718 66.1379 85.8147 65.8215 85.7957 65.4475 85.6385 65.1311 85.4594 64.7704 85.1513 64.4851 84.9721 64.1244 84.815 63.808 84.8094 63.4269 84.6389 63.1176 84.2499 62.4125 83.7502 61.7753 83.306 61.1041L81.9731 59.0906C81.7509 58.755 81.6866 58.2115 81.3066 58.0839 80.0495 57.6618 79.4534 57.5598 78.3076 56.406 77.9744 56.0704 77.7001 55.6625 77.308 55.3992 77.0157 55.203 76.6224 55.2219 76.3083 55.0636 75.9501 54.8832 75.6668 54.5729 75.3086 54.3925 74.9945 54.2342 74.6231 54.2151 74.3089 54.0569 73.9507 53.8765 73.6752 53.5495 73.3093 53.3857 72.6673 53.0984 71.8944 53.107 71.3099 52.7145 70.9767 52.4908 70.6179 52.3016 70.3102 52.0434 69.9483 51.7395 69.6941 51.3125 69.3106 51.0366 68.9064 50.7459 68.4089 50.6136 67.9777 50.3655 67.63 50.1654 67.3362 49.8747 66.978 49.6943 64.2188 48.3049 67.8435 50.611 64.9787 48.6875 65.3119 48.5757 65.6642 48.1937 65.9783 48.352 66.2925 48.5102 66.3116 49.7125 66.3116 49.3587 66.3116 46.3363 66.1656 43.3144 65.9783 40.2979 65.943 39.7287 65.7464 39.1812 65.6451 38.62 65.5242 37.9506 65.4585 37.2707 65.3119 36.6065 65.2357 36.2612 65.0639 35.943 64.9787 35.5998 64.2915 32.8317 64.9964 34.991 64.3122 32.5795 64.2158 32.2394 64.0642 31.916 63.979 31.5728 63.4317 29.3679 63.4206 27.0833 62.9793 24.8611 62.9105 24.5142 62.7571 24.1899 62.6461 23.8543 62.4239 22.0646 62.546 20.1961 61.9796 18.485L61.3132 16.4715C61.2022 16.1359 61.0652 15.8079 60.98 15.4648 59.9382 11.2684 61.2696 16.4857 60.3135 13.1157 60.1877 12.6722 60.1607 12.1973 59.9803 11.7733 59.8226 11.4027 59.4765 11.1351 59.3139 10.7666 59.0286 10.12 59.0371 9.3417 58.6474 8.75308 55.6888 4.28374 59.947 10.9077 57.6477 6.73958 57.0071 5.5783 56.3201 4.56267 55.3152 3.71932 53.8449 2.48543 54.4956 3.47443 52.3162 2.37699 50.2455 1.33441 51.7677 1.97947 49.6504 1.37024 48.4013 1.01087 48.7502 0.961302 47.3178 0.699071 46.545 0.557545 45.758 0.505014 44.9852 0.363487 44.5347 0.280939 44.1096 0.053482 43.6523 0.0279036 42.0997-0.0589782 40.5423 0.0279036 40.6533 0.699071Z" stroke="#000000" stroke-miterlimit="8" fill="#D9D9D9" fill-rule="evenodd" transform="matrix(1.00033 0 -0 1 53.5 53.5)"/><path d="M20.814 4.66666 20.814 4.66666C17.4108 5.91338 19.0062 5.36651 16.037 6.33333 15.6958 6.44441 15.3127 6.47181 15.0134 6.66666 14.6722 6.88892 14.3645 7.1706 13.9898 7.33333 13.3324 7.61868 12.6249 7.77774 11.9425 8 11.6013 8.11107 11.2181 8.13847 10.9188 8.33333 10.5776 8.55559 10.2721 8.8422 9.8952 9 9.46414 9.18047 8.97956 9.20168 8.53034 9.33333 7.84136 9.53522 7.18849 9.86215 6.48306 10 4.31713 10.4232 5.33959 10.1959 3.41214 10.6667 1.52079 11.8985 3.01676 10.6286 2.04728 12.3333 1.649 13.0337 0.94175 13.5732 0.682428 14.3333L0 16.3333C0.117571 17.2526 0.156475 18.9723 0.682428 20 0.865877 20.3583 1.10231 20.6923 1.36486 21 1.67383 21.3621 2.07952 21.6379 2.3885 22 3.57571 23.3918 2.41407 22.7861 4.09456 23.3333 5.3555 25.181 4.05555 23.7196 5.80063 24.6667 6.51756 25.0557 7.06984 25.7467 7.84792 26 11.8404 27.3 9.17698 26.6277 16.037 27 18.198 26.8889 20.365 26.858 22.5201 26.6667 22.8783 26.6348 23.1926 26.4095 23.5437 26.3333 24.2191 26.1867 24.9026 26.0673 25.591 26 27.1795 25.8448 28.7757 25.7777 30.368 25.6667 30.9368 25.5556 31.5146 25.4824 32.0741 25.3333 32.7681 25.1484 33.4235 24.8371 34.1214 24.6667 34.8843 24.4803 37.0351 23.9913 37.5335 23.6667L38.5572 23C38.7847 22.6667 38.9496 22.2832 39.2396 22 39.5295 21.7167 40.007 21.6462 40.2632 21.3333 40.4879 21.059 40.4436 20.6476 40.6044 20.3333 41.9274 17.7487 40.7705 20.8468 41.6281 18.3333 41.7418 15.8889 41.9693 13.4469 41.9693 11 41.9693 9.36787 42.2014 7.5601 40.9456 6.33333 40.6557 6.05008 40.2632 5.88892 39.922 5.66666 38.1022 3 40.4907 6.22225 38.2159 4 37.926 3.71674 37.8422 3.26383 37.5335 3 35.9054 1.60819 35.3718 1.6294 33.4389 1L32.4153 0.666666C32.0741 0.55559 31.7486 0.376903 31.3917 0.333333L28.662 0C26.501 0.111076 24.334 0.141942 22.1789 0.333333 21.8207 0.365144 21.4769 0.509501 21.1553 0.666666 20.7885 0.845879 20.4728 1.11108 20.1316 1.33333 20.3166 2.23674 20.3185 3.34604 21.1553 4 21.4361 4.21953 20.8709 4.55559 20.814 4.66666Z" stroke="#000000" stroke-miterlimit="8" fill="#595959" fill-rule="evenodd" transform="matrix(1.00033 0 -0 1 70.5 28.5)"/><path d="M24.2663 0.346652 24.2663 0.346652C19.1622-0.219931 22.7455 0.00180272 15.8405 0.346652L7.75173 0.683336C5.47478 1.44154 7.94281 0.390023 6.06657 2.03007 5.45694 2.56304 4.04438 3.37681 4.04438 3.37681 3.1456 6.07028 4.49372 2.92793 2.69626 4.72354 2.44499 4.97455 2.51813 5.41621 2.35922 5.73359 2.17802 6.09552 1.84969 6.37388 1.68516 6.74365 1.39664 7.39231 1.40524 8.1732 1.0111 8.76375 0.140014 10.0691 0.465157 9.38993 0 10.7839 0.112309 13.5895 0.0662387 16.4061 0.337032 19.201 0.4055 19.9074 0.786372 20.5477 1.0111 21.2211L1.68516 23.2412 3.37032 28.2914 3.70735 29.3015C3.81966 29.6382 3.97475 29.9635 4.04438 30.3115L4.38141 31.9949C4.49372 33.4539 4.66611 34.9095 4.71845 36.3718 4.89094 41.1959 4.85846 46.0261 5.05548 50.8492 5.0834 51.5313 5.22681 52.2071 5.39251 52.8693 5.56479 53.558 5.84185 54.2161 6.06657 54.8895L6.40361 55.8995C6.51591 56.2362 6.54362 56.6142 6.74064 56.9096 6.96536 57.2462 7.25017 57.5498 7.4147 57.9196 7.70322 58.5683 7.69462 59.3492 8.08877 59.9397 9.66162 62.2965 8.76283 61.5109 10.448 62.6332 10.6727 62.9699 10.8057 63.3904 11.1221 63.6432 11.3994 63.865 11.8154 63.8212 12.1331 63.9799 12.4954 64.1609 12.7741 64.4889 13.1442 64.6533 13.7936 64.9415 14.4924 65.1022 15.1664 65.3267L16.1775 65.6633 17.1886 66C31.2036 65.2222 14.4045 66 39.4327 66 41.5702 66 43.7018 65.7755 45.8363 65.6633L48.8696 64.6533C49.6247 64.4019 50.4429 64.1007 51.2288 63.9799 52.2343 63.8254 53.251 63.7554 54.2621 63.6432 54.9833 63.403 55.7462 63.2475 56.2843 62.6332 56.8178 62.0242 57.1831 61.2864 57.6325 60.6131 57.8572 60.2764 58.1784 59.9869 58.3065 59.603 58.8597 57.9454 58.5852 58.943 58.9806 56.5729 58.8683 52.7572 58.8171 48.9391 58.6436 45.1256 58.5923 43.9989 58.5146 42.8673 58.3065 41.7588 58.1755 41.0611 57.8047 40.4273 57.6325 39.7387 57.5201 39.2898 57.4285 38.8352 57.2954 38.3919 57.0913 37.7121 56.8461 37.0452 56.6214 36.3718L55.2732 32.3316 54.2621 29.3015 53.9251 28.2914C53.8128 27.9547 53.6743 27.6257 53.5881 27.2814 53.4758 26.8325 53.3842 26.3779 53.251 25.9346L52.2399 22.9045 50.2178 16.8442 48.5326 11.7939 48.1956 10.7839C48.0833 10.4472 48.0555 10.0691 47.8585 9.7738 47.6338 9.43712 47.349 9.13352 47.1845 8.76375L46.1734 5.73359C46.0611 5.39691 46.132 4.92036 45.8363 4.72354 45.1623 4.27467 44.6133 3.50989 43.8141 3.37681 42.4607 3.15147 40.3995 2.78 39.0957 2.70344 36.1777 2.53197 33.2538 2.47895 30.3329 2.36676 29.9958 2.25456 29.6395 2.18882 29.3218 2.03007 28.9595 1.84906 28.7079 1.43602 28.3107 1.3567 27.5396 1.20262 24.9404 0.515047 24.2663 0.346652Z" stroke="#000000" stroke-miterlimit="8" fill="#A6A6A6" fill-rule="evenodd" transform="matrix(1.00033 0 -0 1 142.5 132.5)"/><path d="M21.198 0.333333 21.198 0.333333C18.7344 0.444409 16.2653 0.471496 13.807 0.666666 13.454 0.694698 13.1484 0.942257 12.7991 0.999999 11.1214 1.27748 9.41707 1.25564 7.75984 1.66667 7.07269 1.83706 6.41602 2.11107 5.74412 2.33333L4.73626 2.66666C4.4003 2.77774 4.02308 2.80514 3.7284 3 3.39244 3.22226 3.09162 3.50887 2.72054 3.66666 2.29612 3.84714 1.82071 3.87412 1.37672 4 1.03622 4.09648 0.704815 4.22225 0.368861 4.33333-0.141471 5.85249-0.104119 5.22141 0.368861 7.33333 0.445681 7.67632 0.454357 8.08482 0.704815 8.33333 1.27578 8.89984 2.72054 9.66666 2.72054 9.66666 3.56492 12.1802 2.42585 9.08199 3.7284 11.6667 3.8868 11.9809 3.8431 12.3923 4.06435 12.6667 4.31661 12.9795 4.73626 13.1111 5.07221 13.3333 5.66349 15.0934 5.11348 14.1385 7.42388 15.6667 7.75984 15.8889 8.04871 16.2066 8.43175 16.3333L10.4475 17 15.8227 16.6667C17.838 16.5491 19.8581 16.4996 21.8699 16.3333 22.5487 16.2772 23.2061 16.0465 23.8856 16 26.4576 15.824 29.0369 15.7777 31.6125 15.6667 32.0431 15.5599 33.4822 15.239 33.9642 15 34.3254 14.8208 34.6361 14.5556 34.9721 14.3333L36.3159 12.3333 36.9878 11.3333C36.8148 9.78845 36.9136 7.59307 35.644 6.33333 35.3585 6.05008 34.9721 5.88892 34.6361 5.66666 34.4121 5.33333 34.2497 4.94992 33.9642 4.66666 33.0014 3.71139 33.0414 4.20892 31.9485 3.66666 31.5874 3.48745 31.3018 3.17921 30.9406 3 28.1588 1.61995 31.8133 3.91055 28.9249 2 27.8601 0.415328 28.636 1.12672 26.2373 0.333333L25.2294 0C19.5188 0.35412 21.8699 0.277795 21.198 0.333333Z" stroke="#000000" stroke-miterlimit="8" fill="#595959" fill-rule="evenodd" transform="matrix(1.00033 0 -0 1 148.5 116.5)"/><path d="M18.7381 2.10338 18.7381 2.10338C17.7368 1.82289 16.7252 1.59513 15.7341 1.26203 15.0542 1.03347 14.399 0.701173 13.7314 0.420677L12.7301 0C11.1724 0.140181 9.60149 0.128654 8.05717 0.420677 7.22267 0.578481 5.97103 1.39347 5.05316 1.68271 4.30686 1.91789 2.20294 2.53506 1.71536 2.94474L0.714025 3.78609C0.271439 4.62281-0.448894 5.26515 0.380246 6.31016 0.629082 6.62378 1.0478 6.59065 1.38158 6.73083 1.60414 7.15151 1.74722 7.6599 2.04914 7.99286 3.64182 9.74937 4.16378 9.72261 6.0545 10.5169 6.38828 10.6571 6.70503 10.9036 7.05584 10.9376L11.395 11.3583C13.5089 11.2181 15.6287 11.1791 17.7368 10.9376 18.8846 10.806 18.7124 10.2509 19.7395 9.67557 21.5808 8.64422 21.6162 8.97904 23.411 8.41354 23.7524 8.30595 24.0786 8.13304 24.4124 7.99286 24.0786 7.71237 23.6947 7.50899 23.411 7.15151 23.1274 6.79403 23.0454 6.22244 22.7435 5.88948 22.1397 5.22355 21.4084 4.76763 20.7408 4.20677 19.5325 3.19145 19.0719 2.45397 18.7381 2.10338Z" stroke="#000000" stroke-miterlimit="8" fill="#D9D9D9" fill-rule="evenodd" transform="matrix(0.995226 -0.100843 0.100811 0.994906 155.625 107.303)"/><path d="M26.8224 0 26.8224 0C25.7187 0.113601 24.6106 0.189943 23.511 0.340909 22.9531 0.417466 22.4151 0.621152 21.8553 0.681818 20.3145 0.848783 18.7647 0.909127 17.2193 1.02273L14.2391 2.04545C13.9079 2.15905 13.5361 2.18708 13.2456 2.38636 12.9145 2.61367 12.6159 2.90175 12.2522 3.06818 11.6142 3.36002 10.9277 3.52269 10.2654 3.75L9.27195 4.09091C8.94081 4.20451 8.61718 4.34463 8.27852 4.43182 7.39545 4.65913 6.49287 4.81729 5.6294 5.11364 5.29826 5.22724 4.94813 5.29381 4.63597 5.45455 4.28001 5.63783 3.97369 5.90905 3.64255 6.13636 3.42176 6.47727 3.23506 6.84438 2.98027 7.15909 2.23757 8.07659 1.79442 8.11632 1.32456 9.20455 1.04109 9.86135 0.662282 11.25 0.662282 11.25 0.551936 12.2727 0.495512 13.3032 0.331141 14.3182 0.273778 14.6726 0 14.9815 0 15.3409 0 16.8225 0.172193 18.3001 0.331141 19.7727 0.339172 19.8467 0.727154 22.1574 0.993423 22.5 1.24207 22.82 1.6557 22.9545 1.98685 23.1818 2.20764 23.5227 2.36774 23.9149 2.64913 24.2045 3.59812 25.1815 3.5587 24.6727 4.63597 25.2273 7.78458 26.848 2.49039 24.8319 7.61624 26.5909L9.60309 27.2727C9.93423 27.3863 10.2579 27.5264 10.5965 27.6136 11.038 27.7272 11.4851 27.8199 11.9211 27.9545 12.5897 28.161 13.2112 28.5915 13.9079 28.6364 15.674 28.75 17.4427 28.826 19.2062 28.9773 20.093 29.0534 20.9758 29.1789 21.8553 29.3182 22.4116 29.4063 22.9501 29.611 23.511 29.6591 25.6039 29.8386 27.7055 29.8864 29.8027 30 31.6792 29.8864 33.5732 29.9462 35.4321 29.6591 35.8257 29.5983 36.0695 29.1606 36.4255 28.9773 36.7377 28.8165 37.1068 28.7971 37.4189 28.6364 37.7749 28.4531 38.0564 28.1378 38.4124 27.9545 38.7245 27.7938 39.0936 27.7744 39.4058 27.6136 39.7617 27.4303 40.0432 27.1151 40.3992 26.9318 40.7114 26.7711 41.0805 26.7516 41.3926 26.5909 43.5594 25.4755 41.1824 26.3943 43.3795 24.8864 43.6699 24.6871 44.0677 24.7199 44.3729 24.5455 45.0687 24.1475 45.6975 23.6363 46.3597 23.1818L48.3466 21.8182 49.34 21.1364 50.3334 20.4545C52.0452 17.8111 51.4063 19.1865 52.3203 16.3636L52.6514 15.3409 52.9826 14.3182C52.6017 8.82863 53.1413 11.0586 51.9891 7.5 51.8788 7.15909 51.9485 6.67656 51.658 6.47727L50.6646 5.79545C50.4438 5.45455 50.3398 4.98984 50.0023 4.77273 49.4103 4.39177 48.6777 4.31822 48.0154 4.09091L47.022 3.75C43.399 2.50673 48.8867 4.48958 45.0352 2.72727 44.3972 2.43543 43.6292 2.44413 43.0483 2.04545 42.7172 1.81815 42.4427 1.45576 42.0549 1.36364 40.974 1.1068 39.851 1.0879 38.7435 1.02273 35.9863 0.860487 33.2244 0.795419 30.465 0.681818 28.4244-0.0184681 27.4295 0.113601 26.8224 0Z" stroke="#000000" stroke-miterlimit="8" fill="#A6A6A6" fill-rule="evenodd" transform="matrix(1.00033 0 -0 1 198.5 172.5)"/></g></svg>