<svg width="301" height="250" xmlns="http://www.w3.org/2000/svg" xmlns:xlink="http://www.w3.org/1999/xlink" overflow="hidden"><defs><clipPath id="clip0"><path d="M0 0 301 0 301 250 0 250Z" fill-rule="evenodd" clip-rule="evenodd"/></clipPath></defs><g clip-path="url(#clip0)"><rect x="0" y="0" width="300.901" height="250" fill="#D3D3C3" transform="scale(1.00033 1)"/><path d="M34.4774 0.441902 34.4774 0.441902C28.726-0.195653 30.9395-0.096985 21.7576 0.441902 21.1896 0.475248 20.65 0.719393 20.0839 0.77588 18.4149 0.942396 16.7366 0.998567 15.0629 1.10986L12.0503 2.11179C11.7156 2.22308 11.3398 2.25054 11.0461 2.44577L9.03776 3.78168 7.69883 5.78554C7.47564 6.11952 7.3641 6.56479 7.02936 6.78748L6.02517 7.45543C5.27136 9.71175 6.31678 7.26609 4.68624 9.12532 4.15637 9.72943 3.79359 10.4612 3.34732 11.1292L2.67785 12.1311C2.45466 12.4651 2.13564 12.7523 2.00839 13.1331L1.33893 15.1369 1.00419 16.1389C0.892653 18.588 0.851009 21.0413 0.669463 23.4864 0.627398 24.0525 0.368152 24.5896 0.334732 25.1562 0.144646 28.3811 0.111542 31.6131 0 34.8416 0.111542 41.9664 0.12472 49.0936 0.334732 56.2162 0.348226 56.675 0.612427 57.0966 0.669463 57.5521 0.836144 58.8823 0.804937 60.2341 1.00419 61.5598 1.38099 64.0664 1.52775 63.555 2.00839 65.2336 2.69567 67.6335 1.98762 65.4845 2.67785 68.2394 2.76346 68.5809 2.9332 68.8983 3.01258 69.2413 3.26846 70.3476 3.49502 71.4612 3.68205 72.5811 3.96449 74.2719 4.28499 76.3232 4.68624 77.9247 4.79779 78.37 4.88877 78.8209 5.02097 79.2606 5.22371 79.935 5.51933 80.5814 5.69044 81.2645 5.80198 81.7098 5.89296 82.1607 6.02517 82.6004 6.32933 83.612 6.69463 84.6043 7.02936 85.6062L8.03356 88.612C8.1451 88.946 8.28268 89.2724 8.36829 89.6139 9.41476 93.7902 8.07731 88.5979 9.03776 91.9518 9.16416 92.3932 9.24028 92.848 9.37249 93.2877 9.67664 94.2993 10.0419 95.2915 10.3767 96.2935 10.4882 96.6275 10.6258 96.9539 10.7114 97.2954 10.8985 98.0422 11.3896 100.147 11.7156 100.635 11.9388 100.969 12.2217 101.27 12.3851 101.637 12.6716 102.281 12.8313 102.973 13.0545 103.641L13.724 105.645C13.8355 105.979 13.8631 106.354 14.0587 106.647 14.2819 106.981 14.5648 107.282 14.7282 107.649 15.0147 108.292 15.0062 109.067 15.3977 109.653 15.6208 109.987 15.8872 110.296 16.0671 110.655 16.2249 110.969 16.244 111.342 16.4019 111.656 16.5818 112.015 16.8913 112.299 17.0713 112.658 17.2291 112.973 17.1856 113.385 17.406 113.66 17.6574 113.974 18.0755 114.106 18.4102 114.328 18.5218 114.662 18.5245 115.055 18.745 115.33 19.3237 116.052 21.1439 116.462 21.7576 116.666L22.7618 117 55.2307 116.666C56.8889 116.635 58.2987 116.188 59.917 115.998 61.141 115.854 62.3716 115.775 63.599 115.664 64.4917 115.441 65.3746 115.176 66.2769 114.996 66.8348 114.885 67.4017 114.812 67.9505 114.662 68.6314 114.477 69.2895 114.217 69.9589 113.994L70.9631 113.66C71.5938 113.031 72.264 112.493 72.6368 111.656 73.2731 110.228 73.2515 109.677 73.641 108.317 73.7379 107.978 73.8642 107.649 73.9757 107.315 73.8642 102.973 73.8342 98.6285 73.641 94.2896 73.5716 92.7329 73.1243 91.7412 72.6368 90.2819L72.302 89.28C72.1905 88.946 72.1251 88.5929 71.9673 88.278 71.7441 87.8328 71.4731 87.4083 71.2978 86.9421 71.1363 86.5123 71.0895 86.0476 70.9631 85.6062 70.2769 83.21 70.9742 86.3294 70.2936 82.9344 70.1821 73.3603 70.1053 63.7858 69.9589 54.2123 69.8823 49.202 69.8135 44.1907 69.6242 39.1833 69.5062 36.0654 69.4717 37.401 68.9547 35.5096 68.7127 34.6239 68.5084 33.7284 68.2853 32.8377 68.1737 32.3925 68.096 31.9373 67.9505 31.5018 67.839 31.1678 67.7127 30.8384 67.6158 30.4999 67.4894 30.0585 67.4133 29.6037 67.2811 29.164 67.0783 28.4896 66.75 27.8506 66.6116 27.1601 65.9311 23.7651 66.6284 26.8845 65.9421 24.4883 65.8402 24.1322 65.5087 22.5744 65.2727 22.1504 64.882 21.4487 64.38 20.8145 63.9337 20.1466 63.7106 19.8126 63.5487 19.4285 63.2643 19.1446L62.2601 18.1427C62.0369 17.4748 61.9821 16.7247 61.5906 16.1389 61.3674 15.8049 61.1011 15.4959 60.9212 15.1369 60.7633 14.8221 60.7577 14.4428 60.5864 14.135 59.5855 12.3373 59.4631 12.3462 58.2433 11.1292 57.4474 8.74685 58.5759 11.627 56.9044 9.12532 56.7087 8.83237 56.7863 8.4013 56.5697 8.12339 55.9884 7.3777 55.2307 6.78748 54.5613 6.11952 54.2265 5.78554 53.8197 5.51058 53.5571 5.11759 53.3339 4.78361 53.172 4.39946 52.8876 4.11566 52.2387 3.46821 51.696 3.38532 50.8792 3.11372 50.656 2.77975 50.5239 2.36256 50.2097 2.11179 49.9343 1.89184 49.5211 1.93528 49.2056 1.77781 47.3286 0.841518 49.0237 0.836574 45.8582 0.77588 40.8382 0.679526 36.3742 0.497548 34.4774 0.441902Z" stroke="#000000" stroke-miterlimit="8" fill="#A6A6A6" fill-rule="evenodd" transform="matrix(1.00033 0 -0 1 31.5 31.5)"/><path d="M88.7846 1.79102 88.7846 1.79102 56.8621 2.12769C55.0854 2.15982 53.3113 2.30149 51.5416 2.46437 50.8702 2.52619 50.2046 2.65291 49.5465 2.80105 49.2043 2.87803 48.8987 3.11556 48.5489 3.13772 45.3388 3.3409 42.1201 3.36221 38.9056 3.4744 38.2406 3.58659 37.5686 3.66294 36.9105 3.81108 36.5683 3.88806 36.2551 4.07077 35.9129 4.14775 33.4014 4.71284 34.0496 4.21551 31.2575 5.15779L28.2648 6.16782C26.7921 6.66483 25.6847 7.08496 23.9419 7.17785L17.6239 7.51452 14.6312 8.52456 13.6336 8.86123 12.636 9.19791C12.4143 9.53459 12.2831 9.95514 11.971 10.2079 11.6973 10.4297 11.2868 10.3859 10.9734 10.5446 8.39496 11.85 11.4856 10.7084 8.97822 11.5546 7.74939 13.4208 9.01624 11.9448 7.31559 12.9014 6.61692 13.2943 5.32043 14.2481 5.32043 14.2481 4.48466 16.7868 5.61211 13.6575 4.32285 16.2681 4.16606 16.5855 4.16051 16.9679 3.99032 17.2782 3.60218 17.9855 2.91293 18.5305 2.66021 19.2982L1.66263 22.3283 1.33011 23.3383C1.2193 24.4606 1.20286 25.5966 0.99758 26.7051 0.86834 27.4028 0.554246 28.0518 0.332527 28.7252L0 29.7352C0.110807 32.6531 0.146835 35.5748 0.332527 38.4888 0.362795 38.9643 1.03172 41.9909 1.33011 42.1923L2.32769 42.8656C3.24546 45.6534 2.60387 44.2951 4.32285 46.9057 4.54457 47.2424 4.65537 47.6913 4.9879 47.9158L7.98064 49.9358C8.31317 50.1603 8.59909 50.4812 8.97822 50.6092L13.9661 52.2926 14.9637 52.6292C15.2962 52.7414 15.6176 52.8964 15.9613 52.9659 17.0697 53.1904 18.2142 53.2774 19.2866 53.6393 19.9516 53.8638 20.6016 54.1405 21.2817 54.3126 22.1685 54.5371 23.0748 54.6933 23.9419 54.986 24.2745 55.0982 24.5917 55.2787 24.9395 55.3227 26.3735 55.5042 27.8214 55.5471 29.2624 55.6593 33.4205 56.7119 28.2507 55.3667 31.59 56.3327 32.0295 56.4598 32.4633 56.6554 32.9201 56.6694 39.7901 56.8802 46.6646 56.8938 53.5368 57.006 82.8013 56.6056 79.8453 56.4547 113.059 57.006 114.946 57.0373 116.828 57.2305 118.712 57.3427 124.368 58.4881 120.839 57.9029 133.011 57.3427 133.684 57.3118 134.345 57.14 135.006 57.006 136.488 56.7059 137.899 56.1417 139.329 55.6593L140.326 55.3227C140.659 55.2105 140.978 55.0443 141.324 54.986 144.01 54.5327 142.679 54.8652 145.314 53.9759L146.312 53.6393C146.644 53.5271 147.018 53.4994 147.309 53.3026 147.642 53.0781 147.942 52.7936 148.307 52.6292 148.948 52.341 149.719 52.3496 150.302 51.9559 153.161 50.0262 149.544 52.3398 152.297 50.9459 152.655 50.7648 152.937 50.4535 153.295 50.2725 156.048 48.8786 152.431 51.1922 155.29 49.2625 156.344 47.6619 155.829 48.6363 156.62 46.2324L156.953 45.2224C157.063 44.8857 157.091 44.5076 157.285 44.2123 158.81 41.8969 158.363 42.96 158.948 41.1822 158.706 37.7556 158.648 36.3092 158.283 33.102 158.078 31.3043 158.183 29.4318 157.618 27.7151 157.507 27.3785 157.37 27.0494 157.285 26.7051 157.148 26.15 157.101 25.5738 156.953 25.0217 155.555 19.8329 157.022 25.1799 155.623 21.9916 155.338 21.343 155.346 20.5621 154.957 19.9716 154.736 19.6349 154.455 19.3313 154.292 18.9615 154.008 18.3129 153.797 17.6301 153.627 16.9415 153.486 16.37 153.227 15.1751 152.962 14.5847 152.552 13.6709 151.946 12.8436 151.632 11.8913L150.635 8.86123C150.524 8.52456 150.496 8.14652 150.302 7.8512L148.972 5.83114 148.307 4.82111C148.085 4.48443 148.021 3.93907 147.642 3.81108 147.309 3.69889 146.958 3.63314 146.644 3.4744 146.287 3.29339 146.021 2.94314 145.647 2.80105 145.117 2.6001 144.547 2.51188 143.984 2.46437 141.882 2.28707 139.772 2.23988 137.666 2.12769 136.89 2.0155 136.107 1.94668 135.338 1.79102 134.995 1.72145 134.681 1.54044 134.341 1.45434 132.996 1.11406 130.927 0.833368 129.685 0.780985 125.365 0.598702 121.04 0.556498 116.717 0.444308 111.779-0.180586 113.477-0.114947 105.743 0.444308 105.394 0.469545 105.094 0.739523 104.746 0.780985 103.201 0.96507 101.643 1.01629 100.091 1.11766 93.6249 1.54002 95.8475 1.45434 88.7846 1.79102Z" stroke="#000000" stroke-miterlimit="8" fill="#D9D9D9" fill-rule="evenodd" transform="matrix(1.00033 0 -0 1 25.5 144.5)"/><path d="M56.3149 17.6063 56.3149 17.6063C56.2039 13.4305 56.187 9.25093 55.9817 5.07874 55.9553 4.54202 55.3491 3.37356 54.9822 3.04724 54.3795 2.51127 53.7428 1.95024 52.983 1.69291 48.6585 0.228103 52.0521 1.1739 43.987 0.677166 42.6521 0.594946 41.3249 0.396382 39.9888 0.338583 36.1036 0.170624 32.2145 0.112825 28.3272 0 26.3281 0.112825 24.3239 0.154415 22.3299 0.338583 21.8738 0.380706 21.4442 0.576177 20.9971 0.677166 20.4443 0.802041 19.8775 0.864319 19.3312 1.01575 18.6535 1.20354 17.9985 1.46716 17.3321 1.69291L15.333 2.37008 11.3347 3.72441 10.3352 4.06299C10.002 4.17582 9.62788 4.20365 9.33562 4.40158 6.47106 6.34221 10.0954 4.01554 7.3365 5.41732 6.97834 5.59936 6.69511 5.91245 6.33694 6.09449 3.57805 7.49628 7.20239 5.1696 4.33782 7.11024 3.5004 9.66331 4.63008 6.51636 3.33827 9.14173 3.18117 9.46091 3.11611 9.8189 3.00508 10.1575 2.97454 10.6544 3.17089 14.8992 2.33871 16.5906 2.15957 16.9545 1.95546 17.3186 1.67233 17.6063 1.3892 17.894 1.00596 18.0577 0.672774 18.2835 0.450615 18.9606-0.0634891 19.6047 0.00640138 20.315 0.117429 21.4435 0.209147 22.5744 0.339588 23.7008 0.431306 24.4933 0.590606 25.2773 0.672774 26.0709 0.812765 27.4224 0.78611 28.7933 1.00596 30.1339 1.1214 30.8379 1.08792 31.7694 1.67233 32.1654L2.67189 32.8425C2.89405 33.1811 3.05514 33.5706 3.33827 33.8583 4.29312 34.8286 4.25345 34.3232 5.33738 34.874 5.69555 35.0561 5.97102 35.3859 6.33694 35.5512 6.97886 35.841 7.75165 35.8324 8.33606 36.2284 8.66925 36.4541 8.96969 36.7402 9.33562 36.9055 9.97754 37.1954 10.7503 37.1867 11.3347 37.5827 14.1993 39.5233 10.575 37.1966 13.3339 38.5984 13.692 38.7805 13.9753 39.0936 14.3334 39.2756 14.8114 39.5184 16.2387 39.8443 16.6657 39.9528 16.9989 40.1785 17.2994 40.4646 17.6653 40.6299 19.2964 41.3666 19.5061 41.1911 20.9971 41.6457 21.6699 41.8507 22.3148 42.1498 22.9963 42.3228 24.6698 42.748 23.8946 42.5143 25.3286 43 27.1055 42.8872 28.8879 42.8414 30.6595 42.6614 32.3157 42.4931 31.5712 42.273 32.9919 41.9843 33.7619 41.8277 34.5401 41.6912 35.3242 41.6457 38.4308 41.4652 41.5437 41.4199 44.6534 41.3071 45.0976 41.1943 45.5391 41.0695 45.9861 40.9685 46.539 40.8436 47.1218 40.832 47.6521 40.6299 48.027 40.487 48.2935 40.1348 48.6516 39.9528 51.4105 38.551 47.7862 40.8777 50.6507 38.937 50.8729 38.5984 51.0044 38.1755 51.3171 37.9213 51.5913 37.6983 52.0683 37.8351 52.3167 37.5827 52.8829 37.0073 53.6494 35.5512 53.6494 35.5512 53.7604 35.0998 53.851 34.6426 53.9826 34.1969 54.1844 33.5132 54.4268 32.8425 54.649 32.1654L55.6485 29.1181 56.3149 27.0866C56.4259 26.748 56.5793 26.4209 56.6481 26.0709L56.9813 24.378C56.6358 21.2185 56.4259 18.7349 56.3149 17.6063Z" stroke="#000000" stroke-miterlimit="8" fill="#595959" fill-rule="evenodd" transform="matrix(1.00033 0 -0 1 109.5 102.5)"/><path d="M58.106 1.34783 58.106 1.34783 52.1293 1.68479C50.6893 1.77903 49.256 2.02174 47.8129 2.02174 45.2649 2.02174 42.7217 1.79707 40.1761 1.68479 39.7334 1.5725 39.2935 1.44833 38.848 1.34783 38.2971 1.22355 37.7322 1.16157 37.1878 1.01087 36.5124 0.82398 35.8948 0.370706 35.1956 0.336957L28.2229 0 16.2697 0.673915C15.0503 0.76232 13.8348 0.898588 12.6173 1.01087 11.9532 1.23555 11.2075 1.29073 10.6251 1.68479L8.63288 3.03262C8.41149 3.36957 8.26916 3.77679 7.96882 4.04349 6.56361 5.29124 6.34859 5.26545 4.98051 5.72827 4.75912 6.06523 4.61679 6.47245 4.31644 6.73915 3.71585 7.27255 2.32424 8.08698 2.32424 8.08698 2.10285 8.42393 1.94232 8.81151 1.66017 9.09785-0.553425 11.3443 1.77081 8.08698 0 10.7826 0.110643 11.9058 0.162932 13.0366 0.332034 14.1522 0.385264 14.5033 0.445396 14.8858 0.664068 15.1631 0.913381 15.4793 1.32814 15.6123 1.66017 15.837 2.76692 17.5218 1.9922 16.6232 4.31644 18.1957L5.31254 18.8696 6.30865 19.5435C6.41929 19.8805 6.35592 20.348 6.64068 20.5544 7.21031 20.9673 8.63288 21.2283 8.63288 21.2283 8.85428 21.5653 9.0148 21.9529 9.29695 22.2392 9.94063 22.8924 10.479 22.976 11.2892 23.2501 11.5105 23.587 11.6148 24.0463 11.9532 24.2609 12.5468 24.6375 13.2814 24.7102 13.9454 24.9348L15.9376 25.6088C16.2697 25.721 16.6425 25.7487 16.9337 25.9457 17.2658 26.1704 17.5562 26.4774 17.9298 26.6196 18.3566 26.7821 21.2921 27.2305 21.5822 27.2935 22.4747 27.4877 23.3296 27.8836 24.2385 27.9675 26.2034 28.1487 28.8775 28.3705 30.8792 28.6414 31.5465 28.7317 32.2014 28.9103 32.8714 28.9783 34.4171 29.1352 35.9718 29.1843 37.5198 29.3153 38.6283 29.409 39.7334 29.54 40.8402 29.6522 43.1893 30.2483 41.1755 29.7754 44.1605 30.3262 44.7157 30.4286 45.2566 30.6443 45.8207 30.6631 52.0163 30.8692 58.2166 30.8878 64.4146 31.0001L79.3561 30.6631C80.0206 30.6372 82.5127 30.1992 83.3405 29.9892 83.6801 29.903 83.9907 29.7063 84.3366 29.6522 85.436 29.4806 86.5502 29.4276 87.657 29.3153L89.6492 27.9675 90.6453 27.2935C90.8667 26.9566 91.0272 26.569 91.3093 26.2827 93.5229 24.0363 91.1987 27.2935 92.9695 24.5979 92.8589 23.1378 92.8625 21.664 92.6375 20.2174L91.6414 17.1848 90.6453 14.1522C90.5346 13.8152 90.5073 13.4369 90.3132 13.1413L88.9851 11.1196 88.321 10.1087C88.0997 9.77176 87.989 9.32252 87.657 9.09785L85.6648 7.75002C85.3327 7.52534 84.9508 7.36244 84.6687 7.0761 84.3366 6.73915 84.083 6.2967 83.6726 6.06523 83.0607 5.72021 82.2628 5.78537 81.6804 5.39132 81.3483 5.16664 81.0489 4.8819 80.6843 4.7174L77.696 3.70653 76.6999 3.36957C76.3678 3.25729 75.995 3.22959 75.7038 3.03262 72.8491 1.10129 76.4609 3.4168 73.7115 2.02174 73.3546 1.84058 73.0801 1.51233 72.7155 1.34783 69.1593-0.256088 71.9814 1.52517 69.7271 0 67.4029 0.112284 65.0749 0.162482 62.7544 0.336957 62.083 0.387474 61.4194 0.525653 60.7622 0.673915 59.1105 1.04642 60.2903 1.01087 58.106 1.34783Z" stroke="#000000" stroke-miterlimit="8" fill="#595959" fill-rule="evenodd" transform="matrix(1.00033 0 -0 1 184.5 171.5)"/><path d="M26.658 0.3187 26.658 0.3187C21.5674-0.221387 25.6008 0.0264582 19.327 0.3187 16.2186 0.463519 13.1068 0.530867 9.99673 0.6369L7.99739 1.2733C7.66416 1.37933 7.29001 1.40549 6.99771 1.5915 6.66449 1.80366 6.35624 2.05682 5.99804 2.2279 5.68392 2.37793 5.30546 2.38324 4.99837 2.5461 4.29823 2.91751 3.66547 3.39466 2.99902 3.81889L1.99935 4.45529 0.666449 6.36449 0 7.31909C0.347288 8.31387 0.683976 9.55771 1.66612 10.1829L2.6658 10.8193C2.88798 11.1375 2.99262 11.5712 3.33224 11.7739 3.92795 12.1295 4.66514 12.1981 5.33159 12.4103L7.33094 13.0467C10.6906 14.116 5.47936 12.4844 9.66351 13.6831 10.3364 13.8758 10.9813 14.1568 11.6629 14.3195 12.1071 14.4255 12.5571 14.512 12.9958 14.6377 13.6686 14.8304 14.3062 15.1425 14.9951 15.2741 17.4314 15.7394 16.1006 15.5158 18.9938 15.9105L22.9925 17.1833 23.9922 17.5015 24.9918 17.8197C28.5306 17.7411 35.7639 18.5839 40.6534 17.1833 41.3262 16.9905 42.0682 16.919 42.6527 16.5469 43.7847 15.8262 44.0656 15.5265 45.6517 15.2741 46.3182 15.168 46.9957 15.1123 47.6511 14.9559 48.3327 14.7932 49.6504 14.3195 49.6504 14.3195 51.5604 11.5838 49.0173 14.8032 51.3166 13.0467 51.6293 12.8078 51.7608 12.4103 51.983 12.0921 51.872 11.2435 51.8374 10.3826 51.6498 9.54648L50.6501 6.68269 50.3169 5.72809C50.2058 5.40989 50.276 4.9595 49.9837 4.77349 49.3172 4.34926 48.7442 3.74253 47.9843 3.50069L45.985 2.8643C42.9219 1.88935 45.6877 2.67568 38.654 2.2279 37.4299 2.14993 36.2071 2.0466 34.9886 1.9097 34.3176 1.83433 33.6641 1.62217 32.9892 1.5915 31.325 1.51583 27.7131 0.530867 26.658 0.3187Z" stroke="#000000" stroke-miterlimit="8" fill="#A6A6A6" fill-rule="evenodd" transform="matrix(1.00033 0 -0 1 207.5 154.5)"/></g></svg>