<svg width="301" height="250" xmlns="http://www.w3.org/2000/svg" xmlns:xlink="http://www.w3.org/1999/xlink" overflow="hidden"><defs><clipPath id="clip0"><path d="M0 0 301 0 301 250 0 250Z" fill-rule="evenodd" clip-rule="evenodd"/></clipPath></defs><g clip-path="url(#clip0)"><rect x="0" y="0" width="300.901" height="250" fill="#D3D3C3" transform="scale(1.00033 1)"/><path d="M80.9331 0.158554 80.9331 0.158554C73.7709 0.956161 82.2607 0.0866369 68.61 0.826205 67.6061 0.880564 66.6171 1.12271 65.6124 1.16003 60.6188 1.3454 55.6207 1.38262 50.6248 1.49386 49.9587 1.71644 49.3215 2.06194 48.6265 2.16151 47.7753 2.28337 45.221 2.63065 44.2967 2.82916 43.4015 3.02146 42.5459 3.43961 41.6323 3.49681 37.3677 3.76398 37.0848 3.67103 33.6389 4.16446 29.6444 4.73643 33.3427 4.22387 30.3083 4.83211 26.9446 5.50639 29.65 4.71824 26.3116 5.83359 25.9785 5.94483 25.6046 5.97227 25.3124 6.16741 24.0211 7.03021 24.693 6.70816 23.3141 7.16889 21.42 9.06733 23.2438 7.53794 21.3157 8.50419 18.7332 9.79849 21.8288 8.66664 19.3174 9.50567 17.7631 11.8425 18.6513 11.0636 16.986 12.1763 16.7639 12.5101 16.6029 12.8941 16.3198 13.1778 15.6742 13.8249 15.1342 13.9078 14.3215 14.1792L12.3231 17.1837C12.1011 17.5175 11.7836 17.8045 11.657 18.1851 11.546 18.519 11.4944 18.879 11.324 19.1866 10.9352 19.888 10.2449 20.4283 9.99174 21.1896 9.88076 21.5234 9.81572 21.8764 9.65868 22.191 9.47962 22.5499 9.15516 22.8259 8.99257 23.1925 8.70745 23.8357 8.54852 24.5278 8.32645 25.1955L7.99339 26.1969 7.66034 27.1984C7.28836 33.91 7.96014 31.3042 6.66116 35.2102L5.66199 38.2147 5.32893 39.2161C5.43991 42.2206 5.50432 45.2271 5.66199 48.2294 5.96357 53.9728 6.47822 50.9421 5.66199 58.578 5.56443 59.4905 5.2854 60.3782 4.99587 61.2486L3.66364 65.2545 2.66446 68.259 2.33141 69.2605C2.14836 70.7285 1.78865 73.5131 1.66529 74.9355 1.53028 76.4915 1.56343 78.0645 1.33223 79.609 1.22807 80.305 0.836369 80.9292 0.666116 81.612 0.195744 83.4977 0.422853 82.4974 0 84.6164 0.110984 87.0645 0.138049 89.5178 0.333058 91.9606 0.361066 92.3113 0.471421 92.6693 0.666116 92.9621 0.927422 93.3549 1.27338 93.7016 1.66529 93.9635 1.95744 94.1587 2.33141 94.1861 2.66446 94.2974 2.88654 94.6312 3.15152 94.94 3.33058 95.2989 3.77934 96.1984 3.48132 96.5577 4.32975 97.3018 4.9322 97.8302 5.66199 98.192 6.3281 98.6371L7.32728 99.3048 8.32645 99.9724C8.65951 100.195 8.94589 100.513 9.32563 100.64L11.324 101.308C13.1002 103.978 10.7688 100.751 12.9893 102.977 13.2723 103.261 13.3428 103.728 13.6554 103.978 13.9295 104.198 14.3406 104.155 14.6546 104.312 15.0126 104.492 15.2879 104.817 15.6537 104.98 16.2954 105.266 16.986 105.425 17.6521 105.647 21.4969 106.932 18.3005 105.968 27.6438 106.315 27.9769 106.426 28.296 106.595 28.643 106.649 32.979 107.318 34.798 106.865 39.967 106.649 43.611 105.431 38.0915 107.373 41.9653 105.647 43.9333 104.771 44.6747 104.901 46.9612 104.646 51.3452 103.181 48.4003 103.961 56.6199 103.644L66.2786 103.311 70.2752 101.975 71.2744 101.642 72.2736 101.308C80.378 101.419 88.4875 101.333 96.5868 101.642 97.2885 101.668 97.904 102.139 98.5852 102.309 100.467 102.781 99.4686 102.553 101.583 102.977 102.693 102.866 103.817 102.849 104.913 102.643 105.603 102.513 106.246 102.198 106.912 101.975L107.911 101.642C108.244 101.53 108.562 101.357 108.91 101.308 109.654 101.201 112.408 100.825 113.24 100.64 113.582 100.564 113.901 100.403 114.239 100.306 114.679 100.18 115.122 100.062 115.571 99.9724 116.233 99.8396 116.9 99.7281 117.569 99.6386 119.79 99.3419 120.335 99.4462 122.232 98.9709 122.573 98.8856 122.898 98.7483 123.231 98.6371 124.069 96.1199 122.939 99.2226 124.231 96.6342 124.772 95.5481 124.275 95.5879 125.23 94.6312 125.513 94.3475 125.896 94.1861 126.229 93.9635 126.451 93.6297 126.733 93.3287 126.895 92.9621 127.18 92.3189 127.172 91.5446 127.561 90.9591 128.422 89.6648 128.101 90.3382 128.56 88.9562 128.671 88.0659 128.893 87.1827 128.893 86.2856 128.893 82.5851 129.263 79.0646 128.227 75.6031 128.026 74.9291 127.731 74.283 127.561 73.6002 127.341 72.7193 127.298 71.9089 126.562 71.2634 125.153 70.0273 124.937 70.0528 123.565 69.5943 123.12 68.9266 122.485 68.3526 122.232 67.5913 121.44 65.2078 121.956 66.1739 120.9 64.5869 119.343 56.7815 120.632 63.7587 120.234 44.2235 120.139 39.5497 120.192 34.8686 119.901 30.2029 119.757 27.8897 119.255 28.7453 118.569 27.1984 118.284 26.5553 118.125 25.8631 117.903 25.1955L117.236 23.1925C117.125 22.8587 117.098 22.4839 116.903 22.191 116.681 21.8572 116.416 21.5484 116.237 21.1896 115.957 20.6286 115.731 19.3875 115.571 18.8528L114.572 15.8484C114.461 15.5145 114.434 15.1397 114.239 14.8469 114.017 14.5131 113.752 14.2043 113.573 13.8454 113.416 13.5307 113.488 13.0928 113.24 12.8439 112.674 12.2766 111.807 12.076 111.241 11.5086 110.575 10.841 109.766 10.2913 109.243 9.50567 108.046 7.70659 108.097 7.49935 106.579 6.16741 105.79 5.47537 104.001 4.33395 103.248 3.83064 102.915 3.60805 102.641 3.24163 102.249 3.16298 101.031 2.91874 99.712 2.72622 98.5852 2.16151 97.632 1.68385 97.2339 1.40564 96.2538 1.16003 95.7046 1.0224 95.1411 0.949326 94.5885 0.826205 93.4055 0.56272 92.5211 0.221849 91.2579 0.158554 84.1398-0.198193 82.6539 0.158554 80.9331 0.158554Z" stroke="#000000" stroke-miterlimit="8" fill="#D9D9D9" fill-rule="evenodd" transform="matrix(1.00033 0 -0 1 21.5 107.5)"/><path d="M37.3521 0.435108 37.3521 0.435108C36.3395 0.655157 35.3165 0.833836 34.3142 1.09515 33.6267 1.27445 32.964 1.53514 32.289 1.75519L30.2637 2.41523C29.9262 2.52521 29.5963 2.66085 29.2511 2.74526 28.8011 2.85523 28.3453 2.94493 27.9009 3.07528 27.2194 3.27516 26.5661 3.56662 25.8757 3.73532 23.8351 4.23404 24.9656 3.9219 22.5003 4.72538L21.4876 5.0554C21.1501 5.16538 20.7711 5.1925 20.475 5.38542 17.573 7.27699 21.2447 5.00915 18.4498 6.37549 18.0869 6.55292 17.8 6.8581 17.4371 7.03553 17.1189 7.19113 16.7427 7.20995 16.4245 7.36555 16.0617 7.54298 15.7826 7.86448 15.4119 8.02559 14.7616 8.30811 13.9787 8.29969 13.3866 8.68563 12.0779 9.5386 12.7589 9.22022 11.3614 9.6757 11.1363 10.0057 11.0031 10.418 10.6863 10.6658 10.4085 10.8831 9.92532 10.7497 9.67368 10.9958 9.10001 11.5567 8.99859 12.5359 8.32351 12.9759L6.29826 14.296C6.0732 14.626 5.93999 15.0383 5.62318 15.2861 5.34538 15.5034 4.86219 15.37 4.61055 15.6161 4.35891 15.8621 4.44577 16.302 4.27301 16.6061 2.09191 20.4447 3.56199 16.7115 2.24776 20.5664 1.01677 24.1772 2.98004 18.708 1.23514 22.5465 0.94618 23.1823 0.560053 24.5266 0.560053 24.5266-0.342113 33.3474-0.0135017 28.8244 0.560053 45.648 0.58291 46.3171 0.996678 48.1709 1.23514 48.9482 1.43957 49.6146 1.91022 50.9283 1.91022 50.9283 1.94711 51.253 2.47825 56.0503 2.5853 56.5387 2.73435 57.219 3.08784 57.8438 3.26039 58.5188 3.77047 60.5139 3.45122 59.4086 4.27301 61.819 4.38549 62.149 4.41324 62.5196 4.61055 62.8091 4.83562 63.1391 5.10416 63.4444 5.28563 63.7991 5.44478 64.1103 5.46403 64.4781 5.62318 64.7892 5.80465 65.144 6.11678 65.4245 6.29826 65.7793 6.45741 66.0904 6.4135 66.4977 6.6358 66.7693 6.88925 67.0791 7.31088 67.2093 7.64843 67.4294 9.44861 70.0695 7.08582 66.8793 9.33613 69.0795 11.5864 71.2797 8.32351 68.9695 11.0238 70.7296L12.374 72.7097C12.5991 73.0397 12.7115 73.4797 13.0491 73.6998L15.0743 75.0199C15.6902 75.4213 16.3097 75.9505 17.0996 76.0099 19.6822 76.2042 22.2752 76.23 24.863 76.34 26.6806 76.7842 27.2864 77 29.5886 77 31.1678 77 32.739 76.7799 34.3142 76.67 35.4822 76.2893 36.7716 75.7781 38.0272 75.6799 40.2731 75.5042 42.5277 75.4599 44.778 75.3499 45.1155 75.2399 45.5128 75.2372 45.7906 75.0199 46.1074 74.7721 46.1789 74.3102 46.4657 74.0298 46.7525 73.7494 47.1408 73.5898 47.4783 73.3698 47.7034 73.0397 47.8937 72.6843 48.1534 72.3797 48.4591 72.0212 48.9342 71.7976 49.166 71.3896 49.5117 70.7815 49.6161 70.0695 49.8411 69.4095L50.1787 68.4194 50.5162 67.4294C50.6287 65.3393 50.676 63.2448 50.8537 61.159 50.9014 60.6 51.0887 60.0607 51.1913 59.5089 51.3138 58.8505 51.3803 58.1819 51.5288 57.5287 51.606 57.1892 51.78 56.8762 51.8664 56.5387 52.0055 55.9945 52.0914 55.4386 52.2039 54.8886 52.3164 51.8084 52.3448 48.7241 52.5415 45.648 52.5704 45.1953 52.7783 44.7707 52.879 44.3279 53.0035 43.7803 53.0774 43.2219 53.2165 42.6778 53.3029 42.3403 53.4564 42.0222 53.5541 41.6877 53.6815 41.2516 53.7642 40.8038 53.8916 40.3677 53.9893 40.0332 54.1315 39.7121 54.2292 39.3776 54.3566 38.9414 54.4837 38.5037 54.5667 38.0575 54.7091 37.2922 54.6949 36.4978 54.9042 35.7474 55.0366 35.2728 55.4202 34.894 55.5793 34.4273 55.8727 33.5667 55.961 32.6477 56.2544 31.7871L56.9295 29.807 57.6046 27.8269 57.9421 26.8368C58.0546 24.5266 58.0185 22.205 58.2797 19.9063 58.3582 19.2148 58.7822 18.6012 58.9547 17.9262 59.0672 17.4862 59.159 17.0406 59.2923 16.6061 60.745 11.8716 59.1634 17.7702 60.6424 11.9858L60.98 10.6658C60.8675 9.34568 60.8215 8.01852 60.6424 6.70551 60.5955 6.36073 60.5272 5.98705 60.3049 5.71544 60.0515 5.40569 59.6298 5.27545 59.2923 5.0554 58.754 4.26595 58.4315 3.65279 57.6046 3.07528 57.1952 2.78933 56.6912 2.65929 56.2544 2.41523 55.9022 2.21847 55.6125 1.9163 55.2418 1.75519 54.5915 1.47267 53.8916 1.3152 53.2165 1.09515 46.8669-0.974264 39.9962 0.54508 37.3521 0.435108Z" stroke="#000000" stroke-miterlimit="8" fill="#595959" fill-rule="evenodd" transform="matrix(1.00033 0 -0 1 57.5 32.5)"/><path d="M64.1047 1.86186 64.1047 1.86186 61.4475 2.85833C61.1185 2.97801 60.8003 3.16465 60.4511 3.19049 57.7988 3.38696 55.1367 3.41196 52.4795 3.52265 52.0367 3.63333 51.6 3.7731 51.1509 3.8548 47.8656 4.45216 45.6119 4.34002 41.8508 4.51912L39.8579 5.18343C39.5257 5.29412 39.1528 5.32142 38.8614 5.51559 38.5293 5.73706 38.2628 6.14768 37.865 6.17991 34.1113 6.48424 30.3362 6.40138 26.5719 6.51206 23.5485 7.51994 28.3237 5.97392 23.9147 7.17638 23.2391 7.36061 22.5861 7.61922 21.9218 7.84069L17.936 9.16932 15.9431 9.83364C15.611 9.94432 15.2381 9.97163 14.9467 10.1658 14.6146 10.3873 14.315 10.668 13.9503 10.8301 13.3103 11.1145 12.54 11.106 11.9574 11.4944 9.10172 13.3982 12.7148 11.1157 9.96447 12.4909 9.60742 12.6695 9.32507 12.9766 8.96802 13.1552 8.65491 13.3118 8.27767 13.3174 7.97157 13.4874 7.27369 13.8751 5.97868 14.816 5.97868 14.816 4.76736 18.4502 6.79634 13.0426 4.65008 16.4768 4.27891 17.0706 4.20725 17.8054 3.98579 18.4697 2.77446 22.1039 4.70637 16.5993 2.98934 20.4627 2.705 21.1026 2.49483 21.7762 2.32504 22.4556 1.82311 24.4636 2.13726 23.3511 1.3286 25.7772L0.996447 26.7737C0.885765 29.2095 0.924054 31.6566 0.664298 34.0811 0.589708 34.7774 0 36.0741 0 36.0741 0.110681 37.9563 0.0882941 39.8511 0.332149 41.7207 0.422744 42.4151 0.413852 43.3252 0.996447 43.7137L1.99289 44.378 3.32149 46.371C3.54296 46.7031 3.60708 47.2411 3.98579 47.3674L4.98223 47.6996C5.868 50.3568 4.5394 47.2567 6.31083 49.0282 6.55845 49.2758 6.39536 49.7771 6.64298 50.0247 7.20747 50.5892 7.97157 50.9105 8.63587 51.3533 8.96802 51.5748 9.25362 51.8914 9.63232 52.0176 9.96447 52.1283 10.3157 52.1932 10.6288 52.3498 10.9858 52.5284 11.2604 52.8519 11.6252 53.0141 12.2651 53.2985 12.9538 53.4569 13.6181 53.6784L14.6146 54.0106 15.611 54.3427C15.9431 54.4534 16.2621 54.6173 16.6074 54.6749 17.2717 54.7856 17.9429 54.8609 18.6003 55.007 18.9421 55.083 19.2469 55.3274 19.5968 55.3392 25.7943 55.5493 31.997 55.5607 38.1971 55.6714 45.7056 56.354 39.9872 55.9082 52.8117 56.3357L61.7797 56.6678 72.0763 57 85.3623 56.6678C86.4456 56.6197 88.0552 55.9916 89.0159 55.6714 89.3481 55.5607 89.664 55.374 90.0124 55.3392L93.3338 55.007 96.3232 54.0106C96.6553 53.8999 97.0283 53.8726 97.3196 53.6784L98.3161 53.0141C98.5375 52.6819 98.8018 52.3747 98.9804 52.0176 99.137 51.7045 99.0938 51.2945 99.3125 51.0212 99.5619 50.7094 99.9768 50.5783 100.309 50.3568L100.973 48.3639 101.305 47.3674C101.416 45.9281 101.412 44.4753 101.638 43.0494 101.747 42.3577 102.132 41.7358 102.302 41.0564 102.771 39.1801 102.544 40.1755 102.966 38.067 102.911 37.2975 102.444 30.4953 102.302 29.4309 102.256 29.0839 102.046 28.7762 101.97 28.4345 101.824 27.777 101.721 27.1098 101.638 26.4415 100.631 18.39 102.038 26.7137 100.641 21.127 100.53 20.6841 100.513 20.2067 100.309 19.7984 99.9519 19.0842 99.4232 18.4697 98.9804 17.8054 98.7589 17.4733 98.4423 17.1877 98.3161 16.8089 97.8984 15.5558 97.7974 14.9616 96.6553 13.8195 96.3232 13.4874 95.9596 13.1839 95.6589 12.8231 94.2749 11.1623 95.8249 12.3802 93.9981 11.1623 93.5553 10.498 93.3338 9.61216 92.6695 9.16932L90.6767 7.84069C89.7633 6.47053 89.957 6.48434 88.0195 5.51559 87.1337 5.07275 86.3017 4.50008 85.3623 4.18696L80.38 2.52617 79.3836 2.19402C79.0514 2.08333 78.6785 2.05603 78.3871 1.86186 77.0108 0.944269 77.778 1.29432 76.0621 0.865388 62.9518 1.20152 66.1625-1.85673 64.1047 1.86186Z" stroke="#000000" stroke-miterlimit="8" fill="#595959" fill-rule="evenodd" transform="matrix(1.00033 0 -0 1 152.5 155.5)"/><path d="M42.5311 0.327373 42.5311 0.327373C36.6902 0.154307 30.3553-0.313664 24.4539 0.327373L21.441 1.30918 18.4281 2.29099 17.4238 2.61826C17.0891 2.72732 16.7132 2.75422 16.4195 2.94553 16.0848 3.16375 15.7829 3.4403 15.4153 3.60007 13.7764 4.31213 13.5657 4.14247 12.0676 4.58188 11.3917 4.7801 10.7286 5.01821 10.059 5.23642 9.72428 5.34548 9.34839 5.37238 9.05475 5.56369 6.17663 7.43949 9.81811 5.19056 7.04617 6.5455 6.68631 6.72146 6.40173 7.02409 6.04188 7.20005 5.7263 7.35435 5.35316 7.37301 5.03759 7.52731 1.85454 9.08316 7.20664 7.14778 2.02471 8.8364L1.02042 9.16367C0.857522 9.4026-0.137912 10.6756 0.0161319 11.1273 0.270552 11.8736 0.90887 12.4364 1.35519 13.0909 1.5784 13.4182 1.68995 13.8545 2.02471 14.0727 2.35948 14.2909 2.66134 14.5675 3.029 14.7273 3.67396 15.0074 4.33896 15.2842 5.03759 15.3818 5.78514 15.4862 8.55339 15.8547 9.38951 16.0363 9.73398 16.1112 10.059 16.2546 10.3938 16.3636 10.617 16.6909 10.7491 17.0997 11.0633 17.3454 11.3388 17.561 11.7156 17.649 12.0676 17.6727 14.9642 17.868 17.8702 17.8909 20.7715 18L54.5826 17.6727C56.2563 17.6412 54.9652 17.0577 56.5912 16.6909 57.6839 16.4443 58.823 16.4727 59.9388 16.3636 62.1996 15.6269 59.4167 16.477 62.9517 15.7091 63.2961 15.6342 63.6212 15.4909 63.956 15.3818L65.295 13.4182C65.5182 13.0909 65.8373 12.8095 65.9646 12.4364 66.0761 12.1091 66.1415 11.7631 66.2993 11.4546 66.4793 11.1028 66.8054 10.8322 66.9688 10.4727 67.2554 9.84222 67.2469 9.08316 67.6384 8.50912 67.8616 8.18186 68.1445 7.88674 68.3079 7.52731 68.5945 6.89679 68.9774 5.56369 68.9774 5.56369 68.8659 4.69094 68.8036 3.81087 68.6427 2.94553 68.5795 2.6061 68.5575 2.20771 68.3079 1.96372 68.0583 1.71974 67.6429 1.73118 67.3036 1.63645 64.3612 0.814619 67.3682 1.76664 64.9603 0.981913 64.1888 1.10756 62.7715 1.23363 61.9474 1.63645 61.5875 1.81241 61.3108 2.13122 60.9431 2.29099 60.2981 2.57116 58.9345 2.94553 58.9345 2.94553 54.8058 2.83648 50.6685 2.89925 46.5483 2.61826 45.8443 2.57023 45.2092 2.18194 44.5397 1.96372L42.5311 0.327373Z" stroke="#000000" stroke-miterlimit="8" fill="#D9D9D9" fill-rule="evenodd" transform="matrix(1.00033 0 -0 1 179.5 138.5)"/><path d="M12.8905 0.678573 12.8905 0.678573C11.4173 0.791632 9.92056 0.750811 8.4709 1.01786 7.65241 1.16864 6.95676 2.11116 6.6294 2.71429 6.45575 3.03413 6.4496 3.41947 6.2611 3.73215L4.0513 6.78573C3.80573 7.12501 3.45471 7.41674 3.3147 7.80358L2.5781 9.8393C1.23494 13.5515 3.37711 7.92872 1.4732 11.875 1.15791 12.5287 0.982172 13.2322 0.7366 13.9107L0.3683 14.9286 0 15.9465C0.122728 16.625 0.034336 17.3669 0.3683 17.9822 0.653892 18.5084 2.05517 18.8394 2.5781 19 6.13837 18.887 9.7034 18.8655 13.2588 18.6607 14.3168 18.5998 14.573 18.0554 15.4686 17.6429 15.8158 17.4829 16.2341 17.4772 16.5735 17.3036 20.3727 15.3591 17.3881 16.3749 19.8882 15.6072 21.1299 13.8913 19.9507 15.0694 21.7297 14.25 22.1256 14.0676 22.4301 13.7371 22.8346 13.5715 23.5442 13.281 25.0444 12.8929 25.0444 12.8929 26.7632 10.5179 25.781 11.3095 27.6225 10.1786 27.7452 9.8393 27.9908 9.5184 27.9908 9.16073 27.9908 8.98505 27.4279 7.07372 27.2542 6.78573 26.8243 6.07285 26.0609 5.52369 25.781 4.75001 25.29 3.39286 25.781 3.84521 24.3078 3.39286 23.7642 2.64184 23.3171 1.87959 22.4663 1.35715 22.1432 1.15881 21.7086 1.17783 21.3614 1.01786 20.9655 0.835446 20.6805 0.456407 20.2565 0.339286 19.425 0.109533 18.5377 0.11306 17.6784 0 17.6157 0.00523623 13.661 0.0491564 12.5222 0.678573 12.2244 0.84314 12.8291 0.678573 12.8905 0.678573Z" stroke="#000000" stroke-miterlimit="8" fill="#595959" fill-rule="evenodd" transform="matrix(1.00033 0 -0 1 251.5 191.5)"/><path d="M11.9087 0.962933 11.9087 0.962933C11.0013 0.643064 10.1532 0.0682053 9.18668 0.00332463 8.47125-0.0447314 7.82569 0.429784 7.1452 0.643064L4.08297 1.60267C3.74272 1.70926 3.36068 1.73556 3.06223 1.92254L1.02074 3.20202 0 3.84176C0.0951622 4.468 0.0498315 6.47003 1.02074 7.04045 1.62901 7.3979 2.38173 7.46691 3.06223 7.68019L4.08297 8.00006C7.48545 7.89347 10.9124 8.07713 14.2904 7.68019 14.6961 7.63254 14.9417 7.10402 14.9709 6.72058 15.0602 5.54588 14.8931 4.35355 14.6306 3.20202 14.3553 1.99417 13.8083 2.3356 12.9294 1.92254 12.7859 1.85514 12.0787 1.12282 11.9087 0.962933Z" stroke="#000000" stroke-miterlimit="8" fill="#D9D9D9" fill-rule="evenodd" transform="matrix(1.00033 0 -0 1 275.5 201.5)"/></g></svg>