<svg width="301" height="250" xmlns="http://www.w3.org/2000/svg" xmlns:xlink="http://www.w3.org/1999/xlink" overflow="hidden"><defs><clipPath id="clip0"><path d="M0 0 301 0 301 250 0 250Z" fill-rule="evenodd" clip-rule="evenodd"/></clipPath></defs><g clip-path="url(#clip0)"><rect x="0" y="0" width="300.901" height="250" fill="#D3D3C3" transform="scale(1.00033 1)"/><path d="M64.7112 1.34043 64.7112 1.34043C63.7053 1.22876 62.686 1.20374 61.6936 1.00532 61.0004 0.866738 60.3882 0.362232 59.6818 0.335106L50.9643 0C46.3819 0.223439 41.7771 0.163806 37.2173 0.670213 29.3676 1.54191 37.5941 0.540181 32.5232 1.34043 32.2437 1.38454 27.584 1.95565 26.1527 2.34575 25.4707 2.53161 24.8341 2.87738 24.141 3.01596 23.5821 3.12762 23.0143 3.20119 22.4645 3.35106 21.7825 3.53693 21.0409 3.62939 20.4528 4.02128L18.441 5.3617C18.1057 5.58514 17.8174 5.90452 17.4351 6.03192 16.7646 6.25536 16.0115 6.31024 15.4234 6.70213 10.9579 9.67745 17.5761 5.39516 13.4116 7.70745 12.7072 8.0986 11.3999 9.04787 11.3999 9.04787 8.91273 12.7766 11.2399 10.1793 9.05286 11.3936 8.34838 11.7848 7.04111 12.734 7.04111 12.734 6.81755 13.0692 6.65545 13.4546 6.37053 13.7394 6.08561 14.0241 5.57819 14.068 5.36466 14.4096 4.98998 15.0087 5.08618 15.8324 4.69408 16.4202L3.35291 18.4309 2.68233 19.4362 2.01175 20.4415C1.9222 21.5159 1.68395 25.3239 1.34116 26.8085 1.18223 27.4969 0.670582 28.8192 0.670582 28.8192 0.558854 29.601 0.476694 30.3878 0.335291 31.1649 0.252815 31.618 0 32.0447 0 32.5053 0 34.1845 0.149746 35.8629 0.335291 37.5319 0.403511 38.1451 0.924348 39.126 1.34116 39.5426 1.62608 39.8273 2.01175 39.9893 2.34704 40.2128 4.74329 43.8052 1.01158 38.3531 4.02349 42.2234 4.51825 42.8592 4.60009 43.9794 5.36466 44.2341 7.1351 44.8238 6.07643 44.3733 8.38228 45.9096 8.71757 46.133 9.00587 46.4524 9.38815 46.5798L12.4058 47.5851C12.7411 47.6968 13.1175 47.7243 13.4116 47.9202 13.7469 48.1437 14.0493 48.4268 14.4175 48.5904 15.0635 48.8773 15.8412 48.8688 16.4293 49.2606 19.3119 51.1814 15.6647 48.8786 18.441 50.266 18.8014 50.4461 19.0786 50.7726 19.4469 50.9362 20.0929 51.223 20.8705 51.2145 21.4586 51.6064L24.4763 53.617 25.4821 54.2872C25.8174 54.5107 26.1057 54.8301 26.488 54.9575L27.4939 55.2926C27.6056 55.6277 27.5792 56.0481 27.8292 56.2979 28.399 56.8674 29.8409 57.6383 29.8409 57.6383 29.9526 57.9734 29.9262 58.3938 30.1762 58.6436 30.4262 58.8935 30.866 58.8207 31.1821 58.9787 31.5425 59.1589 31.8527 59.4255 32.188 59.6489 32.4115 59.9841 32.5438 60.4026 32.8585 60.6543 33.1345 60.875 33.5483 60.8314 33.8644 60.9894 36.4643 62.2886 33.3479 61.1524 35.8762 61.9947 36.882 61.883 37.8935 61.8134 38.8938 61.6596 39.3492 61.5895 39.7741 61.3245 40.2349 61.3245 47.5005 61.3245 54.7642 61.5479 62.0289 61.6596L65.0465 62.6649 66.0524 63C68.5111 62.8883 70.9746 62.8536 73.4288 62.6649 73.8882 62.6295 74.3097 62.3528 74.7699 62.3298 78.7899 62.1289 82.8169 62.1064 86.8404 61.9947 87.511 61.7713 88.2867 61.7483 88.8522 61.3245 89.2992 60.9894 89.6935 60.569 90.1933 60.3192 90.6055 60.1132 91.0914 60.1106 91.5345 59.9841 91.8743 59.8871 92.2243 59.8069 92.5404 59.6489 92.9008 59.4688 93.1858 59.1589 93.5462 58.9787 93.8623 58.8207 94.236 58.8016 94.5521 58.6436 94.9125 58.4635 95.1876 58.132 95.558 57.9734 95.9816 57.792 96.456 57.7649 96.8992 57.6383 97.239 57.5413 97.5697 57.4149 97.905 57.3032L98.5756 55.2926C98.925 54.2449 99.2638 52.935 100.252 52.2766L102.264 50.9362C103.107 48.4093 101.97 51.524 103.27 48.9255 103.428 48.6096 103.447 48.2361 103.605 47.9202 103.785 47.56 104.112 47.2829 104.276 46.9149 104.563 46.2693 104.946 44.9043 104.946 44.9043 104.894 43.279 105.241 36.3791 104.276 32.8404 104.09 32.1588 103.997 31.4176 103.605 30.8298L102.934 29.8245C102.711 28.9308 102.676 27.9675 102.264 27.1436 102.04 26.6968 101.779 26.267 101.593 25.8032 101.331 25.1472 101.239 24.4245 100.923 23.7926 100.699 23.3458 100.449 22.9113 100.252 22.4521 100.113 22.1275 100.041 21.7776 99.9168 21.4468 99.7055 20.8836 99.4575 20.3345 99.2462 19.7713 99.1221 19.4405 99.069 19.0819 98.9109 18.766 98.7306 18.4057 98.4206 18.1209 98.2403 17.7606 98.0822 17.4447 98.155 17.0051 97.905 16.7553 97.3352 16.1858 96.5639 15.8617 95.8933 15.4149L94.8874 14.7447C94.6638 14.4096 94.4748 14.0487 94.2168 13.7394 93.5864 12.9832 93.0443 12.5431 92.2051 12.0638 91.7711 11.816 91.2706 11.684 90.8639 11.3936 90.478 11.1181 90.2526 10.6512 89.858 10.3883 89.5639 10.1924 89.1682 10.2112 88.8522 10.0532 86.2523 8.75393 89.3687 9.89013 86.8404 9.04787 86.5051 8.71277 86.2291 8.30547 85.8345 8.04255 85.5404 7.84666 85.1447 7.86545 84.8287 7.70745 84.4682 7.52728 84.1832 7.2174 83.8228 7.03723 83.5067 6.87923 83.133 6.86013 82.8169 6.70213 82.4565 6.52196 82.1814 6.19055 81.8111 6.03192 81.3875 5.85048 80.913 5.82336 80.4699 5.69681 80.1301 5.59981 79.7888 5.50081 79.464 5.3617 79.0046 5.16497 78.5869 4.87704 78.1228 4.69149 77.4665 4.4291 76.7433 4.33717 76.1111 4.02128 75.6641 3.79784 75.2293 3.5478 74.7699 3.35106 74.4451 3.21196 74.0801 3.17396 73.7641 3.01596 73.4036 2.83579 73.1264 2.50934 72.7582 2.34575 71.1168 1.61664 70.9057 1.79037 69.4053 1.34043 66.9344 0.599603 65.4935 1.34043 64.7112 1.34043Z" stroke="#000000" stroke-miterlimit="8" fill="#D9D9D9" fill-rule="evenodd" transform="matrix(1.00033 0 -0 1 44.5 111.5)"/><path d="M39.9161 36.3334 39.9161 36.3334C39.4197 31.894 39.372 32.9477 39.9161 27 39.9481 26.6501 40.1748 26.343 40.2515 26 40.3991 25.3403 40.422 24.6557 40.5869 24 40.7584 23.3182 41.2578 22 41.2578 22 40.852 17.9675 41.2777 19.726 40.2515 16.6667 40.1397 16.3333 40.1122 15.9591 39.9161 15.6667 39.4689 15 38.8293 14.4268 38.5744 13.6667 38.4626 13.3333 38.3971 12.9809 38.2389 12.6667 38.0586 12.3084 37.7318 12.0328 37.5681 11.6667 37.2809 11.0245 37.2895 10.2513 36.8972 9.66667L34.8846 6.66667 32.8721 3.66667C32.6484 3.33334 32.5836 2.79339 32.2012 2.66667L31.1949 2.33333C31.0831 2 31.0804 1.60766 30.8595 1.33333 30.0669 0.348767 28.5431 0.491969 27.5052 0.333333 26.833 0.230551 26.1635 0.111076 25.4926 0 21.4675 0.111076 17.432 0.0264567 13.4172 0.333333 12.3039 0.418478 12.4061 1.47045 11.74 2 11.464 2.21953 11.0692 2.22226 10.7337 2.33333 8.81117 5.19916 11.3711 1.82656 9.05659 3.66667 6.88913 5.38982 9.90874 4.16221 7.37944 5 4.98221 8.57344 8.71545 3.15013 5.7023 7 5.20734 7.63244 4.80778 8.33334 4.36058 9 4.13692 9.33334 3.81724 9.61995 3.68972 10L3.01886 12 2.348 14 2.01258 15C1.9008 16.5556 1.79748 18.1117 1.67715 19.6667 1.00882 28.3004 1.67989 25.3222 0.670858 29.3333 0.559084 30.5556 0.479743 31.7811 0.335429 33 0.255983 33.6712 0 34.3241 0 35 0 42.5563 0.129946 50.1131 0.335429 57.6667 0.356664 58.4481 0.903282 61.0133 1.34172 61.6667 1.56537 62 1.84882 62.3006 2.01258 62.6667L3.01886 65.6667 3.35429 66.6667C3.46607 67 3.60394 67.3258 3.68972 67.6667 3.87724 68.412 4.36935 70.5131 4.69601 71L6.03773 73C6.26138 73.3334 6.58107 73.62 6.70858 74 6.9296 74.6588 7.12378 75.5301 7.71487 76 7.99093 76.2196 8.41204 76.1628 8.72116 76.3334 9.42593 76.7225 10.7337 77.6667 10.7337 77.6667 10.9574 78 11.0627 78.4544 11.4046 78.6667 12.0042 79.0392 12.7463 79.1111 13.4172 79.3334L14.4235 79.6667C18.0837 80.8792 15.0765 79.986 23.8155 80.3334 24.5158 80.5654 26.2826 81.2074 27.1698 81.3334 31.8773 82.0017 39.5832 81.9101 42.9349 82 43.7176 81.889 44.5257 81.8924 45.2829 81.6667 46.4476 81.3195 47.0906 79.8056 47.6309 79 47.8546 78.6667 48.1743 78.3801 48.3018 78 48.5255 77.3334 48.8012 76.6818 48.9727 76L49.6435 73.3334C49.8698 68.8357 50.4272 64.1153 49.3081 59.6667 49.2223 59.3258 49.0844 59 48.9727 58.6667 48.5372 55.6377 48.8873 57.0788 47.9664 54.3334L47.6309 53.3334C47.5192 53 47.4916 52.6257 47.2955 52.3334 47.0719 52 46.7884 51.6994 46.6247 51.3334 46.3375 50.6912 46.1775 50 45.9538 49.3334L44.6121 45.3334 44.2767 44.3334C44.1649 44 44.1373 43.6257 43.9412 43.3334 43.7176 43 43.4341 42.6994 43.2704 42.3334 42.9832 41.6911 42.9918 40.918 42.5995 40.3334L39.9161 36.3334Z" stroke="#000000" stroke-miterlimit="8" fill="#A6A6A6" fill-rule="evenodd" transform="matrix(1.00033 0 -0 1 80.5 30.5)"/><path d="M103.473 10 103.473 10C99.435 6.55433 102.482 8.33459 95.1018 7.66666 94.4059 7.60367 92.1612 6.8021 91.7531 6.66666 91.4183 6.55559 91.0997 6.36829 90.7485 6.33333L87.3999 6C85.7304 5.44609 85.5694 5.33585 84.0512 5 83.4956 4.87706 82.926 4.81575 82.3769 4.66666 81.6958 4.48178 81.0526 4.17039 80.3677 4L79.0282 3.66667C72.8324 4.05218 73.2387 4.219 66.3033 3.66667 65.9515 3.63863 65.6476 3.38677 65.2987 3.33333 64.1901 3.16357 63.071 3.04462 61.9501 3 57.4874 2.82226 53.0203 2.77774 48.5555 2.66667 47.6625 2.55559 46.762 2.49354 45.8766 2.33333 43.6165 1.9243 46.3961 1.79223 42.8628 1.66667 37.2841 1.46835 31.7006 1.44441 26.1195 1.33333 23.8231 0.571338 26.6733 1.47118 23.4406 0.666666 23.0981 0.581417 22.7868 0.372178 22.436 0.333333 20.7682 0.148871 19.0873 0.111076 17.413 0 16.2968 0.111076 15.173 0.163569 14.0643 0.333333 12.8486 0.519475 13.1589 0.783937 12.0552 1.33333 11.7395 1.4905 11.3662 1.5095 11.0506 1.66667 8.45401 2.95905 11.5664 1.82887 9.04137 2.66667 8.26005 3.83338 8.03677 4.44441 6.36244 5L4.35325 5.66666C3.9068 6.33333 3.14615 6.87632 3.01379 7.66666 2.61279 10.0618 3.24382 9.29175 1.67433 10.3333 0.0827935 15.0862 1.68192 10.1403 0.669731 13.6667-0.291096 17.0141 1.04689 11.8318 0 16 0.127407 16.6339 0.326533 17.9833 0.669731 18.6667 0.849767 19.025 1.15943 19.3083 1.33946 19.6667 1.49735 19.9809 1.50294 20.3595 1.67433 20.6667 2.0652 21.367 2.56734 22 3.01379 22.6667L4.35325 24.6667 5.02298 25.6667C5.21019 26.412 5.70147 28.5131 6.02758 29L7.36704 31 8.03677 32C8.26005 32.3333 8.37163 32.7777 8.7065 33L9.7111 33.6666C10.3221 34.5789 10.328 34.8655 11.3854 35.3333 12.0306 35.6187 12.8073 35.6102 13.3946 36 14.6929 36.8615 14.0174 36.5399 15.4038 37 15.6271 37.3333 15.7322 37.7877 16.0735 38 16.6722 38.3725 17.413 38.4444 18.0827 38.6666 18.4176 38.7777 18.7379 38.9503 19.0873 39 22.5419 39.4912 20.6461 39.2551 24.78 39.6666L27.7938 40.6666 28.7984 41C29.1333 41.1111 29.4606 41.2481 29.803 41.3333 30.2495 41.4444 30.7016 41.535 31.1425 41.6666 31.8186 41.8685 32.4819 42.1111 33.1517 42.3333L34.1563 42.6666C35.9422 42.5556 37.7345 42.5198 39.5141 42.3333 39.8651 42.2966 40.1657 42 40.5187 42 44.7619 42 49.0019 42.2222 53.2436 42.3333L56.2574 43.3333C56.5922 43.4444 56.9195 43.5814 57.262 43.6666L58.6014 44C60.8339 43.8889 63.072 43.8594 65.2987 43.6666 65.6504 43.6362 65.9503 43.3333 66.3033 43.3333 73.2248 43.3333 80.1444 43.5556 87.065 43.6666L98.7853 43.3333 107.827 43 122.561 42.6666C123.342 42.5556 124.126 42.4624 124.905 42.3333 125.466 42.2402 126.015 42.0748 126.579 42 127.691 41.8524 128.812 41.7777 129.928 41.6666 130.263 41.4444 130.648 41.2832 130.932 41 131.217 40.7167 131.288 40.2503 131.602 40 131.878 39.7805 132.291 39.8238 132.607 39.6666 132.967 39.4874 133.276 39.2222 133.611 39 133.723 38.6666 133.788 38.3142 133.946 38 134.126 37.6417 134.452 37.3661 134.616 37 134.903 36.3578 135.286 35 135.286 35 135.397 31.2222 135.416 27.4405 135.62 23.6667 135.64 23.3158 135.955 23.018 135.955 22.6667 135.955 20.2197 135.882 17.7664 135.62 15.3333 135.545 14.6346 135.174 14 134.951 13.3333 134.712 12.62 134.557 11.8655 133.946 11.3333 133.34 10.8057 131.937 10 131.937 10 131.183 7.74803 132.229 10.189 130.597 8.33333 130.067 7.73039 129.928 6.77774 129.258 6.33333L127.249 5C126.914 4.77774 126.626 4.46005 126.244 4.33333 124.858 3.87328 125.533 4.19485 124.235 3.33333 122.877 3.55863 122.135 3.62708 120.886 4 120.21 4.20189 119.547 4.44441 118.877 4.66666 118.542 4.77774 118.215 4.91475 117.873 5 117.426 5.11107 116.991 5.28535 116.533 5.33333 114.864 5.50824 113.184 5.55559 111.51 5.66666L108.496 6.66666 107.492 7C107.157 7.11107 106.838 7.29448 106.487 7.33333 105.483 7.44441 104.357 7.17805 103.473 7.66666 103.083 7.88252 103.473 9.61112 103.473 10Z" stroke="#000000" stroke-miterlimit="8" fill="#A6A6A6" fill-rule="evenodd" transform="matrix(1.00033 0 -0 1 13.5 169.5)"/><path d="M53.241 19.7001 53.241 19.7001C53.2374 19.6984 50.2076 18.3067 49.6035 17.6967 49.3224 17.413 49.2525 16.9458 48.9421 16.695 48.6699 16.4751 48.2617 16.5186 47.95 16.3611 47.5945 16.1816 47.335 15.8203 46.9579 15.6933 46.3219 15.4792 45.6335 15.4806 44.9738 15.3594 44.4208 15.258 43.8626 15.1749 43.3204 15.0255 42.6477 14.8403 41.9162 14.7482 41.3362 14.3577 38.4931 12.4439 42.0903 14.7384 39.3521 13.356 38.9966 13.1765 38.7155 12.8678 38.36 12.6882 38.0483 12.5308 37.6797 12.5118 37.3679 12.3543 37.0125 12.1748 36.7391 11.8495 36.3759 11.6865 35.7388 11.4007 34.9718 11.4092 34.3917 11.0187 31.5486 9.10492 35.1458 11.3994 32.4076 10.017 32.0521 9.83751 31.7787 9.51223 31.4155 9.34922 30.7784 9.06338 30.0114 9.0719 29.4314 8.68142 28.77 8.23626 28.2013 7.59958 27.4472 7.34582 27.1166 7.23455 26.7599 7.18281 26.4552 7.01192 25.7604 6.62217 25.2251 5.93008 24.471 5.67631 21.9775 4.83709 25.0511 5.9692 22.4869 4.67461 22.1752 4.51718 21.7996 4.51161 21.4948 4.34071 20.8 3.95097 20.1721 3.45027 19.5107 3.00511 19.18 2.78247 18.8957 2.46424 18.5186 2.33731 18.1879 2.22604 17.8313 2.1743 17.5266 2.00341 16.8317 1.61366 16.2965 0.921566 15.5424 0.667802L13.5583 0C11.7946 2.67121 14.1095-0.556536 11.9048 1.6695 10.4091 3.17979 12.1827 2.35508 10.2514 3.00511 8.70813 5.34241 9.59 4.56335 7.93655 5.67631 6.04115 8.54702 8.31359 4.91492 6.94448 7.67972 6.76669 8.03865 6.44454 8.31471 6.2831 8.68142 6.00001 9.32472 5.84222 10.017 5.62173 10.6848L4.96035 12.6882 4.62966 13.6899C4.48769 14.6932 4.25845 16.6226 3.96828 17.6967 3.78486 18.3759 3.52739 19.0323 3.3069 19.7001L2.64552 21.7036 2.31483 22.7053C2.17526 26.9337 2.75832 30.3393 1.65345 34.0579L0.661379 37.063 0.33069 38.0647 0 39.0664C0.152482 40.1439 0.331835 42.4071 0.992069 43.4071 1.21256 43.741 1.49201 44.0421 1.65345 44.4088 2.28212 45.8371 2.26077 46.388 2.64552 47.7478 2.74124 48.0862 2.86601 48.4156 2.97621 48.7495 3.93505 55.5269 2.71988 47.0675 3.63759 53.0902 3.75611 53.8681 3.84017 54.6512 3.96828 55.4275 4.17815 56.6992 4.3324 57.232 4.62966 58.4326 4.73985 59.9909 4.69152 61.5689 4.96035 63.1073 5.0294 63.5025 5.59048 63.7089 5.62173 64.109 5.92544 67.994 5.67078 71.9088 5.95241 75.7955 6.09865 77.8137 6.59244 77.4218 7.27517 78.8006 7.43109 79.1154 7.43661 79.4946 7.60586 79.8023 7.99186 80.5039 8.6773 81.0443 8.92862 81.8057 9.75977 84.3235 8.63855 81.22 9.92069 83.8091 10.0766 84.1239 10.0955 84.4961 10.2514 84.8108 10.4292 85.1697 10.7513 85.4458 10.9128 85.8125 11.5414 87.2408 11.5201 87.7917 11.9048 89.1515 12.8537 92.5046 11.5324 87.3135 12.5662 91.4888 12.6764 92.4905 12.7235 93.5014 12.8969 94.4939 13.0549 95.3977 13.5583 97.1651 13.5583 97.1651 13.9789 110.328 14.1063 108.772 13.5583 124.545 13.5434 124.974 12.9921 128.265 12.5662 128.552L11.5741 129.22C11.6843 130.221 11.5637 131.277 11.9048 132.225 12.0406 132.602 12.5337 132.73 12.8969 132.893 13.534 133.178 14.2197 133.338 14.881 133.56 15.2117 133.672 15.5349 133.809 15.8731 133.894 16.314 134.006 16.7605 134.096 17.1959 134.228 17.8636 134.43 18.5186 134.673 19.18 134.896 19.5107 135.007 19.882 135.035 20.1721 135.23 22.7362 136.956 21.4021 136.312 24.1404 137.233 24.471 137.345 24.7844 137.546 25.1324 137.567L30.7541 137.901C31.0848 138.012 31.411 138.138 31.7462 138.235 36.2981 139.548 39.1597 138.735 45.3045 138.903 50.0443 138.791 54.7874 138.777 59.5241 138.569 59.8724 138.554 60.2045 138.392 60.5162 138.235 60.8717 138.055 61.1348 137.704 61.5083 137.567 63.4481 136.855 65.4995 136.826 67.4607 136.232 68.1284 136.029 68.7835 135.786 69.4448 135.564L70.4369 135.23C70.5471 134.896 70.5743 134.521 70.7676 134.228 71.2768 133.457 72.0197 133.051 72.7517 132.559 72.9722 132.225 73.114 131.821 73.4131 131.557 74.0113 131.028 75.3973 130.221 75.3973 130.221 75.5074 129.887 75.4814 129.469 75.7279 129.22 75.9745 128.971 76.4083 129.043 76.72 128.886 77.0755 128.706 77.3814 128.441 77.7121 128.218 77.9326 127.884 78.0925 127.5 78.3735 127.216 78.7632 126.823 79.3433 126.642 79.6962 126.215 81.6929 123.795 77.9807 126.59 81.019 124.545 81.9009 121.874 80.5781 124.99 82.3417 123.209 82.5883 122.96 82.4791 122.501 82.6724 122.208 82.9319 121.815 83.3602 121.565 83.6645 121.206 84.0232 120.783 84.3259 120.316 84.6566 119.87 84.7668 119.537 84.8313 119.183 84.9873 118.869 85.165 118.51 85.4872 118.234 85.6486 117.867 85.9317 117.224 86.0895 116.531 86.31 115.864L86.6407 114.862 86.9714 113.86C86.8612 105.624 86.9464 97.3827 86.6407 89.1515 86.5987 88.022 85.7701 86.6029 84.9873 85.8125 84.7062 85.5288 84.3259 85.3674 83.9952 85.1447 83.885 84.8108 83.8204 84.4578 83.6645 84.143 83.4867 83.7841 83.1597 83.5101 83.0031 83.1413 82.8241 82.7195 82.8515 82.2275 82.6724 81.8057 82.5159 81.4369 82.2082 81.1524 82.011 80.804 81.7665 80.3719 81.5942 79.9005 81.3497 79.4684 81.1525 79.12 80.8661 78.8256 80.6883 78.4667 80.5324 78.1519 80.5135 77.7798 80.3576 77.465 80.0888 76.9222 78.9663 75.5058 78.7041 75.1277 78.2483 74.4702 77.8583 73.7663 77.3814 73.1243 77.0507 72.6791 76.6815 72.2606 76.3893 71.7887 76.1281 71.3665 75.9725 70.8852 75.7279 70.4531 75.5308 70.1047 75.2637 69.7998 75.0666 69.4514 74.822 69.0192 74.6588 68.5426 74.4052 68.1158 73.9962 67.4276 73.5233 66.7802 73.0824 66.1124L72.4211 65.1107C71.7328 62.331 72.5708 65.0792 71.429 62.7734 70.8899 61.6847 71.1486 61.0506 70.7676 59.7683 70.6259 59.2915 70.2621 58.9048 70.1062 58.4326 69.8188 57.562 69.7323 56.6321 69.4448 55.7614L68.7835 53.758C68.6733 53.4241 68.6461 53.0492 68.4528 52.7563 66.5574 49.8856 68.8298 53.5177 67.4607 50.7529 67.1732 50.1724 66.8137 49.6309 66.4686 49.0834 66.0419 48.4063 65.5868 47.7478 65.1459 47.08L64.4845 46.0783C64.3743 45.6331 64.357 45.1532 64.1538 44.7427 63.9073 44.245 63.4351 43.8902 63.1617 43.4071 62.9888 43.1015 62.987 42.7202 62.831 42.4054 62.6533 42.0465 62.3311 41.7704 62.1697 41.4037 61.8866 40.7604 61.895 39.986 61.5083 39.4003 61.0674 38.7325 60.4369 38.1583 60.1855 37.3969 60.0753 37.063 60.0241 36.7029 59.8548 36.3952 59.4688 35.6936 58.7834 35.1532 58.5321 34.3918L57.8707 32.3884C57.7605 32.0545 57.6959 31.7014 57.54 31.3867 57.0991 30.4962 56.529 29.6599 56.2173 28.7155L55.2252 25.7104 54.8945 24.7087C54.7843 24.3748 54.7571 23.9998 54.5638 23.707 53.1799 21.6109 53.4615 20.368 53.241 19.7001Z" stroke="#000000" stroke-miterlimit="8" fill="#595959" fill-rule="evenodd" transform="matrix(1.00033 0 -0 1 143.5 74.5)"/><path d="M21.1104 0 21.1104 0C20.2168 0.444409 19.2482 0.763465 18.4297 1.33333 18.0998 1.56304 18.0626 2.0695 17.7595 2.33333L14.7438 4.33333C10.2811 7.29291 16.8952 3.03328 12.7333 5.33333 12.0292 5.72241 10.7227 6.66667 10.7227 6.66667 10.4993 7 10.3671 7.41638 10.0526 7.66667 9.7768 7.88619 9.36319 7.84283 9.04731 8 8.68711 8.17921 8.35139 8.41018 8.04206 8.66667 5.46206 10.8055 8.52743 8.67811 6.03154 10.3333 5.80812 10.6667 5.64611 11.0501 5.36137 11.3333 5.07663 11.6166 4.62133 11.6985 4.35611 12 3.82568 12.6029 3.46252 13.3333 3.01577 14 2.79235 14.3333 2.47299 14.6199 2.3456 15 2.23394 15.3333 2.18201 15.6928 2.01051 16 1.61939 16.7004 0.924837 17.2399 0.670171 18L0 20C0.11166 24.6667 0.0423211 29.3411 0.335086 34 0.458566 35.9657 0.997658 35.6515 1.67543 37 1.83342 37.3142 1.85252 37.6858 2.01051 38 2.19067 38.3583 2.50053 38.6417 2.68069 39 2.83868 39.3142 2.84427 39.6928 3.01577 40 4.16562 42.0588 3.8929 41.6928 5.36137 42.6667 5.47303 43 5.53847 43.3524 5.69646 43.6667 6.3946 45.0555 6.86931 45 8.37714 46 8.71223 46.2223 9.00035 46.5399 9.3824 46.6667L11.3929 47.3333C11.728 47.4444 12.0485 47.617 12.3982 47.6667 13.18 47.7777 13.9555 47.951 14.7438 48 17.533 48.1734 20.3286 48.2223 23.1209 48.3333L26.1367 49.3333 27.1419 49.6667 28.1472 50C33.2358 49.8466 39.0079 49.8057 44.2313 49.3333 45.0179 49.2622 45.7951 49.1111 46.5769 49L48.5874 48.3333C48.9225 48.2223 49.2988 48.1949 49.5927 48 52.0886 46.3448 49.0232 48.4721 51.6032 46.3333 51.9125 46.0768 52.2734 45.8889 52.6085 45.6667 52.881 44.8533 52.9641 44.3129 53.6137 43.6667 53.8985 43.3834 54.2839 43.2223 54.619 43 54.906 42.1432 55.1208 41.5875 55.2891 40.6667 55.3282 40.4532 55.5292 37.9751 55.9593 37.3333 56.2222 36.9411 56.6736 36.7054 56.9646 36.3333 59.7702 32.745 57.0279 35.6037 59.3102 33.3333 59.4218 32.7777 59.5071 32.2163 59.6453 31.6667 59.731 31.3258 59.9803 31.0181 59.9803 30.6667 59.9803 29.3287 59.8664 27.9865 59.6453 26.6667 59.337 24.8266 58.664 24.2024 57.6347 22.6667L56.2944 20.6667 55.6242 19.6667C55.4008 19.3333 55.0814 19.0467 54.9541 18.6667 54.7306 18 54.6757 17.2513 54.2839 16.6667 54.0605 16.3333 53.7773 16.0328 53.6137 15.6667 53.3269 15.0245 53.3354 14.2513 52.9435 13.6667 52.7201 13.3333 52.4535 13.025 52.2734 12.6667 52.1154 12.3524 52.1098 11.9739 51.9383 11.6667 51.5472 10.9663 51.0447 10.3333 50.5979 9.66667 50.3745 9.33333 50.2629 8.88892 49.9278 8.66667L48.9225 8C47.1354 5.33333 49.481 8.55559 47.2471 6.33333 46.9623 6.05008 46.8914 5.58362 46.5769 5.33333 46.3011 5.11381 45.8875 5.15717 45.5717 5 45.2115 4.82079 44.9266 4.51255 44.5664 4.33333 44.2505 4.17617 43.877 4.15717 43.5611 4 43.2009 3.82079 42.9239 3.49606 42.5559 3.33333L39.5401 2.33333 38.5349 2C38.1998 1.88892 37.8819 1.69165 37.5296 1.66667 29.3828 1.08777 34.4053 1.38362 22.4507 1 19.9945 0.650919 21.3338 0.166719 21.1104 0Z" stroke="#000000" stroke-miterlimit="8" fill="#595959" fill-rule="evenodd" transform="matrix(1.00033 0 -0 1 230.5 164.5)"/><path d="M5.07149 0 5.07149 0C6.0224 0.119961 6.9758 0.216338 7.92421 0.359997 9.14087 0.544248 10.2157 0.808548 11.4109 1.07999 12.864 3.55575 12.4378 2.41907 12.9957 4.31996 11.3052 7.19994 13.524 3.71993 11.4109 6.11995 11.1415 6.42586 11.0744 6.92963 10.7769 7.19994 10.5161 7.43703 10.1248 7.3902 9.82602 7.55994 7.36824 8.95571 10.3143 7.73512 7.92421 8.63993 7.07893 8.51997 6.24033 8.27993 5.38846 8.27993 4.27273 8.27993 3.5163 8.6287 2.53575 8.99993 2.3244 8.63993 2.21878 8.15997 1.90181 7.91993-0.55437 6.0602 1.59153 9.19132 0 6.47995 0.105623 5.75995 0.113709 5.01241 0.316968 4.31996 0.744451 2.86354 0.933135 3.43001 1.90181 2.87998 2.24254 2.68643 2.52606 2.38256 2.85271 2.15998 3.05527 2.02188 4.70171 0.359997 5.07149 0Z" stroke="#000000" stroke-miterlimit="8" fill="#D9D9D9" fill-rule="evenodd" transform="matrix(1.00033 0 -0 1 243.5 158.5)"/></g></svg>