<svg width="301" height="250" xmlns="http://www.w3.org/2000/svg" xmlns:xlink="http://www.w3.org/1999/xlink" overflow="hidden"><defs><clipPath id="clip0"><path d="M0 0 301 0 301 250 0 250Z" fill-rule="evenodd" clip-rule="evenodd"/></clipPath></defs><g clip-path="url(#clip0)"><rect x="0" y="0" width="300.901" height="250" fill="#D3D3C3" transform="scale(1.00033 1)"/><path d="M59.7975 2.34076 59.7975 2.34076C56.9183 2.22933 54.0301 2.26125 51.1601 2.00637 50.2505 1.92559 49.3686 1.62827 48.5024 1.33758 47.838 1.11461 47.2088 0.699438 46.5091 0.668789 33.8887 0.116485 41.4171 0.391373 23.919 0 21.372 0.11143 18.82 0.137549 16.2782 0.334395 14.6614 0.459622 15.751 0.758944 14.6172 1.67197 14.3438 1.8922 13.9337 1.8487 13.6205 2.00637 11.0446 3.30287 14.1323 2.16909 11.6273 3.00955L10.2985 5.01592C10.0769 5.35032 9.76033 5.63784 9.63404 6.01911 9.52334 6.3535 9.45846 6.70706 9.30183 7.02229 8.0138 9.61519 9.14017 6.50716 8.30521 9.02866 8.08234 11.7204 8.24598 12.3484 7.64079 14.379 7.43958 15.0542 7.36487 15.7988 6.97637 16.3853 6.75487 16.7197 6.47414 17.0213 6.31196 17.3885 6.02756 18.0328 6.03604 18.8084 5.64754 19.3949 5.42603 19.7293 5.1453 20.0308 4.98312 20.3981 4.69873 21.0423 4.54021 21.7357 4.31871 22.4044L3.9865 23.4076 3.65429 24.4108C3.54359 24.7452 3.51628 25.1207 3.32208 25.414 2.26917 27.0037 2.78396 26.0359 1.99325 28.4236L1.66104 29.4267 1.32883 30.4299C1.21813 31.4331 1.1384 32.4403 0.996625 33.4395 0.91679 34.0021 0.717988 34.5457 0.664416 35.1114-0.0704177 42.8783 0.797195 38.1213 0 42.1337 0.110701 46.7038 0.125978 51.2772 0.332208 55.8439 0.348112 56.196 0.646001 56.4951 0.664416 56.8471 0.86824 60.7446 0.820528 64.652 0.996625 68.5509 1.04308 69.5801 1.3282 72.004 1.66104 73.2324 1.8453 73.9126 2.10395 74.57 2.32546 75.2388L2.98987 77.2452 3.32208 78.2484C3.43278 78.5828 3.46009 78.9582 3.65429 79.2516 4.5129 80.548 4.19242 79.8735 4.65091 81.2579 4.76162 84.156 4.78484 87.0588 4.98312 89.9522 5.00719 90.3038 5.24669 90.6097 5.31533 90.9554 5.57953 92.285 5.65298 93.6525 5.97975 94.9681 6.11274 95.5036 6.73373 98.1492 6.97637 98.312 13.2611 102.529 6.45792 98.2183 9.96625 99.984 13.125 101.574 7.81375 99.5962 12.9561 101.322 13.2883 101.433 13.6036 101.629 13.9527 101.656 16.4806 101.852 18.2368 101.893 20.5969 102.325 22.0249 102.586 21.6771 102.635 22.9224 102.994 23.3614 103.12 23.7952 103.305 24.2512 103.328 28.2342 103.528 32.2242 103.551 36.2107 103.662 38.5362 103.551 40.8658 103.508 43.1871 103.328 43.7501 103.284 44.2835 102.994 44.8481 102.994 47.3583 102.994 57.6657 103.512 60.7941 103.662 61.4585 103.774 62.1268 103.864 62.7873 103.997 64.4813 104.338 64.3407 104.583 66.4416 104.666 71.3116 104.858 76.1864 104.889 81.0588 105 82.4417 104.884 85.3843 104.747 87.0385 104.331 87.718 104.16 88.3674 103.885 89.0318 103.662 89.364 103.551 89.737 103.523 90.0284 103.328 91.6077 102.268 90.6463 102.786 93.0183 101.99 93.3505 101.879 93.6657 101.681 94.0149 101.656L98.6658 101.322C99.3302 101.099 100.076 101.044 100.659 100.653L103.649 98.6464 104.646 97.9777 105.642 97.3089C107.165 95.0092 106.719 96.065 107.303 94.2993 107.414 92.1815 107.403 90.0536 107.635 87.9458 107.736 87.0323 108.187 86.1827 108.3 85.2707 108.702 82.0315 108.457 83.4767 108.964 80.9235 108.854 76.6878 108.837 72.4486 108.632 68.2165 108.615 67.8644 108.392 67.5534 108.3 67.2133 107.59 64.5946 107.698 64.918 107.303 62.5318 107.193 59.6337 107.151 56.7321 106.971 53.8376 106.946 53.4401 106.435 50.6774 106.307 50.1592 106.222 49.8172 106.071 49.4949 105.974 49.156 105.578 47.7593 105.571 47.3886 105.31 45.8121 105.199 42.3567 105.163 38.8981 104.978 35.4458 104.941 34.7688 104.766 34.1066 104.646 33.4395 104.474 32.4914 104.248 31.3692 103.981 30.4299 103.028 27.0719 104.355 32.2706 103.317 28.0892 103.206 26.1942 103.163 24.2941 102.985 22.4044 102.918 21.6969 102.129 19.4874 101.988 19.0605 101.877 18.7261 101.85 18.3506 101.656 18.0573 101.434 17.7229 101.17 17.4136 100.991 17.0541 100.835 16.7389 100.878 16.3262 100.659 16.0509 100.41 15.7371 99.9691 15.6395 99.6625 15.3822 99.3016 15.0794 99.0765 14.6087 98.6658 14.379 98.0536 14.0366 97.337 13.9331 96.6726 13.7102 96.3404 13.5988 95.9674 13.5713 95.676 13.3758 92.8198 11.4592 96.4335 13.7571 93.6827 12.3726 93.3256 12.1928 93.0432 11.8836 92.6861 11.7038 92.3729 11.5462 91.9956 11.5406 91.6895 11.3694 90.9915 10.9791 90.4538 10.286 89.6962 10.0318 87.1912 9.19138 90.2789 10.3252 87.703 9.02866 87.3898 8.87099 87.0195 8.85193 86.7063 8.69426 86.3492 8.51448 86.0849 8.16281 85.7097 8.02547 84.8515 7.71141 83.9183 7.64737 83.052 7.35668 82.7198 7.24525 82.3988 7.09138 82.0554 7.02229 80.7344 6.75635 79.3469 6.78226 78.0689 6.3535L73.0858 4.68153 72.0892 4.34713C71.757 4.2357 71.441 4.04781 71.0926 4.01274L67.7705 3.67834C67.4383 3.56691 67.1172 3.41304 66.7738 3.34395 63.7817 2.74162 60.9602 2.50791 59.7975 2.34076Z" stroke="#000000" stroke-miterlimit="8" fill="#595959" fill-rule="evenodd" transform="matrix(1.00033 0 -0 1 32.5 92.5)"/><path d="M32.9892 5.77359 32.9892 5.77359 29.657 3.39623C28.9984 2.93156 28.3241 2.49053 27.6576 2.03774L26.6579 1.35849C26.3247 1.13204 26.0382 0.808356 25.6583 0.679246 23.5996-0.02011 25.0081 0.375243 21.3264 0 16.6612 0.113172 11.9871 0.023212 7.33094 0.339623 6.16869 0.418565 6.34417 1.33228 5.99804 2.03774 5.44263 3.16978 5.33159 3.05661 4.33192 3.73585 3.44328 6.45283 4.77618 3.28306 2.99902 5.09434 2.7506 5.34754 2.88525 5.8337 2.66579 6.11321 2.41559 6.43198 1.99935 6.56601 1.66612 6.79246L0.666449 9.84906C0.555409 10.1887 0.418446 10.5206 0.333224 10.8679L0 12.2264C0.0846967 13.3493 0.0219351 17.1845 0.999673 18.6793L4.33192 23.7736 4.99836 24.7925C5.22055 25.1321 5.53814 25.4241 5.66481 25.8113 6.30209 27.7599 5.5417 25.9411 6.99771 27.8491 8.86922 30.3014 7.42004 29.5775 9.33028 30.2264 9.44132 30.5661 9.41508 30.9921 9.66351 31.2453 10.9555 32.5621 12.0361 32.7305 13.6622 33.283 13.9954 33.3962 14.3696 33.4241 14.6619 33.6227 14.9951 33.8491 15.2956 34.1361 15.6615 34.3019 16.3035 34.5926 17.0764 34.584 17.6609 34.9812 18.9529 35.8589 18.2806 35.5313 19.6602 36 21.4374 35.8868 23.2275 35.9056 24.9918 35.6604 25.6879 35.5637 26.2922 35.0524 26.9912 34.9812 28.1019 34.868 29.2169 34.7919 30.3234 34.6415 32.9553 34.2838 31.0669 34.4521 32.9892 33.9623 33.5386 33.8223 34.0999 33.7358 34.6553 33.6227 34.9886 33.3962 35.2968 33.126 35.655 32.9434 35.9691 32.7833 36.4063 32.857 36.6547 32.6038 36.9031 32.3506 36.8769 31.9245 36.9879 31.5849 36.8769 27.5094 36.8649 23.4299 36.6547 19.3585 36.5316 16.9737 36.7292 14.492 35.9882 12.2264 35.766 11.5472 35.7115 10.7844 35.3218 10.1887 33.9273 8.05671 33.9889 8.96733 32.9892 5.77359Z" stroke="#000000" stroke-miterlimit="8" fill="#D9D9D9" fill-rule="evenodd" transform="matrix(1.00033 0 -0 1 48.5 56.5)"/><path d="M5.4028 0 5.4028 0C8.83041 0.108809 12.2675 0.0536848 15.6857 0.326531 16.3828 0.38217 17.676 0.979593 17.676 0.979593 18.4096 1.70177 18.8727 2.02953 19.3345 2.93878 19.4909 3.24659 19.5098 3.61056 19.6662 3.91837 19.8445 4.26938 20.1677 4.53935 20.3296 4.89797 20.6136 5.52707 20.993 6.85715 20.993 6.85715 20.5624 9.82432 20.9086 8.41267 19.9979 11.1021 19.8874 11.4286 19.9135 11.8382 19.6662 12.0816 19.3345 12.4082 18.9714 12.7065 18.6711 13.0612 18.4158 13.3627 18.319 13.7957 18.0077 14.0408 17.7347 14.2559 17.3182 14.2002 17.0125 14.3674 13.5908 16.2387 16.2789 15.2612 14.0272 16 13.0321 15.8912 12.0237 15.8668 11.0418 15.6735 10.356 15.5385 9.74383 15.1178 9.05158 15.0204 7.17239 14.7561 6.96679 14.8072 5.4028 14.3674 3.45738 13.8202 5.35088 14.3419 3.41256 13.3878 2.59599 12.9859 1.19164 12.8601 0.427197 12.7347-0.0304021 8.22982-0.244575 7.69009 0.427197 1.95919 0.472852 1.5693 0.79056 1.23804 1.09061 0.979593 2.74716-0.44727 4.68412 0.163214 5.4028 0Z" stroke="#000000" stroke-miterlimit="8" fill="#A6A6A6" fill-rule="evenodd" transform="matrix(1.00033 0 -0 1 56.5 41.5)"/><path d="M4.95706 0.383162 4.95706 0.383162C5.94847 0.272703 6.9531-0.144599 7.9313 0.0516799 8.27291 0.120169 8.04413 0.77332 8.26177 1.04613 8.55612 1.41509 9.74197 2.01092 10.2446 2.04057 13.6554 2.24187 17.0744 2.2616 20.4892 2.37206 22.2608 2.96444 20.7402 2.50173 23.133 3.03502 23.5764 3.13389 24.0114 3.26763 24.4548 3.3665 25.0032 3.48876 25.5653 3.54973 26.1072 3.69799 26.7794 3.88184 27.4291 4.13993 28.09 4.36095L29.0814 4.69243C29.4119 4.80289 29.783 4.83014 30.0728 5.02392L32.0557 6.34985C32.1658 6.68133 32.217 7.03881 32.3861 7.34429 32.7719 8.04077 33.708 9.33319 33.708 9.33319 33.8478 10.4553 33.975 12.884 34.6994 13.9739 36.2145 16.2536 35.7702 15.207 36.3518 16.9573 36.4619 18.3937 36.4583 19.8435 36.6823 21.2666 36.7909 21.9569 37.1228 22.5925 37.3432 23.2555L37.6737 24.2499C37.7838 24.5814 37.9359 24.9017 38.0041 25.2443L38.3346 26.9018C38.4447 28.2277 38.6062 29.5504 38.6651 30.8795 38.8265 34.524 38.6935 38.1831 38.9955 41.8185 39.0285 42.2155 39.4788 42.4566 39.6565 42.8129 39.8123 43.1254 39.8768 43.4759 39.987 43.8074 39.8768 49.553 39.9524 55.3054 39.6565 61.0444 39.6205 61.7424 39.2159 62.3704 38.9955 63.0333 38.7778 63.6885 38.5865 64.5549 38.0041 65.0222 37.7322 65.2405 37.3243 65.1974 37.0127 65.3537 36.6575 65.5319 36.3843 65.8549 36.0213 66.0167 35.3846 66.3005 34.6994 66.4586 34.0385 66.6797 31.6845 67.4668 33.3944 66.9843 28.751 67.3426 24.9885 68.6006 27.4636 67.9646 21.1501 68.3371 20.5993 68.4475 20.0461 68.5463 19.4978 68.6685 19.0544 68.7674 18.6301 69 18.1759 69 16.08 69 13.9899 68.779 11.8969 68.6685 11.236 68.4475 10.4938 68.3932 9.91412 68.0056 8.63283 67.1488 9.2995 67.4686 7.9313 67.0111 7.82118 66.6797 7.76997 66.3222 7.60083 66.0167 7.21509 65.3202 6.5301 64.7837 6.27894 64.0278 6.16882 63.6963 6.14166 63.3241 5.94847 63.0333 5.6892 62.6433 5.24402 62.4089 4.95706 62.0389 4.46942 61.41 3.88634 60.8059 3.63518 60.05L2.97424 58.0611C3.27494 53.2349 3.53723 52.9658 2.97424 48.4481 2.93104 48.1014 2.72828 47.7927 2.64377 47.4537 2.50752 46.9071 2.42342 46.3488 2.3133 45.7963 2.20317 44.5808 2.13375 43.3609 1.98282 42.15 1.91319 41.5909 1.73781 41.0494 1.65235 40.4925 1.51736 39.6121 1.48072 38.7172 1.32188 37.8407 1.08457 36.5313 0.935206 37.0651 0.330471 35.8518 0.174655 35.5393 0.110122 35.1888 0 34.8573 0.110122 32.2055 0.252719 29.5548 0.330471 26.9018 0.472964 22.0408 0.370544 17.1708 0.660942 12.3165 0.70268 11.619 1.10153 10.9906 1.32188 10.3276 1.43201 9.99615 1.45917 9.62395 1.65235 9.33319 1.8727 9.00171 2.15196 8.7028 2.3133 8.33874 2.5962 7.7001 2.58777 6.93127 2.97424 6.34985 3.19459 6.01836 3.4575 5.71173 3.63518 5.3554 3.79099 5.04292 3.80983 4.67343 3.96565 4.36095 4.14332 4.00462 4.44892 3.72284 4.62659 3.3665 4.78241 3.05402 4.80125 2.68454 4.95706 2.37206 5.13474 2.01573 4.95706 0.714645 4.95706 0.383162Z" stroke="#000000" stroke-miterlimit="8" fill="#D9D9D9" fill-rule="evenodd" transform="matrix(1.00033 0 -0 1 140.5 127.5)"/><path d="M10.6809 24.3659 10.6809 24.3659C11.6823 24.2546 12.6912 24.1978 13.6849 24.0321 14.032 23.9743 14.3351 23.7209 14.6863 23.6983 17.7971 23.4976 20.9168 23.4757 24.0321 23.3645 24.7463 23.1264 25.5019 22.9722 26.0348 22.3632 27.2707 20.9506 27.2452 20.7344 27.7036 19.3592 27.5924 15.3538 27.5751 11.3448 27.3699 7.34314 27.3519 6.9918 27.2559 6.6165 27.0361 6.3418 26.7855 6.02852 26.3685 5.8968 26.0348 5.67424 25.4868 4.03037 26.0933 5.16669 24.6996 4.00535 23.8013 3.25674 23.7624 2.81005 22.697 2.33645 22.0539 2.05072 21.3618 1.89145 20.6943 1.66889L19.693 1.33512C19.3592 1.22389 19.033 1.0867 18.6916 1.00134 18.2466 0.890112 17.7959 0.799387 17.3565 0.667558 16.6825 0.465398 15.3538 0 15.3538 0 13.4624 0.111225 11.5658 0.154116 9.67959 0.333779 9.22291 0.377302 8.76614 0.486844 8.34447 0.667558 7.97579 0.825564 7.70971 1.17217 7.34314 1.33512 6.70007 1.62085 5.34046 2.00267 5.34046 2.00267 5.11791 2.33645 4.98618 2.75339 4.6729 3.00401 4.39821 3.22383 3.9204 3.08895 3.67157 3.33779 3.1043 3.90506 2.78146 4.6729 2.33645 5.34046 2.14134 5.63324 2.22249 6.0671 2.00267 6.3418 1.75205 6.65508 1.33512 6.7868 1.00134 7.00936L0.333779 9.01203 0 10.0134C0.111225 10.7921 0.107755 11.5963 0.333779 12.3498 0.448998 12.7341 0.821885 12.9924 1.00134 13.3512 1.15871 13.6658 1.25879 14.009 1.33512 14.3525 1.48198 15.0131 1.50479 15.6986 1.66889 16.3552 1.83952 17.0379 2.1139 17.6903 2.33645 18.3578L3.00401 20.3605 3.33779 21.3618C3.44901 21.6956 3.37879 22.1681 3.67157 22.3632L5.67424 23.6983C6.33812 24.1409 6.84778 24.6075 7.67691 24.6996L10.6809 24.3659Z" stroke="#000000" stroke-miterlimit="8" fill="#A6A6A6" fill-rule="evenodd" transform="matrix(0.998054 0.0673773 -0.0673554 0.997729 186.172 146.959)"/><path d="M8.01709 0.985715 8.01709 0.985715C7.35092 1.75235 6.78369 2.61491 6.01859 3.28572 5.75621 3.51577 5.26766 3.36933 5.01934 3.61429 4.77102 3.85924 4.90562 4.32959 4.68625 4.6 4.43615 4.90839 4.02009 5.03806 3.687 5.25715L3.02083 7.22858C2.90984 7.55715 2.88246 7.92608 2.68775 8.21429 2.46566 8.54286 2.18419 8.83914 2.02158 9.2 1.73644 9.83304 1.74494 10.5951 1.35542 11.1714 1.13332 11.5 0.851855 11.7963 0.689247 12.1571 0.404107 12.7902 0.0230798 14.1286 0.0230798 14.1286 0.134073 16.2095-0.258914 18.3779 0.356164 20.3714 0.876823 22.0589 4.9116 21.9379 5.6855 22.0143 6.12958 22.1238 6.56789 22.2597 7.01784 22.3429 8.34545 22.5884 11.0148 23 11.0148 23L60.6443 22.6714C64.9756 22.626 69.3119 22.615 73.6346 22.3429 74.5484 22.2853 75.4307 21.9713 76.2993 21.6857 76.6324 21.5762 76.9483 21.3818 77.2985 21.3572 80.0694 21.1619 82.85 21.1381 85.6256 21.0286 88.9838 19.9244 83.7748 21.6091 87.9572 20.3714 88.6298 20.1724 89.3715 20.0985 89.9557 19.7143L91.9542 18.4C92.0652 18.0714 92.1303 17.724 92.2873 17.4143 92.4664 17.0611 92.9202 16.8221 92.9535 16.4286 93.037 15.4402 92.7732 14.4517 92.6204 13.4714 92.5507 13.0251 92.4189 12.5897 92.2873 12.1571 92.0856 11.4937 91.6211 10.1857 91.6211 10.1857 91.8185 8.4341 92.2829 7.43751 91.6211 5.91429 91.0086 4.50438 91.1168 5.1727 89.9557 4.6 89.5977 4.42335 89.264 4.19568 88.9565 3.94286 88.5946 3.64533 88.369 3.18285 87.9572 2.95714 87.3434 2.62071 86.6249 2.51908 85.9587 2.3L84.9595 1.97143 80.9624 0.657143 79.9632 0.328572 78.964 0C77.739 0.0268032 64.9157 0.00776153 59.9782 0.657143 59.6302 0.702884 59.312 0.876225 58.9789 0.985715L38.6608 0.657143C33.2193 0.657143 27.7787 0.823137 22.3397 0.985715 20.4499 1.04222 18.5675 1.26989 16.6773 1.31429 13.9023 1.37948 9.46042 1.04046 8.01709 0.985715Z" stroke="#000000" stroke-miterlimit="8" fill="#595959" fill-rule="evenodd" transform="matrix(1.00033 0 -0 1 182.5 171.5)"/></g></svg>