<svg width="301" height="250" xmlns="http://www.w3.org/2000/svg" xmlns:xlink="http://www.w3.org/1999/xlink" overflow="hidden"><defs><clipPath id="clip0"><path d="M0 0 301 0 301 250 0 250Z" fill-rule="evenodd" clip-rule="evenodd"/></clipPath></defs><g clip-path="url(#clip0)"><rect x="0" y="0" width="300.901" height="250" fill="#D3D3C3" transform="scale(1.00033 1)"/><path d="M41.736 10.0983 41.736 10.0983C41.6526 9.34095 41.5742 8.58301 41.4861 7.82625 41.4066 7.14401 41.3688 5.82206 40.9863 5.04917 40.8519 4.77776 40.6531 4.54431 40.4864 4.29188 40.3081 3.7515 40.1927 3.18026 39.7366 2.77707 39.2846 2.37749 38.8263 1.88619 38.2372 1.76724 36.5709 1.43063 36.6137 1.39659 34.4884 1.26237 32.6574 1.14671 30.823 1.09401 28.9903 1.00983 28.7404 0.841582 28.5092 0.640675 28.2405 0.50497 28.0049 0.386017 27.754 0.264624 27.4907 0.252538 24.0777 0.0958415 20.6598 0.0841794 17.2442 0 15.1615 0.0841794 13.0688 0.0282012 10.9963 0.252538 10.1826 0.34064 10.2271 1.09009 9.74666 1.51481 9.29463 1.91439 8.24721 2.52464 8.24721 2.52464 8.16388 2.77707 8.12526 3.04944 7.99732 3.28204 7.9969 3.28289 6.74798 5.17513 6.49777 5.55414 6.33121 5.80658 6.09297 6.02371 5.99799 6.31155 5.36933 8.21608 6.21755 5.86754 5.24822 7.82625 4.21402 9.91589 5.9304 7.17136 4.49844 9.34105 4.41511 9.59348 4.36631 9.86034 4.24855 10.0983 3.93915 10.7233 3.64151 11.0722 2.999 11.3607 2.51748 11.5769 1.49945 11.8656 1.49945 11.8656 1.33289 12.118 1.134 12.3516 0.999665 12.623 0.429672 13.7746 0.547323 16.3381 0.49978 16.9148-0.0743058 23.875 0.607356 13.6612 0 23.4787 0.0833317 31.7257 0.0898387 39.9739 0.24989 48.2196 0.256607 48.5665 0.432401 48.8893 0.49978 49.2295 0.59917 49.7315 0.626772 50.2477 0.74967 50.7443 0.877502 51.2606 1.08289 51.7541 1.24956 52.259 1.33289 52.5114 1.44781 52.7555 1.49945 53.0164 1.80097 54.5396 1.615 53.8716 1.99933 55.0361 2.08266 55.7093 2.16043 56.3832 2.24922 57.0557 2.3271 57.6456 2.44055 58.2308 2.49911 58.823 2.60721 59.9147 2.57961 61.0212 2.749 62.1049 3.04643 64.0079 3.1262 63.1194 3.74867 64.377 3.86653 64.615 3.8808 64.8964 3.99866 65.1344 4.133 65.4058 4.37649 65.6146 4.49844 65.8918 4.97377 66.9723 4.9574 67.3878 5.24822 68.4163 5.32063 68.6723 5.42569 68.9178 5.49811 69.1737 5.59246 69.5074 5.52183 69.9224 5.748 70.1836 6.14356 70.6403 6.74766 70.8568 7.24755 71.1934 7.49744 71.3617 7.71238 71.6023 7.99732 71.6983L9.49677 72.2032C9.74666 72.2874 9.98574 72.418 10.2465 72.4557L11.996 72.7081C12.2459 72.7923 12.4858 72.9169 12.7457 72.9606 14.9891 73.3384 14.4212 72.9886 15.9946 73.4655 16.7517 73.6949 17.4941 73.9705 18.2439 74.2229L18.9936 74.4753C19.4934 74.812 19.9232 75.2933 20.4931 75.4852L22.7423 76.2426 24.2419 76.7474 24.9916 77C26.4079 76.9158 27.8335 76.9328 29.2402 76.7474 29.7626 76.6786 30.7396 76.2426 30.7396 76.2426 30.9895 76.0742 31.215 75.8608 31.4894 75.7376 35.0356 74.1455 40.9217 75.042 43.4854 74.9803 43.9309 74.924 45.754 74.9995 46.2345 74.2229 46.5138 73.7716 46.442 73.151 46.7343 72.7081L48.2338 70.436C48.4004 70.1836 48.6386 69.9665 48.7336 69.6786 49.3285 67.8761 48.9413 68.6068 49.7333 67.4065 50.2848 64.6211 49.9646 65.6961 50.4831 64.1246 50.5664 63.3672 50.6182 62.6056 50.7329 61.8525 50.7852 61.5095 50.9941 61.1894 50.9829 60.8426 50.7882 54.7448 51.1583 56.0727 50.2332 53.2688 50.1498 52.1748 50.0435 51.0824 49.9833 49.9869 49.8769 48.0526 49.8804 46.112 49.7333 44.1803 49.713 43.9149 49.5405 43.6826 49.4834 43.4229 49.3735 42.9232 49.3052 42.4149 49.2335 41.9082 49.203 41.692 48.9727 38.7029 48.4837 38.3737L47.7339 37.8689C47.5674 37.1956 47.3689 36.5296 47.2342 35.8492 47.1508 35.4284 47.0961 35.0009 46.9843 34.5869 46.8456 34.0735 46.4844 33.0721 46.4844 33.0721 46.4011 32.2306 46.3618 31.3834 46.2345 30.5476 46.1944 30.2845 46.057 30.0461 45.9846 29.7902 45.8903 29.4565 45.8179 29.117 45.7346 28.7803 45.5587 27.1808 45.6168 26.7843 45.2348 25.4984 45.0834 24.9886 44.735 23.9836 44.735 23.9836 44.6516 23.3104 44.6052 22.6314 44.4851 21.9639 44.4379 21.7021 44.2579 21.4717 44.2352 21.2065 43.6656 14.5886 44.4523 18.0439 43.7353 15.1475 43.652 16.2415 44.1167 17.5367 43.4854 18.4296 43.1362 18.9234 42.4857 16.9148 42.4857 16.9148 42.3192 16.4099 42.2782 15.8429 41.9859 15.4001L41.736 10.0983Z" stroke="#000000" stroke-miterlimit="8" fill="#D9D9D9" fill-rule="evenodd" transform="matrix(1.00033 0 -0 1 50.5 34.5)"/><path d="M71.386 0.0212602 71.386 0.0212602C66.0294 0.319009 63.1789 0.522455 57.1087 0.522455 49.26 0.522455 41.4122 0.355425 33.5639 0.271858 33.23 0.18829 32.9063 0.0212602 32.562 0.0212602 28.5851 0.0212602 29.3418-0.157873 27.302 0.522455 27.0516 0.68959 26.8199 0.889036 26.5506 1.02375 26.3144 1.14195 26.0299 1.14605 25.7991 1.27435 23.2153 2.71058 25.2452 1.96036 23.5449 2.52744 23.2944 2.69458 22.953 2.7733 22.7934 3.02874 22.5135 3.47679 22.4594 4.03124 22.2925 4.53243 22.209 4.78303 22.2617 5.13782 22.042 5.28433 21.7915 5.45136 21.5598 5.65081 21.2906 5.78552 21.0545 5.90372 20.8001 5.99602 20.5391 6.03623 19.7099 6.16389 18.8693 6.20326 18.0343 6.28682L16.5315 7.28932 15.7801 7.79051C14.3448 9.94506 16.2558 7.40972 14.5277 8.79301 12.9091 10.0886 15.164 9.16559 13.2753 9.7955 12.7743 10.1297 12.1064 10.2967 11.7724 10.798 11.6055 11.0486 11.4981 11.3515 11.2715 11.5499 10.8184 11.9466 10.2696 12.2182 9.76862 12.5524L9.01716 13.0537C8.85023 13.3043 8.70897 13.5741 8.51626 13.8055 7.82361 14.6372 7.73052 14.3756 7.26391 15.3093 7.14578 15.5456 7.14157 15.8303 7.01335 16.0612 6.72093 16.5877 6.34541 17.0637 6.01144 17.5649 5.84451 17.8155 5.60574 18.031 5.51054 18.3168 5.42702 18.5674 5.33267 18.8146 5.26009 19.0687 5.0819 19.6928 5.07338 20.3709 4.50863 20.8229 4.30247 20.988 4.00763 20.9901 3.75718 21.0736 3.42321 21.5748 2.80145 21.9767 2.75527 22.5773 2.67175 23.6634 2.67459 24.7596 2.50482 25.8354 2.42246 26.3573 2.17085 26.8379 2.00381 27.3392L1.75336 28.0911C0.992966 30.3739 2.16002 26.7665 1.25246 30.0961 1.11351 30.6058 0.751457 31.5998 0.751457 31.5998 0.667938 32.8529 0.639643 34.1109 0.501006 35.3592 0.471869 35.6218 0.314615 35.8548 0.250556 36.1111 0.147262 36.5243 0.0835186 36.9464 0 37.3641 0.0835186 39.7869 0.119808 42.2116 0.250556 44.6322 0.286845 45.3047 0.475656 45.9641 0.501006 46.6372 0.642693 50.3948 0.598199 54.1581 0.751457 57.9152 0.770075 58.3729 1.11993 59.2055 1.25246 59.6696 1.88232 61.8753 1.15211 59.6191 1.75336 61.424 1.83688 63.6796 1.79954 65.943 2.00381 68.1909 2.05167 68.717 2.00392 69.5275 2.50482 69.6946L3.25628 69.9452C3.59025 70.4465 4.0678 70.8775 4.25818 71.449 4.42512 71.9501 4.63107 72.4401 4.75908 72.9527 4.83955 73.2745 5.08022 74.347 5.26009 74.707 5.39473 74.9765 5.62635 75.1895 5.76099 75.4589 5.87901 75.6952 5.84651 76.0045 6.01144 76.2108 6.19952 76.4461 6.51245 76.545 6.7629 76.712 7.43073 78.7171 6.42893 76.3779 7.76481 77.7145 7.95151 77.9013 7.89713 78.2301 8.01526 78.4664 8.4684 79.3734 8.40108 79.1799 9.26772 79.4689 9.35092 79.7187 9.76809 81.4109 10.2696 81.7245 10.7174 82.0046 11.2715 82.0587 11.7724 82.2258 12.0229 82.3094 12.3042 82.3299 12.5239 82.4764L13.2753 82.9776C13.479 83.589 13.5413 83.9957 14.0267 84.4814 14.2396 84.6944 14.5277 84.8156 14.7782 84.9826 15.3626 85.8597 15.5297 86.3192 16.782 86.737L18.2849 87.2383C18.8274 88.867 18.0345 87.155 20.0381 88.4914 21.229 89.2856 20.504 88.8973 22.2925 89.4939 22.2929 89.494 23.795 89.9949 23.7953 89.995 24.2128 90.0786 24.6369 90.1337 25.0477 90.2458 25.8119 90.4543 26.5506 90.7468 27.302 90.9976 27.5525 91.0811 27.7973 91.1842 28.0534 91.2483 28.3874 91.3318 28.7112 91.4887 29.0553 91.4988 33.7849 91.638 63.3834 91.97 65.8754 92L78.6498 91.7494C78.9136 91.7397 79.195 91.6639 79.4012 91.4988 81.0197 90.2032 78.7647 91.1263 80.6536 90.4964 81.1545 90.1622 81.5852 89.6844 82.1564 89.4939 85.4438 88.3976 82.6439 89.2515 90.9231 88.9926 91.5341 88.7888 91.9406 88.7265 92.426 88.2408 93.8738 86.7921 91.831 88.1747 93.6784 86.737 94.1536 86.3671 94.6803 86.0686 95.1812 85.7345L95.9326 85.2333 96.6841 84.732C96.7676 84.4814 96.7478 84.1669 96.9345 83.9801 97.1212 83.7933 97.4498 83.8476 97.686 83.7295 97.9553 83.5948 98.187 83.3953 98.4374 83.2283 99.363 81.839 98.4087 82.9379 99.6898 82.2258 100.216 81.9332 101.193 81.2233 101.193 81.2233 101.822 79.3336 100.9 81.5895 102.195 79.9701 102.359 79.7638 102.327 79.4546 102.445 79.2183 102.58 78.9489 102.811 78.7359 102.946 78.4664 103.982 76.392 102.262 79.1165 103.697 76.9626L104.699 73.9551 105.2 72.4514C105.284 72.1173 105.352 71.7789 105.451 71.449 105.701 70.6149 106.162 68.9697 106.954 68.4415L107.705 67.9402 108.707 66.4365C108.874 66.1859 109.113 65.9703 109.208 65.6846L109.709 64.1809C109.792 63.9303 109.813 63.6488 109.959 63.429L110.46 62.6771C110.544 62.3429 110.616 62.0058 110.711 61.6746 110.783 61.4205 110.946 61.1865 110.961 60.9227 111.113 58.3361 111.068 55.7406 111.212 53.1535 111.235 52.7281 111.397 52.3214 111.462 51.9003 111.6 51.0053 111.87 48.4748 111.963 47.6397 111.88 41.207 111.945 34.7707 111.713 28.3417 111.694 27.8137 111.379 27.3392 111.212 26.8379L110.961 26.0861 110.711 25.3342 110.46 24.5823C110.377 23.9976 110.269 23.4157 110.21 22.8279 110.101 21.7441 110.129 20.6458 109.959 19.5698 109.877 19.048 109.545 18.5874 109.458 18.0662 109.151 16.2226 109.331 17.0553 108.957 15.5599 108.801 13.9952 108.802 13.1841 108.457 11.8005 108.392 11.5442 108.334 11.2796 108.206 11.0487 107.914 10.522 107.538 10.0462 107.204 9.5449 107.204 9.54469 106.202 8.04132 106.202 8.04121 103.032 6.98347 108.103 8.74859 104.699 7.28932 104.383 7.15365 104.027 7.13765 103.697 7.03872 103.192 6.88685 102.195 6.53742 102.195 6.53742 101.004 5.74321 101.729 6.13137 99.9403 5.53493L99.1888 5.28433C98.9383 5.20076 98.6979 5.0772 98.4374 5.03373 97.5179 4.88038 96.5916 4.7424 95.6822 4.53243 95.0113 4.37751 94.3315 4.2491 93.6784 4.03124 93.1774 3.8641 92.6982 3.60466 92.1755 3.52994 91.591 3.44637 91.0045 3.37649 90.4222 3.27934 90.0022 3.20935 89.5853 3.12115 89.1697 3.02874 88.8337 2.95402 88.5105 2.81067 88.1678 2.77804 86.7524 2.64311 85.3291 2.61101 83.9097 2.52744 83.4088 2.44388 82.8996 2.40009 82.4069 2.27685 81.8947 2.14865 81.405 1.94268 80.904 1.77555L80.1526 1.52495C80.1524 1.52484 78.65 1.02375 78.6498 1.02375 72.8898 0.499721 72.5966 0.18829 71.386 0.0212602Z" stroke="#000000" stroke-miterlimit="8" fill="#595959" fill-rule="evenodd" transform="matrix(1.00033 0 -0 1 28.5 111.5)"/><path d="M27.4923 0 27.4923 0C19.3924 1.54267 27.2464 0.198725 8.65503 0.727301 7.90864 0.748477 7.7639 1.18522 7.12762 1.4545 6.63727 1.66208 6.10939 1.77773 5.60033 1.9394L4.83663 2.1818C4.5821 2.34347 4.27444 2.44741 4.07293 2.6667 3.67002 3.10518 3.39411 3.63641 3.0547 4.12121L2.03646 5.57581 1.5274 6.30301 1.01823 7.03031C0.933353 7.27271 0.883751 7.52906 0.763701 7.75761-0.223423 9.63766 0.639803 7.38409 0 9.21211 0.0848794 9.77775 0.0391258 10.3758 0.254531 10.9091 0.474213 11.453 0.933353 11.8788 1.27276 12.3637 1.44242 12.6061 1.5274 12.9292 1.78193 13.0909 2.03646 13.2526 2.26609 13.4575 2.54563 13.5758 3.03599 13.7834 3.56387 13.8991 4.07293 14.0606 5.115 14.3914 4.97827 14.3903 6.36392 14.5455 7.29471 14.6498 8.23202 14.6945 9.16409 14.7879 9.84441 14.8561 10.5207 14.9583 11.2006 15.0303 12.0481 15.12 12.9009 15.1655 13.7462 15.2728 14.1751 15.3273 14.5966 15.4258 15.019 15.5152 15.9779 15.7181 15.9505 15.7301 16.8009 16 22.3935 15.7952 21.9478 15.9403 25.965 15.5152 26.5088 15.4577 28.8391 15.1945 29.5287 15.0303 30.0493 14.9063 30.547 14.7071 31.0561 14.5455L33.3471 13.8182 34.1108 13.5758 34.8744 13.3334C35.8079 12.0001 34.8744 13.1313 36.1473 12.1212 37.4185 11.1124 36.3324 11.5777 37.6746 11.1515 37.8443 10.9091 38.0469 10.6849 38.1838 10.4243 38.3038 10.1958 38.2485 9.87772 38.4383 9.69701 38.628 9.51631 38.9475 9.53545 39.202 9.45461 39.2869 9.21221 39.3366 8.95587 39.4565 8.72731 39.5934 8.46669 39.9351 8.28995 39.9656 8.00001 40.0783 6.92718 39.7196 6.45287 39.4565 5.57581 39.3604 5.25542 39.3025 4.92527 39.202 4.60611 38.9707 3.87178 38.6928 3.1515 38.4383 2.4242 38.3534 2.1818 38.407 1.83872 38.1838 1.697 37.9292 1.53534 37.6996 1.3304 37.4201 1.2121 36.9296 1.00452 36.4018 0.888969 35.8927 0.727301 35.6381 0.646468 35.3958 0.513 35.1291 0.4848 32.079 0.162075 28.765 0.0808339 27.4923 0Z" stroke="#000000" stroke-miterlimit="8" fill="#A6A6A6" fill-rule="evenodd" transform="matrix(1.00033 0 -0 1 160.5 127.5)"/><path d="M58.303 4.01702 58.303 4.01702C57.6386 3.68227 56.9925 3.30766 56.3098 3.01277 55.827 2.80422 55.2948 2.72556 54.8149 2.51059 54.5413 2.38807 54.341 2.13102 54.0674 2.00851 53.5873 1.79353 53.0707 1.67376 52.5724 1.50633L51.0775 1.00426 50.33 0.753218C50.0808 0.585789 49.8503 0.385993 49.5825 0.251037 49.3476 0.132741 49.0977 0 48.8351 0 43.3529 0 37.8721 0.167323 32.3906 0.251037 32.1381 0.335806 30.3835 0.968092 29.899 1.00426 27.9922 1.14659 26.0785 1.17158 24.1684 1.25529 23.5039 1.42272 22.8249 1.53923 22.1751 1.75747L20.6801 2.25955C18.7481 3.55733 19.7532 3.07297 17.6902 3.76598L16.9428 4.01702 16.1953 4.26806C15.6969 4.60281 14.8897 4.69981 14.7003 5.27231 14.5362 5.76838 14.3919 6.42481 13.9529 6.77875 13.7478 6.94407 13.4403 6.91149 13.2054 7.02979 12.9375 7.16474 12.7315 7.40935 12.4579 7.53186 11.9779 7.74684 11.4612 7.86661 10.963 8.03404 8.4525 8.8773 12.3453 7.59101 9.21884 8.53612 8.71566 8.68826 7.72384 9.0383 7.72384 9.0383 7.4747 9.20562 7.20642 9.34722 6.97644 9.54037 6.70575 9.76769 6.52212 10.0966 6.22894 10.2936 6.01036 10.4404 5.73057 10.4609 5.48144 10.5446 5.31538 10.7957 5.21703 11.1093 4.98317 11.2978 4.77809 11.4632 4.42139 11.3617 4.23567 11.5489 4.04994 11.736 4.1506 12.0955 3.98654 12.3021 3.79945 12.5377 3.48817 12.6369 3.23903 12.8043 2.6128 14.6973 3.53044 12.4372 2.2424 14.0596 2.07834 14.2662 2.13892 14.5925 1.99327 14.8128 1.79781 15.1082 1.4949 15.3149 1.24577 15.5659 1.32885 16.3191 1.37122 17.078 1.4949 17.8256 1.53811 18.0866 1.74403 18.314 1.74403 18.5787 1.74403 20.3382 1.63992 22.0977 1.4949 23.8511 1.47314 24.1148 1.31786 24.3498 1.24577 24.6042 1.1517 24.936 1.09499 25.2779 0.996634 25.6085 0.845648 26.1155 0.625604 26.6014 0.498265 27.1149 0.185411 28.3759 0.357428 27.7918 0 28.8724 0.083079 30.2114 0.185829 31.5493 0.249132 32.8894 0.351882 35.0644 0.367577 37.2435 0.498265 39.417 0.526097 39.8799 0.834975 41.8324 0.996634 42.4298 1.13485 42.9404 1.36756 43.4227 1.4949 43.9362 1.59461 44.3383 2.06023 46.3244 2.2424 46.4468L2.9899 46.949C3.44443 47.636 3.44893 47.8519 4.23567 48.2043 4.71562 48.4192 5.73057 48.7063 5.73057 48.7063 5.9797 48.8738 6.20445 49.086 6.47807 49.2085 6.95813 49.4235 7.4747 49.5432 7.97307 49.7106L9.46797 50.2128 13.2054 51.4681 13.9529 51.7191C14.202 51.8028 14.4386 51.9483 14.7003 51.9702L17.6902 52.2213C19.4539 52.6656 17.9404 52.3127 20.1818 52.7234 20.5985 52.7997 21.0109 52.8982 21.4276 52.9745 21.9246 53.0656 22.4271 53.1257 22.9226 53.2255 23.2584 53.2932 23.5899 53.3818 23.9192 53.4766 24.1717 53.5492 24.4075 53.6841 24.6666 53.7276 26.488 54.0336 29.2465 54.0968 30.8957 54.2298 31.6454 54.2902 32.3874 54.435 33.1381 54.4808 35.1294 54.6024 37.1246 54.6482 39.1179 54.7319 39.9734 54.9044 40.5398 54.9979 41.3603 55.234 41.6129 55.3068 41.8514 55.4277 42.1078 55.4851 43.3719 55.7682 44.8415 55.861 46.0943 55.9873 47.5977 56.4922 46.2735 56.1022 48.8351 56.4893 50.2181 56.6984 51.5039 56.8632 52.8216 57.2426 53.0741 57.3152 53.3199 57.4099 53.569 57.4936 53.8181 57.661 54.0486 57.8608 54.3165 57.9958 54.5514 58.1142 54.8092 58.1826 55.064 58.2468 57.8358 58.945 60.6509 58.6487 63.5353 58.7489 63.7845 58.8326 64.0202 59 64.2829 59 67.435 59 67.0527 58.9901 69.266 58.2468 69.2665 58.2466 70.7606 57.745 70.761 57.7446 72.4745 56.5936 71.6878 56.9312 73.0034 56.4893 73.1695 56.2383 73.2899 55.9495 73.5017 55.7361 73.7135 55.5227 74.1153 55.504 74.2492 55.234 74.5555 54.6168 74.7476 53.2255 74.7476 53.2255 74.8212 52.6314 75.0663 50.4343 75.2458 49.7106 75.3733 49.1971 75.578 48.7063 75.7442 48.2043L75.9933 47.451C75.9933 47.4509 76.4915 45.9448 76.4916 45.9447L76.99 45.1915C77.616 43.2986 76.7716 45.6315 77.7375 43.6851 78.0399 43.0757 78.0652 42.3068 78.2357 41.6765 79.2826 37.8087 78.184 41.7937 79.2324 39.417 79.7747 38.1874 79.6453 38.0303 79.9799 36.9064 80.1307 36.3994 80.1867 35.8404 80.4781 35.4L80.9765 34.6468 81.724 32.3872 81.9731 31.634C81.8773 31.0546 81.7816 29.9929 81.4748 29.3744 80.509 27.4281 81.3534 29.7606 80.7274 27.8681 80.6443 24.4369 80.6951 20.9997 80.4781 17.5744 80.3443 15.4627 79.6397 16.546 78.9832 14.5617 78.9001 14.3106 78.9198 13.9957 78.7341 13.8085 78.3105 13.3818 77.2391 12.8043 77.2391 12.8043 76.4086 11.5489 76.9901 12.2185 75.2458 11.0468L74.4983 10.5446 73.7509 10.0426C73.5848 9.79152 73.5065 9.44928 73.2525 9.28934 72.8071 9.00878 71.7577 8.78726 71.7577 8.78726L70.2626 7.78301C70.0135 7.61558 69.7992 7.37624 69.5152 7.28083L68.7678 7.02979C68.5186 6.86236 68.2881 6.66256 68.0203 6.52761 67.7853 6.40921 67.4585 6.46371 67.2728 6.27657 67.087 6.08943 67.2093 5.7105 67.0236 5.52335 66.8379 5.33621 66.5357 5.31259 66.2761 5.27231 65.4512 5.14442 64.6151 5.10499 63.7846 5.02128 63.4524 4.93756 63.116 4.86935 62.7879 4.77024 61.2581 4.30781 59.0505 4.14259 58.303 4.01702Z" stroke="#000000" stroke-miterlimit="8" fill="#D9D9D9" fill-rule="evenodd" transform="matrix(1.00033 0 -0 1 140.5 143.5)"/><path d="M41.2364 4.8404 41.2364 4.8404C39.9869 4.75609 38.7331 4.7202 37.4876 4.58757 37.029 4.53873 36.2028 4.23855 35.7382 4.08192 35.3845 4.20117 34.3027 4.58757 33.9888 4.58757 32.9027 4.58757 31.8228 4.41906 30.7398 4.33475 30.4899 4.16613 30.2588 3.96491 29.9901 3.82899 29.7545 3.70975 29.4706 3.70561 29.2404 3.57617 26.6621 2.12708 28.6876 2.88406 26.9911 2.31194 26.7412 2.14332 26.5158 1.92958 26.2414 1.80619 25.7598 1.58968 25.2417 1.46906 24.7418 1.30054L23.9921 1.04772C23.9917 1.04761 22.4931 0.541963 22.4926 0.541963L17.2443 0.289139C14.7689-0.0238914 14.7238-0.162674 11.7461 0.289139 11.2251 0.368246 10.2466 0.794787 10.2466 0.794787L8.74705 1.80619C8.49716 1.9747 8.28232 2.21585 7.99737 2.31194L6.49781 2.81759C5.06574 4.99128 6.97251 2.43342 5.24825 3.82899 5.01368 4.01885 4.97443 4.38742 4.74836 4.58757 4.29633 4.98778 3.24891 5.59898 3.24891 5.59898 2.98852 6.38951 2.736 7.37766 1.99934 7.8746L1.24956 8.38036C0.103798 10.1192 0.439856 9.32083 0 10.656 0.0833322 11.1617 0.0896294 11.6867 0.249892 12.1731 0.505031 12.9475 1.65573 13.7429 2.24923 13.943L4.49847 14.7016 5.24825 14.9544C5.49814 15.123 5.72358 15.3368 5.99803 15.4602 6.47945 15.6767 6.9977 15.7973 7.49749 15.9658L8.24726 16.2188 8.99704 16.4716C9.24694 16.5559 9.48686 16.6805 9.74672 16.7244L11.2463 16.9772C11.7835 17.0761 13.5193 17.4633 13.9954 17.483 17.5755 17.6308 21.1597 17.6515 24.7418 17.7358 25.075 17.8201 25.4061 17.9132 25.7415 17.9886 26.1561 18.0819 26.5813 18.1285 26.9911 18.2416 30.4777 19.2036 26.6968 18.3843 29.7402 19L40.7365 18.7472C41.0797 18.7328 41.4072 18.5942 41.7362 18.4944 42.6973 18.2027 44.2764 17.5522 45.2351 17.483L48.7339 17.2302C49.1615 17.086 49.9567 16.8915 50.2335 16.4716 50.424 16.1824 50.4 15.7973 50.4834 15.4602 50.5667 14.7016 50.6092 13.9374 50.7333 13.1845 50.7766 12.9216 50.9833 12.6925 50.9833 12.426 50.9833 11.0748 50.8731 9.72412 50.7333 8.38036 50.7057 8.11532 50.6697 7.81026 50.4834 7.62178 50.022 7.15499 49.0024 6.49888 48.2341 6.35755 47.5733 6.23597 46.9005 6.19456 46.2348 6.10473 44.0948 5.81602 42.0695 5.05117 41.2364 4.8404Z" stroke="#000000" stroke-miterlimit="8" fill="#A6A6A6" fill-rule="evenodd" transform="matrix(1.00033 0 -0 1 218.5 180.5)"/></g></svg>