<svg width="301" height="250" xmlns="http://www.w3.org/2000/svg" xmlns:xlink="http://www.w3.org/1999/xlink" overflow="hidden"><defs><clipPath id="clip0"><path d="M0 0 301 0 301 250 0 250Z" fill-rule="evenodd" clip-rule="evenodd"/></clipPath></defs><g clip-path="url(#clip0)"><rect x="0" y="0" width="300.901" height="250" fill="#D3D3C3" transform="scale(1.00033 1)"/><path d="M36.6158 0 36.6158 0C35.8685 0.0842756 35.1193 0.151993 34.374 0.252827 33.8734 0.320544 33.3828 0.462985 32.8794 0.505547 31.3878 0.631642 29.8902 0.66911 28.3959 0.758268L24.4105 1.01099C23.9123 1.17954 23.3529 1.22093 22.916 1.51654L21.4215 2.52752C21.1724 2.69597 20.9582 2.93691 20.6742 3.03296 20.4252 3.11724 20.1564 3.15641 19.9269 3.28579 19.4036 3.58086 18.4325 4.29678 18.4325 4.29678 17.7449 6.38955 18.2254 5.36986 16.9379 7.32974 16.7719 7.58247 16.7238 7.99185 16.4398 8.08791L15.6925 8.34073C15.0284 10.3623 16.0245 8.00384 14.6961 9.35172 14.5105 9.54012 14.5746 9.87701 14.4471 10.1099 14.1563 10.641 13.7828 11.1209 13.4507 11.6264L12.9525 12.3847C12.8694 12.6374 12.831 12.91 12.7034 13.1428 12.4126 13.674 11.8964 14.083 11.7071 14.6594 11.624 14.9121 11.5217 15.1592 11.458 15.4177 11.3553 15.8344 11.4189 16.3084 11.2089 16.6814 11.0603 16.9451 10.7294 17.0509 10.4617 17.1868 9.76576 17.5399 8.61408 17.5992 7.97077 17.6923 7.22338 18.1978 7.14053 18.1135 6.72536 18.9561 6.27118 19.878 6.6581 20.4337 5.47996 21.2308L4.73267 21.7363C4.10662 23.6423 5.02399 21.3668 3.73632 23 3.57231 23.208 3.60473 23.52 3.48726 23.7583 3.35337 24.03 3.15515 24.2638 2.98904 24.5165L2.49092 26.033C2.40786 26.2857 2.38736 26.5695 2.24175 26.7912L1.74363 27.5495C1.57752 28.8975 1.66874 30.3047 1.24541 31.5935 1.16235 31.8462 1.12386 32.1188 0.996346 32.3516 0.705549 32.8828 0 33.8682 0 33.8682 0.083055 39.1758 0.0905864 44.4853 0.24906 49.7913 0.25701 50.0576 0.370714 50.3165 0.498225 50.5494 0.789023 51.0805 1.49457 52.0659 1.49457 52.0659 1.68798 52.6547 2.26477 54.8539 2.98904 55.0989L4.48361 55.6044C4.73267 55.6886 5.01238 55.7094 5.23079 55.8572 6.19659 56.5104 5.69408 56.2666 6.72536 56.6153L7.72171 58.1319C8.30289 59.0166 8.46868 59.4799 9.7144 59.9011L11.2089 60.4066C13.3496 61.8548 10.6417 60.1189 12.7034 61.1648 12.9712 61.3007 13.1829 61.5344 13.4507 61.6703 13.6856 61.7895 13.9631 61.8039 14.1979 61.9231 15.2837 62.474 14.8339 62.7712 16.4398 62.9341L18.9306 63.1868 20.4252 63.6923C20.6742 63.7765 20.9176 63.8804 21.1723 63.9451 22.6775 64.3269 21.8449 64.0883 23.6632 64.7033L25.1577 65.2088C25.4068 65.2931 25.6432 65.4411 25.905 65.4615L29.1431 65.7142C29.6413 65.7985 30.1365 65.9035 30.6377 65.9671 32.9277 66.2576 32.7312 66.0886 34.6231 66.4725 34.9587 66.5406 35.2902 66.6298 35.6194 66.7252 35.8719 66.7985 36.1104 66.9202 36.3667 66.9781 36.8597 67.0892 37.3643 67.1391 37.8612 67.2308 40.3714 67.6939 37.7243 67.3082 41.0993 67.7362 42.7678 68.3007 40.9902 67.7582 44.0883 68.2418 44.9313 68.3734 45.0728 68.5271 45.8319 68.7472 46.1611 68.8426 46.4962 68.9158 46.8283 69 48.904 68.9158 50.9877 68.9503 53.0554 68.7472 53.5781 68.6958 54.55 68.2418 54.55 68.2418 54.799 68.0732 55.0295 67.8721 55.2973 67.7362 55.5321 67.6171 55.8149 67.6129 56.0445 67.4835 56.5679 67.1884 56.971 66.6646 57.539 66.4725L59.0335 65.9671C59.1996 65.7143 59.32 65.4236 59.5317 65.2088 60.9704 63.7489 59.5987 65.8075 61.0262 63.9451 61.3938 63.4655 61.5243 62.7655 62.0225 62.4286 62.6869 61.9793 63.0007 61.8386 63.5171 61.1648 63.8847 60.6853 64.0152 59.9853 64.5135 59.6483 65.2485 59.1511 65.4084 59.1146 66.0079 58.3846 66.1996 58.1512 66.2808 57.8264 66.5061 57.6263 66.9567 57.2263 68.0006 56.6153 68.0006 56.6153 68.6272 54.7086 67.7818 57.0599 68.7479 55.0989 68.8653 54.8606 68.8694 54.5735 68.997 54.3406 69.2878 53.8096 69.9933 52.8242 69.9933 52.8242 70.1082 52.009 70.2434 50.2951 70.7406 49.5384 71.0727 49.033 71.2388 48.359 71.7369 48.022L72.4842 47.5164 72.9823 46C73.0654 45.7473 73.0859 45.4635 73.2315 45.2418 73.3975 44.989 73.5957 44.7552 73.7296 44.4835 74.7604 42.3916 73.0496 45.1393 74.4769 42.9671 74.6429 42.4615 74.9878 41.9832 74.975 41.4505 74.892 37.9963 74.8771 34.5397 74.726 31.0879 74.7055 30.6203 74.361 29.7915 74.2279 29.3187 74.1338 28.9846 74.077 28.6404 73.9787 28.3077 73.8277 27.7973 73.6079 27.3081 73.4806 26.7912 73.4005 26.4667 73.1612 25.3851 72.9823 25.022 72.8484 24.7503 72.6181 24.5354 72.4842 24.2637 72.0791 23.4414 72.4509 23.4717 71.7369 22.7473 71.5252 22.5325 71.2387 22.4103 70.9896 22.2417 70.5513 20.9071 70.8863 21.7053 69.7442 19.967L68.7479 18.4506C68.5818 18.1979 68.5338 17.7884 68.2498 17.6923L67.5025 17.4396C67.1704 17.1869 66.8666 16.8904 66.5061 16.6814 66.2782 16.5492 65.9639 16.5951 65.7589 16.4286 65.5251 16.2389 65.4725 15.8852 65.2607 15.6704 65.049 15.4555 64.7625 15.3334 64.5135 15.1648 64.3473 14.7436 64.1566 14.3315 64.0152 13.9011 63.907 13.5715 63.901 13.2094 63.7662 12.8901 63.4725 12.1948 62.9047 11.7407 62.2717 11.3737 62.0438 11.2416 61.7657 11.2258 61.5244 11.1209 59.7014 10.3281 61.3681 10.8286 59.5317 10.3627 59.1996 10.1942 58.8831 9.98941 58.5354 9.85716 58.2149 9.73521 57.8682 9.69986 57.539 9.60444 57.2865 9.53121 57.0408 9.436 56.7917 9.35172L55.2973 8.34073C55.0482 8.17218 54.834 7.93124 54.55 7.83519L53.0554 7.32974C52.8064 7.24547 52.5629 7.14156 52.3082 7.07692 51.9761 6.99264 51.6398 6.92397 51.3119 6.8242 50.8088 6.67114 50.3267 6.44804 49.8173 6.31876 49.4852 6.23448 49.1502 6.16135 48.821 6.06593 48.5685 5.99269 48.3311 5.86543 48.0737 5.81321 47.4981 5.69635 46.9113 5.64476 46.3302 5.56049L44.8356 5.05494 44.0883 4.80222C43.8392 4.63378 43.6088 4.43264 43.3411 4.29678 41.2781 3.25002 43.9886 4.98733 41.8465 3.53851 41.2145 1.6144 41.2455 2.54451 41.5975 0.758268 39.6687 0.105928 37.4461 0.126413 36.6158 0Z" stroke="#000000" stroke-miterlimit="8" fill="#595959" fill-rule="evenodd" transform="matrix(1.00033 0 -0 1 39.5 51.5)"/><path d="M50.3025 0.750809 50.3025 0.750809C49.5517 0.917028 48.819 1.23157 48.0501 1.24936 32.2866 1.61456 44.2606 0.530161 37.0386 1.24936 34.5237 1.87551 35.6899 1.53093 33.535 2.24636L32.7842 2.49558 32.0334 2.7448C31.7832 2.91102 31.5575 3.12172 31.2827 3.24335 30.2137 3.71657 29.7982 3.7014 28.78 3.99113 28.5263 4.06335 28.2795 4.15724 28.0292 4.24035 27.779 4.40646 27.5475 4.60482 27.2785 4.7388 25.2058 5.77107 27.9291 4.0578 25.7769 5.48657 25.6101 5.73579 25.5113 6.04719 25.2764 6.23434 25.0704 6.39847 24.7122 6.29777 24.5256 6.48357 23.1909 7.81289 25.5268 6.816 23.5246 7.48056 23.2743 7.64678 23.0428 7.84513 22.7738 7.97911 22.5378 8.09666 22.229 8.06421 22.023 8.22834 20.4058 9.51684 22.6589 8.59887 20.7717 9.22533 19.1055 10.8848 20.8999 9.32058 19.2702 10.2223 18.7443 10.5133 18.2691 10.887 17.7686 11.2193L17.0177 11.7178 15.5162 12.7148 14.7654 13.2133C14.682 13.4625 14.68 13.7559 14.5152 13.9611 14.3273 14.195 13.9955 14.2678 13.7644 14.4595 13.4925 14.6852 13.2309 14.9291 13.0136 15.2073 12.6443 15.6802 12.3462 16.2043 12.0125 16.7028L11.0115 18.1983C10.8447 18.4475 10.7612 18.78 10.511 18.9461L9.7602 19.4445C9.26814 20.1798 9.23157 20.3403 8.50892 20.9401 8.27782 21.1318 8.00835 21.2724 7.75812 21.4385 7.21214 23.07 7.97052 21.4687 6.75707 22.4355 6.09076 22.9664 6.36885 23.2812 6.00626 23.9311 5.71409 24.4547 5.00522 25.4265 5.00522 25.4265L4.25451 27.6697C4.17107 27.9189 4.15047 28.1988 4.00418 28.4175 3.83739 28.6667 3.63823 28.8973 3.50371 29.1653 2.4684 31.2277 4.18641 28.5195 2.7529 30.6607L2.25243 32.1563C2.16898 32.4055 2.14838 32.6854 2.00209 32.904L1.50162 33.6517 0.750809 35.895C0.667363 36.1442 0.646869 36.4241 0.500574 36.6427L0 37.3905C0.0834466 39.3013 0.192116 41.2114 0.25034 43.1232 0.322751 45.5029-0.180766 51.3754 0.750809 55.0872 0.814813 55.3421 0.917597 55.5857 1.00104 55.8349 1.42837 58.8128 1.00241 56.5871 1.50162 58.3274 1.6765 58.9371 1.9549 60.3755 2.25243 60.8199L2.7529 61.5676C2.93923 62.1242 3.1942 63.3232 3.75394 63.8109 4.2067 64.2054 4.75498 64.4756 5.25556 64.8079 6.22581 65.4522 5.72093 65.2116 6.75707 65.5556 7.38607 67.4351 6.53763 65.1184 7.50788 67.0511 7.91513 67.8623 7.54109 67.8319 8.25869 68.5466 8.47141 68.7584 8.75916 68.8789 9.00939 69.0451 9.55558 70.6768 8.79699 69.0753 10.0104 70.0421 10.2453 70.2293 10.2846 70.5926 10.511 70.7899 10.9637 71.1844 11.5121 71.4546 12.0125 71.7869L13.5141 72.7839 14.265 73.2823C14.4317 73.5316 14.5305 73.843 14.7654 74.0301 14.9714 74.1942 15.2856 74.1517 15.5162 74.2793 16.042 74.5703 16.5173 74.944 17.0177 75.2763L17.7686 75.7749C18.3976 77.6543 17.4759 75.4104 18.7696 77.0211 18.9344 77.2263 18.8333 77.5831 19.0198 77.7689 19.2064 77.9547 19.5347 77.9007 19.7706 78.0181 20.0397 78.1521 20.2524 78.3826 20.5215 78.5165 20.7574 78.6341 21.0363 78.6483 21.2723 78.7659 21.5412 78.8999 21.7539 79.1303 22.023 79.2643 22.63 79.5666 23.3975 79.5924 24.0251 79.7629 24.7886 79.9702 25.5267 80.2612 26.2775 80.5105 26.5277 80.5937 26.8087 80.6142 27.0282 80.7599 27.2784 80.926 27.5042 81.1367 27.779 81.2583 27.7792 81.2584 29.6558 81.8814 30.0313 82.0061L31.5329 82.5045C31.7832 82.5876 32.0203 82.7408 32.2837 82.7539L37.289 83.0031C38.8468 83.2616 39.0917 83.3232 40.7926 83.5015 41.7089 83.5976 42.6244 83.7261 43.5455 83.7509 48.7997 83.8923 54.0565 83.917 59.3119 84.0001L71.0741 83.7509C72.3392 83.7181 77.2592 83.9514 79.8333 83.2523 80.3423 83.114 80.8343 82.9201 81.3349 82.7539L83.5872 82.0061 85.0887 81.5075C85.339 81.4244 85.62 81.404 85.8395 81.2583L87.3411 80.2613C89.4921 78.8332 86.7708 80.5453 88.8427 79.5135 89.1117 79.3796 89.3186 79.1367 89.5935 79.0151 90.0756 78.8017 91.095 78.5165 91.095 78.5165 91.2619 78.2673 91.3828 77.9807 91.5956 77.7689 92.0808 77.2856 92.4864 77.2239 93.0971 77.0211 93.3473 76.7719 93.5534 76.4689 93.8479 76.2733 94.0674 76.1276 94.4454 76.238 94.5987 76.0241 94.9054 75.5965 94.8065 74.9658 95.0992 74.5286L96.1002 73.0331C96.2671 72.7839 96.3505 72.4515 96.6008 72.2853L97.3516 71.7869C97.53 71.2536 97.6458 70.6892 98.1023 70.2914 98.555 69.8968 99.6039 69.2944 99.6039 69.2944 99.7707 69.0451 99.8917 68.7584 100.104 68.5466 100.317 68.3347 100.696 68.3022 100.855 68.0481 101.135 67.6026 101.063 66.9898 101.356 66.5526L101.856 65.8049C101.94 65.5557 101.988 65.2921 102.106 65.0572 103.077 63.1244 102.228 65.4411 102.857 63.5616 102.433 55.7437 102.113 55.7574 102.607 49.3544 102.646 48.8505 102.774 48.3574 102.857 47.859 102.742 43.1568 103.422 40.3563 102.357 36.6427 102.284 36.3901 102.179 36.1476 102.106 35.895 101.349 33.2561 102.546 36.9596 101.356 33.4025 101.272 33.1533 101.252 32.8734 101.105 32.6547L100.605 31.907C99.976 30.0275 100.824 32.3442 99.8541 30.4115 99.7361 30.1765 99.732 29.8934 99.6039 29.6637 99.3117 29.14 98.7931 28.7366 98.6029 28.1683 98.2575 27.1363 98.4989 27.639 97.8521 26.6727 96.9392 23.9453 98.3953 28.0771 97.1012 25.1773 96.887 24.697 96.9173 24.1021 96.6008 23.6817 96.4306 23.4559 95.5326 22.3016 95.3495 21.9371 95.2315 21.7021 95.2172 21.4243 95.0992 21.1893 94.9646 20.9213 94.7332 20.7095 94.5987 20.4415 94.4808 20.2065 94.4766 19.9234 94.3485 19.6937 93.6002 18.3523 93.5085 18.3588 92.5966 17.4505 91.9676 15.5709 92.8893 17.8149 91.5956 16.2043 91.4308 15.9992 91.4916 15.6752 91.3453 15.4565 91.149 15.1632 90.8211 14.9795 90.5945 14.7088 89.5518 13.4625 90.7196 14.3765 89.3432 13.4625 89.1763 13.2133 89.0554 12.9266 88.8427 12.7148 88.63 12.5029 88.2798 12.4503 88.0919 12.2163 86.7104 10.4965 89.2425 12.3986 87.0908 10.9701 86.2098 9.65375 87.0378 10.7111 85.5893 9.47456 84.169 8.26204 85.5827 9.09732 83.8374 8.22834 83.3369 7.48046 83.4205 7.39756 82.5862 6.98212 82.3502 6.86457 82.0659 6.86038 81.8354 6.73279 81.3096 6.4418 80.8151 6.09523 80.3338 5.73579 80.0002 5.48657 79.695 5.19422 79.3328 4.98812 79.1038 4.85781 78.8244 4.84232 78.582 4.7388 75.5088 3.42705 79.3452 4.99419 76.8301 3.7418 76.4302 3.54261 75.4523 3.3498 75.0783 3.24335 74.8247 3.17123 74.5778 3.07724 74.3276 2.99413 73.0918 2.17351 74.0572 2.6775 72.3255 2.24636 72.0696 2.18261 71.8284 2.06936 71.5747 1.99713 71.2439 1.90303 70.9044 1.84191 70.5736 1.74781 70.3199 1.67558 70.0846 1.53114 69.8228 1.49858 68.7436 1.36418 67.654 1.33247 66.5695 1.24936 61.4736 0.403404 65.6713 1.00977 60.313 0.501586 58.8566 0.36342 57.2628 0.0513937 55.8082 0.00314015 54.1408-0.0522311 51.2201 0.62625 50.3025 0.750809Z" stroke="#000000" stroke-miterlimit="8" fill="#595959" fill-rule="evenodd" transform="matrix(1.00033 0 -0 1 15.5 114.5)"/><path d="M16.3248 8.24997 16.3248 8.24997C15.9061 7.66667 15.6263 6.95391 15.0689 6.49995 14.6592 6.16619 13.5621 6 13.5621 6 13.4497 6.00619 9.65361 5.82026 8.28799 6.49995 5.90027 7.6884 9.91475 6.21029 6.02757 7.49995L5.27421 7.74992C3.43387 8.97134 5.6502 7.67506 1.50695 8.49995 1.211 8.55884 1.0046 8.83328 0.753473 9 0.586093 9.24997 0.386229 9.48126 0.251228 9.74992 0.132786 9.98561 0 10.2364 0 10.4999 0 12.8347 0.0758325 15.1717 0.251228 17.4999 0.327377 18.5109 0.753473 20.4999 0.753473 20.4999 0.837216 21.7499 0.908091 23.0008 1.0046 24.25 1.17936 26.5116 1.38007 28.8083 2.00919 31 2.08196 31.2533 2.17668 31.4999 2.26042 31.7499 2.4278 35.4166 2.30535 39.1078 2.76266 42.7499 2.84641 43.4166 2.89302 44.0889 3.01379 44.7499 3.06114 45.0092 3.19541 45.2457 3.26501 45.4999 3.44663 46.1629 3.6696 46.8196 3.76726 47.4999 4.14916 50.1611 3.9648 48.6631 4.26961 52 4.18587 55.1666 4.01838 58.3322 4.01838 61.4999 4.01838 61.5119 4.26181 63.4277 4.52073 63.7499 4.70931 63.9846 5.02308 64.0832 5.27421 64.25 6.07018 65.4385 5.4901 64.905 7.2834 65.4999 8.02706 65.7467 8.78338 66.0608 9.54371 66.25 9.87858 66.3333 10.2034 66.4857 10.5483 66.4999 14.2296 66.6526 17.9145 66.7243 21.5989 66.7499L82.3768 67C85.1395 66.9166 87.909 66.9609 90.6648 66.7499 91.1927 66.7095 91.6694 66.4166 92.1717 66.25L92.9251 66C93.1763 65.8333 93.4165 65.649 93.6786 65.4999 94.0037 65.315 94.3956 65.2385 94.6832 65 94.9151 64.8077 94.9922 64.4808 95.1855 64.25 95.4128 63.9784 95.7115 63.7715 95.9389 63.4999 96.1321 63.2691 96.2055 62.9376 96.4412 62.7499 96.6479 62.5853 96.9435 62.5833 97.1946 62.4999 97.2784 62.25 97.3273 61.9856 97.4458 61.7499 97.5808 61.4811 97.8256 61.2745 97.9481 61 99.1438 58.3221 97.8158 60.4474 98.9527 58.7499 99.0365 58.4999 99.0855 58.2357 99.2038 58 99.3388 57.7312 99.5836 57.5245 99.7062 57.25 100.901 54.5727 99.574 56.697 100.711 55L101.464 52.7499 101.715 52 101.967 51.25C101.883 49.3333 101.858 47.4132 101.715 45.4999 101.712 45.4507 101.334 43.9007 101.213 43.7499 101.024 43.5153 100.711 43.4166 100.46 43.25 100.292 42.7499 100.086 42.2612 99.9573 41.7499 99.8736 41.4166 99.8053 41.079 99.7062 40.7499 99.478 39.9926 99.2038 39.25 98.9527 38.4999L98.4504 37 98.1992 36.25C97.7709 33.2651 98.1978 35.4945 97.697 33.7499 97.6022 33.4195 97.5817 33.0657 97.4458 32.7499 97.3269 32.4738 97.1109 32.25 96.9435 32 96.0278 29.2652 97.4882 33.4072 96.1901 30.4999 95.975 30.0184 95.8552 29.4999 95.6878 29L95.4366 28.25 94.9343 26.7499C94.8506 26.4999 94.7351 26.2584 94.6832 26 94.3801 24.4915 94.567 25.1531 94.1809 24 94.0971 23.4167 93.977 22.8374 93.9297 22.25 93.8094 20.7524 93.8658 19.2406 93.6786 17.7499 93.6129 17.227 93.3438 16.7499 93.1763 16.25L92.4228 14 92.1717 13.25C92.0879 12.6667 91.9897 12.0851 91.9206 11.4999 91.8223 10.6682 91.7884 9.82908 91.6694 9 91.6462 8.838 91.3032 7.48714 91.1671 7.24997 90.8976 6.78058 90.1181 5.85438 89.6602 5.49995 89.1837 5.13102 88.6556 4.83328 88.1533 4.49995L87.3998 4C87.1487 3.83338 86.9328 3.59496 86.6464 3.49995L84.386 2.74992C83.9867 2.61743 83.0008 2.26898 82.6281 2.24997 79.7007 2.10058 76.7679 2.08336 73.8378 2 73.5867 1.91664 73.3398 1.81921 73.0844 1.74992 72.4183 1.56913 71.73 1.4673 71.0752 1.24997L69.5683 0.749921 68.0614 0.249974 67.3079 0C63.4959 0.145932 62.1723-0.0775853 59.2711 0.499947 58.9327 0.567349 58.6035 0.67538 58.2665 0.749921 57.8498 0.8421 57.4227 0.888189 57.0108 1 56.5 1.13869 56.0062 1.33333 55.504 1.49995L54.7505 1.74992C52.5906 3.18341 55.3237 1.46457 53.2436 2.49995 52.9736 2.63433 52.766 2.878 52.4902 3 52.4896 3.00031 50.6068 3.62478 50.2298 3.74992L48.7229 4.24997C48.3881 4.33333 48.0503 4.40556 47.7183 4.49995 47.4637 4.57239 47.2233 4.6927 46.9649 4.74992 46.4678 4.85984 45.967 4.98635 45.458 5 39.7668 5.15317 34.0726 5.16661 28.3799 5.24997 28.1288 5.33333 27.8819 5.43066 27.6264 5.49995 24.1317 6.44871 25.2343 6.01659 19.8408 6.24997 17.5026 6.58247 16.9107 7.91664 16.3248 8.24997Z" stroke="#000000" stroke-miterlimit="8" fill="#D9D9D9" fill-rule="evenodd" transform="matrix(1.00033 0 -0 1 113.5 128.5)"/><path d="M29.6618 0.250363 29.6618 0.250363C24.1513 0.333852 18.6367 0.271393 13.1304 0.500725 12.6028 0.522702 12.1551 0.977581 11.6276 1.00156L6.11711 1.25192C5.86666 1.33541 5.55236 1.31564 5.36566 1.50228 4.8372 2.03056 5.29771 3.34819 5.36566 3.75575 5.44917 4.8408 5.48904 5.93005 5.61621 7.01089 5.65639 7.35263 5.86666 7.66829 5.86666 8.01244 5.86666 10.3982 5.73707 10.4041 5.11521 12.269 5.11521 12.2691 4.61442 13.7712 4.61431 13.7713L4.11331 14.5225C4.19683 15.3572 4.23617 16.1974 4.36376 17.0264 4.40394 17.2873 4.56256 17.5188 4.61431 17.7775 4.73012 18.3563 4.78124 18.9461 4.86476 19.5303 4.94828 21.5334 4.97236 23.5399 5.11521 25.5396 5.13972 25.8828 5.29813 26.2037 5.36566 26.5412 5.46527 27.0391 5.53269 27.5427 5.61621 28.0436 5.53269 35.2213 5.5997 42.4024 5.36566 49.5769 5.34841 50.1046 5.03169 50.5785 4.86476 51.0793L3.36186 55.5863 2.61051 57.8397 2.35996 58.5909C2.23426 59.3448 1.92344 61.1375 1.85906 61.846 1.74546 63.0956 1.71285 64.3514 1.60861 65.6018 1.4623 67.3564 1.28285 69.1081 1.10761 70.86 0.867892 73.2562 1.08237 72.4383 0.606714 73.8646-0.380985 82.7485-0.00168298 78.5002 0.606714 97.1509 0.629119 97.8388 0.972552 98.4791 1.10761 99.154 1.25088 99.8702 1.39603 100.699 1.60861 101.407 1.7604 101.913 1.9815 102.398 2.10951 102.91 2.19303 103.244 2.26108 103.582 2.35996 103.911 2.51174 104.417 2.86096 105.414 2.86096 105.414 2.77744 111.089 2.61051 116.764 2.61051 122.44 2.61051 125.515 2.60231 126.409 3.11141 128.7 3.17578 128.989 3.44485 130.118 3.61241 130.453 3.74705 130.722 3.97867 130.935 4.11331 131.204 5.14981 133.276 3.42949 130.554 4.86476 132.706 5.46085 134.494 5.07271 133.769 5.86666 134.96 5.95018 135.21 5.98889 135.48 6.11711 135.711 6.40953 136.237 6.92862 136.642 7.11901 137.213 7.46465 138.25 7.22304 137.745 7.87046 138.715 8.46655 140.503 8.07841 139.779 8.87236 140.969 9.82166 145.714 9.31961 142.731 8.87236 153.238 8.8611 153.502 8.69449 153.735 8.62191 153.989 8.52735 154.32 8.45487 154.657 8.37135 154.991 8.45487 155.909 8.18465 156.933 8.62191 157.745 8.87951 158.223 12.0021 158.48 12.1285 158.496 12.379 158.58 12.6238 158.682 12.88 158.746 14.7267 159.208 16.3786 159.198 18.3903 159.247L34.4207 159.498C36.2576 159.581 38.1016 159.565 39.9312 159.748 40.8294 159.838 42.5226 160.445 43.4378 160.75L44.1893 161 55.2102 160.75C55.474 160.738 55.7077 160.572 55.9616 160.499 56.2292 160.423 57.3967 160.175 57.715 159.998 59.063 159.25 59.0565 159.158 59.9692 158.246 60.5647 156.46 59.7203 158.619 60.9711 156.743 61.9389 155.292 60.2924 156.611 61.973 155.491 62.0565 155.241 62.1053 154.976 62.2235 154.74 62.3581 154.471 62.6059 154.266 62.7245 153.989 62.86 153.673 62.8803 153.318 62.9749 152.988 63.0474 152.734 63.1418 152.487 63.2254 152.236 63.3409 151.428 63.4767 149.731 63.9768 148.981 64.1437 148.731 64.3555 148.505 64.4777 148.23 64.6922 147.748 64.9787 146.728 64.9787 146.728 64.8952 144.391 65.0686 142.031 64.7283 139.717 64.6406 139.121 63.9168 138.786 63.7264 138.215 63.6428 137.964 63.604 137.694 63.4758 137.463 63.1834 136.937 62.4739 135.961 62.4739 135.961 61.6679 133.544 62.9603 137.302 61.7226 134.208 60.8284 131.974 61.6843 133.4 60.7207 131.955 60.6371 131.621 60.569 131.283 60.4701 130.953 60.3183 130.448 60.0972 129.963 59.9692 129.451 59.1863 126.32 60.1869 130.213 59.4682 127.698 59.3737 127.367 59.3123 127.028 59.2178 126.697 58.9494 125.758 58.9127 126.021 58.7169 124.944 58.4343 123.391 58.5617 123.322 58.2159 121.939 58.1518 121.683 58.0379 121.442 57.9654 121.188 57.8709 120.857 57.8138 120.516 57.715 120.187 57.5632 119.681 57.381 119.185 57.214 118.684 57.1304 118.434 57.0276 118.189 56.9635 117.933 56.7965 117.265 56.6803 116.583 56.4625 115.93L55.9616 114.428C55.8781 114.177 55.7752 113.933 55.7112 113.676 55.6277 113.343 55.5595 113.005 55.4606 112.675 55.3088 112.169 55.1267 111.673 54.9597 111.173L54.4587 109.67C54.3752 109.42 54.2723 109.175 54.2083 108.919L53.7074 106.916C53.201 94.2643 53.2732 98.7364 53.7074 78.1213 53.7163 77.6958 53.8879 77.2892 53.9578 76.8693 54.0549 76.2872 54.1248 75.7009 54.2083 75.1167 54.3683 65.0396 54.4053 59.2479 54.7093 49.8273 54.8539 45.3473 54.975 43.5437 55.2102 39.311 55.2054 39.036 55.8873 28.2463 54.7093 23.5365 54.6452 23.2805 54.518 23.0425 54.4587 22.7853 54.2673 21.956 54.2271 21.0889 53.9578 20.2815 52.1882 14.9746 54.3409 21.5585 53.2064 17.7775 53.0547 17.272 52.8724 16.776 52.7055 16.2752L52.4549 15.5241C52.3714 14.439 52.3077 13.3524 52.2045 12.269 52.1406 11.5991 51.9924 10.9377 51.954 10.2659 51.8254 8.01455 51.8537 5.7555 51.7036 3.50539 51.686 3.24199 51.6558 2.92318 51.453 2.7542 51.1076 2.46651 50.6304 2.38565 50.2007 2.25347 49.5426 2.05106 48.8648 1.91962 48.1969 1.75264 47.8629 1.66915 47.5216 1.61111 47.195 1.50228 44.1586 0.490526 47.2246 1.42542 44.1893 0.751088 43.9316 0.693781 43.7008 0.523963 43.4378 0.500725 40.8542 0.272865 38.2668 0 35.6732 0L29.6618 0.250363Z" stroke="#000000" stroke-miterlimit="8" fill="#A6A6A6" fill-rule="evenodd" transform="matrix(1.00033 0 -0 1 206.5 36.5)"/></g></svg>