<svg width="301" height="250" xmlns="http://www.w3.org/2000/svg" xmlns:xlink="http://www.w3.org/1999/xlink" overflow="hidden"><defs><clipPath id="clip0"><path d="M0 0 301 0 301 250 0 250Z" fill-rule="evenodd" clip-rule="evenodd"/></clipPath></defs><g clip-path="url(#clip0)"><rect x="0" y="0" width="300.901" height="250" fill="#D3D3C3" transform="scale(1.00033 1)"/><path d="M48.5391 0.0558463 48.5391 0.0558463C46.0843 0.16608 43.6247 0.200359 41.1746 0.386652 40.7158 0.421556 40.2763 0.586803 39.8355 0.717458L36.8228 1.70988C36.488 1.82011 36.1609 1.95608 35.8185 2.04068 35.3722 2.15092 34.9382 2.33658 34.4795 2.37149 32.0293 2.55778 29.5698 2.59206 27.115 2.70229 26.3339 2.81253 25.5405 2.85775 24.7717 3.0331L21.7589 4.02552 20.7547 4.35632C20.4199 4.46656 20.044 4.49375 19.7504 4.68713 16.8724 6.5832 20.5137 4.30996 17.7419 5.67955 17.382 5.8574 17.0975 6.16331 16.7376 6.34116 16.4221 6.49713 16.0489 6.51599 15.7334 6.67197 15.3735 6.84982 15.089 7.15572 14.7291 7.33358 14.4135 7.48955 14.0334 7.49507 13.7249 7.66438 13.0215 8.05052 11.7163 8.98761 11.7163 8.98761 9.79765 11.8317 12.3524 8.48468 10.0426 10.3108 9.72838 10.5592 9.67587 11.0414 9.37307 11.3033 8.76756 11.8269 7.36455 12.6265 7.36455 12.6265 6.47185 15.2729 7.81086 12.1854 6.02554 13.9497 5.77598 14.1963 5.86212 14.6373 5.69079 14.9421L3.68228 17.9194 3.01277 18.9118C2.78957 19.2426 2.67802 19.6836 2.34327 19.9042L1.33901 20.5658 0.334753 23.5431 0 24.5355C0.111549 27.1819 0.0680048 29.8392 0.334753 32.4748 0.591906 35.0166 0.920332 33.7769 1.67376 35.4521 1.96033 36.0894 2.12006 36.7753 2.34327 37.4369 2.71608 38.5421 2.73253 38.5064 3.01277 39.7526 3.28585 40.9667 3.33245 41.5773 3.68228 42.7298 5.52231 48.7909 3.36555 42.0256 5.02129 45.7071 5.25799 46.2333 5.58251 48.4749 6.69505 48.6843 8.67109 49.0563 10.7121 48.9049 12.7206 49.0151L14.7291 49.6767C15.6523 49.9809 16.3884 50.269 17.4071 50.3384 20.0811 50.5206 22.764 50.5401 25.4412 50.6692 27.3391 50.7606 29.235 50.8897 31.132 51 34.9258 50.8897 38.7236 50.8716 42.5136 50.6692 42.8659 50.6503 43.1734 50.414 43.5178 50.3384 44.1804 50.1928 44.8607 50.1391 45.5263 50.0075 45.9775 49.9184 46.4142 49.7659 46.8653 49.6767 47.5309 49.5452 48.2113 49.4915 48.8739 49.3459 49.2183 49.2703 49.5358 49.0997 49.8781 49.0151 50.9806 48.7428 52.4661 48.5501 53.5604 48.3535 54.1201 48.253 54.6787 48.1447 55.2342 48.0227 55.6833 47.924 56.1184 47.7611 56.5732 47.6919 57.5718 47.5401 58.5817 47.4713 59.5859 47.3611 60.0322 47.2509 60.4842 47.1609 60.925 47.0303 61.6009 46.8299 62.9335 46.3687 62.9335 46.3687L64.942 43.3914C65.5438 42.4992 65.7152 42.4338 65.9462 41.4066 66.0935 40.7519 66.1337 40.0765 66.281 39.4218 66.3575 39.0814 66.5229 38.7658 66.6157 38.4293 67.8767 33.8602 66.6719 37.6012 67.9548 33.7981 68.7398 31.4706 67.7181 34.3438 68.959 31.4824 69.098 31.1619 69.0981 30.7802 69.2938 30.49 69.5564 30.1007 69.9633 29.8284 70.298 29.4976 71.5188 25.8782 69.5718 31.3604 71.3023 27.5127 71.5889 26.8754 71.7486 26.1895 71.9718 25.5279L72.3065 24.5355C72.4181 24.2047 72.5557 23.8814 72.6413 23.5431L72.976 22.2198C72.8645 20.4556 72.8829 18.6785 72.6413 16.927 71.8881 11.4687 72.181 17.175 71.637 13.9497 71.5255 13.2881 71.4354 12.6226 71.3023 11.9649 70.5628 8.31068 71.3975 13.569 70.6328 8.6568 70.5407 8.06573 70.4166 6.15518 69.9633 5.34874 69.5725 4.65368 69.2938 3.80495 68.6243 3.36391 68.2895 3.14333 67.9981 2.83816 67.62 2.70229 66.0326 2.13185 64.2614 1.92899 62.5987 1.70988L59.9207 1.37907C59.2488 1.28426 58.5867 1.12234 57.9122 1.04826 55.5727 0.791434 50.8824 0.386652 50.8824 0.386652 48.9254-0.257977 48.9296 0.110963 48.5391 0.0558463Z" stroke="#000000" stroke-miterlimit="8" fill="#595959" fill-rule="evenodd" transform="matrix(1.00033 0 -0 1 192.5 73.5)"/><path d="M64.1735 0.244763 64.1735 0.244763C62.0567 0.355477 59.934 0.386242 57.823 0.577009 57.4721 0.608716 57.1602 0.817063 56.8203 0.909254 55.9339 1.14952 55.0633 1.51682 54.1464 1.57375L48.7986 1.90599C45.4287 3.02255 50.6558 1.31894 46.4589 2.57048 45.784 2.77171 45.122 3.01344 44.4535 3.23497 44.1193 3.34569 43.7926 3.48225 43.4508 3.56722 43.0224 3.67364 41.5906 3.99344 41.1111 4.23171 39.5062 5.02942 40.5174 5.21788 38.103 5.56069 37.0987 5.70332 35.1674 5.93365 34.0922 6.22519 33.4123 6.40946 32.7552 6.66815 32.0867 6.88968 31.7525 7.00039 31.3772 7.0277 31.084 7.22192L29.0786 8.55091C28.7444 8.77244 28.457 9.08909 28.0759 9.2154 24.419 10.4271 29.958 8.49461 26.0705 10.2121 25.4265 10.4966 24.6513 10.4881 24.0651 10.8766 23.3966 11.3196 22.8218 11.9531 22.0596 12.2056L20.0542 12.8701C19.72 12.9808 19.3447 13.0081 19.0515 13.2023 18.7173 13.4239 18.4081 13.6882 18.0488 13.8668 17.7337 14.0235 17.3541 14.029 17.0461 14.1991 16.3438 14.5869 15.7091 15.0851 15.0407 15.5281 11.4575 17.9026 16.8955 14.2047 13.0352 17.1893 12.4011 17.6796 11.0298 18.5183 11.0298 18.5183 9.11409 21.3748 11.6649 18.0132 9.35863 19.8473 7.19888 21.5648 10.2078 20.3412 7.68745 21.1762 5.90489 23.8342 8.24454 20.6225 6.01626 22.8375 5.73224 23.1198 5.63181 23.5519 5.34779 23.8342 5.06377 24.1165 4.65363 24.2431 4.34508 24.4987 1.77161 26.6305 4.82922 24.5101 2.33966 26.1599L1.00271 28.1534C0.779851 28.4857 0.4613 28.7713 0.334237 29.1501L0 30.1469C0.14138 31.2716 0.270021 33.7058 1.00271 34.7983 1.22557 35.1306 1.38716 35.5127 1.67118 35.7951 1.95521 36.0774 2.33966 36.238 2.6739 36.4595 3.17899 38.4681 2.86286 37.3553 3.67661 39.782 3.78798 40.1143 3.71766 40.5845 4.01084 40.7787L5.01355 41.4432C5.45917 42.1077 6.09648 42.6791 6.3505 43.4367L7.35321 46.4269C7.46459 46.7592 7.49206 47.1322 7.68745 47.4237 7.91031 47.7559 8.19275 48.0555 8.35592 48.4204 8.64205 49.0605 8.80154 49.7494 9.0244 50.4139L9.69287 52.4073C9.80425 52.7396 9.73393 53.2099 10.0271 53.4041L11.0298 54.0686 11.6983 56.062C11.8097 56.3943 11.7393 56.8646 12.0325 57.0588L13.0352 57.7233 13.7037 59.7167C13.9422 60.4277 14.0966 61.1798 14.7064 61.7102 15.311 62.2362 15.9497 62.7867 16.7118 63.0392L18.7173 63.7037C19.0515 63.8144 19.3782 63.951 19.72 64.0359 20.1656 64.1467 20.6169 64.237 21.0569 64.3682 21.7318 64.5694 22.4761 64.6441 23.0623 65.0327 24.3582 65.8914 23.684 65.5709 25.0678 66.0294 25.7362 67.0262 25.6249 67.1369 26.739 67.6906 27.054 67.8473 27.4336 67.8528 27.7417 68.0229 28.4439 68.4107 29.7471 69.3519 29.7471 69.3519 29.9699 69.6841 30.0749 70.137 30.4156 70.3486 31.0131 70.7199 31.7525 70.7916 32.421 71.0131L33.4237 71.3454C33.7579 71.4561 34.0846 71.5926 34.4264 71.6776 34.872 71.7883 35.3233 71.8786 35.7633 72.0098 36.4382 72.2111 37.0696 72.5875 37.7688 72.6743 39.4118 72.8785 40.8417 73.0195 42.4481 73.3388 42.8985 73.4284 43.3346 73.5815 43.785 73.6711 45.275 73.9673 46.0277 73.9792 47.4616 74.3356 47.8035 74.4205 48.1131 74.6409 48.4643 74.6678 51.0217 74.8634 53.5893 74.8893 56.1518 75.0001L71.1925 74.6678C71.5445 74.6533 71.8564 74.4317 72.1952 74.3356 75.7311 73.3313 70.7718 74.9179 75.5375 73.3388L76.5402 73.0066C76.8745 72.8959 77.2498 72.8685 77.543 72.6743 78.2114 72.2314 78.7862 71.5979 79.5484 71.3454L82.5565 70.3486C82.8907 70.2379 83.266 70.2106 83.5592 70.0164 86.4328 68.112 82.7971 70.3952 85.5647 69.0196 85.9239 68.841 86.2081 68.5338 86.5674 68.3551 89.3349 66.9796 85.6992 69.2627 88.5728 67.3584 89.14 65.6669 88.4512 66.8349 89.9097 66.0294 93.1622 64.2332 90.5798 64.9659 93.5863 64.3682 95.012 63.4235 95.4899 62.9877 96.9287 62.3747 97.2525 62.2368 97.6163 62.1991 97.9314 62.0425 100.24 60.8953 97.4886 61.7372 100.271 61.0457 100.94 60.6028 101.831 60.3812 102.276 59.7167 103.168 58.3878 102.611 58.9415 103.948 58.0555 105.73 55.3976 103.391 58.6093 105.619 56.3943 105.903 56.112 106.03 55.7043 106.287 55.3976 106.59 55.0366 106.987 54.7617 107.29 54.4008 107.547 54.0941 107.795 53.769 107.959 53.4041 108.245 52.764 108.627 51.4106 108.627 51.4106 108.44 43.4215 107.814 39.9367 108.627 33.4693 109.083 29.8442 108.802 33.9278 109.63 29.8146L109.964 28.1534C109.81 27.0812 109.629 24.8293 108.961 23.8342L106.287 19.8473 105.619 18.8505C105.396 18.5183 105.077 18.2326 104.95 17.8538 104.728 17.1893 104.673 16.4431 104.282 15.8603 104.059 15.5281 103.777 15.2285 103.613 14.8636 103.327 14.2235 103.336 13.4529 102.945 12.8701 102.722 12.5379 102.456 12.2305 102.276 11.8734 102.119 11.5602 102.191 11.1243 101.942 10.8766 101.693 10.6289 101.274 10.6551 100.94 10.5444 100.446 9.80894 100.04 9.06251 99.2684 8.55091 98.9752 8.35669 98.5737 8.38871 98.2656 8.21866 97.5634 7.83085 97.0224 7.14218 96.2602 6.88968L94.2548 6.22519C93.8092 5.89294 93.4161 5.47614 92.9179 5.22845L89.9097 4.23171 88.907 3.89947C88.5728 3.78875 88.1975 3.76144 87.9043 3.56722 87.5701 3.34569 87.2609 3.08136 86.9016 2.90273 86.1375 2.52297 84.9905 2.42775 84.2277 2.23824 83.8859 2.15327 83.573 1.96062 83.225 1.90599 81.4505 1.62743 79.6557 1.49401 77.8772 1.2415 77.0974 1.13079 76.3147 1.03797 75.5375 0.909254 74.9772 0.816435 74.4317 0.633203 73.8664 0.577009 72.1998 0.411357 70.524 0.355477 68.8528 0.244763 65.5286-0.30598 64.9533 0.244763 64.1735 0.244763Z" stroke="#000000" stroke-miterlimit="8" fill="#595959" fill-rule="evenodd" transform="matrix(1.00033 0 -0 1 155.5 123.5)"/><path d="M29.4566 0 29.4566 0C25.5952 0.111076 21.7302 0.128819 17.8725 0.333334 16.9428 0.382573 16.6677 0.940054 15.8867 1.33333 15.3305 1.61344 14.1001 1.83979 13.5699 2 12.9016 2.20189 12.246 2.44441 11.584 2.66667L7.61237 4C7.2814 4.11108 6.90977 4.13848 6.61945 4.33334L4.63362 5.66667C4.41293 6.00001 4.13325 6.30058 3.97167 6.66667 3.68834 7.30888 3.30973 8.66668 3.30973 8.66668 3.19944 10.3333 3.16191 12.0065 2.97875 13.6667 2.94018 14.0159 2.70511 14.3201 2.64778 14.6667 2.28397 16.8651 2.49621 17.4485 1.98584 19.3334L0.992918 22.3334 0.661945 23.3334C0.323363 27.4255 0 30.6941 0 35 0 38.5253 0.115189 38.348 0.992918 41L1.32389 42 1.65486 43.0001C1.54457 44.0001 1.32389 44.9939 1.32389 46.0001 1.32389 47.7231 0.888258 50.228 2.31681 51.6667 2.59806 51.95 2.97875 52.1111 3.30973 52.3334 4.19235 55.0001 2.86846 51.889 4.63362 53.6667 5.19611 54.2332 5.29556 55.2223 5.95751 55.6667L7.94334 57.0001C8.05363 57.3334 7.99046 57.7959 8.27432 58.0001 8.84213 58.4086 9.59821 58.4445 10.2602 58.6667L12.246 59.3334C12.577 59.4445 12.9486 59.4719 13.2389 59.6667 13.5699 59.889 13.876 60.1542 14.2318 60.3334 14.5438 60.4906 14.876 60.6547 15.2247 60.6667 21.2899 60.8773 27.3604 60.889 33.4282 61.0001 34.5314 60.889 35.6482 60.8725 36.738 60.6667 37.4238 60.5372 38.0619 60.2223 38.7238 60.0001L39.7167 59.6667C41.2341 57.3743 40.2859 57.9201 42.0335 57.3334 42.8654 54.8199 41.7432 57.9181 43.0264 55.3334 43.1825 55.0192 43.188 54.6406 43.3574 54.3334 43.7437 53.633 44.24 53.0001 44.6813 52.3334L45.3433 51.3334C45.5639 51.0001 45.8794 50.7134 46.0052 50.3334L46.6671 48.3334 46.9981 47.3334C47.1084 44.7778 47.1955 42.2212 47.3291 39.6667 47.4162 37.9987 47.4769 36.3269 47.6601 34.6667 47.6986 34.3175 47.7443 33.9152 47.991 33.6667 48.2378 33.4182 48.653 33.4444 48.9839 33.3334 48.8737 32.2223 48.9023 31.0881 48.653 30 48.5635 29.6097 48.1526 29.3661 47.991 29 47.7077 28.3578 47.5498 27.6667 47.3291 27 47.2033 26.62 46.8451 26.3584 46.6671 26 46.5111 25.6858 46.5056 25.3072 46.3362 25 45.9498 24.2997 45.2638 23.7601 45.0123 23 44.7916 22.3334 44.7374 21.5847 44.3503 21 44.1296 20.6667 43.85 20.3661 43.6884 20 43.4051 19.3578 43.2471 18.6667 43.0264 18L42.0335 15 41.7025 14C41.5923 13.6667 41.5651 13.2924 41.3716 13 40.9303 12.3333 40.2992 11.7601 40.0477 11 38.34 5.84022 40.2972 11.1695 38.7238 8.00001 38.5677 7.68578 38.5489 7.31423 38.3928 7.00001 38.2149 6.64169 37.8925 6.3661 37.7309 6.00001 37.2065 4.81176 37.3059 3.90531 36.407 3 35.305 1.89019 35.6325 2.6778 34.4212 2 33.7257 1.61092 33.19 0.920001 32.4353 0.666667L30.4495 0 29.4566 0Z" stroke="#000000" stroke-miterlimit="8" fill="#A6A6A6" fill-rule="evenodd" transform="matrix(1.00033 0 -0 1 19.5 134.5)"/><path d="M62.6461 0.942147 62.6461 0.942147 52.3162 1.27544 23.9921 1.60874C23.641 1.61671 23.3314 1.84955 22.9925 1.94203 20.1645 2.71349 20.7191 2.55256 17.9941 2.94191 13.2428 4.52598 18.1871 2.93435 14.6619 3.9418 14.3241 4.03827 14.0115 4.23835 13.6622 4.27509 11.8913 4.46152 10.1078 4.49732 8.3306 4.60838 6.31614 5.11205 7.43221 4.79681 4.99836 5.60827 4.66514 5.71933 4.29098 5.74673 3.99869 5.94156L2.99902 6.60815C2.61772 9.27755 2.61153 10.4644 1.99934 12.6074 1.90289 12.9453 1.77716 13.274 1.66612 13.6073 1.55508 14.385 1.3329 15.1548 1.3329 15.9404 1.3329 25.9659 1.4686 26.8397 1.99934 34.2716 1.8883 40.7152 1.79122 47.1592 1.66612 53.6026 1.56904 58.6024 1.53682 63.6044 1.3329 68.6009 1.30949 69.1749 0.40795 71.7097 0.333224 71.9338L0 72.9337C0.11104 84.9323 0.124579 96.9322 0.333224 108.93 0.346868 109.715 0.617435 110.479 0.666448 111.263 0.83983 114.037 0.748101 116.827 0.999672 119.595 1.08258 120.507 1.37645 121.392 1.66612 122.261 1.91433 123.006 2.25354 124.609 2.99902 125.261 3.60176 125.789 4.33191 126.15 4.99836 126.594 5.33159 126.816 5.61811 127.134 5.99803 127.261 7.32138 127.702 8.28673 128.116 9.6635 128.261 11.214 128.424 12.7736 128.483 14.3286 128.594 25.7846 131.458 33.7305 129.086 48.6507 128.927 58.1209 128.199 48.4389 128.977 56.3149 128.261 57.6469 128.139 58.9834 128.067 60.3136 127.927 61.0946 127.845 61.8734 127.735 62.6461 127.594 63.0967 127.512 63.5235 127.309 63.979 127.261 65.6397 127.086 67.308 126.968 68.9774 126.927L91.6366 126.594C92.5253 126.298 92.9695 126.446 92.9695 125.261 92.9695 116.483 92.8477 107.706 92.6363 98.9307 92.6253 98.4728 92.3875 98.0477 92.3031 97.5975 91.3719 92.6305 92.1177 95.0416 91.3034 92.5981 91.1924 91.8204 91.1242 91.0353 90.9702 90.265 90.9013 89.9205 90.7132 89.6081 90.637 89.2651 90.4903 88.6055 90.4503 87.925 90.3037 87.2654 90.2275 86.9224 90.067 86.6033 89.9705 86.2655 89.8447 85.825 89.7483 85.3767 89.6373 84.9323 89.5262 78.5997 89.453 72.2664 89.3041 65.9345 89.2308 62.8227 89.2292 59.7043 88.9708 56.6023 88.8947 55.6893 88.4841 54.8343 88.3044 53.9359L87.9712 52.2695C87.8601 48.6032 87.7763 44.9361 87.6379 41.2708 87.5541 39.0476 87.4479 36.825 87.3047 34.6049 87.1937 32.8837 87.0171 30.7073 86.6383 28.9389 86.4463 28.043 86.2615 27.1416 85.9718 26.2725L84.9721 23.2729C84.8611 22.9396 84.7241 22.6138 84.6389 22.273 84.4167 21.3842 84.2621 20.4757 83.9725 19.6066L82.9728 16.607 82.3064 14.6072C82.1953 14.1629 82.099 13.7145 81.9731 13.274 81.4165 11.3255 81.8276 13.2854 81.3067 10.941 81.1838 10.388 81.1225 9.821 80.9735 9.2745 80.7886 8.59658 80.4225 7.96778 80.307 7.27474 80.196 6.60815 80.0765 5.94293 79.9738 5.27497 79.8543 4.49848 79.8172 3.70739 79.6406 2.94191 79.4826 2.25727 79.5586 1.33192 78.9741 0.942147 78.6409 0.719916 78.3709 0.332245 77.9744 0.275558 74.4343-0.230314 65.3384-0.057736 62.6461 0.942147Z" stroke="#000000" stroke-miterlimit="8" fill="#D9D9D9" fill-rule="evenodd" transform="matrix(1.00033 0 -0 1 67.4999 67.5)"/><path d="M18.7305 0 18.7305 0C15.9879 0.287012 15.8085 0.275394 13.2817 0.641509 12.7449 0.719298 10.9261 0.911852 10.2167 1.28302 9.50112 1.65742 8.9499 2.32226 8.17333 2.56604 7.83277 2.67292 7.46551 2.72263 7.15166 2.88679 6.43612 3.26119 5.10833 4.16981 5.10833 4.16981 3.54703 6.37569 4.52268 5.85056 2.72444 6.41509 1.81626 8.98113 3.17848 5.98745 1.36222 7.69811 1.10833 7.93723 1.18224 8.358 1.02167 8.66037-0.298723 11.1475 0.855947 8.16626 0 10.5849 0.113483 11.2264-0.00203797 11.9448 0.340555 12.5094 0.51861 12.803 1.01019 12.7639 1.36222 12.8302 7.46347 13.9794 1.07004 12.5208 5.10833 13.4717 5.44889 13.6856 5.91312 13.7863 6.13 14.1132 6.51056 14.6866 6.10297 15.9266 6.81111 16.0377 7.49222 16.1446 8.18459 16.2008 8.85444 16.3585 9.551 16.5224 10.8978 17 10.8978 17 13.7714 16.8575 17.4222 16.7948 20.4333 16.3585 20.8959 16.2914 21.3351 16.1166 21.7955 16.0377 22.5853 15.9025 23.3848 15.8239 24.1794 15.717L26.2228 15.0755C26.5633 14.9686 26.8904 14.8103 27.2444 14.7547L29.2878 14.434C29.5148 14.1132 29.9473 13.8567 29.9689 13.4717 30.0646 11.76 29.8188 10.0442 29.6283 8.33962 29.5908 8.00341 29.4621 7.67295 29.2878 7.37735 28.8903 6.70342 28.6067 5.88047 27.9255 5.45283L26.9039 4.81132C26.6768 4.49056 26.5308 4.10293 26.2228 3.84905L23.1578 1.92453C22.8172 1.71066 22.5244 1.40496 22.1361 1.28302L18.7305 0Z" stroke="#000000" stroke-miterlimit="8" fill="#D9D9D9" fill-rule="evenodd" transform="matrix(1.00033 0 -0 1 240.5 184.5)"/><path d="M18.0166 0 18.0166 0 14.8136 1.23335C14.417 1.38142 13.9899 1.45062 13.6125 1.64447 13.1821 1.86539 12.8118 2.19259 12.4114 2.4667 11.5782 5.88909 12.5928 2.50528 11.2103 5.34441 11.0216 5.732 11.0736 6.23939 10.81 6.57776 10.5093 6.96363 10.0092 7.12588 9.60884 7.4 8.2743 9.45558 9.20847 8.35934 6.40586 10.2778L5.20485 11.0999C5.07142 11.5111 5.10292 12.0268 4.80447 12.3333 4.50602 12.6398 3.84864 12.3917 3.60335 12.7444 3.11278 13.4497 2.80261 15.2111 2.80261 15.2111 3.53314 17.4614 3.39856 16.4727 2.80261 20.1444 2.73323 20.5719 2.66584 21.0394 2.40224 21.3778 2.10159 21.7636 1.60149 21.9259 1.20112 22.2L0.400373 24.6667 0 25.8999C0.133423 27.2703 0.196419 28.6499 0.400373 30.0111 0.46452 30.4394 0.502297 30.938 0.800745 31.2445 0.992246 31.4411 3.58954 32.0631 3.60335 32.0667 4.00373 32.3407 4.50393 32.5031 4.80447 32.8888 5.06807 33.2272 4.9064 33.8157 5.20485 34.1222 5.88535 34.8209 6.80623 35.2185 7.60698 35.7666 9.15918 36.8292 8.35163 36.4326 10.0092 37 11.2103 36.863 12.4071 36.6773 13.6125 36.5889 16.1452 36.4031 18.6983 36.4884 21.2194 36.1778 22.0574 36.0745 22.8209 35.6296 23.6217 35.3555 24.022 35.2185 24.4716 35.1848 24.8228 34.9444L27.2249 33.2999C27.7587 32.4777 28.5221 31.7708 28.8264 30.8333 28.9598 30.4222 29.038 29.9876 29.2268 29.6 29.7842 28.4553 30.3431 28.0426 31.2287 27.1333 31.0142 20.9674 33.9133 17.0005 29.6272 14.8 29.2497 14.6061 28.8264 14.5259 28.426 14.3889 28.1591 13.9778 27.7943 13.6182 27.6253 13.1555 27.3864 12.5012 27.6427 11.6515 27.2249 11.0999 26.6341 10.3199 24.8228 9.45558 24.8228 9.45558 24.289 8.63335 23.5256 7.92641 23.2213 6.98888L22.4206 4.52218C22.0949 3.51921 21.9955 2.85246 21.2194 2.05558 20.8792 1.70625 20.4606 1.42795 20.0183 1.23335 18.782 0.689314 18.1104 0.822234 18.0166 0Z" stroke="#000000" stroke-miterlimit="8" fill="#A6A6A6" fill-rule="evenodd" transform="matrix(1.00033 0 -0 1 80.5 33.5)"/></g></svg>