<svg width="301" height="250" xmlns="http://www.w3.org/2000/svg" xmlns:xlink="http://www.w3.org/1999/xlink" overflow="hidden"><defs><clipPath id="clip0"><path d="M0 0 301 0 301 250 0 250Z" fill-rule="evenodd" clip-rule="evenodd"/></clipPath></defs><g clip-path="url(#clip0)"><rect x="0" y="0" width="300.901" height="250" fill="#D3D3C3" transform="scale(1.00033 1)"/><path d="M48.9369 0.616638 48.9369 0.616638 31.3871 0.950339C30.8139 0.970204 30.2689 1.21373 29.6996 1.28404 26.9746 1.62079 22.7637 1.80525 20.2498 1.95144L18.2248 2.28514C17.6604 2.38657 17.1051 2.53865 16.5373 2.61885 15.5289 2.76126 14.5107 2.82758 13.4998 2.95255 12.7105 3.05008 11.9248 3.17505 11.1374 3.28625 7.73466 4.4077 13.0127 2.69662 8.7749 3.95365 8.09342 4.15576 7.42491 4.39855 6.74992 4.62105L5.73743 4.95476 4.72494 5.28846C4.49991 5.62216 4.1166 5.89395 4.04995 6.28956 3.77719 7.90751 5.73371 6.81875 4.04995 8.95917 3.55195 9.59231 2.69997 9.84908 2.02498 10.294L1.01249 10.9614 0.337496 12.9636 0 13.9647C0.112463 15.6332 0.160404 17.3072 0.337496 18.9702 0.452298 20.0484 0.765345 20.3285 1.01249 21.3061 1.15163 21.8563 1.23752 22.4184 1.34998 22.9746 1.46245 24.4206 1.45873 25.8802 1.68748 27.3127 1.79846 28.0077 2.13744 28.6476 2.36247 29.315L2.69997 30.3161 4.38745 35.3216 4.72494 36.3227C4.94732 36.9822 5.14269 37.8545 5.73743 38.3249 6.01519 38.5447 6.41242 38.5474 6.74992 38.6586 7.64994 41.3282 6.29996 38.2137 8.0999 39.9934 8.35151 40.2422 8.14795 40.7901 8.4374 40.9945 9.01641 41.4035 9.78738 41.4394 10.4624 41.6619L11.4749 41.9956 15.5248 43.3304C16.6437 43.6992 17.7396 44.1021 18.8998 44.3315 21.4313 44.8321 22.2579 44.7666 25.3122 44.9989 25.8747 45.1101 26.43 45.2663 26.9997 45.3326 29.2087 45.5896 34.5413 45.8821 36.4496 46L60.4118 45.6663C63.6756 45.6018 66.9411 45.534 70.1992 45.3326 70.5542 45.3106 70.8696 45.0955 71.2117 44.9989 72.342 44.6796 73.5173 44.5265 74.5866 43.9978 76.2994 43.151 75.518 43.6063 76.9491 42.663 77.399 41.9956 78.2541 41.4617 78.2991 40.6608 78.6807 33.8688 78.3498 36.6394 78.9741 32.3183 78.8015 29.5894 78.5989 25.7913 78.2991 22.9746 78.2158 22.1925 78.074 21.4173 77.9616 20.6387 77.8491 17.6354 77.8993 14.6218 77.6241 11.6288 77.5597 10.9282 77.1741 10.294 76.9491 9.62657L76.6116 8.62547C76.4991 7.29066 76.4159 5.95313 76.2741 4.62105 76.1909 3.83888 76.4249 2.90599 75.9366 2.28514 75.4933 1.72158 72.4679 1.42772 71.8867 1.28404 71.1964 1.11346 70.5367 0.839141 69.8617 0.616638 69.5242 0.505439 69.2047 0.297546 68.8492 0.282937 57.1525-0.19896 63.4516-0.0507646 48.9369 0.616638Z" stroke="#000000" stroke-miterlimit="8" fill="#595959" fill-rule="evenodd" transform="matrix(1.00033 0 -0 1 99.5 149.5)"/><path d="M13.9955 1.72164 13.9955 1.72164C13.1068 1.29509 12.3096 0.59867 11.3297 0.441873 2.35346-0.994491 12.4041 1.48242 5.99805 2.04158L2.33258 2.36153C2.11039 2.68147 1.94929 3.04948 1.66613 3.32135 1.38296 3.59323 0.878665 3.63515 0.66645 3.96124 0.294078 4.5332 0 5.88089 0 5.88089 0.127937 6.61822 0.256295 7.97276 0.66645 8.76037 0.845605 9.1043 1.02014 9.47997 1.3329 9.7202 1.60714 9.93091 2.01845 9.88929 2.33258 10.0401 4.91641 11.2806 1.81925 10.1958 4.33193 11 7.66418 10.8934 11.0061 10.9459 14.3287 10.68 15.0287 10.624 15.6309 10.1238 16.328 10.0401L18.9938 9.7202C18.8828 7.58722 18.9483 5.43902 18.6606 3.32135 18.6088 2.94004 18.3741 2.48316 17.9942 2.36153 17.2565 2.12542 14.6619 1.82826 13.9955 1.72164Z" stroke="#000000" stroke-miterlimit="8" fill="#D9D9D9" fill-rule="evenodd" transform="matrix(1.00033 0 -0 1 134.5 92.5)"/><path d="M59.041 0 59.041 0C53.2264 0.111076 47.405 0.0348557 41.597 0.333333 40.8907 0.369659 40.2552 0.777743 39.5843 1 39.2488 1.11108 38.8722 1.13848 38.5779 1.33333 37.907 1.77774 37.3301 2.41333 36.5651 2.66667L34.5524 3.33334C34.2169 3.44441 33.8403 3.47181 33.546 3.66667 32.2454 4.52819 32.9221 4.20662 31.5332 4.66667 31.4215 5 31.4187 5.39234 31.1978 5.66667 30.9459 5.97953 30.3292 5.95685 30.1914 6.33334 29.8454 7.27895 30.3995 8.48452 29.8559 9.33334L26.8368 10.3333 25.8304 10.6667 24.824 11C24.6004 11.3333 24.3335 11.6417 24.1531 12 23.995 12.3142 24.0386 12.7257 23.8177 13 23.5658 13.3129 23.1467 13.4444 22.8113 13.6667 21.2458 16 22.1404 15.2223 20.4631 16.3333 18.8975 18.6667 19.7921 17.8889 18.1148 19 17.8938 19.6588 17.6996 20.5301 17.1085 21 16.8324 21.2195 16.4375 21.2223 16.1021 21.3333 15.5117 23.0935 15.9627 22.041 14.4248 24.3333 14.2011 24.6667 13.8814 24.9533 13.7539 25.3333 12.9107 27.8468 14.0481 24.7487 12.7475 27.3333 12.5893 27.6476 12.5702 28.0191 12.412 28.3333 12.2317 28.6917 11.9215 28.975 11.7411 29.3333 11.5829 29.6476 11.5638 30.0191 11.4056 30.3334 11.2253 30.6917 10.8985 30.9673 10.7347 31.3333 10.4475 31.9756 10.2875 32.6667 10.0638 33.3334 9.95202 33.6667 9.92444 34.041 9.72834 34.3334 8.99329 35.429 9.06915 35.1258 8.72196 36.3334 7.70797 39.8598 9.30994 34.9138 7.71558 39.6667 7.6038 40 7.57622 40.3743 7.38012 40.6667 6.5131 41.9591 6.83673 41.2866 6.37374 42.6667 6.26196 43.4444 6.2161 44.2345 6.03828 45 5.87927 45.6847 5.36736 47 5.36736 47 5.25558 48.1111 5.36704 49.2675 5.0319 50.3334 4.79143 51.0981 3.94501 51.5733 3.69006 52.3334 3.35788 53.3235 3.14561 54.541 2.34822 55.3334 2.06316 55.6166 1.6773 55.7778 1.34184 56 1.11816 56.6667 0.708111 57.2983 0.67092 58 0.293937 65.1179 0.63637 62.2406 0 66.6667 0.111785 69.2223 0.206876 71.7786 0.33546 74.3334 0.430551 76.2231 0.578154 78.1102 0.67092 80 0.734314 81.2912 1.1768 92.7805 1.34184 94.6667 1.43059 95.681 1.90784 95.7914 2.34822 96.6667 2.50639 96.9809 2.52551 97.3525 2.68368 97.6667 2.86404 98.025 3.19083 98.3006 3.3546 98.6667 3.64178 99.3089 3.63322 100.082 4.02552 100.667 5.94826 103.533 3.64304 99.9066 5.0319 102.667 5.21226 103.025 5.53905 103.301 5.70282 103.667 7.29961 107.237 5.52627 104.404 7.04466 106.667 7.15645 107.556 7.23188 108.45 7.38012 109.333 7.45588 109.785 7.61552 110.219 7.71558 110.667 7.8393 111.22 7.93926 111.778 8.05104 112.333 8.16283 113.667 8.21946 115.006 8.3865 116.333 8.44366 116.788 8.58947 117.228 8.72196 117.667 8.92514 118.34 9.16921 119 9.39288 119.667 9.50467 120 9.64255 120.326 9.72834 120.667 9.84013 121.111 9.96374 121.553 10.0638 122 10.1875 122.553 10.261 123.117 10.3993 123.667 10.4851 124.008 10.6376 124.329 10.7347 124.667 11.6932 128 10.2654 123.424 11.4056 128.333 11.5647 129.018 11.9051 129.652 12.0766 130.333 12.3002 131.222 12.4559 132.131 12.7475 133L13.7539 136C13.8656 136.333 14.0035 136.659 14.0893 137L14.7602 139.667C14.872 140.111 14.9499 140.565 15.0957 141 15.3194 141.667 15.3743 142.415 15.7666 143 16.2139 143.667 16.4375 144.556 17.1085 145L18.1148 145.667C19.233 147.333 18.4503 146.444 20.7985 148L21.8049 148.667C22.1404 148.889 22.4288 149.207 22.8113 149.333 23.1467 149.444 23.5014 149.51 23.8177 149.667 24.1783 149.846 24.4556 150.171 24.824 150.333L27.8432 151.333C28.1786 151.445 28.5553 151.472 28.8496 151.667 29.185 151.889 29.4875 152.171 29.8559 152.333 30.5022 152.619 31.1978 152.778 31.8687 153L32.8751 153.333 33.8815 153.667 34.8878 154 60.0473 153.667C60.5082 153.655 60.9283 153.345 61.3892 153.333 69.9975 153.122 78.6094 153.111 87.2196 153 87.8905 152.556 88.7851 152.333 89.2324 151.667 91.6298 148.093 87.8962 153.517 90.9097 149.667 93.0171 146.974 91.3097 148.291 93.2579 147 93.7051 146.333 93.9288 145.444 94.5997 145L96.6125 143.667 98.6253 140.667C98.8489 140.333 99.1686 140.047 99.2962 139.667L99.9671 137.667C99.8553 131.111 99.8228 124.554 99.6316 118 99.5991 116.884 99.3411 115.783 99.2962 114.667 99.1173 110.224 99.1396 105.776 98.9607 101.333 98.9041 99.9276 98.469 96.8467 98.2898 95.3334 98.0616 93.4055 97.7488 90.5399 97.6189 88.6667 97.4801 86.6684 97.5335 84.6543 97.2834 82.6667 97.1957 81.9694 96.6125 80.6667 96.6125 80.6667 96.4453 76.3481 96.4168 72.2501 95.9416 68 95.8664 67.3283 95.7179 66.6667 95.6061 66 95.4943 64.1111 95.4431 62.2178 95.2707 60.3334 95.219 59.7692 94.9623 59.2326 94.9352 58.6667 94.7384 54.5588 94.8878 50.436 94.5997 46.3334 94.4594 44.3345 93.9459 44.7007 93.2579 43.3334 93.0997 43.0191 93.0806 42.6476 92.9224 42.3334 92.7421 41.975 92.4319 41.6917 92.2515 41.3334 92.0933 41.0191 92.0877 40.6405 91.9161 40.3334 91.5245 39.633 90.8292 39.0935 90.5742 38.3334 90.4624 38 90.4104 37.6405 90.2388 37.3334 89.8472 36.633 89.1519 36.0935 88.8969 35.3334 88.7851 35 88.7331 34.6405 88.5615 34.3334 88.1699 33.633 87.4746 33.0935 87.2196 32.3334 86.7341 30.8861 87.1342 31.5819 85.8778 30.3334L84.5359 26.3333C84.4241 26 84.3966 25.6257 84.2005 25.3333 83.9768 25 83.7099 24.6917 83.5296 24.3333 83.3714 24.0191 83.3523 23.6476 83.1941 23.3333 83.0137 22.975 82.7035 22.6917 82.5232 22.3333 82.365 22.0191 82.4086 21.6077 82.1877 21.3333 81.7148 20.7459 80.8379 20.553 80.1749 20.3333 78.9353 18.4857 80.2133 19.9471 78.4977 19 77.7928 18.6109 76.4849 17.6667 76.4849 17.6667 76.3731 17.3333 76.3211 16.9739 76.1494 16.6667 75.7579 15.9663 74.8076 14.6667 74.8076 14.6667 74.6958 14.2223 74.6046 13.7722 74.4721 13.3333 74.269 12.6603 74.0249 12 73.8012 11.3333L72.7948 8.33334 72.1239 6.33334C72.0121 6 72.0827 5.52819 71.7885 5.33334L70.7821 4.66667C70.5584 4.33334 70.426 3.91696 70.1112 3.66667 69.8351 3.44714 69.421 3.4905 69.1048 3.33334 68.7442 3.15412 68.459 2.84588 68.0984 2.66667 67.7822 2.5095 67.4082 2.4905 67.092 2.33333 66.7314 2.15412 66.4645 1.80357 66.0856 1.66667 65.219 1.3536 64.2767 1.28976 63.402 1 62.6043 0.735853 61.8961 0.472861 61.0537 0.333333L59.041 0Z" stroke="#000000" stroke-miterlimit="8" fill="#A6A6A6" fill-rule="evenodd" transform="matrix(1.00033 0 -0 1 175.5 41.5)"/><path d="M51.9829 3.02055 51.9829 3.02055C50.2058 2.90871 48.4102 2.96463 46.6513 2.68493 46.2558 2.62204 46.0176 2.17754 45.6517 2.0137 45.0097 1.72639 44.3188 1.56625 43.6523 1.34247 42.86 1.07651 42.1565 0.811717 41.3197 0.671233 38.0808 0.127587 35.0006 0.160356 31.6563 0 30.6569 0.167755 28.5377 0.415953 27.6576 1.00685 26.5718 1.7359 25.1042 2.97647 23.6589 3.02055L12.6625 3.35617C12.1071 3.468 11.5458 3.55341 10.9964 3.69178 9.43679 4.08448 10.3776 4.15689 8.3306 4.36302 6.66909 4.53035 4.99836 4.5868 3.33224 4.69863 1.74809 5.76235 2.45924 4.98721 1.66612 7.38357L1.3329 8.39042C1.22186 10.8516 1.19478 13.3181 0.999671 15.774 0.971649 16.1266 0.742643 16.4355 0.666448 16.7808-0.115448 20.3248 0.750095 17.5348 0 19.8014 0.11104 22.3745 0.137068 24.9526 0.333224 27.5206 0.360197 27.8733 0.418025 28.2772 0.666448 28.5274 0.91487 28.7776 1.3329 28.7512 1.66612 28.863 1.8883 29.5343 2.28586 30.1707 2.33257 30.8767 2.52127 33.7282 2.51445 36.5216 3.33224 39.2672 3.61508 40.2166 3.89992 41.517 4.66513 42.2877 4.94829 42.5729 5.29884 42.7951 5.6648 42.9589 7.79492 43.9124 7.65554 43.4942 9.99671 43.9658 10.8949 44.1467 11.7936 44.3453 12.6625 44.637L14.6618 45.3082C14.9951 45.4201 15.3171 45.5745 15.6615 45.6439 16.2169 45.7557 16.7678 45.8927 17.3276 45.9795 19.9895 46.3919 19.6189 46.1725 21.9928 46.6507 22.4419 46.7412 22.887 46.8538 23.3257 46.9863 23.9985 47.1896 24.6321 47.5413 25.325 47.6576 26.7719 47.9005 27.5932 48.0161 28.9905 48.3288 29.4376 48.4289 29.8694 48.6034 30.3234 48.6644 31.5394 48.8277 32.767 48.8882 33.9888 49 38.0985 48.8882 42.2168 48.9526 46.3181 48.6644 47.0189 48.6152 47.6285 48.132 48.3174 47.9932 50.6725 47.5188 49.4462 47.838 51.9829 46.9863 52.3161 46.8745 52.6326 46.6801 52.9826 46.6507L56.9813 46.3151 58.6474 45.9795C59.3122 45.8577 59.986 45.7865 60.6467 45.6439 62.7513 45.1896 62.7894 45.1482 64.3122 44.637 64.5344 44.3014 64.6772 43.8958 64.9786 43.6302 65.5814 43.0989 66.978 42.2877 66.978 42.2877 67.2002 41.9521 67.4653 41.6416 67.6444 41.2808 68.301 39.9583 68.1716 37.6345 68.3109 36.5822 68.3714 36.125 68.5688 35.6947 68.6441 35.2397 68.7913 34.3501 68.8663 33.4498 68.9773 32.5548 68.8663 28.5274 68.9291 24.4913 68.6441 20.4726 68.594 19.7669 68.1998 19.1301 67.9777 18.4589L67.6444 17.4521C67.5334 17.1164 67.3964 16.7884 67.3112 16.4452L66.6448 13.7603C66.5337 13.3128 66.4564 12.8554 66.3115 12.4178L65.6451 10.4041C65.274 9.28289 65.2576 9.31904 64.9786 8.0548 64.9595 7.96801 64.5871 5.71584 64.3122 5.36987 64.062 5.05486 63.6707 4.87907 63.3125 4.69863 62.4732 4.27591 61.118 4.17475 60.3135 4.0274 59.5086 3.88005 58.1373 3.60479 57.3145 3.35617 56.6416 3.15289 56.0122 2.77267 55.3152 2.68493 54.3868 2.56802 51.3285 2.199 50.3168 2.0137 47.8913 1.56952 51.7052 2.85269 51.9829 3.02055Z" stroke="#000000" stroke-miterlimit="8" fill="#595959" fill-rule="evenodd" transform="matrix(1.00033 0 -0 1 108.5 103.5)"/><path d="M41.3118 0.112563 41.3118 0.112563C36.5365 0.22376 31.7536 0.153868 26.9859 0.446259 18.8236 0.94675 28.5684 1.0302 23.9875 1.44735L20.3227 1.78104 18.3238 2.44843C17.9906 2.55963 17.6165 2.58706 17.3243 2.78213L15.3253 4.11691 14.3259 4.7843C14.1037 5.118 13.9991 5.57288 13.6595 5.78539 13.0639 6.15829 11.6606 6.45278 11.6606 6.45278 11.3307 7.44399 11.1199 8.66285 10.3279 9.45605 10.0448 9.73961 9.66162 9.90094 9.32846 10.1234 9.13822 11.0761 8.94441 12.1842 8.66214 13.1267L7.66267 16.13C7.55165 16.4637 7.38722 16.7841 7.32951 17.1311 6.88092 19.8271 7.20999 18.4914 6.33003 21.1354 6.21901 21.4691 6.19162 21.8438 5.99687 22.1365L4.66423 24.1387C4.44209 24.4724 4.12457 24.7593 3.99791 25.1397L3.33159 27.1419 2.99843 28.143 2.66528 29.1441C2.53201 35.4191 3.57997 40.6203 1.99896 46.1626 1.90252 46.5008 1.77682 46.83 1.6658 47.1637 1.55478 49.277 1.50116 51.3943 1.33264 53.5039 1.27881 54.1783 1.14607 54.8456 0.999478 55.5061 0.285835 58.7225 1.05876 53.8447 0.333159 57.8419 0.192655 58.6158 0.111018 59.3992 0 60.1778 0.111018 70.9673 0.137356 81.758 0.333159 92.5463 0.359497 93.9964 0.486675 95.4453 0.666319 96.8844 0.709866 97.2334 0.914273 97.5442 0.999478 97.8854 1.13683 98.4356 1.22162 98.9977 1.33264 99.5539 1.44366 105.672 1.35027 111.797 1.6658 117.907 1.68647 118.308 2.153 118.55 2.33212 118.908 2.4892 119.223 2.50819 119.595 2.66528 119.909 2.84439 120.268 3.15247 120.552 3.33159 120.91 3.48868 121.225 3.49424 121.604 3.66475 121.912 5.34881 124.948 4.37808 122.969 5.99687 124.915 8.25711 127.631 4.42404 123.553 7.32951 127.918 7.55165 128.252 7.81671 128.56 7.99583 128.919 8.15291 129.234 8.08061 129.671 8.32899 129.92 8.8952 130.487 9.66162 130.81 10.3279 131.255 10.6611 131.478 10.9476 131.796 11.3274 131.922 11.6606 132.034 12.0128 132.099 12.3269 132.256 12.685 132.436 12.9379 132.826 13.3264 132.924 14.3019 133.168 15.3253 133.146 16.3248 133.257 17.2133 133.48 18.1214 133.635 18.9901 133.925 20.0861 134.291 20.6902 134.55 21.9885 134.592 28.2052 134.793 34.4264 134.814 40.6454 134.926 40.9786 135.037 41.3021 135.183 41.6449 135.259 42.477 135.445 45.232 135.82 45.976 135.927 54.9713 135.816 63.9963 136.333 72.9619 135.593 73.76 135.527 73.5348 133.845 74.2945 133.591 75.6739 133.13 75.0018 133.452 76.2935 132.59 77.1309 130.074 76.0013 133.175 77.293 130.588 77.4501 130.273 77.5151 129.92 77.6261 129.587 77.9865 120.203 78.1843 120.295 77.6261 110.232 77.6008 109.774 77.4246 109.337 77.293 108.897 76.8909 107.555 76.4034 106.224 75.9603 104.893L75.6272 103.892C75.5162 103.558 75.3629 103.236 75.294 102.891 74.471 98.7694 75.4802 103.917 74.6277 99.2202 74.5265 98.6622 74.4174 98.1054 74.2945 97.5517 74.1952 97.104 74.0433 96.6682 73.9614 96.217 73.7774 95.2038 73.4111 92.1411 73.2951 91.2115 73.4061 88.6532 73.4461 86.0908 73.6282 83.5365 73.6685 82.9708 73.905 82.4324 73.9614 81.868 74.1275 80.2042 74.1835 78.5311 74.2945 76.8626 74.1835 63.7373 74.107 50.6115 73.9614 37.4865 73.8849 30.5897 73.9458 23.6873 73.6282 16.7974 73.6098 16.3967 73.1245 16.1628 72.9619 15.7963 72.6767 15.1534 72.2956 13.7941 72.2956 13.7941 72.4971 12.1798 73.0156 9.70797 72.2956 8.12126 72.09 7.66838 71.3889 7.70979 70.963 7.45387 70.2763 7.04114 69.6303 6.56398 68.964 6.11909 68.6308 5.89659 68.3444 5.57855 67.9645 5.4517L66.965 5.118C63.7427 2.69731 67.1767 5.05715 64.6329 3.78322 64.2748 3.60381 63.9916 3.29523 63.6334 3.11583 63.3194 2.95849 62.948 2.93947 62.634 2.78213 61.4146 2.17149 61.951 2.02067 60.635 1.78104 58.946 1.47341 55.422 1.23473 53.9718 1.11365 53.3055 0.891152 52.6656 0.56187 51.9729 0.446259 47.2354-0.344626 43.0886 0.168162 41.3118 0.112563Z" stroke="#000000" stroke-miterlimit="8" fill="#D9D9D9" fill-rule="evenodd" transform="matrix(1.00033 0 -0 1 24.5 58.5)"/></g></svg>