<svg width="301" height="250" xmlns="http://www.w3.org/2000/svg" xmlns:xlink="http://www.w3.org/1999/xlink" overflow="hidden"><defs><clipPath id="clip0"><path d="M0 0 301 0 301 250 0 250Z" fill-rule="evenodd" clip-rule="evenodd"/></clipPath></defs><g clip-path="url(#clip0)"><rect x="0" y="0" width="300.901" height="250" fill="#D3D3C3" transform="scale(1.00033 1)"/><path d="M25.6582 0.332796 25.6582 0.332796C24.6585 0.443692 23.6513 0.500399 22.6592 0.665591 22.3128 0.723241 21.9973 0.902059 21.6595 0.998387 21.2192 1.12406 20.7653 1.19974 20.3266 1.33118 19.6538 1.53275 18.9937 1.77487 18.3273 1.99677L17.3276 2.32957C15.5505 4.99193 17.883 1.77487 15.6615 3.99355 15.3783 4.27634 15.3078 4.74205 14.9951 4.99193 14.7208 5.21111 14.3398 5.25597 13.9954 5.32473 13.2252 5.4786 12.4403 5.54663 11.6628 5.65752 11.3296 5.76842 10.9116 5.74222 10.6632 5.99032 10.4147 6.23842 10.5005 6.68201 10.3299 6.98871 9.94098 7.68794 9.4413 8.31989 8.99704 8.98548 8.77485 9.31827 8.45727 9.60443 8.33059 9.98387 8.21955 10.3167 8.16791 10.6756 7.99736 10.9823 7.60841 11.6815 7.10873 12.3134 6.66447 12.979 6.44229 13.3118 6.33125 13.7555 5.99802 13.9774L4.99835 14.643C3.78311 18.2842 5.81866 12.8662 3.66546 16.307 3.29309 16.9019 3.2212 17.6382 2.99901 18.3038L2.66579 19.3021C2.55475 19.6349 2.52736 20.0086 2.33256 20.3005 2.11038 20.6333 1.82879 20.9334 1.66612 21.2989 1.38086 21.9401 1.38936 22.712 0.999671 23.2957 0.138432 24.586 0.459901 23.9146 0 25.2925 0.11104 26.0689 0.156589 26.8577 0.333224 27.622 0.491177 28.3056 0.777487 28.9532 0.999671 29.6188L1.33289 30.6172C1.44393 30.95 1.47133 31.3237 1.66612 31.6156 2.11038 32.2812 2.74576 32.8535 2.99901 33.6123 3.11005 33.9451 3.08381 34.3626 3.33224 34.6107 3.58066 34.8588 3.99868 34.8326 4.33191 34.9435 5.22054 37.6059 3.88764 34.4998 5.6648 36.2747 5.91322 36.5228 5.71224 37.0692 5.99802 37.2731 6.5697 37.6809 7.33092 37.7168 7.99736 37.9387 10.6863 38.8338 8.64649 38.2496 14.3286 38.6043 17.1935 40.5117 13.5688 38.2248 16.328 39.6027 16.6862 39.7816 16.9694 40.0893 17.3276 40.2683 17.6417 40.4252 18.0132 40.4441 18.3273 40.6011 19.6137 41.2434 19.4694 41.8636 21.3263 41.9322L30.3233 42.265C33.9229 43.4633 32.139 42.9998 39.9868 42.265 40.6862 42.1995 41.3197 41.8213 41.9862 41.5994 42.3194 41.4885 42.6935 41.4612 42.9858 41.2666 43.9688 40.6122 44.1833 40.5635 44.9852 39.6027 45.2416 39.2954 45.4294 38.9371 45.6516 38.6043 45.7627 36.1638 45.7243 33.7119 45.9848 31.2828 46.0597 30.5852 46.4291 29.9516 46.6513 29.286 46.7623 28.9532 46.7897 28.5795 46.9845 28.2876 47.8458 26.9973 47.5243 27.6687 47.9842 26.2908 47.5377 23.1694 48.0866 24.614 46.3181 21.9645 46.0959 21.6317 45.9848 21.188 45.6516 20.9661L43.6523 19.6349C43.0658 17.8777 43.5139 18.9285 41.9862 16.6398 41.764 16.307 41.4464 16.0208 41.3197 15.6414L38.6539 7.6543 37.9875 5.65752C37.7165 4.8455 37.6338 4.3059 36.9878 3.66075 36.7047 3.37795 36.3214 3.21706 35.9881 2.99516 34.932 1.41304 35.7016 2.12329 33.3224 1.33118L30.3233 0.332796C29.9901 0.221899 29.6749 0 29.3237 0L25.6582 0.332796Z" stroke="#000000" stroke-miterlimit="8" fill="#D9D9D9" fill-rule="evenodd" transform="matrix(1.00033 0 -0 1 107.5 32.5)"/><path d="M23.6173 0.660714 23.6173 0.660714C19.4634 0.80014 16.1177 0.217671 12.4647 1.32143 11.8023 1.52152 11.1526 1.76187 10.4966 1.98214L8.52846 2.64286C8.20044 2.75294 7.83213 2.7801 7.54441 2.97321L5.5763 4.29464 4.59225 4.95536C3.76781 7.4464 4.97585 4.47246 3.28018 6.60714 3.06415 6.87902 3.10682 7.28679 2.95216 7.59821 2.7758 7.95333 2.47248 8.23416 2.29612 8.58928 2.14146 8.9007 2.12277 9.26893 1.96811 9.58035 0.696327 12.1419 1.80849 9.07145 0.984053 11.5625 0.285246 18.952 0.887456 16.2464 0 19.8214 0.109305 20.9226 0.125525 22.0373 0.328018 23.125 0.455506 23.8095 0.76534 24.4464 0.984053 25.1071 1.09336 25.4375 1.12032 25.8084 1.31207 26.0982 1.53078 26.4286 1.80797 26.7265 1.96811 27.0893 2.24891 27.7257 2.40543 28.4107 2.62414 29.0714 2.73345 29.4018 2.62414 29.9524 2.95216 30.0625L3.93621 30.3928C4.81096 33.0357 3.49889 29.9524 5.24828 31.7143 5.49283 31.9606 5.33176 32.4591 5.5763 32.7053 5.82084 32.9516 6.25114 32.8799 6.56035 33.0357 6.91296 33.2133 7.18416 33.5351 7.54441 33.6964 8.17637 33.9792 8.85648 34.1369 9.51251 34.3571L10.4966 34.6875C10.8246 34.7976 11.1929 34.8247 11.4806 35.0178 11.8086 35.2381 12.1024 35.5222 12.4647 35.6786 12.8791 35.8574 13.3449 35.8784 13.7767 36.0089 14.4391 36.209 15.0888 36.4494 15.7449 36.6696L16.7289 37C22.7425 36.8899 28.7625 36.9672 34.7699 36.6696 35.4605 36.6354 36.738 36.0089 36.738 36.0089 36.9567 35.6786 37.1153 35.2986 37.394 35.0178 37.6728 34.7371 38.1692 34.6938 38.3781 34.3571 38.7446 33.7665 38.6505 32.9544 39.0341 32.375 39.2528 32.0446 39.53 31.7467 39.6901 31.3839 40.4943 29.5615 40.2333 29.5264 40.6742 27.75 41.1426 25.8631 40.9212 27.7033 41.3302 25.4375 41.9333 22.097 41.3127 24.1692 41.9863 22.1339 41.9515 21.5021 42.1653 15.9623 41.0022 14.2054 40.7835 13.875 40.6249 13.495 40.3462 13.2143 40.0674 12.9336 39.6901 12.7738 39.3621 12.5536 38.3255 9.42147 39.3578 12.8331 38.7061 5.28571 38.7003 5.21912 38.2092 3.17351 38.0501 2.97321 37.483 2.25933 35.6993 1.85364 35.0979 1.65179L32.1457 0.660714C31.8177 0.55063 31.504 0.379572 31.1617 0.330357L28.8656 0C25.5855 0.113934 24.492 0.55063 23.6173 0.660714Z" stroke="#000000" stroke-miterlimit="8" fill="#D9D9D9" fill-rule="evenodd" transform="matrix(1.00033 0 -0 1 105.5 74.5)"/><path d="M92.7751 0.334507 92.7751 0.334507C91.3238 0.445974 89.8667 0.49918 88.4211 0.669014 87.9639 0.722746 87.524 0.877199 87.0814 1.00352 86.7419 1.10034 86.4282 1.30611 86.0766 1.33803 83.9612 1.53009 81.8338 1.55485 79.7129 1.67254L74.0192 2.00704C72.9383 2.16129 70.6682 2.34271 69.6651 3.01057 68.3665 3.87512 69.0422 3.55241 67.6555 4.01409 67.4322 4.34859 67.3 4.76644 66.9857 5.01761 66.71 5.23791 66.2966 5.1944 65.9809 5.35212 65.6208 5.53196 65.311 5.79809 64.9761 6.02113 64.7528 6.35564 64.5908 6.7404 64.3062 7.02465 64.0216 7.3089 63.5529 7.3797 63.3014 7.69367 62.2228 9.04033 63.8652 8.44749 62.2967 9.70071 62.021 9.92101 61.6268 9.92375 61.2919 10.0352 60.4501 12.5576 61.5857 9.44849 60.2871 12.0423 60.1292 12.3576 60.1727 12.7705 59.9522 13.0458 59.7007 13.3597 59.2823 13.4918 58.9474 13.7148 57.4119 16.0153 58.3714 15.4676 56.6029 16.0563 56.3796 16.3909 56.2474 16.8087 55.933 17.0599 55.6574 17.2802 55.244 17.2367 54.9282 17.3944 52.3312 18.6913 55.4442 17.5572 52.9187 18.3979 51.3832 20.6984 52.3427 20.1507 50.5742 20.7394 48.7879 23.4155 51.1324 20.1819 48.8995 22.412 48.6149 22.6962 48.544 23.1643 48.2297 23.4155 47.954 23.6358 47.5406 23.5923 47.2249 23.75 46.8649 23.9299 46.555 24.196 46.2201 24.419 46.1085 24.7535 46.1058 25.1473 45.8852 25.4226 45.413 26.012 44.5376 26.2057 43.8756 26.4261 42.9824 29.1021 44.3221 25.9801 42.5359 27.7641 40.7496 29.5481 43.8756 28.2101 41.1962 29.1021 40.0798 30.7747 40.8613 29.8826 38.5168 31.4437L37.512 32.1127C36.2743 33.9669 37.5503 32.5003 35.8373 33.4507 35.1336 33.8412 34.4976 34.3428 33.8278 34.7887 33.4928 35.0118 33.2215 35.4009 32.823 35.4578L30.4785 35.7923C28.7353 36.0244 27.7323 36.0599 26.1244 36.4613 25.7819 36.5468 25.4283 36.6246 25.1196 36.7958 24.4159 37.1862 23.8738 37.8796 23.1101 38.1338L22.1053 38.4683C21.8819 38.8028 21.7498 39.2207 21.4354 39.4719 21.1598 39.6922 20.6803 39.557 20.4306 39.8064 20.1809 40.0557 20.3163 40.5346 20.0957 40.8099 19.8442 41.1238 19.4258 41.2559 19.0909 41.4789 18.8676 41.8134 18.7057 42.1982 18.4211 42.4824 18.1364 42.7667 17.6814 42.8488 17.4163 43.1514 16.8861 43.7565 16.5231 44.4895 16.0766 45.1585 15.8532 45.493 15.7416 45.939 15.4067 46.162L14.4019 46.831C14.0529 47.8768 13.7144 49.1844 12.7273 49.8416L11.7225 50.5106C10.0593 53.0022 12.1969 49.9421 10.0478 52.5176 8.65233 54.1902 10.2154 52.9636 8.37321 54.1902 7.5314 56.7125 8.76489 53.7012 7.03349 55.8627 6.81292 56.138 6.85648 56.5509 6.69857 56.8662 5.39999 59.46 6.53559 56.3509 5.69378 58.8733 5.58217 60.2113 5.5365 61.5565 5.35885 62.8874 5.31223 63.2368 5.2445 63.6156 5.02392 63.8909 4.77244 64.2048 4.35407 64.3369 4.01914 64.5599 3.79582 64.8944 3.63389 65.2792 3.34928 65.5634 3.06467 65.8477 2.5578 65.8915 2.3445 66.2324 1.97022 66.8304 1.89796 67.5705 1.67464 68.2395L0.669857 71.25C0.558249 71.5845 0.404129 71.9078 0.334928 72.2536L0 73.9261C0.111608 77.3826 0.131545 80.8434 0.334928 84.2958 0.35571 84.6478 0.420164 85.05 0.669857 85.2993 0.91955 85.5487 1.33971 85.5224 1.67464 85.6339 1.89796 85.9684 2.03014 86.3862 2.3445 86.6374 3.78474 87.7881 3.09242 85.8928 4.01914 87.9754 4.65587 89.4063 4.63425 89.9582 5.02392 91.3205 5.12087 91.6595 5.10916 92.0746 5.35885 92.324 6.65743 93.6209 7.74354 93.7869 9.37799 94.331L10.3828 94.6655 11.3876 95.0001C12.7273 94.8886 14.0806 94.8863 15.4067 94.6655 16.1031 94.5497 16.7109 94.0286 17.4163 93.9965L24.7847 93.662C28.8814 92.8437 24.6319 93.7644 27.4641 92.993 28.3523 92.7511 29.2702 92.6148 30.1435 92.324L33.1579 91.3205 34.1627 90.986C34.386 90.6515 34.5479 90.2667 34.8325 89.9824 35.1172 89.6982 35.5858 89.6274 35.8373 89.3134 36.0579 89.0381 35.9226 88.5593 36.1723 88.3099 36.422 88.0605 36.8613 88.1331 37.177 87.9754 37.5371 87.7956 37.8218 87.4862 38.1818 87.3064 38.4976 87.1487 38.878 87.1431 39.1866 86.9719 39.8903 86.5814 40.5263 86.0798 41.1962 85.6339L43.2058 84.2958 44.2105 83.6268C46.1302 80.7509 43.5741 84.1354 45.8852 82.2888 46.1995 82.0376 46.2407 81.5364 46.555 81.2853 46.8307 81.065 47.2441 81.1085 47.5598 80.9507 50.1569 79.6538 47.0439 80.788 49.5694 79.9472 49.7927 79.6127 49.9249 79.1949 50.2392 78.9437 50.5149 78.7234 51.0389 78.8961 51.244 78.6092 51.6545 78.0353 51.9139 76.6022 51.9139 76.6022 52.047 74.7401 51.4388 72.3936 52.9187 70.9155 53.2033 70.6313 53.5885 70.4696 53.9235 70.2465 55.0526 68.5548 53.9803 69.7164 55.5981 68.9085 55.9581 68.7286 56.235 68.4028 56.6029 68.2395 57.2482 67.9531 57.9426 67.7935 58.6125 67.5705L61.6268 66.5669 62.6316 66.2324C62.9665 66.121 63.3426 66.0935 63.6364 65.8979 64.3062 65.452 64.8822 64.8141 65.646 64.5599 66.3158 64.3369 67.0681 64.2821 67.6555 63.8909 69.9589 62.3573 68.9014 62.8071 70.6699 62.2183 70.8932 61.8838 70.9984 61.4279 71.3397 61.2148 71.9385 60.841 72.7618 60.937 73.3493 60.5458 74.9416 59.4856 73.9722 60.004 76.3637 59.2078L81.3876 57.5352 82.3924 57.2007C82.7273 57.0893 83.1034 57.0618 83.3971 56.8662 86.2767 54.9489 82.6334 57.2476 85.4067 55.8627 85.7668 55.6829 86.0515 55.3735 86.4115 55.1937 86.7272 55.036 87.1006 55.0169 87.4163 54.8592 90.0133 53.5622 86.9003 54.6964 89.4259 53.8557 89.5375 53.5212 89.4735 53.0571 89.7608 52.8521 90.3354 52.4422 91.1829 52.5743 91.7704 52.1831 94.6499 50.2658 91.0066 52.5645 93.7799 51.1796 96.377 49.8827 93.264 51.0168 95.7895 50.1761 97.0272 48.3219 95.7512 49.7885 97.4641 48.8381 98.1679 48.4476 99.4737 47.5 99.4737 47.5 101.26 44.824 98.9155 48.0576 101.148 45.8275 102.663 44.3145 100.867 45.1407 102.823 44.4895L106.172 39.4719 107.512 37.4648C107.735 37.1303 107.847 36.6843 108.182 36.4613L109.187 35.7923C110.028 33.2699 108.795 36.2812 110.526 34.1197 112.375 31.8116 108.987 34.3645 111.866 32.4472 113.364 30.2029 111.599 32.4018 113.541 31.1092 113.935 30.8467 114.172 30.3961 114.545 30.1056 115.181 29.6121 115.885 29.2136 116.555 28.7676 116.89 28.5446 117.275 28.3829 117.56 28.0986 117.895 27.7641 118.171 27.3575 118.565 27.0951 118.858 26.8995 119.261 26.9318 119.569 26.7606 120.273 26.3701 120.909 25.8685 121.579 25.4226L122.584 24.7535 123.589 24.0845C124.705 22.412 123.923 23.304 126.268 21.743L127.273 21.074C127.496 20.7394 127.658 20.3547 127.943 20.0704 128.227 19.7862 128.696 19.7154 128.947 19.4014 129.168 19.1261 129.124 18.7132 129.282 18.3979 129.462 18.0383 129.729 17.7289 129.952 17.3944 130.128 15.814 130.392 13.3169 130.622 11.7078 130.718 11.0363 130.845 10.3697 130.957 9.70071 130.845 8.25121 130.849 6.78813 130.622 5.35212 130.541 4.83734 129.936 2.8637 129.282 2.34155 129.007 2.12125 128.63 2.03412 128.278 2.00704 125.715 1.81013 123.142 1.784 120.574 1.67254 119.904 1.56107 119.228 1.48521 118.565 1.33803 115.888 0.743923 119.973 1.07632 115.215 0.669014 112.093 0.401725 105.837 0 105.837 0 103.381 0.111467 100.914 0.0729068 98.4689 0.334507 97.7669 0.409626 93.7241 0.334507 92.7751 0.334507Z" stroke="#000000" stroke-miterlimit="8" fill="#A6A6A6" fill-rule="evenodd" transform="matrix(1.00033 0 -0 1 14.5 111.5)"/><path d="M62.8146 0 62.8146 0 59.8075 0.333333C55.6316 0.730079 56.864 0.443045 53.7934 1 53.2347 1.10131 52.6706 1.18425 52.1228 1.33333 51.4432 1.51822 50.118 2 50.118 2 49.8953 2.33333 49.752 2.73617 49.4498 3 48.8454 3.52766 48.1133 3.88892 47.4451 4.33333 46.3797 5.04189 45.9061 5.48357 44.438 5.66667L41.765 6C41.4309 6.11108 41.0706 6.16273 40.7627 6.33333 40.0606 6.72241 39.5199 7.41333 38.758 7.66667 38.4238 7.77774 38.0635 7.8294 37.7556 8 37.0536 8.38908 36.5128 9.08 35.7509 9.33333 35.0826 9.55559 34.3322 9.61018 33.7461 10 33.0779 10.4444 32.5033 11.08 31.7414 11.3333 31.4073 11.4444 31.054 11.5095 30.7391 11.6667 30.3799 11.8459 30.1356 12.2875 29.7367 12.3333 27.1896 12.6266 24.6136 12.5556 22.0519 12.6667 21.0499 12.8333 18.925 13.0798 18.0425 13.6667 17.3743 14.1111 16.6056 14.4335 16.0378 15 14.7863 16.2485 15.4837 15.8509 14.0331 16.3333 13.8103 16.6667 13.6784 17.083 13.3648 17.3333 13.0898 17.5529 12.6115 17.4182 12.3625 17.6667 12.1134 17.9152 12.1859 18.3524 12.0283 18.6667 11.8487 19.025 11.5397 19.3083 11.3601 19.6667 11.2026 19.9809 11.246 20.3923 11.026 20.6667 10.7751 20.9795 10.3577 21.1111 10.0236 21.3333 9.43556 23.0934 9.8848 22.0409 8.35301 24.3333 8.13023 24.6667 7.81178 24.9533 7.68477 25.3333 6.84499 27.8468 7.97785 24.7487 6.68241 27.3333 6.52487 27.6476 6.51929 28.0261 6.34829 28.3333 5.95829 29.0337 5.26574 29.5732 5.0118 30.3333L4.00944 33.3333C3.89811 33.6667 3.87064 34.0409 3.67532 34.3333L3.00708 35.3333C2.77746 36.479 2.65339 37.235 2.33884 38.3333 2.24213 38.6712 2.09017 38.9924 2.00472 39.3333 1.31575 42.0828 2.02251 39.9381 1.33648 42.3333 1.23977 42.6712 1.1599 43.0191 1.00236 43.3333-0.293079 45.918 0.839773 42.8198 0 45.3333 0.111338 50.4444 0.125124 55.5586 0.33412 60.6667 0.348432 61.0177 0.497234 61.3595 0.668241 61.6667 1.05824 62.367 1.55926 63 2.00472 63.6667L2.67296 64.6667 4.00944 66.6667C4.23222 67 4.29673 67.5399 4.67768 67.6667L5.68004 68C6.73902 69.5847 5.96734 68.8733 8.35301 69.6667L9.35537 70C10.2172 69.8772 11.7636 69.7987 12.6966 69.3333 13.7205 68.8226 13.5561 68.4857 14.7013 68.3333 16.0306 68.1565 17.3743 68.1111 18.7107 68 25.231 68.1711 30.0419 68.7093 36.085 68 38.1463 67.7581 36.1169 67.0754 39.0921 66.3333 44.3604 65.0193 40.8474 65.7048 49.7839 65.3333 56.3332 63.1554 51.0844 64.6503 66.1558 65 68.3949 65.5584 67.4822 65.3992 70.8335 65.6667 75.4136 66.0322 78.3902 66.1154 83.1959 66.3333 87.6596 67.0755 85.7157 66.8919 93.5537 66.3333 93.905 66.3083 94.2174 66.0965 94.556 66 95.3732 65.767 97.3017 65.3961 97.8972 65L98.8996 64.3333C99.0109 64 98.9846 63.5818 99.2337 63.3333 99.8016 62.7668 101.238 62 101.238 62 101.684 61.3333 102.321 60.7601 102.575 60 103.036 58.6199 102.714 59.2924 103.577 58 104.179 50.7964 104.004 54.7428 103.577 43.6667 103.487 41.3324 103.423 38.9958 103.243 36.6667 103.2 36.1017 103.002 35.5588 102.909 35 102.78 34.225 102.686 33.4444 102.575 32.6667 102.464 27.7777 102.534 22.8814 102.241 18 102.199 17.2986 101.688 16.6931 101.573 16 101.461 15.3333 101.403 14.6556 101.238 14 101.068 13.3182 100.793 12.6667 100.57 12 100.459 11.6667 100.447 11.281 100.236 11 99.902 10.5556 99.5574 10.1187 99.2337 9.66667 99.0003 9.34068 98.906 8.87895 98.5655 8.66667 97.9682 8.29417 97.229 8.22226 96.5608 8L95.5584 7.66667C95.2243 7.55559 94.8491 7.52819 94.556 7.33333 94.2219 7.11108 93.9206 6.8294 93.5537 6.66667 92.91 6.38131 92.2172 6.22226 91.549 6 91.2148 5.88892 90.8397 5.86152 90.5466 5.66667 90.2125 5.44441 89.9034 5.17921 89.5442 5 89.2293 4.84283 88.885 4.74572 88.5419 4.66667 87.4351 4.41186 86.3026 4.27486 85.2007 4 82.0964 3.22572 85.9556 4.15066 81.8595 3.33333 80.5971 3.08147 79.7968 2.75853 78.5183 2.33333L75.5112 1.33333 73.5065 0.666667C73.1723 0.555591 72.8563 0.333333 72.5041 0.333333L62.8146 0Z" stroke="#000000" stroke-miterlimit="8" fill="#595959" fill-rule="evenodd" transform="matrix(1.00033 0 -0 1 97.5 138.5)"/><path d="M40.9557 0 40.9557 0C39.9648 0.222257 38.9255 0.286194 37.9831 0.666666L35.0105 2.66667C34.6802 2.88892 34.4112 3.2675 34.0196 3.33333 31.27 3.7958 32.7009 3.57113 29.7259 4L26.7533 5C26.423 5.11107 26.0522 5.13847 25.7625 5.33333 25.4322 5.55559 25.1343 5.83727 24.7716 6 24.1353 6.28535 23.3692 6.27685 22.7899 6.66666L20.8081 8C20.5879 8.33333 20.4282 8.71674 20.1476 8.99999 19.8669 9.28325 19.3536 9.31884 19.1567 9.66666 19.0469 9.86047 18.4989 13.3221 18.4961 13.3333 18.3273 14.0151 18.0558 14.6667 17.8355 15.3333 17.0436 17.731 18.0044 14.7368 17.175 17.6667 17.0794 18.0045 16.9292 18.3258 16.8447 18.6667 16.5765 19.7494 16.2959 21.6507 16.1841 22.6667 16.0498 23.8864 15.9959 25.1144 15.8538 26.3333 15.7756 27.0045 15.6018 27.6621 15.5235 28.3333 15.3814 29.5522 15.2943 30.777 15.1932 32 14.7966 36.8038 15.3265 34.9298 14.5327 37.3333 14.3738 38.776 14.2665 40.5407 13.8721 42 13.6889 42.678 13.4317 43.3333 13.2115 44L12.8812 45 12.5509 46C11.8343 51.7858 12.7366 45.9169 11.5601 50.6666 11.45 51.111 11.4086 51.5789 11.2298 52 11.0734 52.3682 10.7305 52.6339 10.5692 53 10.2865 53.6422 10.1289 54.3333 9.90864 55 9.79857 55.3333 9.77142 55.7076 9.57835 56 8.53152 57.5846 9.04333 56.6199 8.2572 59L7.92691 60C7.81685 60.3333 7.65384 60.6534 7.59662 61 6.77543 65.9722 7.8622 59.055 6.93605 67 6.54989 70.3122 6.68315 66.9427 5.94518 70.6666 5.52585 72.7825 5.75107 71.7837 5.28461 73.6666 5.17454 76.2222 5.10318 78.7797 4.95432 81.3333 4.86662 82.8387 4.65701 85.3503 4.29374 86.9999 4.21822 87.3429 4.07352 87.6666 3.96345 87.9999 3.85339 89.5555 3.79493 91.1156 3.63317 92.6666 3.34771 95.4039 3.41024 93.3455 2.97259 95.3333 2.82726 95.993 2.78264 96.6724 2.6423 97.3333 2.14463 99.6772 2.01439 99.9011 1.32115 102L1.32115 102C0.906393 103.674 1.13442 102.899 0.660576 104.333 0.39853 106.449 0 109.323 0 111.333 0 112.339 0.134716 113.347 0.330288 114.333 1.04548 117.942 0.645076 115.048 1.65144 117.333 1.93419 117.975 2.09179 118.667 2.31202 119.333L2.6423 120.333C2.75236 121.333 2.82102 122.339 2.97259 123.333 3.14465 124.462 3.34543 124.65 3.63317 125.667 3.86827 126.497 3.87909 127.398 4.62403 128 4.89585 128.219 5.27899 128.241 5.61489 128.333 6.49081 128.574 8.2572 129 8.2572 129L45.2494 128.667C46.9043 128.64 48.5936 128.72 50.2038 128.333 54.1126 127.394 50.2503 126.566 54.1672 126.333 60.7773 125.941 57.9187 126.209 62.7547 125.667 63.085 125.556 63.4041 125.402 63.7456 125.333 64.7599 125.129 66.0535 125.169 67.0484 124.667 67.4035 124.487 67.709 124.222 68.0393 124 68.2595 123.667 68.5223 123.358 68.6999 123 69.1724 122.046 69.1067 121.024 69.3605 120 69.5293 119.318 69.8008 118.667 70.021 118L71.3422 114 71.6725 113C71.7825 112.667 71.9455 112.346 72.0028 112 72.223 110.667 72.2398 109.282 72.6633 108 72.7734 107.667 72.9091 107.341 72.9936 107L73.6542 104.333C74.3994 93.0508 73.6542 106.762 73.6542 88.3333 73.6542 81.7767 73.685 75.2161 73.9845 68.6666 74.0166 67.9647 74.4248 67.3333 74.6451 66.6666L74.9753 65.6666C74.8653 62.7777 74.9124 59.8784 74.6451 57 74.58 56.3003 74.2047 55.6666 73.9845 55L73.6542 54C73.5441 52.5556 73.3239 51.1154 73.3239 49.6666 73.3239 46.6645 73.4845 43.6638 73.6542 40.6666 73.7049 39.7723 73.8916 38.8909 73.9845 38 74.1118 36.7795 74.2047 35.5556 74.3148 34.3333 74.2047 32.4444 74.1623 30.5503 73.9845 28.6667 73.9179 27.9613 73.1342 25.7588 72.9936 25.3333L71.6725 21.3333 71.3422 20.3333C71.2321 20 71.0964 19.6742 71.0119 19.3333 70.9018 18.8889 70.8063 18.4405 70.6816 18 70.586 17.6621 70.4358 17.3409 70.3513 17 69.4177 13.2308 70.7776 17.6239 69.3605 13.3333 69.2504 13 69.3199 12.5282 69.0302 12.3333L68.0393 11.6667C67.9292 11.3333 67.9265 10.941 67.709 10.6667 67.461 10.3538 67.0231 10.2565 66.7181 9.99999 64.1751 7.8612 67.1966 9.98855 64.7364 8.33333 63.195 6 64.0758 6.77774 62.4244 5.66666 62.2042 5.33333 62.1005 4.87895 61.7638 4.66666 61.1734 4.29417 60.4427 4.22225 59.7821 4 56.6997 2.96304 59.139 3.6842 52.1855 3.33333L50.2038 2.66667C49.8735 2.55559 49.5026 2.52819 49.2129 2.33333 48.8826 2.11107 48.6177 1.69858 48.222 1.66667 45.8077 1.47171 42.1668 0.277795 40.9557 0Z" stroke="#000000" stroke-miterlimit="8" fill="#A6A6A6" fill-rule="evenodd" transform="matrix(1.00033 0 -0 1 200.5 75.5)"/></g></svg>