<svg width="301" height="250" xmlns="http://www.w3.org/2000/svg" xmlns:xlink="http://www.w3.org/1999/xlink" overflow="hidden"><defs><clipPath id="clip0"><path d="M0 0 301 0 301 250 0 250Z" fill-rule="evenodd" clip-rule="evenodd"/></clipPath></defs><g clip-path="url(#clip0)"><rect x="0" y="0" width="300.901" height="250" fill="#D3D3C3" transform="scale(1.00033 1)"/><path d="M5.4073 6.7692 5.4073 6.7692C7.52784 6.66666 9.65369 6.63943 11.7688 6.4615 12.1028 6.4334 12.4859 6.3832 12.723 6.15381 13.2636 5.63089 13.9954 4.30767 13.9954 4.30767 13.8894 3.48713 14.108 2.56037 13.6773 1.84614 13.2921 1.20731 12.4941 0.849226 11.7688 0.615381L9.86036 0C8.09236 0.131604 6.11568-0.377563 4.77114 0.923072 4.50085 1.18454 4.45918 1.65019 4.13499 1.84614 3.56636 2.18998 2.22653 2.46153 2.22653 2.46153 2.01445 2.76922 1.86067 3.12313 1.59038 3.3846 1.32009 3.64606 0.838719 3.68638 0.636152 3.99998 0.280709 4.55004 0 5.84612 0 5.84612 0.580351 6.68818 0.585962 6.95274 1.59038 7.38458 2.20319 7.64798 3.49884 7.99996 3.49884 7.99996 4.45307 7.89743 5.42002 7.87446 6.36152 7.69227 7.01911 7.56502 7.63383 7.28205 8.26998 7.07689L5.4073 6.7692Z" stroke="#000000" stroke-miterlimit="8" fill="#A6A6A6" fill-rule="evenodd" transform="matrix(1.00033 0 -0 1 163.5 152.5)"/><path d="M34.565 1.68605 34.565 1.68605C33.5484 1.79842 32.5381 2.02326 31.5152 2.02326 29.0086 2.02326 28.5603 1.71759 26.4321 1.01163 26.0932 0.899261 25.7127 0.871541 25.4154 0.674419L24.3988 0C21.2361 0.112368 18.0629 0.0604322 14.9104 0.33721 14.1987 0.39966 13.4715 0.61728 12.8772 1.01163L7.79407 4.38373 6.77745 5.05815 5.76083 5.73256C4.90912 8.27528 6.15713 5.23965 4.40534 7.41861 4.18217 7.69613 4.22625 8.11236 4.06647 8.43024 3.50165 9.55424 3.38873 9.44187 2.37211 10.1163 2.14616 10.7907 2.09066 11.5481 1.69436 12.1395 0.140779 14.4586 0.596416 13.3939 0 15.1744 0.156255 16.2626 0.340047 18.5482 1.01662 19.5582 2.95892 22.4573 0.63025 18.7892 2.03324 21.5814 2.21543 21.9439 2.52879 22.2306 2.71098 22.593 3.18839 23.5432 3.12318 25.2027 4.40534 25.6279 8.11298 26.8577 2.49709 24.8964 6.43858 26.6396 7.09146 26.9282 7.79407 27.0891 8.47181 27.314L10.505 27.9884 12.5383 28.6628 13.5549 29 32.5318 28.6628C32.8888 28.6508 33.2695 28.5477 33.5484 28.3256 39.1963 23.8295 29.143 30.6861 35.2427 26.6396 35.4687 26.3024 35.7551 25.9983 35.9205 25.6279 36.2106 24.9783 36.3723 24.2791 36.5982 23.6047L36.9371 22.593 37.276 21.5814C37.3889 21.2442 37.5448 20.9184 37.6149 20.5698 37.8084 19.6071 38.0055 18.4874 38.2926 17.5349L39.3092 14.5 39.6481 13.4884 39.987 12.4768C39.874 11.1279 39.8717 9.76538 39.6481 8.43024 39.2109 5.82029 39.1561 7.1138 38.2926 5.39535 38.1328 5.07748 38.1272 4.69449 37.9537 4.38373 37.5582 3.67521 37.371 2.61675 36.5982 2.36047L34.565 1.68605Z" stroke="#000000" stroke-miterlimit="8" fill="#A6A6A6" fill-rule="evenodd" transform="matrix(1.00033 0 -0 1 151.5 160.5)"/><path d="M43.314 62.9999 43.314 62.9999C42.8486 58.38 42.6737 58.266 43.314 52.3333 43.3894 51.6346 43.9856 50.3333 43.9856 50.3333 43.8737 47.4444 43.8373 44.5517 43.6498 41.6666 43.6131 41.1013 43.4642 40.5465 43.314 40 43.1278 39.322 42.6425 38 42.6425 38 43.0983 31.2128 43.3055 30.5561 42.6425 22 42.5883 21.2993 42.3636 20.5846 41.971 20 41.5233 19.3333 40.8831 18.7601 40.6279 18L39.6206 15 38.9491 13 38.6133 12C38.5014 10.7777 38.4523 9.54823 38.2775 8.33332 38.2275 7.9855 38.1629 7.60766 37.9418 7.33332 37.6896 7.02046 37.2702 6.88892 36.9345 6.66666 36.8226 6.33333 36.849 5.91516 36.5987 5.66666 36.3484 5.41816 35.9079 5.49049 35.5914 5.33333 35.2304 5.15412 34.945 4.84587 34.5841 4.66666 34.2676 4.5095 33.8933 4.49049 33.5768 4.33333 33.2158 4.15412 32.9304 3.84588 32.5695 3.66666 32.253 3.5095 31.8787 3.49049 31.5622 3.33333 31.2012 3.15412 30.9236 2.82939 30.5549 2.66666 29.908 2.38131 29.2118 2.22225 28.5403 2L25.5184 0.999999C24.9413 0.809028 23.7228 0.377427 23.168 0.333333 20.8225 0.147086 18.4672 0.111076 16.1169 0 13.6546 0.111076 11.1869 0.138163 8.72996 0.333333 7.7252 0.413123 7.57767 0.905301 6.71535 1.33333 6.39883 1.4905 6.04382 1.55559 5.70805 1.66666L4.36498 5.66666C4.25309 5.99999 4.32374 6.4718 4.02921 6.66666L2.01461 7.99999C1.79073 8.33332 1.62839 8.71674 1.34307 8.99999 1.05775 9.28324 0.587884 9.3538 0.335768 9.66666 0.114637 9.94099 0.111887 10.3333 0 10.6667 0.0237946 10.9503-0.000740275 14.4653 0.671535 15.6666 1.06346 16.367 1.75942 16.9065 2.01461 17.6666L2.68614 19.6666C2.79803 21.6666 2.92589 23.6658 3.02191 25.6666 3.14977 28.3326 3.17885 31.0035 3.35768 33.6666 3.40294 34.341 3.59245 34.9983 3.69345 35.6666 3.92822 37.2206 4.36498 40.3333 4.36498 40.3333 4.47687 46.2222 4.49273 52.1136 4.70075 57.9999 4.70889 58.2296 5.20773 60.0065 5.37228 60.3333 5.55281 60.6916 5.8799 60.9672 6.04382 61.3333 6.33126 61.9755 6.49147 62.6666 6.71535 63.3333 6.82724 63.6666 6.85484 64.0409 7.05112 64.3333 8.0744 65.857 8.49011 67.0316 10.4088 67.6666L12.4234 68.3333C12.7592 68.4443 13.0782 68.6348 13.4307 68.6666L17.1242 68.9999 22.4964 68.6666 31.5622 67.9999C35.2669 67.2644 33.837 67.6916 35.9272 66.9999 37.9245 67.1652 41.2466 67.6841 43.314 66.9999 43.6969 66.8732 43.314 63.6666 43.314 62.9999Z" stroke="#000000" stroke-miterlimit="8" fill="#595959" fill-rule="evenodd" transform="matrix(1.00033 0 -0 1 52.5 122.5)"/><path d="M56.648 3.00723 56.648 3.00723C55.8705 2.4503 55.1567 1.79076 54.3154 1.33655 53.6969 1.00262 52.9825 0.891066 52.3161 0.668273 50.8819 0.188906 51.6572 0.419591 49.9835 0L34.6552 0.334136C33.5877 0.376127 31.9296 1.0224 30.9898 1.33655L29.9901 1.67068C29.6569 1.78203 29.2827 1.80949 28.9904 2.00482 28.6572 2.22761 28.3567 2.50997 27.9908 2.67309 27.3488 2.95913 26.6579 3.11857 25.9914 3.34136L24.9918 3.6755C24.6585 3.78684 24.3385 3.95176 23.9921 4.00964 22.641 4.23548 21.9026 4.3041 20.6599 4.67791 19.987 4.88029 19.3421 5.17538 18.6605 5.34618 18.3468 5.4248 16.7191 5.79661 16.3279 6.01446 15.6278 6.40448 15.0885 7.09706 14.3286 7.351 13.9954 7.46235 13.636 7.51412 13.3289 7.68514 12.6288 8.07516 11.996 8.5762 11.3296 9.02169 10.9964 9.24448 10.7099 9.56293 10.3299 9.68996 7.95066 10.4853 8.91506 9.96747 7.33092 11.0265 6.11567 14.6823 8.15122 9.24258 5.99802 12.6972 5.62565 13.2945 5.55376 14.0337 5.33157 14.702 5.22054 15.0361 5.19314 15.4113 4.99835 15.7044 3.08843 18.5771 5.37828 14.9425 3.99868 17.7092 3.81953 18.0684 3.49491 18.3447 3.33223 18.7116 3.04697 19.3554 2.88797 20.0482 2.66579 20.7165L2.33256 21.7189 1.99934 22.7213 1.66612 23.7237C1.55508 26.2854 1.50879 28.8508 1.33289 31.4088 1.27339 32.2741 0.926938 33.8359 0.666447 34.7502 0.569996 35.0889 0.409419 35.4088 0.333223 35.7526 0.186605 36.4139 0.111039 37.0891 0 37.7574 0.111039 41.2101 0.0547851 44.6724 0.333223 48.1157 0.390003 48.8178 0.884223 49.4257 0.99967 50.1205 1.42599 52.6855 1.20034 51.4609 1.66612 53.796 1.88221 57.6967 1.59045 59.2488 2.66579 62.4835 2.88797 63.1518 2.94255 63.9023 3.33223 64.4883 3.7765 65.1566 4.41188 65.7312 4.66513 66.4932 4.93611 67.3084 5.01882 67.8502 5.6648 68.498 5.94796 68.7819 6.33124 68.9435 6.66447 69.1663 6.77551 69.5004 6.8029 69.8756 6.99769 70.1687 7.5108 70.9405 8.25943 71.3462 8.99703 71.8393 9.21922 72.1735 9.35072 72.5909 9.66348 72.8418 9.93772 73.0618 10.3561 73.0049 10.6631 73.1759 11.3633 73.5659 11.996 74.067 12.6625 74.5124 12.9957 74.7352 13.2822 75.0537 13.6622 75.1807L15.6615 75.849C22.6684 78.191 16.31 76.1769 35.6549 76.5173 39.7646 76.4059 43.8778 76.384 47.9842 76.1831 48.2208 76.1715 49.9848 75.6813 50.3167 75.5148 50.6749 75.3352 50.9832 75.0694 51.3164 74.8466L52.3161 71.8393 52.6493 70.8369C52.7603 70.5028 52.8973 70.1762 52.9825 69.8345 53.0936 69.389 53.1841 68.9379 53.3158 68.498 53.5176 67.8233 53.76 67.1614 53.9822 66.4932L54.6486 64.4883C54.7597 64.1542 54.8966 63.8276 54.9819 63.4859 55.2041 62.5949 55.3586 61.6841 55.6483 60.8128L56.3148 58.808C56.565 55.7975 56.5459 55.0784 56.9812 52.4594 57.1001 51.744 57.423 50.2031 57.6477 49.4522 57.8495 48.7775 58.0919 48.1157 58.3141 47.4474L59.3138 44.4402 59.647 43.4377 59.9802 42.4353C60.0913 41.6557 60.194 40.8748 60.3134 40.0964 60.4162 39.4267 60.5881 38.7665 60.6467 38.0916 60.8105 36.202 60.8688 34.3047 60.9799 32.4112 60.8688 25.0602 60.8591 17.707 60.6467 10.3582 60.6365 10.0062 60.4706 9.6708 60.3134 9.35582 60.1343 8.99664 59.8261 8.71259 59.647 8.35341 59.4899 8.03843 59.4843 7.65893 59.3138 7.351 58.1703 5.28725 58.4415 5.65412 56.9812 4.67791 56.759 4.34377 56.6275 3.92639 56.3148 3.6755 55.2097 2.78907 56.5925 3.11857 56.648 3.00723Z" stroke="#000000" stroke-miterlimit="8" fill="#D9D9D9" fill-rule="evenodd" transform="matrix(1.00033 0 -0 1 96.5 114.5)"/><path d="M51.9018 4 51.9018 4C51.1207 3.33334 50.4346 2.5369 49.5584 2 48.4113 1.29722 46.7979 1.27811 45.5411 1 44.5016 0.769974 44.4353 0.599266 43.5325 0 43.0687 0.0923885 41.4334 0.346352 40.8543 0.666667 40.1509 1.05575 39.6394 1.86824 38.8456 2 34.5229 2.71738 37.515 2.30121 29.8068 2.66667 27.511 3.42866 30.3604 2.52882 27.1286 3.33334 26.7862 3.41859 26.4769 3.65208 26.1243 3.66667 21.1059 3.87486 16.0811 3.88893 11.0595 4 10.2784 4.11108 9.48983 4.17922 8.71611 4.33334 7.81375 4.51307 6.03793 5 6.03793 5 4.44641 6.05649 5.16088 5.28662 4.36406 7.66667L4.02929 8.66667C3.91774 9.00001 3.98817 9.47182 3.69452 9.66667 3.35975 9.88893 3.05787 10.1706 2.6902 10.3333 2.04522 10.6187 0.681565 11 0.681565 11 0.458349 11.6667-0.0878317 12.3044 0.0120202 13 0.123576 13.7778 0.192007 14.563 0.346793 15.3333 0.415962 15.6779 0.46109 16.059 0.681565 16.3333 0.932935 16.6462 1.37684 16.7435 1.68588 17 2.04955 17.3019 2.27635 17.771 2.6902 18 3.30713 18.3413 4.11164 18.2769 4.69884 18.6667 5.03361 18.8889 5.33548 19.1706 5.70315 19.3333 7.13514 19.9671 7.68754 19.9455 9.05088 20.3333 9.39019 20.4298 9.71136 20.5876 10.0552 20.6667 11.1641 20.9215 12.3233 20.975 13.4029 21.3334 13.7377 21.4444 14.0634 21.5876 14.4072 21.6667 15.5162 21.9215 16.6509 22.0585 17.755 22.3334 18.2013 22.4444 18.6533 22.535 19.0941 22.6667L22.107 23.6667 23.1113 24C23.4461 24.1111 23.7696 24.2645 24.1156 24.3334 25.0714 24.5237 26.183 24.7176 27.1286 25 27.8046 25.2019 28.4386 25.5673 29.1372 25.6667L31.4806 26 45.8759 25.3334C46.443 25.2882 46.9857 25.0749 47.5497 25 50.1129 24.6598 52.7278 24.6277 55.2495 24 55.5919 23.9148 55.919 23.7778 56.2538 23.6667 56.477 23.3334 56.6389 22.9499 56.9234 22.6667 57.2078 22.3834 57.8807 22.3979 57.9277 22 58.1237 20.3411 57.7267 18.6651 57.5929 17 57.5035 15.8869 57.4167 14.7721 57.2581 13.6667 57.1316 12.7851 56.4868 11.0293 56.2538 10.3333L55.919 9.33334C55.8075 9.00001 55.78 8.62573 55.5843 8.33334 55.3611 8.00001 55.0947 7.69166 54.9147 7.33334 54.7569 7.01911 54.7378 6.64756 54.58 6.33334 54.4 5.97502 54.1949 5.61659 53.9104 5.33334 53.6259 5.05008 52.2365 4.22226 51.9018 4Z" stroke="#000000" stroke-miterlimit="8" fill="#D9D9D9" fill-rule="evenodd" transform="matrix(1.00033 0 -0 1 38.5 96.5)"/><path d="M30.818 24.4352 30.818 24.4352C35.731 24.3281 40.6515 24.3962 45.557 24.1137 46.2619 24.0731 46.8817 23.635 47.5668 23.4706 49.7801 22.9396 48.4499 23.2039 51.5866 22.8276 52.4476 22.5522 53.006 22.3461 53.9314 22.1846 54.7083 22.049 55.4947 21.9702 56.2763 21.8631L60.296 20.577 61.3009 20.2555 62.3059 19.934C62.5292 19.2909 63.0261 18.6809 62.9758 18.0049 62.9009 16.9985 62.9966 13.0513 61.9709 11.5746 61.5243 10.9315 61.3009 10.0741 60.631 9.64547L59.626 9.00244C57.8395 6.43031 60.1844 9.53833 57.9512 7.39486 57.6665 7.12165 57.5842 6.68479 57.2812 6.43031 56.6753 5.92136 55.9413 5.57291 55.2713 5.14425L54.2664 4.50122 53.2615 3.85819C52.9265 3.64381 52.6385 3.33738 52.2565 3.21516 51.9216 3.10802 51.5674 3.04523 51.2516 2.89364 50.8915 2.72078 50.6068 2.42347 50.2467 2.25061 49.9309 2.09902 49.5575 2.08069 49.2417 1.92909 48.8816 1.75624 48.6047 1.44302 48.2368 1.28606 47.5914 1.01083 46.8969 0.857409 46.2269 0.643031 45.892 0.535893 45.5724 0.363541 45.222 0.321516L42.5422 0C41.4082 0.135999 38.954 0.259744 37.8525 0.964547 34.9725 2.80736 38.6163 0.597969 35.8426 1.92909 35.0927 2.28899 34.7383 2.86316 33.8328 2.89364 27.8058 3.09658 21.7736 3.10802 15.744 3.21516 11.7186 4.50304 14.4393 3.89383 7.36951 3.53667 5.47127 3.64381 3.53557 3.48219 1.67489 3.85819 1.28093 3.93778 1.16847 4.46963 1.00493 4.82274 0.386781 6.15771 0.286551 6.98413 0 8.35941 0.111624 10.1814 0.145808 12.0092 0.334978 13.8252 0.432148 14.7576 0.792447 15.0564 1.67489 15.4328 2.32026 15.708 3.0148 15.8614 3.68476 16.0758L4.68969 16.3973C5.02467 16.5044 5.34836 16.6524 5.69462 16.7188 6.25295 16.826 6.82025 16.8965 7.36951 17.0403 8.05086 17.2187 8.79182 17.3074 9.37938 17.6834 10.0493 18.112 10.6254 18.7251 11.3892 18.9694L13.3991 19.6125 14.404 19.934 15.409 20.2555C17.016 22.5693 14.7403 19.7204 18.0888 21.8631 18.7588 22.2917 19.3348 22.9048 20.0987 23.1491 22.5082 23.9201 19.4992 22.9848 22.4435 23.7922 22.783 23.8852 23.1038 24.0402 23.4484 24.1137 24.1114 24.2551 24.79 24.3185 25.4583 24.4352 26.0184 24.5329 26.5839 24.6129 27.1332 24.7567 29.7191 25.4337 30.2038 24.4888 30.818 24.4352Z" stroke="#000000" stroke-miterlimit="8" fill="#D9D9D9" fill-rule="evenodd" transform="matrix(1.00033 0 -0 1 30.5 75.5)"/><path d="M61.8787 16.7442 61.8787 16.7442C61.7667 14.4 61.8027 12.0441 61.5424 9.71163 61.4642 9.0099 61.0941 8.37209 60.8699 7.70232 60.7578 7.36744 60.8285 6.89344 60.5336 6.69767L59.5247 6.02791C58.9328 4.25961 59.4834 5.21902 57.1706 3.68372L56.1617 3.01395C55.9375 2.67907 55.8318 2.22257 55.4891 2.0093 54.8879 1.63508 54.1439 1.56283 53.4713 1.33953 52.7179 1.08945 51.9015 0.789904 51.1172 0.669767 50.1139 0.51609 49.0978 0.460294 48.0905 0.334884 47.304 0.237003 46.5211 0.111593 45.7365 0L15.4697 0.334884C14.8982 0.346908 14.352 0.576211 13.7882 0.669767 13.0063 0.799502 12.2188 0.893058 11.4341 1.00465L8.40744 2.0093C8.07114 2.12089 7.69353 2.14842 7.39855 2.34419L5.38076 3.68372 4.37187 4.35349C4.2598 4.68837 4.20769 5.04952 4.03557 5.35814 3.64303 6.06176 2.94597 6.6038 2.69038 7.36744 2.22624 8.75391 2.55067 8.07834 1.68149 9.37674 1.22211 19.441 1.11333 18.0791 1.68149 30.8093 1.69727 31.1619 1.94089 31.4694 2.01779 31.8139 2.35324 33.3172 2.52843 35.3862 2.69038 36.8372 2.57832 44.8744 2.5584 52.9134 2.35408 60.9488 2.33406 61.7379 2.17328 62.519 2.01779 63.293 1.9483 63.6392 1.77883 63.9582 1.68149 64.2977 1.55449 64.7402 1.45725 65.1907 1.34519 65.6372 1.30462 67.3343 1.26755 79.3164 0.672595 84.0558 0.628638 84.4061 0.448361 84.7256 0.336298 85.0605 0.224234 92.8744 0 100.688 0 108.502 0 111.741 0.0584681 114.987 0.336298 118.214 0.396884 118.917 0.784659 119.553 1.00889 120.223L1.68149 122.233 3.02668 126.251 3.36298 127.256C3.47504 127.591 3.50268 127.967 3.69927 128.26L5.04446 130.27 5.71706 131.274C5.94129 131.609 6.05336 132.056 6.38965 132.279L7.39855 132.949C7.62278 133.284 7.7555 133.702 8.07114 133.953 8.34791 134.174 8.76301 134.13 9.08003 134.288 9.44154 134.468 9.75263 134.735 10.0889 134.958 10.3132 135.293 10.4459 135.711 10.7615 135.963 11.0383 136.183 11.4534 136.14 11.7704 136.298 14.968 137.89 9.59142 135.909 14.7971 137.637L15.806 137.972C16.1423 138.084 16.5199 138.111 16.8149 138.307 18.4136 139.368 17.4403 138.849 19.8416 139.646 20.1779 139.758 20.5555 139.786 20.8504 139.981 21.1867 140.205 21.4978 140.471 21.8593 140.651 22.3969 140.919 23.7106 141.178 24.2134 141.321 26.0391 141.84 25.0354 141.848 27.9127 142.326 28.5853 142.437 29.2492 142.632 29.9305 142.66 34.6359 142.856 39.3468 142.884 44.055 142.995 44.6155 143.107 45.1715 143.244 45.7365 143.33 46.6297 143.467 47.531 143.546 48.4268 143.665L50.7809 144C53.6955 143.888 56.614 143.852 59.5247 143.665 59.9324 143.639 62.0481 143.146 62.5513 142.995 63.2304 142.792 63.9793 142.717 64.5691 142.326 65.873 141.46 65.1946 141.783 66.5869 141.321 68.0971 139.817 67.4454 140.766 68.2684 138.307L68.6047 137.302C69.0266 124.279 69.1716 125.367 68.6047 109.842 68.5812 109.198 68.1087 108.143 67.9321 107.498 66.7942 103.343 67.6973 106.126 66.9232 103.814 66.0307 97.5925 66.692 102.828 66.2506 90.0837 66.1578 87.4039 66.1132 84.7206 65.9143 82.0465 65.8882 81.6944 65.6549 81.3864 65.578 81.0418 65.43 80.379 65.4071 79.6912 65.2417 79.0325 65.0698 78.3476 64.7934 77.693 64.5691 77.0232L64.2328 76.0186C62.7296 61.0491 64.313 77.8281 63.5602 38.8465 63.5535 38.4936 63.3099 38.1843 63.2239 37.8419 63.0853 37.2897 62.9746 36.73 62.8876 36.1674 62.7414 35.2204 62.2303 30.8374 62.215 30.1395 62.1273 26.1219 61.9348 18.9768 61.8787 16.7442Z" stroke="#000000" stroke-miterlimit="8" fill="#595959" fill-rule="evenodd" transform="matrix(1.00033 0 -0 1 190.5 50.5)"/><path d="M8.35772 2.33648 8.35772 2.33648C10.1933-0.233175 9.14608-0.299301 11.3618 0.333783 11.7001 0.430396 12.0293 0.55634 12.3631 0.667566 12.5857 1.00135 12.7471 1.38528 13.0307 1.66892 13.6778 2.31598 14.219 2.39882 15.0334 2.67027 15.2559 3.00405 15.4173 3.38798 15.701 3.67162 15.9846 3.95525 16.6737 3.93906 16.7023 4.33918 16.7987 5.68924 16.4627 7.06054 16.0347 8.34458 15.9235 8.67836 15.9937 9.15081 15.701 9.34593 15.2289 9.66058 14.5884 9.56849 14.032 9.67971 13.0307 9.56849 12.016 9.54357 11.028 9.34593 10.3379 9.2079 9.69285 8.90092 9.02529 8.67836 8.69151 8.56714 8.37402 8.37959 8.02394 8.34458L4.68611 8.0108C4.01854 7.78824 3.26887 7.73357 2.68341 7.34323 1.38927 6.48055 2.06262 6.80256 0.680708 6.34188 0.45815 6.0081 0.0574002 5.73928 0.0131411 5.34053-0.0616053 4.66792 0.20006 3.99846 0.346924 3.33783 0.423248 2.99438 0.431868 2.58532 0.680708 2.33648 1.24798 1.76921 2.01584 1.44636 2.68341 1.00135 3.97754 0.138665 3.30419 0.460673 4.68611 0 5.13112 0.111226 5.61092 0.128677 6.02124 0.333783 6.73885 0.692587 7.30633 1.31011 8.02394 1.66892L8.35772 2.33648Z" stroke="#000000" stroke-width="1.00001" stroke-miterlimit="8" fill="#595959" fill-rule="evenodd" transform="matrix(0.977905 -0.210476 0.210413 0.977613 130.336 107.175)"/></g></svg>