<svg width="301" height="250" xmlns="http://www.w3.org/2000/svg" xmlns:xlink="http://www.w3.org/1999/xlink" overflow="hidden"><defs><clipPath id="clip0"><path d="M0 0 301 0 301 250 0 250Z" fill-rule="evenodd" clip-rule="evenodd"/></clipPath></defs><g clip-path="url(#clip0)"><rect x="0" y="0" width="300.901" height="250" fill="#D3D3C3" transform="scale(1.00033 1)"/><path d="M74.9754 12.1473 74.9754 12.1473C74.1979 11.4724 73.4545 10.7549 72.6428 10.1227 72.0079 9.62821 70.6435 8.77301 70.6435 8.77301 70.078 7.05518 70.7647 8.24132 69.3106 7.42332 68.6104 7.02946 67.9777 6.52349 67.3112 6.07363 66.978 5.84864 66.6915 5.52705 66.3116 5.39878 65.6451 5.17379 64.8967 5.11853 64.3122 4.72393 63.979 4.49895 63.6785 4.21381 63.3125 4.04908 62.6705 3.76023 61.9796 3.59922 61.3132 3.37424L60.3135 3.03681C59.9803 2.92437 59.6546 2.78568 59.3139 2.69939 58.8696 2.58695 58.4197 2.49523 57.981 2.36197 57.3081 2.1576 56.6481 1.9121 55.9816 1.68712 55.6484 1.57468 55.2742 1.54694 54.9819 1.34969 53.9641 0.662626 53.9558 0.49301 52.6494 0.337424 51.2111 0.166108 49.7614 0.112439 48.3175 0L27.6576 0.337424C25.0013 0.41543 26.0114 0.671446 23.9921 1.01227 23.1088 1.16137 22.2129 1.22142 21.3263 1.34969 17.9378 1.83984 20.51 1.42175 18.3273 2.02454 17.4436 2.26855 16.5304 2.40607 15.6615 2.69939 15.3283 2.81183 14.9689 2.86412 14.6619 3.03681 13.9617 3.43067 13.4224 4.13007 12.6625 4.38651 11.6606 4.72467 11.5244 4.67196 10.6632 5.39878 8.0975 7.56382 11.1458 5.41036 8.66382 7.0859 6.88666 9.78528 9.21923 6.52349 6.9977 8.77301 4.77617 11.0225 7.99737 8.66057 5.33158 10.4601 5.1094 10.7976 4.97789 11.219 4.66513 11.4724 4.39089 11.6946 3.91389 11.5583 3.66546 11.8098 3.41704 12.0614 3.55169 12.5444 3.33224 12.8221 3.08203 13.1388 2.66579 13.272 2.33257 13.4969 1.8883 14.1718 1.25292 14.7521 0.999672 15.5215L0.333224 17.546C0.222184 18.3333 0 19.1126 0 19.908 0 21.9356 0.143365 23.9631 0.333224 25.9816 0.366494 26.3357 0.569997 26.6519 0.666448 26.9939 0.808763 27.4984 1.06653 28.8165 1.3329 29.3559 1.51205 29.7186 1.83667 29.9975 1.99934 30.3681 2.2846 31.0182 2.2761 31.8008 2.66579 32.3927 2.88798 32.7301 3.15309 33.0422 3.33224 33.4049 3.48935 33.723 3.49492 34.1062 3.66546 34.4172 4.05442 35.1262 4.55409 35.7669 4.99836 36.4417L5.66481 37.454C5.88699 37.7914 5.99803 38.2413 6.33125 38.4663L7.33093 39.1411C9.24085 42.0421 6.69775 38.6282 8.99705 40.4908 9.3098 40.7442 9.36207 41.236 9.66349 41.5031 10.2662 42.0372 11.6628 42.8528 11.6628 42.8528 13.5728 45.7538 11.0297 42.3398 13.329 44.2025 13.6417 44.4559 13.6826 44.9614 13.9954 45.2148 14.2696 45.437 14.681 45.3931 14.9951 45.5522 15.3533 45.7336 15.6615 46.0021 15.9947 46.227 16.2169 46.5645 16.3216 47.0244 16.6612 47.2393 17.2569 47.6164 18.6605 47.9142 18.6605 47.9142 20.2592 50.3424 17.9953 47.3526 21.3263 49.6013L23.3257 50.951C23.6589 51.176 23.9454 51.4975 24.3253 51.6258 24.6586 51.7383 25.0109 51.8041 25.325 51.9632 26.4764 52.5462 26.068 52.7635 27.3244 52.9755 28.3165 53.143 29.3244 53.1939 30.3234 53.3129 35.2696 53.9021 30.933 53.5116 37.9875 53.9878 38.5429 54.1002 39.0912 54.2581 39.6536 54.3252 40.982 54.4834 42.3203 54.54 43.6523 54.6626L46.9846 55.0001 64.3122 54.6626C65.1026 54.635 67.648 54.0978 68.3109 53.6504 68.6441 53.4254 68.9524 53.1569 69.3106 52.9755 69.6247 52.8164 70.0032 52.8108 70.3102 52.6381 71.0104 52.2442 72.3096 51.2884 72.3096 51.2884 72.5318 50.951 72.6929 50.5629 72.976 50.2761 73.2592 49.9894 73.712 49.9065 73.9757 49.6013 74.5032 48.9909 74.8643 48.2516 75.3086 47.5767 75.5308 47.2393 75.8484 46.9492 75.975 46.5645L76.6415 44.5399 76.9747 43.5276C77.0858 42.7404 77.2258 41.9566 77.3079 41.1657 77.4479 39.8188 77.4849 38.4617 77.6412 37.1166 77.9141 34.7674 77.8754 36.1679 78.3076 34.4172 78.732 32.6983 78.7667 31.583 78.9741 29.6933 78.9451 29.1367 78.5422 20.4004 78.3076 18.8957L77.3079 15.8589 76.9747 14.8466C76.8637 14.5092 76.8363 14.1303 76.6415 13.8344 75.2215 11.6775 75.2531 12.4285 74.9754 12.1473Z" stroke="#000000" stroke-miterlimit="8" fill="#595959" fill-rule="evenodd" transform="matrix(1.00033 0 -0 1 116.5 87.5)"/><path d="M12.6867 7.33333 12.6867 7.33333C11.9077 8 11.0313 8.56766 10.3497 9.33333 8.00401 11.968 12.4577 8.70792 9.01422 11 8.5691 11.6667 7.93251 12.2399 7.67878 13 6.72357 15.8611 8.18624 11.3069 7.01106 16 6.84039 16.6818 6.56594 17.3333 6.34334 18 6.23209 18.3333 6.20464 18.7076 6.00948 19 5.78687 19.3333 5.52125 19.6417 5.34176 20 5.18434 20.3142 5.16531 20.6858 5.0079 21 4.54312 21.9282 4.07698 22.2628 3.3386 23 3.11599 23.6667 3.06131 24.4153 2.67088 25 2.44827 25.3333 2.18265 25.6417 2.00316 26 1.62156 26.762 1.52587 27.9059 1.33544 28.6667 1.25006 29.0075 1.11283 29.3333 1.00158 29.6667 0.890328 31.3333 0.852473 33.0065 0.66772 34.6667 0.628813 35.0158 0.430495 35.3288 0.33386 35.6667 0.207782 36.1072 0.111252 36.5556 0 37 0.106309 38.1671 0.111988 41.3344 1.00158 42.6666 1.22419 43 1.3856 43.3834 1.6693 43.6666 1.953 43.9499 2.33702 44.1111 2.67088 44.3333 2.78213 44.6666 2.75584 45.0848 3.00474 45.3333 3.25363 45.5818 3.69864 45.496 4.00632 45.6666 4.70779 46.0557 5.34176 46.5556 6.00948 47 8.87983 48.9105 5.24817 46.6199 8.01264 48 8.37152 48.1792 8.64755 48.5039 9.01422 48.6666 9.65743 48.952 10.3497 49.1111 11.0174 49.3333L13.0205 50C13.3544 50.1111 13.7293 50.1385 14.0221 50.3333 14.356 50.5556 14.6302 50.9214 15.0237 51 16.3378 51.2623 17.6927 51.2472 19.03 51.3333 21.1429 51.4694 23.261 51.5212 25.3733 51.6666 26.4891 51.7435 27.5991 51.8889 28.7119 52 33.0093 53.4302 28.6092 52.0577 32.3844 53 32.7258 53.0852 33.0376 53.2837 33.386 53.3333 35.6823 53.6609 41.3383 53.904 43.0679 54L60.7625 53.6666C62.1899 53.6175 62.2574 53.2935 63.4334 53 63.9838 52.8625 64.5444 52.768 65.1027 52.6666 65.7687 52.5457 66.445 52.48 67.1058 52.3333 70.0396 51.6824 64.9977 52.1578 70.7783 51.3333 73.677 50.9199 72.3437 51.1541 74.7846 50.6666 86.6552 51.0052 89.3461 51.2759 102.161 50.6666 103.954 50.5814 107.503 50 107.503 50 111.732 50.1111 115.967 50.0803 120.19 50.3333 123.458 50.5291 123.996 51.0934 126.867 51.6666 132.641 52.8197 123.762 50.975 130.539 52.6666L133.21 53.3333C133.655 53.4444 134.096 53.5768 134.546 53.6666L136.215 54 150.571 53.6666C152.047 53.6052 152.035 53.3011 153.242 53 153.792 52.8625 154.347 52.7292 154.911 52.6666 156.353 52.5066 157.804 52.4444 159.251 52.3333 162.617 51.2131 157.396 52.9223 161.588 51.6666 162.262 51.4648 162.924 51.2222 163.591 51L164.593 50.6666C164.927 50.5556 165.302 50.5282 165.594 50.3333 165.928 50.1111 166.229 49.8294 166.596 49.6666 170.172 48.08 167.334 49.8421 169.601 48.3333 170.395 45.9556 169.269 48.8302 170.936 46.3333 171.131 46.0409 171.113 45.6475 171.27 45.3333 171.45 44.975 171.775 44.6994 171.938 44.3333 173.527 40.7632 171.762 43.5964 173.273 41.3333 174.112 37.9849 173.651 39.5358 174.609 36.6667L174.943 35.6667C174.831 30.7777 174.902 25.8814 174.609 21 174.567 20.2986 174.164 19.6667 173.941 19 173.83 18.6667 173.802 18.2924 173.607 18 173.384 17.6667 173.119 17.3583 172.939 17 172.396 15.9156 172.895 15.9553 171.938 15 171.068 14.1316 169.726 13.9479 168.599 13.6667 165.729 11.7561 169.361 14.0467 166.596 12.6667 165.353 12.046 165.7 11.9215 164.593 11 164.285 10.7435 163.925 10.5556 163.591 10.3333 162.466 8.64756 163.535 9.80504 161.922 9 161.563 8.82078 161.287 8.49606 160.92 8.33333 160.277 8.04798 159.585 7.88892 158.917 7.66666 158.583 7.55559 158.266 7.36829 157.916 7.33333L154.577 7C153.796 6.90824 153.02 6.7705 152.24 6.66666L149.569 6.33333C148.901 6.11107 148.152 6.05648 147.566 5.66666 146.764 5.13291 146.513 4.83916 145.563 4.66666 142.491 4.10897 137.675 4.10687 135.213 4 131.931 2.90761 135.617 4 127.534 4 122.525 4 117.519 3.77774 112.511 3.66667 112.065 3.67559 99.249 3.12756 93.8146 4.33333 93.4711 4.40955 93.1514 4.57018 92.813 4.66666 92.3718 4.79254 91.9227 4.88892 91.4776 5 87.9164 4.88892 84.347 4.9327 80.7941 4.66666 79.8789 4.59811 79.0135 4.22226 78.1232 4 77.8089 3.92157 76.1781 3.55065 75.7862 3.33333 75.0847 2.94425 74.5443 2.25333 73.783 2 73.4492 1.88892 73.0962 1.82383 72.7814 1.66667 72.4226 1.48745 72.1465 1.16273 71.7799 1 69.4219-0.0462992 68.3721 0.225407 65.4365 0 63.5446 0.111076 61.6401 0.0886089 59.7609 0.333333L56.7562 1.33333 54.753 2C54.4191 2.11108 54.0929 2.24808 53.7514 2.33333 53.3063 2.44441 52.8555 2.53501 52.416 2.66667 51.7419 2.86856 51.1166 3.32556 50.4128 3.33333L20.3654 3.66667C19.4123 3.85701 18.3037 4.05092 17.3607 4.33333 16.6866 4.53522 15.9871 4.68577 15.3576 5 14.9124 5.22225 14.4542 5.42016 14.0221 5.66666 13.6737 5.8654 13.3794 6.15412 13.0205 6.33333 12.7058 6.4905 12.3457 6.53617 12.019 6.66666 11.7879 6.75895 12.5754 7.22225 12.6867 7.33333Z" stroke="#000000" stroke-miterlimit="8" fill="#595959" fill-rule="evenodd" transform="matrix(1.00033 0 -0 1 35.5 137.5)"/><path d="M46.9846 75.6667 46.9846 75.6667C47.54 74.889 48.1931 74.1724 48.6507 73.3334 48.8701 72.9312 48.9839 72.4582 48.9839 72.0001 48.9839 69.5531 48.8083 67.1086 48.6507 64.6667 48.5817 63.5962 48.3968 60.7858 47.6511 59.6667 47.4289 59.3334 47.1473 59.0328 46.9846 58.6667 46.6993 58.0245 46.7078 57.2514 46.3182 56.6667 46.096 56.3334 45.8309 56.025 45.6517 55.6667 45.4127 55.1885 45.092 53.7606 44.9853 53.3334 44.8742 52.3334 44.7719 51.3323 44.652 50.3334 44.6252 50.1093 44.267 44.4222 43.3191 43 43.097 42.6667 42.9358 42.2833 42.6527 42 42.3695 41.7168 41.9862 41.5556 41.653 41.3334 41.542 41 41.4769 40.6476 41.3198 40.3334 41.1406 39.975 40.816 39.6995 40.6533 39.3334 40.3681 38.6912 40.2091 38 39.9869 37.3334L39.6537 36.3334C39.5426 30.3334 39.5021 24.3317 39.3204 18.3333 39.2799 16.996 39.164 15.6595 38.9872 14.3333 38.9408 13.9851 38.7392 13.6742 38.654 13.3333 38.5166 12.7837 38.4582 12.2163 38.3208 11.6667 38.2356 11.3258 38.207 10.941 37.9875 10.6667 37.7373 10.3538 37.3211 10.2223 36.9879 10 36.7657 9.66667 36.5006 9.35833 36.3214 9.00001 36.1643 8.68578 36.2077 8.27434 35.9882 8.00001 35.738 7.68714 35.3218 7.5556 34.9885 7.33334 34.769 6.67455 34.5761 5.80326 33.9889 5.33334 33.7146 5.11381 33.3224 5.11108 32.9892 5 32.767 4.66667 32.6355 4.25029 32.3227 4 32.0485 3.78048 31.6372 3.82383 31.3231 3.66667 30.9649 3.48746 30.6816 3.17922 30.3234 3 30.0093 2.84284 29.6378 2.82383 29.3237 2.66667 28.9655 2.48746 28.69 2.16273 28.3241 2 27.6821 1.71465 26.9912 1.55559 26.3247 1.33333L23.3257 0.333334 22.326 0C19.5492 0.111076 16.7674 0.135223 13.9954 0.333334 13.6451 0.358321 13.3099 0.509502 12.9957 0.666667 12.6375 0.84588 12.3543 1.15412 11.9961 1.33333 8.47701 3.09344 15.301-1.20399 8.99705 3L7.99738 3.66667C7.10875 6.33334 8.44164 3.22226 6.66448 5 6.41606 5.24851 6.55071 5.72567 6.33126 6 6.08105 6.31287 5.66481 6.44441 5.33159 6.66667 4.49407 9.18017 5.62388 6.082 4.33191 8.66667 4.1748 8.9809 4.1558 9.35245 3.99869 9.66667 3.81954 10.025 3.49492 10.3006 3.33224 10.6667 3.04698 11.3089 2.88798 12 2.66579 12.6667L2.33257 13.6667 1.99934 14.6667C1.88831 16.1111 1.7864 17.5563 1.66612 19 1.34161 22.8949 1.70926 21.5372 0.999672 23.6667 0.0872155 30.0562 0.973434 23.232 0.333224 37 0.281378 38.1155 0.11104 39.2223 0 40.3334 0.11104 46.7778 0.125523 53.2246 0.333224 59.6667 0.351171 60.2245 1.26657 62.8009 1.3329 63 1.44394 63.3334 1.47133 63.7077 1.66612 64.0001 1.88831 64.3334 2.15341 64.6417 2.33257 65.0001 2.80202 65.9393 2.7379 67.5797 3.99869 68.0001L4.99836 68.3334C5.22055 68.6667 5.35205 69.0831 5.66481 69.3334 5.93905 69.5529 6.35739 69.4961 6.66448 69.6667 7.36462 70.0558 7.99738 70.5556 8.66383 71.0001L9.6635 71.6667C11.4407 74.3334 9.10809 71.1111 11.3296 73.3334 12.8368 74.8411 11.0496 74.0178 12.9957 74.6667 13.2892 75.5472 13.8025 77.3802 14.6619 77.6667L15.6615 78.0001C19.5492 77.889 23.4405 77.8712 27.3244 77.6667 27.6751 77.6482 27.9731 77.3475 28.3241 77.3334 33.6525 77.1202 43.8745 75.9445 46.9846 75.6667Z" stroke="#000000" stroke-miterlimit="8" fill="#D9D9D9" fill-rule="evenodd" transform="matrix(1.00033 0 -0 1 36.5 64.5)"/><path d="M15.1321 51 15.1321 51C16.1409 50.8874 17.1573 50.8299 18.1585 50.6622 18.5081 50.6037 18.8153 50.3661 19.1673 50.3245 20.7298 50.1398 22.3058 50.0993 23.8751 49.9867 24.5476 49.8742 25.2459 49.8656 25.8927 49.649 26.2761 49.5206 26.54 49.1551 26.9015 48.9735 27.2185 48.8142 27.5933 48.795 27.9103 48.6357 30.5178 47.3262 27.3923 48.4714 29.9279 47.6225 31.8553 44.7187 29.289 48.136 31.6093 46.2715 33.7822 44.5255 30.755 45.7694 33.2906 44.9205 34.1093 42.4536 33.7913 43.5848 34.2994 41.543 34.1874 40.192 34.1415 38.8338 33.9632 37.49 33.9163 37.1372 33.7129 36.8222 33.6269 36.4768 33.4883 35.9199 33.441 35.3419 33.2906 34.7881L32.2818 31.7483 31.9455 30.7351C32.0576 28.7086 32.1518 26.681 32.2818 24.6556 32.3759 23.1908 32.5517 21.7313 32.6181 20.2649 32.776 16.7766 32.6488 13.273 32.9544 9.7947 32.9898 9.39036 33.4627 9.15239 33.6269 8.78145 33.9148 8.13074 34.0752 7.43046 34.2994 6.75496L34.6357 5.74172 34.972 4.72847C34.8599 3.37748 35.2393 1.88809 34.6357 0.675496 34.3187 0.038615 32.6181 0 32.6181 0 31.8335 0.112547 31.0365 0.158715 30.2642 0.337748 29.5734 0.497846 28.2466 1.01324 28.2466 1.01324 28.1345 1.35099 28.161 1.77469 27.9103 2.02649 27.6596 2.27828 27.2114 2.19137 26.9015 2.36424 26.195 2.75847 25.5564 3.26493 24.8839 3.71523L21.8575 5.74172C21.5212 5.96692 21.2321 6.28882 20.8487 6.41721 19.7958 6.76975 18.6041 7.22632 17.486 7.43046 16.7062 7.5729 15.9167 7.65566 15.1321 7.76821 14.3116 8.04287 13.7664 8.1267 13.1145 8.78145 10.8727 11.0331 14.1233 8.6689 11.4331 10.4702 11.3211 10.8079 11.269 11.1722 11.0969 11.4834 10.7044 12.1931 10.2001 12.8344 9.7518 13.5099L8.40672 15.5364 7.73419 16.5497C7.50997 16.8874 7.18948 17.1778 7.06165 17.5629 6.83743 18.2384 6.78236 18.997 6.38911 19.5894 6.16489 19.9271 5.88073 20.2317 5.71657 20.6026L4.70776 23.6424C4.59571 23.9801 4.56807 24.3594 4.3715 24.6556 4.14728 24.9934 3.86312 25.2979 3.69896 25.6689 2.96732 27.3223 3.14165 27.5349 2.69015 29.0463 2.48648 29.7283 2.41086 30.4804 2.01761 31.0728 1.7934 31.4106 1.50924 31.7151 1.34508 32.0861 0.520661 33.9493 0.788299 33.9851 0.336269 35.8013 0.250269 36.1467 0.112054 36.4768 0 36.8145 0.112054 39.404 0.13832 41.9985 0.336269 44.5828 0.363488 44.9377 0.451077 45.318 0.672538 45.596 0.925031 45.913 1.34508 46.0463 1.68134 46.2715 2.80221 47.9602 2.01761 47.0595 4.3715 48.6357 4.70776 48.8609 4.9969 49.1828 5.3803 49.3112 9.84373 50.8056 13.5068 50.7185 15.1321 51Z" stroke="#000000" stroke-miterlimit="8" fill="#A6A6A6" fill-rule="evenodd" transform="matrix(1.00033 0 -0 1 85.5 86.5)"/><path d="M0 15.6631 0 15.6631C0.11166 16.6421 0.192081 17.6249 0.335086 18.6 0.415612 19.149 0.594922 19.6818 0.670171 20.2316 1.30077 24.8372 0.508591 22.0436 1.67543 25.4526 1.78709 25.7789 1.71659 26.2408 2.01051 26.4316L3.01577 27.0842C3.46252 27.7368 3.59201 28.7941 4.35611 29.0421 4.6912 29.1508 5.04549 29.2145 5.36137 29.3684 6.70752 30.0239 6.4176 30.5614 8.37714 30.6737L14.0736 31C23.456 30.8912 32.8429 30.9781 42.2208 30.6737 44.7529 30.5914 43.9201 29.4694 46.2418 28.7158 46.912 28.4982 47.567 28.2299 48.2523 28.0631 52.0873 27.1295 49.1325 27.7563 57.2997 27.4105 57.6347 27.3018 57.9653 27.1786 58.3049 27.0842 58.7478 26.961 59.2857 27.038 59.6453 26.7579 59.921 26.543 59.8687 26.1052 59.9803 25.7789 59.8112 22.3185 60.059 20.2116 59.3102 17.2947 59.2245 16.961 59.1466 16.6165 58.9751 16.3158 58.584 15.6302 57.8894 15.102 57.6347 14.3579 56.8189 11.9745 57.1359 13.0674 56.6295 11.0947 56.4642 6.104 59.1557 2.20898 55.2891 0.326315 54.9733 0.172459 54.619 0.108738 54.2839 0 52.2734 0.108738 50.2504 0.0830434 48.2523 0.326315 47.5513 0.41162 46.912 0.761368 46.2418 0.978946L44.2313 1.63158C43.3424 1.92017 42.8474 2.10856 41.8857 2.28421 40.5501 2.5281 39.1537 2.51844 37.8647 2.93684 37.3668 3.09851 35.971 3.5794 35.5191 3.58947 26.2501 3.79698 16.9777 3.80705 7.70697 3.91579 7.37189 4.02452 7.01052 4.07509 6.70171 4.2421 5.99766 4.62299 4.6912 5.54736 4.6912 5.54736 4.46777 5.87368 4.32414 6.26803 4.02103 6.52631 3.41492 7.04286 2.01051 7.83157 2.01051 7.83157 1.89885 8.15789 1.89611 8.54196 1.67543 8.81052-0.0567799 10.9191 1.17729 7.98152 0.335086 10.4421 0.446746 11.5298 0.499515 12.6249 0.670171 13.7052 0.841144 14.7874 0.11166 15.3368 0 15.6631Z" stroke="#000000" stroke-miterlimit="8" fill="#D9D9D9" fill-rule="evenodd" transform="matrix(1.00033 0 -0 1 128.5 56.5)"/><path d="M58.1936 1.33283 58.1936 1.33283 43.3659 1.66604C40.1076 1.7543 36.8463 1.79817 33.5931 1.99924 33.2386 2.02118 32.9237 2.23601 32.5821 2.33245 32.1368 2.45828 31.6835 2.55463 31.2342 2.66566 27.7519 2.55463 24.2579 2.63523 20.7874 2.33245 19.4271 2.21376 20.0134 1.22935 19.1024 0.666415 18.5 0.294062 17.0805 0 17.0805 0L7.3077 0.333207C6.47238 0.376656 4.34906 0.463132 3.26379 0.999622 2.90153 1.17877 2.5898 1.44386 2.25281 1.66604 0.707843 3.95756 1.16095 2.90546 0.567846 4.6649-0.349623 14.6437-0.0102955 9.50528 0.567846 28.6558 0.588224 29.3312 0.756561 29.9956 0.904838 30.6551 0.981895 30.998 1.14429 31.317 1.24183 31.6547 1.36909 32.0951 1.46653 32.5433 1.57882 32.9875 1.98014 37.3524 1.52342 35.489 2.5898 38.6521L2.92679 39.6517C3.03909 39.9849 3.06679 40.359 3.26379 40.6513 3.71307 41.3177 4.35564 41.8907 4.61176 42.6506 4.72405 42.9838 4.65973 43.4461 4.94875 43.6502 5.52689 44.0585 6.37961 43.9269 6.9707 44.3166 7.86801 44.9081 8.84703 45.8066 10.0036 45.9826 11.1194 46.1523 12.245 46.2869 13.3736 46.3158 20.898 46.509 28.4259 46.538 35.9521 46.649 41.9468 46.9314 44.683 47.2726 50.7797 46.649 51.4864 46.5767 52.1277 46.2048 52.8017 45.9826 53.1387 45.8716 53.5171 45.8442 53.8127 45.6494L57.8566 42.9838 58.8675 42.3173 59.8785 41.6509C59.9908 41.3177 59.9643 40.8997 60.2155 40.6513 60.4668 40.4029 60.9088 40.4752 61.2265 40.3181 61.5888 40.139 61.8674 39.8144 62.2375 39.6517 62.8867 39.3664 63.6683 39.3749 64.2594 38.9853L66.2814 37.6524 67.2924 36.986C69.2239 34.1213 66.9081 37.7458 68.3033 34.9868 68.4845 34.6286 68.7526 34.3204 68.9773 33.9872 68.576 29.6223 69.0327 31.4857 67.9663 28.3226L67.2924 26.3234 66.9554 25.3238C66.8313 23.3606 66.5814 18.6015 66.2814 16.3272 66.1047 14.9873 66.0395 13.6105 65.6074 12.3287 65.4951 11.9955 65.4429 11.6361 65.2704 11.3291 64.8771 10.629 64.1786 10.0896 63.9224 9.32981L62.9115 6.33094C62.6374 5.51792 62.5538 4.97765 61.9005 4.3317 61.6141 4.04855 61.2006 3.92167 60.8895 3.66528 60.5234 3.36356 60.2446 2.96738 59.8785 2.66566 59.5674 2.40927 58.8675 1.99924 58.1936 1.33283Z" stroke="#000000" stroke-miterlimit="8" fill="#A6A6A6" fill-rule="evenodd" transform="matrix(1.00033 0 -0 1 209.5 140.5)"/><path d="M2.33408 1.28125 2.33408 1.28125 9.66482 1.60157C11.7756 1.70053 13.8826 1.92188 15.9959 1.92188 23.1054 1.92188 30.2131 1.7083 37.3217 1.60157 37.766 1.49483 38.2142 1.40221 38.6546 1.28125 38.9923 1.18854 39.3098 1.02712 39.6542 0.960939 42.3115 0.450052 41.5079 0.849662 43.986 0.320313 44.3289 0.24707 44.6524 0.106737 44.9857 0L47.9846 0.320313C49.3161 0.442183 50.6575 0.470734 51.9832 0.640626 53.1252 0.787012 52.9613 1.11075 53.9825 1.60157 54.2966 1.75259 54.6489 1.81514 54.9821 1.92188 55.3153 2.24219 55.6198 2.59277 55.9818 2.88282 56.2894 3.12928 56.7692 3.19698 56.9814 3.52344 57.3538 4.09607 57.6478 5.44532 57.6478 5.44532 57.7589 7.15363 57.7602 8.87191 57.9811 10.5703 58.0946 11.444 58.6475 13.1328 58.6475 13.1328 58.7585 14.2005 58.8423 15.2712 58.9807 16.336 59.055 16.9071 59.4765 19.2034 59.6471 19.8594 59.7324 20.187 59.8839 20.4957 59.9804 20.8203 60.1062 21.2437 60.182 21.6799 60.3136 22.1016L61.3132 24.9844 61.6464 25.9454 61.9796 26.9063C61.8686 28.4011 61.8286 29.9023 61.6464 31.3907 61.6054 31.726 61.5616 32.1128 61.3132 32.3516 60.7469 32.896 59.9804 33.2058 59.3139 33.6329 58.9807 33.8464 58.6942 34.1517 58.3143 34.2735 55.4654 35.1863 57.0121 34.8304 53.6493 35.2344 52.9828 35.448 52.0396 35.3132 51.65 35.8751 49.8729 38.4376 50.9835 37.3699 48.3178 39.0782 47.9846 39.2918 47.6981 39.597 47.3182 39.7188 42.4999 41.2627 45.9011 40.3729 36.3221 40.6798L25.3259 41.0001C23.2156 40.8933 21.0994 40.8637 18.9949 40.6798 17.27 40.529 18.4983 40.4034 17.662 39.3985 17.4118 39.0979 17.0283 38.9143 16.6623 38.7579 14.309 37.7525 13.2611 38.0135 10.3313 37.7969L8.33196 37.1563C7.99874 37.0496 7.68001 36.8837 7.33231 36.836L4.99981 36.5157C4.66659 36.3021 4.30777 36.1215 4.00016 35.8751 3.36847 35.369 2.70854 34.6731 2.33408 33.9532 2.17697 33.6512 2.15798 33.2942 2.00087 32.9922 0.708935 30.5085 1.83872 33.4857 1.00122 31.0704 0.890184 29.7891 0.815669 28.5044 0.668005 27.2266 0.593386 26.5811 0.33479 25.9542 0.33479 25.3047 0.33479 23.5931 0.556968 21.888 0.668005 20.1797 0.556968 17.724 0.530941 15.2633 0.33479 12.8125 0.307818 12.4759 0.00157425 12.1892 0.00157425 11.8516 0.00157425 10.353-0.0433442 8.82107 0.33479 7.3672 0.529052 6.62024 1.2234 6.08595 1.66765 5.44532 2.31918 4.50587 2.39138 4.58436 2.6673 3.52344 2.69427 3.41983 2.6673 3.30987 2.33408 1.28125Z" stroke="#000000" stroke-miterlimit="8" fill="#A6A6A6" fill-rule="evenodd" transform="matrix(1.00033 0 -0 1 211.5 101.5)"/><path d="M9.81097 0.742462 9.81097 0.742462C9.02545 1.40696 8.26221 2.09815 7.45432 2.73596 7.13833 2.98544 6.73041 3.11813 6.44433 3.40046 4.92155 4.90328 6.72723 4.08265 4.76101 4.72946 2.9655 7.38747 5.32215 4.17568 3.07769 6.39072 1.55491 7.89353 3.36059 7.0729 1.39437 7.71972 0.548205 10.225 1.68968 7.13694 0.38438 9.71322 0.225644 10.0264 0.159902 10.3777 0.0477161 10.71 0.159902 14.1432-0.298279 17.6414 0.38438 21.0097 0.543116 21.7929 1.73104 21.8958 2.40436 22.3387 5.4828 24.3641 2.93624 22.9365 10.821 23.3355L16.5442 23.6677C16.8809 23.7784 17.1993 24 17.5542 24 21.8828 24 18.4333 23.7446 20.9209 23.3355 21.9232 23.1706 22.9409 23.1139 23.9508 23.0032 26.4225 22.1901 25.469 22.834 26.9808 21.342 27.093 20.899 27.1845 20.4504 27.3175 20.013 27.5214 19.3421 27.9908 18.0195 27.9908 18.0195 27.9689 17.9326 27.4931 15.9103 27.3175 15.6937 27.0647 15.3819 26.6442 15.2508 26.3075 15.0292 26.1953 14.697 26.2218 14.2802 25.9708 14.0325 25.7198 13.7848 25.2782 13.8569 24.9608 13.7002 24.5989 13.5216 24.2875 13.2573 23.9508 13.0357L22.6042 11.0422C22.3797 10.71 22.0588 10.4243 21.9309 10.0455 21.7064 9.38097 21.6512 8.63474 21.2575 8.05197 21.0331 7.71972 20.7652 7.41237 20.5842 7.05522 20.4255 6.74201 20.4199 6.36466 20.2475 6.05847 19.8546 5.36037 19.1568 4.8226 18.9009 4.06496L18.2276 2.07146C18.1154 1.73921 18.2276 1.18543 17.8909 1.07471L15.8709 0.410211 14.8609 0.0779611C14.704 0.088321 9.94436-0.42978 8.80097 1.07471 8.66631 1.25188 9.64269 0.797819 9.81097 0.742462Z" stroke="#000000" stroke-miterlimit="8" fill="#D9D9D9" fill-rule="evenodd" transform="matrix(1.00033 0 -0 1 227.5 79.5)"/></g></svg>