<svg width="301" height="250" xmlns="http://www.w3.org/2000/svg" xmlns:xlink="http://www.w3.org/1999/xlink" overflow="hidden"><defs><clipPath id="clip0"><path d="M0 0 301 0 301 250 0 250Z" fill-rule="evenodd" clip-rule="evenodd"/></clipPath></defs><g clip-path="url(#clip0)"><rect x="0" y="0" width="300.901" height="250" fill="#D3D3C3" transform="scale(1.00033 1)"/><path d="M27.2365 1.38719 27.2365 1.38719C26.3398 0.931433 25.5295 0.219642 24.5464 0.0198109 23.8771-0.116281 21.7126 0.483643 20.8477 0.703501 20.1752 1.15926 19.5969 1.81108 18.8301 2.07088L16.8126 2.75457C16.4764 2.86848 16.1478 3.00899 15.8039 3.09641 15.3556 3.21033 14.9032 3.30917 14.4589 3.43826 14.1181 3.53721 13.8021 3.73801 13.4501 3.7801 11.8877 3.96702 10.3118 4.00804 8.74257 4.12195 8.18211 4.23586 7.51247 4.10709 7.06131 4.46379 6.42333 4.96822 6.1646 5.83117 5.7163 6.51486 4.65056 8.14 5.17162 7.15064 4.37128 9.59147L4.03503 10.617C3.92298 10.9588 3.99373 11.4427 3.69878 11.6425L2.69002 12.3262C1.95641 14.5638 2.97533 12.3677 1.34501 13.6936 0.948921 14.0157 0.165426 15.7501 0 16.0865 0.0931976 16.56 0.349385 18.23 0.672505 18.8213 1.44848 20.2412 1.74163 20.903 3.02627 21.556 3.34325 21.7172 3.72515 21.7229 4.03503 21.8979 4.74153 22.2969 5.26842 23.066 6.05255 23.2653 8.16644 23.8025 6.94004 23.5407 9.75133 23.949 10.4238 24.1769 11.1791 24.2329 11.7688 24.6326 12.1051 24.8606 12.4083 25.1494 12.7776 25.3163 13.4254 25.609 14.7951 26 14.7951 26 15.8039 25.8861 16.809 25.7317 17.8214 25.6582 19.9485 25.5037 22.0928 25.5746 24.2102 25.3163 24.914 25.2305 25.5552 24.8606 26.2277 24.6326 28.4632 23.8751 30.9352 24.4047 33.289 24.2908 34.1095 24.0128 34.6547 23.928 35.3065 23.2653 37.5482 20.9863 34.2978 23.3792 36.9878 21.556 36.8757 20.9863 36.9351 20.3512 36.6515 19.8468 36.4511 19.4901 35.9285 19.4536 35.6428 19.1631 34.9909 18.5004 34.9075 17.9462 34.634 17.1121 34.522 16.0865 34.4969 15.0473 34.2978 14.0355 34.1587 13.3287 33.7643 12.6911 33.6253 11.9844L33.289 10.2752C33.177 7.99616 33.5812 5.62876 32.9528 3.43826 32.7558 2.75166 30.7744 1.94448 29.9265 1.72904 29.3721 1.5881 28.7966 1.54008 28.2452 1.38719 25.6495 0.667432 27.4045 1.38719 27.2365 1.38719Z" stroke="#000000" stroke-miterlimit="8" fill="#A6A6A6" fill-rule="evenodd" transform="matrix(1.00033 0 -0 1 191.5 63.5)"/><path d="M55.6294 32.1709 55.6294 32.1709C55.406 31.1759 55.2849 30.1529 54.9592 29.1859 54.8318 28.8078 54.4691 28.5475 54.2889 28.191 54.1309 27.8783 54.0395 27.5352 53.9538 27.196L53.2836 24.5427C53.1719 23.1056 53.0746 21.6672 52.9485 20.2312 52.7584 18.0674 52.8074 17.3335 52.2782 15.5879 51.9737 14.5834 51.608 13.598 51.2729 12.603 51.1612 12.2714 51.1337 11.899 50.9378 11.608 50.491 10.9447 49.852 10.3744 49.5973 9.61809 48.3752 5.98939 50.3243 11.4857 48.592 7.62814 48.2812 6.9362 48.036 5.26444 47.2515 4.64322 46.9757 4.42479 46.562 4.46793 46.2461 4.31156 45.8859 4.13325 45.6109 3.80524 45.2408 3.64824 44.1944 3.20439 41.557 3.08009 40.8843 2.98493 40.3204 2.90522 39.7717 2.73903 39.2087 2.65327 35.1366 2.0333 37.858 2.60448 33.5117 1.98995 32.9029 1.90388 31.1609 1.52417 30.4956 1.32663 29.819 1.12576 29.1704 0.832854 28.4849 0.663317 26.8018 0.246837 27.5814 0.475812 26.1391 0 24.7987 0.110518 23.4617 0.27619 22.1177 0.331658L8.04281 0.994975C7.70769 1.21612 7.32223 1.37646 7.03746 1.65829 6.75269 1.94012 6.68176 2.40424 6.36722 2.65327 6.09142 2.87169 5.67071 2.81518 5.36187 2.98493 4.65776 3.37205 3.35117 4.31156 3.35117 4.31156 2.50889 6.81242 3.64512 3.72983 2.34582 6.30151 2.18781 6.61416 2.16871 6.98384 2.0107 7.29648 0.711398 9.86817 1.84763 6.78557 1.00535 9.28644 0.89368 10.0603 0.847872 10.8463 0.670234 11.608 0.511383 12.2893 0 13.598 0 13.598L0.670234 15.5879C0.781904 15.9196 0.809453 16.292 1.00535 16.5829 1.2288 16.9146 1.49541 17.2214 1.67558 17.5779 1.83359 17.8905 1.79 18.2999 2.0107 18.5729 2.26233 18.8842 2.68094 19.015 3.01605 19.2362L5.36187 26.201 6.0321 28.191 6.36722 29.1859C7.28423 36.4465 7.12643 34.1537 6.36722 47.4272 6.32732 48.1253 5.92043 48.7538 5.69699 49.4171L5.36187 50.4121C5.47354 52.1809 5.52716 53.9543 5.69699 55.7186 5.75103 56.2798 5.88223 56.8331 6.0321 57.3769 6.21798 58.0515 6.70234 59.3669 6.70234 59.3669 6.81781 60.2815 6.85602 61.9925 7.37257 63.0151 7.81936 63.8995 8.15448 64.2312 9.04816 64.6734 9.36406 64.8298 9.7376 64.8487 10.0535 65.005 10.4137 65.1834 10.6651 65.5848 11.0589 65.6684 12.2653 65.9242 13.5163 65.8895 14.7451 66L37.5331 65.6684C37.9935 65.6557 38.4158 65.3871 38.8736 65.3367 40.4319 65.1654 42.0028 65.1339 43.5652 65.005 45.9587 64.8076 47.0318 64.6813 49.2622 64.3417 50.5018 64.153 51.4444 64.0255 52.6134 63.6784 53.29 63.4775 54.0363 63.403 54.6241 63.0151L56.6348 61.6885C58.5555 58.837 56.2527 62.4447 57.6401 59.6985 57.8203 59.342 58.1302 59.0601 58.3104 58.7035 58.6538 58.0236 58.8531 56.681 58.9806 56.0503 58.8689 54.9448 58.7316 53.8415 58.6455 52.7337 58.1812 46.7601 58.8977 49.1712 57.9752 46.4322 57.8422 44.4574 57.5833 40.013 57.305 37.8091 57.2344 37.2497 57.108 36.6976 56.9699 36.1508 56.8842 35.8116 56.6847 35.5019 56.6348 35.1558 56.5715 34.718 55.7969 32.6683 55.6294 32.1709Z" stroke="#000000" stroke-miterlimit="8" fill="#A6A6A6" fill-rule="evenodd" transform="matrix(1.00033 0 -0 1 118.5 114.5)"/><path d="M85.6385 36.2416 85.6385 36.2416C85.3462 35.4567 84.8074 33.3912 83.9724 32.5503 83.6892 32.2652 83.3059 32.1029 82.9727 31.8792 82.7505 31.2081 82.6959 30.4544 82.3063 29.8658 82.0841 29.5302 81.819 29.2198 81.6398 28.8591 81.4827 28.5427 81.4771 28.1616 81.3066 27.8524 80.9176 27.1473 80.418 26.5101 79.9737 25.8389 79.7515 25.5034 79.4339 25.2148 79.3072 24.8322 78.96 23.7831 78.6233 22.4714 77.6411 21.8121L76.6414 21.1409C75.5853 19.5456 76.3549 20.2618 73.9757 19.4631L72.976 19.1275 71.9763 18.7919C71.6431 18.4564 71.3486 18.0766 70.9766 17.7852 70.3444 17.2901 69.6438 16.8903 68.9773 16.443L65.9783 14.4295 64.9786 13.7584C64.6454 13.5346 64.3589 13.2148 63.979 13.0872 60.3331 11.8634 65.8554 13.8153 61.9796 12.0805 61.3376 11.7933 60.5647 11.8018 59.9803 11.4094 57.1154 9.48602 60.7401 11.792 57.9809 10.4027 57.6227 10.2223 57.3472 9.89537 56.9813 9.73154 56.3393 9.44427 55.6484 9.28415 54.9819 9.0604 54.6487 8.94858 54.2745 8.921 53.9822 8.72483 53.649 8.50108 53.3485 8.21751 52.9826 8.05369 52.3406 7.76642 51.6497 7.6063 50.9832 7.38255L49.9836 7.04698 48.9839 6.71141C48.6507 6.59959 48.3319 6.42583 47.9842 6.37584L45.6516 6.04027C43.6669 5.77382 43.274 5.8588 41.653 5.36913 40.9801 5.16588 40.282 5.01432 39.6536 4.69799 37.6043 3.66612 38.734 4.30429 36.3214 2.68456L35.3217 2.01342C34.2656 0.418116 35.0352 1.13428 32.6559 0.33557L31.6563 0C27.7686 0.111822 23.8723 0.0497807 19.9934 0.33557 19.2928 0.387148 18.6605 0.782963 17.9941 1.00671 16.2346 1.59732 17.2867 1.14612 14.9951 2.68456L13.9954 3.3557 12.9957 4.02685C12.7735 4.36242 12.642 4.78159 12.3293 5.03356 12.055 5.25456 11.5337 5.08133 11.3296 5.36913 8.80613 8.92691 12.2342 6.32785 9.66349 8.05369L8.33059 10.0671C8.10841 10.4027 7.79082 10.6912 7.66414 11.0738 7.20424 12.4631 7.52571 11.7862 6.66447 13.0872 6.55343 13.5346 6.46286 13.9877 6.33125 14.4295L5.33158 17.4497C4.96918 18.5444 4.52145 19.6599 4.33191 20.8054 4.09608 22.2304 3.79382 25.5531 3.66546 26.8456 3.48043 30.7583 3.50572 33.3411 2.99901 36.9128 2.91893 37.4774 2.77683 38.0313 2.66579 38.5906 2.5241 40.7315 2.58235 43.1494 1.99934 45.302 1.81452 45.9846 1.55508 46.6443 1.33289 47.3154L0.999671 48.3221C0.888632 48.6577 0.751669 48.9857 0.666447 49.3289L0 52.0134C0.11104 54.3624 0.191958 56.7131 0.333224 59.0604 0.343509 59.2307 0.443739 64.2053 1.33289 65.1007 1.66612 65.4362 2.03083 65.7429 2.33257 66.1074 3.72098 67.7852 2.16601 66.5548 3.99868 67.7852 5.21393 71.4567 3.27577 65.8956 4.99836 69.7987 5.28362 70.4452 5.44262 71.1409 5.6648 71.8121L5.99803 72.8188C6.10907 73.1544 6.24603 73.4823 6.33125 73.8255 6.51754 74.5758 7.00641 76.691 7.33092 77.1812 10.2895 81.6504 6.0313 75.0267 8.33059 79.1946 10.4838 83.0977 9.03251 79.3018 10.3299 83.2215L10.6632 84.2282C10.7742 84.5638 10.8016 84.9406 10.9964 85.2349 11.2186 85.5705 11.4837 85.8809 11.6628 86.2416 11.8199 86.5579 11.8255 86.9391 11.9961 87.2483 12.385 87.9534 12.5691 89.0067 13.3289 89.2617 18.487 90.9932 13.1596 89.0087 16.328 90.604 16.6421 90.7622 17.0135 90.7814 17.3276 90.9396 17.6858 91.12 17.9613 91.4469 18.3273 91.6107 18.9693 91.898 19.7422 91.8895 20.3266 92.2819 23.1915 94.2053 19.5668 91.8993 22.326 93.2886 22.6842 93.469 22.9597 93.7959 23.3257 93.9597 23.9677 94.247 24.6586 94.4071 25.325 94.6309L28.324 95.6376 31.323 96.6443C31.6563 96.7561 31.9782 96.9105 32.3227 96.9799 32.8781 97.0917 33.4394 97.1771 33.9888 97.3154 35.8921 97.7946 34.0359 97.5681 36.3214 97.9866 38.3582 98.3595 40.6298 98.5173 42.6526 98.6577 44.5397 98.7888 46.4291 98.8815 48.3174 98.9933 49.4377 99.1545 51.4935 99.4316 52.6493 99.6644 53.0984 99.7549 53.538 99.8882 53.9822 100 61.4242 99.8882 68.8713 99.964 76.3082 99.6644 77.2234 99.6275 78.1051 99.285 78.974 98.9933 79.3072 98.8815 79.6596 98.8159 79.9737 98.6577 80.3319 98.4773 80.6074 98.1504 80.9734 97.9866 82.9424 97.1053 83.6841 97.2358 85.9717 96.9799 86.6382 96.7561 87.5814 96.8973 87.9711 96.3087 88.4153 95.6376 89.0507 95.0605 89.304 94.2953L91.3033 88.255 92.303 85.2349 92.6362 84.2282 92.9694 83.2215C92.8584 81.0962 92.8275 78.9651 92.6362 76.8456 92.6044 76.4934 92.3994 76.179 92.303 75.8389 92.1771 75.3954 92.0808 74.944 91.9697 74.4966 91.8587 72.1477 91.8227 69.7938 91.6365 67.4497 91.6 66.9899 91.3513 66.5661 91.3033 66.1074 91.1284 64.435 91.2062 62.7385 90.9701 61.0738 90.8707 60.3735 90.5258 59.7315 90.3036 59.0604L89.304 56.0403 88.6375 54.0268 88.3043 53.0201C88.1932 49.4407 88.251 45.8519 87.9711 42.2819 87.9157 41.5766 87.3046 40.9758 87.3046 40.2685L85.6385 36.2416Z" stroke="#000000" stroke-miterlimit="8" fill="#D9D9D9" fill-rule="evenodd" transform="matrix(1.00033 0 -0 1 30.5 83.5)"/><path d="M10.7381 66.9971 10.7381 66.9971C11.7449 67.1083 12.7592 67.1652 13.7583 67.3308 18.4988 68.1163 5.46504 67.4109 18.4562 67.9981 22.1453 68.1648 25.8395 68.1959 29.5299 68.3317 31.8799 68.4183 34.2279 68.5542 36.5768 68.6654 37.248 68.7766 37.914 68.9243 38.5902 68.999 40.9354 69.2581 43.292 69.4073 45.6371 69.6663L48.6572 70C51.1739 69.8683 54.6539 69.8752 57.382 69.3327 58.2865 69.1528 60.0665 68.6654 60.0665 68.6654 60.7377 68.2205 61.3147 67.5843 62.0799 67.3308 63.4692 66.8703 62.7923 67.1922 64.0933 66.3298 64.3662 65.5157 64.4495 64.9747 65.1 64.3279 65.3852 64.0444 65.7712 63.883 66.1067 63.6606 66.8624 61.4064 65.8144 63.8497 67.449 61.9923 69.9178 59.1869 68.1283 60.9753 69.1268 58.9894 69.3073 58.6308 69.6341 58.3549 69.798 57.9885 70.0852 57.3456 70.4691 55.9865 70.4691 55.9865 71.2465 45.9391 71.0372 50.4239 70.4691 32.6308 70.4475 31.9547 70.237 31.2975 70.1335 30.6289 70.0133 29.8515 69.9098 29.0718 69.798 28.2933 69.6861 24.2895 69.6635 20.2821 69.4624 16.2818 69.4394 15.8238 69.2594 15.3864 69.1268 14.9472 68.8219 13.9365 68.4557 12.9452 68.1201 11.9443 68.0083 11.6106 67.8539 11.2882 67.7846 10.9433 67.6728 10.3872 67.685 9.79134 67.449 9.27504 66.0194 6.14784 66.8242 7.89188 65.1 6.93947 64.395 6.55001 63.7578 6.04969 63.0866 5.60486 62.7511 5.38238 62.4625 5.06439 62.0799 4.93755 54.9615 2.57822 63.7957 5.44933 58.7243 3.93659 58.0467 3.7345 57.3972 3.43984 56.7108 3.26928 56.2635 3.1581 55.8104 3.06741 55.3686 2.93563 54.3522 2.63245 53.3552 2.26832 52.3485 1.93467L50.3351 1.26736C49.9995 1.15618 49.682 0.941376 49.3284 0.933705L33.8923 0.600051C26.9371-0.387879 30.6706 0.0122953 16.7784 0.600051 16.4249 0.614973 16.1148 0.848373 15.7717 0.933705 15.2307 1.06811 13.7147 1.25433 13.0871 1.60101 12.3821 1.99047 11.7449 2.49079 11.0737 2.93563 10.7381 3.1581 10.4496 3.47609 10.067 3.60293 8.67771 4.06343 9.35466 3.74154 8.05361 4.60389 7.94179 4.93755 7.88979 5.29737 7.71804 5.60486L5.70464 8.60774 5.03351 9.6087C4.80976 9.94235 4.48994 10.2292 4.36237 10.6097L2.68454 15.6145 1.0067 20.6193 0.671134 21.6202 0.335567 22.6212C0.223747 29.4054 0 36.1889 0 42.9741 0 47.4242 0.056333 51.8788 0.335567 56.3202 0.485013 58.6976 1.12233 59.1619 2.34897 60.9914L3.0201 61.9923 3.69124 62.9933C3.91499 63.3269 4.02681 63.7718 4.36237 63.9942L6.37578 65.3288 7.38248 65.9962C7.71804 66.2186 8.10403 66.3799 8.38918 66.6635L10.7381 66.9971Z" stroke="#000000" stroke-miterlimit="8" fill="#D9D9D9" fill-rule="evenodd" transform="matrix(1.00033 0 -0 1 175.5 112.5)"/><path d="M9.77585 1.35135 9.77585 1.35135C8.98933 1.91445 8.09971 2.3555 7.41617 3.04053 3.48331 6.982 7.92187 3.82879 5.05648 5.74323 4.83171 6.08107 4.56352 6.39358 4.38228 6.75674 4.09901 7.32442 3.8701 8.58042 3.70808 9.1216 3.50391 9.80377 3.25865 10.473 3.03389 11.1486L2.35969 13.1756 2.02259 14.1892C1.91026 14.527 1.88255 14.9063 1.68549 15.2027 0.617076 16.8088 1.13945 15.831 0.337098 18.2432L0 19.2567C0.112331 20.1576 0.175079 21.0661 0.337098 21.9594 0.400696 22.3098 0.385089 22.766 0.674197 22.9729 1.25252 23.3869 2.02259 23.4233 2.69679 23.6486L4.71938 24.3243 5.73067 24.6621 6.74197 24.9999C11.9063 24.4824 8.38499 24.9462 11.7984 24.3243 12.4709 24.2017 13.1538 24.1351 13.821 23.9864 14.1679 23.9092 14.4855 23.7258 14.8323 23.6486 15.4995 23.5 16.1877 23.4594 16.8549 23.3108 17.2018 23.2335 17.5246 23.0707 17.8662 22.9729 20.8292 22.1246 17.8011 23.1073 20.2259 22.2973 20.4507 21.9594 20.5837 21.5374 20.9001 21.2837 21.1775 21.0612 21.5936 21.1052 21.9114 20.9459 22.2738 20.7643 22.5603 20.4519 22.9227 20.2702 23.2405 20.1109 23.6162 20.0917 23.934 19.9324 24.2964 19.7508 24.5829 19.4384 24.9453 19.2567 25.2631 19.0974 25.6388 19.0782 25.9566 18.9189 26.3189 18.7372 26.6055 18.4248 26.9679 18.2432 29.7592 16.8445 26.0923 19.1661 28.9905 17.2297 28.8662 16.3582 28.7869 14.7947 28.3163 13.8513 28.135 13.4882 27.8066 13.2088 27.6421 12.8378 27.3535 12.1869 27.3621 11.4034 26.9679 10.8108 25.3947 8.44593 26.2937 9.23418 24.6082 8.10809 24.0149 6.3242 24.4681 7.39092 22.9227 5.06756 22.6979 4.72972 22.3766 4.43923 22.2485 4.05405 22.1362 3.71621 22.1334 3.31857 21.9114 3.04053 21.6583 2.72345 21.2372 2.59012 20.9001 2.36486 20.5345 1.2658 20.745 1.20717 19.5517 0.675674 18.9023 0.386464 17.5291 0 17.5291 0 16.5178 0.112577 15.493 0.137795 14.4952 0.337837 13.0977 0.618003 12.4885 0.917108 11.4613 1.68919 11.3343 1.78474 10.0568 1.40764 9.77585 1.35135Z" stroke="#000000" stroke-miterlimit="8" fill="#595959" fill-rule="evenodd" transform="matrix(1.00033 0 -0 1 243.5 156.5)"/><path d="M13.6622 0 13.6622 0C11.2186 0.11561 8.76963 0.143802 6.33126 0.346939 5.33411 0.429985 5.1877 0.942252 4.33192 1.38775 1.57271 2.82413 5.19746 0.440038 2.33257 2.42857 2.11039 2.77551 1.94928 3.17457 1.66612 3.46939 1.38296 3.7642 0.878663 3.80966 0.666449 4.16326 0.294077 4.78349 0 6.24489 0 6.24489 0.146619 7.92462-0.0576189 10.6951 1.3329 12.1428 1.61606 12.4377 1.99935 12.6054 2.33257 12.8367 2.55476 13.1837 2.6976 13.6029 2.99902 13.8775 4.58905 15.3262 5.11014 15.3041 6.99771 15.9592L8.99706 16.653 9.99673 17C13.6146 16.7646 14.9526 17.0147 17.9941 15.9592 18.3273 15.8436 18.6797 15.7758 18.9938 15.6122 19.352 15.4257 19.6602 15.1497 19.9935 14.9184 20.978 11.8432 20.5824 13.5637 20.9931 9.71428 20.8215 8.10634 20.9196 5.82136 19.6602 4.5102 19.3771 4.21539 18.9938 4.04765 18.6606 3.81632 18.4384 3.46939 18.2955 3.05011 17.9941 2.77551 17.4536 2.28313 15.9867 1.16987 14.9951 1.04082 14.444 0.969133 13.8844 0.173524 13.6622 0Z" stroke="#000000" stroke-miterlimit="8" fill="#595959" fill-rule="evenodd" transform="matrix(1.00033 0 -0 1 133.5 98.5)"/><path d="M43.2581 11.8926 43.2581 11.8926C43.1464 9.1743 43.5741 6.37712 42.9228 3.73768 42.7273 2.9453 41.5815 2.83154 40.9108 2.37852 40.5755 2.15196 40.2871 1.82812 39.9048 1.69895 37.5162 0.89212 39.2512 1.38666 34.5395 1.01937 34.0924 0.90614 33.6413 0.807895 33.1981 0.679578 32.8582 0.581227 32.535 0.426689 32.1921 0.339789 31.6392 0.1997 31.0744 0.113227 30.5154 0 29.4333 0.156678 27.1604 0.340966 26.1561 1.01937 23.2731 2.96692 26.9208 0.631954 24.1441 2.03873 20.9556 3.6541 26.3168 1.64469 21.1261 3.39789L20.1201 3.73768C19.7847 3.85091 19.4673 4.0642 19.1141 4.07747L10.06 4.41726C9.61296 5.09684 8.97355 5.68117 8.7187 6.45599 8.60695 6.79578 8.46004 7.12572 8.38336 7.47536 8.23582 8.14787 8.19558 8.84158 8.04803 9.51409 7.89214 10.2247 7.55881 11.0292 7.04202 11.5528 6.75707 11.8416 6.37136 12.0058 6.03602 12.2324 5.1932 14.7946 6.42818 11.7357 4.69468 13.9314 2.84353 16.2759 6.23638 13.6827 3.35334 15.6303 2.76316 17.4245 3.31215 16.451 1.006 18.0088L0 18.6884C0.111743 20.7271 0.144273 22.772 0.335335 24.8046 0.368815 25.1612 0.420673 25.5706 0.670669 25.824 0.920665 26.0773 1.34134 26.0505 1.67667 26.1638 1.90026 26.5035 2.01201 26.9566 2.34734 27.1831 2.73084 27.4422 3.2472 27.3887 3.68868 27.5229 4.36579 27.7287 5.03002 27.9759 5.70069 28.2025 6.03602 28.3157 6.36375 28.4554 6.70669 28.5423 7.15377 28.6555 7.60486 28.7538 8.04803 28.8821 8.3879 28.9804 8.70085 29.2084 9.05403 29.2219 14.6401 29.4355 20.2318 29.4484 25.8208 29.5616 32.0973 30.0508 32.3857 30.2345 40.5755 29.5616 41.2802 29.5037 41.9168 29.1086 42.5875 28.8821L44.5995 28.2025C44.9348 28.0893 45.3113 28.0613 45.6055 27.8627L46.6115 27.1831C46.7232 26.7301 46.9468 26.291 46.9468 25.824 46.9468 18.7499 47.2844 20.3942 45.9408 16.3099 45.8291 15.9701 45.8015 15.5886 45.6055 15.2905 44.1765 13.1185 43.6494 12.459 43.2581 11.8926Z" stroke="#000000" stroke-miterlimit="8" fill="#A6A6A6" fill-rule="evenodd" transform="matrix(1.00033 0 -0 1 187.5 83.5)"/></g></svg>