<svg width="301" height="250" xmlns="http://www.w3.org/2000/svg" xmlns:xlink="http://www.w3.org/1999/xlink" overflow="hidden"><defs><clipPath id="clip0"><path d="M0 0 301 0 301 250 0 250Z" fill-rule="evenodd" clip-rule="evenodd"/></clipPath></defs><g clip-path="url(#clip0)"><rect x="0" y="0" width="300.901" height="250" fill="#D3D3C3" transform="scale(1.00033 1)"/><path d="M28.055 0 28.055 0C27.0171 0.231455 25.7477 0.38788 24.698 0.9625 24.2102 1.22942 23.7388 1.60412 23.2592 1.925L22.5399 2.40625C21.3409 2.24588 20.1387 2.16494 18.9431 1.925 18.5375 1.8436 18.1517 1.44375 17.7442 1.44375 17.0203 1.44375 16.3054 1.76463 15.5861 1.925L14.1474 2.8875C13.9076 3.04787 13.6383 3.08743 13.428 3.36875 12.2881 4.89405 12.982 4.1483 11.2699 5.29375L10.5506 5.775C10.3108 5.93537 10.0805 6.17288 9.83122 6.25625 7.835 6.92394 8.87382 6.59957 6.71401 7.21875 6.2401 7.53584 5.61333 7.81444 5.27529 8.6625 5.11737 9.05856 5.15823 9.66274 5.0355 10.1062 4.75562 11.1174 4.39605 12.0312 4.07636 12.9937 3.91648 13.475 3.68795 13.8888 3.59679 14.4375 3.43691 15.4 3.39763 16.4809 3.11722 17.325 2.95733 17.8062 2.75471 18.2402 2.63765 18.7687 2.43237 19.6959 2.31796 20.6937 2.15807 21.6562L1.91829 23.1 1.6785 24.5437C1.5986 25.025 1.57889 25.5654 1.43872 25.9875 1.27883 26.4687 1.0762 26.9027 0.959144 27.4312 0.753872 28.3584 0.479572 30.3187 0.479572 30.3187 0.399668 31.9229 0.361907 33.5379 0.239786 35.1312 0.201345 35.6327 0 36.0677 0 36.575 0 39.4392 0.223095 42.4062 0.479572 45.2375 0.552452 46.0422 0.612115 46.8546 0.719358 47.6437 0.852354 48.6226 1.03905 49.5687 1.19893 50.5312L1.43872 51.975C1.51862 52.4562 1.53833 52.9966 1.6785 53.4187L2.63765 56.3062C2.79753 56.7875 3.02606 57.2013 3.11722 57.75 3.31222 58.9242 3.37173 59.7045 3.83658 60.6375 4.04034 61.0464 4.31615 61.2791 4.55593 61.6 5.44205 64.2676 4.52852 62.1576 5.75486 63.525L7.91294 66.4125C8.15272 66.7334 8.3589 67.192 8.63229 67.375L10.7904 68.8187 17.2646 73.15 19.4227 74.5937C19.6624 74.7541 19.8895 75.0509 20.142 75.075 26.1389 75.6481 23.5029 75.2761 28.055 76.0375 28.4546 76.1979 28.8585 76.3203 29.2539 76.5187 29.4991 76.6418 29.7205 77 29.9732 77 33.4111 77 36.8471 76.6791 40.284 76.5187 40.7636 76.1979 41.3022 76.119 41.7228 75.5562L43.8808 72.6687C44.1206 72.3479 44.3268 71.8892 44.6002 71.7062L46.7583 70.2625 47.4776 69.7812C47.7174 69.6209 47.9866 69.5813 48.197 69.3L49.6357 67.375C49.7156 66.8937 49.7176 66.3273 49.8755 65.9312 50.0555 65.4795 50.3735 65.339 50.5948 64.9687 52.4411 61.8809 50.2475 64.9522 52.0335 62.5625 52.4556 60.0213 52.1332 61.5409 53.2325 58.2312 53.3924 57.75 53.6209 57.3362 53.712 56.7875 54.3147 53.1586 53.5017 57.6316 54.4314 53.9 54.5445 53.4463 54.5913 52.9375 54.6712 52.4562 55.0255 44.6345 55.1418 44.5584 54.6712 34.1687 54.6254 33.1583 54.3515 32.2437 54.1916 31.2812 54.1117 30.8 54.092 30.2596 53.9518 29.8375L53.4723 28.3937C52.9732 24.3875 53.5809 28.3484 52.7529 25.025 52.6398 24.5713 52.6358 24.0248 52.5131 23.5812 51.6903 20.6089 51.8854 21.1373 50.8346 19.7312 50.2921 16.4644 51.08 20.2237 49.1561 16.3625 48.6765 15.4 48.0936 14.6076 47.7174 13.475 47.0779 11.55 47.4776 12.3521 46.5185 11.0687 46.3586 10.5875 46.2427 10.0339 46.0389 9.625 45.3517 8.24582 45.3803 8.96413 44.6002 8.18125 44.3424 7.92251 44.1386 7.47749 43.8808 7.21875 43.2988 6.63473 42.5645 6.58577 41.9625 6.25625 41.4748 5.98933 41.0034 5.61463 40.5238 5.29375L38.3657 3.85 37.6464 3.36875C37.4066 3.20838 37.1749 2.98693 36.927 2.8875 34.1015 1.75327 37.6187 3.1188 34.0496 1.925 33.399 1.70734 32.0298 1.03541 31.412 0.9625 30.5342 0.858823 28.6144 0.160366 28.055 0Z" stroke="#000000" stroke-miterlimit="8" fill="#A6A6A6" fill-rule="evenodd" transform="matrix(1.00033 0 -0 1 30.5 113.5)"/><path d="M27.6576 27.9775 27.6576 27.9775C28.6573 28.0899 29.6508 28.3146 30.6566 28.3146 37.8072 28.3146 39.3067 28.1192 44.9853 27.6404 45.6517 27.4157 46.3031 27.1386 46.9846 26.9663 47.4117 26.8583 48.8391 26.5339 49.3172 26.2921 49.6754 26.1109 49.9836 25.8427 50.3169 25.618 50.539 25.2809 50.6819 24.8735 50.9833 24.6067 51.586 24.0731 52.9826 23.2584 52.9826 23.2584L53.6491 21.236 53.9823 20.2247C53.8713 17.0787 54.0604 13.907 53.6491 10.7865 53.5962 10.385 52.8996 10.4287 52.6494 10.1124 50.8099 7.78646 54.1814 10.359 51.3165 8.42697 50.479 5.88523 51.6088 9.01821 50.3169 6.40449 50.1597 6.08674 50.1542 5.7039 49.9836 5.39326 49.5947 4.68502 49.4106 3.62697 48.6507 3.37079 46.1381 2.52358 49.2352 3.66646 46.6514 2.35955 46.3373 2.20062 45.9658 2.1814 45.6517 2.02247 45.2935 1.84125 45.018 1.51287 44.652 1.34831 44.01 1.05975 43.3191 0.898912 42.6527 0.674157 41.2185 0.190569 41.9938 0.423286 40.3201 0 36.2351 0.172202 33.5813 0.0136955 29.9902 0.674157 29.5396 0.757073 29.1044 0.910696 28.6573 1.01124 28.1044 1.13556 27.5375 1.19756 26.9912 1.34831 21.8555 2.76511 27.1477 1.27793 23.9921 2.69663 23.3501 2.98519 22.6592 3.14603 21.9928 3.37079L19.9935 4.04494 18.9938 4.38202C18.7716 4.7191 18.6288 5.12646 18.3273 5.39326 17.7246 5.92685 16.328 6.74157 16.328 6.74157 16.1058 7.07865 15.9743 7.49971 15.6615 7.75281 15.3873 7.9748 14.976 7.93096 14.6619 8.08989 12.078 9.3968 15.1752 8.25391 12.6625 9.10112 12.5515 9.4382 12.5777 9.86106 12.3293 10.1124 12.0809 10.3637 11.6437 10.2905 11.3296 10.4494 10.9714 10.6307 10.6632 10.8988 10.3299 11.1236 8.80226 13.4417 9.75691 12.8899 7.99738 13.4831 6.76597 15.3516 8.03548 13.8737 6.33126 14.8315 5.63112 15.2249 4.33191 16.1798 4.33191 16.1798 4.10973 16.5169 3.97822 16.9379 3.66547 17.191 3.39123 17.413 2.91422 17.2768 2.66579 17.5281 2.09947 18.101 1.77716 18.8764 1.3329 19.5506 1.11071 19.8876 0.793126 20.1775 0.666448 20.5618L0 22.5843C0.11104 23.8203-0.185556 25.1675 0.333224 26.2921 0.809184 27.3239 3.42145 28.0076 4.33191 28.3146L5.33159 28.6517C9.9156 30.1974 5.98019 28.9784 17.6609 29.3258 19.438 29.4382 21.2185 29.5069 22.9925 29.6629 26.4493 29.967 24.1484 30.238 26.9912 29.6629 29.856 27.7309 26.2313 30.0472 28.9905 28.6517 29.3487 28.4705 29.632 28.1588 29.9902 27.9775 30.3043 27.8186 28.0464 27.9775 27.6576 27.9775Z" stroke="#000000" stroke-miterlimit="8" fill="#D9D9D9" fill-rule="evenodd" transform="matrix(1.00033 0 -0 1 27.5 87.5)"/><path d="M115.628 0 115.628 0C113.008 0.291233 113.085 0.19496 110.963 0.666666 110.516 0.766088 110.07 0.87412 109.63 0.999999 108.148 1.42362 109.033 1.31926 107.297 1.66666 106.635 1.79926 105.957 1.85333 105.298 2 104.955 2.07622 104.641 2.25711 104.298 2.33333 103.639 2.48 102.96 2.52504 102.299 2.66666 101.403 2.85868 100.502 3.04357 99.6331 3.33333 98.9667 3.55559 98.3267 3.88451 97.6338 4L95.6344 4.33333C93.3749 4.74425 92.7813 5.02078 89.9697 5.33333L86.9707 5.66666C86.3043 5.88892 85.6529 6.16293 84.9714 6.33333 84.5271 6.4444 84.0772 6.53501 83.6385 6.66666 82.9656 6.86855 82.3346 7.2339 81.6392 7.33332 78.0921 7.8402 80.0888 7.59548 75.6412 7.99999 74.7525 8.22225 73.8443 8.37689 72.9754 8.66666 72.6422 8.77773 72.3135 8.90351 71.9757 8.99999 71.5354 9.12587 71.0816 9.20167 70.6429 9.33332 69.97 9.53521 69.3251 9.82959 68.6435 9.99999 68.1993 10.1111 67.751 10.2074 67.3107 10.3333 66.9729 10.4298 66.6518 10.5814 66.311 10.6667 64.7845 11.0484 63.5978 11.1309 61.9791 11.3333 61.6459 11.4444 61.3202 11.5814 60.9794 11.6667 59.4529 12.0484 58.2662 12.1309 56.6476 12.3333L36.3211 12C35.755 11.9829 35.2014 11.8157 34.655 11.6667 32.6418 11.1174 33.0315 11.2506 31.656 10.3333 26.4355 10.4444 21.2154 10.7616 15.9946 10.6667 15.1996 10.6522 13.3497 10.0069 12.3292 9.66666 10.7741 9.77773 9.18168 9.64282 7.66408 9.99999 6.24073 10.335 6.94412 11.2336 6.3312 12 6.081 12.3128 5.66476 12.4444 5.33154 12.6667 4.49402 15.1801 5.62383 12.082 4.33187 14.6666 4.17476 14.9809 4.15577 15.3524 3.99865 15.6666 2.7067 18.2513 3.8365 15.1532 2.99899 17.6666 2.88795 19.1111 2.89162 20.569 2.66577 22 2.17984 25.0786 2.21385 23.017 1.33288 25 1.04763 25.6422 0.888624 26.3333 0.666442 27L0.333221 28 0 29C0.111039 32.4444 0.130875 35.893 0.333221 39.3333 0.353896 39.684 0.418022 40.0848 0.666442 40.3333 1.23276 40.8998 1.99933 41.2222 2.66577 41.6666L3.66543 42.3333C3.99865 42.5555 4.28517 42.8732 4.66509 43 4.99832 43.111 5.35064 43.1761 5.66476 43.3333 6.02296 43.5125 6.29845 43.8372 6.66442 44 7.30641 44.2853 7.9973 44.4444 8.66375 44.6666L9.66341 44.9999 34.3218 44.6666C34.6729 44.6575 34.9711 44.3592 35.3214 44.3333 37.9823 44.1361 40.653 44.111 43.3187 44L47.3174 42.6666 48.3171 42.3333C48.6503 42.2222 48.9658 42.0135 49.3167 42L57.9805 41.6666C58.5359 41.5555 59.1002 41.4824 59.6466 41.3333 60.3243 41.1484 61.6459 40.6666 61.6459 40.6666L78.9734 41C79.4311 41.0163 79.8557 41.2513 80.3063 41.3333 81.079 41.4739 81.8613 41.5555 82.6388 41.6666 85.86 41.5555 89.0909 41.6087 92.3022 41.3333 93.0022 41.2732 93.6351 40.8889 94.3016 40.6666L95.3012 40.3333C98.0075 40.5794 98.8669 40.5944 101.299 41 101.858 41.0931 102.403 41.2658 102.965 41.3333 105.182 41.5993 107.441 41.5619 109.63 42 113.017 42.6776 109.905 41.9833 112.295 42.6666 112.736 42.7925 113.19 42.8683 113.628 43 114.301 43.2018 114.961 43.4444 115.628 43.6666L116.627 44C120.737 43.8889 124.85 43.872 128.957 43.6666 129.307 43.6491 129.642 43.4904 129.956 43.3333 130.314 43.1541 130.623 42.8889 130.956 42.6666 131.4 42 132.036 41.4267 132.289 40.6666 133.082 38.2866 132.566 39.2513 133.622 37.6666 133.728 36.9223 134.103 34.1658 134.288 33.3333 134.364 32.9903 134.51 32.6666 134.621 32.3333 134.732 31.5556 134.851 30.7788 134.955 30 135.186 28.2651 135.221 27.2668 135.621 25.6666 135.706 25.3257 135.843 25 135.954 24.6666 135.933 24.031 136.101 15.9219 135.288 12.6667 135.117 11.9849 135.011 11.2513 134.621 10.6667 134.177 9.99999 133.542 9.42676 133.288 8.66666 132.829 7.28661 133.247 7.86151 131.956 6.99999 130.956 5.50005 131.011 5.02782 129.623 4.33333 129.309 4.17616 128.937 4.15716 128.623 4 128.265 3.82078 127.99 3.49606 127.624 3.33333 126.982 3.04798 126.209 3.05648 125.624 2.66666 125.291 2.44441 124.991 2.16273 124.625 2 123.983 1.71464 123.292 1.55559 122.625 1.33333 120.985 0.786246 121.972 1.05774 119.626 0.666666L115.628 0Z" stroke="#000000" stroke-miterlimit="8" fill="#595959" fill-rule="evenodd" transform="matrix(1.00033 0 -0 1 83.5 146.5)"/><path d="M126.953 31.9723 126.953 31.9723C127.846 23.9792 126.953 33.9706 126.953 25.9775 126.953 25.3577 127.514 23.0178 127.623 22.314 127.76 21.4294 127.846 20.5378 127.958 19.6496 127.846 17.0963 127.82 14.5378 127.623 11.9896 127.596 11.6396 127.446 11.3044 127.288 10.9905 127.108 10.6325 126.903 10.2743 126.618 9.99134 126.333 9.70833 125.948 9.54731 125.613 9.32525 124.882 7.1453 125.897 9.28487 124.273 7.99307 123.959 7.743 123.906 7.25754 123.603 6.99394 122.998 6.46673 122.264 6.10578 121.594 5.66176 118.714 3.75286 122.357 6.04148 119.584 4.66262 119.224 4.48357 118.939 4.17559 118.579 3.99654 118.263 3.83951 117.89 3.82052 117.574 3.66349 117.214 3.48443 116.937 3.15999 116.569 2.9974 115.924 2.71229 115.147 2.72079 114.559 2.33131 114.224 2.10925 113.922 1.82781 113.554 1.66522 112.909 1.38012 112.214 1.2212 111.545 0.999134L110.54 0.666089C110.205 0.555109 109.877 0.41822 109.535 0.333045L108.195 0C103.952 0.11098 99.7006 0.0459444 95.4661 0.333045 93.11 0.492801 94.0235 0.970497 92.4513 1.66522 91.806 1.95033 91.0291 1.94183 90.4415 2.33131 90.1066 2.55338 89.8045 2.83481 89.4366 2.9974 88.7913 3.28251 88.0967 3.44143 87.4268 3.66349L86.4219 3.99654C86.0869 4.10752 85.7653 4.27189 85.417 4.32958 82.3004 4.84609 84.083 4.59539 80.0575 4.99567 78.0478 5.66176 78.3089 5.63291 75.033 5.9948 73.0232 6.21687 71.0054 6.37652 69.0035 6.66089 68.222 6.77187 67.446 6.93373 66.6588 6.99394 64.5406 7.1559 62.4158 7.216 60.2943 7.32698 58.9954 7.75747 58.1208 8.07573 56.6097 8.32612 55.9398 8.4371 55.2587 8.49542 54.5999 8.65916 53.9148 8.82941 53.26 9.10318 52.5901 9.32525 52.2551 9.43623 51.9277 9.57312 51.5852 9.65829 49.9027 10.0765 50.6821 9.84658 49.2404 10.3244L27.1325 9.99134C26.7796 9.98116 26.4701 9.74347 26.1276 9.65829 25.5753 9.52099 25.011 9.43623 24.4527 9.32525 18.0883 9.43623 11.7169 9.34224 5.3595 9.65829 4.95743 9.67833 4.60611 10.0118 4.35459 10.3244 3.05534 11.9392 5.20726 10.9299 3.01472 11.6566 2.17281 14.1679 3.40645 11.1697 1.67484 13.3218 1.45424 13.5959 1.49781 14.007 1.33987 14.3209 0.0411458 16.9034 1.17687 13.8079 0.334969 16.3192 0.223348 18.3175 0 20.3127 0 22.314 0 25.4244 0.166166 28.5334 0.334969 31.6392 0.543651 35.478 0.505354 33.4854 1.00491 35.9688 1.36709 37.7693 1.208 37.7522 1.67484 39.2993 1.87772 39.9718 1.75724 40.9081 2.34478 41.2975L3.34969 41.9636C3.46131 42.2967 3.43493 42.7145 3.68465 42.9628 5.79701 45.063 5.01451 43.7904 6.69937 44.628 7.05945 44.807 7.31065 45.2102 7.70428 45.2941 8.91016 45.551 10.1607 45.5161 11.3889 45.6271 11.8355 45.7381 12.2684 45.9602 12.7288 45.9602 25.4485 45.9602 22.7848 46.2446 29.4772 45.2941 29.8122 45.1831 30.1426 45.0574 30.4821 44.961 31.3253 44.7215 32.6679 44.4322 33.4969 44.2949 34.2757 44.1659 35.0548 44.027 35.8416 43.9619 37.7366 43.8049 39.6379 43.7398 41.5361 43.6288 42.1926 43.5201 44.4851 43.1623 45.2208 42.9628 46.2427 42.6856 47.2306 42.2967 48.2355 41.9636 48.5704 41.8526 48.8941 41.6994 49.2404 41.6306 49.7987 41.5196 50.3509 41.3723 50.9152 41.2975 55.2721 40.72 59.5437 40.7835 63.979 40.6314 68.6462 39.4714 63.5634 40.6362 75.033 39.9654 76.1828 39.8981 77.6778 39.3108 78.7176 38.9662L82.7373 37.634 83.7422 37.301C84.0771 37.19 84.4008 37.0368 84.7471 36.968 86.0101 36.7168 87.146 36.4723 88.4317 36.3019 89.434 36.169 90.4415 36.0798 91.4464 35.9688 95.932 34.4822 91.1944 35.9464 103.17 35.3027 104.135 35.2509 104.96 34.9316 105.85 34.6366L118.914 34.9697C128.797 35.3969 125.613 32.4719 126.953 31.9723Z" stroke="#000000" stroke-miterlimit="8" fill="#595959" fill-rule="evenodd" transform="matrix(1.00033 0 -0 1 88.5 110.5)"/><path d="M46.9357 0 46.9357 0C45.93 0.111076 44.9274 0.256168 43.9184 0.333333 42.021 0.478425 40.1061 0.421942 38.2191 0.666667 33.2948 1.3053 38.8132 1.36252 34.5313 1.66667 31.9651 1.84892 29.3903 1.88115 26.8204 2L20.1153 2.33333C15.7838 3.19465 19.6906 1.84451 18.7743 3.66667 18.6162 3.98089 18.1178 3.94656 17.7685 4 16.6585 4.16976 15.5335 4.22226 14.416 4.33333 14.1924 4.66667 14.0304 5.05008 13.7455 5.33333 12.4044 6.66667 12.9632 5.22226 12.0692 7 11.9111 7.31422 11.8197 7.65911 11.7339 8 11.2554 9.9031 11.5797 9.28903 11.0634 11L10.0577 14 9.7224 15C9.61069 17.6667 9.55462 20.3362 9.38715 23 9.33097 23.8941 9.11609 24.7731 9.05189 25.6667 8.89245 27.886 8.9105 30.1167 8.71664 32.3333 8.68602 32.6834 8.47441 32.9943 8.38138 33.3333 8.13894 34.2173 8.00231 35.1308 7.71087 36 7.2299 37.4346 7.46136 36.6591 7.04036 38.3333 6.91872 39.7842 6.67892 43.3101 6.36985 45 6.3066 45.3457 6.12762 45.661 6.0346 46 5.79216 46.884 5.58762 47.7777 5.36408 48.6667 5.25237 49.1111 5.17455 49.5653 5.02883 50 4.91711 50.3333 4.77931 50.6591 4.69357 51 4.41756 52.0978 4.22232 53.577 4.02306 54.6667 3.92117 55.224 3.81146 55.7803 3.68781 56.3333 3.58781 56.7806 3.44294 57.2174 3.35255 57.6667 2.62471 61.2849 3.40113 58.1158 2.68204 61.3333 2.58205 61.7806 2.4225 62.2148 2.34679 62.6667 2.10202 64.1267 1.97362 66.1886 1.67628 67.6667 1.60701 68.0112 1.41768 68.3237 1.34102 68.6667 1.19351 69.3264 1.11748 70 1.00577 70.6667 0.894049 73.4444 0.850545 76.2257 0.670511 79 0.626795 79.6744 0.431344 80.3309 0.335255 81 0.207805 81.8868 0.111717 82.7777 0 83.6667 0.111717 85.5556 0.0891198 87.4571 0.335255 89.3333 0.426698 90.0301 0.417723 90.9435 1.00577 91.3333L2.01153 92C2.12325 92.3333 2.18872 92.6858 2.34679 93 3.64663 95.5847 2.50993 92.4865 3.35255 95 3.24084 97.4444 3.2061 99.8935 3.0173 102.333 2.94761 103.234 2.55829 103.825 2.34679 104.667 2.20857 105.216 2.12325 105.778 2.01153 106.333 2.10773 107.289 2.07795 109.465 2.68204 110.667 2.86229 111.025 3.18888 111.301 3.35255 111.667 3.63955 112.309 3.79952 113 4.02306 113.667 4.13478 114 4.02306 114.556 4.35832 114.667 5.68973 115.108 6.66097 115.522 8.04613 115.667 9.60604 115.83 11.1758 115.88 12.7397 116 14.0814 116.103 15.4186 116.27 16.7628 116.333 22.6627 116.613 35.8535 116.881 40.9011 117 43.2479 116.889 45.6064 116.925 47.9415 116.667 48.644 116.589 49.2825 116.222 49.953 116L50.9588 115.667 51.9646 115.333C53.7526 112.667 51.4058 115.889 53.6408 113.667 54.6856 112.628 54.7583 111 54.9819 109.667 54.8701 107 54.9138 104.322 54.6466 101.667 54.5763 100.967 54.1996 100.333 53.9761 99.6667 53.8644 99.3333 53.8368 98.959 53.6408 98.6667L51.6293 95.6667C51.4058 95.3333 51.0863 95.0467 50.9588 94.6667 50.8471 94.3333 50.8443 93.941 50.6235 93.6667 50.3718 93.3538 49.953 93.2222 49.6178 93 48.7752 90.4865 49.9119 93.5847 48.612 91 47.224 88.2399 49.5278 91.8658 47.6063 89 47.4945 88.4444 47.3164 87.898 47.271 87.3333 47.0138 84.1362 47.2107 81.3671 46.6005 78.3333 46.5312 77.9888 46.3769 77.6667 46.2652 77.3333 46.2762 76.712 45.381 62.8501 46.9357 56.6667 47.0215 56.3258 47.1593 56 47.271 55.6667 47.3827 54.6667 47.4524 53.6611 47.6063 52.6667 47.6764 52.2139 47.9061 51.7901 47.9415 51.3333 48.1303 48.8935 48.165 46.4444 48.2768 44 48.3885 39 48.4026 33.9968 48.612 29 48.6267 28.6489 48.8935 28.3473 48.9473 28 49.118 26.8964 49.0978 25.7681 49.2825 24.6667 49.4341 23.7629 49.6616 22.8692 49.953 22 50.0648 21.6667 50.2824 21.3513 50.2883 21 50.3944 14.6675 47.4945 3.49995 46.9357 0Z" stroke="#000000" stroke-miterlimit="8" fill="#D9D9D9" fill-rule="evenodd" transform="matrix(1.00033 0 -0 1 219.5 73.5)"/></g></svg>