<svg width="301" height="250" xmlns="http://www.w3.org/2000/svg" xmlns:xlink="http://www.w3.org/1999/xlink" overflow="hidden"><defs><clipPath id="clip0"><path d="M0 0 301 0 301 250 0 250Z" fill-rule="evenodd" clip-rule="evenodd"/></clipPath></defs><g clip-path="url(#clip0)"><rect x="0" y="0" width="300.901" height="250" fill="#D3D3C3" transform="scale(1.00033 1)"/><path d="M60.2332 1.53266 60.2332 1.53266C59.4864 1.61783 58.7415 1.72124 57.993 1.78807 56.8329 1.89158 55.6382 1.75364 54.5085 2.04348 53.9281 2.19237 53.0151 3.06522 53.0151 3.06522L34.8456 2.80981C34.0832 2.78975 32.7662 2.26874 32.1077 2.04348L31.3611 1.78807C27.9595 1.87324 24.552 1.821 21.1562 2.04348 20.6326 2.0778 20.1719 2.42385 19.6629 2.5544 19.1062 2.69718 17.5376 3.07187 17.1739 3.32073 16.2089 3.98087 16.711 3.73447 15.6805 4.08696 15.4317 4.2573 15.2072 4.47323 14.9338 4.59788 14.4544 4.8166 13.4405 5.10869 13.4405 5.10869L11.9471 6.13043C11.6982 6.30078 11.4841 6.54428 11.2003 6.64136L10.4537 6.89676C10.2877 7.15217 10.2096 7.50037 9.95588 7.6631 9.51093 7.94854 8.46255 8.17391 8.46255 8.17391 6.32254 9.63813 9.03012 7.88268 6.96912 8.94024 5.03888 9.93077 7.35262 9.06457 5.47579 9.70657L4.4802 11.2391 3.98235 12.0055C3.77989 12.6289 3.71822 13.0429 3.23564 13.5381 3.02418 13.7551 2.73789 13.8787 2.48902 14.0489 2.32304 14.5599 2.28228 15.1335 1.99118 15.5816L0.995589 17.1142C0.829709 17.3696 0.59244 17.5892 0.497847 17.8805L0 19.413C0.0829918 23.8406 0.0920854 28.2703 0.248871 32.6956 0.274166 33.4088 1.2939 34.6875 1.49344 34.9946 1.65931 35.25 1.74231 35.5906 1.99118 35.7609L3.48461 36.7826C3.81647 37.2935 3.98235 37.9747 4.4802 38.3153 6.19188 39.4863 5.40597 39.1428 6.72025 39.5924 8.43193 40.7635 7.64602 40.42 8.9603 40.8696 9.20917 41.0399 9.43368 41.2558 9.70701 41.3805 10.1865 41.5992 10.7026 41.7211 11.2003 41.8913 15.412 43.3321 11.6701 42.1404 22.8985 42.4022 23.2304 42.4874 23.5587 42.5888 23.8941 42.6576 24.7049 42.824 26.666 43.1163 27.3787 43.1685 29.0359 43.2901 30.6974 43.3388 32.3567 43.424 33.5962 43.848 33.718 43.9331 34.8456 44.1903 35.2586 44.2845 35.6819 44.3315 36.0901 44.4457 36.5963 44.5874 37.064 44.8803 37.5835 44.9565L39.3258 45.212C40.3227 45.3736 41.311 45.5943 42.3126 45.7228 45.213 46.0949 43.6376 45.916 47.0415 46.2338 50.5173 47.4226 46.9699 46.291 56.2508 46.7446 56.9189 46.7772 57.5783 46.9148 58.242 47 61.4776 46.9148 64.7193 46.9656 67.9489 46.7446 68.4725 46.7088 69.4423 46.2338 69.4423 46.2338 69.6912 46.0634 69.9157 45.8475 70.189 45.7228 71.222 45.2516 71.8626 45.175 72.9268 44.9565 73.4247 44.6159 74.0884 44.4457 74.4203 43.9348 75.0635 42.9445 74.6342 43.2656 75.6647 42.913 75.7477 42.6576 75.7862 42.3822 75.9136 42.1468 76.2042 41.61 76.9092 40.6141 76.9092 40.6141 76.9888 40.2873 77.2287 39.1922 77.407 38.8261 77.5408 38.5515 77.7563 38.3264 77.9048 38.0599 78.0888 37.7293 78.165 37.3306 78.4026 37.0381 78.5941 36.8022 78.9005 36.6975 79.1493 36.5272 80.7501 31.5979 79.6073 35.4017 79.1493 22.4783 79.1101 21.3715 77.9254 20.9773 77.407 20.1794L76.4114 18.6468C76.3285 18.3914 76.29 18.1158 76.1626 17.8805 75.872 17.3437 75.3563 16.9303 75.167 16.3478 74.5409 14.4208 75.3857 16.7971 74.4203 14.8153 74.303 14.5744 74.2544 14.3043 74.1714 14.0489 74.2544 13.0272 74.2883 12 74.4203 10.9837 74.455 10.7168 74.6691 10.4866 74.6691 10.2174 74.6691 8.59741 74.5461 6.97904 74.4203 5.36421 74.394 5.02824 74.0255 2.97726 73.9224 2.5544 73.8588 2.2932 73.9224 1.87324 73.6736 1.78807 72.8042 1.49072 71.8465 1.6365 70.9357 1.53266 70.3526 1.46616 69.7742 1.36243 69.1935 1.27725 68.9446 1.19208 68.6814 1.1422 68.4467 1.02174 68.1792 0.884434 67.9598 0.663245 67.7 0.510923 67.3779 0.322022 67.0363 0.170343 66.7044 0 66.0407 0.0851717 65.3713 0.132692 64.7132 0.255515 63.0561 0.564772 60.9799 1.31984 60.2332 1.53266Z" stroke="#000000" stroke-miterlimit="8" fill="#D9D9D9" fill-rule="evenodd" transform="matrix(1.00033 0 -0 1 21.5 160.5)"/><path d="M77.5744 3.00871 71.8425 3.00871C68.4859 3.38386 67.3785 3.62077 63.1199 3.00871 62.8234 2.96606 62.847 2.45498 62.6215 2.2565 62.1707 1.85966 61.6945 1.44418 61.1262 1.2536L59.631 0.752203C58.8193 0.480024 58.3433 0.277022 57.3879 0.250699 51.8236 0.0972895 46.2564 0.0836015 40.6906 0 38.1984 0.0836015 35.6991 0.0423272 33.2141 0.250699 32.6905 0.294606 32.2173 0.585 31.7189 0.752203 31.0814 0.965945 30.4031 1.22791 29.7252 1.2536 25.7397 1.40491 21.7503 1.42081 17.7628 1.50441 17.0983 1.58801 16.4153 1.57779 15.7691 1.75511 15.4802 1.83439 15.2951 2.13416 15.0214 2.2565 15.0212 2.25661 13.1525 2.88331 12.7785 3.00871 12.5294 3.09231 12.2857 3.19528 12.0309 3.25941 11.3663 3.42661 10.6871 3.54296 10.0371 3.76091 9.78796 3.84451 9.54432 3.94749 9.28948 4.01161 8.87859 4.11501 8.45431 4.15891 8.04343 4.26231 7.78859 4.32643 7.52538 4.38476 7.29576 4.51311 6.77216 4.80583 6.36881 5.32544 5.80052 5.51602L4.30518 6.01742C3.3843 7.40726 4.33365 6.30802 3.05913 7.02032 2.53543 7.31303 1.56379 8.02322 1.56379 8.02322 1.48069 8.27392 1.44218 8.54441 1.3146 8.77542 1.02365 9.3022 0.317739 10.2797 0.317739 10.2797 0.234641 10.614 0.0685505 10.938 0.0685505 11.2826 0.0685505 14.1139-0.272527 17.243 0.566928 20.0581 0.717948 20.5644 0.899215 21.061 1.06541 21.5625 1.14851 21.8132 1.16892 22.0947 1.3146 22.3146L1.81308 23.0668C3.12182 32.2843 1.45672 20.0139 2.31146 46.3842 2.32862 46.9126 2.64375 47.3871 2.80994 47.8886 2.89304 48.1393 2.91345 48.4209 3.05913 48.6408 3.22522 48.8915 3.4359 49.1176 3.55751 49.3929 3.7709 49.876 3.76452 50.4575 4.05599 50.8973 4.22208 51.148 4.42041 51.38 4.55437 51.6495 4.6719 51.8859 4.67608 52.1706 4.80366 52.4016 5.09461 52.9285 5.30204 53.5717 5.80052 53.906L7.29576 54.9089C7.37886 55.1596 7.35918 55.4743 7.54495 55.6611 7.73071 55.848 8.063 55.7835 8.29262 55.9118 8.81632 56.2046 9.28948 56.5804 9.78796 56.9147L10.5355 57.4161C10.7017 57.6668 10.78 58.0086 11.034 58.1684 11.4795 58.4485 12.0309 58.5027 12.5292 58.6699 13.3614 58.9489 13.3356 58.9615 14.2738 59.1713 14.6873 59.2637 15.1063 59.3295 15.5198 59.422 15.8542 59.4967 16.176 59.6366 16.5167 59.6728 17.7587 59.8043 19.0089 59.8399 20.2549 59.9235 24.4367 59.5729 23.2052 59.5445 28.479 59.9235 28.9399 59.9566 31.1786 60.326 31.7189 60.4249 32.1356 60.5011 32.545 60.6193 32.9649 60.6757 35.2218 60.9785 35.2074 60.8123 37.2016 61.1771 37.5385 61.2387 37.8626 61.3602 38.1984 61.4278 38.694 61.5275 39.1965 61.5876 39.6938 61.6786 40.1105 61.7548 40.5311 61.8171 40.9398 61.9293 41.4467 62.0684 41.9367 62.2636 42.435 62.4307 42.6842 62.5143 42.9251 62.6297 43.1827 62.6815 43.5981 62.7651 44.011 62.8621 44.4288 62.9322 46.5397 63.2861 47.1512 63.2651 49.6624 63.4336L57.3879 63.9351C57.9806 64.1338 58.5065 64.3315 59.1325 64.4365 59.8196 64.5517 62.7664 64.8706 63.3691 64.938 63.8676 65.1051 64.4273 65.1461 64.8644 65.4394 65.1136 65.6066 65.3258 65.8522 65.6121 65.9409 67.2888 66.46 68.6412 66.4642 70.3471 66.6931 70.848 66.7603 71.3453 66.8528 71.8425 66.9438 72.2592 67.02 72.6657 67.1687 73.0885 67.1945 75.4117 67.3361 77.7405 67.3616 80.0665 67.4452 84.4556 68.3286 82.4793 68.0264 91.5305 67.4452 92.0548 67.4115 92.5273 67.1109 93.0257 66.9438L93.7734 66.6931C94.0226 66.6095 94.2589 66.4588 94.521 66.4423L98.5085 66.1916C98.8408 66.108 99.1772 66.0398 99.5053 65.9409 100.009 65.7889 100.491 65.5675 101.001 65.4394 101.333 65.3558 101.669 65.2876 101.997 65.1887 102.501 65.0368 102.994 64.8545 103.493 64.6873 103.742 64.6037 103.986 64.5006 104.24 64.4365 104.573 64.3529 104.909 64.2847 105.237 64.1858 105.741 64.0339 106.234 63.8516 106.733 63.6844 106.982 63.6008 107.225 63.4977 107.48 63.4336 108.732 63.1187 108.152 63.2918 109.225 62.9322 109.391 62.6815 109.511 62.3931 109.723 62.18 109.935 61.9669 110.312 61.9341 110.471 61.6786 110.749 61.2303 110.803 60.6757 110.969 60.1742 110.97 60.173 111.467 58.671 111.468 58.6699 111.634 58.3356 111.828 58.014 111.966 57.667 112.161 57.1762 112.298 56.664 112.465 56.1625 112.822 55.084 112.65 55.666 112.963 54.4074 112.88 49.6436 112.869 44.878 112.714 40.1161 112.703 39.7717 112.559 39.4446 112.465 39.1132 112.064 37.7018 112.381 39.0281 111.717 37.3581 111.522 36.8673 111.218 35.8538 111.218 35.8538 111.166 33.8603 110.957 23.7725 110.72 20.5596 110.691 20.1652 110.046 18.1633 109.972 18.0522L108.975 16.5479 108.228 14.2913C108.145 14.0406 108.042 13.7956 107.979 13.5392 107.839 12.9783 107.474 11.3984 107.231 11.0319 107.065 10.7812 106.867 10.5493 106.733 10.2797 105.701 8.20453 107.413 10.9303 105.985 8.77542 105.076 6.03268 106.525 10.1868 105.237 7.27102 105.024 6.78804 105.03 6.20652 104.739 5.76672 103.502 3.89969 105.091 6.1922 103.493 4.26231 102.455 3.00892 103.617 3.9279 102.247 3.00871 101.997 2.67441 101.818 2.27335 101.499 2.00581 101.297 1.8366 100.986 1.87335 100.751 1.75511 100.483 1.62033 100.272 1.38838 100.004 1.2536 99.7688 1.13536 99.5178 1.0248 99.2561 1.0029 97.5156 0.856968 95.7678 0.818432 94.0226 0.752203L86.0477 0.501504C84.3173 0.542989 74.1093 0.695662 70.5964 1.0029 70.3347 1.02575 70.0979 1.17 69.8487 1.2536 69.9318 1.75511 69.872 2.30325 70.0979 2.75801 70.2911 3.14664 71.2395 3.39155 71.5933 3.51021L72.0916 4.26231" stroke="#000000" stroke-miterlimit="8" fill="#A6A6A6" fill-rule="evenodd" transform="matrix(1.00033 0 -0 1 98.5 147.5)"/><path d="M77.1631 0 77.1631 0C70.7752 0.708894 79.253-0.166873 64.8872 0.500408 64.6234 0.512703 64.3895 0.678105 64.1356 0.750613 63.8045 0.845083 63.4633 0.902143 63.1335 1.00092 63.1321 1.00134 61.2553 1.62617 60.8787 1.75153 60.6282 1.83497 60.3833 1.93785 60.1271 2.00184 59.7931 2.08528 59.4561 2.15758 59.125 2.25205 58.871 2.32456 58.6374 2.49658 58.3734 2.50225 50.8588 2.66366 43.3416 2.66902 35.8258 2.75246 27.7844 2.48481 30.6874 3.29395 26.8067 2.00184 26.5562 1.91841 26.2749 1.89781 26.0551 1.75153L25.3035 1.25113C22.7982 1.33456 20.2705 1.15687 17.7876 1.50133 15.2754 1.84979 17.2018 2.66229 15.5328 2.75246 12.6963 2.90556 9.85411 2.91933 7.01483 3.00277L5.5116 4.00369 4.76009 4.5041C4.59302 4.7543 4.49412 5.06692 4.25898 5.25481 4.05277 5.41958 3.74356 5.38701 3.50736 5.50502 3.23803 5.63952 3.00636 5.83866 2.75585 6.00553 2.42181 6.50594 1.94416 6.93626 1.75373 7.50686 1.6702 7.75707 1.62128 8.02167 1.50313 8.25758 0.532043 10.1974 1.38108 7.87266 0.751615 9.75891 0.668079 10.5931 0.551823 11.4245 0.501007 12.2613 0.112784 18.6583 0.875762 16.143 0 18.7672 0.0835362 22.8543 0.106998 26.9431 0.250503 31.0286 0.27407 31.7006 0.380542 32.3688 0.501007 33.0304 0.548246 33.2899 0.679021 33.5275 0.751615 33.781 0.846198 34.1117 0.918582 34.4483 1.00212 34.782 1.48082 40.0417 1.00065 35.5232 1.50313 39.036 1.95805 42.2165 1.52585 39.8998 2.00424 42.2889 2.08777 43.2898 2.13007 44.2951 2.25474 45.2917 2.33049 45.8972 2.86085 47.3579 3.00636 47.7939L3.50736 49.2954 3.75797 50.0461C3.93546 51.4648 3.90432 51.8682 4.25898 53.0489 4.41079 53.5541 4.46708 54.1113 4.76009 54.5502L5.76221 56.0516 6.26321 56.8022C6.43029 57.3027 6.47132 57.8647 6.76433 58.3037 6.93129 58.5539 7.14308 58.7796 7.26533 59.0544 7.47985 59.5364 7.47344 60.1168 7.76644 60.5557L8.76856 62.0572C8.93553 62.3074 9.01907 62.641 9.26957 62.8078L10.0212 63.3083C10.6509 65.1953 9.72818 62.9425 11.0233 64.5594 11.9951 65.7727 10.3855 65.0144 12.0254 65.5603 12.5264 65.894 12.9443 66.4154 13.5285 66.5612 13.8626 66.6447 14.1996 66.717 14.5307 66.8115 14.7846 66.884 15.0218 67.0184 15.2823 67.0618 18.1784 67.5439 23.9085 67.5108 25.554 67.5622 33.4947 69.1482 42.1406 69.8801 49.8554 67.312 53.5136 64.8759 50.7566 66.3305 59.125 66.0608 59.96 65.9774 60.791 65.8105 61.6302 65.8105 62.8024 65.8105 63.9692 65.9674 65.1377 66.0608 66.0571 66.1343 66.9775 66.2034 67.8935 66.311 68.398 66.3703 68.8946 66.4841 69.3967 66.5612 69.9803 66.6509 70.5659 66.728 71.1504 66.8115 73.4288 67.5703 69.8327 66.4071 73.1546 67.312 73.6642 67.4508 74.1568 67.6456 74.6578 67.8124 78.7387 69.1711 75.1317 68.0561 85.9317 68.3129 86.6833 68.2294 87.4449 68.2109 88.1864 68.0627 88.7044 67.9592 89.2501 67.8548 89.6895 67.5622L91.9444 66.0608 93.4475 65.0599 94.1991 64.5594C94.2827 64.3092 94.3214 64.0392 94.4496 63.8087 94.7421 63.283 95.2613 62.878 95.4518 62.3074 95.6188 61.8068 95.8248 61.3177 95.9529 60.8059 96.5179 58.5482 96.2361 59.4566 96.7044 58.0535 96.9489 55.3675 97.1493 54.8624 96.7044 52.0479 96.622 51.5268 96.2034 50.5465 96.2034 50.5465 95.9152 46.5166 96.3235 48.1542 95.4518 45.5419 95.3682 45.2917 95.421 44.9375 95.2012 44.7912L94.4496 44.2908 93.9486 42.7893 93.698 42.0387C93.6145 39.2862 93.5061 36.5342 93.4475 33.781 93.0962 17.2906 93.928 23.6284 92.9465 16.7654 92.863 14.5133 92.846 12.2578 92.6959 10.0092 92.6469 9.275 91.6982 8.13894 91.4433 7.75707 91.2763 7.50686 91.0375 7.29175 90.9423 7.00645 90.5965 5.97043 90.9113 6.40212 89.9402 5.75522L88.938 4.25389C88.771 4.00369 88.6874 3.66994 88.4369 3.50317L87.6853 3.00277C87.4816 2.39233 87.4193 1.98629 86.9338 1.50133 86.4232 0.991359 85.274 0.599502 84.679 0.500408 81.8579 0.0307895 78.4157 0.0834364 77.1631 0Z" stroke="#000000" stroke-miterlimit="8" fill="#A6A6A6" fill-rule="evenodd" transform="matrix(1.00033 0 -0 1 103.5 80.5)"/><path d="M60.9759 35.9261 60.9759 35.9261C60.6414 35.2561 60.3305 34.5739 59.9722 33.9162 59.8278 33.6512 59.6053 33.4326 59.4704 33.1625 58.4318 31.0828 60.1553 33.8142 58.7176 31.6552 58.6339 31.2364 58.543 30.8191 58.4667 30.399 58.3756 29.8978 58.3391 29.3858 58.2157 28.8916 58.0873 28.3778 57.8811 27.8867 57.7139 27.3842L57.212 25.8768C57.1283 25.6256 57.0046 25.3844 56.9611 25.1231 56.8356 24.3694 56.6502 22.7722 56.2082 22.1083 56.041 21.8571 55.8413 21.6247 55.7064 21.3546 54.668 19.2753 56.3915 22.0065 54.9536 19.8473 54.8699 19.5961 54.8312 19.3251 54.7027 19.0936 54.4098 18.5657 53.699 17.5862 53.699 17.5862 53.6153 17.335 53.5765 17.064 53.4481 16.8325 53.1551 16.3046 52.6352 15.898 52.4444 15.3251 52.3607 15.0739 52.3586 14.7783 52.1934 14.5715 52.0049 14.3357 51.6916 14.2365 51.4407 14.0689 50.5203 12.6868 51.4409 13.8598 50.1859 12.8128 49.9133 12.5854 49.7133 12.2772 49.4332 12.0591 48.9571 11.6884 48.4295 11.3891 47.9276 11.0542 47.6767 10.8867 47.4609 10.6472 47.1748 10.5518L46.4221 10.3005C46.2547 10.0492 46.1334 9.76038 45.9202 9.54684 44.4707 8.09574 45.8528 10.142 44.4146 8.2906 41.7655 4.88051 44.6518 7.94413 42.6581 6.28075 42.3855 6.05329 42.2155 5.69964 41.9053 5.52714 41.4429 5.26992 40.8399 5.31835 40.3997 5.02462L39.6469 4.52222C39.4796 4.27101 39.372 3.96737 39.145 3.76849 38.6912 3.37085 38.1413 3.09854 37.6395 2.76357 36.6665 2.11409 37.1729 2.35654 36.1339 2.00985 35.0116 0.324214 36.3337 1.97567 34.8792 1.00492 34.584 0.807844 34.4787 0.293934 34.1264 0.251205 31.634-0.0512749 29.1078 0.0837701 26.5986 0 25.5112 0.0837701 24.4084 0.0500089 23.3365 0.251205 23.0401 0.306805 22.8593 0.631124 22.5837 0.75372 22.1002 0.968843 21.0781 1.25613 21.0781 1.25613 20.8272 1.42367 20.6009 1.63605 20.3254 1.75865 18.4867 2.57683 17.6151 2.34725 15.3068 2.51237L13.8012 3.51729C13.5503 3.68472 13.3344 3.92422 13.0483 4.0197L12.2956 4.27091C12.0447 4.43845 11.8126 4.63837 11.5428 4.77342 11.3062 4.8919 11.0212 4.89602 10.79 5.02462 10.7892 5.02505 8.90838 6.28054 8.53166 6.53206 8.28076 6.6995 8.06494 6.93899 7.77885 7.03447L7.02603 7.28568C5.58795 9.44566 7.50286 6.90376 5.77141 8.2906 5.53589 8.47925 5.49658 8.84545 5.2696 9.04432 4.81564 9.44197 3.76397 10.0492 3.76397 10.0492 3.6803 10.3005 3.64152 10.5715 3.51307 10.803 3.51265 10.8038 2.25866 12.6868 2.00744 13.064 1.8402 13.3152 1.601 13.5313 1.50563 13.8177 1.15936 14.8579 1.40152 14.3512 0.752815 15.3251-0.14658 18.0269 0.286205 16.3041 0 20.601 0.0836696 21.3547 0.102427 22.1185 0.251009 22.8621 0.354805 23.3814 0.585581 23.867 0.752815 24.3694 1.09908 25.4097 0.856928 24.9027 1.50563 25.8768 2.42073 28.6257 0.961251 24.462 2.25845 27.3842 2.47331 27.8682 2.59302 28.3891 2.76025 28.8916 2.84392 29.1428 2.86447 29.4249 3.01116 29.6453L4.01487 31.1527 4.51679 31.9064C4.68402 32.1576 4.73249 32.5646 5.01859 32.6601L5.77141 32.9113C6.31884 34.5557 5.55855 32.9418 6.77513 33.9162 7.01064 34.1049 7.04152 34.4813 7.27704 34.67 7.48358 34.8354 7.79318 34.8028 8.02975 34.9212 8.29951 35.0562 8.5128 35.2885 8.78256 35.4236 9.01914 35.5421 9.29881 35.5564 9.53538 35.6749 9.80514 35.8099 10.0126 36.0547 10.2882 36.1773 10.7716 36.3924 11.2919 36.5123 11.7937 36.6798 12.0446 36.7636 12.3264 36.7842 12.5465 36.931L14.0521 37.9359C14.303 38.1034 14.5188 38.3429 14.8049 38.4384 15.0558 38.5221 15.3265 38.5611 15.5577 38.6897 16.0849 38.983 17.0632 39.6946 17.0632 39.6946 18.4021 41.705 16.6444 39.2751 18.3179 40.9507 19.9904 42.6253 17.5654 40.8674 19.5726 42.2068 21.0104 44.3666 19.0959 41.8251 20.8272 43.2118 21.0627 43.4004 21.1158 43.752 21.3291 43.9655 21.5423 44.1789 21.8309 44.3005 22.0818 44.4679 24.0896 47.4829 20.9943 43.0441 23.3365 45.7241 27.2088 50.1549 22.4878 45.5604 25.093 47.734 25.3656 47.9615 25.5284 48.3287 25.8458 48.4876 26.2272 48.6786 26.676 48.6964 27.1004 48.7389 28.3517 48.8641 29.6112 48.8856 30.8644 48.9901 31.6192 49.0531 32.3699 49.1576 33.1227 49.2413 34.8435 49.8156 32.7077 49.1374 35.1301 49.7438 35.3867 49.8081 35.6286 49.9222 35.883 49.995 36.2146 50.0899 36.5563 50.1471 36.8867 50.2462 37.3934 50.3985 37.8635 50.7317 38.3923 50.7488L46.1711 51C48.0113 50.9162 49.8549 50.8902 51.6916 50.7488 52.184 50.7108 53.9395 50.0823 54.2008 49.995L54.9536 49.7438C55.2045 49.5763 55.4367 49.3764 55.7064 49.2413 55.943 49.1228 56.2722 49.1774 56.4592 48.9901 56.6463 48.8028 56.5449 48.4432 56.7102 48.2364 56.8986 48.0006 57.2121 47.9014 57.463 47.734 58.8008 45.7246 57.045 48.1523 58.7176 46.4778 60.3905 44.8029 57.9646 46.5617 59.9722 45.2216 60.4138 43.895 60.0764 44.6882 61.2268 42.9606L61.7287 42.2068C61.8124 41.9556 61.9796 41.7179 61.9796 41.4531 61.9796 40.778 61.8494 40.1075 61.7287 39.4433 61.3724 37.4809 61.4823 40.2453 61.2268 37.4334 61.1814 36.933 61.0178 36.1773 60.9759 35.9261Z" stroke="#000000" stroke-miterlimit="8" fill="#595959" fill-rule="evenodd" transform="matrix(1.00033 0 -0 1 119.5 30.5)"/><path d="M20.9931 10.9747 20.9931 10.9747C20.8324 10.209 20.7861 9.40604 20.5108 8.67774 20.2955 8.10807 19.7295 7.72832 19.5462 7.14633 19.2133 6.08962 19.5166 6.52982 18.5815 5.87022 17.295 3.8282 18.9834 6.29563 17.3756 4.59412 17.1706 4.37719 17.0982 4.04535 16.8932 3.82842 16.4704 3.38093 15.9955 3.22874 15.4463 3.06271 14.0341 2.6357 13.9916 2.75564 12.0698 2.55231 11.6678 2.46721 11.2616 2.40226 10.864 2.29701 10.6173 2.23173 10.3886 2.10011 10.1404 2.04181 9.66309 1.92959 9.17077 1.89883 8.69344 1.78661 8.4453 1.7283 8.22066 1.57568 7.96989 1.53141 7.25182 1.40472 6.52291 1.36121 5.79937 1.2761 6.04052 1.191 6.2762 1.08618 6.52281 1.0209 6.92054 0.915652 7.50137 1.12669 7.72875 0.765705 7.8988 0.495714 6.31093 0.0102894 6.28166 0 4.91236 0.181137 4.52639 0.148982 3.3876 0.510506 2.90065 0.665168 2.42291 0.850807 1.94062 1.0209L1.21708 1.2761C0.843659 1.53956 0.0630972 1.94845 0.011242 2.55231-0.0473989 3.23538 0.136424 3.91931 0.252389 4.59412 0.297863 4.85875 0.313764 5.16947 0.493535 5.35972 0.673307 5.54997 0.97593 5.52992 1.21708 5.61502 2.59894 7.8086 0.758989 5.22735 2.42291 6.63593 2.64927 6.82757 2.67895 7.20989 2.90531 7.40153 3.10381 7.56959 3.40137 7.53647 3.62875 7.65683 5.49776 8.6458 3.25816 7.78138 5.07583 8.42243 5.31698 8.59263 5.5401 8.79574 5.79937 8.93294 6.02674 9.05319 6.3006 9.05748 6.52281 9.18814 7.02961 9.4861 7.96989 10.209 7.96989 10.209 8.05031 10.4642 8.05223 10.7647 8.21104 10.9747 8.39213 11.2143 8.67531 11.3479 8.93458 11.4851 9.32319 11.6907 10.5758 11.989 10.864 11.9956 14.1592 12.0714 19.3049 11.1448 20.9931 10.9747Z" stroke="#000000" stroke-miterlimit="8" fill="#D9D9D9" fill-rule="evenodd" transform="matrix(1.00033 0 -0 1 123.5 70.5)"/><path d="M50.9841 0 50.9841 0 48.9849 0.743391C48.7373 0.832673 48.4955 0.951403 48.2351 0.991154 47.4077 1.11738 46.5691 1.15629 45.7361 1.23892 45.4862 1.40416 45.1988 1.52393 44.9864 1.73454 44.774 1.94505 44.7413 2.31998 44.4866 2.47783 44.0398 2.75473 43.4255 2.68366 42.9871 2.97346L42.2373 3.46899C41.6475 4.3463 41.8263 4.46014 40.4881 4.46014 35.7391 4.46014 30.9915 4.295 26.2432 4.21238 25.6601 4.12975 25.075 4.06066 24.494 3.96461 24.0749 3.89542 23.667 3.75879 23.2443 3.71685 21.9983 3.59333 20.7453 3.55161 19.4958 3.46899 15.2474 3.55161 10.9938 3.49542 6.75048 3.71685 6.22437 3.74432 5.25098 4.21238 5.25098 4.21238 5.0011 4.37762 4.71375 4.49739 4.50133 4.70801 4.28892 4.91862 4.23602 5.26524 4.00146 5.45129 3.79577 5.61446 3.5016 5.61654 3.25171 5.69916 2.41864 6.93808 3.00194 6.2771 1.25245 7.4336L0.502807 7.92923C0.163824 8.93734-0.43522 9.41518 0.502807 10.1593 0.708505 10.3225 1.00257 10.3244 1.25245 10.4071L2.0022 12.6372C2.08553 12.885 2.106 13.1632 2.25208 13.3805L2.75195 14.1239C3.34648 15.8926 2.87537 14.2957 3.25171 17.8408 3.31342 18.4216 3.43286 18.9953 3.5017 19.5753 3.58986 20.3183 3.54599 21.8934 4.00146 22.7965 4.1358 23.0629 4.33468 23.2922 4.50133 23.5399 4.58466 23.7877 4.58666 24.0793 4.75121 24.2832 5.10363 24.7199 5.75662 24.8633 6.25061 25.0266 8.39837 26.4464 5.68158 24.7446 7.75011 25.77 8.01878 25.9032 8.23119 26.1323 8.49986 26.2655 8.8062 26.4174 9.99684 26.7157 10.2491 26.7611 11.1837 26.9296 13.4128 27.1814 14.2477 27.2567 17.3441 27.5358 20.6915 27.7058 23.7442 27.7523L49.9845 28.0001C51.7339 27.9174 53.4873 27.8965 55.2326 27.7523 55.495 27.7307 55.729 27.5763 55.9823 27.5045 56.3126 27.411 56.6443 27.3194 56.9819 27.2567 60.707 26.5642 58.8982 27.1189 60.7306 26.5134 60.9805 26.3481 61.2059 26.1387 61.4803 26.0178 61.9617 25.8056 62.9797 25.5222 62.9797 25.5222 63.3588 25.7728 63.9618 26.2655 64.4792 26.2655 64.7426 26.2655 64.979 26.1004 65.2289 26.0178 65.5621 25.5222 66.1622 25.1231 66.2285 24.5311 66.3147 23.762 66.1385 22.2238 66.9783 21.5576 67.1839 21.3945 67.4781 21.3924 67.728 21.3097 67.8946 21.062 67.9932 20.7525 68.2278 20.5665 68.4335 20.4033 68.7912 20.5033 68.9775 20.3186 70.3105 18.997 67.9777 19.9885 69.9771 19.3274 70.6053 17.459 69.7578 19.7624 70.7269 17.8408 70.8448 17.6072 70.7905 17.2821 70.9768 17.0974 71.1631 16.9127 71.4766 16.9322 71.7265 16.8496 71.8099 16.6018 71.8485 16.3345 71.9764 16.1062 72.2682 15.5856 72.976 14.6195 72.976 14.6195 72.5283 10.1799 73.2508 13.4297 72.2263 11.3982 72.1085 11.1646 72.1043 10.8832 71.9764 10.6549 71.6847 10.1342 70.9768 9.16814 70.9768 9.16814 70.2521 7.01216 71.0098 9.47824 70.477 4.46014 70.4494 4.20041 70.4413 3.86867 70.227 3.71685 69.7983 3.41321 69.2274 3.38647 68.7276 3.22122L67.2281 2.7257C66.9783 2.64308 66.6976 2.62268 66.4785 2.47783L64.2292 0.991154C63.9794 0.826013 63.7645 0.589697 63.4796 0.495525L62.7298 0.247762C60.2307 0.330385 57.7284 0.345473 55.2326 0.495525 54.9697 0.511342 54.4829 0.743391 50.9841 0Z" stroke="#000000" stroke-miterlimit="8" fill="#595959" fill-rule="evenodd" transform="matrix(1.00033 0 -0 1 211.5 184.5)"/><path d="M22.0926 0 22.0926 0C20.8387 0.0825658 19.5704 0.0435706 18.3308 0.247593 18.0335 0.296467 17.8481 0.609677 17.5785 0.74278 17.342 0.859558 17.0625 0.8737 16.8261 0.990478 15.8352 1.47974 16.0066 1.91004 14.5691 1.98096L9.55345 2.22855C9.30269 2.31112 9.00749 2.31309 8.80108 2.47614 7.18059 3.75623 9.43834 2.84426 7.54719 3.46662 7.29644 3.71421 7.08992 4.01526 6.79482 4.20951 6.57493 4.35426 6.24898 4.29405 6.04256 4.4571 4.42218 5.73708 6.6794 4.82532 4.78857 5.44758 4.28706 5.77774 3.47456 5.8734 3.28393 6.43806 2.93787 7.46326 3.25318 7.03619 2.28081 7.67613 2.11357 7.92372 1.90157 8.14708 1.77919 8.41901 1.56446 8.8961 1.44482 9.40949 1.27768 9.90478 1.19406 10.1524 1.09106 10.3944 1.02693 10.6476 0.943307 10.9777 0.875063 11.312 0.776067 11.638 0.624097 12.138 0.274556 13.1238 0.274556 13.1238-0.0639262 15.4633-0.118374 14.9188 0.274556 17.8286 0.309521 18.0873 0.338377 18.3868 0.525312 18.5714 0.951627 18.9922 1.52844 19.2317 2.03005 19.5619L2.78232 20.0572 3.53469 20.5523C4.02283 21.9984 3.40357 20.6707 4.53782 21.7905 6.21011 23.4415 3.78523 21.7075 5.7917 23.0286 5.95894 23.2762 6.03771 23.6137 6.29331 23.7715 6.74164 24.0482 7.79795 24.2667 7.79795 24.2667 8.04871 24.4318 8.27492 24.6411 8.55032 24.7619 9.03351 24.974 9.55345 25.0921 10.0551 25.2571 11.5173 25.7384 10.8211 25.57 13.3152 25.7524 14.7348 25.8563 16.1573 25.9175 17.5785 26L23.0957 25.7524C24.2672 25.6882 25.4512 25.706 26.6066 25.5047 26.9034 25.453 27.1082 25.1746 27.359 25.0095 27.5261 24.7619 27.6049 24.4244 27.8605 24.2667 28.3088 23.9899 28.8636 23.9366 29.3652 23.7715L30.8699 23.2762 31.6222 23.0286 32.3746 22.781C33.567 21.9961 32.8408 22.3799 34.6316 21.7905 35.2769 21.5782 35.6934 21.4197 36.3871 21.2952 37.9125 21.0214 39.3411 20.9401 40.9011 20.8 41.2355 20.7175 41.5741 20.6501 41.9042 20.5523 42.4106 20.4023 43.409 20.0572 43.409 20.0572L44.9136 17.8286 45.4152 17.0857C46.4405 14.0485 45.8545 16.0713 45.4152 8.9143 45.3992 8.65371 45.3514 8.35599 45.1645 8.17142 44.3022 7.31997 43.8535 7.24468 42.9074 6.93335 42.4059 6.60319 41.7371 6.43806 41.4027 5.94287 41.2355 5.69527 41.1143 5.41045 40.9011 5.19998 40.1823 4.49017 40.2125 4.85995 39.3965 4.4571 37.451 3.49678 39.7836 4.3371 37.8917 3.71421 37.7246 3.46662 37.6519 3.1191 37.3902 2.97143 37.0201 2.76263 36.5476 2.83448 36.1363 2.72374 35.6263 2.58637 35.1332 2.39358 34.6316 2.22855L33.8792 1.98096C33.6285 1.89839 33.3834 1.79659 33.127 1.73326 32.7926 1.65069 32.4553 1.57915 32.1238 1.48566 31.8696 1.41391 31.6306 1.28923 31.3715 1.23807 30.1007 0.98715 28.0196 0.847184 26.8573 0.74278 25.3121 0.234179 22.8868 0.123849 22.0926 0Z" stroke="#000000" stroke-miterlimit="8" fill="#A6A6A6" fill-rule="evenodd" transform="matrix(1.00033 0 -0 1 226.5 163.5)"/></g></svg>