<svg width="301" height="250" xmlns="http://www.w3.org/2000/svg" xmlns:xlink="http://www.w3.org/1999/xlink" overflow="hidden"><defs><clipPath id="clip0"><path d="M0 0 301 0 301 250 0 250Z" fill-rule="evenodd" clip-rule="evenodd"/></clipPath></defs><g clip-path="url(#clip0)"><rect x="0" y="0" width="300.901" height="250" fill="#D3D3C3" transform="scale(1.00033 1)"/><path d="M30.3229 1 30.3229 1C28.5972 0.91664 26.8688 0.879475 25.1458 0.750026 24.6473 0.712546 24.1643 0.548136 23.6667 0.500052 22.4369 0.381312 21.1999 0.354016 19.9688 0.249974 19.2272 0.187297 18.4896 0.0833596 17.75 0 16.7639 0.0833596 15.7678 0.0850394 14.7917 0.249974 12.4436 0.646824 14.08 0.570709 12.5729 1.24997 12.098 1.46404 11.5868 1.58331 11.0937 1.75003 10.8472 1.83339 10.612 1.96735 10.3541 2L8.38191 2.24997C8.05321 2.33333 7.70721 2.36472 7.3958 2.50005 6.26588 2.99118 6.98365 3.02866 5.91668 3.75003 5.70041 3.89617 5.42357 3.91664 5.17707 4 4.93057 4.16672 4.66512 4.30772 4.43746 4.50005 4.02738 4.84661 3.43312 5.47916 3.20484 6 2.99375 6.48168 2.87614 7 2.71173 7.50005L2.21873 9C2.13653 9.24997 2.11634 9.53081 1.97223 9.75002L1.47912 10.5001C0.859497 12.3852 1.69549 10.0612 0.739507 12 0.623244 12.2357 0.575207 12.5001 0.493005 12.75 0.575207 17 0.587113 21.2521 0.739507 25.5 0.751827 25.8435 0.888796 26.1709 0.986113 26.5 1.13551 27.0048 1.47912 28 1.47912 28 1.39692 31.0834 1.44433 34.173 1.23262 37.25 1.19648 37.7757 0.903911 38.25 0.739507 38.75 0.657305 39 0.637117 39.2807 0.493005 39.5L0 40.25C0.082202 47 0.0917266 53.7513 0.246502 60.5 0.256234 60.9248 0.444036 61.328 0.493005 61.75 0.608647 62.7467 0.623865 63.7534 0.739507 64.75 0.928965 66.3826 1.05103 65.7635 1.47912 67.5 2.05163 69.8228 1.36772 66.9352 1.97223 70 2.04138 70.3506 2.57694 72.4545 2.71173 72.5 2.95824 72.5834 3.21892 72.6322 3.45134 72.75 4.82818 73.4481 3.55063 73.3202 5.67007 73.75 6.33193 73.8842 7.84532 74.1373 8.38191 74.5 8.62841 74.6667 8.84914 74.8817 9.12152 75 9.74114 75.2693 11.7448 75.4882 12.0799 75.5L31.309 76C31.4734 76.25 31.5707 76.5623 31.8021 76.75 32.4086 77.242 33.1426 76.8781 33.7744 76.75 33.9387 76.25 33.8349 75.5424 34.2674 75.25 35.9629 74.1038 35.1844 74.44 36.4862 74L38.7049 72.5 39.4445 72C40.0312 70.215 39.6492 70.9386 40.4306 69.75 40.5128 68 40.4863 66.2414 40.6771 64.5 40.7345 63.9762 41.0057 63.5 41.1702 63L41.4168 62.25C42.3172 53.1178 42.0203 57.0649 41.4168 38.5 41.3997 37.9732 40.9236 37 40.9236 37 40.8414 31 40.8327 24.9985 40.6771 19 40.6682 18.6565 40.4755 18.3406 40.4306 18 40.3107 17.0877 40.2511 16.1679 40.184 15.25 40.0867 13.9177 40.047 12.5813 39.9375 11.25 39.8434 10.105 39.7522 9.29008 39.4445 8.24997 39.2951 7.7452 39.1158 7.24997 38.9514 6.75003 38.8692 6.50005 38.849 6.21921 38.7049 6L38.2118 5.24997C37.9947 4.58961 37.615 3.21491 36.9792 3L36.2396 2.75003C35.7466 2.41669 35.3471 1.83496 34.7605 1.75003L30.3229 1Z" stroke="#000000" stroke-miterlimit="8" fill="#D9D9D9" fill-rule="evenodd" transform="matrix(1.00033 0 -0 1 69.5 87.5)"/><path d="M89.4788 2.20938 89.4788 2.20938C85.96 2.12642 82.4354 2.17793 78.9224 1.9606 78.3935 1.9279 77.917 1.62885 77.4143 1.46293L75.9062 0.965358 75.1522 0.71647 74.3981 0.467685 53.5366 0.71647C51.8738 0.754712 53.5236 1.01008 52.5312 1.71171 52.1 2.01661 51.5258 2.04346 51.0231 2.20938L50.269 2.45817 48.0069 1.71171 47.2529 1.46293C47.0015 1.37996 46.7603 1.2573 46.4989 1.21414 45.9962 1.13118 45.4984 1.01102 44.9908 0.965358 43.6531 0.844989 42.3098 0.799433 40.9693 0.71647 36.8383-0.646463 39.9113 0.273966 29.4074 0.71647 29.0623 0.730993 28.733 0.86714 28.4021 0.965358 27.8946 1.11613 27.4233 1.43795 26.8939 1.46293L21.6157 1.71171 13.5727 1.9606C13.2376 2.04356 12.9072 2.14826 12.5673 2.20938 10.0256 2.66683 11.6025 2.19601 10.0538 2.70695 9.80248 2.87288 9.48857 2.9711 9.29984 3.20463 9.13434 3.40942 9.07354 3.68997 9.04842 3.95108 8.90519 5.43951 8.98446 6.946 8.7971 8.42962 8.79689 8.4315 8.16907 10.2947 8.04304 10.6689L7.79172 11.4153C7.70791 11.6641 7.59233 11.9047 7.5404 12.1618 7.47063 12.507 7.27937 13.7216 7.03766 14.1523 6.74423 14.675 6.03228 15.6451 6.03228 15.6451 5.40066 17.5211 6.32614 15.2816 5.0269 16.8892 4.86139 17.094 4.89401 17.401 4.77558 17.6356 4.64047 17.9031 4.3956 18.1088 4.27294 18.382 4.05772 18.8614 4.06416 19.4385 3.7702 19.875 2.33016 22.0132 4.05646 19.3081 3.01614 21.3678 2.88103 21.6353 2.63615 21.841 2.5135 22.1142 2.29828 22.5935 2.17838 23.1095 2.01076 23.607L1.75944 24.3535C1.67563 24.6023 1.5724 24.8455 1.50812 25.0999 1.34051 25.7634 1.22387 26.4416 1.00538 27.0904 0.837869 27.588 0.631305 28.0744 0.502743 28.5832L0 30.5737C0.083808 31.569 0.118112 32.5695 0.251424 33.5594 0.362042 34.3807 1.1122 35.211 1.50812 35.7988 2.20793 36.8379 1.79723 36.3338 2.76482 37.2916 3.39634 39.1675 2.54453 36.8556 3.51888 38.7845 3.63731 39.0191 3.6047 39.3261 3.7702 39.5309 3.95893 39.7644 4.27294 39.8626 4.52426 40.0286 4.69177 40.2774 4.81326 40.5635 5.0269 40.775 5.62422 41.3663 6.54283 41.524 7.28908 41.7703L8.04304 42.0191 8.7971 42.2678C10.0538 42.1849 11.3086 42.0644 12.5673 42.0191 15.9174 41.8985 19.2717 41.9084 22.6211 41.7703 23.5864 41.7305 24.6865 41.5549 25.6372 41.2726 26.1447 41.1219 26.6426 40.9408 27.1453 40.775 27.3966 40.6921 27.6788 40.6716 27.8993 40.5261 28.1506 40.3603 28.3774 40.15 28.6534 40.0286 29.1375 39.8155 30.1614 39.5309 30.1614 39.5309 31.9208 39.6139 33.6844 39.635 35.4397 39.7798 35.7037 39.8015 35.9287 40.0286 36.1937 40.0286 38.6249 40.0286 41.0531 39.8628 43.4828 39.7798 46.3509 39.889 48.6823 39.6359 51.2744 40.2774 51.5314 40.341 51.7771 40.4432 52.0284 40.5261 53.2235 41.3148 52.4957 40.9291 54.2905 41.5214L55.0446 41.7703C56.05 41.6873 57.0656 41.6855 58.0607 41.5214 58.061 41.5214 59.9457 40.8995 60.3228 40.775L62.585 40.0286 63.3389 39.7798C64.3443 39.8628 65.3551 39.8966 66.3551 40.0286 67.2168 40.1423 67.0928 40.3936 67.8632 40.775 68.2237 40.9535 69.3007 41.1929 69.6226 41.2726 71.2983 41.1896 72.9829 41.2142 74.6495 41.0238 75.1759 40.9637 76.1576 40.5261 76.1576 40.5261 77.4143 40.6091 78.6809 40.5987 79.9278 40.775 80.4522 40.8492 80.9331 41.1068 81.4358 41.2726L82.9439 41.7703C83.1952 41.8532 83.4332 42.0077 83.698 42.0191L89.4788 42.2678C90.2347 42.5173 90.3372 42.4783 90.9869 43.0143 91.26 43.2396 91.4303 43.5899 91.741 43.7608 92.2042 44.0155 92.7464 44.0925 93.249 44.2583 93.5003 44.3413 93.7385 44.494 94.0031 44.5071 96.5364 44.6325 99.034 44.6736 101.543 45.0048 103.528 45.2667 102.104 45.1435 103.554 45.5023 103.969 45.605 104.394 45.6595 104.811 45.7512 105.148 45.8254 105.481 45.9171 105.816 46L117.127 45.7512C125.047 45.5449 122.426 46.119 125.924 45.2536 127.652 44.1129 126.859 44.4474 128.186 44.0095 129.381 43.2209 128.653 43.6064 130.448 43.0143L131.202 42.7655C131.286 42.5167 131.335 42.2536 131.453 42.0191 131.589 41.7516 131.939 41.5712 131.956 41.2726 131.971 41.0122 131.615 35.9042 131.453 35.0524 131.356 34.5368 131.038 34.0769 130.951 33.5594L130.699 32.0666C130.616 30.5737 130.569 29.0784 130.448 27.588 130.404 27.0425 130.275 25.7516 129.945 25.0999 129.81 24.8325 129.61 24.6023 129.443 24.3535L128.94 22.8607 128.689 22.1142C128.772 19.3773 128.728 16.6336 128.94 13.9035 128.981 13.3805 129.149 12.847 129.443 12.4106L130.448 10.9178 130.951 9.42486 131.202 8.6784C131.092 7.47387 131.246 5.48684 130.197 4.44865 129.983 4.23717 129.694 4.1169 129.443 3.95108 129.275 3.7023 129.196 3.36313 128.94 3.20463 128.491 2.92659 127.946 2.83411 127.432 2.70695 126.17 2.39454 126.754 2.56631 125.672 2.20938 123.746 2.29235 121.82 2.41533 119.892 2.45817 106.335 2.75972 94.5476 2.25087 89.4788 2.20938Z" stroke="#000000" stroke-miterlimit="8" fill="#595959" fill-rule="evenodd" transform="matrix(1.00033 0 -0 1 24.5 163.5)"/><path d="M19.2947 0.499947 19.2947 0.499947C18.1995 0.416587 17.1015 0.363674 16.0092 0.249973 15.4996 0.196955 15.0052 0 14.4928 0 13.6461 0 12.8079 0.166614 11.9655 0.249973L10.4491 0.74992C10.1964 0.83328 9.95365 0.956639 9.69086 0.999999 7.64969 1.33648 8.65987 1.08987 6.65809 1.74992 6.40538 1.83328 6.12158 1.85386 5.89997 2L4.38353 3C4.2151 3.24997 4.07256 3.51916 3.87813 3.74992 3.6493 4.02152 3.31816 4.20577 3.11991 4.49994 2.34969 5.64283 3.55325 5.02382 2.10898 5.49994 1.43514 7.50004 2.44596 5.16661 1.09806 6.49994 0.909672 6.68629 1.01177 7.04419 0.845355 7.24996 0.655588 7.48461 0.33984 7.5833 0.0871358 7.74991 0.130544 8.65279-0.560917 13.2391 1.35076 14.4999L2.10898 15C2.80639 17.0698 2.31902 16.0617 3.62532 18L4.13083 18.7499C4.29937 18.9999 4.34809 19.4049 4.63624 19.4999L5.39446 19.7499C5.563 19.9999 5.67136 20.302 5.89997 20.4999 6.96959 21.4258 7.13314 21.4066 8.17453 21.7499 8.67993 22.0832 9.35388 22.2499 9.69086 22.7499 9.8594 22.9999 9.96776 23.302 10.1964 23.4999 10.6535 23.8956 11.2073 24.1666 11.7127 24.4999L12.4709 25 13.2291 25.4999C14.6773 27.6491 12.7491 25.1201 14.4928 26.4999 14.73 26.6876 14.7266 27.1155 14.9983 27.2499 15.7778 27.6354 17.8932 27.8733 18.7892 28 22.1589 27.9166 25.5312 27.9048 28.8984 27.7499 29.1645 27.7376 29.4486 27.6645 29.6566 27.4999 29.8938 27.3122 29.9249 26.9376 30.1621 26.7499 30.3702 26.5853 30.682 26.6177 30.9203 26.4999 31.192 26.3655 31.4258 26.1666 31.6785 26 32.0154 25.4999 32.4973 25.07 32.6894 24.4999 32.7737 24.2499 32.7537 23.9362 32.9421 23.7499 33.1305 23.5635 33.4476 23.5833 33.7003 23.4999 34.0373 23 34.5191 22.57 34.7112 22 35.06 20.9649 34.8162 21.4692 35.4695 20.4999 35.5537 19.7499 35.6213 18.998 35.7222 18.2499 35.7899 17.7475 35.9749 17.2568 35.9749 16.7499 35.9749 13.9986 36.0758 11.2289 35.7222 8.49994 35.5939 7.50991 34.5048 6.9518 33.953 6.24996 33.5801 5.77563 33.2791 5.24997 32.9421 4.74991L32.4367 3.99999C32.3524 3.75002 32.3724 3.43632 32.184 3.24997 31.3606 2.43548 30.2473 2.02089 29.1512 1.74992 28.8142 1.66656 28.4743 1.59433 28.1403 1.49995 27.8841 1.4275 27.6484 1.25942 27.3821 1.24997 25.2773 1.17564 20.6426 0.624986 19.2947 0.499947Z" stroke="#000000" stroke-miterlimit="8" fill="#A6A6A6" fill-rule="evenodd" transform="matrix(1.00033 0 -0 1 113.5 139.5)"/><path d="M36.8074 0 36.8074 0C36.0613 0.0828419 35.3193 0.219625 34.5691 0.248421 31.0061 0.385309 27.4345 0.287651 23.8751 0.496843 21.9575 0.609524 22.409 0.949552 21.1394 1.24221 20.3156 1.4321 18.6523 1.73905 18.6523 1.73905 18.4037 1.90474 18.1794 2.11476 17.9063 2.236 17.4272 2.44874 16.9115 2.56716 16.4141 2.73284 13.9352 3.55834 15.9354 2.96927 10.1966 3.22979 9.53343 3.31263 8.8646 3.35875 8.20704 3.47821 7.94907 3.52506 7.71523 3.66309 7.46092 3.72663 7.05088 3.82909 6.62529 3.86404 6.21745 3.97516 5.71164 4.11298 5.23383 4.34502 4.7252 4.472 3.47609 4.78396 4.05469 4.61244 2.98439 4.96895 2.09403 6.30308 2.06907 6.05726 1.74081 7.20495 1.64692 7.53329 1.57507 7.86747 1.49214 8.19874 1.43637 9.81332 1.30206 16.2728 0.994796 18.882 0.89871 19.6981 0.609515 19.6516 0.248673 20.3726 0.131491 20.6069 0.0829258 20.8696 0 21.118 0.306428 23.8737 0.011384 22.6432 0.746018 24.8447 0.828944 25.0932 0.849415 25.3721 0.994796 25.59 1.16054 25.8384 1.37078 26.0625 1.49214 26.3354 1.7051 26.8141 1.69872 27.3903 1.98959 27.8261L2.98439 29.3167C3.60905 31.1892 2.76673 28.8821 3.73041 30.8075 3.84769 31.0417 3.85187 31.3238 3.97918 31.5527 4.26953 32.0748 4.97398 33.0435 4.97398 33.0435 5.63707 35.0312 4.64238 32.7122 5.96877 34.0373 6.15416 34.2225 6.10026 34.5484 6.21745 34.7826 6.66738 35.6816 6.60043 35.4898 7.46092 35.7764 7.62677 36.0248 7.69883 36.3735 7.95837 36.5217 8.32537 36.7312 8.7918 36.6678 9.20183 36.7702 9.45615 36.8338 9.69093 36.9673 9.94796 37.0186 12.1145 37.4514 14.9679 37.423 16.9115 37.5155 17.1602 37.5983 17.4231 37.6468 17.6575 37.764 17.9249 37.8975 18.1058 38.2365 18.4037 38.2608 22.6102 38.6039 34.0193 38.8736 38.797 39.0062 38.9628 39.2546 39.061 39.565 39.2944 39.7516 39.4991 39.9152 39.7784 40 40.0405 40 41.7006 40 43.3565 39.8344 45.0145 39.7516L46.5066 39.2546 47.2527 39.0062C47.5014 38.8405 47.7875 38.7204 47.9989 38.5093 48.2101 38.2982 48.2628 37.9506 48.4962 37.764 48.7009 37.6004 48.9937 37.5983 49.2423 37.5155 49.4082 37.2671 49.5284 36.9814 49.7398 36.7702 49.9512 36.559 50.3274 36.5265 50.4858 36.2733 50.7637 35.8291 50.9833 34.7826 50.9833 34.7826 50.9003 30.7246 50.8878 26.6645 50.7346 22.6086 50.7217 22.2675 50.5378 21.9524 50.4858 21.6148 50.3717 20.8736 50.3843 20.1142 50.2371 19.3788 50.1344 18.8653 49.9055 18.3851 49.7398 17.8882L49.491 17.1428C49.4081 16.8944 49.3877 16.6154 49.2423 16.3975L48.745 15.6521 48.2475 13.6645C48.1646 13.3333 48.107 12.9947 47.9989 12.6707 47.9159 12.4223 47.8138 12.1795 47.7502 11.9255 47.6476 11.5157 47.6126 11.0906 47.5014 10.6832 47.3634 10.1779 47.1698 9.68937 47.0041 9.19253L46.7554 8.44716 46.2579 6.95653C46.175 6.70811 46.1547 6.42901 46.0093 6.21116L45.5118 5.46579C44.92 3.69189 45.4507 4.26573 44.2684 3.47821 43.8463 2.21326 44.3588 3.08675 43.2736 2.48442 42.751 2.19437 42.2788 1.8219 41.7814 1.49063 41.111 1.04418 41.0611 0.916686 40.2892 0.745264 39.7969 0.636025 39.3005 0.524804 38.797 0.496843 37.8038 0.441754 37.139 0.0828419 36.8074 0Z" stroke="#000000" stroke-miterlimit="8" fill="#595959" fill-rule="evenodd" transform="matrix(1.00033 0 -0 1 189.5 35.5)"/><path d="M58.9828 0.249974 58.9828 0.249974C58.2361 0.166614 57.4941 0 56.7428 0 55.4129 0 54.0862 0.139003 52.7609 0.249974 49.9475 0.48546 51.317 0.615328 48.0324 0.750027 44.8815 0.879266 41.7276 0.916641 38.5752 1 37.3215 1.20987 36.3321 1.33449 35.091 1.75003L32.8511 2.49995 32.1046 2.75003C31.8557 2.83339 31.5763 2.85386 31.3579 3L29.8647 4C29.6988 4.24998 29.6206 4.59076 29.367 4.75003 28.9221 5.0294 27.8737 5.24998 27.8737 5.24998 26.6906 6.04242 27.4109 5.65502 25.6339 6.24998L24.8872 6.49995C24.6384 6.58331 24.3994 6.70667 24.1407 6.75003 23.6429 6.83339 23.1369 6.87706 22.6474 7 22.1384 7.12777 21.1542 7.49995 21.1542 7.49995 20.9054 7.66667 20.6191 7.78751 20.4076 8 20.196 8.2125 20.1349 8.55213 19.9098 8.75003 19.4596 9.14573 18.9143 9.4167 18.4166 9.75003L16.9233 10.75 14.6835 12.25C14.4346 12.4167 14.2206 12.655 13.9368 12.75L13.1903 13C11.7635 15.1498 13.6634 12.6196 11.9459 14 10.3377 15.2924 12.5783 14.3717 10.7015 15 10.3697 15.5 9.89521 15.9299 9.70604 16.5 9.62306 16.7499 9.57456 17.0143 9.45719 17.25 9.11084 17.9459 8.76302 18.1973 8.21286 18.75 8.04689 19.25 8.00603 19.8115 7.71506 20.25 7.5492 20.5 7.35115 20.7312 7.21737 21 7.1 21.2357 7.09582 21.5197 6.96842 21.75 6.67787 22.2753 6.30476 22.75 5.97293 23.25 5.80707 23.5 5.56982 23.715 5.47524 24 5.39226 24.25 5.35379 24.5197 5.22639 24.75 4.93585 25.2753 4.42007 25.6799 4.2309 26.25 3.60497 28.1357 4.44934 25.811 3.48426 27.75 2.45439 29.8192 4.1637 27.1013 2.73762 29.25 2.2996 30.5701 2.63426 29.7808 1.49328 31.5L0.995488 32.25C0.912505 32.5 0.863906 32.7643 0.746642 33-0.218642 34.9397 0.626034 32.614 0 34.5 0.0829835 37.6667 0.0343849 40.8396 0.24895 44 0.284589 44.5258 0.58078 45 0.746642 45.5L0.995488 46.25C1.07847 46.5 1.09896 46.7807 1.24444 47L2.23993 48.5C3.147 51.2338 1.70064 47.0939 2.98647 50 3.19957 50.4816 3.1933 51.0614 3.48426 51.5 3.65012 51.75 3.86051 51.9755 3.98195 52.25 4.85485 54.2229 3.88329 53.3507 5.22639 54.25L6.22188 55.7501C6.38774 56 6.47073 56.3334 6.71957 56.5L7.46622 57C7.63208 57.25 7.75237 57.5376 7.96391 57.7501 8.17544 57.9626 8.51354 58.0239 8.71055 58.25 9.10446 58.7023 9.20824 59.4167 9.70604 59.7501L11.1993 60.7501C12.6255 62.899 10.7265 60.3701 12.4437 61.7501 12.6772 61.9378 12.7078 62.3123 12.9413 62.5 13.1462 62.6646 13.4534 62.6322 13.688 62.7501 15.6171 63.719 13.3053 62.8718 15.1813 63.5 15.4301 63.6667 15.6545 63.878 15.9278 64 16.4073 64.2141 17.4211 64.5 17.4211 64.5 18.6044 65.2924 17.8838 64.9049 19.6609 65.5L20.4076 65.7501 21.1542 66C21.4031 66.1667 21.6274 66.378 21.9007 66.5 22.3803 66.7141 22.8962 66.8333 23.394 67L24.8872 67.5C25.1361 67.5833 25.4155 67.6039 25.6339 67.7501 26.3052 68.1996 26.3543 68.3274 27.1271 68.5 28.651 68.8402 29.7033 68.8154 31.3579 69 31.9409 69.0651 32.5186 69.1721 33.1001 69.25L35.091 69.5C35.4229 69.5834 35.7589 69.6514 36.0865 69.7501 36.589 69.9016 37.0622 70.1634 37.5797 70.25 39.6516 70.5969 38.5734 70.4283 40.815 70.7501 45.3154 72.2567 47.4933 71.3578 54.0053 71.5 55.1667 71.5834 56.3322 71.6209 57.4895 71.7501 57.8295 71.788 58.1429 72 58.485 72 64.5414 72 70.5967 71.8334 76.6526 71.7501 77.3163 71.6667 77.9825 71.6021 78.6436 71.5 79.0617 71.4353 79.4679 71.2997 79.888 71.25 80.8802 71.1327 81.879 71.0834 82.8745 71 85.3813 70.1607 81.4942 71.441 84.6165 70.5 85.119 70.3485 85.6008 70.1278 86.1098 70 86.4416 69.9167 86.7764 69.8445 87.1053 69.7501 87.3576 69.6776 87.5996 69.5724 87.8519 69.5 88.1808 69.4056 88.5185 69.3444 88.8474 69.25 89.0996 69.1777 89.3359 69.0472 89.594 69 90.252 68.8798 90.9213 68.8334 91.5849 68.7501 94.9289 67.9102 92.3402 68.656 94.8204 67.7501 95.3134 67.5699 95.8158 67.4167 96.3135 67.25L97.0602 67C98.5988 65.9696 97.0978 67.1137 98.3045 65.7501 98.7722 65.2216 99.4073 64.8384 99.7978 64.25 100.939 62.5308 100.226 62.9402 101.54 62.5 102.09 61.9473 102.34 61.5979 103.033 61.25 103.268 61.1321 103.531 61.0834 103.78 61 105.491 59.8539 104.705 60.1901 106.02 59.7501 106.268 59.5833 106.499 59.3844 106.766 59.25 108.827 58.2149 105.917 60.0617 108.508 58.5 109.021 58.1908 109.504 57.8333 110.002 57.5L110.748 57C110.997 56.8334 111.283 56.7124 111.495 56.5L112.241 55.7501C112.324 55.5001 112.373 55.2357 112.49 55 112.837 54.304 113.184 54.0528 113.735 53.5 114.211 52.0656 113.643 53.4047 114.73 52 115.097 51.5257 115.726 50.5 115.726 50.5L116.223 49C116.306 48.7501 116.421 48.5084 116.472 48.25 116.614 47.537 116.759 46.7055 116.97 46 117.121 45.4951 117.302 45 117.468 44.5L117.965 43 118.214 42.25C118.297 42 118.399 41.7556 118.463 41.5 118.776 40.2443 118.604 40.826 118.961 39.75 118.878 39.0834 118.755 38.4205 118.712 37.75 118.589 35.8355 118.61 33.9129 118.463 32 118.443 31.7372 118.278 31.5056 118.214 31.25 118.072 30.6798 118.001 29.8213 117.717 29.25 117.583 28.9812 117.385 28.7499 117.219 28.5 116.593 26.6148 117.437 28.9388 116.472 27 116.355 26.7643 116.341 26.4857 116.223 26.25 116.09 25.9812 115.859 25.7687 115.726 25.5 114.695 23.4299 116.405 26.1495 114.979 24 114.896 23.6667 114.865 23.3158 114.73 23 114.612 22.7238 114.381 22.5109 114.232 22.25 112.969 20.0296 114.45 22.3274 113.237 20.5 112.799 19.18 113.133 19.9691 111.993 18.25L111.495 17.5C111.235 16.7184 110.984 15.7411 110.25 15.25 110.002 15.0834 109.747 14.9246 109.504 14.75 109.241 14.5618 108.152 13.6961 107.762 13.5 107.527 13.3821 107.264 13.3333 107.015 13.25 106.766 13 106.561 12.6961 106.268 12.5 106.05 12.3538 105.756 12.3678 105.522 12.25 105.254 12.1156 105.035 11.8991 104.775 11.75 104.453 11.5652 104.094 11.4475 103.78 11.25 103.328 10.9664 102.565 10.2647 102.038 10 101.803 9.88221 101.54 9.83339 101.291 9.75003 100.121 8.57512 100.837 9.19623 99.0512 8L97.5579 7 96.8113 6.75003C94.6715 5.31696 97.3788 7.03507 95.318 6 93.6837 5.17911 95.6466 5.64494 93.0782 5 92.7464 4.91664 92.4104 4.84872 92.0827 4.75003 91.5801 4.59853 90.5895 4.24998 90.5895 4.24998 90.3406 4.08336 90.1104 3.88441 89.8429 3.75003 89.6083 3.63213 89.3486 3.57239 89.0963 3.49995 88.7674 3.40557 88.4347 3.32452 88.1008 3.24998 87.6879 3.1578 87.2646 3.11181 86.8564 3 86.3503 2.86131 85.8777 2.60326 85.3632 2.49995 84.9483 2.41659 84.5291 2.35307 84.1188 2.24997 83.8643 2.18604 83.6294 2.05165 83.3722 2 82.7969 1.88441 82.2072 1.85543 81.6301 1.75003 81.2935 1.6885 80.9719 1.55643 80.6346 1.49995 79.9749 1.3895 79.3072 1.33333 78.6436 1.24997 76.2234 0.43958 78.2857 1.05491 72.6707 0.750027L68.6887 0.499948C64.5159-0.338373 60.6004 0.291654 58.9828 0.249974Z" stroke="#000000" stroke-miterlimit="8" fill="#D9D9D9" fill-rule="evenodd" transform="matrix(1.00033 0 -0 1 152.5 73.5)"/><path d="M68.6506 0.521793 68.6506 0.521793 62.1382 0.782635C61.1342 0.83763 60.1376 1.02474 59.1324 1.04348L34.0845 1.30443C30.1305 1.89261 34.9901 1.30443 29.0749 1.30443 26.5687 1.30443 24.0653 1.47829 21.5604 1.56527 21.0595 1.73913 20.497 1.78185 20.0576 2.08695 19.0865 2.76124 19.5917 2.5096 18.5547 2.86959 18.3042 3.04356 18.0725 3.25116 17.8032 3.39138 17.5671 3.5143 17.258 3.48045 17.0519 3.65223 16.8168 3.8481 16.7774 4.22836 16.5508 4.43486 16.0978 4.84776 15.048 5.47834 15.048 5.47834 14.881 5.73918 14.7821 6.06499 14.547 6.26086 14.3408 6.43264 14.0263 6.38827 13.7955 6.52182 13.2693 6.82637 12.7936 7.21747 12.2927 7.56529L11.5413 8.08698C10.106 10.3296 12.017 7.69062 10.2889 9.13045 10.0538 9.32633 10.0008 9.69136 9.78787 9.91309 9.57508 10.1347 9.28697 10.2609 9.03651 10.4348 8.86947 10.6956 8.7484 10.9957 8.5355 11.2174 8.3226 11.4391 7.97211 11.4944 7.78404 11.7392 6.81241 13.0041 8.42179 12.2133 6.78212 12.7827 6.57847 13.4191 6.5162 13.8423 6.03076 14.3478 5.81786 14.5696 5.52975 14.6957 5.27929 14.8696 5.19577 15.1305 5.15706 15.4118 5.02884 15.6522 4.73642 16.2004 4.21742 16.6226 4.02692 17.2174 3.68117 18.2975 3.92279 17.7712 3.27546 18.7826L2.77445 20.3479C2.69093 20.6087 2.67041 20.9016 2.52399 21.1305 2.35706 21.3913 2.14531 21.6265 2.02309 21.913 1.47768 23.191 1.60812 23.3537 1.27162 24.5218 1.11983 25.0485 0.937648 25.5652 0.770609 26.0869L0.520156 26.8696C0.353222 28.087-0.0982458 29.2981 0.0192495 30.5218 0.102769 31.3913 0.197018 32.2598 0.269703 33.1304 0.363951 34.2599 0.392983 35.3957 0.520156 36.5217 0.577378 37.0284 0.859073 37.8414 1.02117 38.3478 1.13666 39.1896 1.27246 40.9579 1.77253 41.7391L2.77445 43.3044C2.94148 43.5652 3.025 43.9131 3.27546 44.087L4.02692 44.6087C5.36271 46.6957 3.60943 44.1739 5.27929 45.913 6.41238 47.0931 5.0686 46.4486 6.53166 46.9565 7.68001 48.7506 6.96241 48.3235 8.28505 48.7826 8.36857 49.0434 8.34879 49.3708 8.5355 49.5652 8.72221 49.7597 9.05082 49.703 9.28697 49.8261 10.9256 50.6794 9.12845 49.9768 10.7898 51.1304 11.0095 51.2829 11.2908 51.3044 11.5413 51.3913 11.7083 51.6522 11.8157 51.9675 12.0423 52.1739 12.4954 52.5868 13.5451 53.2173 13.5451 53.2173 13.7121 53.4782 13.7908 53.8338 14.0461 54 14.4939 54.2915 15.1096 54.2168 15.5489 54.5218 16.5201 55.1959 16.0148 54.9443 17.0519 55.3043 17.3023 55.4783 17.5282 55.6988 17.8032 55.8261 18.2858 56.0495 19.3061 56.3478 19.3061 56.3478 21.46 57.8433 18.7349 56.0502 20.809 57.1304 21.0783 57.2706 21.2854 57.5249 21.5604 57.6522 22.043 57.8756 23.0634 58.1739 23.0634 58.1739 25.2151 59.6682 22.4936 57.8773 24.5662 58.9565 24.8355 59.0967 25.0426 59.3509 25.3177 59.4782 25.8002 59.7016 26.3196 59.826 26.8205 60L27.5719 60.2608 28.3234 60.5217C29.5144 61.3486 28.7891 60.9442 30.5777 61.5652L32.832 62.3478C33.0824 62.4348 33.3273 62.5419 33.5835 62.6086 33.9174 62.6956 34.2556 62.7666 34.5854 62.8696 35.0911 63.0277 35.5873 63.2174 36.0883 63.3913 36.3388 63.4783 36.5792 63.6069 36.8397 63.6521 37.3407 63.7391 37.8499 63.7848 38.3426 63.9131 38.8549 64.0465 39.3332 64.3014 39.8454 64.4348 40.1794 64.5217 40.5113 64.6178 40.8473 64.6956 41.2629 64.7918 41.6867 64.849 42.0998 64.9565 42.3559 65.0233 42.5911 65.1696 42.8512 65.2174 44.014 65.4311 45.2001 65.4978 46.3579 65.7391L47.6103 66 70.404 65.7391C71.1574 65.7238 73.8113 65.5041 74.9126 65.2174 75.4248 65.0839 75.9145 64.8696 76.4155 64.6956L77.9183 64.1739 84.6813 61.8261C87.4209 60.875 83.272 62.3915 86.1842 61.0435 86.6667 60.8201 87.1861 60.6957 87.687 60.5217L88.4385 60.2608 89.19 60C89.9411 59.4783 90.025 59.565 90.4423 58.6957 90.5605 58.4497 90.5646 58.1534 90.6928 57.913 90.9852 57.3648 91.5043 56.9426 91.6947 56.3478 91.8617 55.8261 91.7563 55.0877 92.1957 54.7826 92.4462 54.6086 92.7221 54.4691 92.9471 54.2608 93.4766 53.7706 93.7779 52.929 94.45 52.6957L95.2015 52.4348C95.4519 52.174 95.7354 51.9434 95.9528 51.6522 96.3225 51.1572 96.4537 50.4347 96.9548 50.0869L97.7062 49.5652C99.1417 47.3228 97.421 50.1597 98.4577 48 99.1415 46.5756 98.8314 47.8771 99.2091 46.4348 99.3903 45.743 99.4923 45.0282 99.7101 44.3478 99.7936 44.087 99.8323 43.8056 99.9605 43.5652 99.9609 43.5643 101.213 41.6091 101.463 41.2174 101.63 40.9566 101.869 40.7322 101.964 40.4348 102.31 39.3547 102.068 39.881 102.716 38.8696 102.799 38.5218 102.966 38.1847 102.966 37.8261 102.966 34.3468 102.871 30.867 102.716 27.3914 102.704 27.1167 102.529 26.8755 102.465 26.6087 102.362 26.1786 102.337 25.7291 102.215 25.3044 102.086 24.8559 101.872 24.4385 101.714 24 101.621 23.7425 101.536 23.4818 101.463 23.2175 101.369 22.8727 101.349 22.5035 101.213 22.174 101.094 21.8857 100.879 21.6522 100.712 21.3913 100.628 21.1305 100.526 20.8755 100.462 20.6087 100.358 20.1786 100.361 19.7196 100.211 19.3044 100.105 19.0108 99.8771 18.7826 99.7101 18.5217 99.3315 16.9443 99.5687 17.8191 98.9586 15.9131 98.8751 15.6523 98.8262 15.3764 98.7081 15.1305 97.1945 11.9774 99.1224 15.8854 97.7062 13.3044 97.1349 12.2632 97.2053 12 96.4538 10.9566 96.2413 10.6614 95.9292 10.4573 95.7024 10.1739 93.9595 7.99561 96.6446 10.894 94.45 8.60877 94.3665 8.34793 94.3863 8.02059 94.1996 7.82613 92.8593 6.43023 93.1001 7.06859 91.9452 6.52182 91.2653 6.19995 90.6498 5.72428 89.9413 5.47834L88.4385 4.95654C88.188 4.86956 87.9459 4.7496 87.687 4.6957 85.9167 4.32695 86.8387 4.57509 84.9317 3.91307 84.6813 3.82608 84.4165 3.77525 84.1804 3.65223 80.8605 1.92328 85.0047 4.01999 82.427 2.86959 82.0838 2.71644 81.7663 2.50588 81.4251 2.34791 81.0142 2.15772 80.5836 2.01629 80.1727 1.82611 77.9624 0.803012 80.566 1.78876 77.6679 0.782635L76.9164 0.521793C76.6659 0.43481 76.4269 0.295022 76.165 0.260951L74.1612 0C71.74 0.0900513 69.32 0.260951 68.6506 0.521793Z" stroke="#000000" stroke-miterlimit="8" fill="#D9D9D9" fill-rule="evenodd" transform="matrix(1.00033 0 -0 1 156.5 143.5)"/></g></svg>