<svg width="301" height="250" xmlns="http://www.w3.org/2000/svg" xmlns:xlink="http://www.w3.org/1999/xlink" overflow="hidden"><defs><clipPath id="clip0"><path d="M0 0 301 0 301 250 0 250Z" fill-rule="evenodd" clip-rule="evenodd"/></clipPath></defs><g clip-path="url(#clip0)"><rect x="0" y="0" width="300.901" height="250" fill="#D3D3C3" transform="scale(1.00033 1)"/><path d="M5.9078 7.60331 5.9078 7.60331C5.57968 8.48488 5.37092 9.42144 4.92342 10.2479 4.70123 10.6584 4.22398 10.8707 3.93905 11.2397 3.45487 11.8669 3.06402 12.562 2.62655 13.2231 2.40777 13.5537 2.09504 13.838 1.9703 14.2149 1.86096 14.5455 1.81011 14.902 1.64218 15.2066 1.25917 15.9012 0.329675 17.1901 0.329675 17.1901 0.000620079 20.8372-0.208346 20.609 0.329675 24.1322 0.512908 25.3324 0.773238 25.0261 1.31405 26.1157 1.46876 26.4273 1.48747 26.7958 1.64218 27.1074 1.81859 27.4628 2.13824 27.7361 2.29842 28.0992 2.57932 28.7361 2.57095 29.5028 2.95467 30.0826 3.39214 30.7438 4.0178 31.3123 4.26717 32.0661 4.60915 33.0996 4.94068 34.3918 5.9078 35.0413L6.89218 35.7025C7.99839 37.3743 6.94788 36.2264 8.5328 37.0248 8.88552 37.2025 9.15681 37.5246 9.51717 37.686 10.1493 37.9689 10.8297 38.1267 11.4859 38.3471L12.4703 38.6777C12.7984 38.7878 13.1115 38.9651 13.4547 39.0083 14.3297 39.1184 15.2009 39.265 16.0797 39.3388 17.8271 39.4855 19.5801 39.5519 21.3297 39.6694L25.9234 40C27.8922 39.8898 29.866 39.8492 31.8297 39.6694 32.2788 39.6283 32.7019 39.4374 33.1422 39.3388 33.6866 39.2169 34.2384 39.1302 34.7828 39.0083 35.2231 38.9097 35.6633 38.8083 36.0953 38.6777 36.7579 38.4775 38.064 38.0165 38.064 38.0165 38.2828 37.686 38.4415 37.3057 38.7203 37.0248 38.9991 36.7439 39.4583 36.6739 39.7047 36.3636 39.9208 36.0916 39.8781 35.6835 40.0328 35.3719 40.2092 35.0165 40.5126 34.7355 40.689 34.3802 40.8438 34.0685 40.8625 33.7001 41.0172 33.3884 41.1936 33.0331 41.5132 32.7598 41.6734 32.3967 41.9543 31.7598 42.1109 31.0744 42.3297 30.4132L42.6578 29.4215C42.7671 27.5482 42.9859 25.6782 42.9859 23.8017 42.9859 21.7051 42.9057 19.6023 42.6578 17.5207 42.5754 16.8287 42.2203 16.1983 42.0015 15.5372L41.3453 13.5537C41.236 13.2231 41.074 12.9057 41.0172 12.562 40.9078 11.9008 40.7902 11.241 40.689 10.5785 40.5714 9.80834 40.488 9.03307 40.3609 8.26446 40.2256 7.4464 39.9406 6.12138 39.7047 5.28926 39.6097 4.9542 39.5926 4.56958 39.3765 4.29752 39.1302 3.98725 38.7203 3.85678 38.3922 3.63636 38.1253 2.82975 38.0439 2.29375 37.4078 1.65289 36.8326 1.07336 36.1862 0.876267 35.439 0.661157 34.3578 0.349945 33.6136 0.227188 32.4859 0 30.0797 0.110158 27.6682 0.137021 25.2672 0.330579 24.9224 0.358378 24.6184 0.576612 24.2828 0.661157 23.7418 0.797449 23.1856 0.865439 22.6422 0.991735 21.7633 1.19602 20.9179 1.6075 20.0172 1.65289L13.4547 1.98347C13.1265 2.09363 12.7727 2.14486 12.4703 2.31405 11.7809 2.69992 11.1578 3.19563 10.5015 3.63636L9.51717 4.29752C9.18905 4.51794 8.88552 4.78095 8.5328 4.95868L5.9078 7.60331Z" stroke="#000000" stroke-miterlimit="8" fill="#D9D9D9" fill-rule="evenodd" transform="matrix(1.00033 0 -0 1 165.5 169.5)"/><path d="M61.6464 0 61.6464 0C60.5357 0.111076 59.4206 0.185722 58.3141 0.333333 57.7527 0.408189 57.1974 0.529239 56.648 0.666667 56.3072 0.751916 55.9988 0.976588 55.6483 1 52.6539 1.19968 49.6503 1.22226 46.6513 1.33333 44.1386 2.17113 47.2358 1.04094 44.652 2.33333 44.1739 2.57239 42.7464 2.89323 42.3194 3 41.4308 2.88892 40.5369 2.81396 39.6536 2.66667 39.2019 2.59139 38.7787 2.33333 38.3207 2.33333 36.9832 2.33333 35.6549 2.55559 34.322 2.66667 31.4571 4.57722 35.0819 2.28661 32.3227 3.66667 31.9645 3.84588 31.689 4.1706 31.323 4.33333 30.681 4.61869 29.9082 4.61018 29.3237 5 28.9905 5.22226 28.6921 5.50887 28.324 5.66667 27.0201 6.22572 26.3357 5.77039 24.9918 6.66667 21.4777 9.01018 24.6302 7.23171 20.3266 8.66667 18.5671 9.25333 19.6193 8.80514 17.3276 10.3333L16.328 11 15.3283 11.6667C15.1061 12 14.945 12.3834 14.6618 12.6667 13.5066 13.8223 13.7066 12.7333 12.9957 14.3333 12.7105 14.9755 12.719 15.7487 12.3293 16.3333 10.4194 19.1992 12.7092 15.5732 11.3296 18.3333 11.1504 18.6917 10.8258 18.9672 10.6632 19.3333 10.3779 19.9755 10.2189 20.6667 9.99671 21.3333L9.66348 22.3333C9.55245 22.6667 9.52505 23.0409 9.33026 23.3333 8.27413 24.918 8.79049 23.9533 7.99737 26.3333 6.98626 29.3676 8.53724 24.5753 7.33092 29L6.33125 32 5.6648 34 5.33158 35C5.22054 36.5556 4.99835 38.1072 4.99835 39.6667 4.99835 41.0046 5.33158 42.3287 5.33158 43.6667 5.33158 55.6568 6.30512 52.4119 4.66513 57.3333 4.55409 58.8889 4.49511 60.449 4.33191 62 4.16251 63.6096 4.03342 63.3783 3.66546 64.6667 3.53962 65.1072 3.45807 65.5595 3.33224 66 2.37612 69.3474 3.70755 64.1651 2.66579 68.3333 2.55475 71 2.51004 73.6702 2.33257 76.3333 2.24462 77.6532 1.62655 79.8249 1.33289 81 1.22185 81.4444 1.06443 81.8798 0.999671 82.3333L0.666447 84.6667C0.555408 86.4444 0.475224 88.2245 0.333224 90 0.25304 91.0029 0 91.9938 0 93 0 96.0021 0.179573 99.0019 0.333224 102 0.401757 103.336 0.574404 104.665 0.666447 106 0.796588 107.888 0.811491 109.784 0.999671 111.667 1.03462 112.016 1.23644 112.329 1.33289 112.667 1.45873 113.107 1.59087 113.548 1.66612 114 1.81337 114.884 1.86322 115.781 1.99934 116.667 2.49062 119.861 2.09821 117.062 2.66579 119.333 2.80317 119.883 2.90057 120.442 2.99901 121 3.2339 122.331 3.2382 123.718 3.66546 125 3.7765 125.333 3.91346 125.659 3.99868 126 4.47433 127.903 4.15202 127.289 4.66513 129 4.86695 129.673 5.10939 130.333 5.33158 131 5.67886 132.042 6.01555 133.345 6.9977 134L7.99737 134.667C9.90729 137.533 7.36419 134.16 9.66348 136 9.97624 136.25 9.99031 136.788 10.3299 137 10.9256 137.372 11.6628 137.444 12.3293 137.667L14.3286 138.333C14.6618 138.444 14.9875 138.581 15.3283 138.667 15.7725 138.778 16.2141 138.901 16.6612 139 17.2141 139.123 17.7779 139.196 18.3273 139.333 18.6681 139.419 18.9937 139.556 19.327 139.667 22.8814 139.556 26.434 139.333 29.9901 139.333 47.0207 139.333 35.1039 140.094 44.9852 139.333 49.1449 138.501 47.8226 138.631 55.3151 139.333 56.0145 139.399 57.3145 140 57.3145 140 58.6474 139.889 59.9938 139.887 61.3131 139.667 62.006 139.551 62.6236 139.138 63.3125 139 64.4577 138.771 65.2135 138.647 66.3115 138.333 66.6492 138.237 66.997 138.157 67.3112 138 67.6694 137.821 67.9776 137.556 68.3108 137.333 69.8385 135.041 69.3905 136.093 69.977 134.333 70.3569 128.632 69.7822 130.918 70.9766 127.333 71.0877 127 71.1151 126.626 71.3099 126.333L72.6427 124.333 73.3092 123.333C73.5069 120.565 73.4006 119.301 73.9756 117 74.0609 116.659 74.1978 116.333 74.3089 116 74.4199 115.222 74.5227 114.443 74.6421 113.667 74.7448 112.999 74.9753 112.343 74.9753 111.667 74.9753 109.996 74.7462 108.334 74.6421 106.667 74.2319 100.102 74.6332 102.946 73.9756 99 73.8646 96.3333 73.8395 93.6617 73.6424 91 73.6165 90.6496 73.4663 90.3142 73.3092 90 73.13 89.6417 72.8649 89.3333 72.6427 89 72.7538 87.8889 72.7703 86.7642 72.976 85.6667 73.1055 84.976 73.4202 84.3333 73.6424 83.6667 74.1023 82.2866 73.7808 82.9591 74.6421 81.6667 74.7531 78.7777 74.783 75.8846 74.9753 73 75.0173 72.3703 75.8718 69.9763 75.975 69.6667L76.3082 68.6667C76.4193 65.2223 76.465 61.775 76.6414 58.3333 76.6873 57.4387 76.9747 56.5625 76.9747 55.6667 76.9747 51.7762 76.9252 47.8801 76.6414 44 76.5902 43.2991 76.1972 42.6667 75.975 42L74.9753 39C74.8643 38.6667 74.8369 38.2924 74.6421 38L73.9756 37C73.8646 26 73.858 14.9984 73.6424 4 73.6355 3.64871 73.5834 3.21953 73.3092 3 72.9516 2.71381 72.4167 2.79255 71.9763 2.66667 71.6386 2.57018 71.2907 2.4905 70.9766 2.33333 70.6184 2.15412 70.3352 1.84588 69.977 1.66667 69.2152 1.28567 68.0717 1.19013 67.3112 1 66.9704 0.914751 66.6596 0.713071 66.3115 0.666667L61.6464 0Z" stroke="#000000" stroke-miterlimit="8" fill="#595959" fill-rule="evenodd" transform="matrix(1.00033 0 -0 1 12.5 68.5)"/><path d="M17.1858 4.31849 17.1858 4.31849 31.8098 4.65068C32.1598 4.66554 32.4565 4.98288 32.8069 4.98288 35.9109 4.98288 39.011 4.76138 42.113 4.65068 42.9994 4.42919 43.9053 4.27507 44.7719 3.9863 45.4367 3.7648 46.067 3.36848 46.7661 3.32192L51.7516 2.98973C52.0839 2.76823 52.3836 2.48751 52.7486 2.32534 55.1846 1.24329 56.3373 1.54712 59.3959 1.32877L62.3872 0.332192 63.3843 0C64.603 0.110696 65.8289 0.159243 67.0403 0.332192 67.3871 0.38168 67.7896 0.416731 68.0373 0.664383 68.2851 0.912036 68.1219 1.41331 68.3697 1.66096 68.6175 1.90861 69.0535 1.83652 69.3668 1.99315 69.7241 2.17175 70.0315 2.43604 70.3639 2.65753 70.807 3.32192 71.4407 3.89318 71.6933 4.65068L74.0199 11.6267 74.3522 12.6233C74.463 12.9555 74.6159 13.2765 74.6846 13.6199L75.3493 16.9418C75.4601 21.9247 75.4741 26.9107 75.6817 31.8904 75.6962 32.2403 75.9731 32.5392 76.014 32.887 76.1958 34.4305 76.1836 35.992 76.3464 37.5377 76.4698 38.7094 76.6723 39.1793 77.0111 40.1952 77.1219 42.299 77.1107 44.4129 77.3435 46.5068 77.4444 47.4144 77.7193 48.2982 78.0082 49.1644L79.0053 52.1541 79.67 54.1473C79.7808 54.4794 79.9174 54.8041 80.0024 55.1438L80.6671 57.8014C80.9089 63.1194 81.3319 71.5574 81.3319 76.4041 81.3319 85.5409 83.4438 83.7447 80.0024 86.0377 79.4384 87.7289 80.1233 86.5611 78.673 87.3664 77.9746 87.7542 76.6788 88.6952 76.6788 88.6952 76.568 89.0274 76.5942 89.4441 76.3464 89.6918 75.7815 90.2563 74.3522 91.0205 74.3522 91.0205 73.5169 93.5254 74.7409 90.535 73.0228 92.6815 71.188 94.9737 74.5508 92.4384 71.6933 94.3425 71.4717 94.6746 71.3292 95.0761 71.0286 95.339 69.622 96.5691 69.4068 96.5437 68.0373 97 67.3726 96.8893 66.6969 96.8311 66.0432 96.6678 65.3634 96.498 64.7454 96.0807 64.049 96.0034 56.872 95.2064 62.0606 95.6976 48.4279 95.339 48.0956 95.1175 47.7959 94.8368 47.4308 94.6746 46.7905 94.3903 46.1014 94.2318 45.4367 94.0103 45.1043 93.8996 44.7864 93.7276 44.4396 93.6781L42.113 93.3459 33.4716 93.6781C31.5585 93.7737 28.276 93.99 26.1596 94.3425 24.2945 94.6531 25.4137 94.6119 23.8331 95.0068 23.2851 95.1438 22.7252 95.2283 22.1713 95.339 20.3987 95.2283 18.6198 95.1927 16.8535 95.0068 16.5051 94.9702 16.1944 94.7668 15.8564 94.6746 14.975 94.4344 14.0641 94.299 13.1975 94.0103 12.5327 93.7888 11.8831 93.5157 11.2033 93.3459 10.317 93.1244 9.41105 92.9703 8.54439 92.6815 8.21203 92.5708 7.8961 92.3825 7.54731 92.3493 5.55909 92.16 3.55895 92.1278 1.56477 92.0171 1.12166 91.9064 0.331002 92.1314 0.235323 91.6849-0.381772 88.8066 0.347646 88.3021 0.900049 86.3699 1.02556 85.9308 1.12166 85.484 1.23241 85.0411 1.12166 79.6153 0.900049 74.1906 0.900049 68.7637 0.900049 65.4069 0.954902 62.8421 1.56477 59.7945 1.86102 58.3141 2.41803 56.9039 2.89423 55.476 4.01117 52.1268 2.30696 57.3219 3.55895 53.1507 3.76025 52.4799 4.00207 51.8219 4.22368 51.1575L4.55604 50.161C4.66679 49.8288 4.55604 49.2751 4.8884 49.1644L5.88549 48.8322C5.99624 48.5 6.06115 48.1488 6.21785 47.8356 6.39654 47.4785 6.72032 47.2039 6.88258 46.839 7.1671 46.199 7.3257 45.5103 7.54731 44.8459L7.87967 43.8493 8.21203 42.8527C8.77668 34.387 8.90732 34.6352 8.21203 22.589 8.17162 21.8899 7.76892 21.2603 7.54731 20.5959L5.88549 15.613 5.22077 13.6199 4.8884 12.6233C4.99916 10.7408 4.85072 8.8251 5.22077 6.97603 5.29708 6.59445 6.84929 5.47755 7.21494 5.31507 7.85528 5.03069 8.54439 4.87218 9.20912 4.65068L10.2062 4.31849C13.6207 3.18088 10.8529 3.9863 17.1858 4.31849Z" stroke="#000000" stroke-miterlimit="8" fill="#A6A6A6" fill-rule="evenodd" transform="matrix(1.00033 0 -0 1 83.5 112.5)"/><path d="M26.5778 0 26.5778 0C25.5685 0.111076 24.5458 0.135958 23.5499 0.333333 22.8544 0.471181 22.2381 0.941627 21.5314 0.999999L17.4942 1.33333 14.4664 2.33333C14.13 2.44441 13.7522 2.47181 13.4571 2.66666L11.4385 4C11.1021 4.22225 10.8128 4.53994 10.4293 4.66666 8.00931 5.46593 11.0313 4.49627 8.07427 5.33333 7.73328 5.42981 7.40597 5.57018 7.06498 5.66666 4.10792 6.50372 7.12994 5.53406 4.70999 6.33333 3.13996 8.66666 4.03713 7.88892 2.35499 8.99999 2.24289 9.33333 2.17719 9.68577 2.01857 9.99999 1.83769 10.3583 1.50995 10.6339 1.34571 11 1.05771 11.6422 0.897176 12.3333 0.672856 13L0.336428 14 0 15C0.112107 16.8889 0.0894315 18.7904 0.336428 20.6667 0.42819 21.3635 0.784963 22 1.00928 22.6667L1.68214 24.6667C1.79425 25 1.8219 25.3743 2.01857 25.6666 2.24289 26 2.51055 26.3083 2.69142 26.6666 2.85005 26.9809 2.85566 27.3595 3.02785 27.6666 4.92181 31.0444 3.45223 28.9373 5.38284 30 6.08971 30.3891 7.40141 31.3333 7.40141 31.3333 7.62573 31.6666 7.73137 32.121 8.07427 32.3333 9.52382 33.2309 12.4324 33.2107 13.7935 33.3333 14.3543 33.4444 14.921 33.5292 15.4757 33.6666 15.8197 33.7519 16.1303 34 16.485 34 17.8353 34 19.1764 33.7777 20.5221 33.6666 21.4825 33.4763 22.5997 33.2824 23.5499 33 24.2293 32.7981 24.8957 32.5556 25.5685 32.3333 25.9049 32.2222 26.2827 32.1948 26.5778 32L27.5871 31.3333C27.8114 31 27.9442 30.5836 28.2599 30.3333 28.5368 30.1138 29.0184 30.2485 29.2692 30 31.9685 27.3255 29.3404 28.4209 31.6242 27.6666 33.3634 25.082 32.7142 26.4268 33.6428 23.6667L33.9792 22.6667C34.0913 21.7777 34.1262 20.8759 34.3156 20 34.4642 19.3128 34.9885 18 34.9885 18 34.8764 13.3333 34.8612 8.66341 34.6521 4 34.6363 3.64903 34.5664 3.2485 34.3156 3 34.0648 2.75149 33.6235 2.82383 33.3064 2.66666 32.9447 2.48745 32.6666 2.16273 32.2971 2 30.5437 1.22793 27.531 0.333333 26.5778 0Z" stroke="#000000" stroke-miterlimit="8" fill="#D9D9D9" fill-rule="evenodd" transform="matrix(1.00033 0 -0 1 169.5 140.5)"/><path d="M64.2433 12.2563 64.2433 12.2563C63.4626 11.7041 62.7239 11.0887 61.9011 10.6 61.5987 10.4203 61.1727 10.4869 60.8973 10.2688 60.5833 10.02 60.5422 9.52373 60.2281 9.275 59.9528 9.05685 59.5397 9.09993 59.2243 8.94375 58.8646 8.76566 58.5802 8.45934 58.2205 8.28125 57.9051 8.12507 57.5321 8.10618 57.2167 7.95 54.6222 6.66569 57.7322 7.78881 55.2091 6.95625 54.8745 6.625 54.599 6.22239 54.2053 5.9625 53.9118 5.76886 53.5169 5.78743 53.2015 5.63125 52.8418 5.45316 52.5652 5.13046 52.1977 4.96875L49.1863 3.975 47.1787 3.3125C46.8441 3.20212 46.4684 3.17489 46.1749 2.98125 45.8403 2.76038 45.5386 2.48046 45.1711 2.31875 44.5264 2.03518 43.8327 1.87712 43.1635 1.65625L42.1597 1.325C41.8251 1.21462 41.4494 1.18739 41.1559 0.99375L40.1521 0.33125C39.4829 0.552118 38.8137 1.21462 38.1445 0.99375L36.1369 0.33125 35.1331 0C33.014 0.110382 30.8826 0.0809606 28.7757 0.33125 28.0753 0.414402 27.4373 0.772882 26.7681 0.99375L24.7605 1.65625 21.749 2.65 20.7452 2.98125C20.4106 3.09163 20.0836 3.22778 19.7414 3.3125 19.3126 3.41861 17.8793 3.73744 17.3992 3.975 17.0396 4.15309 16.7629 4.47579 16.3954 4.6375 14.7574 5.35822 14.5468 5.18649 13.0494 5.63125 12.0359 5.93225 11.0418 6.29375 10.038 6.625 9.70342 6.73538 9.32772 6.76261 9.03422 6.95625 8.69962 7.17712 8.3901 7.44066 8.03042 7.61875 7.715 7.77493 7.33497 7.78046 7.02661 7.95 6.32358 8.33665 5.68821 8.83337 5.01901 9.275L4.01521 9.9375C3.90371 10.2688 3.90097 10.6586 3.68061 10.9313 3.42937 11.2422 2.8899 11.2561 2.67681 11.5938 2.3029 12.1859 2.3989 13.0002 2.0076 13.5813 1.7845 13.9125 1.50175 14.2112 1.3384 14.575 1.05196 15.2132 0.892304 15.9 0.669201 16.5625L0.334601 17.5563 0 18.55C0.111498 23.1875 0.126569 27.8282 0.334601 32.4625 0.358102 32.9849 0.973346 34.1338 1.3384 34.45 1.94363 34.9744 3.34601 35.775 3.34601 35.775 4.23831 38.425 2.89991 35.3334 4.68441 37.1 4.93386 37.347 4.86125 37.7815 5.01901 38.0938 5.62445 39.2924 5.53424 39.0367 6.69201 39.4188 7.3434 41.3534 6.51697 39.5767 8.03042 41.075 8.31475 41.3565 8.41529 41.7873 8.69962 42.0688 8.98395 42.3502 9.39453 42.4764 9.70342 42.7313 10.0669 43.0312 10.3337 43.4374 10.7072 43.725 11.3421 44.2138 12.7148 45.05 12.7148 45.05 12.8263 45.3813 12.8 45.7968 13.0494 46.0438 13.2989 46.2907 13.7378 46.2188 14.0532 46.375 14.4129 46.5531 14.6973 46.8594 15.057 47.0375 15.3725 47.1937 15.7186 47.284 16.0608 47.3688 16.6125 47.5053 17.1743 47.5993 17.7338 47.7 18.4014 47.8202 19.0833 47.8684 19.7414 48.0313 20.4258 48.2006 21.0798 48.4729 21.749 48.6938 22.0836 48.8041 22.4593 48.8314 22.7528 49.025 23.0874 49.2459 23.397 49.5094 23.7567 49.6875 24.0721 49.8437 24.4521 49.8492 24.7605 50.0188 25.4635 50.4054 26.0051 51.092 26.7681 51.3438 27.1027 51.4541 27.4316 51.5831 27.7719 51.675 28.6592 51.9146 29.5564 52.1166 30.4487 52.3375 30.8948 52.4479 31.3508 52.5248 31.7871 52.6688L32.7909 53 45.1711 52.6688C45.9562 52.6326 47.6566 52.2497 48.5171 52.0063 48.8562 51.9104 49.17 51.7098 49.5209 51.675 51.4108 51.4879 53.3153 51.4879 55.2091 51.3438 56.2161 51.2671 57.2167 51.1229 58.2205 51.0125 60.2433 50.5119 59.1226 50.8252 61.5665 50.0188 61.9011 49.9084 62.2768 49.8811 62.5703 49.6875L63.5741 49.025C63.7972 48.6938 63.9023 48.2422 64.2433 48.0313 64.8415 47.6611 65.5817 47.5896 66.2509 47.3688L68.2585 46.7063C71.9194 45.4982 66.3743 47.4249 70.2662 45.7125 70.9108 45.4289 71.6046 45.2709 72.2738 45.05 72.6084 44.9396 72.9841 44.9124 73.2775 44.7188 73.6122 44.4979 73.9217 44.2343 74.2814 44.0563 77.052 42.6848 73.4122 44.9611 76.289 43.0625 76.4005 42.7313 76.3741 42.3157 76.6236 42.0688 78.2926 40.4165 77.1082 43.3907 78.2966 40.7438 78.583 40.1056 78.7427 39.4188 78.9658 38.7563 79.0773 38.425 79.2424 38.1069 79.3004 37.7625 79.4119 37.1 79.4705 36.4266 79.635 35.775L80.6388 32.7938 80.9734 31.8C80.8318 30.6787 80.7031 28.2517 79.9696 27.1625 79.3659 26.2661 79.0557 25.8945 78.6312 24.8438 78.3692 24.1953 78.1851 23.5188 77.962 22.8563L77.2928 20.8688C77.1813 20.5375 77.2517 20.0686 76.9582 19.875L75.9544 19.2125C75.8429 18.8813 75.8692 18.4657 75.6198 18.2188 75.0511 17.6558 74.2814 17.3354 73.6122 16.8938 73.2775 16.6729 72.9899 16.3572 72.6084 16.2313 72.2738 16.1209 71.92 16.0562 71.6046 15.9 71.2449 15.7219 70.9682 15.3992 70.6007 15.2375 69.9561 14.9539 69.18 14.9624 68.5931 14.575 67.6118 13.9273 67.6938 13.8555 66.5855 13.5813 66.4773 13.5544 64.6337 12.4771 64.2433 12.2563Z" stroke="#000000" stroke-miterlimit="8" fill="#D9D9D9" fill-rule="evenodd" transform="matrix(1.00033 0 -0 1 204.5 40.5)"/><path d="M33.8375 0.718522 33.8375 0.718522C23.8137-0.389116 27.7802-0.0773406 8.0406 0.718522 7.33489 0.746961 6.7157 1.21457 6.03045 1.38489 5.60109 1.49161 4.16592 1.81231 3.68528 2.05126 3.32514 2.23039 3.01523 2.49547 2.6802 2.71762 2.56856 3.05081 2.34518 3.36594 2.34518 3.71717 2.34518 6.53869 2.58038 6.75109 3.35025 9.04811L3.68528 10.0477 4.0203 11.0472C3.90866 12.7131 3.9227 14.3922 3.68528 16.045 3.58535 16.7403 3.01523 18.0441 3.01523 18.0441 3.12687 22.0423 3.1543 26.0437 3.35025 30.0387 3.378 30.6043 3.53544 31.1583 3.68528 31.7046 3.8711 32.3823 4.35533 33.7037 4.35533 33.7037 4.46697 36.2581 4.50042 38.8171 4.69035 41.3669 4.73045 41.9048 5.17173 43.1362 5.3604 43.6992 5.19906 49.9576 6.06242 53.2502 4.69035 58.0261 4.59338 58.3638 4.46697 58.6925 4.35533 59.0256 4.24369 61.0247 4.21119 63.0298 4.0203 65.0229 3.98685 65.3726 3.71239 65.6723 3.68528 66.0225 3.63209 66.7102 3.26024 77.2299 3.01523 79.0166 2.91984 79.7126 2.46125 80.3229 2.34518 81.0157L2.01015 83.0149C1.89851 84.6808 1.86052 86.3532 1.67513 88.0126 1.63608 88.3616 1.40932 88.6677 1.3401 89.0122 1.07366 90.337 1.09962 91.7286 0.67005 93.0104L0 95.0095C0.11164 96.7864 0.147622 98.5697 0.335025 100.34 0.490456 101.809 1.4644 101.711 2.01015 103.339 2.8522 105.851 1.71628 102.755 3.01523 105.338 3.17319 105.652 3.19229 106.024 3.35025 106.338 4.94297 109.506 2.96173 104.179 4.69035 109.336L5.02538 110.336 5.3604 111.335C5.47204 112.335 5.52913 113.342 5.69543 114.334 5.75346 114.681 5.74312 115.13 6.03045 115.334 6.60522 115.742 8.0406 116 8.0406 116L32.8325 115.667C33.2927 115.655 33.7315 115.465 34.1726 115.334 35.1873 115.031 36.1827 114.667 37.1878 114.334 37.5228 114.223 37.8424 114.044 38.1929 114.001 43.3134 113.364 39.9736 113.708 48.2436 113.335 50.507 112.584 48.0537 113.625 49.9187 112.002 50.5247 111.474 51.2588 111.113 51.9289 110.669 52.2639 110.447 52.552 110.129 52.934 110.003 53.269 109.892 53.6232 109.827 53.939 109.67 56.5368 108.378 53.4229 109.507 55.9492 108.67 57.736 106.005 56.6192 107.115 59.2994 105.338L60.3045 104.672C61.9767 102.177 60.4297 104.842 61.3096 99.0077 61.4144 98.3131 61.9796 97.0086 61.9796 97.0086 61.868 94.5652 61.8893 92.1123 61.6446 89.6785 61.1426 84.6854 61.1685 88.6438 60.6395 86.0135 60.3731 84.6886 60.3991 83.297 59.9695 82.0153 59.0846 79.3753 59.4155 80.709 58.9644 78.0171 58.8528 76.5733 58.81 75.1225 58.6294 73.6857 58.5856 73.3372 58.3873 73.025 58.2944 72.6862 58.0521 71.8026 57.9156 70.8895 57.6243 70.0207 56.7394 67.3807 57.0703 68.7144 56.6192 66.0225 56.5076 63.9124 56.5374 61.7901 56.2842 59.692 56.2001 58.9946 55.8376 58.3593 55.6142 57.6929L55.2791 56.6934 54.2741 53.6947 53.939 52.6952C53.8274 52.362 53.6621 52.042 53.604 51.6956L53.269 49.6965C52.7446 42.3953 52.5865 42.3262 53.269 32.371 53.317 31.6702 53.8005 31.0607 53.939 30.3719 54.4126 28.0171 54.0939 29.2432 54.9441 26.7068 55.0558 26.3737 55.0833 25.9995 55.2791 25.7073L55.9492 24.7077C56.0608 22.4865 56.2842 20.2681 56.2842 18.0441 56.2842 13.0451 56.2443 8.04121 55.9492 3.05081 55.9077 2.3496 55.9492 1.27386 55.2791 1.05171 53.328 0.404857 52.8059 0.0865752 50.5888 0.052155 44.3358-0.0450191 36.6294 0.607496 33.8375 0.718522Z" stroke="#000000" stroke-miterlimit="8" fill="#A6A6A6" fill-rule="evenodd" transform="matrix(1.00033 0 -0 1 208.5 93.5)"/></g></svg>