<svg width="301" height="250" xmlns="http://www.w3.org/2000/svg" xmlns:xlink="http://www.w3.org/1999/xlink" overflow="hidden"><defs><clipPath id="clip0"><path d="M0 0 301 0 301 250 0 250Z" fill-rule="evenodd" clip-rule="evenodd"/></clipPath></defs><g clip-path="url(#clip0)"><rect x="0" y="0" width="300.901" height="250" fill="#D3D3C3" transform="scale(1.00033 1)"/><path d="M69.8787 8.58896 69.8787 8.58896C68.9828 8.03835 68.1185 7.43468 67.1911 6.93724 66.8802 6.77045 66.4999 6.76265 66.1832 6.60689 65.8221 6.42929 65.5365 6.12381 65.1754 5.9462 64.8587 5.79045 64.4842 5.77161 64.1675 5.61586 63.8064 5.43825 63.5208 5.13277 63.1596 4.95517 62.8429 4.79941 62.4685 4.78058 62.1518 4.62482 60.8305 3.97516 61.5434 3.91055 60.136 3.63379 59.0048 3.41134 56.1595 3.13385 55.0967 2.9731 54.5323 2.88768 53.9743 2.76459 53.4169 2.64276 51.8937 2.30991 51.7323 2.20067 50.0574 1.65172L48.0416 0.991034 47.0338 0.660689C46.6978 0.550609 46.3798 0.34231 46.0259 0.330345L36.2832 0C33.5955 0.11008 30.8969 0.0671094 28.2203 0.330345 27.5155 0.399639 26.2045 0.991034 26.2045 0.991034 24.963 2.82213 26.2429 1.37382 24.5247 2.31241 23.8189 2.698 23.1809 3.19337 22.509 3.63379 22.1731 3.85405 21.8842 4.1689 21.5011 4.29448 21.1652 4.40456 20.81 4.46907 20.4933 4.62482 20.1321 4.80243 19.8544 5.12424 19.4854 5.28551 18.8382 5.56831 18.059 5.55988 17.4697 5.9462 17.1337 6.16647 16.8308 6.44562 16.4618 6.60689 15.8146 6.88969 15.0354 6.88126 14.4461 7.26758 11.5577 9.161 15.2122 6.89094 12.4304 8.25861 9.82535 9.53941 12.9479 8.41936 10.4146 9.24965 10.1906 9.57999 10.0466 9.97921 9.74271 10.2407 9.13503 10.7636 7.72697 11.5621 7.72697 11.5621 7.50297 11.8924 7.34055 12.2724 7.05506 12.5531 6.76958 12.8338 6.29946 12.9037 6.0472 13.2138 5.82594 13.4857 5.88319 13.9004 5.71124 14.2048 5.3191 14.8989 4.81533 15.5262 4.36742 16.1869 4.14342 16.5172 3.82323 16.8013 3.69551 17.1779 2.89588 19.5366 3.41648 18.5806 2.35169 20.151 2.23974 20.5914 2.1426 21.0358 2.01573 21.4724 1.91849 21.8072 1.7657 22.1256 1.67978 22.4634 1.54127 23.0081 1.45577 23.5645 1.34382 24.1152 1.23187 25.877 1.18648 27.6442 1.00787 29.4007 0.961944 29.8524 0.8046 30.2871 0.671911 30.722 0.468433 31.3891 0 32.7041 0 32.7041 0.11195 34.1356 0.154804 35.574 0.335955 36.9986 0.379868 37.3441 0.57869 37.6537 0.671911 37.9896 0.914857 38.8657 1.16267 39.742 1.34382 40.6324 1.45577 41.183 1.52952 41.7424 1.67978 42.2841 1.86611 42.956 2.12768 43.6055 2.35169 44.2662L3.35955 47.2393C3.4715 47.5696 3.40082 48.0372 3.69551 48.2303L4.70338 48.891C4.92474 49.5439 5.11922 50.4074 5.71124 50.8731 5.98773 51.0906 6.38315 51.0933 6.71911 51.2034 7.56349 53.6944 6.32623 50.7205 8.06293 52.8551 9.91751 55.1346 6.51838 52.6134 9.40675 54.5069 9.63076 54.8372 9.76334 55.2498 10.0787 55.4979 10.3552 55.7154 10.8361 55.582 11.0865 55.8282 12.8783 57.59 9.74271 56.2687 12.4304 57.1496 12.6544 57.48 12.7869 57.8926 13.1023 58.1406 13.3788 58.3582 13.7934 58.3152 14.1101 58.471 14.4713 58.6486 14.7469 58.9753 15.118 59.1317 16.3165 59.6367 19.6058 59.743 20.1573 59.7924L24.1888 61.1137 25.1967 61.4441C25.5326 61.5542 25.9098 61.5813 26.2045 61.7744 26.5405 61.9947 26.8513 62.2575 27.2124 62.4351 27.5291 62.5909 27.9106 62.5964 28.2203 62.7655 28.9261 63.1511 29.4324 64.0079 30.236 64.0868L33.5955 64.4172C33.9315 64.5273 34.2493 64.7475 34.6034 64.7475 38.788 64.7475 48.6754 65.7511 54.7607 63.7565L56.7765 63.0958C57.1124 62.9857 57.4897 62.9586 57.7843 62.7655 58.1203 62.5452 58.4232 62.266 58.7922 62.1048 59.4395 61.822 60.2187 61.8304 60.8079 61.4441 63.4129 59.7364 62.0576 60.3738 64.8394 59.462L65.8473 59.1317C66.1832 59.0216 66.5604 58.9944 66.8551 58.8013L68.8709 57.48C70.4387 55.1675 69.5428 55.9383 71.2226 54.8372 72.7904 52.5248 71.8945 53.2956 73.5742 52.1944L74.9181 50.2124C75.1421 49.882 75.254 49.4416 75.59 49.2213L76.5978 48.5606C76.7098 48.2303 76.857 47.9095 76.9338 47.5696 77.2411 46.2098 77.2389 45.2584 77.6057 43.9358 77.792 43.2639 78.0536 42.6144 78.2776 41.9538L78.6136 40.9627C78.7255 40.6324 78.6991 40.218 78.9495 39.9717L79.9574 38.9807 81.3012 35.0165 81.6372 34.0255 81.9731 33.0345C81.9562 32.7179 81.4217 22.3418 81.3012 21.4724 80.7739 17.6705 80.566 21.2858 79.2855 17.5083 79.0123 16.7022 78.9289 16.1666 78.2776 15.5262 77.9921 15.2455 77.6057 15.0858 77.2698 14.8655 76.6785 13.1212 77.2285 14.0676 74.9181 12.5531L73.9102 11.8924 72.9023 11.2317C72.6783 10.9014 72.5343 10.5021 72.2304 10.2407 70.1215 8.42623 70.2707 8.86426 69.8787 8.58896Z" stroke="#000000" stroke-miterlimit="8" fill="#A6A6A6" fill-rule="evenodd" transform="matrix(1.00033 0 -0 1 72.5 72.5)"/><path d="M68.1738 0.512164 68.1738 0.512164 65.4884 1.50592C64.0294 2.02007 63.0175 2.40057 61.4603 2.49968 58.6666 2.67757 55.8657 2.72055 53.0685 2.83094L51.0545 3.49344C48.3457 4.38443 50.4006 3.80289 44.6767 4.15595 44.1172 4.26633 43.5487 4.33905 42.9983 4.4872 42.3155 4.67093 41.6905 5.1061 40.9843 5.14971L35.6135 5.48096C26.0284 6.83226 35.3718 5.6144 11.7807 6.14347 9.09373 6.20377 6.40993 6.36434 3.72455 6.47472 3.38887 6.69559 3.00277 6.85574 2.71753 7.13723 2.43228 7.41871 2.36124 7.88226 2.04618 8.13098 1.76992 8.34914 1.37483 8.35185 1.03916 8.46224 0.927304 8.79349 0.861755 9.14373 0.703486 9.456 0.523016 9.81208 0.0608969 10.0527 0.03214 10.4498-0.114605 12.4777 0.263781 13.6828 0.703486 15.4186 0.815342 16.5227 0.161123 18.0379 1.03916 18.7311 1.66917 19.2285 2.38185 16.7436 2.38185 16.7436 2.49371 17.0748 2.71753 17.3881 2.71753 17.7373 2.71753 18.804 2.1481 18.8849 1.37483 19.3936 1.37822 19.4139 1.69824 21.9456 2.04618 22.3749 2.29822 22.6858 2.71753 22.8165 3.0532 23.0374 3.3488 23.9124 3.8659 25.7339 4.73156 26.0186L7.75262 27.0124C8.0883 27.1228 8.40684 27.3168 8.75964 27.3437L13.1234 27.6749C14.2435 28.0434 15.7747 28.5753 16.8158 28.6687L20.5082 28.9999 47.6977 28.6687C50.3849 28.6182 53.0669 28.4005 55.7539 28.3374L75.8943 28.0062 77.9083 27.3437C78.244 27.2333 78.6209 27.206 78.9153 27.0124 81.8013 25.1138 78.1499 27.3901 80.9294 26.0186 81.2902 25.8406 81.5756 25.5342 81.9364 25.3561 82.2528 25.2 82.6341 25.1944 82.9434 25.0249 83.6487 24.6382 84.9575 23.6999 84.9575 23.6999 85.405 23.0374 86.045 22.4677 86.3001 21.7124L86.9715 19.7248C86.8596 16.7436 86.9095 13.7521 86.6358 10.781 86.5718 10.0855 86.357 9.37451 85.9645 8.79349 85.7407 8.46224 85.457 8.16354 85.2931 7.79973 84.1158 5.1856 85.4263 6.34149 83.6148 5.14971 83.391 4.81845 83.2585 4.40467 82.9434 4.15595 82.6672 3.93779 82.2458 3.99423 81.9364 3.82469 81.2311 3.43804 80.5937 2.94132 79.9224 2.49968L78.9153 1.83718C76.6302-1.54526 78.6474 0.843417 68.1738 0.512164Z" stroke="#000000" stroke-miterlimit="8" fill="#595959" fill-rule="evenodd" transform="matrix(1.00033 0 -0 1 72.5 45.5)"/><path d="M40.9048 0 40.9048 0C38.8527 0.186123 36.9738 0.294212 34.9672 0.658064 34.5212 0.739001 34.1 0.956007 33.6478 0.987096 30.9032 1.17591 28.1499 1.20649 25.4011 1.31613 21.792 2.51608 27.2586 0.60231 23.4219 2.30322 22.7864 2.5849 22.1024 2.7419 21.4427 2.96129L19.4635 3.61935C19.1336 3.729 18.8168 3.89139 18.4739 3.94838 15.6203 4.42281 17.1584 4.19472 13.8558 4.60645 12.114 5.18554 13.1555 4.74314 10.887 6.25161L9.89735 6.90967 8.57789 8.88387C8.35794 9.2129 8.24802 9.65157 7.91815 9.87096L6.92855 10.529C6.81863 10.8581 6.76752 11.2129 6.59869 11.5161 6.21365 12.2075 5.52992 12.74 5.27922 13.4903 5.1693 13.8193 5.1666 14.2066 4.94935 14.4774 4.70167 14.7862 4.28962 14.9161 3.95975 15.1355 3.37919 16.8729 3.82271 15.834 2.31042 18.0968 2.09047 18.4258 1.77609 18.7087 1.65068 19.0839L0.661084 22.0451 0.331217 23.0322C0.0204673 27.682-0.224725 27.8091 0.331217 32.2451 0.374334 32.5893 0.492255 32.929 0.661084 33.2322 1.04612 33.9236 1.54076 34.5484 1.98055 35.2064L2.64028 36.1935C2.86023 36.5226 3.17462 36.8055 3.30002 37.1806 3.40994 37.5097 3.41264 37.8969 3.62988 38.1677 3.87757 38.4765 4.28962 38.6064 4.61949 38.8258 4.88774 39.6286 4.96961 40.1621 5.60909 40.8 5.88939 41.0796 6.26882 41.2386 6.59869 41.458 6.81863 41.7871 6.92221 42.2356 7.25842 42.4451 7.84813 42.8128 8.57789 42.8838 9.23762 43.1032L10.2272 43.4322C14.3972 44.8187 7.73021 42.5059 12.2064 44.4193 12.6231 44.5975 13.0916 44.6184 13.5259 44.7484 14.192 44.9476 14.8454 45.187 15.5051 45.4064L20.4531 47.0516 22.4323 47.7096C22.7622 47.8193 23.0809 47.9707 23.4219 48.0387 24.7302 48.2997 26.5166 48.629 27.7102 49.0258L31.6686 50.3419C31.9984 50.4515 32.3107 50.6581 32.6582 50.6709L41.5646 51C43.2139 50.8903 44.8762 50.9041 46.5126 50.6709 47.2822 50.5613 48.6017 49.9032 49.4814 49.6838 53.6062 48.6552 48.4778 49.9699 51.7904 49.0258 52.2264 48.9015 52.6756 48.8267 53.1099 48.6967 54.1091 48.3978 55.0891 48.0387 56.0787 47.7096 56.4086 47.6 56.779 47.573 57.0683 47.3806L59.0475 46.0645C59.2674 45.7355 59.3976 45.3245 59.7072 45.0774 59.9787 44.8607 60.4509 44.9937 60.6968 44.7484 61.2575 44.1892 61.5765 43.4322 62.0163 42.7742 62.2362 42.4451 62.5506 42.1622 62.676 41.7871 62.786 41.458 62.8371 41.1032 63.0059 40.8 63.3909 40.1086 64.0747 39.5761 64.3254 38.8258L65.6448 34.8774 65.9747 33.8903 66.3046 32.9032C66.4145 29.9419 66.4741 26.9783 66.6344 24.0193 66.8229 20.5423 67.303 21.1023 66.6344 17.7677 66.498 17.0875 66.1946 16.4516 65.9747 15.7935 65.8648 15.4645 65.8377 15.0951 65.6448 14.8064 65.4249 14.4774 65.1461 14.1807 64.9851 13.8193 64.7027 13.1854 64.7111 12.4223 64.3254 11.8452 64.1054 11.5161 63.8267 11.2194 63.6656 10.8581 63.3833 10.2241 63.3917 9.46099 63.0059 8.88387 62.786 8.55483 62.5072 8.25813 62.3462 7.89677 61.1892 5.30016 62.4771 6.4483 60.6968 5.26451 60.5869 4.93548 60.6129 4.52271 60.367 4.27742 59.8063 3.71822 58.3878 2.96129 58.3878 2.96129 58.1678 2.63226 58.0083 2.25379 57.728 1.97419 57.4477 1.69459 57.093 1.49303 56.7384 1.31613 55.2389 0.568319 51.8604 0.710087 51.1307 0.658064 50.5809 0.548421 50.0397 0.379708 49.4814 0.329032 45.6397-0.0192756 42.3342 0.0548214 40.9048 0Z" stroke="#000000" stroke-miterlimit="8" fill="#D9D9D9" fill-rule="evenodd" transform="matrix(1.00033 0 -0 1 168.5 32.5)"/><path d="M29.8672 0.334109 29.8672 0.334109C28.5696 0.624443 26.009 1.27803 24.5575 1.33644 19.8034 1.52785 15.0442 1.55921 10.2876 1.67055 6.60549 2.08242 8.25119 1.6857 5.30973 2.67287 4.97787 2.78421 4.60525 2.81168 4.31415 3.00698L2.32301 4.34342 1.32743 5.01164C1.10616 5.34575 0.688592 5.61325 0.663716 6.01397 0.474949 9.05494 0.672287 9.38084 1.32743 11.3597L2.32301 11.0256C2.10173 11.3597 1.97077 11.7771 1.65929 12.0279 1.38617 12.248 0.700299 12.0118 0.663716 12.362 0.242178 16.3936 0.500452 16.8807 1.32743 19.3783 1.05306 26.2841 1.0008 28.1295 0.663716 34.7474 0.561598 36.7525 0.408473 38.7551 0.331858 40.7613 0.187199 44.5467 0.110585 48.3345 0 52.1211 0.110585 56.7986 0.125531 61.4794 0.331858 66.1537 0.347432 66.5054 0.56766 66.8174 0.663716 67.156 1.66682 70.6906 0.08205 65.7332 1.65929 70.4971L1.99115 71.4994 2.32301 72.5017C2.21242 74.7292 2.21159 76.9648 1.99115 79.1839 1.86562 80.4477 1.34729 82.445 0.995574 83.8615 1.16354 87.7514 0.953138 91.2295 1.99115 94.8871 2.54721 96.8466 2.01707 94.9394 2.98672 96.8917 3.14319 97.2067 3.16211 97.5791 3.31858 97.8941 3.497 98.2532 3.82029 98.5294 3.9823 98.8964 4.26639 99.5401 4.64601 100.901 4.64601 100.901 4.7566 104.353 4.70057 107.815 4.97787 111.258 5.21963 114.261 6.02215 112.408 6.96902 115.268L7.96459 118.275C8.07518 118.609 8.00536 119.082 8.29645 119.277L9.29203 119.945C10.4108 121.635 9.34836 120.475 10.9513 121.282 11.3081 121.461 11.5824 121.787 11.9469 121.95 14.5337 123.107 15.9942 122.765 19.2478 122.952 27.4438 123.424 23.0465 123.034 28.8717 123.62 30.9235 124.137 30.9794 124.224 33.8495 124.289L59.7345 124.623C63.9046 125.089 63.0167 125.161 68.3628 124.623 69.534 124.505 69.2984 124.093 70.3539 123.62 70.9933 123.334 71.763 123.343 72.3451 122.952 72.6769 122.729 72.9762 122.447 73.3406 122.284 73.98 121.998 74.6681 121.839 75.3318 121.616 75.6636 121.504 76.0363 121.477 76.3274 121.282L77.3229 120.613C77.7654 119.945 78.3982 119.371 78.6504 118.609 78.7609 118.275 78.8258 117.921 78.9822 117.607 79.1606 117.247 79.4839 116.971 79.6459 116.604 79.93 115.96 80.0884 115.268 80.3097 114.6 80.8543 112.955 80.584 113.945 80.9734 111.593 80.8075 110.591 80.5621 108.466 79.9778 107.583L77.3229 103.574C77.1017 103.24 76.7854 102.953 76.6592 102.572 74.9469 97.3998 76.9094 102.741 75.3318 99.5646 75.1753 99.2496 75.1564 98.8772 74.9999 98.5623 74.8215 98.2031 74.5146 97.9191 74.3362 97.5599 74.1797 97.245 74.1608 96.8726 74.0044 96.5576 73.8259 96.1985 73.5191 95.9144 73.3406 95.5553 73.1842 95.2403 73.1652 94.8679 73.0088 94.553 72.8304 94.1938 72.5071 93.9176 72.3451 93.5506 71.8193 92.3596 71.9189 91.451 71.0176 90.5436 70.7356 90.2597 70.3539 90.0982 70.0221 89.8754 69.9115 89.5413 69.86 89.181 69.6902 88.8731 69.3028 88.1711 68.615 87.6303 68.3628 86.8684L67.3672 83.8615C67.2566 83.5273 67.2293 83.1522 67.0353 82.8591 66.8141 82.525 66.55 82.216 66.3716 81.8568 64.9977 79.0903 67.2781 82.7246 65.376 79.8521 64.9982 67.6794 64.8404 69.0097 65.376 55.7963 65.4169 54.7886 65.5973 53.7916 65.7079 52.7893 65.5973 46.1071 65.5834 39.4226 65.376 32.7427 65.3618 32.2838 65.0562 31.8653 65.0442 31.4063 64.8346 23.3897 65.2219 15.3534 64.7123 7.35041 64.6613 6.54896 64.0486 5.79119 63.3849 5.34575L61.3937 4.00931C61.1725 3.6752 61.0302 3.27143 60.73 3.00698 59.4323 1.86375 58.3769 1.41241 56.7477 1.00233 56.3053 0.890993 55.8743 0.711785 55.4203 0.668219 53.545 0.488378 51.6574 0.474172 49.7787 0.334109 48.67 0.251398 47.5716 0.0224143 46.4601 0L29.8672 0.334109Z" stroke="#000000" stroke-miterlimit="8" fill="#595959" fill-rule="evenodd" transform="matrix(1.00033 0 -0 1 163.5 83.5)"/><path d="M51.691 0 51.691 0 36.9222 0.334928C36.0208 0.369529 35.139 0.669856 34.2369 0.669856 32.4433 0.669856 30.6566 0.446536 28.8664 0.334928 28.5308 0.223321 28.2133 0 27.8595 0 27.289 0 26.7315 0.185134 26.1812 0.334928L23.1603 1.33971 22.1533 1.67464C21.8176 1.78625 21.4896 1.92391 21.1463 2.00957 19.1172 2.51571 20.2414 2.19892 17.7898 3.01435L15.7758 3.68421C15.4402 3.79582 15.1191 3.96924 14.7689 4.01914 11.9626 4.41915 13.1868 4.1626 11.0767 4.689 10.741 4.91232 10.3354 5.05589 10.0697 5.35885 9.53834 5.96468 9.39837 6.92189 8.72706 7.36842L6.71312 8.70813 5.3705 10.7177C5.14669 11.0526 4.82679 11.3406 4.69918 11.7225L3.35656 15.7416C3.24471 16.0766 3.21712 16.4526 3.0209 16.7464L2.34959 17.7512C1.52478 21.0432 2.41535 17.1609 1.67828 23.7799 1.57341 24.7213 1.24568 25.2512 1.00697 26.1244-0.128765 30.2795 0.77259 27.4959 0 29.8086 0.11185 32.2647 0.0731572 34.7323 0.335656 37.177 0.411033 37.8791 0.783162 38.5167 1.00697 39.1866 1.11882 39.5215 1.14641 39.8976 1.34262 40.1914 1.56643 40.5263 1.83347 40.8361 2.01394 41.1962 2.1722 41.5119 2.1778 41.8923 2.34959 42.201 2.74138 42.9047 3.24471 43.5407 3.69222 44.2105L4.36353 45.2153C4.58733 45.5502 4.90724 45.8382 5.03484 46.2201 5.6256 47.9886 5.17428 46.9311 6.71312 49.2344 6.93693 49.5694 7.00173 50.1119 7.38443 50.2392L8.3914 50.5742C8.61521 50.9091 8.75909 51.3139 9.06271 51.5789 9.66986 52.1091 10.4053 52.4721 11.0767 52.9187 11.4123 53.142 11.7984 53.3039 12.0836 53.5885 12.4193 53.9234 12.7159 54.3025 13.0906 54.5933 13.7274 55.0875 15.1045 55.933 15.1045 55.933 16.8947 58.6124 14.5451 55.3748 16.7828 57.6077 18.1254 58.9474 16.671 58.3891 18.4611 59.2823 18.7775 59.4402 19.1587 59.4458 19.4681 59.6172 20.1733 60.0082 20.8107 60.5104 21.482 60.9569 21.8176 61.1803 22.1063 61.4995 22.489 61.6268 23.1603 61.8501 23.9141 61.905 24.5029 62.2966 24.8385 62.52 25.1412 62.803 25.5099 62.9665 26.1565 63.2532 26.8525 63.413 27.5238 63.6364L28.5308 63.9713 29.5377 64.3062 30.5447 64.6412C30.7685 64.9761 30.9308 65.3613 31.216 65.6459 32.0139 66.4421 33.2399 66.654 34.2369 66.9856L36.2509 67.6555C36.5865 67.7671 36.9146 67.9048 37.2578 67.9904 37.7053 68.102 38.1403 68.2925 38.6004 68.3254 41.2812 68.5164 43.9709 68.5487 46.6562 68.6603 47.1037 68.7719 47.545 68.9128 47.9988 68.9952 50.0828 69.3733 50.1713 69.2023 52.0267 69.6651 52.37 69.7507 52.698 69.8884 53.0337 70 54.1525 69.8884 55.285 69.8718 56.3902 69.6651 57.0857 69.5349 57.7328 69.2185 58.4042 68.9952 58.7398 68.8836 59.0621 68.7183 59.4111 68.6603 60.0824 68.5487 60.7607 68.4727 61.4251 68.3254 61.7704 68.2488 62.0918 68.0874 62.432 67.9904 62.8756 67.864 63.3271 67.7671 63.7747 67.6555 65.3704 66.594 64.3989 67.113 66.7956 66.3158L67.8025 65.9809C68.1382 65.8693 68.4566 65.671 68.8095 65.6459L73.5087 65.311C75.5378 64.8049 74.4136 65.1217 76.8652 64.3062 77.2009 64.1946 77.5778 64.1671 77.8722 63.9713L78.8792 63.3014C79.103 62.9665 79.2355 62.5481 79.5505 62.2966 79.8267 62.0761 80.3072 62.2114 80.5575 61.9617 80.8077 61.712 80.6429 61.2066 80.8931 60.9569 81.4636 60.3877 82.9071 59.6172 82.9071 59.6172 83.6629 57.3545 82.6146 59.8071 84.2497 57.9426 84.781 57.3368 85.3372 56.6968 85.5923 55.933 85.7041 55.5981 85.7069 55.2039 85.928 54.9282 86.18 54.6139 86.5993 54.4817 86.9349 54.2584 87.0468 53.9234 87.0744 53.5474 87.2706 53.2536 88.429 51.5197 88.7264 52.9146 89.6202 50.2392L90.2915 48.2297C90.463 46.3474 90.5483 44.397 90.9628 42.5359 91.0396 42.1912 91.2013 41.8706 91.2984 41.5311 92.1413 38.5872 91.1649 41.5958 91.9698 39.1866 91.8579 37.9585 91.7974 36.7247 91.6341 35.5024 91.5029 34.5208 91.2217 34.062 90.9628 33.1579 90.836 32.7153 90.7539 32.2608 90.6271 31.8182 90.53 31.4787 90.3886 31.1529 90.2915 30.8134 89.9755 29.7098 89.8509 28.9501 89.6202 27.799 89.5083 26.0128 89.463 24.2211 89.2845 22.4402 89.2386 21.9822 89.0814 21.5414 88.9489 21.1005 88.7456 20.4242 88.6701 19.6784 88.2775 19.0909L86.9349 17.0813C86.7111 16.7464 86.5488 16.3612 86.2636 16.0766L85.2566 15.0718C85.1448 14.7368 85.1382 14.3457 84.921 14.067 84.3382 13.3192 83.5784 12.7273 82.9071 12.0574 82.5714 11.7225 82.1634 11.4467 81.9001 11.0526 81.6763 10.7177 81.514 10.3325 81.2288 10.0478 80.2668 9.088 80.3068 9.58791 79.2148 9.04306 78.854 8.86299 78.5765 8.53671 78.2079 8.37321L75.187 7.36842 73.173 6.69856C72.8374 6.58696 72.5093 6.44929 72.1661 6.36364 71.7186 6.25203 71.2611 6.17428 70.8234 6.02871 70.2518 5.83862 69.7114 5.56434 69.1451 5.35885 68.4802 5.1176 67.8025 4.91232 67.1312 4.689 66.7956 4.57739 66.4187 4.54985 66.1242 4.35407 65.7886 4.13075 65.488 3.84276 65.1173 3.68421 64.6932 3.50287 64.2166 3.48157 63.7747 3.34928L60.7537 2.3445 59.7468 2.00957C59.4111 1.89796 59.0342 1.87043 58.7398 1.67464 57.1441 0.613103 58.1155 1.13211 55.7189 0.334928 55.3833 0.223321 55.0658 0 54.7119 0L51.691 0Z" stroke="#000000" stroke-miterlimit="8" fill="#A6A6A6" fill-rule="evenodd" transform="matrix(1.00033 0 -0 1 73.5 136.5)"/><path d="M35.9336 0.971831 35.9336 0.971831C34.9261 0.755835 33.9431 0.323944 32.9111 0.323944 32.2032 0.323944 30.8962 0.971831 30.8962 0.971831 27.607 0.795524 25.8895 0.97928 23.1721 0.323944 22.8287 0.241096 22.5005 0.107947 22.1647 0 21.2691 0.107947 20.366 0.168247 19.4781 0.323944 19.1297 0.38506 18.8239 0.626563 18.4706 0.647888 15.2287 0.843376 11.978 0.863884 8.7316 0.971831 8.39577 1.07978 8.0005 1.08243 7.72412 1.29578 7.40892 1.53901 7.40289 2.07446 7.05247 2.26761 6.55692 2.54074 5.93308 2.4836 5.37333 2.59155 3.0638 4.07669 4.12416 3.64113 2.35089 4.21127 0.42605 6.99637 2.73379 3.47258 1.34341 6.15493 1.16286 6.50316 0.852312 6.77854 0.671759 7.12676 0.430916 7.59151 0.107676 8.97921 0.000105772 9.39437 0.0308855 9.86983-0.167014 13.9311 0.671759 15.5493 0.852312 15.8975 1.16286 16.1729 1.34341 16.5211 1.65946 17.1309 1.65089 18.0428 2.35089 18.4648 3.40692 19.1015 5.21097 19.2109 6.38081 19.4366 6.83341 19.524 7.28199 19.6326 7.72412 19.7606 8.40223 19.9568 9.03157 20.3832 9.73908 20.4085L18.8064 20.7324C23.6906 22.3028 20.1139 21.355 29.8887 21.7042L31.9036 22.3521C32.2395 22.4601 32.5677 22.5932 32.9111 22.6761L34.2544 23C35.5977 22.8921 36.9438 22.8122 38.2843 22.6761 39.0715 22.5962 39.9118 22.6622 40.6351 22.3521 41.004 22.194 41.0829 21.7042 41.3068 21.3803 40.9229 19.159 40.7951 19.7143 41.3068 17.493 41.3836 17.1596 41.4214 16.7877 41.6426 16.5211 41.8948 16.2171 42.3143 16.0892 42.6501 15.8732 42.762 15.5493 42.9859 15.2429 42.9859 14.9014 42.9859 13.0625 42.8967 11.2177 42.6501 9.39437 42.5585 8.7172 42.1501 8.11329 41.9784 7.45071 41.8889 7.10513 41.0206 3.47319 40.6351 2.91549 40.4112 2.59155 40.2787 2.1869 39.9635 1.94366 39.4995 1.58554 36.6052 1.13385 35.9336 0.971831Z" stroke="#000000" stroke-miterlimit="8" fill="#D9D9D9" fill-rule="evenodd" transform="matrix(1.00033 0 -0 1 43.5 182.5)"/></g></svg>