<svg width="301" height="250" xmlns="http://www.w3.org/2000/svg" xmlns:xlink="http://www.w3.org/1999/xlink" overflow="hidden"><defs><clipPath id="clip0"><path d="M0 0 301 0 301 250 0 250Z" fill-rule="evenodd" clip-rule="evenodd"/></clipPath></defs><g clip-path="url(#clip0)"><rect x="0" y="0" width="300.901" height="250" fill="#D3D3C3" transform="scale(1.00033 1)"/><path d="M52.6493 2.00917 52.6493 2.00917C51.8719 2.56731 51.1581 3.22828 50.3168 3.68348 49.6983 4.01813 48.9839 4.12993 48.3174 4.35321 47.9842 4.46479 47.6101 4.49232 47.3178 4.68807L46.3181 5.35779C46.0959 5.69265 45.9348 6.07782 45.6516 6.36238 45.0675 6.94941 44.4111 7.14907 43.6523 7.36696 42.0812 7.81805 41.8746 7.76563 39.9868 8.03669 36.341 9.25791 41.8633 7.31022 37.9875 9.04127 36.7582 9.59034 34.5327 10.0767 33.3224 10.3807 32.8781 10.4923 32.424 10.57 31.9895 10.7156 31.323 10.9389 30.6912 11.3412 29.9901 11.3853L24.6586 11.7202C23.9921 11.9434 23.156 11.8907 22.6592 12.3899 21.4111 13.6441 22.1066 13.2447 20.6599 13.7293 19.5365 15.4228 20.6033 14.2601 18.9937 15.0688 18.6355 15.2488 18.36 15.575 17.9941 15.7385 17.3521 16.0252 15.9947 16.4082 15.9947 16.4082 15.7726 16.7431 15.641 17.1614 15.3283 17.4128 15.054 17.6334 14.6427 17.5898 14.3286 17.7477 13.9704 17.9277 13.6622 18.1941 13.3289 18.4174 13.1094 19.0792 12.9165 19.9545 12.3293 20.4266 12.055 20.6471 11.6628 20.6499 11.3296 20.7614 11.1074 21.0963 10.9463 21.4815 10.6632 21.766 10.38 22.0506 9.92723 22.1328 9.66349 22.4358 6.94218 25.5611 9.58015 23.6078 7.33092 25.1146L5.99803 27.1238C5.77584 27.4587 5.45826 27.7466 5.33158 28.1284L3.99868 32.1467C3.88764 32.4816 3.86025 32.8576 3.66546 33.1513 1.75554 36.0303 4.04539 32.3877 2.66579 35.1605 2.48664 35.5205 2.1785 35.8051 1.99934 36.1651 1.71933 36.7278 1.49305 37.9727 1.33289 38.5091 1.13107 39.1853 0.888631 39.8486 0.666447 40.5183L0.333224 41.5229 0 42.5275C0.11104 44.2018 0.0970809 45.8893 0.333224 47.5504 0.432614 48.2492 0.777487 48.8898 0.999671 49.5596L1.33289 50.5642C1.44393 50.899 1.47133 51.275 1.66612 51.5687L2.33257 52.5733C2.44361 53.1315 2.51676 53.6986 2.66579 54.2476 2.85061 54.9287 3.11005 55.5871 3.33224 56.2568L4.99836 61.2797C5.2918 62.1643 5.80512 64.0057 6.66447 64.2935L9.66349 65.2981C9.99671 65.4097 10.3709 65.4372 10.6632 65.6329 11.6505 66.2944 12.3298 66.8767 13.6622 66.9724L18.3273 67.3073C21.4233 68.0851 17.5744 67.1559 21.6595 67.977 22.9185 68.23 23.7167 68.5544 24.9918 68.9816 25.325 69.0931 25.6992 69.1207 25.9914 69.3164 26.3247 69.5397 26.6251 69.8227 26.9911 69.9861 28.4165 70.6227 28.9663 70.6011 30.3234 70.9907 30.6611 71.0877 30.9853 71.2287 31.323 71.3256 31.7634 71.4521 32.2172 71.5282 32.6559 71.6605 33.3288 71.8633 33.9888 72.1069 34.6553 72.3302 34.9885 72.4418 35.3045 72.6415 35.6549 72.665L40.6533 72.9999C43.6523 72.8883 46.6548 72.8475 49.6503 72.665 50.3247 72.624 50.9901 72.4775 51.6497 72.3302 51.9925 72.2536 52.2994 72.0259 52.6493 71.9953 54.8652 71.8017 57.0923 71.772 59.3138 71.6605L62.3128 70.6559 63.3125 70.321C63.5347 69.9861 63.6958 69.601 63.9789 69.3164 64.2621 69.0319 64.7149 68.9496 64.9786 68.6467 67.6999 65.5214 65.0619 67.4747 67.3112 65.9678 67.5334 65.6329 67.7212 65.2723 67.9776 64.9632 68.2794 64.5995 68.7034 64.344 68.9773 63.9586 69.266 63.5525 69.355 63.0253 69.6438 62.6192 69.9177 62.2338 70.3695 62 70.6434 61.6146 70.9321 61.2084 71.0543 60.7032 71.3099 60.2752L73.3092 57.2614 74.6421 55.2522C74.8643 54.9174 75.1819 54.6294 75.3085 54.2476 75.4196 53.9128 75.4223 53.5186 75.6418 53.243 75.892 52.9288 76.3082 52.7966 76.6414 52.5733 76.9124 51.7563 76.9951 51.2133 77.6411 50.5642 77.9243 50.2796 78.3076 50.1177 78.6408 49.8944 79.856 46.2307 77.9179 51.7801 79.6405 47.8853 80.3655 46.246 80.1927 46.0351 80.6401 44.5366 80.842 43.8605 81.1362 43.2124 81.3066 42.5275 81.725 40.8456 81.495 41.6247 81.973 40.1834 81.862 37.8394 81.819 35.4911 81.6398 33.1513 81.5963 32.5838 81.4295 32.0326 81.3066 31.477 80.9708 29.9588 80.8606 29.7979 80.3069 28.1284 79.3535 25.2542 80.8134 29.8293 79.6405 25.1146 79.4701 24.4297 78.974 23.1055 78.974 23.1055 78.863 22.2125 78.7769 21.316 78.6408 20.4266 78.5546 19.864 78.3589 19.3191 78.3076 18.7523 78.1363 16.8592 78.1625 14.951 77.9743 13.0596 77.9394 12.7084 77.7376 12.3944 77.6411 12.055 77.5153 11.6125 77.4337 11.1581 77.3079 10.7156 77.2114 10.3762 77.0711 10.0504 76.9747 9.711 76.8488 9.26845 76.773 8.81241 76.6414 8.37155 76.3089 7.25728 75.6953 5.05879 74.6421 4.35321L73.6424 3.68348C73.4202 3.34862 73.2591 2.96345 72.976 2.6789 72.1839 1.88293 70.9668 1.67104 69.977 1.33945L68.9773 1.00459C68.6441 0.893 68.3271 0.704845 67.9776 0.669724 63.8639 0.256288 65.7504 0.493486 62.3128 0 60.3471 0.164636 58.9572-0.0377577 57.3145 0.669724 56.8579 0.866317 56.4128 1.09181 55.9816 1.33945 55.6339 1.5391 53.2046 1.89759 52.6493 2.00917Z" stroke="#000000" stroke-miterlimit="8" fill="#A6A6A6" fill-rule="evenodd" transform="matrix(1.00033 0 -0 1 12.5 118.5)"/><path d="M35.184 0 35.184 0C33.0618 0.111076 30.9345 0.150236 28.8174 0.333333 28.3586 0.373018 27.9199 0.540787 27.477 0.666666 27.1374 0.763149 26.8235 0.968188 26.4718 0.999999 24.3554 1.19139 22.2273 1.22226 20.1051 1.33333 19.6584 1.44441 19.206 1.53501 18.7648 1.66667 18.0882 1.86856 17.46 2.30142 16.7543 2.33333L9.3824 2.66666C9.04731 2.77774 8.69302 2.84283 8.37714 3 5.77888 4.29239 8.89333 3.1622 6.36663 4 6.0174 5.0421 5.67883 6.34509 4.6912 7L3.68594 7.66666 3.01577 9.66666C2.90411 9.99999 2.76638 10.3258 2.68069 10.6667L2.3456 12C2.06666 21.9909 2.56407 20.5874 1.67543 26.3333 1.41781 27.9994 1.1586 29.7137 0.670171 31.3333 0.46722 32.0064 0 33.3333 0 33.3333 0.11166 37.1111 0.130024 40.8928 0.335086 44.6666 0.362526 45.1715 0.970218 46.372 1.34034 46.6666 1.61612 46.8862 2.01051 46.8889 2.3456 47 2.56903 47.3333 2.71266 47.7361 3.01577 48 4.61468 49.3918 5.13868 49.3706 7.0368 50L8.04206 50.3333C8.37714 50.4444 8.69766 50.617 9.04731 50.6666L11.3929 51C15.5256 50.8889 19.6618 50.8671 23.7911 50.6666 24.3843 50.6379 26.8918 49.7496 27.1419 49.6666L31.163 48.3333 32.1682 48C32.5033 47.8889 32.8213 47.6936 33.1735 47.6666 38.538 47.2561 36.0821 47.4933 40.5454 47L45.5717 45.3333 47.5822 44.6666C47.9173 44.5556 48.2369 44.3769 48.5874 44.3333L51.2681 44C51.6032 43.8889 51.9575 43.8238 52.2734 43.6666 53.368 43.1222 54.2169 42.2 54.619 41L55.2891 39 55.6242 38C55.7359 36.3333 55.7218 34.6535 55.9593 33 56.0593 32.3043 56.4582 31.6818 56.6295 31 56.7411 30.5556 56.838 30.1072 56.9646 29.6666 57.0616 29.3288 57.223 29.0096 57.2997 28.6666 57.6577 27.0637 57.7162 25.6398 57.9698 24 58.14 22.8997 58.3732 22.0617 58.64 21 58.876 18.8873 58.7981 18.3648 59.3102 16.6667 59.5131 15.9936 59.9803 14.6667 59.9803 14.6667 59.8687 13.8889 59.8002 13.1037 59.6453 12.3333 59.576 11.9888 59.5308 11.6077 59.3102 11.3333 59.0586 11.0205 58.64 10.8889 58.3049 10.6667 57.7152 8.90656 58.1657 9.95905 56.6295 7.66666L55.9593 6.66666C55.7359 6.33333 55.6712 5.79338 55.2891 5.66666L54.2839 5.33333C54.0605 5 53.9282 4.58362 53.6137 4.33333 53.3379 4.1138 52.9243 4.15716 52.6085 4 49.4223 2.41533 54.7796 4.38656 49.5927 2.66666L46.5769 1.66667C46.2418 1.55559 45.918 1.4022 45.5717 1.33333 45.0131 1.22226 44.4487 1.13743 43.8962 0.999999 43.151 0.814698 42.3249 0.369974 41.5506 0.333333L35.184 0Z" stroke="#000000" stroke-miterlimit="8" fill="#D9D9D9" fill-rule="evenodd" transform="matrix(1.00033 0 -0 1 106.5 72.5)"/><path d="M24.3254 0 24.3254 0C19.3049 0.238129 18.7105 0.0470404 14.9951 0.663793 14.4364 0.756515 13.8784 0.858854 13.329 0.99569 12.9882 1.08057 12.6364 1.15772 12.3293 1.32759 11.6292 1.71499 11.0898 2.40293 10.33 2.65517L9.33028 2.98707C7.43526 4.87454 8.9619 3.05711 7.99738 4.97845 6.90325 7.15788 7.52415 4.54045 6.66449 7.96552L5.99804 10.6207C5.887 12.5015 5.90946 14.3948 5.66481 16.2629L4.66514 19.25C4.5541 19.5819 4.52671 19.9546 4.33192 20.2457 3.47068 21.5325 3.79215 20.863 3.33224 22.2371 3.2212 24.0071 3.14102 25.7795 2.99902 27.5474 2.76403 30.4727 2.93605 29.7271 2.33257 31.5302 2.82837 36.4687 2.86478 35.1922 2.33257 41.819 2.29605 42.2737 2.13096 42.7096 1.99935 43.1465 0.782421 47.1867 1.76772 43.4056 0.999673 46.4655 0.855363 49.3401 0.964514 52.2655 0.333224 55.0948 0.257029 55.4363 0.11104 55.7586 0 56.0905 0.11104 58.4138 0.147039 60.7419 0.333224 63.0603 0.386225 63.7204 1.21283 66.0204 1.3329 66.3793L1.99935 68.3707C2.11039 68.7026 2.04028 69.1724 2.33257 69.3664L3.33224 70.0302C3.55443 70.3621 3.68593 70.7766 3.99869 71.0258 4.27293 71.2444 4.68424 71.2013 4.99836 71.3577 5.35657 71.5362 5.63983 71.8431 5.99804 72.0215 6.31216 72.178 6.68359 72.197 6.99771 72.3534 7.92633 72.8159 7.93609 73.2379 8.99706 73.3491 10.7679 73.5348 12.5515 73.5704 14.3286 73.681 17.3566 74.1119 15.9161 73.7655 18.6606 74.6767L19.6602 75.0086C19.9935 75.1192 20.3191 75.2556 20.6599 75.3405 21.1042 75.4511 21.5354 75.6501 21.9928 75.6724 26.0992 75.872 30.2124 75.8937 34.3221 76.0043 34.8775 76.1149 35.4418 76.1878 35.9882 76.3362 36.666 76.5203 37.9876 77 37.9876 77 39.2094 76.8894 40.4448 76.8804 41.653 76.6681 42.3449 76.5465 42.9859 76.2256 43.6524 76.0043L44.6521 75.6724C44.9853 75.5618 45.3109 75.4254 45.6517 75.3405 46.096 75.2299 46.5375 75.1076 46.9846 75.0086 47.5375 74.8862 48.1044 74.8251 48.6507 74.6767 49.3285 74.4926 50.6501 74.0129 50.6501 74.0129 53.8687 69.2042 51.0196 73.845 51.6498 59.4095 51.7019 58.2156 52.021 57.7837 52.3162 56.7543 52.8055 55.0487 52.7122 54.9264 52.9827 52.7715 52.8716 50.0058 52.8407 47.2356 52.6494 44.4741 52.618 44.0191 52.4478 43.5835 52.3162 43.1465 52.0134 42.1412 51.6498 41.1552 51.3165 40.1595L49.3172 34.1853 48.6507 32.194C48.5397 31.8621 48.5123 31.4894 48.3175 31.1983L46.9846 29.2069C46.7624 28.875 46.6514 28.4325 46.3182 28.2112L45.3185 27.5474C43.4086 24.6939 45.6984 28.3042 44.3188 25.556 44.1397 25.1993 43.8151 24.9249 43.6524 24.5603 43.3671 23.9209 43.3756 23.1511 42.9859 22.569 41.076 19.7155 43.3659 23.3258 41.9863 20.5776 41.1372 18.8862 41.0833 20.1593 40.6534 17.5905 40.5423 16.9267 40.4617 16.2572 40.3201 15.5991 40.1282 14.707 39.8334 13.8386 39.6537 12.944 39.5427 12.3908 39.4695 11.8287 39.3205 11.2845 39.1356 10.6094 38.8762 9.95689 38.654 9.2931 38.543 8.96121 38.3896 8.64049 38.3208 8.29741 38.2098 7.74422 38.1366 7.18214 37.9876 6.63793 37.8027 5.96285 37.9876 4.86785 37.3211 4.64655L36.3214 4.31465C36.2104 3.98276 36.1453 3.63184 35.9882 3.31897 35.8091 2.96219 35.6345 2.57249 35.3218 2.32328 35.0475 2.10469 34.6685 2.04887 34.3221 1.99138 33.33 1.82663 32.3228 1.77008 31.3231 1.65948 27.427 0.365975 25.4917 0.276598 24.3254 0Z" stroke="#000000" stroke-miterlimit="8" fill="#595959" fill-rule="evenodd" transform="matrix(1.00033 0 -0 1 200.5 56.5)"/><path d="M77.2429 1.67526 77.2429 1.67526C77.1315 2.68041 77.3599 3.78614 76.9085 4.69073 76.7288 5.05089 76.4195 4.04574 76.2398 3.68557 76.0821 3.36972 76.063 2.99626 75.9054 2.68041 75.4847 1.83756 75.2287 1.40257 74.2335 1.34021 71.0055 1.13802 67.7687 1.1168 64.5363 1.00516 54.3368-0.454826 61.4309 0.366605 43.1357 0 38.2313 0.111649 33.3183 0.0219499 28.4227 0.335052 28.0217 0.360695 27.7868 0.841587 27.4196 1.00516 26.7753 1.29198 26.1167 1.6283 25.4133 1.67526L16.0505 2.34536C14.6947 2.57183 13.9537 2.64063 12.7066 3.01547 12.0314 3.2184 11.2868 3.29374 10.7003 3.68557L9.69716 4.35567C8.13667 6.70104 9.02839 5.91928 7.35647 7.03609 6.91066 7.70619 6.27306 8.28238 6.01893 9.0464L5.35016 11.0567C5.23873 11.3918 5.21124 11.768 5.01577 12.0619L4.347 13.067C4.23558 13.5137 4.11236 13.9577 4.01262 14.4072 3.88929 14.9631 3.82779 15.5331 3.67823 16.0825 3.49277 16.764 3.23242 17.4227 3.00946 18.0928L2.67508 19.098 2.00631 21.1083 1.67192 22.1134C0.991359 26.8866 1.622 22.0429 1.00315 29.4846 0.94681 30.1617 0.458028 34.375 0.334385 35.1804 0.247919 35.7433 0.111427 36.2972 0 36.8557 0.111427 41.5464 0.150921 46.2395 0.334385 50.9279 0.374827 51.9605 0.609265 54.8591 1.33754 55.9537 2.56365 57.7965 1.33754 56.2329 3.00946 57.6289 6.15247 60.2533 0.948073 56.587 6.01893 59.9743 6.35331 60.1977 6.64083 60.517 7.02208 60.6444 7.69085 60.8678 8.33709 61.1759 9.02839 61.3145 10.143 61.5379 11.2939 61.6244 12.3722 61.9846 12.7066 62.0962 13.0297 62.2504 13.3754 62.3196 14.1482 62.4746 14.9433 62.4998 15.7161 62.6547 17.8155 63.0754 18.4853 63.3562 20.3975 63.9949L21.4006 64.3299C21.735 64.4416 22.0526 64.6357 22.4038 64.665L26.4164 65.0001C32.9927 64.8884 39.575 64.9688 46.1451 64.665 46.8493 64.6324 47.4827 64.2183 48.1514 63.9949 48.8202 63.7715 49.4738 63.4961 50.1577 63.3248 50.6036 63.2131 51.0369 63.0237 51.4953 62.9897 54.0543 62.7998 56.6225 62.7663 59.1861 62.6547L61.1924 61.9846C61.5268 61.8729 61.8444 61.6789 62.1956 61.6495L66.2082 61.3145C66.5426 61.2028 66.8725 61.0764 67.2114 60.9794 71.6235 59.7163 74.1329 60.4845 80.2524 60.3093 81.4785 60.1977 82.7119 60.1487 83.9306 59.9743 84.2795 59.9244 84.5949 59.7362 84.9338 59.6392 85.3757 59.5127 85.8255 59.4158 86.2713 59.3042 87.861 58.2422 86.8932 58.7614 89.2808 57.964L90.2839 57.6289C90.6183 57.5173 90.9938 57.4897 91.2871 57.2939L92.2902 56.6238C92.5132 56.2887 92.6749 55.9033 92.959 55.6186 93.2432 55.3339 93.7492 55.29 93.9622 54.9485 94.3358 54.3495 94.408 53.6083 94.6309 52.9382L94.9653 51.933C95.1734 50.0566 95.2082 48.9491 95.6341 47.2423 95.7196 46.8997 95.8571 46.5722 95.9685 46.2372 95.8571 44.4502 95.8755 42.6504 95.6341 40.8763 95.5389 40.1765 95.1883 39.5361 94.9653 38.866L93.6278 34.8454 92.2902 30.8248 91.9559 29.8196 91.6215 28.8145C91.51 27.8093 91.3645 26.8073 91.2871 25.799 91.1415 23.9026 91.1982 21.989 90.9527 20.1031 90.8615 19.4027 90.5069 18.7629 90.2839 18.0928L89.2808 15.0773 87.6089 10.0516 87.2745 9.0464 86.9401 8.04124C86.8287 6.70104 87.0004 5.30595 86.6057 4.02062 86.5021 3.68304 85.9178 3.84355 85.6025 3.68557 85.2431 3.50543 84.9588 3.1956 84.5994 3.01547 82.8027 2.11531 78.469 1.89866 77.2429 1.67526Z" stroke="#000000" stroke-miterlimit="8" fill="#A6A6A6" fill-rule="evenodd" transform="matrix(1.00033 0 -0 1 177.5 131.5)"/><path d="M14.4724 2.4293 14.4724 2.4293C13.9114 1.66913 13.6856 0.495628 12.7896 0.148688 11.7428-0.256639 10.5321 0.273365 9.42389 0.47449 8.72648 0.601116 8.07762 0.908857 7.40448 1.12609L6.39478 1.45189C6.05821 1.56046 5.73882 1.75132 5.38508 1.77769L1.0097 2.1035C0.785289 2.4293 0.517519 2.73068 0.336567 3.0809 0.177877 3.38803 0 3.71485 0 4.0583 0 6.884 0.135687 9.71011 0.336567 12.5291 0.414905 13.6289 0.818256 13.6001 1.68284 14.1581 2.48392 16.4844 1.76563 15.7319 3.36567 16.7646 3.59009 17.0904 3.8745 17.3841 4.03881 17.742 4.32693 18.3696 4.03881 19.4795 4.71194 19.6968L7.74105 20.6742 8.75075 21C10.097 20.8914 11.457 20.8891 12.7896 20.6742 13.4894 20.5613 14.809 20.0226 14.809 20.0226 15.1455 19.6968 15.4531 19.3402 15.8187 19.0452 16.1294 18.7945 16.5424 18.6704 16.8284 18.3936 17.1144 18.1167 17.2155 17.693 17.5015 17.4162 18.154 16.7846 18.6997 16.7037 19.5209 16.4388 20.1844 14.5121 20.1164 15.1445 19.5209 11.8775 19.3976 11.2011 18.8478 9.92273 18.8478 9.92273 18.4606 4.67645 19.0091 6.80755 17.8381 3.4067 17.7259 3.0809 17.6983 2.71508 17.5015 2.4293 17.0048 1.70812 16.5961 0.976172 15.8187 0.47449 15.5234 0.284037 15.1455 0.257255 14.809 0.148688 14.0736 1.2165 14.5285 2.04921 14.4724 2.4293Z" stroke="#000000" stroke-miterlimit="8" fill="#D9D9D9" fill-rule="evenodd" transform="matrix(1.00033 0 -0 1 272.5 172.5)"/><path d="M69.5039 2.67907 69.5039 2.67907C68.4966 2.45578 67.4791 2.27446 66.482 2.0093 65.7981 1.82736 65.1732 1.39364 64.4674 1.33953L60.1024 1.00465C59.6548 0.893058 59.2014 0.802033 58.7594 0.669767 58.0814 0.466938 56.7448 0 56.7448 0 56.2971 0.111593 55.8437 0.202618 55.4017 0.334883 54.7237 0.537712 54.0586 0.781359 53.3871 1.00465L50.3652 2.0093 48.3506 2.67907C48.0148 2.79066 47.697 3.0014 47.3433 3.01395L37.9418 3.34883C35.9119 3.8549 37.0365 3.53816 34.5841 4.35348L33.5768 4.68837C33.241 4.79996 32.923 5.00564 32.5695 5.02325L25.8541 5.35813C25.4065 5.46973 24.9531 5.56075 24.511 5.69302 23.8331 5.89585 23.1832 6.1916 22.4964 6.36279 22.0488 6.47438 21.6145 6.67847 21.1534 6.69767 16.2318 6.90218 11.3042 6.92096 6.37959 7.03255 5.48417 7.14415 4.58347 7.21945 3.69345 7.36744 2.85027 7.50761 2.14141 7.77183 1.34307 8.0372 2.40727 9.62924 1.88696 8.66003 2.68614 11.0512L3.02191 12.0558C2.85408 13.0601 2.60577 15.1899 2.01461 16.0744 1.14679 17.3728 1.47072 16.6972 1.0073 18.0837 0.895416 19.4232 0.732767 20.7595 0.671535 22.1023 0.142133 33.7175 1.4869 29.3742 0 33.8232 0.111887 36.5023 0.0682111 39.1923 0.335768 41.8604 0.4062 42.5629 0.61464 43.2823 1.0073 43.8697 1.23118 44.2046 1.39352 44.5898 1.67884 44.8744 1.96416 45.159 2.35037 45.3209 2.68614 45.5441 3.91066 49.2081 1.95771 43.6584 3.69345 47.5534 3.98088 48.1986 3.97232 48.9754 4.36498 49.5627 6.28949 52.4419 3.98215 48.7991 5.37228 51.572 5.55281 51.932 5.8799 52.2089 6.04382 52.5767 6.33126 53.2219 6.32269 53.9986 6.71535 54.586 6.93924 54.9209 7.22297 55.2229 7.38689 55.5906 7.67433 56.2358 7.83455 56.9302 8.05843 57.5999 8.33148 58.4171 8.41482 58.96 9.06573 59.6092 9.35105 59.8938 9.73727 60.0557 10.073 60.279 11.8638 62.9581 9.51338 59.7208 11.7519 61.9534 12.0372 62.238 12.0812 62.7448 12.4234 62.9581 13.0237 63.3323 13.8491 63.2362 14.438 63.6278 17.3248 65.5473 13.6724 63.246 16.4526 64.6325 16.8136 64.8125 17.099 65.1222 17.4599 65.3023 17.7764 65.4602 18.1507 65.4793 18.4672 65.6371 18.8282 65.8172 19.1058 66.1434 19.4745 66.3069 20.1214 66.5936 20.9002 66.5851 21.4891 66.9767 22.1813 67.4369 22.6483 67.8747 23.5037 67.9813 24.9517 68.1619 26.4155 68.1845 27.8687 68.3162 28.878 68.4078 29.8833 68.5395 30.8906 68.6511 36.743 70.5968 30.6069 68.6666 47.0075 69.3209 47.5777 69.3437 48.1184 69.5991 48.6863 69.6558 50.3605 69.8227 52.044 69.879 53.7228 69.9906 54.5855 70.2057 55.8922 70.5541 56.7448 70.6604 57.9714 70.8133 59.207 70.8837 60.4382 70.9953 63.7314 72.0901 61.7474 71.6064 66.482 71.9999 68.8324 71.8883 71.1883 71.86 73.5331 71.6651 75.2514 71.5222 73.8718 71.1618 75.5477 70.6604 76.3058 70.4336 77.1147 70.4371 77.8981 70.3255 78.2339 70.1022 78.6533 69.9701 78.9054 69.6558 79.1265 69.3801 79.0693 68.9597 79.2412 68.6511 79.6331 67.9475 80.1366 67.3116 80.5843 66.6418L82.5989 63.6278C82.8227 63.293 83.1428 63.005 83.2704 62.6232 83.4943 61.9534 83.5493 61.2013 83.9419 60.6139 84.1658 60.279 84.4496 59.977 84.6135 59.6092 84.9009 58.9641 85.0611 58.2697 85.285 57.5999L85.9565 55.5906C86.0684 55.2558 86.096 54.8797 86.2923 54.586 87.1601 53.2876 86.8362 53.9632 87.2996 52.5767 87.4115 51.7953 87.4801 51.0065 87.6354 50.2325 87.7048 49.8863 87.9712 49.5809 87.9712 49.2279 87.9712 47.3269 87.825 45.4263 87.6354 43.5348 87.6002 43.1836 87.3968 42.8696 87.2996 42.5302 87.1728 42.0876 87.0965 41.6315 86.9639 41.1907 86.7605 40.5145 86.4312 39.8737 86.2923 39.1814 86.1804 38.6232 86.0586 38.0669 85.9565 37.5069 85.8347 36.8389 85.7859 36.1563 85.6208 35.4976 85.4491 34.8127 85.0881 34.1807 84.9492 33.4883 84.5441 31.4678 84.794 32.354 84.2777 30.8093 84.1658 29.2464 84.1255 27.677 83.9419 26.1209 83.9006 25.7703 83.7034 25.4557 83.6062 25.1163 83.4794 24.6737 83.3972 24.2193 83.2704 23.7767 83.1732 23.4373 83.0114 23.1167 82.9346 22.7721 82.3797 20.2816 82.7986 21.0892 82.2631 18.4186 82.1937 18.0724 82.0041 17.7585 81.9273 17.4139 81.7796 16.7511 81.6878 16.0768 81.5916 15.4046 81.4591 14.4795 81.1871 11.7817 80.92 10.7163 80.7484 10.0313 80.4724 9.37674 80.2485 8.70697 80.1366 8.37209 80.2073 7.89808 79.9127 7.70232L78.9054 7.03255C78.6815 6.69767 78.5192 6.31247 78.2339 6.0279 77.2716 5.06818 77.3116 5.56803 76.2193 5.02325 75.8583 4.84321 75.5807 4.51697 75.212 4.35348 74.5651 4.0668 73.8689 3.90701 73.1974 3.68372L72.1901 3.34883 69.5039 2.67907Z" stroke="#000000" stroke-miterlimit="8" fill="#D9D9D9" fill-rule="evenodd" transform="matrix(1.00033 0 -0 1 92.5 118.5)"/></g></svg>