<svg width="301" height="250" xmlns="http://www.w3.org/2000/svg" xmlns:xlink="http://www.w3.org/1999/xlink" overflow="hidden"><defs><clipPath id="clip0"><path d="M0 0 301 0 301 250 0 250Z" fill-rule="evenodd" clip-rule="evenodd"/></clipPath></defs><g clip-path="url(#clip0)"><rect x="0" y="0" width="300.901" height="250" fill="#D3D3C3" transform="scale(1.00033 1)"/><path d="M28.8823 0.154892 28.8823 0.154892C27.8863 0.376001 26.9136 0.771847 25.8945 0.818116 24.4531 0.883603 23.0215 0.486504 21.5787 0.486504 20.5766 0.486504 19.5868 0.707614 18.5909 0.818116 16.0876 1.65159 19.0762 0.430313 16.931 2.14457 16.5836 2.42218 14.3693 2.7822 14.2751 2.80779 13.5999 2.99172 12.9736 3.35613 12.2833 3.47101 9.84136 3.87751 10.9444 3.63959 8.96347 4.13424 8.63149 4.35535 8.32439 4.61918 7.96753 4.79746 7.65458 4.95382 7.2448 4.91068 6.97158 5.12908 6.65999 5.37807 6.60792 5.86144 6.30762 6.12391 5.70713 6.64885 4.31574 7.45036 4.31574 7.45036 4.09439 7.78197 3.96337 8.1962 3.65178 8.4452 3.37857 8.66359 2.96879 8.62046 2.65584 8.77681 2.29898 8.9551 1.99188 9.21893 1.6599 9.44004 1.43855 9.77165 1.17443 10.0784 0.995941 10.4349 0.61649 11.1929 0.52134 12.331 0.33198 13.0878 0.247077 13.4269 0.110625 13.751 0 14.0826 0.110625 14.7458 0.185909 15.416 0.33198 16.0723 0.407891 16.4135 0.416465 16.8199 0.66396 17.0671 3.79817 20.1979 1.4076 16.8992 4.64772 19.0568L5.64366 19.72C5.86502 20.0516 5.96927 20.5037 6.30762 20.7149 6.90111 21.0854 7.63554 21.157 8.29951 21.3781L10.2914 22.0413C10.6234 22.1518 10.9961 22.1791 11.2873 22.3729 11.6193 22.594 11.9166 22.8792 12.2833 23.0361 13.7724 23.6737 13.3151 23.054 14.6071 23.6994 14.964 23.8777 15.2385 24.2007 15.6031 24.3626 16.2427 24.6465 16.931 24.8047 17.595 25.0258L18.5909 25.3574C18.9229 25.4679 19.2378 25.6642 19.5868 25.689L24.2346 26.0207C26.2415 26.5218 25.1296 26.2081 27.5544 27.0155 27.8863 27.126 28.2009 27.3287 28.5503 27.3471L34.8579 27.6787C36.5844 28.0236 36.6691 28.0591 38.5097 28.3419 39.2831 28.4608 40.0601 28.5547 40.8336 28.6735 41.4989 28.7758 42.1575 28.9218 42.8255 29.0052 46.082 29.4118 47.6065 29.3981 51.125 29.6684 52.3436 29.7621 53.5594 29.8895 54.7767 30 56.7686 29.7789 58.8081 29.8223 60.7524 29.3368 61.195 29.2263 61.6416 29.1304 62.0803 29.0052 62.4168 28.9092 62.7275 28.7026 63.0762 28.6735 65.3947 28.4805 67.724 28.4524 70.0478 28.3419 70.4904 28.2314 70.937 28.1356 71.3757 28.0103 71.7122 27.9143 72.0253 27.7281 72.3717 27.6787 73.5817 27.5061 74.8067 27.4628 76.0235 27.3471L79.3433 27.0155 81.3352 26.3523C81.6671 26.2418 82.0399 26.2145 82.3311 26.0207 82.6631 25.7995 82.9624 25.5193 83.327 25.3574 84.7055 24.7455 85.5588 24.6463 86.9788 24.3626L88.3067 22.3729 88.9707 21.3781C88.8601 19.72 88.8224 18.0555 88.6387 16.4039 88.6 16.0565 88.4766 15.7147 88.3067 15.4091 87.9192 14.7123 87.4214 14.0826 86.9788 13.4194L86.3149 12.4245 85.6509 11.4297C85.4295 11.0981 85.3189 10.656 84.9869 10.4349 82.1327 8.53419 85.744 10.813 82.9951 9.44004 79.8385 7.86355 85.1461 9.8246 80.0072 8.11359L78.0154 7.45036C77.6834 7.33986 77.3106 7.3126 77.0194 7.11875 76.6874 6.89764 76.3881 6.61742 76.0235 6.45553L73.0356 5.46069 70.0478 4.46585C69.7159 4.35535 69.3914 4.21905 69.0519 4.13424 68.6093 4.02374 68.1627 3.92786 67.724 3.80263 67.3875 3.70664 67.0749 3.51718 66.728 3.47101 65.4072 3.29513 64.0722 3.24991 62.7443 3.1394 57.1814 1.28718 61.452 2.49675 49.4651 2.14457L47.4732 1.48134 46.4772 1.14973C40.7571-0.754823 31.8148 0.320646 28.8823 0.154892Z" stroke="#000000" stroke-miterlimit="8" fill="#A6A6A6" fill-rule="evenodd" transform="matrix(1.00033 0 -0 1 96.5 119.5)"/><path d="M29.9901 24.0584 29.9901 24.0584C29.5458 23.1704 29.2672 22.1782 28.6572 21.3946 28.4415 21.1175 27.906 21.3098 27.6575 21.0616 23.7699 17.1768 28.1574 20.2847 25.325 18.3978 25.054 17.5853 24.9713 17.0454 24.3253 16.3999 24.0421 16.1169 23.6589 15.956 23.3256 15.7339 21.5485 13.0701 23.881 16.2889 21.6595 14.069 20.1523 12.5629 21.9395 13.3854 19.9934 12.7371 19.7712 12.4041 19.6397 11.9882 19.327 11.7382 19.0527 11.5189 18.5757 11.6534 18.3273 11.4052 17.761 10.8393 17.4387 10.0733 16.9944 9.40732 16.7722 9.07435 16.4546 8.78804 16.3279 8.40839 15.4904 5.89756 16.6202 8.99244 15.3283 6.41051 15.1712 6.09662 15.1522 5.72546 14.9951 5.41157 14.8159 5.05363 14.4913 4.77833 14.3286 4.41263 13.1599 1.78487 14.4608 2.94679 12.6625 1.7488 12.5514 1.41582 12.5487 1.0239 12.3293 0.749859 11.2341-0.618136 9.4054 0.276137 7.99736 0.41688 6.88413 0.787719 6.92003 0.80408 5.6648 1.08284 3.25216 1.61854 4.7854 1.15373 2.99901 1.7488 2.81272 2.30736 2.37056 3.54752 2.33256 4.07965 2.1425 6.73898 2.18941 9.41183 1.99934 12.0712 1.96135 12.6033 1.51918 13.8434 1.33289 14.402 1.22185 17.8428 1.27811 21.2931 0.99967 24.7244 0.942891 25.4241 0.555407 26.0563 0.333223 26.7223L0 27.7212C0.111039 36.9337 0.0293866 46.1504 0.333223 55.3585 0.363869 56.2865 1.32838 59.0076 1.66612 60.0202L2.66579 63.017C2.77683 63.35 2.91379 63.6754 2.99901 64.016 3.50257 66.0289 3.1874 64.9137 3.99868 67.3457L4.3319 68.3447C4.44294 68.6777 4.47034 69.0516 4.66513 69.3436 5.10939 70.0096 5.74477 70.5822 5.99802 71.3415 6.10906 71.6745 6.08282 72.0922 6.33124 72.3404 6.57967 72.5887 6.99769 72.5625 7.33091 72.6734 7.44195 73.0064 7.41572 73.4241 7.66414 73.6724 7.91256 73.9206 8.34969 73.8483 8.66381 74.0053 9.02201 74.1844 9.33025 74.4493 9.66348 74.6713 11.5734 77.5341 9.0303 74.1651 11.3296 76.0032 11.6424 76.2532 11.6833 76.7521 11.996 77.0022 12.2703 77.2214 12.6816 77.1781 12.9957 77.3351 13.3539 77.5142 13.6294 77.8385 13.9954 78.0011 15.9644 78.8755 16.7061 78.746 18.9937 79 21.5485 78.8891 24.1064 78.8371 26.6579 78.6671 27.4415 78.6148 28.2104 78.4257 28.9904 78.3341 30.099 78.2037 31.212 78.112 32.3227 78.0011 32.6559 77.7791 33.1002 77.6681 33.3223 77.3351 33.5439 77.0031 33.9868 74.0132 33.9888 74.0053 34.1591 73.3243 34.433 72.6734 34.6552 72.0075 34.7663 71.6745 34.7937 71.3006 34.9885 71.0085 35.8497 69.7175 35.5282 70.3892 35.9881 69.0107 36.0992 68.1227 36.1337 67.2218 36.3213 66.3468 36.4685 65.6604 36.9878 64.3489 36.9878 64.3489 36.8768 57.2454 36.959 50.1361 36.6546 43.0382 36.6245 42.3369 36.1259 41.7288 35.9881 41.0404 35.8771 40.4854 35.7778 39.928 35.6549 39.3755 35.5555 38.9287 35.3969 38.4949 35.3217 38.0436 35.1744 37.1609 35.1357 36.2624 34.9885 35.3797 34.8206 34.3732 34.2851 32.9381 33.9888 32.0499L33.3223 30.0521 32.6559 28.0542C32.5448 27.7212 32.5175 27.3473 32.3227 27.0552 32.1005 26.7223 31.8354 26.4142 31.6562 26.0563 31.4991 25.7424 31.5425 25.3314 31.323 25.0574 31.0728 24.7448 30.2123 24.225 29.9901 24.0584Z" stroke="#000000" stroke-miterlimit="8" fill="#595959" fill-rule="evenodd" transform="matrix(1.00033 0 -0 1 28.5 99.5)"/><path d="M52.3785 0.026009 52.3785 0.026009C50.5992 0.137869 48.8135 0.173922 47.0405 0.361695 43.4181 0.745381 49.2318 0.739249 44.7052 1.03307 41.7068 1.22771 38.6989 1.22824 35.6974 1.36875 33.9166 1.45207 32.1388 1.59258 30.3595 1.70444 26.1398 3.11971 29.0603 2.34219 21.3517 2.7115 18.168 3.77935 21.7584 2.67428 14.0121 3.38287 12.8648 3.48786 13.037 3.93086 12.0104 4.38993 11.3676 4.67729 10.6759 4.83747 10.0086 5.0613L8.0069 5.73267 7.00604 6.06835C6.67242 6.18021 6.29782 6.20781 6.00518 6.40404L5.00431 7.07541C4.35483 9.03592 5.17885 7.23548 3.66983 8.75384 1.44566 10.9918 4.67069 8.64198 2.00173 10.4323 1.89055 10.768 1.82541 11.1229 1.6681 11.4393 1.48874 11.8002 1.16373 12.0777 1.00086 12.4464 0.715262 13.0931 0.55607 13.7891 0.333621 14.4605L0 15.4676C0.141119 16.6039 0.269524 19.0634 1.00086 20.1672 1.44566 20.8385 1.6681 21.7337 2.33535 22.1813L6.3388 24.8668C6.67242 25.0906 6.95928 25.4105 7.33966 25.5381 7.67328 25.65 8.03307 25.702 8.34052 25.8738 9.04149 26.2656 9.67501 26.769 10.3422 27.2166 10.6759 27.4404 10.9627 27.7603 11.3431 27.8879L15.3466 29.2307C15.6802 29.3425 16.0548 29.3701 16.3474 29.5664 16.681 29.7902 16.9819 30.0739 17.3483 30.2377 17.991 30.5251 18.6828 30.6853 19.35 30.9091L20.3509 31.2448C20.6845 31.3567 21.0106 31.4946 21.3517 31.5805 23.3686 32.0878 22.2512 31.7703 24.6879 32.5875L25.6888 32.9232C26.0224 33.0351 26.397 33.0627 26.6897 33.2589 27.0233 33.4827 27.3151 33.7886 27.6905 33.9303 28.2215 34.1306 28.8051 34.1422 29.3586 34.266 29.8063 34.3661 30.2539 34.4691 30.6931 34.6017 31.3668 34.805 31.995 35.2026 32.6949 35.273 33.8069 35.3849 34.9221 35.4693 36.0311 35.6087 36.7023 35.6931 37.3725 35.7967 38.0328 35.9444 38.3761 36.0212 38.6833 36.2494 39.0336 36.2801 41.2521 36.4742 43.4833 36.4802 45.7061 36.6158 47.1534 36.704 48.5975 36.8396 50.0431 36.9515 56.175 39.0081 51.3059 37.5001 67.3914 36.9515 68.5084 36.9134 69.6156 36.7276 70.7276 36.6158 71.1724 36.5039 71.6212 36.4068 72.0621 36.2801 72.4003 36.1829 72.7149 35.9944 73.063 35.9444 77.0079 35.3774 85.6121 35.3379 87.7423 35.273L89.744 34.6017C90.0777 34.4898 90.3968 34.316 90.7449 34.266L93.0802 33.9303C93.4139 33.8184 93.7378 33.6714 94.0811 33.5946 94.7414 33.4469 95.4173 33.3807 96.0828 33.2589 96.8887 33.1115 98.2616 32.8362 99.0854 32.5875 99.7591 32.3842 100.502 32.3087 101.087 31.9162 101.421 31.6923 101.722 31.4087 102.088 31.2448 102.731 30.9574 103.422 30.7973 104.09 30.5734L106.091 29.9021C106.425 29.7902 106.747 29.6357 107.092 29.5664 107.648 29.4545 108.213 29.3808 108.76 29.2307 112.42 28.2265 109.283 28.8528 112.097 28.2236 113.037 28.0134 114.985 27.7405 115.766 27.2166L117.768 25.8738C117.879 25.5381 117.853 25.117 118.102 24.8668 118.669 24.2963 120.104 23.524 120.104 23.524 120.942 20.9928 119.713 24.0147 121.438 21.8456 121.658 21.5693 121.601 21.1479 121.772 20.8385 122.916 18.7652 122.645 19.1338 124.107 18.153 124.721 16.2988 125.49 14.8938 124.441 12.7821L121.438 10.768 120.437 10.0966 119.436 9.42521C117.524 6.53916 120.07 9.93556 117.768 8.08247 117.455 7.83042 117.441 7.28919 117.101 7.07541 115.317 5.95332 110.963 6.15273 109.761 6.06835L100.754 5.39698C97.978 4.46605 102.401 5.8828 97.4173 4.72561 96.732 4.56649 96.0828 4.27807 95.4156 4.05424L92.413 3.04718C91.1868 2.6359 90.0402 2.19364 88.7432 2.04012 85.3836 1.64248 82.1217 1.62123 78.7345 1.36875 77.7303 1.2939 76.7302 1.16702 75.7319 1.03307 75.0614 0.943092 74.4039 0.75902 73.7302 0.697381 72.3596 0.571988 62.9578 0.0487405 62.0535 0.026009 59.7189-0.0326699 53.991 0.026009 52.3785 0.026009Z" stroke="#000000" stroke-miterlimit="8" fill="#A6A6A6" fill-rule="evenodd" transform="matrix(1.00033 0 -0 1 66.5 146.5)"/><path d="M33.4282 10.4936 33.4282 10.4936C33.4246 10.4918 30.3921 9.08097 29.7875 8.4626 29.5063 8.17495 29.425 7.71501 29.1256 7.44709 27.7249 6.19361 27.5105 6.21952 26.1468 5.75457 25.9262 5.41606 25.8222 4.95463 25.4849 4.73906 24.8932 4.36078 24.161 4.28775 23.4991 4.06205 23.1681 3.94925 22.7965 3.92142 22.5061 3.72354 19.6606 1.78336 23.2609 4.10949 20.5203 2.70803 20.1645 2.52604 19.8909 2.19628 19.5274 2.03102 18.8897 1.74124 18.2035 1.57972 17.5415 1.35402L14.5628 0.338504 13.5699 0C12.6872 0.112799 11.7918 0.147876 10.9221 0.338504 7.93354 0.993442 9.8733 0.705581 7.94334 1.69252 7.63134 1.85212 7.26242 1.87142 6.95042 2.03102 6.59464 2.21302 6.31329 2.52604 5.95751 2.70803 5.64551 2.86763 5.26961 2.87329 4.96459 3.04654 4.26918 3.44165 3.6407 3.94925 2.97875 4.40055L1.98584 5.07756C1.76515 5.41606 1.60514 5.80542 1.32389 6.09307 1.04264 6.38072 0.579489 6.45236 0.330973 6.77008 0.113 7.04867 0.110289 7.44709 0 7.78559 0.269156 8.61154 0.3513 9.1604 0.992918 9.81662 1.27417 10.1043 1.65486 10.2679 1.98584 10.4936 2.20652 10.8321 2.46984 11.1453 2.64778 11.5091 3.38614 13.0196 2.83292 14.0158 2.64778 15.9097 2.75807 22.3413 2.67957 28.7791 2.97875 35.2044 3.0119 35.9172 3.6407 37.2354 3.6407 37.2354 3.75099 39.2665 3.79164 41.3027 3.97167 43.3285 4.01285 43.7919 4.17192 44.2369 4.30264 44.6825 4.5031 45.366 4.96459 46.7135 4.96459 46.7135 5.07488 47.8419 5.09124 48.984 5.29556 50.0986 5.4242 50.8 5.84284 51.4257 5.95751 52.1296 6.04726 52.6807 6.23146 54.4618 6.61945 55.1761 7.00578 55.8874 7.2814 56.7559 7.94334 57.2072 8.60529 57.6585 9.17446 58.3039 9.92918 58.5612L17.8725 61.2692 20.8513 62.2847C21.1822 62.3975 21.4954 62.6141 21.8442 62.6232L34.7521 62.9617C37.5102 62.8489 40.3432 63.2856 43.0264 62.6232 43.7998 62.4323 43.9091 61.2692 44.3503 60.5922L45.0123 59.5767C45.233 59.2382 45.3433 58.7869 45.6742 58.5612L46.6671 57.8842C46.7774 57.5457 46.8421 57.1878 46.9981 56.8687 47.649 55.5374 47.7137 56.2557 47.991 54.8376 48.2542 53.4916 48.3898 52.1216 48.653 50.7756L48.9839 49.0831C48.8737 46.0365 48.8705 42.9839 48.653 39.9435 48.6414 39.7811 48.0339 34.9137 47.6601 33.5119 47.4765 32.8234 47.3852 32.0746 46.9981 31.4809 45.1011 28.5706 47.3755 32.2528 46.0052 29.4498 45.8273 29.086 45.5048 28.8061 45.3433 28.4343 43.5162 24.23 46.11 28.595 43.3574 24.3723L42.0335 22.3413C41.8128 22.0028 41.4974 21.7117 41.3716 21.3257 41.2613 20.9872 41.2873 20.5626 41.0406 20.3102 40.7939 20.0579 40.3787 20.0845 40.0477 19.9717 39.9374 19.6332 39.8861 19.2682 39.7167 18.9562 39.3304 18.245 38.8341 17.6022 38.3928 16.9252L37.7309 15.9097C37.5102 15.5712 37.1948 15.2801 37.0689 14.8942 36.6392 13.5759 34.035 11.227 33.4282 10.4936Z" stroke="#000000" stroke-miterlimit="8" fill="#595959" fill-rule="evenodd" transform="matrix(1.00033 0 -0 1 110.5 57.5)"/><path d="M56.1688 2.33938 56.1688 2.33938C52.8342 1.08943 54.3974 1.63772 51.4881 0.668393 51.1537 0.55703 50.8353 0.373142 50.4851 0.334197L47.476 0 28.4187 0.334197C27.9595 0.349249 27.5216 0.536399 27.0814 0.668393 26.4063 0.870806 25.744 1.11395 25.0754 1.33679L23.0693 2.00518 17.0512 4.01036 15.0452 4.67875C14.7109 4.79012 14.3355 4.81759 14.0422 5.01295 11.1677 6.92845 14.8046 4.63191 12.0362 6.01554 9.44371 7.31128 12.5512 6.17817 10.0301 7.01813 9.80722 7.35233 9.70223 7.80789 9.36147 8.02072 8.76377 8.39418 7.94187 8.29829 7.35544 8.68911L6.35242 9.35751C6.1295 9.6917 5.96786 10.0761 5.68375 10.3601 5.39964 10.6441 4.93178 10.7148 4.68073 11.0285 4.46054 11.3035 4.50403 11.716 4.3464 12.0311 2.75695 15.2087 4.73412 9.8657 3.00904 15.0389L2.00603 18.0466 1.67169 19.0492C1.56028 19.3834 1.42286 19.71 1.33735 20.0518 0.838636 22.0459 1.07852 20.9356 0.668676 23.3938 0.557265 29.4093 0.534836 35.4272 0.334338 41.4404 0.311803 42.1176 0 42.7679 0 43.4456 0 48.7939 0.124679 54.1428 0.334338 59.487 0.348133 59.839 0.557265 60.1554 0.668676 60.4896 0.780087 61.3808 0.928354 62.2682 1.00301 63.1632 1.15139 64.9429 1.1596 66.7333 1.33735 68.5103 1.38305 68.9674 1.58155 69.3967 1.67169 69.8471 1.80469 70.5116 1.89462 71.1839 2.00603 71.8523 2.11744 73.6346 2.21306 75.4181 2.34037 77.1994 2.63838 81.3697 2.3747 80.0104 3.00904 82.5466 3.12045 86.8911 3.17942 91.2374 3.34338 95.5803 3.51166 100.037 3.22618 98.9049 4.01206 101.262 4.12347 102.041 4.19181 102.829 4.3464 103.601 4.41547 103.946 4.58396 104.265 4.68073 104.604 4.80699 105.045 4.88881 105.499 5.01507 105.94 5.11185 106.279 5.12922 106.668 5.34941 106.943 5.60045 107.257 6.01809 107.389 6.35242 107.611 7.19274 110.131 5.96143 107.123 7.68978 109.282 7.90997 109.557 7.853 109.977 8.02411 110.285 8.41437 110.987 8.91572 111.622 9.36147 112.29 9.58439 112.624 9.6958 113.07 10.0301 113.293L11.0332 113.961C11.6216 115.726 11.0742 114.768 13.3735 116.3L15.3796 117.637C15.7139 117.86 16.0014 118.179 16.3826 118.306 17.0512 118.528 17.8022 118.583 18.3886 118.974 19.6849 119.838 19.0104 119.515 20.3946 119.977 21.9986 122.382 19.7272 119.42 23.0693 121.648 24.6588 122.707 23.6911 122.189 26.0784 122.984L27.0814 123.319 28.0844 123.653C35.4319 126.101 28.7351 123.981 49.1477 124.321 52.0255 125.28 50.4699 124.819 53.8284 125.658 54.2742 125.769 54.7109 125.927 55.1658 125.992 59.1647 126.563 56.7199 126.274 62.5212 126.661 64.9562 127.472 63.4038 127.047 68.205 127.329L74.8917 127.663C75.8947 127.774 76.9111 127.799 77.9008 127.997 78.592 128.136 79.2074 128.578 79.9068 128.666L82.5815 129C83.2361 128.906 85.3287 128.951 85.9249 127.997 87.0284 126.232 86.0271 126.224 87.2622 124.99 87.5464 124.706 87.9309 124.544 88.2653 124.321 88.4882 123.987 88.6498 123.603 88.9339 123.319 89.218 123.035 89.6723 122.952 89.937 122.65 90.4662 122.046 90.8286 121.313 91.2743 120.645 91.4972 120.311 91.6086 119.865 91.943 119.642L92.946 118.974C94.1653 115.318 92.2207 120.856 93.949 116.969 94.2352 116.325 94.3948 115.632 94.6177 114.964L94.952 113.961C95.0634 113.627 95.1287 113.274 95.2864 112.958 95.5093 112.513 95.7078 112.054 95.955 111.622 96.6605 110.388 96.7413 110.751 97.2924 109.282 97.4537 108.852 97.4457 108.368 97.6267 107.946 97.785 107.576 98.1322 107.31 98.2954 106.943 98.9124 105.555 99.0124 104.696 99.2984 103.267 99.4098 100.37 99.4518 97.4705 99.6328 94.5777 99.6751 93.9014 99.9671 93.2501 99.9671 92.5725 99.9671 89.674 99.8323 86.775 99.6328 83.8834 99.6085 83.5319 99.3952 83.2195 99.2984 82.8808 99.1722 82.4391 99.0903 81.9857 98.9641 81.544 98.8673 81.2053 98.7265 80.8801 98.6297 80.5414 98.5035 80.0997 98.4217 79.6463 98.2954 79.2046 98.1986 78.8659 98.0404 78.5453 97.9611 78.202 97.7055 77.095 97.5681 75.9622 97.2924 74.8601 96.8725 73.1815 97.1034 73.959 96.6237 72.5207 96.5123 71.2953 96.4521 70.0642 96.2894 68.8445 96.2286 68.3893 96.0548 67.9561 95.955 67.5077 95.8317 66.9532 95.7321 66.3938 95.6207 65.8368 95.5682 64.3124 95.5447 56.4944 94.952 53.1373 93.9742 47.5987 94.6597 52.3028 93.949 49.4611 93.6978 48.4567 93.5198 46.6453 92.946 45.7849 92.7231 45.4508 92.4571 45.1416 92.2773 44.7824 92.1197 44.4673 92.1384 44.0729 91.943 43.7798 91.6807 43.3865 91.2743 43.1114 90.94 42.7772 90.8286 42.443 90.7767 42.0826 90.6056 41.7746 89.4843 39.757 89.3223 40.2385 88.5996 38.4326 88.3378 37.7784 88.1538 37.0958 87.9309 36.4274L87.2622 34.4223 86.2592 31.4145 85.9249 30.4119C85.8135 30.0777 85.6761 29.7511 85.5906 29.4093 85.4791 28.9637 85.3883 28.5125 85.2562 28.0725L84.2532 25.0648 83.5845 23.0596C83.4731 22.7254 83.4456 22.3501 83.2502 22.057 83.0273 21.7228 82.7613 21.4136 82.5815 21.0544 82.4239 20.7394 82.4048 20.3668 82.2472 20.0518 82.0674 19.6926 81.7582 19.4085 81.5785 19.0492 81.4209 18.7342 81.4643 18.3217 81.2442 18.0466 80.9931 17.733 80.5755 17.6011 80.2411 17.3782 78.458 14.7047 80.7984 17.9353 78.5695 15.7072 77.0572 14.1956 78.8504 15.0211 76.8978 14.3705 75.7706 12.6803 76.841 13.8408 75.2261 13.0337 74.8667 12.854 74.5903 12.5284 74.2231 12.3653 73.5789 12.0792 72.8035 12.0877 72.217 11.6969 68.6328 9.30846 74.0725 13.028 70.211 10.0259 69.5767 9.53276 68.9674 8.9431 68.205 8.68911 67.8706 8.57775 67.5101 8.52596 67.202 8.35492 66.4995 7.96483 65.8646 7.46369 65.1959 7.01813 64.8616 6.7953 64.5741 6.47678 64.1929 6.34974 63.5242 6.1269 62.7733 6.07217 62.1869 5.68134 61.8525 5.45851 61.5511 5.1761 61.1839 5.01295 59.0721 4.07478 57.0046 2.78494 56.1688 2.33938Z" stroke="#000000" stroke-miterlimit="8" fill="#D9D9D9" fill-rule="evenodd" transform="matrix(1.00033 0 -0 1 186.5 58.5)"/></g></svg>