<svg width="301" height="250" xmlns="http://www.w3.org/2000/svg" xmlns:xlink="http://www.w3.org/1999/xlink" overflow="hidden"><defs><clipPath id="clip0"><path d="M0 0 301 0 301 250 0 250Z" fill-rule="evenodd" clip-rule="evenodd"/></clipPath></defs><g clip-path="url(#clip0)"><rect x="0" y="0" width="300.901" height="250" fill="#D3D3C3" transform="scale(1.00033 1)"/><path d="M42.173 9.89361 42.173 9.89361C41.3982 9.23403 40.6574 8.53281 39.8485 7.91489 39.2158 7.43158 37.8561 6.59574 37.8561 6.59574 36.6289 4.76773 37.894 6.2136 36.1957 5.27659 35.498 4.89165 34.8674 4.39712 34.2033 3.95744L31.2147 1.97872 30.2185 1.31915C29.8864 1.09925 29.6008 0.784945 29.2222 0.659574L27.2298 0C23.6877 0.109894 20.1364 0.0527659 16.6035 0.329787 15.9056 0.384526 15.1936 0.603692 14.6111 0.989361 14.279 1.20925 13.9796 1.48794 13.6149 1.64893 12.9751 1.93125 12.2049 1.92284 11.6225 2.30851 8.06258 4.66542 13.4653 0.99497 9.63006 3.95744 9.00001 4.44407 8.30177 4.83691 7.63763 5.27659L6.64142 5.93616 5.31313 7.91489C5.09172 8.24467 4.77523 8.52824 4.64899 8.90425L3.98485 10.883 3.65278 11.8723C3.54212 12.9716 3.5257 14.0843 3.32071 15.1702 2.80665 17.8928 2.8874 16.3608 1.99243 18.1383 1.83586 18.4492 1.81692 18.8168 1.66035 19.1276 0.0816842 22.2634 2.04545 16.9908 0.332071 22.0957L0 23.0851C0.110655 28.2518 0.128122 33.4212 0.332071 38.5851 0.349956 39.0379 0.59961 39.4555 0.664142 39.9042 0.839747 41.1249 1.00374 44.1141 1.32828 45.5106 1.48569 46.188 1.77101 46.8297 1.99243 47.4893 2.10308 47.8191 2.13038 48.1894 2.3245 48.4787L2.98864 49.468C3.49046 51.4617 3.17638 50.3572 3.98485 52.7659 4.09551 53.0957 4.02564 53.5625 4.31692 53.7553L5.31313 54.4148C5.49407 54.9539 5.76726 56.0571 6.30935 56.3936 7.16729 56.9261 8.96163 57.1621 9.96213 57.3829 10.4077 57.4813 10.8429 57.6238 11.2904 57.7127 11.9507 57.8439 12.6297 57.8804 13.2828 58.0425 13.962 58.2111 14.5961 58.5335 15.2753 58.7021 16.1608 58.922 17.0659 59.075 17.9318 59.3616 18.2639 59.4715 18.5788 59.6675 18.928 59.6914 21.8013 59.8883 24.6839 59.9113 27.5619 60.0212 28.1154 60.1311 28.6747 60.215 29.2222 60.351 29.5618 60.4353 29.8752 60.6126 30.2185 60.6808 30.9859 60.8333 31.7605 60.9899 32.5429 61.0106 40.068 61.2099 47.5968 61.2305 55.1238 61.3404 56.3414 61.4503 57.5662 61.4985 58.7765 61.6701 59.1231 61.7193 59.4227 61.9999 59.7728 61.9999 61.9893 61.9999 64.2003 61.78 66.4142 61.6701 67.1756 61.5621 70.7515 61.041 71.3952 61.0106 75.1561 60.8327 78.9222 60.7907 82.6856 60.6808 87.3911 60.1615 84.1267 60.6559 87.0026 60.0212 87.5535 59.8996 88.1184 59.8389 88.6629 59.6914 89.3384 59.5085 89.9912 59.2517 90.6553 59.0319L91.6516 58.7021C91.7622 58.3723 91.8137 58.0166 91.9836 57.7127L93.9761 54.7446C94.1975 54.4148 94.514 54.1313 94.6402 53.7553L94.9723 52.7659C95.0829 50.0177 95.0375 47.2588 95.3043 44.5212 95.3718 43.8293 95.9685 42.5425 95.9685 42.5425 95.2975 35.8798 96.0266 41.5119 95.3043 37.9255 95.1722 37.2698 95.1355 36.5954 94.9723 35.9468 94.8025 35.2722 94.5295 34.6276 94.3081 33.968 93.4735 31.4813 94.5994 34.5465 93.3119 31.9893 93.1553 31.6784 93.1985 31.2714 92.9798 31 92.7305 30.6904 92.3157 30.5603 91.9836 30.3404L90.6553 28.3617C90.4339 28.0319 90.2734 27.6526 89.9912 27.3723 89.6591 27.0425 89.2957 26.7412 88.995 26.383 88.7395 26.0785 88.6693 25.6036 88.3308 25.3936 87.7372 25.0251 87.0026 24.9539 86.3384 24.734L84.346 24.0744C84.0139 23.9646 83.6894 23.829 83.3498 23.7447 82.4642 23.5248 81.5591 23.3718 80.6932 23.0851L78.7008 22.4255C78.3687 22.3156 77.9959 22.2885 77.7046 22.0957 77.3725 21.8758 77.0731 21.5971 76.7084 21.4361 76.0686 21.1538 75.3801 20.9965 74.7159 20.7766 74.3839 20.6667 74.0328 20.6023 73.7197 20.4468 73.277 20.2269 72.8464 19.9808 72.3914 19.7872 71.5224 19.4173 69.145 18.8987 68.7387 18.7979 68.7364 18.7973 66.0821 18.1383 66.0821 18.1383 65.5286 18.0284 64.9662 17.956 64.4217 17.8085 63.7463 17.6256 63.0935 17.3688 62.4293 17.1489 62.0973 17.039 61.7244 17.0119 61.4331 16.8191 61.101 16.5992 60.7939 16.3369 60.4369 16.1596 60.1239 16.0041 59.7537 15.9853 59.4407 15.8298 58.6105 15.4175 58.4221 14.9095 57.4483 14.8404 54.6858 14.6444 51.9137 14.6205 49.1465 14.5106 48.1669 13.8621 47.9531 13.8139 47.1541 12.8617 45.7705 11.2128 47.32 12.422 45.4937 11.2128 44.0281 9.02951 42.7265 10.1135 42.173 9.89361Z" stroke="#000000" stroke-miterlimit="8" fill="#A6A6A6" fill-rule="evenodd" transform="matrix(1.00033 0 -0 1 177.5 139.5)"/><path d="M15.3912 4.55485 15.3912 4.55485C14.9637 3.68723 14.6568 2.74674 14.1086 1.95208 13.8876 1.63175 13.4191 1.57785 13.1466 1.30139 11.6963-0.170205 13.4161 0.633375 11.5434 0 10.9021 0.108415 10.257 0.195925 9.61948 0.325347 9.18734 0.413062 8.77317 0.587468 8.33688 0.650693 7.27354 0.80481 6.19919 0.867625 5.13039 0.97604 3.63399 3.25347 4.48909 2.49436 2.88584 3.57881 2.67204 3.90416 2.39634 4.19548 2.24455 4.55485 1.62809 6.01425 2.22728 5.56604 1.60325 6.83228 1.43085 7.18201 1.17575 7.48297 0.961948 7.80832 0.855099 8.67594 0.821872 9.55617 0.641299 10.4111 0.499708 11.0818 0 12.3632 0 12.3632 0.106849 13.0139 0.179564 13.6713 0.320649 14.3152 0.39397 14.65 0.402251 15.0487 0.641299 15.2913 0.880347 15.5338 1.2826 15.5082 1.60325 15.6166 2.24455 16.5927 2.1377 16.7011 3.20649 17.2434 3.98484 17.6382 4.96678 17.6713 5.77169 17.8941 6.42389 18.0745 7.13316 18.1643 7.69559 18.5448 8.01623 18.7617 8.30538 19.0366 8.65753 19.1954 9.2753 19.474 10.5814 19.8461 10.5814 19.8461 10.6883 20.1715 10.5742 20.739 10.9021 20.8222 12.9386 21.3387 13.028 20.6774 13.7879 19.5208 13.971 18.592 14.1576 17.5116 14.4292 16.5927 14.6234 15.9357 14.6955 15.2113 15.0705 14.6406L16.3531 12.6885 16.9944 11.7125C16.8876 10.0857 16.8512 8.45266 16.6738 6.83228 16.3193 3.59552 15.605 4.93441 15.3912 4.55485Z" stroke="#000000" stroke-miterlimit="8" fill="#A6A6A6" fill-rule="evenodd" transform="matrix(1.00033 0 -0 1 36.5 168.5)"/><path d="M24.4128 2.32314 24.4128 2.32314C23.5331 1.99127 22.6815 1.57106 21.7738 1.32751 19.3419 0.675045 17.4511 1.1403 14.8462 1.32751L12.8669 1.99127C12.537 2.10186 12.1666 2.12914 11.8772 2.32314 11.5473 2.54443 11.2499 2.82488 10.8876 2.9869 10.252 3.27101 9.48687 3.26254 8.90825 3.65066L6.92894 4.97817C6.70898 5.31005 6.54949 5.69178 6.26917 5.9738 4.92209 7.32901 4.89466 5.80791 3.95997 8.62882 3.85004 8.9607 3.70552 9.28296 3.63009 9.62446 2.98206 12.5583 3.62759 10.629 2.97032 12.9432 2.87483 13.2796 2.79597 13.626 2.64043 13.9389 2.46307 14.2956 2.14171 14.57 1.98066 14.9345 1.04244 17.0583 1.53887 16.5643 0.991006 18.5852 0.808037 19.2602 0.331236 20.5764 0.331236 20.5764 0.0671199 36.521-0.259025 41.2755 0.331236 56.4192 0.344847 56.7688 0.582884 57.074 0.661121 57.4149 0.913288 58.5142 1.04888 59.6391 1.32089 60.7336 1.43082 61.1761 1.56184 61.6139 1.65078 62.0612 1.74626 62.5416 2.13173 65.7025 2.64043 66.0437L3.63009 66.7074C4.72967 68.3668 3.95997 67.4818 6.26917 69.0306 6.59905 69.2519 6.8827 69.5682 7.25882 69.6943 7.91859 69.9156 8.65951 69.97 9.23813 70.3581 12.0743 72.2603 8.48589 69.9797 11.2174 71.3537 12.8986 72.1994 11.6332 72.2531 14.1864 72.6812L16.1657 73.0131C17.7037 73.2452 19.2502 73.4196 20.7841 73.6769 21.4439 73.7875 22.1075 73.8767 22.7634 74.0088 23.208 74.0982 23.6306 74.3103 24.083 74.3406 26.9377 74.5321 29.8009 74.5619 32.66 74.6725 32.9899 74.7831 33.3387 74.8479 33.6496 75.0044 34.0042 75.1828 34.2749 75.511 34.6393 75.6681 35.056 75.8478 35.519 75.8894 35.9588 76 39.2577 75.8894 42.5608 75.869 45.8554 75.6681 46.2025 75.647 46.5029 75.3989 46.845 75.3363 47.7173 75.1768 48.6044 75.115 49.4841 75.0044 49.814 74.8938 50.1269 74.6983 50.4738 74.6725 53.108 74.4762 55.7856 74.7775 58.391 74.3406 59.1732 74.2094 60.3703 73.0131 60.3703 73.0131 61.9098 70.69 61.0301 71.4643 62.6795 70.3581 64.219 68.035 63.3393 68.8093 64.9887 67.7031 65.6452 65.7217 65.4878 66.4499 65.6485 63.0568 65.8107 59.6295 65.8684 56.1979 65.9784 52.7686 65.8684 49.7817 65.9175 46.7845 65.6485 43.8079 65.5855 43.1111 65.1251 42.5027 64.9887 41.8166 63.8476 36.0764 65.6732 44.903 63.9991 38.166 63.2567 35.1785 64.1115 38.8449 63.3393 34.1834 63.2648 33.7335 63.1193 33.2984 63.0094 32.8559 62.6862 28.6285 62.8112 29.369 62.3496 25.8865 62.2469 25.1111 62.1589 24.333 62.0197 23.5633 61.9386 23.1146 61.7998 22.6783 61.6899 22.2358 61.5799 21.1296 61.5162 20.0176 61.36 18.917 61.1542 17.4686 61.0136 17.8547 60.7002 16.5939 60.5642 16.0467 60.5179 15.4787 60.3703 14.9345 60.1654 14.1786 59.2918 11.2541 58.391 10.952L57.4014 10.6201C57.1814 10.2882 57.0512 9.87365 56.7416 9.62446 56.4701 9.40589 56.0559 9.46244 55.7519 9.29258 55.0588 8.9052 54.4324 8.40754 53.7726 7.96507L52.783 7.30131C52.4531 7.08003 52.1694 6.76372 51.7933 6.63756L49.814 5.9738C49.4841 5.86321 49.1137 5.83593 48.8243 5.64192 45.9882 3.73971 49.5766 6.02032 46.845 4.64629 46.4904 4.46786 46.2177 4.14455 45.8554 3.98253 45.2198 3.69843 44.4547 3.70689 43.8761 3.31878 42.814 2.60642 42.9225 2.51799 41.5669 2.32314 33.3036 1.1356 42.6394 2.7445 35.6289 1.65939 35.0747 1.57357 34.5204 1.47594 33.9795 1.32751 33.3085 1.14344 32.66 0.885042 32.0002 0.663756 31.6703 0.553165 31.3479 0.416755 31.0105 0.331878L29.691 0 25.0726 0.331878C24.3336 0.621004 24.5228 1.99127 24.4128 2.32314Z" stroke="#000000" stroke-miterlimit="8" fill="#595959" fill-rule="evenodd" transform="matrix(1.00033 0 -0 1 110.5 42.5)"/><path d="M71.6431 4.33333 71.6431 4.33333C70.8656 3.77774 70.1493 3.12441 69.3106 2.66667 68.9085 2.44725 68.4164 2.46499 67.9777 2.33333L64.9787 1.33333C64.6454 1.22226 64.2713 1.19486 63.979 1 62.687 0.138478 63.3592 0.460053 61.9796 0L36.9879 0.333333C34.5453 0.394436 36.1269 0.699108 34.3221 1 31.4344 1.48147 31.7893 1.11853 29.3237 1.66667 28.9808 1.74289 28.6618 1.90352 28.324 2 24.7988 3.00756 29.7431 1.41575 24.9918 3L23.9921 3.33333C23.6589 3.66667 23.3846 4.07181 22.9924 4.33333 22.7002 4.52819 22.3069 4.5095 21.9928 4.66667 21.6346 4.84588 21.3263 5.11108 20.9931 5.33334 20.2 7.71339 20.9111 6.94352 19.327 8 19.056 8.81334 18.9733 9.35381 18.3273 10 18.0442 10.2833 17.6609 10.4444 17.3276 10.6667 16.4901 13.1802 17.7173 10.1794 15.9947 12.3333 14.1552 14.6334 17.5267 12.0895 14.6618 14 14.5508 14.3333 14.4992 14.6928 14.3286 15 13.9397 15.7004 13.249 16.2399 12.9957 17 12.8847 17.3333 12.8196 17.6858 12.6625 18 12.4834 18.3583 12.1587 18.6339 11.9961 19 11.7108 19.6422 11.7193 20.4153 11.3296 21 11.1074 21.3333 10.8258 21.6339 10.6632 22 10.3779 22.6422 10.3864 23.4153 9.99672 24 8.08679 26.8658 10.3766 23.2399 8.99704 26 8.81789 26.3583 8.50975 26.6417 8.3306 27 8.17348 27.3142 8.16792 27.6928 7.99737 28 7.60842 28.7004 7.10874 29.3333 6.66448 30L5.33158 32C5.1094 32.3333 4.79181 32.62 4.66513 33L3.66546 36 3.33224 37C3.2212 37.3333 3.08424 37.6591 2.99901 38 2.49545 40.0151 2.81063 38.8987 1.99934 41.3333L0.999672 44.3334C0.888632 44.6667 0.735297 44.9888 0.666448 45.3334 0.264375 47.3446 0.512378 46.4625 0 48 0.11104 50 0.166979 52.0039 0.333224 54 0.370062 54.4429 0.88097 57.6986 1.3329 58L2.33257 58.6667C3.17009 61.1802 2.04027 58.082 3.33224 60.6667 3.48935 60.9809 3.49492 61.3595 3.66546 61.6667 4.05442 62.3671 4.55409 63 4.99836 63.6667L5.66481 64.6667C5.88699 65 6.20458 65.2866 6.33125 65.6667 7.12438 68.0467 6.41322 67.2769 7.99737 68.3334 8.21956 68.6667 8.3624 69.0695 8.66382 69.3334 9.26656 69.861 9.99672 70.2223 10.6632 70.6667 10.9964 70.889 11.2829 71.2066 11.6628 71.3334L16.6612 73 20.6599 74.3334 21.6596 74.6667C21.9928 74.7778 22.3669 74.8052 22.6592 75 22.9924 75.2223 23.2929 75.504 23.6589 75.6667 25.6175 76.5375 26.7677 76.4441 28.9905 77 29.4347 77.1111 29.8666 77.2996 30.3234 77.3334 32.8735 77.5223 35.4328 77.5556 37.9875 77.6667 38.734 77.9156 39.543 78.2138 40.3201 78.3334 44.0169 78.9023 48.5624 78.8684 51.9829 79 54.8709 78.889 57.7693 78.9365 60.6467 78.6667 61.3461 78.6011 61.9796 78.2223 62.6461 78L63.6458 77.6667C63.979 77.5556 64.301 77.4022 64.6454 77.3334 65.2008 77.2223 65.7652 77.1491 66.3116 77 66.9893 76.8151 67.618 76.4488 68.3109 76.3334 70.8689 75.9069 69.6477 76.1326 71.9764 75.6667 72.3096 75.4444 72.7258 75.3129 72.976 75 74.2685 73.3839 72.1278 74.3939 74.3089 73.6667 74.42 73.3334 74.3937 72.9152 74.6421 72.6667 75.2085 72.1002 76.6415 71.3334 76.6415 71.3334 76.7525 71 76.7553 70.6077 76.9747 70.3334 77.4445 69.746 78.3155 69.553 78.9741 69.3334 79.1962 68.6667 79.2508 67.918 79.6405 67.3334 79.8627 67 80.1443 66.6994 80.307 66.3334 80.5922 65.6912 80.5837 64.918 80.9734 64.3334 81.1956 64 81.4607 63.6917 81.6398 63.3334 82.0442 62.5242 82.0781 61.5034 82.3063 60.6667 82.4911 59.9887 82.8573 59.3598 82.9727 58.6667 83.0838 58 83.1421 57.3223 83.306 56.6667 83.4763 55.9849 83.7502 55.3334 83.9724 54.6667 84.0835 54.3334 84.2368 54.0113 84.3056 53.6667L84.6389 52C84.7499 50.6667 84.9721 49.338 84.9721 48 84.9721 42.4434 84.8407 36.8863 84.6389 31.3333 84.6183 30.7672 84.4069 30.2241 84.3056 29.6667 84.1847 29.0017 84.0752 28.3347 83.9724 27.6667 83.853 26.8901 83.7797 26.1064 83.6392 25.3333 83.5572 24.8826 83.4054 24.4473 83.306 24 82.6779 21.1731 83.3466 23.4552 82.3063 20.3333 82.1953 20 82.2654 19.5282 81.9731 19.3333L80.9734 18.6667C79.7582 15.0196 81.6963 20.5437 79.9737 16.6667 79.6885 16.0245 79.697 15.2513 79.3073 14.6667 79.0851 14.3333 78.82 14.025 78.6408 13.6667 78.4837 13.3524 78.4782 12.9739 78.3076 12.6667 77.9187 11.9663 77.419 11.3333 76.9747 10.6667 76.7525 10.3333 76.4349 10.0467 76.3083 9.66667 76.1972 9.33334 76.1698 8.95906 75.975 8.66667 75.7136 8.27444 75.3086 8 74.9754 7.66667 74.1379 5.15318 75.2677 8.25134 73.9757 5.66667 73.8186 5.35244 73.8373 4.95906 73.6425 4.66667 73.381 4.27444 71.9764 4.38887 71.6431 4.33333Z" stroke="#000000" stroke-miterlimit="8" fill="#595959" fill-rule="evenodd" transform="matrix(1.00033 0 -0 1 94.5 117.5)"/><path d="M22.9525 27.2328 22.9525 27.2328C22.8417 24.5431 22.8849 21.8425 22.6199 19.1638 22.5501 18.4586 22.1764 17.819 21.9546 17.1466L21.6219 16.1379C21.5111 15.1293 21.4863 14.1073 21.2893 13.1121 21.1517 12.417 20.8458 11.7673 20.624 11.0948 20.5132 10.7586 20.3601 10.4338 20.2914 10.0862 20.1805 9.52583 20.0959 8.95952 19.9587 8.40518 19.8736 8.06135 19.8741 7.6472 19.6261 7.39656 19.3781 7.14591 18.9608 7.17238 18.6281 7.06035 18.3352 6.17223 17.8228 4.32346 16.9649 4.03449L15.967 3.69828C15.4025 1.98664 16.088 3.1685 14.6364 2.35345 13.9375 1.96101 13.3058 1.45686 12.6405 1.00862 12.3079 0.784448 12.0219 0.464019 11.6426 0.336207L10.6446 0C8.13635 0.845018 11.2281-0.294909 8.64878 1.00862 5.89437 2.40057 9.51282 0.09022 6.65291 2.01724 6.43111 2.35345 6.32665 2.81175 5.98761 3.02586 5.39294 3.40157 4.57521 3.3051 3.99174 3.69828 2.70202 4.56723 3.37308 4.24288 1.99587 4.7069 1.15981 7.24206 2.28766 4.11719 0.997936 6.72414-0.379268 9.50805 1.90661 5.85085 0 8.74139 0.110847 11.431 0.135887 14.1257 0.332645 16.8104 0.413528 17.9139 0.901966 17.853 1.33058 18.8276 1.61535 19.4753 1.99587 20.8448 1.99587 20.8448 2.11049 23.1621 1.95574 26.6359 2.66116 29.25 2.84566 29.9339 3.10465 30.5949 3.32645 31.2673 3.67314 32.3184 4.00924 33.6326 4.98968 34.2931L5.98761 34.9655C6.09846 35.3018 6.07227 35.7235 6.32026 35.9742 6.8856 36.5456 7.65084 36.8708 8.31613 37.319L9.31407 37.9914C9.64671 38.2156 9.93274 38.536 10.312 38.6638L11.3099 39C13.9711 38.888 16.6432 38.9317 19.2934 38.6638 19.9912 38.5933 21.2893 37.9914 21.2893 37.9914 21.6173 37.494 22.892 35.945 22.9525 34.9655 23.0424 33.5114 22.9525 28.5216 22.9525 27.2328Z" stroke="#000000" stroke-miterlimit="8" fill="#D9D9D9" fill-rule="evenodd" transform="matrix(1.00033 0 -0 1 188.5 100.5)"/><path d="M25.822 0.672077 25.822 0.672077C25.3329 0.698219 19.3799 0.449498 17.5658 1.68019 13.1675 4.66379 19.6862 0.369589 15.5843 2.68831 14.8904 3.08055 14.2633 3.58444 13.6028 4.03246L12.6121 4.70454C10.8508 7.39285 13.1626 4.14444 10.9609 6.38473 8.75919 8.62502 11.9516 6.27275 9.30964 8.06492 7.76845 10.4172 8.64914 9.63314 6.99791 10.7532 6.16787 13.2871 7.28759 10.1638 6.00717 12.7695 5.46993 13.8627 5.96286 13.8227 5.01643 14.7857 4.73579 15.0712 4.35593 15.2337 4.02569 15.4578 3.69471 16.4681 3.7463 16.6055 3.03494 17.474 2.12201 18.5888 1.99864 18.2388 1.38371 19.4902 1.11972 20.0274 0.864259 21.3401 0.723215 21.8425 0.627625 22.1831 0.503016 22.5146 0.392968 22.8506 0.0847721 25.0461-0.310692 26.5721 0.392968 28.8993 0.509673 29.2853 1.05346 29.3473 1.38371 29.5714 3.32327 32.5317 0.195236 27.4052 2.37445 34.612 2.4768 34.9505 3.05387 34.7896 3.36519 34.948 3.72019 35.1287 4.00093 35.4394 4.35593 35.6201 5.15757 36.0279 6.16891 36.0621 6.99791 36.2921 7.66964 36.4785 8.3189 36.7402 8.97939 36.9642L9.97013 37.3003C11.0835 38.9997 10.0262 37.8328 11.6214 38.6444 11.9764 38.8251 12.2494 39.1524 12.6121 39.3165 15.5376 40.6395 17.5308 40.138 21.1985 40.3246 24.4222 41.418 21.9096 40.9152 25.1615 40.6606 27.3594 40.4887 29.5648 40.4366 31.7664 40.3246 31.9866 39.9886 32.0903 39.5305 32.4269 39.3165 33.0173 38.941 34.4084 38.6444 34.4084 38.6444 34.6286 38.3084 34.7589 37.8886 35.0689 37.6363 35.3407 37.415 35.7483 37.4587 36.0596 37.3003 36.4146 37.1196 36.6954 36.8089 37.0504 36.6282 39.7849 35.2369 36.1926 37.5461 39.0319 35.6201 39.2521 35.284 39.4117 34.8975 39.6924 34.612 39.973 34.3264 40.4351 34.2553 40.6831 33.9399 42.5062 31.6212 39.1648 34.1857 42.0041 32.2597 42.1141 31.9237 42.1786 31.5683 42.3343 31.2516 42.5119 30.8903 42.8808 30.6303 42.9948 30.2435 43.2185 29.4848 43.15 28.663 43.3251 27.8912 43.4816 27.2009 43.9856 25.875 43.9856 25.875 43.8755 19.8263 43.9427 13.7715 43.6553 7.72888 43.6114 6.80629 43.215 5.93671 42.9948 5.04058 42.7169 3.90937 42.5271 2.54839 41.6738 1.68019 41.1358 1.13269 40.4086 0.854331 39.6924 0.672077 37.6266 0.146587 36.5098 0.206174 34.0782 0 28.1342 0.355724 27.198 0.560099 25.822 0.672077Z" stroke="#000000" stroke-miterlimit="8" fill="#D9D9D9" fill-rule="evenodd" transform="matrix(1.00033 0 -0 1 52.5 153.5)"/></g></svg>