<svg width="301" height="250" xmlns="http://www.w3.org/2000/svg" xmlns:xlink="http://www.w3.org/1999/xlink" overflow="hidden"><defs><clipPath id="clip0"><path d="M0 0 301 0 301 250 0 250Z" fill-rule="evenodd" clip-rule="evenodd"/></clipPath></defs><g clip-path="url(#clip0)"><rect x="0" y="0" width="300.901" height="250" fill="#D3D3C3" transform="scale(1.00033 1)"/><path d="M19.4142 1 19.4142 1C18.4182 1.22226 17.416 1.41816 16.4262 1.66667 16.0867 1.75192 15.7761 1.94656 15.4302 2 14.331 2.16977 13.2169 2.22226 12.1103 2.33334 9.60687 3.17113 12.6926 2.04095 10.1183 3.33334 9.80534 3.4905 9.43528 3.50951 9.12231 3.66667 8.76543 3.84588 8.49095 4.17061 8.12633 4.33334 6.70622 4.96704 6.1584 4.94552 4.80636 5.33334 4.46987 5.42982 4.14237 5.5556 3.81037 5.66667 3.58901 6.00001 3.45799 6.41639 3.14638 6.66667 2.87315 6.8862 2.3979 6.7515 2.15039 7.00001 1.90289 7.24851 1.98832 7.69282 1.8184 8.00001 1.43088 8.70038 0.490413 10 0.490413 10-0.215092 13.5415-0.109899 12.3063 0.490413 18.3334 0.602717 19.4608 1.02976 20.5405 1.15441 21.6667 1.54872 25.2297 1.28982 23.68 1.8184 26.3334 1.70777 28.6667 1.58532 30.9995 1.4864 33.3334 1.36396 36.2218 1.3398 39.115 1.15441 42 1.11812 42.5654 0.970893 43.1202 0.822409 43.6667 0.638269 44.3447 0.158417 45.6667 0.158417 45.6667 0.269048 50.0001 0.285046 54.3369 0.490413 58.6667 0.507039 59.0177 0.737502 59.3258 0.822409 59.6667 1.01178 60.4275 1.10693 61.5714 1.4864 62.3334 1.6649 62.6917 1.9719 62.9751 2.15039 63.3334 2.30693 63.6476 2.31247 64.0262 2.48239 64.3334 3.62163 66.3922 3.35144 66.0262 4.80636 67.0001 6.03323 68.8477 4.76841 67.3863 6.46634 68.3334 7.1639 68.7225 7.79433 69.2223 8.45832 69.6667 8.79032 69.889 9.07578 70.2067 9.45431 70.3334L11.4463 71.0001C11.7783 71.1112 12.0937 71.303 12.4423 71.3334L20.0782 72.0001C20.6315 72.1112 21.1908 72.196 21.7382 72.3334 22.0777 72.4187 22.3932 72.5877 22.7342 72.6667 23.8339 72.9216 24.9475 73.1112 26.0541 73.3334 26.6075 73.4445 27.1787 73.4875 27.7141 73.6667L28.7101 74.0001 36.678 73.6667C39.3961 73.5014 38.931 73.5794 40.6619 73.0001 41.4964 70.4866 40.3707 73.5848 41.6579 71.0001 41.8145 70.6859 41.8793 70.3334 41.9899 70.0001 42.1006 68.7778 42.1096 67.542 42.3219 66.3334 42.4435 65.6413 42.9859 64.3334 42.9859 64.3334 42.8753 63.6667 42.7149 63.0065 42.6539 62.3334 42.4933 60.5594 42.5616 58.765 42.3219 57.0001 41.8009 53.1637 41.5954 56.8118 40.33 53.0001L39.334 50.0001C39.2233 49.6667 39.0869 49.3409 39.002 49.0001L38.67 47.6667C38.5593 46.3334 38.5993 44.9787 38.338 43.6667 38.2598 43.2739 37.8361 43.0328 37.674 42.6667 37.3898 42.0245 37.2314 41.3334 37.01 40.6667L36.678 39.6667C36.5674 38.7778 36.3739 37.8954 36.346 37 36.1524 30.7799 36.3136 24.5493 36.014 18.3334 35.9802 17.6314 35.5714 17 35.35 16.3334L33.69 11.3333 31.0341 3.33334 30.3701 1.33333C30.2594 1 30.3701 0.44441 30.0381 0.333334L29.0421 0C28.0461 0.111076 27.0263 0.0893439 26.0541 0.333334 23.647 0.937534 26.8903 1.66667 23.0662 1.66667L19.4142 1Z" stroke="#000000" stroke-miterlimit="8" fill="#A6A6A6" fill-rule="evenodd" transform="matrix(1.00033 0 -0 1 43.5 34.5)"/><path d="M22.0628 0 22.0628 0C20.0884 0.112271 18.1102 0.16883 16.1396 0.336918 15.4747 0.39369 14.8278 0.594037 14.1652 0.673836 12.9619 0.81879 11.7521 0.898483 10.5455 1.01075 10.2164 1.12302 9.86154 1.17523 9.55828 1.34767 8.86688 1.74094 7.58388 2.69534 7.58388 2.69534 6.70633 5.39069 8.0226 2.24615 6.26761 4.04301 2.42846 7.97376 6.76126 4.82912 3.96414 6.73836 3.85449 7.07527 3.79023 7.43151 3.63508 7.74911 3.45816 8.11128 3.13759 8.38984 2.97694 8.75986 2.69524 9.40897 2.31881 10.7814 2.31881 10.7814 2.20915 14.2628 2.18956 17.7485 1.98974 21.2258 1.9287 22.2879 1.40488 22.3205 1.00254 23.2473 0.720838 23.8964 0.344406 25.2688 0.344406 25.2688 0.107789 31.3251-0.295279 32.4855 0.344406 37.3979 0.404208 37.8568 0.543505 38.302 0.673473 38.7456 0.872779 39.4259 1.33161 40.7671 1.33161 40.7671 1.44126 42.227 1.43763 43.7006 1.66067 45.147 1.76888 45.8486 2.0994 46.4947 2.31881 47.1685 2.42846 47.5054 2.45551 47.8837 2.64787 48.1793 2.86729 48.5162 3.12909 48.8278 3.30601 49.19 3.46116 49.5076 3.47992 49.8832 3.63508 50.2008 4.91092 52.8132 3.7952 49.6817 4.62228 52.2223 5.09603 59.4986 5.08017 56.556 4.62228 65.699 4.38918 70.3527 4.62891 69.0409 3.96414 71.7635 4.0738 75.6942 4.09649 79.6285 4.29321 83.5556 4.31632 84.0181 4.49801 84.458 4.62228 84.9033 4.8364 85.6705 5.0326 86.3342 5.60948 86.9248 5.88911 87.2111 6.26761 87.374 6.59668 87.5986 7.15511 89.3139 6.47697 88.1295 7.91295 88.9463 10.5452 90.4435 9.06629 90.2523 11.8617 90.9678 12.5975 91.1562 14.6717 91.6505 15.1524 91.9786 17.9816 93.9097 14.402 91.5944 17.1268 92.9893 19.6784 94.2956 16.6199 93.1533 19.1012 94.0001 20.8562 93.8878 22.6215 93.8864 24.3663 93.6632 25.6885 93.4939 27.6618 92.7631 28.9732 92.3155 29.3023 92.2032 29.6136 91.9858 29.9604 91.9786L46.0847 91.6417 50.0335 90.294 51.0207 89.9571C51.3498 89.8448 51.7193 89.8171 52.0079 89.6201L52.9951 88.9463C53.2145 88.2725 53.6756 87.6347 53.6532 86.9248 53.3026 75.7976 53.8834 79.9163 52.9951 74.4588 53.1048 73.2234 53.1137 71.9744 53.3242 70.7527 53.4447 70.0532 53.9823 68.7312 53.9823 68.7312 53.8727 64.6882 53.8505 60.6417 53.6532 56.6022 53.6307 56.1397 53.4542 55.6981 53.3242 55.2545 53.0252 54.234 52.666 53.233 52.337 52.2223L52.0079 51.2115C51.8983 50.8746 51.8712 50.4963 51.6788 50.2008 51.4594 49.8638 51.1814 49.56 51.0207 49.19 50.739 48.5409 50.582 47.8423 50.3626 47.1685 50.2529 46.8316 50.2259 46.4533 50.0335 46.1577 48.1474 43.2611 50.4087 46.926 49.0463 44.1362 48.8694 43.7741 48.5488 43.4955 48.3882 43.1255 48.1065 42.4764 48.1149 41.6949 47.73 41.104 47.5106 40.7671 47.2326 40.4633 47.0719 40.0932 45.5056 36.4848 47.2451 39.3484 45.7556 37.061 44.8495 33.3497 45.539 36.5481 45.0975 28.638 45.0097 27.0643 44.8781 25.4935 44.7684 23.9212 44.6588 18.5305 44.7314 13.1327 44.4394 7.74911 44.4009 7.03994 44.0007 6.40144 43.7812 5.7276 43.6716 5.39069 43.7408 4.9138 43.4522 4.71685 42.794 4.26766 42.2639 3.45863 41.4778 3.36918 40.052 3.20693 38.0189 3.03141 36.5418 2.69534 36.2032 2.6183 35.8881 2.45595 35.5546 2.35843 34.9903 2.19341 33.0807 1.72799 32.593 1.68459 30.6229 1.50918 28.6442 1.45994 26.6698 1.34767 23.9319 0.94719 22.8306 0.224647 22.0628 0Z" stroke="#000000" stroke-miterlimit="8" fill="#A6A6A6" fill-rule="evenodd" transform="matrix(1.00033 0 -0 1 43.5 104.5)"/><path d="M27.8191 0 27.8191 0C21.9682 0.111077 16.1109 0.0342258 10.2666 0.333335 9.56927 0.36903 8.94186 0.777745 8.2795 1 7.94832 1.11108 7.57646 1.13848 7.28596 1.33334L6.29242 2.00001C5.06856 3.84768 6.33028 2.38626 4.63652 3.33334 3.94068 3.72243 2.64944 4.66668 2.64944 4.66668 2.06656 6.42679 2.51186 5.3743 0.99354 7.66669 0.772718 8.00003 0.45708 8.28664 0.33118 8.6667L0 9.6667C0.236989 10.8591 0.140817 11.4751 0.99354 12.3334 1.27496 12.6166 1.6559 12.7778 1.98708 13 2.59134 13.9123 2.59718 14.1989 3.64298 14.6667 4.28103 14.9521 5.04916 14.9436 5.63006 15.3334 5.96124 15.5556 6.26759 15.8208 6.6236 16.0001 6.93579 16.1572 7.28032 16.2409 7.61714 16.3334 10.5896 17.1494 9.89169 16.9529 12.916 17.3334 18.0425 19.0533 12.7477 17.0821 15.8966 18.6667 16.2088 18.8239 16.578 18.8429 16.8902 19.0001 17.9396 19.5282 17.7118 19.8325 18.8773 20.0001 22.4736 20.5171 29.805 20.5752 32.1244 20.6667L39.4104 21.0001C42.7222 20.889 46.0436 20.9437 49.3458 20.6667 50.0415 20.6084 51.3329 20.0001 51.3329 20.0001 52.2161 17.3334 50.8913 20.4445 52.6576 18.6667 52.9045 18.4182 52.8326 17.981 52.9888 17.6667 54.2728 15.082 53.1499 18.1802 53.9823 15.6667 53.5386 12.5402 54.0841 13.9871 52.3264 11.3334L50.3393 8.33336C50.1185 8.00003 50.0546 7.46008 49.677 7.33336 47.9282 6.74669 48.9739 7.19488 46.6964 5.66669 46.3652 5.44443 46.0804 5.12674 45.7028 5.00002L43.7157 4.33335C43.3846 4.22227 43.0678 4.04967 42.7222 4.00001 39.5228 3.53996 41.1785 3.76411 37.7545 3.33334L35.7674 2.66668C35.4362 2.5556 35.1126 2.41859 34.7739 2.33334 34.3323 2.22227 33.8868 2.12589 33.4492 2.00001 33.1135 1.90352 32.8035 1.69586 32.4556 1.66667 31.4655 1.58363 28.5918 0.277796 27.8191 0Z" stroke="#000000" stroke-miterlimit="8" fill="#595959" fill-rule="evenodd" transform="matrix(1.00033 0 -0 1 112.5 101.5)"/><path d="M32.794 0 32.794 0C27.7148 0.111631 22.6283 0.0390394 17.5564 0.335 16.8592 0.375728 16.2464 0.833754 15.5689 1.005L14.2438 1.34C13.1491 2.07805 13.2097 1.7401 12.9188 3.015 12.6656 4.12467 12.2563 6.365 12.2563 6.365 12.1459 7.705 12.1437 9.05861 11.9251 10.385 11.8103 11.0816 11.4834 11.725 11.2626 12.395L10.2688 15.41C10.1584 15.745 9.99495 16.0667 9.93757 16.415 9.67726 17.9944 9.67037 18.3657 9.27506 19.765 9.17918 20.1045 9.09999 20.4542 8.94381 20.77 8.76572 21.1301 8.4594 21.4149 8.28131 21.775 8.12512 22.0908 8.10624 22.4642 7.95005 22.78 7.77196 23.1401 7.46564 23.4249 7.28755 23.785 6.74868 24.8748 7.2431 24.8349 6.29379 25.795 6.01231 26.0797 5.63129 26.2416 5.30004 26.465 5.07917 26.8 4.91902 27.1853 4.63753 27.47 4.35604 27.7547 3.8925 27.8256 3.64377 28.14 3.42562 28.4157 3.46871 28.8292 3.31252 29.145 2.59785 30.5905 2.65179 29.6393 2.31877 31.155 2.17301 31.818 2.15037 32.5061 1.98751 33.165 1.81818 33.8502 1.32501 35.175 1.32501 35.175 1.43539 36.7384 1.48516 38.3072 1.65626 39.865 1.70655 40.3226 1.98751 40.7445 1.98751 41.205 1.98751 43.5526 1.84907 45.9005 1.65626 48.24 1.55527 49.4651 1.31551 49.2482 0.331252 49.58 0.22087 50.0266 0 50.4595 0 50.92 0 53.033 0.377575 53.7404 0.993757 55.61L1.32501 56.615C1.43539 56.95 1.46262 57.3261 1.65626 57.62 1.87713 57.955 2.14067 58.2649 2.31877 58.625 2.47495 58.9408 2.43186 59.3543 2.65002 59.63 3.22269 60.3539 5.02397 60.7653 5.63129 60.97L7.6188 61.64 8.61256 61.975C8.94381 62.0866 9.26755 62.2243 9.60631 62.31 10.0479 62.4216 10.4869 62.5451 10.9313 62.645 12.7724 63.0587 12.5975 62.9514 14.5751 63.315 15.129 63.4168 15.6769 63.551 16.2314 63.65 17.5542 63.8861 18.9321 63.8904 20.2064 64.32 21.313 64.6931 21.2773 64.7095 22.5252 64.99 23.0748 65.1135 23.6318 65.2014 24.1814 65.325 24.6259 65.4249 25.0686 65.5335 25.5064 65.66 25.8422 65.757 26.1614 65.9093 26.5002 65.995 27.9213 66.3543 28.6672 66.3663 30.144 66.665 30.5904 66.7553 31.0273 66.8884 31.469 67 34.3398 66.8884 37.2149 66.8583 40.0815 66.665 40.5358 66.6344 40.9621 66.4299 41.4065 66.33 41.9561 66.2064 42.5166 66.1331 43.0628 65.995 43.4016 65.9093 43.7082 65.6835 44.0565 65.66 47.0332 65.4593 50.0191 65.4366 53.0004 65.325 53.2212 64.655 53.4935 64.0002 53.6629 63.315 53.937 62.2057 54.144 60.8184 54.9879 59.965 55.2694 59.6803 55.6504 59.5184 55.9816 59.295 55.8712 57.285 55.8973 55.2625 55.6504 53.265 55.5638 52.5642 55.2087 51.925 54.9879 51.255 54.5307 49.868 54.8503 50.5438 53.9941 49.245 53.8837 48.575 53.765 47.9064 53.6629 47.235 53.5441 46.4545 53.4848 45.6642 53.3316 44.89 53.2632 44.5437 53.1107 44.22 53.0004 43.885 52.89 41.205 52.9331 38.514 52.6691 35.845 52.5996 35.1423 52.2275 34.505 52.0066 33.835L51.6753 32.83C51.565 31.49 51.4031 30.1533 51.3441 28.81 51.1823 25.1269 51.2924 21.4308 51.0128 17.755 50.8575 15.7122 50.3768 16.1336 49.6878 14.74 49.5316 14.4242 49.5128 14.0508 49.3566 13.735 49.1785 13.3749 48.8722 13.0901 48.6941 12.73 48.5379 12.4142 48.519 12.0408 48.3628 11.725 48.1847 11.3649 47.8784 11.0801 47.7003 10.72 47.5441 10.4042 47.5252 10.0308 47.3691 9.715 47.191 9.35489 46.8847 9.07011 46.7066 8.71 46.1677 7.62017 46.6621 7.66005 45.7128 6.7 45.4313 6.41533 45.0503 6.25337 44.719 6.03 43.9963 3.83725 45.0001 5.98938 43.394 4.69 41.5997 3.23837 43.9737 4.02 41.7378 3.015L38.7565 2.01C38.4253 1.89837 38.1107 1.70433 37.7628 1.675 32.3572 1.2194 33.622 0.279184 32.794 0Z" stroke="#000000" stroke-miterlimit="8" fill="#595959" fill-rule="evenodd" transform="matrix(1.00033 0 -0 1 189.5 74.5)"/><path d="M87.8596 6.66666 87.8596 6.66666C87.7397 6.64094 83.2935 5.74425 81.8538 5.33333 81.5156 5.23685 81.1603 5.1706 80.8528 5 80.1517 4.61092 79.6466 3.76609 78.8508 3.66667 77.2105 3.46184 75.7831 3.32042 74.1795 3 73.7299 2.91013 73.2842 2.79832 72.8449 2.66667 72.1712 2.46478 71.5409 2.08714 70.8429 2L68.1736 1.66667C64.7258 1.77774 61.2797 2 57.8302 2 56.0472 2 54.2736 1.72703 52.4916 1.66667 47.7105 1.50478 42.9266 1.44441 38.1441 1.33333 31.2709 1.57858 29.6894 1.95297 23.7967 1.33333 23.3406 1.28535 22.9117 1.08987 22.4621 1 21.7986 0.867401 21.1164 0.830551 20.4601 0.666666 19.7776 0.496273 18.4581 0 18.4581 0 17.4575 0.166614 15.3355 0.413123 14.4542 1 13.1605 1.86152 13.8336 1.53995 12.4522 2 10.5398 4.86583 13.0862 1.49323 10.7839 3.33333 10.4708 3.58362 10.4184 4.0695 10.1166 4.33333 9.51307 4.861 8.11464 5.66666 8.11464 5.66666 7.89216 6 7.74914 6.40283 7.44732 6.66666 6.84378 7.19433 5.44535 8 5.44535 8 4.60673 10.5135 5.73803 7.41533 4.44437 10 4.28705 10.3142 4.26802 10.6858 4.11071 11 3.93132 11.3583 3.60627 11.6339 3.44338 12 3.15775 12.6422 3.16626 13.4153 2.77606 14 2.55358 14.3333 2.27163 14.6339 2.10874 15 1.8231 15.6422 1.66389 16.3333 1.44142 17L1.10775 18 0.774094 19C0.662908 22.2222 0.614672 25.4472 0.440433 28.6667 0.164676 33.7623-0.395034 28.9051 0.440433 36 0.569483 37.0956 0.956951 37.0319 1.44142 38 3.20325 41.5202-1.0984 34.6939 3.10972 41L3.77704 42C3.99952 42.3333 4.31752 42.6199 4.44437 43 5.03161 44.7601 4.58298 43.7076 6.11267 46L6.77999 47C7.00247 47.3333 7.11366 47.7777 7.44732 48L8.4483 48.6666C9.24162 51.0444 8.11674 48.1697 9.78294 50.6666 9.97799 50.959 9.95929 51.3524 10.1166 51.6666 10.296 52.025 10.6045 52.3083 10.7839 52.6666 10.9412 52.9809 10.9468 53.3595 11.1176 53.6666 12.2625 55.7254 11.991 55.3595 13.4532 56.3333 14.2046 58.5853 13.1625 56.1443 14.7879 58 15.316 58.6029 15.6777 59.3333 16.1225 60 16.345 60.3333 16.4562 60.7777 16.7898 61L17.7908 61.6666C18.0133 62 18.1181 62.4544 18.4581 62.6666 19.0546 63.0391 20.4601 63.3333 20.4601 63.3333 20.6826 63.6666 20.8256 64.0695 21.1274 64.3333 21.731 64.861 22.3685 65.4133 23.1294 65.6666L26.1323 66.6666 28.1343 67.3333 29.1353 67.6666C29.3578 68 29.4894 68.4164 29.8026 68.6666 30.0772 68.8862 30.4891 68.8428 30.8036 69 31.1623 69.1792 31.4381 69.5039 31.8046 69.6666 32.4474 69.952 33.1392 70.111 33.8065 70.3333L34.8075 70.6666 35.8085 71C36.1422 71.111 36.5168 71.1384 36.8095 71.3333 37.1432 71.5556 37.444 71.8372 37.8105 72 39.6511 72.8172 39.6866 72.5519 41.4808 73 41.822 73.0852 42.1327 73.2897 42.4817 73.3333 43.9206 73.513 45.3735 73.5556 46.8193 73.6666 47.2642 73.7777 47.7147 73.8683 48.154 74 48.8277 74.2019 49.4596 74.5672 50.1559 74.6666 51.2777 74.8267 53.3362 75.102 54.4935 75.3333 54.9432 75.4232 55.3785 75.5768 55.8282 75.6666 56.4916 75.7992 57.1645 75.879 57.8302 76 58.3881 76.1013 58.9371 76.2532 59.4985 76.3333 60.4954 76.4756 61.5004 76.5556 62.5014 76.6666 64.5185 77.1704 63.401 76.8551 65.838 77.6666L66.839 78C67.1727 78.111 67.4931 78.2756 67.84 78.3333 68.5073 78.4444 69.1785 78.534 69.8419 78.6666 70.2916 78.7565 70.7205 78.952 71.1766 79 72.8394 79.1749 74.5128 79.2292 76.1815 79.3333 85.1163 79.8912 78.5758 79.4148 86.1913 80 92.0906 80.9822 84.7318 79.7349 89.8616 80.6666 90.5273 80.7876 91.1963 80.8889 91.8636 81 93.4207 80.8889 94.9881 80.8773 96.5348 80.6666 102.983 79.7882 95.2156 80.0658 102.207 79.6666 105.096 79.5017 107.991 79.4617 110.882 79.3333L117.222 79 128.233 78.6666 137.242 78.3333C143.291 76.3187 135.724 78.7467 140.912 77.3333 142.399 76.9279 143.072 76.4493 144.582 76.3333 146.913 76.1541 149.253 76.111 151.589 76 152.367 75.8889 153.153 75.8208 153.925 75.6666 154.824 75.4869 155.694 75.1797 156.594 75L158.262 74.6666C159.643 73.977 159.95 73.7452 161.599 73.3333 162.345 73.1469 164.448 72.6579 164.935 72.3333 166.229 71.4718 165.556 71.7934 166.937 71.3333 167.605 70.6666 168.416 70.1178 168.939 69.3333 169.829 68 169.273 68.5556 170.608 67.6666 170.719 67.3333 170.906 67.0162 170.941 66.6666 171.13 64.7839 170.873 62.8489 171.275 61 171.445 60.217 172.356 59.7601 172.61 59L172.943 58C172.832 56.4444 172.782 54.8833 172.61 53.3333 172.525 52.5776 171.776 50.5028 171.609 50 171.497 49.6666 171.47 49.2924 171.275 49 171.052 48.6666 170.77 48.3661 170.608 48 170.322 47.3578 170.33 46.5847 169.94 46L167.938 43 165.936 40C165.714 39.6667 165.649 39.1267 165.269 39L164.268 38.6666C163.823 38 163.694 36.92 162.933 36.6667 162.266 36.4444 161.517 36.3898 160.931 36 159.638 35.1385 160.311 35.46 158.929 35 157.017 32.1342 159.563 35.5068 157.261 33.6667 155.105 31.9435 158.109 33.1711 155.593 32.3333 154.754 29.8198 155.983 32.8206 154.258 30.6667 154.038 30.3923 154.095 29.9738 153.925 29.6667 153.535 28.9663 152.843 28.4268 152.59 27.6667 151.751 25.1532 152.883 28.2513 151.589 25.6667 151.432 25.3524 151.45 24.959 151.255 24.6667 150.741 23.8967 149.992 23.492 149.253 23 149.031 22.6667 148.888 22.2638 148.586 22 147.982 21.4723 147.251 21.1111 146.584 20.6667 146.25 20.4444 145.963 20.1267 145.583 20 144.79 19.7358 144.085 19.4729 143.247 19.3333 142.363 19.186 141.466 19.1267 140.578 19 139.908 18.9045 139.252 18.7021 138.576 18.6667 135.02 18.4797 131.458 18.4444 127.899 18.3333 126.453 18.2222 125.003 18.16 123.561 18 122.998 17.9374 122.458 17.7204 121.893 17.6667 120.118 17.4977 118.333 17.4649 116.555 17.3333 115.329 17.2426 114.108 17.1111 112.884 17 110.484 16.2007 113.481 17.1704 110.549 16.3333 110.21 16.2368 109.886 16.0965 109.548 16 109.107 15.8741 108.652 15.7983 108.213 15.6667 107.202 15.3638 106.211 15 105.21 14.6667 104.876 14.5556 104.554 14.4022 104.209 14.3333 103.062 14.1042 102.306 13.9805 101.206 13.6667 100.868 13.5702 100.543 13.4298 100.205 13.3333 99.7062 13.191 98.4028 12.9331 97.8695 12.6667 97.5108 12.4874 97.2349 12.1627 96.8685 12L93.8656 11C93.5319 10.8889 93.1572 10.8615 92.8646 10.6667 92.1972 10.2223 91.6235 9.58666 90.8626 9.33333 89.5632 8.90057 88.3601 7.11107 87.8596 6.66666Z" stroke="#000000" stroke-miterlimit="8" fill="#D9D9D9" fill-rule="evenodd" transform="matrix(1.00033 0 -0 1 92.5 119.5)"/></g></svg>