<svg width="250" height="301" xmlns="http://www.w3.org/2000/svg" xmlns:xlink="http://www.w3.org/1999/xlink" overflow="hidden"><defs><clipPath id="clip0"><path d="M0 0 250 0 250 301 0 301Z" fill-rule="evenodd" clip-rule="evenodd"/></clipPath></defs><g clip-path="url(#clip0)"><rect x="0" y="0" width="250" height="300.901" fill="#FFFFFF" transform="scale(1 1.00033)"/><path d="M0 0 211.482 0.000105127" stroke="#000000" stroke-miterlimit="8" fill="none" fill-rule="evenodd" transform="matrix(1 0 -0 1.00033 19.5 14.5)"/><path d="M0 0 211.482 0.000105127" stroke="#000000" stroke-miterlimit="8" fill="none" fill-rule="evenodd" transform="matrix(1 0 -0 1.00033 19.5 23.5)"/><path d="M0 0 0.000105127 127.206" stroke="#000000" stroke-miterlimit="8" fill="none" fill-rule="evenodd" transform="matrix(1 0 -0 1.00033 45.5 23.5)"/><path d="M0 0 0.000105127 180.493" stroke="#000000" stroke-miterlimit="8" fill="none" fill-rule="evenodd" transform="matrix(1 0 -0 1.00033 125.5 23.5)"/><path d="M0 0 0.000105127 146.376" stroke="#000000" stroke-miterlimit="8" fill="none" fill-rule="evenodd" transform="matrix(1 0 -0 1.00033 205.5 23.5)"/><rect x="0" y="0" width="64.9999" height="38.9872" stroke="#000000" stroke-miterlimit="8" fill="#0070C0" transform="matrix(1 0 -0 1.00033 12.5 150.5)"/><path d="M0 0 0.000105127 34.3068" stroke="#000000" stroke-miterlimit="8" fill="none" fill-rule="evenodd" transform="matrix(1 0 -0 1.00033 45.5 189.5)"/><path d="M0 10.9964C-3.18283e-15 4.92325 11.1929-1.39999e-15 25-2.79998e-15 38.8071-5.59995e-15 50 4.92325 50 10.9964 50 17.0695 38.8071 21.9928 25 21.9928 11.1929 21.9928-1.59142e-14 17.0695 0 10.9964Z" stroke="#000000" stroke-miterlimit="8" fill="#00B0F0" fill-rule="evenodd" transform="matrix(1 0 -0 1.00033 19.5 223.5)"/><path d="M0 36.9878 9.24693 0 39.7531 0 49 36.9878Z" stroke="#000000" stroke-miterlimit="8" fill="#FFFF00" fill-rule="evenodd" transform="matrix(1 0 0 -1.00033 100.5 241.5)"/><path d="M0 18.9938C-3.05552e-15 8.5038 10.7452-2.41816e-15 24-4.83632e-15 37.2549-9.67265e-15 48.0001 8.5038 48.0001 18.9938 48.0001 29.4837 37.2549 37.9876 24 37.9876 10.7452 37.9876-1.52776e-14 29.4837 0 18.9938Z" stroke="#000000" stroke-miterlimit="8" fill="#FF0000" fill-rule="evenodd" transform="matrix(1 0 -0 1.00033 181.5 170.5)"/><path d="M0 0 0.000105127 22.2907" stroke="#000000" stroke-miterlimit="8" fill="none" fill-rule="evenodd" transform="matrix(1 0 -0 1.00033 205.5 208.5)"/><path d="M0 18.9938C-3.05552e-15 8.5038 10.7452-2.41816e-15 24-4.83632e-15 37.2549-9.67265e-15 48.0001 8.5038 48.0001 18.9938 48.0001 29.4837 37.2549 37.9876 24 37.9876 10.7452 37.9876-1.52776e-14 29.4837 0 18.9938Z" stroke="#000000" stroke-miterlimit="8" fill="#FF0000" fill-rule="evenodd" transform="matrix(1 0 -0 1.00033 181.5 230.5)"/></g></svg>