<svg width="250" height="301" xmlns="http://www.w3.org/2000/svg" xmlns:xlink="http://www.w3.org/1999/xlink" overflow="hidden"><defs><clipPath id="clip0"><path d="M0 0 250 0 250 301 0 301Z" fill-rule="evenodd" clip-rule="evenodd"/></clipPath></defs><g clip-path="url(#clip0)"><rect x="0" y="0" width="250" height="300.901" fill="#FFFFFF" transform="scale(1 1.00033)"/><path d="M0 0 211.482 0.000105127" stroke="#000000" stroke-miterlimit="8" fill="none" fill-rule="evenodd" transform="matrix(1 0 -0 1.00033 19.5 14.5)"/><path d="M0 0 211.482 0.000105127" stroke="#000000" stroke-miterlimit="8" fill="none" fill-rule="evenodd" transform="matrix(1 0 -0 1.00033 19.5 23.5)"/><path d="M0 0 0.662826 173.047" stroke="#000000" stroke-miterlimit="8" fill="none" fill-rule="evenodd" transform="matrix(-1 -8.74228e-08 -8.74515e-08 1.00033 46.1629 23.5)"/><path d="M0 0 0.374252 107.005" stroke="#000000" stroke-miterlimit="8" fill="none" fill-rule="evenodd" transform="matrix(1 0 -0 1.00033 125.5 23.5)"/><path d="M0 0 0.000105127 212.673" stroke="#000000" stroke-miterlimit="8" fill="none" fill-rule="evenodd" transform="matrix(1 0 -0 1.00033 205.5 23.5)"/><path d="M0 0 0.000105127 230.899" stroke="#000000" stroke-miterlimit="8" fill="none" fill-rule="evenodd" transform="matrix(1 0 -0 1.00033 85.5 23.5)"/><path d="M0 0 0.000105127 139.659" stroke="#000000" stroke-miterlimit="8" fill="none" fill-rule="evenodd" transform="matrix(1 0 -0 1.00033 166.5 23.5)"/><rect x="0" y="0" width="30" height="29.9901" stroke="#000000" stroke-miterlimit="8" fill="#9966FF" transform="matrix(1 0 -0 1.00033 30.5 120.5)"/><path d="M0 7.49756C-1.14582e-15 3.35677 4.02943 -9.54539e-16 8.99998-1.90908e-15 13.9705-3.81816e-15 18 3.35677 18 7.49756 18 11.6383 13.9705 14.9951 8.99998 14.9951 4.02943 14.9951-5.72909e-15 11.6383 0 7.49756Z" stroke="#000000" stroke-miterlimit="8" fill="#FFFF00" fill-rule="evenodd" transform="matrix(1 0 -0 1.00033 116.5 127.5)"/><rect x="0" y="0" width="50" height="29.9902" stroke="#000000" stroke-miterlimit="8" fill="#FF0000" transform="matrix(1 0 -0 1.00033 180.5 235.5)"/><rect x="0" y="0" width="40" height="17.9941" stroke="#000000" stroke-miterlimit="8" fill="#00B0F0" transform="matrix(1 0 -0 1.00033 145.5 161.5)"/><path d="M0 21.4929 23 0 46 21.4929 23 42.9858Z" stroke="#000000" stroke-miterlimit="8" fill="#0033CC" fill-rule="evenodd" transform="matrix(1 0 -0 1.00033 183.5 90.5)"/><path d="M0 13.9954C-2.92821e-15 6.26596 10.2975-1.7818e-15 23-3.5636e-15 35.7026-7.12721e-15 46 6.26596 46 13.9954 46 21.7249 35.7026 27.9908 23 27.9908 10.2975 27.9908-1.4641e-14 21.7249 0 13.9954Z" stroke="#000000" stroke-miterlimit="8" fill="#009900" fill-rule="evenodd" transform="matrix(1 0 -0 1.00033 62.5 251.5)"/><path d="M0 18.9938C-2.92821e-15 8.5038 10.2975-2.41816e-15 23-4.83632e-15 35.7026-9.67265e-15 46 8.5038 46 18.9938 46 29.4837 35.7026 37.9876 23 37.9876 10.2975 37.9876-1.4641e-14 29.4837 0 18.9938Z" stroke="#000000" stroke-miterlimit="8" fill="#9966FF" fill-rule="evenodd" transform="matrix(1 0 -0 1.00033 22.5 195.5)"/><path d="M0 10.9964 25 0 50 10.9964 25 21.9928Z" stroke="#000000" stroke-miterlimit="8" fill="#00FF00" fill-rule="evenodd" transform="matrix(1 0 -0 1.00033 100.5 34.5)"/><path d="M0 10.4966 25 0 50 10.4966 25 20.9931Z" stroke="#000000" stroke-miterlimit="8" fill="#00FF00" fill-rule="evenodd" transform="matrix(1 0 -0 1.00033 100.5 69.5)"/></g></svg>