<svg width="250" height="301" xmlns="http://www.w3.org/2000/svg" xmlns:xlink="http://www.w3.org/1999/xlink" overflow="hidden"><defs><clipPath id="clip0"><path d="M0 0 250 0 250 301 0 301Z" fill-rule="evenodd" clip-rule="evenodd"/></clipPath></defs><g clip-path="url(#clip0)"><rect x="0" y="0" width="250" height="300.901" fill="#FFFFFF" transform="scale(1 1.00033)"/><path d="M0 0 211.482 0.000105127" stroke="#000000" stroke-miterlimit="8" fill="none" fill-rule="evenodd" transform="matrix(1 0 -0 1.00033 19.5 14.5)"/><path d="M0 0 211.482 0.000105127" stroke="#000000" stroke-miterlimit="8" fill="none" fill-rule="evenodd" transform="matrix(1 0 -0 1.00033 19.5 23.5)"/><path d="M0 0 0.771212 161.339" stroke="#000000" stroke-miterlimit="8" fill="none" fill-rule="evenodd" transform="matrix(-1 -8.74228e-08 -8.74515e-08 1.00033 46.2712 23.5)"/><path d="M0 0 0.374252 214.567" stroke="#000000" stroke-miterlimit="8" fill="none" fill-rule="evenodd" transform="matrix(1 0 -0 1.00033 125.5 23.5)"/><path d="M0 0 0.459195 191.393" stroke="#000000" stroke-miterlimit="8" fill="none" fill-rule="evenodd" transform="matrix(-1 -8.74228e-08 -8.74515e-08 1.00033 205.959 23.5)"/><path d="M0 0 0.000105127 147.184" stroke="#000000" stroke-miterlimit="8" fill="none" fill-rule="evenodd" transform="matrix(1 0 -0 1.00033 85.5 23.5)"/><path d="M0 0 0.000105127 109.574" stroke="#000000" stroke-miterlimit="8" fill="none" fill-rule="evenodd" transform="matrix(1 0 -0 1.00033 166.5 23.5)"/><rect x="0" y="0" width="21.0001" height="20.9931" stroke="#000000" stroke-miterlimit="8" fill="#00B0F0" transform="matrix(1 0 -0 1.00033 34.5 134.5)"/><path d="M0 17.4942C-2.86455e-15 7.83244 10.0736-2.22725e-15 22.5-4.4545e-15 34.9264-8.909e-15 45.0001 7.83244 45.0001 17.4942 45.0001 27.156 34.9264 34.9885 22.5 34.9885 10.0736 34.9885-1.43228e-14 27.156 0 17.4942Z" stroke="#000000" stroke-miterlimit="8" fill="#FFC000" fill-rule="evenodd" transform="matrix(1 0 -0 1.00033 143.5 115.5)"/><path d="M0 14.9951C-3.94672e-15 6.71352 13.8792-1.90907e-15 31-3.81814e-15 48.1209-7.63628e-15 62 6.71352 62 14.9951 62 23.2766 48.1209 29.9901 31 29.9901 13.8792 29.9901-1.97336e-14 23.2766 0 14.9951Z" stroke="#000000" stroke-miterlimit="8" fill="#0033CC" fill-rule="evenodd" transform="matrix(1 0 -0 1.00033 94.5 208.5)"/><rect x="0" y="0" width="49" height="30.9898" stroke="#000000" stroke-miterlimit="8" fill="#993366" transform="matrix(1 0 -0 1.00033 180.5 56.5)"/><path d="M0 31.9895 18 0 36 31.9895 18 63.9789Z" stroke="#000000" stroke-miterlimit="8" fill="#FF0000" fill-rule="evenodd" transform="matrix(1 0 -0 1.00033 187.5 191.5)"/><rect x="0" y="0" width="81" height="12.9958" stroke="#000000" stroke-miterlimit="8" fill="#FF66FF" transform="matrix(1 0 -0 1.00033 23.5 49.5)"/><path d="M0 51.9829 15.5 0 31 51.9829Z" stroke="#000000" stroke-miterlimit="8" fill="#843C0C" fill-rule="evenodd" transform="matrix(-1 -8.74228e-08 8.74515e-08 -1.00033 100.5 207.5)"/><rect x="0" y="0" width="21.0001" height="21.9927" stroke="#000000" stroke-miterlimit="8" fill="#00B0F0" transform="matrix(1 0 -0 1.00033 34.5 163.5)"/></g></svg>