<svg width="250" height="301" xmlns="http://www.w3.org/2000/svg" xmlns:xlink="http://www.w3.org/1999/xlink" overflow="hidden"><defs><clipPath id="clip0"><path d="M0 0 250 0 250 301 0 301Z" fill-rule="evenodd" clip-rule="evenodd"/></clipPath></defs><g clip-path="url(#clip0)"><rect x="0" y="0" width="250" height="300.901" fill="#FFFFFF" transform="scale(1 1.00033)"/><path d="M0 0 211.482 0.000105127" stroke="#000000" stroke-miterlimit="8" fill="none" fill-rule="evenodd" transform="matrix(1 0 -0 1.00033 19.5 14.5)"/><path d="M0 0 211.482 0.000105127" stroke="#000000" stroke-miterlimit="8" fill="none" fill-rule="evenodd" transform="matrix(1 0 -0 1.00033 19.5 23.5)"/><path d="M0 0 0.000105127 221.612" stroke="#000000" stroke-miterlimit="8" fill="none" fill-rule="evenodd" transform="matrix(-1 -8.74228e-08 -8.74515e-08 1.00033 45.5001 23.5)"/><path d="M0 0 0.000105127 154.691" stroke="#000000" stroke-miterlimit="8" fill="none" fill-rule="evenodd" transform="matrix(1 0 -0 1.00033 125.5 23.5)"/><path d="M0 0 0.000105127 146.376" stroke="#000000" stroke-miterlimit="8" fill="none" fill-rule="evenodd" transform="matrix(1 0 -0 1.00033 205.5 23.5)"/><rect x="0" y="0" width="41.0001" height="29.9901" stroke="#000000" stroke-miterlimit="8" fill="#0033CC" transform="matrix(1 0 -0 1.00033 24.5 227.5)"/><path d="M0 34.4887C-2.29164e-15 15.4411 8.05888-4.39087e-15 18-8.78173e-15 27.9411-1.75635e-14 36 15.4411 36 34.4887 36 53.5362 27.9411 68.9773 18 68.9773 8.05888 68.9773-1.14582e-14 53.5362 0 34.4887Z" stroke="#000000" stroke-miterlimit="8" fill="#00FF00" fill-rule="evenodd" transform="matrix(1 0 -0 1.00033 27.5 56.5)"/><path d="M0 17.4942C-5.15619e-15 7.83244 18.1325-2.22725e-15 40.5-4.4545e-15 62.8676-8.909e-15 81.0001 7.83244 81.0001 17.4942 81.0001 27.156 62.8676 34.9885 40.5 34.9885 18.1325 34.9885-2.5781e-14 27.156 0 17.4942Z" stroke="#000000" stroke-miterlimit="8" fill="#FF0000" fill-rule="evenodd" transform="matrix(1 0 -0 1.00033 84.5 143.5)"/><path d="M0 30.9898 7.74747 0 50.2525 0 58 30.9898Z" stroke="#000000" stroke-miterlimit="8" fill="#FFFF00" fill-rule="evenodd" transform="matrix(-1 -8.74228e-08 8.74515e-08 -1.00033 234.5 106.5)"/><path d="M0 30.9898 7.74747 0 50.2525 0 58 30.9898Z" stroke="#000000" stroke-miterlimit="8" fill="#FFFF00" fill-rule="evenodd" transform="matrix(-1 -8.74228e-08 8.74515e-08 -1.00033 234.5 201.5)"/></g></svg>