<svg width="250" height="301" xmlns="http://www.w3.org/2000/svg" xmlns:xlink="http://www.w3.org/1999/xlink" overflow="hidden"><defs><clipPath id="clip0"><path d="M0 0 250 0 250 301 0 301Z" fill-rule="evenodd" clip-rule="evenodd"/></clipPath></defs><g clip-path="url(#clip0)"><rect x="0" y="0" width="250" height="300.901" fill="#FFFFFF" transform="scale(1 1.00033)"/><path d="M0 0 211.482 0.000105127" stroke="#000000" stroke-miterlimit="8" fill="none" fill-rule="evenodd" transform="matrix(1 0 -0 1.00033 19.5 14.5)"/><path d="M0 0 211.482 0.000105127" stroke="#000000" stroke-miterlimit="8" fill="none" fill-rule="evenodd" transform="matrix(1 0 -0 1.00033 19.5 23.5)"/><path d="M0 0 0.000105127 150.587" stroke="#000000" stroke-miterlimit="8" fill="none" fill-rule="evenodd" transform="matrix(1 0 -0 1.00033 106.5 23.5)"/><path d="M0 0 0.458985 193.171" stroke="#000000" stroke-miterlimit="8" fill="none" fill-rule="evenodd" transform="matrix(-1 -8.74228e-08 -8.74515e-08 1.00033 205.959 23.5)"/><path d="M0 0 0.000105127 34.3068" stroke="#000000" stroke-miterlimit="8" fill="none" fill-rule="evenodd" transform="matrix(1 0 -0 1.00033 45.5 182.5)"/><path d="M0 25.9915C-3.18283e-15 11.6368 11.1929-3.30906e-15 25-6.61812e-15 38.8071-1.32362e-14 50 11.6368 50 25.9915 50 40.3461 38.8071 51.9829 25 51.9829 11.1929 51.9829-1.59142e-14 40.3461 0 25.9915Z" stroke="#000000" stroke-miterlimit="8" fill="#FFC000" fill-rule="evenodd" transform="matrix(1 0 -0 1.00033 20.5 216.5)"/><path d="M0 27.9908C-2.41896e-15 12.5319 8.5066-3.5636e-15 19-7.12719e-15 29.4935-1.42544e-14 38.0001 12.5319 38.0001 27.9908 38.0001 43.4496 29.4935 55.9815 19 55.9815 8.5066 55.9815-1.20948e-14 43.4496 0 27.9908Z" stroke="#000000" stroke-miterlimit="8" fill="#002060" fill-rule="evenodd" transform="matrix(1 0 -0 1.00033 87.5 174.5)"/><path d="M0 0 0.000105127 69.145" stroke="#000000" stroke-miterlimit="8" fill="none" fill-rule="evenodd" transform="matrix(1 0 -0 1.00033 158.5 23.5)"/><rect x="0" y="0" width="48.0001" height="29.9901" stroke="#000000" stroke-miterlimit="8" fill="#9966FF" transform="matrix(1 0 -0 1.00033 134.5 92.5)"/><path d="M0 0 0.000105127 19.2594" stroke="#000000" stroke-miterlimit="8" fill="none" fill-rule="evenodd" transform="matrix(1 0 -0 1.00033 158.5 122.5)"/><rect x="0" y="0" width="49" height="28.9905" stroke="#000000" stroke-miterlimit="8" fill="#9966FF" transform="matrix(1 0 -0 1.00033 133.5 141.5)"/><path d="M0 0 0.000105127 46.9835" stroke="#000000" stroke-miterlimit="8" fill="none" fill-rule="evenodd" transform="matrix(1 0 -0 1.00033 45.5 24.5)"/><path d="M3.17148e-05 10.6915 14.5 0 29 10.6915 23.4615 27.9907 5.53852 27.9907Z" stroke="#000000" stroke-miterlimit="8" fill="#00FF00" fill-rule="evenodd" transform="matrix(1 0 -0 1.00033 31.5 71.5)"/><path d="M0 0 0.000105127 19.2187" stroke="#000000" stroke-miterlimit="8" fill="none" fill-rule="evenodd" transform="matrix(1 0 -0 1.00033 45.5 99.5)"/><rect x="0" y="0" width="29" height="63.979" stroke="#000000" stroke-miterlimit="8" fill="#00B0F0" transform="matrix(1 0 -0 1.00033 31.5 118.5)"/><path d="M0 32.9892 30.5 0 61.0001 32.9892Z" stroke="#000000" stroke-miterlimit="8" fill="#FF0000" fill-rule="evenodd" transform="matrix(1 0 -0 1.00033 174.5 216.5)"/></g></svg>