<svg width="250" height="301" xmlns="http://www.w3.org/2000/svg" xmlns:xlink="http://www.w3.org/1999/xlink" overflow="hidden"><defs><clipPath id="clip0"><path d="M0 0 250 0 250 301 0 301Z" fill-rule="evenodd" clip-rule="evenodd"/></clipPath></defs><g clip-path="url(#clip0)"><rect x="0" y="0" width="250" height="300.901" fill="#FFFFFF" transform="scale(1 1.00033)"/><path d="M0 0 211.482 0.000105127" stroke="#000000" stroke-miterlimit="8" fill="none" fill-rule="evenodd" transform="matrix(1 0 -0 1.00033 19.5 14.5)"/><path d="M0 0 211.482 0.000105127" stroke="#000000" stroke-miterlimit="8" fill="none" fill-rule="evenodd" transform="matrix(1 0 -0 1.00033 19.5 23.5)"/><path d="M0 0 0.000105127 94.5122" stroke="#000000" stroke-miterlimit="8" fill="none" fill-rule="evenodd" transform="matrix(1 0 -0 1.00033 205.5 23.5)"/><path d="M0 51.4831C-2.73724e-15 23.0498 9.62588-6.55448e-15 21.5-1.3109e-14 33.3741-2.62179e-14 43 23.0498 43 51.4831 43 79.9164 33.3741 102.966 21.5 102.966 9.62588 102.966-1.36862e-14 79.9164 0 51.4831Z" stroke="#000000" stroke-miterlimit="8" fill="#00FF00" fill-rule="evenodd" transform="matrix(1 0 -0 1.00033 23.5 108.5)"/><path d="M0 0 0.000105127 83.8326" stroke="#000000" stroke-miterlimit="8" fill="none" fill-rule="evenodd" transform="matrix(1 0 -0 1.00033 45.5 24.5)"/><path d="M5.03062e-05 17.1828 23 0 46 17.1828 37.2148 44.9851 8.78523 44.9851Z" stroke="#000000" stroke-miterlimit="8" fill="#009900" fill-rule="evenodd" transform="matrix(1 0 -0 1.00033 102.5 129.5)"/><path d="M0 0 0.000105127 104.392" stroke="#000000" stroke-miterlimit="8" fill="none" fill-rule="evenodd" transform="matrix(1 0 -0 1.00033 125.5 24.5)"/><path d="M0 0 0.000105127 71.8624" stroke="#000000" stroke-miterlimit="8" fill="none" fill-rule="evenodd" transform="matrix(1 0 -0 1.00033 125.5 174.5)"/><path d="M5.03062e-05 17.1828 23 0 46 17.1828 37.2148 44.9851 8.78523 44.9851Z" stroke="#000000" stroke-miterlimit="8" fill="#009900" fill-rule="evenodd" transform="matrix(1 0 -0 1.00033 102.5 245.5)"/><path d="M0 28.9059 8.97678 10.5811 24.5232 0 42.4768 0 58.0232 10.5811 67 28.9059 67 50.0681 58.0232 68.393 42.4768 78.9741 24.5232 78.9741 8.97678 68.393 0 50.0681Z" stroke="#000000" stroke-miterlimit="8" fill="#0033CC" fill-rule="evenodd" transform="matrix(1 0 -0 1.00033 172.5 118.5)"/></g></svg>