<svg width="250" height="301" xmlns="http://www.w3.org/2000/svg" xmlns:xlink="http://www.w3.org/1999/xlink" overflow="hidden"><defs><clipPath id="clip0"><path d="M0 0 250 0 250 301 0 301Z" fill-rule="evenodd" clip-rule="evenodd"/></clipPath></defs><g clip-path="url(#clip0)"><rect x="0" y="0" width="250" height="300.901" fill="#FFFFFF" transform="scale(1 1.00033)"/><path d="M0 0 211.482 0.000105127" stroke="#000000" stroke-miterlimit="8" fill="none" fill-rule="evenodd" transform="matrix(1 0 -0 1.00033 19.5 14.5)"/><path d="M0 0 211.482 0.000105127" stroke="#000000" stroke-miterlimit="8" fill="none" fill-rule="evenodd" transform="matrix(1 0 -0 1.00033 19.5 23.5)"/><path d="M0 0 0.000105127 185.417" stroke="#000000" stroke-miterlimit="8" fill="none" fill-rule="evenodd" transform="matrix(1 0 -0 1.00033 205.5 23.5)"/><path d="M0 0 0.000105127 128.959" stroke="#000000" stroke-miterlimit="8" fill="none" fill-rule="evenodd" transform="matrix(1 0 -0 1.00033 45.5 24.5)"/><path d="M0 0 0.000105127 104.392" stroke="#000000" stroke-miterlimit="8" fill="none" fill-rule="evenodd" transform="matrix(1 0 -0 1.00033 138.5 24.5)"/><path d="M0 0 0.000105127 71.8624" stroke="#000000" stroke-miterlimit="8" fill="none" fill-rule="evenodd" transform="matrix(1 0 -0 1.00033 138.5 115.5)"/><rect x="0" y="0" width="58" height="34.9885" stroke="#000000" stroke-miterlimit="8" fill="#FFC000" transform="matrix(1 0 -0 1.00033 16.5 153.5)"/><path d="M0 0 0.000105127 34.4463" stroke="#000000" stroke-miterlimit="8" fill="none" fill-rule="evenodd" transform="matrix(1 0 -0 1.00033 45.5 188.5)"/><path d="M0 19.4936C-1.65507e-15 8.72758 5.8203-2.4818e-15 13-4.96359e-15 20.1797-9.92718e-15 26 8.72758 26 19.4936 26 30.2596 20.1797 38.9872 13 38.9872 5.8203 38.9872-8.27537e-15 30.2596 0 19.4936Z" stroke="#000000" stroke-miterlimit="8" fill="#FF66FF" fill-rule="evenodd" transform="matrix(1 0 -0 1.00033 32.5 223.5)"/><path d="M0 0 0.000105127 35.7999" stroke="#000000" stroke-miterlimit="8" fill="none" fill-rule="evenodd" transform="matrix(1 0 -0 1.00033 85.5 23.5)"/><rect x="0" y="0" width="38" height="18.9937" stroke="#000000" stroke-miterlimit="8" fill="#FF0000" transform="matrix(1 0 -0 1.00033 66.5 57.5)"/><path d="M0 0 0.000105127 22.2907" stroke="#000000" stroke-miterlimit="8" fill="none" fill-rule="evenodd" transform="matrix(1 0 -0 1.00033 205.5 239.5)"/><path d="M0 18.9937C-1.97335e-15 8.50378 6.93958-2.41815e-15 15.5-4.83631e-15 24.0604-9.67262e-15 31 8.50378 31 18.9937 31 29.4837 24.0604 37.9874 15.5 37.9874 6.93958 37.9874-9.86677e-15 29.4837 0 18.9937Z" stroke="#000000" stroke-miterlimit="8" fill="#0033CC" fill-rule="evenodd" transform="matrix(1 0 -0 1.00033 190.5 259.5)"/><path d="M0 18.4939C-1.97335e-15 8.28 6.93958-2.35452e-15 15.5-4.70904e-15 24.0604-9.41808e-15 31 8.28 31 18.4939 31 28.7078 24.0604 36.9878 15.5 36.9878 6.93958 36.9878-9.86677e-15 28.7078 0 18.4939Z" stroke="#000000" stroke-miterlimit="8" fill="#0033CC" fill-rule="evenodd" transform="matrix(1 0 -0 1.00033 190.5 209.5)"/><rect x="0" y="0" width="24.9999" height="71.9764" stroke="#000000" stroke-miterlimit="8" fill="#993366" transform="matrix(1 0 -0 1.00033 125.5 181.5)"/><path d="M0 26.9911C-2.3553e-15 12.0843 8.28273-3.43633e-15 18.5-6.87266e-15 28.7173-1.37453e-14 37 12.0843 37 26.9911 37 41.8979 28.7173 53.9822 18.5 53.9822 8.28273 53.9822-1.17765e-14 41.8979 0 26.9911Z" stroke="#000000" stroke-miterlimit="8" fill="#FFFF00" fill-rule="evenodd" transform="matrix(1 0 -0 1.00033 120.5 113.5)"/></g></svg>