<svg width="250" height="301" xmlns="http://www.w3.org/2000/svg" xmlns:xlink="http://www.w3.org/1999/xlink" overflow="hidden"><defs><clipPath id="clip0"><path d="M0 0 250 0 250 301 0 301Z" fill-rule="evenodd" clip-rule="evenodd"/></clipPath></defs><g clip-path="url(#clip0)"><rect x="0" y="0" width="250" height="300.901" fill="#FFFFFF" transform="scale(1 1.00033)"/><path d="M0 0 211.482 0.000105127" stroke="#000000" stroke-miterlimit="8" fill="none" fill-rule="evenodd" transform="matrix(1 0 -0 1.00033 19.5 14.5)"/><path d="M0 0 211.482 0.000105127" stroke="#000000" stroke-miterlimit="8" fill="none" fill-rule="evenodd" transform="matrix(1 0 -0 1.00033 19.5 23.5)"/><path d="M0 0 0.203631 77.6897" stroke="#000000" stroke-miterlimit="8" fill="none" fill-rule="evenodd" transform="matrix(-1 -8.74228e-08 -8.74515e-08 1.00033 45.7037 23.5)"/><path d="M0 0 0.374252 69.412" stroke="#000000" stroke-miterlimit="8" fill="none" fill-rule="evenodd" transform="matrix(1 0 -0 1.00033 125.5 23.5)"/><path d="M0 0 0.000105127 171.58" stroke="#000000" stroke-miterlimit="8" fill="none" fill-rule="evenodd" transform="matrix(1 0 -0 1.00033 205.5 23.5)"/><path d="M0 0 0.000105127 34.3068" stroke="#000000" stroke-miterlimit="8" fill="none" fill-rule="evenodd" transform="matrix(1 0 -0 1.00033 45.5 148.5)"/><path d="M0 7.99738C-1.14582e-15 3.58055 4.02943-1.01817e-15 8.99998-2.03635e-15 13.9705-4.07269e-15 18 3.58055 18 7.99738 18 12.4142 13.9705 15.9948 8.99998 15.9948 4.02943 15.9948-5.72909e-15 12.4142 0 7.99738Z" stroke="#000000" stroke-miterlimit="8" fill="#FFC000" fill-rule="evenodd" transform="matrix(1 0 -0 1.00033 196.5 195.5)"/><path d="M0 23.4923 22.5 0 44.9999 23.4923 22.5 46.9845Z" stroke="#000000" stroke-miterlimit="8" fill="#FFFF00" fill-rule="evenodd" transform="matrix(1 0 -0 1.00033 22.5 101.5)"/><path d="M0 23.4923 22.5 0 44.9999 23.4923 22.5 46.9845Z" stroke="#000000" stroke-miterlimit="8" fill="#FFFF00" fill-rule="evenodd" transform="matrix(1 0 -0 1.00033 22.5 171.5)"/><path d="M0 36.488C-4.77425e-15 16.3362 16.7893-4.64541e-15 37.5-9.29082e-15 58.2106-1.85816e-14 74.9999 16.3362 74.9999 36.488 74.9999 56.6398 58.2106 72.976 37.5 72.976 16.7893 72.976-2.38712e-14 56.6398 0 36.488Z" stroke="#000000" stroke-miterlimit="8" fill="#843C0C" fill-rule="evenodd" transform="matrix(1 0 -0 1.00033 88.5 93.5)"/><rect x="0" y="0" width="66" height="68.9774" stroke="#000000" stroke-miterlimit="8" fill="#0033CC" transform="matrix(1 0 -0 1.00033 172.5 95.4999)"/></g></svg>