<svg width="250" height="301" xmlns="http://www.w3.org/2000/svg" xmlns:xlink="http://www.w3.org/1999/xlink" overflow="hidden"><defs><clipPath id="clip0"><path d="M0 0 250 0 250 301 0 301Z" fill-rule="evenodd" clip-rule="evenodd"/></clipPath></defs><g clip-path="url(#clip0)"><rect x="0" y="0" width="250" height="300.901" fill="#FFFFFF" transform="scale(1 1.00033)"/><path d="M0 0 34.639 0.000105127" stroke="#000000" stroke-miterlimit="8" fill="none" fill-rule="evenodd" transform="matrix(1 0 -0 1.00033 55.5 129.5)"/><path d="M0 0 211.482 0.000105127" stroke="#000000" stroke-miterlimit="8" fill="none" fill-rule="evenodd" transform="matrix(1 0 -0 1.00033 19.5 14.5)"/><path d="M0 0 211.482 0.000105127" stroke="#000000" stroke-miterlimit="8" fill="none" fill-rule="evenodd" transform="matrix(1 0 -0 1.00033 19.5 23.5)"/><path d="M0 0 0.203631 77.6897" stroke="#000000" stroke-miterlimit="8" fill="none" fill-rule="evenodd" transform="matrix(-1 -8.74228e-08 -8.74515e-08 1.00033 45.7037 23.5)"/><path d="M0 0 0.000105127 146.376" stroke="#000000" stroke-miterlimit="8" fill="none" fill-rule="evenodd" transform="matrix(1 0 -0 1.00033 205.5 23.5)"/><path d="M0 0 0.000105127 79.4875" stroke="#000000" stroke-miterlimit="8" fill="none" fill-rule="evenodd" transform="matrix(1 0 -0 1.00033 100.5 23.5)"/><path d="M0 0 0.000105127 199.35" stroke="#000000" stroke-miterlimit="8" fill="none" fill-rule="evenodd" transform="matrix(1 0 -0 1.00033 149.5 23.5)"/><path d="M0 27.9908 6.99771 0 25.0022 0 31.9999 27.9908Z" stroke="#000000" stroke-miterlimit="8" fill="#993366" fill-rule="evenodd" transform="matrix(1 0 -0 1.00033 189.5 59.5)"/><path d="M0 28.9905 7.2476 0 24.7524 0 32 28.9905Z" stroke="#000000" stroke-miterlimit="8" fill="#993366" fill-rule="evenodd" transform="matrix(1 0 -0 1.00033 190.5 141.5)"/><path d="M4.59318e-05 15.2736 21 0 42 15.2736 33.9787 39.9868 8.0213 39.9868Z" stroke="#000000" stroke-miterlimit="8" fill="#00FF00" fill-rule="evenodd" transform="matrix(1 0 -0 1.00033 24.5 101.5)"/><path d="M4.48381e-05 15.2736 20.5 0 40.9999 15.2736 33.1697 39.9868 7.8303 39.9868Z" stroke="#000000" stroke-miterlimit="8" fill="#FFFF00" fill-rule="evenodd" transform="matrix(1 0 -0 1.00033 80.5 103.5)"/><path d="M0 0 0.000105127 79.4875" stroke="#000000" stroke-miterlimit="8" fill="none" fill-rule="evenodd" transform="matrix(1 0 -0 1.00033 100.5 143.5)"/><rect x="0" y="0" width="58.0001" height="35.9881" stroke="#000000" stroke-miterlimit="8" fill="#0033CC" transform="matrix(1 0 -0 1.00033 71.5 194.5)"/><path d="M0 17.4943C-1.71873e-15 7.83246 6.04415-2.22726e-15 13.5-4.45451e-15 20.9558-8.90903e-15 27 7.83246 27 17.4943 27 27.1561 20.9558 34.9886 13.5 34.9886 6.04415 34.9886-8.59365e-15 27.1561 0 17.4943Z" stroke="#000000" stroke-miterlimit="8" fill="#008000" fill-rule="evenodd" transform="matrix(1 0 -0 1.00033 136.5 218.5)"/></g></svg>