<svg width="250" height="301" xmlns="http://www.w3.org/2000/svg" xmlns:xlink="http://www.w3.org/1999/xlink" overflow="hidden"><defs><clipPath id="clip0"><path d="M0 0 250 0 250 301 0 301Z" fill-rule="evenodd" clip-rule="evenodd"/></clipPath></defs><g clip-path="url(#clip0)"><rect x="0" y="0" width="250" height="300.901" fill="#FFFFFF" transform="scale(1 1.00033)"/><path d="M0 0 211.482 0.000105127" stroke="#000000" stroke-miterlimit="8" fill="none" fill-rule="evenodd" transform="matrix(1 0 -0 1.00033 19.5 14.5)"/><path d="M0 0 211.482 0.000105127" stroke="#000000" stroke-miterlimit="8" fill="none" fill-rule="evenodd" transform="matrix(1 0 -0 1.00033 19.5 23.5)"/><path d="M0 0 0.203631 77.6897" stroke="#000000" stroke-miterlimit="8" fill="none" fill-rule="evenodd" transform="matrix(-1 -8.74228e-08 -8.74515e-08 1.00033 45.7037 23.5)"/><path d="M0 0 0.459195 172.681" stroke="#000000" stroke-miterlimit="8" fill="none" fill-rule="evenodd" transform="matrix(-1 -8.74228e-08 -8.74515e-08 1.00033 205.959 23.5)"/><path d="M0 0 0.000105127 79.4875" stroke="#000000" stroke-miterlimit="8" fill="none" fill-rule="evenodd" transform="matrix(1 0 -0 1.00033 100.5 23.5)"/><path d="M0 0 0.000105127 244.003" stroke="#000000" stroke-miterlimit="8" fill="none" fill-rule="evenodd" transform="matrix(1 0 -0 1.00033 149.5 23.5)"/><path d="M0 17.5631 6.29715 6.42901 17.2028 0 29.7971 0 40.7028 6.42901 47 17.5631 47 30.4211 40.7028 41.5552 29.7971 47.9842 17.2028 47.9842 6.29715 41.5552 0 30.4211Z" stroke="#000000" stroke-miterlimit="8" fill="#00B0F0" fill-rule="evenodd" transform="matrix(1 0 -0 1.00033 77.5 102.5)"/><path d="M0 0 0.000105127 26.6794" stroke="#000000" stroke-miterlimit="8" fill="none" fill-rule="evenodd" transform="matrix(1 0 -0 1.00033 100.5 151.5)"/><path d="M0 17.5631 6.29715 6.42902 17.2028 0 29.7971 0 40.7028 6.42902 47 17.5631 47 30.4212 40.7028 41.5553 29.7971 47.9843 17.2028 47.9843 6.29715 41.5553 0 30.4212Z" stroke="#000000" stroke-miterlimit="8" fill="#00B0F0" fill-rule="evenodd" transform="matrix(1 0 -0 1.00033 77.5 177.5)"/><rect x="0" y="0" width="64.9999" height="67.9777" stroke="#000000" stroke-miterlimit="8" fill="#FFFF00" transform="matrix(1 0 -0 1.00033 12.5 37.5)"/><path d="M0 23.4923 22.5 0 45.0001 23.4923 22.5 46.9845Z" stroke="#000000" stroke-miterlimit="8" fill="#FF0000" fill-rule="evenodd" transform="matrix(1 0 -0 1.00033 127.5 58.5)"/><path d="M0 7.99738C-1.14582e-15 3.58055 4.02945-1.01817e-15 9.00003-2.03635e-15 13.9706-4.07269e-15 18.0001 3.58055 18.0001 7.99738 18.0001 12.4142 13.9706 15.9948 9.00003 15.9948 4.02945 15.9948-5.72912e-15 12.4142 0 7.99738Z" stroke="#000000" stroke-miterlimit="8" fill="#FFFF00" fill-rule="evenodd" transform="matrix(1 0 -0 1.00033 140.5 161.5)"/><path d="M5.13998e-05 14.8918 23.5 0 46.9999 14.8918 38.0238 38.9871 8.97621 38.9871Z" stroke="#000000" stroke-miterlimit="8" fill="#FF66FF" fill-rule="evenodd" transform="matrix(1 0 -0 1.00033 126.5 248.5)"/><path d="M0 17.4942C-1.4641e-15 7.83244 5.14873-2.22725e-15 11.5-4.4545e-15 17.8513-8.909e-15 23 7.83244 23 17.4942 23 27.156 17.8513 34.9885 11.5 34.9885 5.14873 34.9885-7.32052e-15 27.156 0 17.4942Z" stroke="#000000" stroke-miterlimit="8" fill="#0033CC" fill-rule="evenodd" transform="matrix(1 0 -0 1.00033 194.5 98.5)"/><path d="M0 25.9915 6.49787 0 19.5021 0 26 25.9915Z" stroke="#000000" stroke-miterlimit="8" fill="#843C0C" fill-rule="evenodd" transform="matrix(1 0 -0 1.00033 192.5 196.5)"/></g></svg>