<svg width="250" height="301" xmlns="http://www.w3.org/2000/svg" xmlns:xlink="http://www.w3.org/1999/xlink" overflow="hidden"><defs><clipPath id="clip0"><path d="M0 0 250 0 250 301 0 301Z" fill-rule="evenodd" clip-rule="evenodd"/></clipPath></defs><g clip-path="url(#clip0)"><rect x="0" y="0" width="250" height="300.901" fill="#FFFFFF" transform="scale(1 1.00033)"/><path d="M0 0 211.482 0.000105127" stroke="#000000" stroke-miterlimit="8" fill="none" fill-rule="evenodd" transform="matrix(1 0 -0 1.00033 19.5 14.5)"/><path d="M0 0 211.482 0.000105127" stroke="#000000" stroke-miterlimit="8" fill="none" fill-rule="evenodd" transform="matrix(1 0 -0 1.00033 19.5 23.5)"/><path d="M0 0 0.000105127 260.737" stroke="#000000" stroke-miterlimit="8" fill="none" fill-rule="evenodd" transform="matrix(-1 -8.74228e-08 -8.74515e-08 1.00033 45.5001 23.5)"/><path d="M0 0 0.374252 69.412" stroke="#000000" stroke-miterlimit="8" fill="none" fill-rule="evenodd" transform="matrix(1 0 -0 1.00033 125.5 23.5)"/><path d="M0 0 0.000105127 146.376" stroke="#000000" stroke-miterlimit="8" fill="none" fill-rule="evenodd" transform="matrix(1 0 -0 1.00033 205.5 23.5)"/><path d="M0 9.87925 4.55538 3.61633 12.4446 0 21.5554 0 29.4446 3.61633 34 9.87925 34 17.1119 29.4446 23.3748 21.5554 26.9912 12.4446 26.9912 4.55538 23.3748 0 17.1119Z" stroke="#000000" stroke-miterlimit="8" fill="#FF0000" fill-rule="evenodd" transform="matrix(1 0 -0 1.00033 28.5 69.5)"/><rect x="0" y="0" width="31" height="21.9928" stroke="#000000" stroke-miterlimit="8" fill="#FF66FF" transform="matrix(1 0 -0 1.00033 29.5 134.5)"/><rect x="0" y="0" width="30" height="22.9924" stroke="#000000" stroke-miterlimit="8" fill="#FF66FF" transform="matrix(1 0 -0 1.00033 30.5 169.5)"/><path d="M0 25.4916C-2.73724e-15 11.413 9.62588-3.24542e-15 21.5-6.49085e-15 33.3741-1.29817e-14 43 11.413 43 25.4916 43 39.5703 33.3741 50.9832 21.5 50.9832 9.62588 50.9832-1.36862e-14 39.5703 0 25.4916Z" stroke="#000000" stroke-miterlimit="8" fill="#0033CC" fill-rule="evenodd" transform="matrix(1 0 -0 1.00033 23.5 240.5)"/><path d="M0 44.9852 11 0 33 0 44 44.9852Z" stroke="#000000" stroke-miterlimit="8" fill="#FFFF00" fill-rule="evenodd" transform="matrix(1 0 -0 1.00033 103.5 89.5)"/><path d="M0 44.9853 11.2463 0 33.7537 0 45.0001 44.9853Z" stroke="#000000" stroke-miterlimit="8" fill="#FFFF00" fill-rule="evenodd" transform="matrix(1 0 0 -1.00033 183.5 134.5)"/><path d="M0 0 47.0307 0.000105127" stroke="#000000" stroke-miterlimit="8" fill="none" fill-rule="evenodd" transform="matrix(-1 -8.74228e-08 -8.74515e-08 1.00033 189.531 112.5)"/><path d="M0 23.4923 22.5 0 45.0001 23.4923 22.5 46.9846Z" stroke="#000000" stroke-miterlimit="8" fill="#FFC000" fill-rule="evenodd" transform="matrix(1 0 -0 1.00033 183.5 168.5)"/></g></svg>