<svg width="250" height="301" xmlns="http://www.w3.org/2000/svg" xmlns:xlink="http://www.w3.org/1999/xlink" overflow="hidden"><defs><clipPath id="clip0"><path d="M0 0 250 0 250 301 0 301Z" fill-rule="evenodd" clip-rule="evenodd"/></clipPath></defs><g clip-path="url(#clip0)"><rect x="0" y="0" width="250" height="300.901" fill="#FFFFFF" transform="scale(1 1.00033)"/><path d="M0 0 211.482 0.000105127" stroke="#000000" stroke-miterlimit="8" fill="none" fill-rule="evenodd" transform="matrix(1 0 -0 1.00033 19.5 14.5)"/><path d="M0 0 211.482 0.000105127" stroke="#000000" stroke-miterlimit="8" fill="none" fill-rule="evenodd" transform="matrix(1 0 -0 1.00033 19.5 23.5)"/><path d="M0 0 0.203631 77.6897" stroke="#000000" stroke-miterlimit="8" fill="none" fill-rule="evenodd" transform="matrix(-1 -8.74228e-08 -8.74515e-08 1.00033 45.7037 23.5)"/><path d="M0 0 0.000105127 116.273" stroke="#000000" stroke-miterlimit="8" fill="none" fill-rule="evenodd" transform="matrix(1 0 -0 1.00033 121.5 23.5)"/><path d="M0 0 0.000105127 146.376" stroke="#000000" stroke-miterlimit="8" fill="none" fill-rule="evenodd" transform="matrix(1 0 -0 1.00033 205.5 23.5)"/><path d="M0 31.9895 31 0 62 31.9895 31 63.9789Z" stroke="#000000" stroke-miterlimit="8" fill="#FF0000" fill-rule="evenodd" transform="matrix(1 0 -0 1.00033 14.5 101.5)"/><rect x="0" y="0" width="29" height="64.9787" stroke="#000000" stroke-miterlimit="8" fill="#0033CC" transform="matrix(1 0 -0 1.00033 107.5 139.5)"/><path d="M0 28.9905C-3.11918e-15 12.9795 10.969-3.69087e-15 24.5-7.38175e-15 38.031-1.47635e-14 49 12.9795 49 28.9905 49 45.0015 38.031 57.9809 24.5 57.9809 10.969 57.9809-1.55959e-14 45.0015 0 28.9905Z" stroke="#000000" stroke-miterlimit="8" fill="#FFFF00" fill-rule="evenodd" transform="matrix(1 0 -0 1.00033 181.5 158.5)"/><path d="M0 0 28.3782 27.5757" stroke="#000000" stroke-miterlimit="8" fill="none" fill-rule="evenodd" transform="matrix(1 0 -0 1.00033 121.5 204.5)"/><path d="M0 0 26.7424 15.5595" stroke="#000000" stroke-miterlimit="8" fill="none" fill-rule="evenodd" transform="matrix(1 0 0 -1.00033 179.5 232.065)"/><path d="M0 17.9941C-6.1747e-15 8.05622 21.7142-2.29089e-15 48.5-4.58177e-15 75.2858-9.16354e-15 97 8.05622 97 17.9941 97 27.9319 75.2858 35.9881 48.5 35.9881 21.7142 35.9881-3.08735e-14 27.9319 0 17.9941Z" stroke="#000000" stroke-miterlimit="8" fill="#FFC000" fill-rule="evenodd" transform="matrix(1 0 -0 1.00033 116.5 225.5)"/></g></svg>