<svg width="250" height="301" xmlns="http://www.w3.org/2000/svg" xmlns:xlink="http://www.w3.org/1999/xlink" overflow="hidden"><defs><clipPath id="clip0"><path d="M0 0 250 0 250 301 0 301Z" fill-rule="evenodd" clip-rule="evenodd"/></clipPath></defs><g clip-path="url(#clip0)"><rect x="0" y="0" width="250" height="300.901" fill="#FFFFFF" transform="scale(1 1.00033)"/><path d="M0 0 211.482 0.000105127" stroke="#000000" stroke-miterlimit="8" fill="none" fill-rule="evenodd" transform="matrix(1 0 -0 1.00033 19.5 14.5)"/><path d="M0 0 211.482 0.000105127" stroke="#000000" stroke-miterlimit="8" fill="none" fill-rule="evenodd" transform="matrix(1 0 -0 1.00033 19.5 23.5)"/><path d="M0 0 0.000105127 182.74" stroke="#000000" stroke-miterlimit="8" fill="none" fill-rule="evenodd" transform="matrix(-1 -8.74228e-08 -8.74515e-08 1.00033 45.5001 23.5)"/><path d="M0 0 0.374252 221.112" stroke="#000000" stroke-miterlimit="8" fill="none" fill-rule="evenodd" transform="matrix(1 0 -0 1.00033 125.5 23.5)"/><path d="M0 0 0.000105127 73.1879" stroke="#000000" stroke-miterlimit="8" fill="none" fill-rule="evenodd" transform="matrix(1 0 -0 1.00033 205.5 23.5)"/><path d="M0 0 0.000105127 131.221" stroke="#000000" stroke-miterlimit="8" fill="none" fill-rule="evenodd" transform="matrix(1 0 -0 1.00033 85.5 23.5)"/><path d="M0 0 0.000105127 73.1879" stroke="#000000" stroke-miterlimit="8" fill="none" fill-rule="evenodd" transform="matrix(1 0 -0 1.00033 166.5 23.5)"/><rect x="0" y="0" width="30" height="30.9898" stroke="#000000" stroke-miterlimit="8" fill="#9966FF" transform="matrix(1 0 -0 1.00033 192.5 74.5)"/><path d="M0 7.49756C-1.14582e-15 3.35677 4.02945 -9.54539e-16 9.00003-1.90908e-15 13.9706-3.81816e-15 18.0001 3.35677 18.0001 7.49756 18.0001 11.6383 13.9706 14.9951 9.00003 14.9951 4.02945 14.9951-5.72912e-15 11.6383 0 7.49756Z" stroke="#000000" stroke-miterlimit="8" fill="#FFFF00" fill-rule="evenodd" transform="matrix(1 0 -0 1.00033 157.5 93.5)"/><rect x="0" y="0" width="49" height="29.9902" stroke="#000000" stroke-miterlimit="8" fill="#FF0000" transform="matrix(1 0 -0 1.00033 20.5 206.5)"/><rect x="0" y="0" width="40" height="17.9941" stroke="#000000" stroke-miterlimit="8" fill="#00B0F0" transform="matrix(1 0 -0 1.00033 105.5 52.5)"/><path d="M0 21.4929 22.5 0 44.9999 21.4929 22.5 42.9858Z" stroke="#000000" stroke-miterlimit="8" fill="#0033CC" fill-rule="evenodd" transform="matrix(1 0 -0 1.00033 62.5 152.5)"/><path d="M0 13.4955C-2.92821e-15 6.04215 10.2975-1.71816e-15 23-3.43632e-15 35.7026-6.87264e-15 46 6.04215 46 13.4955 46 20.9489 35.7026 26.9911 23 26.9911 10.2975 26.9911-1.4641e-14 20.9489 0 13.4955Z" stroke="#000000" stroke-miterlimit="8" fill="#009900" fill-rule="evenodd" transform="matrix(1 0 -0 1.00033 102.5 242.5)"/><path d="M0 19.4936C-2.92821e-15 8.72758 10.2975-2.4818e-15 23-4.96359e-15 35.7026-9.92718e-15 46 8.72758 46 19.4936 46 30.2596 35.7026 38.9872 23 38.9872 10.2975 38.9872-1.4641e-14 30.2596 0 19.4936Z" stroke="#000000" stroke-miterlimit="8" fill="#9966FF" fill-rule="evenodd" transform="matrix(1 0 -0 1.00033 22.5 110.5)"/><path d="M0 0 11.7295 18.1997" stroke="#000000" stroke-miterlimit="8" fill="none" fill-rule="evenodd" transform="matrix(1 0 -0 1.00033 166.5 108.5)"/><path d="M0 0 12.3579 21.4966" stroke="#000000" stroke-miterlimit="8" fill="none" fill-rule="evenodd" transform="matrix(-1 -8.74228e-08 -8.74515e-08 1.00033 207.858 105.5)"/><path d="M0 10.9964 25.5 0 51.0001 10.9964 25.5 21.9928Z" stroke="#000000" stroke-miterlimit="8" fill="#00FF00" fill-rule="evenodd" transform="matrix(1 0 -0 1.00033 161.5 117.5)"/><path d="M0 0 0.374252 69.412" stroke="#000000" stroke-miterlimit="8" fill="none" fill-rule="evenodd" transform="matrix(1 0 -0 1.00033 186.5 139.5)"/><path d="M0 10.9964 25 0 50 10.9964 25 21.9928Z" stroke="#000000" stroke-miterlimit="8" fill="#993366" fill-rule="evenodd" transform="matrix(1 0 -0 1.00033 161.5 207.5)"/></g></svg>