<svg width="250" height="301" xmlns="http://www.w3.org/2000/svg" xmlns:xlink="http://www.w3.org/1999/xlink" overflow="hidden"><defs><clipPath id="clip0"><path d="M0 0 250 0 250 301 0 301Z" fill-rule="evenodd" clip-rule="evenodd"/></clipPath></defs><g clip-path="url(#clip0)"><rect x="0" y="0" width="250" height="300.901" fill="#FFFFFF" transform="scale(1 1.00033)"/><path d="M0 0 1.35614 98.1055" stroke="#000000" stroke-miterlimit="8" fill="none" fill-rule="evenodd" transform="matrix(-1 -8.74228e-08 8.74515e-08 -1.00033 205.856 170.638)"/><path d="M0 0 38.669 37.328" stroke="#000000" stroke-miterlimit="8" fill="none" fill-rule="evenodd" transform="matrix(1 0 -0 1.00033 166.5 132.5)"/><path d="M0 0 211.482 0.000105127" stroke="#000000" stroke-miterlimit="8" fill="none" fill-rule="evenodd" transform="matrix(1 0 -0 1.00033 19.5 14.5)"/><path d="M0 0 211.482 0.000105127" stroke="#000000" stroke-miterlimit="8" fill="none" fill-rule="evenodd" transform="matrix(1 0 -0 1.00033 19.5 23.5)"/><path d="M0 0 0.752499 223.313" stroke="#000000" stroke-miterlimit="8" fill="none" fill-rule="evenodd" transform="matrix(-1 -8.74228e-08 -8.74515e-08 1.00033 46.2525 23.5)"/><path d="M0 0 0.000105127 164.976" stroke="#000000" stroke-miterlimit="8" fill="none" fill-rule="evenodd" transform="matrix(1 0 -0 1.00033 125.5 23.5)"/><path d="M0 0 0.000105127 48.6678" stroke="#000000" stroke-miterlimit="8" fill="none" fill-rule="evenodd" transform="matrix(1 0 -0 1.00033 205.5 23.5)"/><path d="M0 0 0.000105127 32.7203" stroke="#000000" stroke-miterlimit="8" fill="none" fill-rule="evenodd" transform="matrix(1 0 -0 1.00033 85.5 23.5)"/><path d="M0 0 0.000105127 82.4877" stroke="#000000" stroke-miterlimit="8" fill="none" fill-rule="evenodd" transform="matrix(1 0 -0 1.00033 166.5 23.5)"/><path d="M0 25.4916C-3.18283e-15 11.413 11.1929-3.24542e-15 25-6.49085e-15 38.8071-1.29817e-14 50 11.413 50 25.4916 50 39.5703 38.8071 50.9832 25 50.9832 11.1929 50.9832-1.59142e-14 39.5703 0 25.4916Z" stroke="#000000" stroke-miterlimit="8" fill="#FFC000" fill-rule="evenodd" transform="matrix(1 0 -0 1.00033 100.5 177.5)"/><path d="M0 28.4906C-2.41895e-15 12.7557 8.50658-3.62724e-15 19-7.25448e-15 29.4934-1.4509e-14 38 12.7557 38 28.4906 38 44.2256 29.4934 56.9813 19 56.9813 8.50658 56.9813-1.20948e-14 44.2256 0 28.4906Z" stroke="#000000" stroke-miterlimit="8" fill="#002060" fill-rule="evenodd" transform="matrix(1 0 -0 1.00033 148.5 94.5)"/><rect x="0" y="0" width="49" height="28.9905" stroke="#000000" stroke-miterlimit="8" fill="#9966FF" transform="matrix(1 0 -0 1.00033 60.5 37.5)"/><rect x="0" y="0" width="49" height="28.9905" stroke="#000000" stroke-miterlimit="8" fill="#9966FF" transform="matrix(1 0 -0 1.00033 21.5 75.5)"/><path d="M3.17148e-05 10.6915 14.5 0 29 10.6915 23.4615 27.9907 5.53852 27.9907Z" stroke="#000000" stroke-miterlimit="8" fill="#00FF00" fill-rule="evenodd" transform="matrix(1 0 -0 1.00033 191.5 158.5)"/><rect x="0" y="0" width="29" height="64.9786" stroke="#000000" stroke-miterlimit="8" fill="#00B0F0" transform="matrix(1 0 -0 1.00033 30.5 214.5)"/><path d="M0 32.9892 30.5 0 61 32.9892Z" stroke="#000000" stroke-miterlimit="8" fill="#FF0000" fill-rule="evenodd" transform="matrix(1 0 -0 1.00033 175.5 53.5)"/></g></svg>