<svg width="250" height="301" xmlns="http://www.w3.org/2000/svg" xmlns:xlink="http://www.w3.org/1999/xlink" overflow="hidden"><defs><clipPath id="clip0"><path d="M0 0 250 0 250 301 0 301Z" fill-rule="evenodd" clip-rule="evenodd"/></clipPath></defs><g clip-path="url(#clip0)"><rect x="0" y="0" width="250" height="300.901" fill="#FFFFFF" transform="scale(1 1.00033)"/><path d="M0 0 47.7407 68.7488" stroke="#000000" stroke-miterlimit="8" fill="none" fill-rule="evenodd" transform="matrix(-1 -8.74228e-08 -8.74515e-08 1.00033 125.241 125.5)"/><path d="M0 0 31.2854 48.9146" stroke="#000000" stroke-miterlimit="8" fill="none" fill-rule="evenodd" transform="matrix(1 0 -0 1.00033 45.5 144.5)"/><path d="M0 0 0.000105127 28.2514" stroke="#000000" stroke-miterlimit="8" fill="none" fill-rule="evenodd" transform="matrix(1 0 -0 1.00033 76.5 209.5)"/><path d="M0 0 211.482 0.000105127" stroke="#000000" stroke-miterlimit="8" fill="none" fill-rule="evenodd" transform="matrix(1 0 -0 1.00033 19.5 14.5)"/><path d="M0 0 211.482 0.000105127" stroke="#000000" stroke-miterlimit="8" fill="none" fill-rule="evenodd" transform="matrix(1 0 -0 1.00033 19.5 23.5)"/><path d="M0 0 0.000105127 123.883" stroke="#000000" stroke-miterlimit="8" fill="none" fill-rule="evenodd" transform="matrix(-1 -8.74228e-08 -8.74515e-08 1.00033 45.5001 23.5)"/><path d="M0 0 0.374252 69.412" stroke="#000000" stroke-miterlimit="8" fill="none" fill-rule="evenodd" transform="matrix(1 0 -0 1.00033 125.5 23.5)"/><path d="M0 0 0.000105127 146.376" stroke="#000000" stroke-miterlimit="8" fill="none" fill-rule="evenodd" transform="matrix(1 0 -0 1.00033 205.5 23.5)"/><path d="M0 10.9964C-2.80089e-15 4.92325 9.84973-1.39999e-15 22-2.79998e-15 34.1502-5.59995e-15 44 4.92325 44 10.9964 44 17.0695 34.1502 21.9928 22 21.9928 9.84973 21.9928-1.40045e-14 17.0695 0 10.9964Z" stroke="#000000" stroke-miterlimit="8" fill="#FFFF00" fill-rule="evenodd" transform="matrix(1 0 -0 1.00033 183.5 167.5)"/><rect x="0" y="0" width="41" height="37.9874" stroke="#000000" stroke-miterlimit="8" fill="#FFC000" transform="matrix(1 0 -0 1.00033 56.5 174.5)"/><path d="M0 34.9885 9.50002 0 19 34.9885Z" stroke="#000000" stroke-miterlimit="8" fill="#FF0000" fill-rule="evenodd" transform="matrix(-1 -8.74228e-08 8.74515e-08 -1.00033 86.5 267.5)"/><path d="M0 27.491C-1.84605e-15 12.3081 6.49188-3.49997e-15 14.5-6.99994e-15 22.5082-1.39999e-14 29 12.3081 29 27.491 29 42.6738 22.5082 54.982 14.5 54.982 6.49188 54.982-9.23023e-15 42.6738 0 27.491Z" stroke="#000000" stroke-miterlimit="8" fill="#9966FF" fill-rule="evenodd" transform="matrix(1 0 -0 1.00033 110.5 87.5)"/><path d="M0 10.4966C-2.80089e-15 4.69947 9.84973-1.33635e-15 22-2.67271e-15 34.1502-5.34541e-15 44 4.69947 44 10.4966 44 16.2937 34.1502 20.9931 22 20.9931 9.84973 20.9931-1.40045e-14 16.2937 0 10.4966Z" stroke="#000000" stroke-miterlimit="8" fill="#0033CC" fill-rule="evenodd" transform="matrix(1 0 -0 1.00033 23.5 134.5)"/></g></svg>