<svg width="250" height="301" xmlns="http://www.w3.org/2000/svg" xmlns:xlink="http://www.w3.org/1999/xlink" overflow="hidden"><defs><clipPath id="clip0"><path d="M0 0 250 0 250 301 0 301Z" fill-rule="evenodd" clip-rule="evenodd"/></clipPath></defs><g clip-path="url(#clip0)"><rect x="0" y="0" width="250" height="300.901" fill="#FFFFFF" transform="scale(1 1.00033)"/><path d="M0 0 211.482 0.000105127" stroke="#000000" stroke-miterlimit="8" fill="none" fill-rule="evenodd" transform="matrix(1 0 -0 1.00033 19.5 14.5)"/><path d="M0 0 211.482 0.000105127" stroke="#000000" stroke-miterlimit="8" fill="none" fill-rule="evenodd" transform="matrix(1 0 -0 1.00033 19.5 23.5)"/><path d="M0 0 0.000105127 93.0629" stroke="#000000" stroke-miterlimit="8" fill="none" fill-rule="evenodd" transform="matrix(-1 -8.74228e-08 -8.74515e-08 1.00033 45.5001 23.5)"/><path d="M0 0 0.374147 127.206" stroke="#000000" stroke-miterlimit="8" fill="none" fill-rule="evenodd" transform="matrix(1 0 -0 1.00033 100.5 23.5)"/><path d="M0 0 0.000105127 200.932" stroke="#000000" stroke-miterlimit="8" fill="none" fill-rule="evenodd" transform="matrix(1 0 -0 1.00033 205.5 23.5)"/><path d="M0 0 0.000105127 46.5314" stroke="#000000" stroke-miterlimit="8" fill="none" fill-rule="evenodd" transform="matrix(1 0 -0 1.00033 149.5 23.5)"/><path d="M0 29.4903C-2.80089e-15 13.2033 9.84973-3.75451e-15 22-7.50903e-15 34.1502-1.50181e-14 44 13.2033 44 29.4903 44 45.7774 34.1502 58.9807 22 58.9807 9.84973 58.9807-1.40045e-14 45.7774 0 29.4903Z" stroke="#000000" stroke-miterlimit="8" fill="#FFC000" fill-rule="evenodd" transform="matrix(1 0 -0 1.00033 23.5 116.5)"/><rect x="0" y="0" width="23" height="24.9919" stroke="#000000" stroke-miterlimit="8" fill="#008000" transform="matrix(1 0 -0 1.00033 89.5 150.5)"/><rect x="0" y="0" width="44" height="50.9833" stroke="#000000" stroke-miterlimit="8" fill="#FF0000" transform="matrix(1 0 -0 1.00033 128.5 70.5)"/><path d="M0 0 0.000105127 29.3732" stroke="#000000" stroke-miterlimit="8" fill="none" fill-rule="evenodd" transform="matrix(1 0 -0 1.00033 150.5 121.5)"/><path d="M0 11.9961C-1.71873e-15 5.37084 6.04415-1.52726e-15 13.5-3.05453e-15 20.9558-6.10905e-15 27 5.37084 27 11.9961 27 18.6214 20.9558 23.9922 13.5 23.9922 6.04415 23.9922-8.59365e-15 18.6214 0 11.9961Z" stroke="#000000" stroke-miterlimit="8" fill="#FFFF00" fill-rule="evenodd" transform="matrix(1 0 -0 1.00033 137.5 151.5)"/><path d="M0 13.1724 5.76122 4.82177 15.7388 0 27.2612 0 37.2388 4.82177 43 13.1724 43 22.8159 37.2388 31.1665 27.2612 35.9882 15.7388 35.9882 5.76122 31.1665 0 22.8159Z" stroke="#000000" stroke-miterlimit="8" fill="#9966FF" fill-rule="evenodd" transform="matrix(1 0 -0 1.00033 184.5 224.5)"/><path d="M0 0 40.9707 66.0423" stroke="#000000" stroke-miterlimit="8" fill="none" fill-rule="evenodd" transform="matrix(1 0 -0 1.00033 45.5 176.5)"/><path d="M0 0 41.8088 67.0322" stroke="#000000" stroke-miterlimit="8" fill="none" fill-rule="evenodd" transform="matrix(-1 -8.74228e-08 -8.74515e-08 1.00033 144.309 173.5)"/><rect x="0" y="0" width="84.9999" height="34.9885" stroke="#000000" stroke-miterlimit="8" fill="#0033CC" transform="matrix(1 0 -0 1.00033 52.5 228.5)"/></g></svg>