<svg width="250" height="301" xmlns="http://www.w3.org/2000/svg" xmlns:xlink="http://www.w3.org/1999/xlink" overflow="hidden"><defs><clipPath id="clip0"><path d="M0 0 250 0 250 301 0 301Z" fill-rule="evenodd" clip-rule="evenodd"/></clipPath></defs><g clip-path="url(#clip0)"><rect x="0" y="0" width="250" height="300.901" fill="#FFFFFF" transform="scale(1 1.00033)"/><path d="M0 0 211.482 0.000105127" stroke="#000000" stroke-miterlimit="8" fill="none" fill-rule="evenodd" transform="matrix(1 0 -0 1.00033 19.5 14.5)"/><path d="M0 0 211.482 0.000105127" stroke="#000000" stroke-miterlimit="8" fill="none" fill-rule="evenodd" transform="matrix(1 0 -0 1.00033 19.5 23.5)"/><path d="M0 0 0.203631 77.6897" stroke="#000000" stroke-miterlimit="8" fill="none" fill-rule="evenodd" transform="matrix(-1 -8.74228e-08 -8.74515e-08 1.00033 45.7037 23.5)"/><path d="M0 0 0.000105127 30.6896" stroke="#000000" stroke-miterlimit="8" fill="none" fill-rule="evenodd" transform="matrix(1 0 -0 1.00033 205.5 23.5)"/><rect x="0" y="0" width="37" height="36.9878" stroke="#000000" stroke-miterlimit="8" fill="#008000" transform="matrix(1 0 -0 1.00033 27.5 101.5)"/><path d="M0 0 0.672708 81.8193" stroke="#000000" stroke-miterlimit="8" fill="none" fill-rule="evenodd" transform="matrix(1 0 -0 1.00033 45.5 138.5)"/><path d="M0 27.9908 22.5 0 45.0001 27.9908Z" stroke="#000000" stroke-miterlimit="8" fill="#993366" fill-rule="evenodd" transform="matrix(1 0 -0 1.00033 23.5 220.5)"/><path d="M0 0 0.000105127 93.7967" stroke="#000000" stroke-miterlimit="8" fill="none" fill-rule="evenodd" transform="matrix(1 0 -0 1.00033 100.5 23.5)"/><path d="M0 0 0.000105127 46.5314" stroke="#000000" stroke-miterlimit="8" fill="none" fill-rule="evenodd" transform="matrix(1 0 -0 1.00033 149.5 23.5)"/><rect x="0" y="0" width="37" height="36.9879" stroke="#000000" stroke-miterlimit="8" fill="#00B0F0" transform="matrix(1 0 -0 1.00033 82.5 117.5)"/><path d="M0 11.996C-1.78238e-15 5.37081 6.268-1.52726e-15 14-3.05451e-15 21.732-6.10903e-15 28 5.37081 28 11.996 28 18.6213 21.732 23.9921 14 23.9921 6.268 23.9921-8.91192e-15 18.6213 0 11.996Z" stroke="#000000" stroke-miterlimit="8" fill="#0033CC" fill-rule="evenodd" transform="matrix(1 0 -0 1.00033 135.5 70.5)"/><path d="M4.8119e-05 13.7463 22 0 43.9999 13.7463 35.5967 35.9882 8.40326 35.9882Z" stroke="#000000" stroke-miterlimit="8" fill="#993366" fill-rule="evenodd" transform="matrix(1 0 -0 1.00033 183.5 54.5)"/><path d="M0 26.9912C-3.69208e-15 12.0844 12.9837-3.43633e-15 29-6.87267e-15 45.0162-1.37453e-14 58 12.0844 58 26.9912 58 41.898 45.0162 53.9823 29 53.9823 12.9837 53.9823-1.84604e-14 41.898 0 26.9912Z" stroke="#000000" stroke-miterlimit="8" fill="#00FF00" fill-rule="evenodd" transform="matrix(1 0 -0 1.00033 155.5 227.5)"/><path d="M0 0 27.631 80.6293" stroke="#000000" stroke-miterlimit="8" fill="none" fill-rule="evenodd" transform="matrix(1 0 -0 1.00033 149.5 94.5)"/><path d="M0 0 17.8019 85.5729" stroke="#000000" stroke-miterlimit="8" fill="none" fill-rule="evenodd" transform="matrix(-1 -8.74228e-08 -8.74515e-08 1.00033 205.302 90.5)"/><rect x="0" y="0" width="70" height="27.9908" stroke="#000000" stroke-miterlimit="8" fill="#FF0000" transform="matrix(1 0 -0 1.00033 149.5 161.5)"/><path d="M0 0 0.000105127 38.1781" stroke="#000000" stroke-miterlimit="8" fill="none" fill-rule="evenodd" transform="matrix(1 0 -0 1.00033 184.5 189.5)"/></g></svg>