<svg width="250" height="301" xmlns="http://www.w3.org/2000/svg" xmlns:xlink="http://www.w3.org/1999/xlink" overflow="hidden"><defs><clipPath id="clip0"><path d="M0 0 250 0 250 301 0 301Z" fill-rule="evenodd" clip-rule="evenodd"/></clipPath></defs><g clip-path="url(#clip0)"><rect x="0" y="0" width="250" height="300.901" fill="#FFFFFF" transform="scale(1 1.00033)"/><path d="M0 0 211.482 0.000105127" stroke="#000000" stroke-miterlimit="8" fill="none" fill-rule="evenodd" transform="matrix(1 0 -0 1.00033 19.5 14.5)"/><path d="M0 0 211.482 0.000105127" stroke="#000000" stroke-miterlimit="8" fill="none" fill-rule="evenodd" transform="matrix(1 0 -0 1.00033 19.5 23.5)"/><path d="M0 0 0.000105127 124.25" stroke="#000000" stroke-miterlimit="8" fill="none" fill-rule="evenodd" transform="matrix(-1 -8.74228e-08 -8.74515e-08 1.00033 45.5001 23.5)"/><path d="M0 0 0.000105127 146.376" stroke="#000000" stroke-miterlimit="8" fill="none" fill-rule="evenodd" transform="matrix(1 0 -0 1.00033 205.5 23.5)"/><path d="M0 0 0.000105127 46.5314" stroke="#000000" stroke-miterlimit="8" fill="none" fill-rule="evenodd" transform="matrix(1 0 -0 1.00033 100.5 23.5)"/><path d="M0 0 0.000105127 79.4875" stroke="#000000" stroke-miterlimit="8" fill="none" fill-rule="evenodd" transform="matrix(1 0 -0 1.00033 149.5 23.5)"/><path d="M0 48.9839 11.5 0 34.5 0 46 48.9839Z" stroke="#000000" stroke-miterlimit="8" fill="#993366" fill-rule="evenodd" transform="matrix(-1 -8.74228e-08 8.74515e-08 -1.00033 68.5 197.5)"/><path d="M0 11.996C-2.48261e-15 5.37081 8.73045-1.52726e-15 19.5-3.05451e-15 30.2696-6.10903e-15 39 5.37081 39 11.996 39 18.6213 30.2696 23.9921 19.5 23.9921 8.73045 23.9921-1.24131e-14 18.6213 0 11.996Z" stroke="#000000" stroke-miterlimit="8" fill="#843C0C" fill-rule="evenodd" transform="matrix(1 0 -0 1.00033 81.5 70.5)"/><rect x="0" y="0" width="37.0001" height="46.9845" stroke="#000000" stroke-miterlimit="8" fill="#00FF00" transform="matrix(1 0 -0 1.00033 131.5 103.5)"/><rect x="0" y="0" width="38" height="69.9771" stroke="#000000" stroke-miterlimit="8" fill="#FFFF00" transform="matrix(1 0 -0 1.00033 99.5 166.5)"/><path d="M0 9.99669C-1.27313e-15 4.47567 4.47715-1.27271e-15 10-2.54542e-15 15.5228-5.09085e-15 20 4.47567 20 9.99669 20 15.5177 15.5228 19.9934 10 19.9934 4.47715 19.9934-6.36567e-15 15.5177 0 9.99669Z" stroke="#000000" stroke-miterlimit="8" fill="#FF0000" fill-rule="evenodd" transform="matrix(1 0 -0 1.00033 108.5 264.5)"/><path d="M0 0 17.654 73.1879" stroke="#000000" stroke-miterlimit="8" fill="none" fill-rule="evenodd" transform="matrix(1 0 -0 1.00033 100.5 93.5)"/><path d="M0 0 31.1514 15.6338" stroke="#000000" stroke-miterlimit="8" fill="none" fill-rule="evenodd" transform="matrix(-1 -8.74228e-08 -8.74515e-08 1.00033 149.651 150.5)"/><path d="M0 0 0.000105127 27.1514" stroke="#000000" stroke-miterlimit="8" fill="none" fill-rule="evenodd" transform="matrix(1 0 0 -1.00033 118.5 263.66)"/><path d="M0 30.49C-1.65507e-15 13.6508 5.8203-3.88178e-15 13-7.76357e-15 20.1797-1.55271e-14 26 13.6508 26 30.49 26 47.3292 20.1797 60.98 13 60.98 5.8203 60.98-8.27537e-15 47.3292 0 30.49Z" stroke="#000000" stroke-miterlimit="8" fill="#FF66FF" fill-rule="evenodd" transform="matrix(1 0 -0 1.00033 192.5 170.5)"/></g></svg>