<svg width="250" height="301" xmlns="http://www.w3.org/2000/svg" xmlns:xlink="http://www.w3.org/1999/xlink" overflow="hidden"><defs><clipPath id="clip0"><path d="M0 0 250 0 250 301 0 301Z" fill-rule="evenodd" clip-rule="evenodd"/></clipPath></defs><g clip-path="url(#clip0)"><rect x="0" y="0" width="250" height="300.901" fill="#FFFFFF" transform="scale(1 1.00033)"/><path d="M0 0 211.482 0.000105127" stroke="#000000" stroke-miterlimit="8" fill="none" fill-rule="evenodd" transform="matrix(1 0 -0 1.00033 19.5 14.5)"/><path d="M0 0 211.482 0.000105127" stroke="#000000" stroke-miterlimit="8" fill="none" fill-rule="evenodd" transform="matrix(1 0 -0 1.00033 19.5 23.5)"/><path d="M0 0 0.000105127 114.343" stroke="#000000" stroke-miterlimit="8" fill="none" fill-rule="evenodd" transform="matrix(-1 -8.74228e-08 -8.74515e-08 1.00033 45.5001 23.5)"/><path d="M0 0 0.45909 140.935" stroke="#000000" stroke-miterlimit="8" fill="none" fill-rule="evenodd" transform="matrix(-1 -8.74228e-08 -8.74515e-08 1.00033 205.959 23.5)"/><path d="M0 0 0.000105127 79.4875" stroke="#000000" stroke-miterlimit="8" fill="none" fill-rule="evenodd" transform="matrix(1 0 -0 1.00033 100.5 23.5)"/><path d="M0 0 0.000105127 109.574" stroke="#000000" stroke-miterlimit="8" fill="none" fill-rule="evenodd" transform="matrix(1 0 -0 1.00033 149.5 23.5)"/><rect x="0" y="0" width="29" height="26.9912" stroke="#000000" stroke-miterlimit="8" fill="#00B0F0" transform="matrix(1 0 -0 1.00033 30.5 137.5)"/><path d="M0 13.4956C-1.84605e-15 6.04218 6.49188-1.71817e-15 14.5-3.43633e-15 22.5082-6.87267e-15 29 6.04218 29 13.4956 29 20.949 22.5082 26.9912 14.5 26.9912 6.49188 26.9912-9.23023e-15 20.949 0 13.4956Z" stroke="#000000" stroke-miterlimit="8" fill="#9966FF" fill-rule="evenodd" transform="matrix(1 0 -0 1.00033 86.5 103.5)"/><rect x="0" y="0" width="45.0001" height="41.9863" stroke="#000000" stroke-miterlimit="8" fill="#FFFF00" transform="matrix(1 0 -0 1.00033 127.5 122.5)"/><path d="M0 31.9895 18 0 36 31.9895 18 63.9789Z" stroke="#000000" stroke-miterlimit="8" fill="#FFC000" fill-rule="evenodd" transform="matrix(1 0 -0 1.00033 187.5 142.5)"/><path d="M0 0 48.1981 26.5922" stroke="#000000" stroke-miterlimit="8" fill="none" fill-rule="evenodd" transform="matrix(1 0 -0 1.00033 45.5 164.5)"/><path d="M0 0 56.6781 26.5922" stroke="#000000" stroke-miterlimit="8" fill="none" fill-rule="evenodd" transform="matrix(-1 -8.74228e-08 -8.74515e-08 1.00033 150.178 164.5)"/><path d="M0 16.9944C-4.96522e-15 7.60866 17.4609-2.16362e-15 39-4.32723e-15 60.5392-8.65446e-15 78.0001 7.60866 78.0001 16.9944 78.0001 26.3802 60.5392 33.9888 39 33.9888 17.4609 33.9888-2.48261e-14 26.3802 0 16.9944Z" stroke="#000000" stroke-miterlimit="8" fill="#0033CC" fill-rule="evenodd" transform="matrix(1 0 -0 1.00033 54.5 174.5)"/></g></svg>