<svg width="250" height="301" xmlns="http://www.w3.org/2000/svg" xmlns:xlink="http://www.w3.org/1999/xlink" overflow="hidden"><defs><clipPath id="clip0"><path d="M0 0 250 0 250 301 0 301Z" fill-rule="evenodd" clip-rule="evenodd"/></clipPath></defs><g clip-path="url(#clip0)"><rect x="0" y="0" width="250" height="300.901" fill="#FFFFFF" transform="scale(1 1.00033)"/><path d="M0 0 0.203631 77.6897" stroke="#000000" stroke-miterlimit="8" fill="none" fill-rule="evenodd" transform="matrix(-1 -8.74228e-08 -8.74515e-08 1.00033 62.7037 115.5)"/><path d="M0 0 211.482 0.000105127" stroke="#000000" stroke-miterlimit="8" fill="none" fill-rule="evenodd" transform="matrix(1 0 -0 1.00033 19.5 14.5)"/><path d="M0 0 211.482 0.000105127" stroke="#000000" stroke-miterlimit="8" fill="none" fill-rule="evenodd" transform="matrix(1 0 -0 1.00033 19.5 23.5)"/><path d="M0 0 0.845221 43.1365" stroke="#000000" stroke-miterlimit="8" fill="none" fill-rule="evenodd" transform="matrix(-1 -8.74228e-08 -8.74515e-08 1.00033 45.3452 23.5)"/><path d="M0 0 0.000105127 146.376" stroke="#000000" stroke-miterlimit="8" fill="none" fill-rule="evenodd" transform="matrix(1 0 -0 1.00033 205.5 23.5)"/><path d="M0 0 0.000105127 195.342" stroke="#000000" stroke-miterlimit="8" fill="none" fill-rule="evenodd" transform="matrix(1 0 -0 1.00033 138.5 24.5)"/><path d="M0 0 0.000105127 35.7999" stroke="#000000" stroke-miterlimit="8" fill="none" fill-rule="evenodd" transform="matrix(1 0 -0 1.00033 85.5 23.5)"/><path d="M0 27.9908 6.99772 0 26.0022 0 32.9999 27.9908Z" stroke="#000000" stroke-miterlimit="8" fill="#008000" fill-rule="evenodd" transform="matrix(1 0 -0 1.00033 28.5 38.5)"/><path d="M0 28.9904 7.24758 0 24.7524 0 31.9999 28.9904Z" stroke="#000000" stroke-miterlimit="8" fill="#00B0F0" fill-rule="evenodd" transform="matrix(1 0 -0 1.00033 69.5 60.5)"/><rect x="0" y="0" width="58" height="35.9882" stroke="#000000" stroke-miterlimit="8" fill="#9966FF" transform="matrix(1 0 -0 1.00033 109.5 207.5)"/><path d="M0 16.9944C-1.71873e-15 7.60866 6.04415-2.16362e-15 13.5-4.32723e-15 20.9558-8.65446e-15 27 7.60866 27 16.9944 27 26.3802 20.9558 33.9888 13.5 33.9888 6.04415 33.9888-8.59365e-15 26.3802 0 16.9944Z" stroke="#000000" stroke-miterlimit="8" fill="#993366" fill-rule="evenodd" transform="matrix(1 0 -0 1.00033 49.5 175.5)"/><path d="M0 17.5631 6.29715 6.42902 17.2028 0 29.7971 0 40.7028 6.42902 47 17.5631 47 30.4212 40.7028 41.5553 29.7971 47.9843 17.2028 47.9843 6.29715 41.5553 0 30.4212Z" stroke="#000000" stroke-miterlimit="8" fill="#00FF00" fill-rule="evenodd" transform="matrix(1 0 -0 1.00033 182.5 132.5)"/><path d="M0 0 13.494 55.3687" stroke="#000000" stroke-miterlimit="8" fill="none" fill-rule="evenodd" transform="matrix(1 0 -0 1.00033 44.5 65.5)"/><path d="M0 0 18.0637 32.2324" stroke="#000000" stroke-miterlimit="8" fill="none" fill-rule="evenodd" transform="matrix(-1 -8.74228e-08 -8.74515e-08 1.00033 85.5636 89.5)"/><path d="M4.48381e-05 15.2736 20.5 0 40.9999 15.2736 33.1697 39.9868 7.8303 39.9868Z" stroke="#000000" stroke-miterlimit="8" fill="#0070C0" fill-rule="evenodd" transform="matrix(1 0 -0 1.00033 42.5 101.5)"/></g></svg>