<svg width="250" height="301" xmlns="http://www.w3.org/2000/svg" xmlns:xlink="http://www.w3.org/1999/xlink" overflow="hidden"><defs><clipPath id="clip0"><path d="M0 0 250 0 250 301 0 301Z" fill-rule="evenodd" clip-rule="evenodd"/></clipPath></defs><g clip-path="url(#clip0)"><rect x="0" y="0" width="250" height="300.901" fill="#FFFFFF" transform="scale(1 1.00033)"/><path d="M0 0 211.482 0.000105127" stroke="#000000" stroke-miterlimit="8" fill="none" fill-rule="evenodd" transform="matrix(1 0 -0 1.00033 19.5 14.5)"/><path d="M0 0 211.482 0.000105127" stroke="#000000" stroke-miterlimit="8" fill="none" fill-rule="evenodd" transform="matrix(1 0 -0 1.00033 19.5 23.5)"/><path d="M0 0 0.360376 131.958" stroke="#000000" stroke-miterlimit="8" fill="none" fill-rule="evenodd" transform="matrix(1 0 -0 1.00033 45.5 23.5)"/><path d="M0 0 0.000105127 200.198" stroke="#000000" stroke-miterlimit="8" fill="none" fill-rule="evenodd" transform="matrix(1 0 -0 1.00033 205.5 23.5)"/><path d="M0 0 0.40558 120.221" stroke="#000000" stroke-miterlimit="8" fill="none" fill-rule="evenodd" transform="matrix(1 0 -0 1.00033 138.5 24.5)"/><path d="M0 0 0.000105127 177.95" stroke="#000000" stroke-miterlimit="8" fill="none" fill-rule="evenodd" transform="matrix(1 0 -0 1.00033 85.5 23.5)"/><rect x="0" y="0" width="64.9999" height="67.9777" stroke="#000000" stroke-miterlimit="8" fill="#FFC000" transform="matrix(1 0 -0 1.00033 176.5 127.5)"/><path d="M0 23.4923 22 0 44 23.4923 22 46.9845Z" stroke="#000000" stroke-miterlimit="8" fill="#00B0F0" fill-rule="evenodd" transform="matrix(1 0 -0 1.00033 117.5 132.5)"/><path d="M0 7.99738C-1.14582e-15 3.58055 4.02943-1.01817e-15 8.99998-2.03635e-15 13.9705-4.07269e-15 18 3.58055 18 7.99738 18 12.4142 13.9705 15.9948 8.99998 15.9948 4.02943 15.9948-5.72909e-15 12.4142 0 7.99738Z" stroke="#000000" stroke-miterlimit="8" fill="#843C0C" fill-rule="evenodd" transform="matrix(1 0 -0 1.00033 36.5 149.5)"/><path d="M5.03062e-05 14.8918 23 0 46 14.8918 37.2148 38.9871 8.78523 38.9871Z" stroke="#000000" stroke-miterlimit="8" fill="#FF66FF" fill-rule="evenodd" transform="matrix(1 0 0 -1.00033 62.5 93.5)"/><path d="M0 17.9941C-1.4641e-15 8.05622 5.14873-2.29089e-15 11.5-4.58177e-15 17.8513-9.16354e-15 23 8.05622 23 17.9941 23 27.9319 17.8513 35.9881 11.5 35.9881 5.14873 35.9881-7.32052e-15 27.9319 0 17.9941Z" stroke="#000000" stroke-miterlimit="8" fill="#FFFF00" fill-rule="evenodd" transform="matrix(1 0 -0 1.00033 34.5 96.5)"/><path d="M0 25.9914 6.49786 0 20.5022 0 27 25.9914Z" stroke="#000000" stroke-miterlimit="8" fill="#FFFF00" fill-rule="evenodd" transform="matrix(1 0 -0 1.00033 192.5 220.5)"/><path d="M0 0 23.3857 33.6617" stroke="#000000" stroke-miterlimit="8" fill="none" fill-rule="evenodd" transform="matrix(1 0 -0 1.00033 85.5 203.5)"/><path d="M0 0 18.4863 58.4358" stroke="#000000" stroke-miterlimit="8" fill="none" fill-rule="evenodd" transform="matrix(-1 -8.74228e-08 -8.74515e-08 1.00033 138.986 179.5)"/><path d="M0 17.1972 6.96705 6.29507 19.0329 0 32.967 0 45.0329 6.29507 51.9999 17.1972 51.9999 29.7873 45.0329 40.6895 32.967 46.9845 19.0329 46.9845 6.96705 40.6895 0 29.7873Z" stroke="#000000" stroke-miterlimit="8" fill="#FF0000" fill-rule="evenodd" transform="matrix(1 0 -0 1.00033 88.5 219.5)"/><path d="M4.48381e-05 15.6554 20.5 0 40.9999 15.6554 33.1697 40.9864 7.8303 40.9864Z" stroke="#000000" stroke-miterlimit="8" fill="#0033CC" fill-rule="evenodd" transform="matrix(1 0 -0 1.00033 65.5 165.5)"/></g></svg>