<svg width="250" height="301" xmlns="http://www.w3.org/2000/svg" xmlns:xlink="http://www.w3.org/1999/xlink" overflow="hidden"><defs><clipPath id="clip0"><path d="M0 0 250 0 250 301 0 301Z" fill-rule="evenodd" clip-rule="evenodd"/></clipPath></defs><g clip-path="url(#clip0)"><rect x="0" y="0" width="250" height="300.901" fill="#FFFFFF" transform="scale(1 1.00033)"/><path d="M0 0 24.935 46.7617" stroke="#000000" stroke-miterlimit="8" fill="none" fill-rule="evenodd" transform="matrix(1 0 -0 1.00033 47.5 178.5)"/><path d="M0 0 211.482 0.000105127" stroke="#000000" stroke-miterlimit="8" fill="none" fill-rule="evenodd" transform="matrix(1 0 -0 1.00033 19.5 14.5)"/><path d="M0 0 211.482 0.000105127" stroke="#000000" stroke-miterlimit="8" fill="none" fill-rule="evenodd" transform="matrix(1 0 -0 1.00033 19.5 23.5)"/><path d="M0 0 2.49509 149.566" stroke="#000000" stroke-miterlimit="8" fill="none" fill-rule="evenodd" transform="matrix(1 0 -0 1.00033 45.5 23.5)"/><path d="M0 0 0.188072 133.055" stroke="#000000" stroke-miterlimit="8" fill="none" fill-rule="evenodd" transform="matrix(-1 -8.74228e-08 -8.74515e-08 1.00033 124.688 23.5)"/><path d="M0 0 0.000105127 219.644" stroke="#000000" stroke-miterlimit="8" fill="none" fill-rule="evenodd" transform="matrix(1 0 -0 1.00033 205.5 23.5)"/><path d="M0 10.9964C-3.24649e-15 4.92325 11.4167-1.39999e-15 25.5-2.79998e-15 39.5832-5.59995e-15 51 4.92325 51 10.9964 51 17.0695 39.5832 21.9928 25.5 21.9928 11.4167 21.9928-1.62324e-14 17.0695 0 10.9964Z" stroke="#000000" stroke-miterlimit="8" fill="#0033CC" fill-rule="evenodd" transform="matrix(1 0 -0 1.00033 99.5 145.5)"/><path d="M0 31.9895 18 0 36 31.9895 18 63.9789Z" stroke="#000000" stroke-miterlimit="8" fill="#FF0000" fill-rule="evenodd" transform="matrix(1 0 -0 1.00033 187.5 214.5)"/><rect x="0" y="0" width="81.0001" height="12.9957" stroke="#000000" stroke-miterlimit="8" fill="#FF66FF" transform="matrix(1 0 -0 1.00033 7.49997 172.5)"/><path d="M0 0 27.9195 61.9987" stroke="#000000" stroke-miterlimit="8" fill="none" fill-rule="evenodd" transform="matrix(-1 -8.74228e-08 -8.74515e-08 1.00033 125.42 167.5)"/><path d="M0 62.9793 22.5 0 44.9999 62.9793Z" stroke="#000000" stroke-miterlimit="8" fill="#843C0C" fill-rule="evenodd" transform="matrix(-1 -8.74228e-08 8.74515e-08 -1.00033 107.5 278.5)"/></g></svg>