<svg width="250" height="301" xmlns="http://www.w3.org/2000/svg" xmlns:xlink="http://www.w3.org/1999/xlink" overflow="hidden"><defs><clipPath id="clip0"><path d="M0 0 250 0 250 301 0 301Z" fill-rule="evenodd" clip-rule="evenodd"/></clipPath></defs><g clip-path="url(#clip0)"><rect x="0" y="0" width="250" height="300.901" fill="#FFFFFF" transform="scale(1 1.00033)"/><path d="M0 0 211.482 0.000105127" stroke="#000000" stroke-miterlimit="8" fill="none" fill-rule="evenodd" transform="matrix(1 0 -0 1.00033 19.5 14.5)"/><path d="M0 0 211.482 0.000105127" stroke="#000000" stroke-miterlimit="8" fill="none" fill-rule="evenodd" transform="matrix(1 0 -0 1.00033 19.5 23.5)"/><path d="M0 0 0.000105127 178.551" stroke="#000000" stroke-miterlimit="8" fill="none" fill-rule="evenodd" transform="matrix(-1 -8.74228e-08 -8.74515e-08 1.00033 45.5001 23.5)"/><path d="M0 0 0.000105127 115.382" stroke="#000000" stroke-miterlimit="8" fill="none" fill-rule="evenodd" transform="matrix(1 0 -0 1.00033 125.5 23.5)"/><path d="M0 0 0.000105127 146.376" stroke="#000000" stroke-miterlimit="8" fill="none" fill-rule="evenodd" transform="matrix(1 0 -0 1.00033 205.5 23.5)"/><rect x="0" y="0" width="31" height="22.9924" stroke="#000000" stroke-miterlimit="8" fill="#FF0000" transform="matrix(1 0 -0 1.00033 29.5 35.5)"/><rect x="0" y="0" width="53" height="49.9836" stroke="#000000" stroke-miterlimit="8" fill="#FF66FF" transform="matrix(1 0 -0 1.00033 97.5 229.5)"/><path d="M0 24.9917C-2.73724e-15 11.1892 9.62588-3.18178e-15 21.5-6.36357e-15 33.3741-1.27271e-14 43 11.1892 43 24.9917 43 38.7943 33.3741 49.9835 21.5 49.9835 9.62588 49.9835-1.36862e-14 38.7943 0 24.9917Z" stroke="#000000" stroke-miterlimit="8" fill="#0033CC" fill-rule="evenodd" transform="matrix(1 0 -0 1.00033 185.5 45.5)"/><path d="M0 29.9901 7.49752 0 49.5025 0 57 29.9901Z" stroke="#000000" stroke-miterlimit="8" fill="#00B0F0" fill-rule="evenodd" transform="matrix(1 0 -0 1.00033 96.5 109.5)"/><path d="M0 23.4923 22.5 0 45.0001 23.4923 22.5 46.9846Z" stroke="#000000" stroke-miterlimit="8" fill="#FFC000" fill-rule="evenodd" transform="matrix(1 0 -0 1.00033 183.5 168.5)"/><path d="M0 0 55.2283 52.2139" stroke="#000000" stroke-miterlimit="8" fill="none" fill-rule="evenodd" transform="matrix(1 0 -0 1.00033 42.5 202.5)"/><path d="M0 0 55.349 39.3026" stroke="#000000" stroke-miterlimit="8" fill="none" fill-rule="evenodd" transform="matrix(1 0 0 -1.00033 150.5 254.816)"/><path d="M0 10.2451 4.68937 3.75026 12.8107 0 22.1894 0 30.3107 3.75026 35.0001 10.2451 35.0001 17.7457 30.3107 24.2405 22.1894 27.9908 12.8107 27.9908 4.68937 24.2405 0 17.7457Z" stroke="#000000" stroke-miterlimit="8" fill="#843C0C" fill-rule="evenodd" transform="matrix(1 0 -0 1.00033 27.5 188.5)"/></g></svg>