<svg width="301" height="250" xmlns="http://www.w3.org/2000/svg" xmlns:xlink="http://www.w3.org/1999/xlink" overflow="hidden"><defs><clipPath id="clip0"><path d="M0 0 301 0 301 250 0 250Z" fill-rule="evenodd" clip-rule="evenodd"/></clipPath></defs><g clip-path="url(#clip0)"><rect x="0" y="0" width="300.901" height="250" fill="#D3D3C3" transform="scale(1.00033 1)"/><path d="M38.7668 0 38.7668 0C37.3327 0.159313 35.5786 0.266982 34.128 0.6625 33.4541 0.846227 32.8027 1.10413 32.14 1.325L31.146 1.65625C29.4893 1.54587 27.828 1.49016 26.1759 1.325 25.6155 1.26897 25.0823 0.99375 24.5192 0.99375 23.519 0.99375 22.5311 1.21462 21.5371 1.325L19.5491 1.9875C19.2177 2.09788 18.8457 2.12511 18.555 2.31875 16.9799 3.36863 17.9388 2.85532 15.573 3.64375L14.579 3.975C14.2476 4.08538 13.9294 4.24887 13.5849 4.30625 10.8265 4.76583 12.262 4.54256 9.27752 4.96875 8.62267 5.18701 7.7566 5.37877 7.28948 5.9625 7.07127 6.23512 7.12773 6.65098 6.95814 6.95625 6.57139 7.65224 6.07453 8.28125 5.63278 8.94375 5.41185 9.275 5.09606 9.55982 4.9701 9.9375 4.74917 10.6 4.69491 11.344 4.30742 11.925 4.08649 12.2563 3.8065 12.555 3.64474 12.9188 3.36109 13.5569 3.20299 14.2438 2.98206 14.9063L2.65072 15.9 2.31938 16.8938C2.20897 17.225 2.18173 17.5969 1.98804 17.8875 1.76711 18.2188 1.48712 18.5175 1.32536 18.8813 1.04171 19.5194 0.66268 20.8688 0.66268 20.8688 0.552268 21.9729 0.500089 23.0845 0.33134 24.1813 0.278221 24.5264 0 24.8258 0 25.175 0 27.1464 0.308277 29.1887 0.66268 31.1375 0.763387 31.6914 0.845831 32.2506 0.994021 32.7938 1.1778 33.4675 1.43577 34.1188 1.6567 34.7813L1.98804 35.775C2.09845 36.1063 2.12569 36.4782 2.31938 36.7688L3.64474 38.7563C3.86567 39.0875 4.18146 39.3723 4.30742 39.75 4.57688 40.5583 4.65911 41.0954 5.30144 41.7375 5.583 42.019 5.96412 42.1791 6.29546 42.4 7.51991 44.2361 6.25758 42.7838 7.95216 43.725L10.9342 45.7125C11.2656 45.9334 11.5505 46.2491 11.9282 46.375L14.9103 47.3688 23.8565 50.35 26.8386 51.3438C27.1699 51.4541 27.4837 51.6584 27.8326 51.675 36.1192 52.0695 32.4768 51.8135 38.7668 52.3375 39.3191 52.4479 39.8772 52.5322 40.4235 52.6688 40.7624 52.7535 41.0682 53 41.4175 53 46.1681 53 50.916 52.7791 55.6651 52.6688 56.3278 52.4479 57.072 52.3936 57.6532 52.0063L60.6353 50.0188C60.9666 49.7979 61.2515 49.4822 61.6293 49.3563L64.6113 48.3625 65.6054 48.0313C65.9367 47.9209 66.3087 47.8936 66.5994 47.7L68.5874 46.375C68.6978 46.0438 68.7005 45.6539 68.9188 45.3813 69.1675 45.0704 69.6069 44.9736 69.9128 44.7188 72.4639 42.5933 69.4328 44.7074 71.9008 43.0625 72.484 41.3134 72.0385 42.3593 73.5575 40.0813 73.7785 39.75 74.0942 39.4652 74.2202 39.0875 75.053 36.5897 73.9296 39.6685 75.2142 37.1 75.3704 36.7877 75.4352 36.4375 75.5456 36.1063 76.0351 30.7225 76.1958 30.6701 75.5456 23.5188 75.4823 22.8233 75.1038 22.1938 74.8829 21.5313 74.7725 21.2 74.7452 20.8281 74.5515 20.5375L73.8889 19.5438C73.1993 16.7862 74.0389 19.5126 72.8948 17.225 72.7386 16.9127 72.7331 16.5365 72.5635 16.2313 71.4265 14.1853 71.6962 14.549 70.2441 13.5813 69.4944 11.3326 70.5832 13.9202 67.9247 11.2625 67.2621 10.6 66.4565 10.0546 65.9367 9.275 65.0531 7.95 65.6054 8.50212 64.28 7.61875 64.0591 7.2875 63.8989 6.90649 63.6173 6.625 62.6677 5.6757 62.7072 6.17012 61.6293 5.63125 61.2731 5.45316 60.9914 5.14684 60.6353 4.96875 59.831 4.56676 58.8163 4.53307 57.9845 4.30625 57.3106 4.12252 56.6592 3.86462 55.9965 3.64375L53.0144 2.65 52.0204 2.31875C51.6891 2.20837 51.3689 2.05594 51.0264 1.9875 47.122 1.20679 51.9821 2.14671 47.0503 1.325 46.1514 1.17518 44.2593 0.712683 43.4056 0.6625 42.1927 0.591138 39.5399 0.110382 38.7668 0Z" stroke="#000000" stroke-miterlimit="8" fill="#D9D9D9" fill-rule="evenodd" transform="matrix(1.00033 0 -0 1 63.5 96.5)"/><path d="M68.6441 0 68.6441 0C67.7555 0.333333 66.9021 0.782572 65.9783 0.999999 64.9992 1.23045 63.9805 1.2379 62.9793 1.33333 54.2275 2.16714 63.1305 1.20546 55.9816 2 49.2487 1.62583 47.6656 1.35989 39.9869 2 39.2868 2.05837 38.6899 2.65365 37.9875 2.66666L19.9934 3 16.9944 4 15.9947 4.33333C15.6615 4.44441 15.3436 4.62309 14.9951 4.66666 13.7477 4.82267 11.9548 4.98089 10.6632 5.33333 9.98538 5.51821 9.2483 5.61018 8.66382 6 7.99737 6.44441 7.42433 7.08 6.66448 7.33333 6.33125 7.44441 5.9719 7.49606 5.6648 7.66666 4.96467 8.05574 3.66546 8.99999 3.66546 8.99999 3.2212 9.66666 2.58582 10.2399 2.33257 11 2.22153 11.3333 2.15646 11.6858 1.99934 12 1.82019 12.3583 1.51205 12.6417 1.3329 13 1.09392 13.4782 0.773184 14.9061 0.666448 15.3333 0.555408 17 0.517625 18.6732 0.333224 20.3333 0.294391 20.6825 0 20.9819 0 21.3333 0 22.8928 0.101909 24.4577 0.333224 26 0.782525 28.9961 0.806034 27.0641 1.66612 29 1.95138 29.6422 2.11038 30.3333 2.33257 31L2.66579 32C2.77683 32.3333 2.93017 32.6554 2.99901 33 3.47004 35.3558 3.15308 34.1291 3.99869 36.6666 4.10972 37 3.99869 37.5556 4.33191 37.6666 6.84457 38.5044 3.74743 37.3743 6.33125 38.6666 6.64537 38.8238 6.9977 38.8889 7.33092 39 9.24085 41.8658 6.69775 38.4932 8.99704 40.3333 12.0706 42.7929 6.85549 39.794 10.6632 42.3333 10.9555 42.5282 11.3487 42.5095 11.6628 42.6666 12.021 42.8459 12.2965 43.1706 12.6625 43.3333 13.3045 43.6187 13.9954 43.7777 14.6618 44L16.6612 44.6666C16.9944 44.7777 17.3201 44.9147 17.6609 45 18.1051 45.111 18.5551 45.2017 18.9938 45.3333 19.6666 45.5352 20.4086 45.6102 20.9931 46 21.3263 46.2222 21.6268 46.5039 21.9928 46.6666 22.6348 46.952 23.3257 47.111 23.9921 47.3333L24.9918 47.6666C25.325 47.7777 25.6416 47.9682 25.9915 48L29.6569 48.3333C30.2123 48.4444 30.7767 48.5176 31.323 48.6666 32.0008 48.8515 32.6559 49.111 33.3224 49.3333 33.6556 49.4444 33.9776 49.5978 34.3221 49.6666 36.3326 50.0688 35.4508 49.8208 36.9878 50.3333 39.6536 50.2222 42.3171 50 44.9852 50 55.581 50 46.3519 50.3081 52.9826 50.6666 56.201 50.8407 59.4249 50.8889 62.6461 51 64.6454 50.8889 66.6492 50.8402 68.6441 50.6666 69.2083 50.6176 69.7608 50.4707 70.3102 50.3333 70.651 50.2481 70.9599 50.0292 71.3099 50 73.637 49.806 75.975 49.7777 78.3076 49.6666 78.974 49.4444 79.6098 48.9128 80.3069 49 83.5347 49.4035 82.0946 49.1577 84.6388 49.6666 89.6372 49.5556 94.6524 49.7575 99.6339 49.3333 100.033 49.2993 100.121 48.6916 100.3 48.3333 100.457 48.0191 100.476 47.6475 100.634 47.3333 100.813 46.975 101.121 46.6916 101.3 46.3333 101.457 46.0191 101.347 45.5375 101.633 45.3333 102.205 44.9248 102.966 44.8889 103.633 44.6666 106.03 43.8674 103.036 44.837 105.965 44 106.303 43.9035 106.632 43.7777 106.965 43.6666 107.187 43 107.242 42.2513 107.631 41.6666 107.853 41.3333 108.119 41.025 108.298 40.6666 108.537 40.1884 108.857 38.7605 108.964 38.3333 108.853 32 108.835 25.6643 108.631 19.3333 108.613 18.767 108.421 18.2197 108.298 17.6667 107.962 16.1554 107.852 15.9952 107.298 14.3333L106.632 12.3333 106.298 11.3333C106.187 9.77774 106.196 8.20892 105.965 6.66666 105.874 6.05931 105.288 4.24073 104.632 3.66666 104.03 3.139 103.299 2.77774 102.633 2.33333 102.3 2.11107 102.013 1.79338 101.633 1.66667 101.3 1.55559 100.956 1.47171 100.634 1.33333 100.177 1.13764 99.7572 0.862362 99.3007 0.666666 98.6314 0.379737 97.6445 0.169134 96.9681 0L73.6425 0.333333C60.286 0.684934 69.4772 0.055538 68.6441 0Z" stroke="#000000" stroke-miterlimit="8" fill="#595959" fill-rule="evenodd" transform="matrix(1.00033 0 -0 1 29.5 149.5)"/><path d="M0 18.189 0 18.189C0.15093 17.7808 0.870645 15.2257 1.63105 14.5512 2.2211 14.0277 3.5883 13.2284 3.5883 13.2284 3.80581 12.8977 4.10304 12.6084 4.24072 12.2362 4.43542 11.7099 4.44662 11.1314 4.56693 10.5827 5.07684 8.25648 4.6744 10.2011 5.21935 8.26772 5.53836 7.13592 5.65066 5.84621 6.52418 4.96063 6.80138 4.67961 7.1766 4.51972 7.50281 4.29922 8.07694 2.55297 7.54288 3.50041 9.78628 1.98425L10.7649 1.32284C11.0911 1.10233 11.3523 0.686208 11.7435 0.661418 17.8378 0.275296 15.2332 0.549862 19.5726 0 22.3606 0.217383 23.0386 0.0289566 25.1181 0.661418 25.7768 0.861718 26.5032 0.936089 27.0754 1.32284L28.054 1.98425C28.2715 2.31496 28.4002 2.72806 28.7064 2.97638 28.9749 3.19418 29.4418 3.06054 29.685 3.30709 29.9282 3.55364 29.8574 3.98747 30.0112 4.29922 31.276 6.86354 30.17 3.78977 30.9899 6.28347 30.9072 8.54833 30.8503 15.1396 30.3375 18.5197 30.1276 19.9032 29.928 19.2055 29.3588 20.504 29.0796 21.1411 28.7064 22.4882 28.7064 22.4882 28.5977 24.4725 28.6234 26.469 28.3802 28.441 28.2949 29.1328 27.9453 29.7638 27.7278 30.4252 27.2776 31.7944 27.5923 31.1273 26.7492 32.4095 26.6405 32.9607 26.5688 33.5208 26.4229 34.063L25.4443 37.0394C25.3356 37.3701 25.2015 37.6933 25.1181 38.0315 25.0094 38.4724 24.9685 38.9366 24.7919 39.3544 24.6375 39.7197 24.3149 39.991 24.1395 40.3465 23.9857 40.6582 24.0281 41.0665 23.8133 41.3386 23.5683 41.649 23.1609 41.7795 22.8346 42 19.5426 41.5829 21.0567 41.9504 18.2677 41.0079L17.2891 40.6772C16.9629 40.567 16.5966 40.5398 16.3105 40.3465 15.9843 40.126 15.6901 39.8465 15.3318 39.6851 11.8381 38.1109 14.6107 39.8591 12.396 38.3622 10.6562 35.7166 12.9397 38.9135 10.7649 36.7087 8.59014 34.5039 11.7435 36.8189 9.13386 35.0552 8.91892 34.4015 8.73008 33.5371 8.15523 33.0709 7.88676 32.8531 7.50281 32.8504 7.1766 32.7402 6.35671 30.2465 7.55809 33.2236 5.87177 31.0866 5.65693 30.8145 5.69936 30.4063 5.54556 30.0945 5.00184 28.9922 4.89314 29.1024 3.91451 28.441 3.34038 26.6947 3.77899 27.7389 2.28346 25.4646 2.06596 25.1339 1.75506 24.8495 1.63105 24.4725 1.52234 24.1418 1.39535 23.8167 1.30484 23.4803 0.201068 19.3776 1.07706 22.1262 0.326209 19.8425L0 18.189Z" stroke="#000000" stroke-miterlimit="8" fill="#A6A6A6" fill-rule="evenodd" transform="matrix(1.00033 0 -0 1 139.5 156.5)"/><path d="M19.4427 3.98864 19.4427 3.98864C18.5488 4.43178 17.6383 4.84363 16.761 5.31818 16.4073 5.50945 16.1235 5.82069 15.7553 5.98295 15.1095 6.2675 14.4144 6.4261 13.744 6.64773L11.7327 7.3125 10.727 7.64489C9.19018 9.93076 9.64091 8.88126 9.05092 10.6364 8.93922 19.3892 9.02706 28.1468 8.7157 36.8949L7.71004 39.8864 7.37483 40.8835C7.26312 42.1023 7.21413 43.3283 7.03961 44.5398 6.98967 44.8866 6.80141 45.2 6.70439 45.5369 6.57779 45.9762 6.49576 46.4272 6.36917 46.8665 6.27214 47.2034 6.11968 47.5237 6.03395 47.8636 5.55545 49.7613 5.87969 49.149 5.36351 50.8551 5.16048 51.5263 4.91658 52.1847 4.69307 52.8494 4.58137 53.1818 4.44358 53.5067 4.35785 53.8466 4.24615 54.2897 4.15503 54.7385 4.02263 55.1761 3.8196 55.8473 3.49082 56.4833 3.35219 57.1704 3.24049 57.7245 3.1669 58.2874 3.01697 58.8324 2.83105 59.5085 2.51789 60.1468 2.34653 60.8267L2.01132 62.1562C1.89961 67.5852 1.88261 73.017 1.6761 78.4432 1.65868 78.8997 1.47328 79.3351 1.34088 79.7727 0.116667 83.8188 1.10786 80.0321 0.335219 83.0966 0.223515 84.0937 0 85.0847 0 86.0881 0 86.762 0.239141 87.4152 0.335219 88.0824 0.539096 89.4977 0.621555 91.0067 1.00566 92.4034 1.19159 93.0795 1.45258 93.7329 1.6761 94.3977L2.01132 95.3949C2.12302 95.7273 2.2608 96.0521 2.34653 96.392 2.45824 96.8352 2.54936 97.284 2.68175 97.7216 2.98636 98.7284 3.35219 99.7159 3.68741 100.713L5.02829 104.702 5.36351 105.699C5.47521 106.031 5.613 106.356 5.69873 106.696 5.81043 107.139 5.90736 107.586 6.03395 108.026 6.13098 108.362 6.27214 108.686 6.36917 109.023 6.49576 109.462 6.57779 109.913 6.70439 110.352 6.80141 110.689 6.75211 111.146 7.03961 111.349 7.6147 111.757 8.46294 111.625 9.05092 112.014 10.6446 113.068 9.67438 112.553 12.0679 113.344L13.0736 113.676C13.4088 113.787 13.7276 113.974 14.0792 114.009 15.2448 114.124 18.0564 114.33 19.4427 114.673 20.1284 114.843 20.7836 115.116 21.454 115.338L23.4654 116.003 24.471 116.335C24.8062 116.446 25.1269 116.618 25.4767 116.668L27.8232 117C31.7341 116.889 35.648 116.857 39.5559 116.668 43.1537 116.494 40.0419 116.257 43.2433 116.003 45.4738 115.826 47.7128 115.781 49.9477 115.67 50.1712 115.338 50.3333 114.956 50.6181 114.673 50.903 114.391 51.3721 114.32 51.6238 114.009 51.8445 113.735 51.8009 113.325 51.959 113.011 52.5177 111.903 52.6294 112.014 53.6351 111.349 54.4321 108.978 53.302 111.845 54.976 109.355 55.1719 109.064 55.1531 108.671 55.3112 108.358 55.4914 108.001 55.7581 107.693 55.9816 107.361 55.8699 105.477 55.8357 103.588 55.6464 101.71 55.6112 101.362 55.532 100.987 55.3112 100.713 55.0595 100.401 54.6407 100.27 54.3055 100.048 53.2096 96.7884 54.9863 101.393 52.9646 98.3864 52.709 98.0062 52.8109 97.4767 52.6294 97.0568 52.4707 96.6897 52.1226 96.4247 51.959 96.0596 51.672 95.4193 51.5121 94.7301 51.2886 94.0653 51.1768 93.7329 51.0391 93.4081 50.9533 93.0682 50.1115 89.7292 50.5743 91.2758 49.6125 88.4148L49.2772 87.4176C49.1655 80.5482 49.1551 73.6766 48.942 66.8096 48.9311 66.4595 48.6068 66.1629 48.6068 65.8125 48.6068 63.8271 48.8644 63.9213 49.2772 62.4886 49.4038 62.0494 49.5008 61.6022 49.6125 61.1591 50.873 48.6598 48.9719 68.4672 50.2829 34.2358 50.319 33.2937 51.2799 30.6052 51.6238 29.5824L51.959 28.5852C52.0707 27.3664 52.0798 26.1341 52.2942 24.929 52.417 24.2389 52.7933 23.6145 52.9646 22.9347 53.3856 21.2652 53.1542 22.0385 53.6351 20.608 53.1393 10.7763 53.8708 16.6743 52.9646 12.6307 52.841 12.0792 52.8097 11.5048 52.6294 10.9687 52.4714 10.4987 52.1558 10.0946 51.959 9.6392 51.8198 9.31718 51.7355 8.97443 51.6238 8.64204 51.5121 7.86651 51.393 7.09192 51.2886 6.31534 51.1695 5.42988 51.0808 4.54055 50.9533 3.65625 50.8478 2.92364 50.8198 1.24119 49.9477 0.664773 49.7447 0.530667 46.9677 0.0073282 46.9307 0 44.9194 0.221626 42.9002 0.380962 40.8968 0.664773 40.547 0.71429 40.2432 0.968055 39.8911 0.997159 37.5501 1.19062 35.198 1.21878 32.8515 1.32955 32.1811 1.44031 31.5036 1.51568 30.8402 1.66193 30.4952 1.73794 30.1869 1.9694 29.8345 1.99432 27.0459 2.19187 24.2475 2.21594 21.454 2.3267 20.6719 2.43746 19.8774 2.4829 19.1075 2.65909 18.4189 2.81665 17.7666 3.10224 17.0962 3.32386 15.8535 3.73456 19.0516 3.87788 19.4427 3.98864Z" stroke="#000000" stroke-miterlimit="8" fill="#A6A6A6" fill-rule="evenodd" transform="matrix(1.00033 0 -0 1 169.5 86.5)"/><path d="M0 17.717 0 17.717C0.110787 16.0492 0.148483 14.3748 0.332465 12.7135 0.371209 12.364 0.49477 12.0201 0.66493 11.7127 1.053 11.0119 1.32986 10.156 1.99479 9.7113L2.99218 9.04416C3.17334 8.49889 3.44685 7.38302 3.98958 7.04273 4.58393 6.66997 5.98437 6.37559 5.98437 6.37559 6.09515 6.04201 6.06897 5.62355 6.31683 5.37487 6.88186 4.80795 7.55349 4.2941 8.31162 4.04058 12.5167 2.63422 9.60629 3.40685 17.2882 3.03987 18.3963 2.92871 19.5181 2.91221 20.6128 2.70629 21.3017 2.57665 21.9427 2.26157 22.6076 2.03915L24.6024 1.37201C24.9349 1.26085 25.2598 1.12374 25.5998 1.03843 26.4864 0.816017 27.3926 0.66126 28.2595 0.371289L29.2569 0.0377173C32.0274 0.148873 34.8732-0.281461 37.5685 0.371289 38.3454 0.559455 38.4551 1.70558 38.8984 2.37272L39.5633 3.37344C39.785 3.70701 40.1018 3.99383 40.2282 4.37415L40.5607 5.37487C40.6715 6.93157 40.6624 8.50151 40.8932 10.0449 40.9971 10.7403 41.5581 12.0463 41.5581 12.0463 42.0626 16.0956 42.1916 15.8777 41.5581 21.3863 41.4778 22.0849 41.1148 22.7206 40.8932 23.3878 40.7824 23.7213 40.7551 24.0959 40.5607 24.3885L39.8958 25.3892C39.2241 32.1273 40.085 25.964 38.8984 30.7263 38.7876 31.1711 38.8668 31.7156 38.5659 32.0606 38.1837 32.4988 36.4943 33.6199 35.5737 33.7285 34.0289 33.9109 32.4708 33.9509 30.9192 34.0621 25.9787 35.7144 29.6249 34.7543 19.6154 34.3956L15.6258 33.0613 14.6284 32.7278C14.296 32.6166 13.9227 32.5892 13.6311 32.3942 13.2986 32.1718 12.9988 31.8899 12.6337 31.7271 11.9931 31.4415 11.222 31.45 10.6389 31.0599 7.78051 29.148 11.397 31.4402 8.64408 30.0592 8.2867 29.8799 7.97915 29.6145 7.64669 29.392 6.53851 27.7242 7.31422 28.6138 4.98697 27.057L3.98958 26.3899C3.87879 26.0563 3.82727 25.6966 3.65711 25.3892 3.26904 24.6883 2.57993 24.1484 2.32725 23.3878 2.21647 23.0542 2.15154 22.7015 1.99479 22.387 1.81604 22.0285 1.49216 21.7527 1.32986 21.3863 0.629851 19.8061 0.221678 18.3286 0 17.717Z" stroke="#000000" stroke-miterlimit="8" fill="#595959" fill-rule="evenodd" transform="matrix(1.00033 0 -0 1 225.5 169.5)"/><path d="M2.71582 10.4358 2.71582 10.4358C2.15928 11.2212 1.5002 11.9423 1.0463 12.7922 0.712607 13.417 0.378494 14.812 0.378494 14.812-0.0870778 19.5062-0.163849 18.5604 0.378494 24.5745 0.410359 24.9279 0.615749 25.2432 0.712397 25.5844 0.838491 26.0293 0.914422 26.4878 1.0463 26.931 2.2657 31.0288 1.2784 27.1937 2.04801 30.2973 2.15928 32.205 2.13677 34.1254 2.38191 36.0202 2.47299 36.7239 2.82708 37.3667 3.04972 38.04L3.38362 39.0499 4.71924 43.0896 5.05314 44.0995C5.1644 44.4361 5.19185 44.8141 5.38704 45.1094 5.60968 45.446 5.89184 45.7496 6.05485 46.1193 6.34069 46.7679 6.33217 47.5486 6.72266 48.1391 6.94529 48.4757 7.21094 48.7871 7.39046 49.149 7.99938 50.3768 7.4808 51.1173 9.05998 52.1788L10.0617 52.852C10.2843 53.1887 10.4275 53.5955 10.7295 53.8619 12.3228 55.2675 12.8449 55.2461 14.7363 55.8818L17.7415 56.8917C18.0754 57.0039 18.393 57.193 18.7432 57.2283 19.8561 57.3405 20.9734 57.4159 22.0822 57.5649 22.6447 57.6405 23.2012 57.7628 23.7517 57.9016 24.0932 57.9877 24.4015 58.2291 24.7534 58.2382 33.099 58.454 41.4486 58.4627 49.7962 58.5749 54.1402 59.0615 54.0856 59.2164 59.8133 58.5749 60.5129 58.4965 61.1489 58.126 61.8167 57.9016 64.2185 57.0944 61.2191 58.0737 64.154 57.2283 64.4924 57.1309 64.8042 56.9085 65.1557 56.8917 69.493 56.6834 73.8372 56.6672 78.1779 56.555 78.6231 56.4429 79.074 56.3514 79.5136 56.2184 80.857 55.8121 82.1883 55.3195 83.5204 54.8719L84.5221 54.5352C84.856 54.423 85.1754 54.2487 85.5238 54.1986 88.9434 53.7061 90.5616 53.3909 93.8714 53.1887 100.647 52.7746 107.886 52.684 114.573 52.5154L116.577 51.8421C116.911 51.7299 117.233 51.575 117.579 51.5055 118.726 51.2741 119.483 51.1491 120.584 50.8322 122.39 50.3119 120.811 50.5696 123.255 50.1589 125.692 49.7494 126.553 49.7342 129.265 49.4857 129.822 49.3735 130.381 49.2732 130.935 49.149 131.383 49.0486 131.822 48.9093 132.27 48.8124 133.175 48.617 135.674 48.1868 136.945 47.8025 137.619 47.5986 138.363 47.5229 138.948 47.1292L139.95 46.4559C141.864 43.5617 139.569 47.2236 140.952 44.4361 142.246 41.8258 141.114 44.9547 141.953 42.4163 141.842 41.1819 141.833 39.9339 141.62 38.7133 141.497 38.0143 140.952 36.6934 140.952 36.6934 140.84 35.3469 140.784 33.9946 140.618 32.6538 140.561 32.1947 140.304 31.7695 140.284 31.3073 140.081 26.5974 140.145 21.8787 139.95 17.1685 139.922 16.4865 139.78 15.8108 139.616 15.1487 139.445 14.4601 139.119 13.8174 138.948 13.1288 138.183 10.0432 138.79 11.2057 137.613 9.42584 137.506 8.99441 137.184 7.55234 136.945 7.06938 136.765 6.70751 136.457 6.42134 136.277 6.05947 136.12 5.74213 136.138 5.34484 135.943 5.04956 135.315 4.10029 133.734 3.22811 132.938 2.6931 131.555 1.76313 132.326 2.1179 130.601 1.68319 130.267 1.45873 129.968 1.16927 129.599 1.00991 129.177 0.82765 128.705 0.800401 128.263 0.673274 127.925 0.575835 127.613 0.355828 127.262 0.336637 123.481 0.130626 119.693 0.112177 115.909 0L100.883 0.336637C100.207 0.363356 99.5408 0.525154 98.88 0.673274 98.5364 0.75025 98.2299 0.996764 97.8782 1.00991 92.2047 1.22175 86.5255 1.23437 80.8492 1.34655L71.4999 2.01982C71.1506 2.06382 70.8418 2.27948 70.4982 2.35646 69.8373 2.50458 69.1609 2.57095 68.4948 2.6931 67.9364 2.79541 67.3892 2.96654 66.8252 3.02973 65.3829 3.19132 63.9292 3.22769 62.4845 3.36637 61.5912 3.45215 60.709 3.6483 59.8133 3.70301 57.0336 3.87286 54.2477 3.91496 51.4657 4.03965L44.7876 4.37628C44.3425 4.48846 43.8933 4.58579 43.452 4.71292 42.128 5.0943 42.447 5.19959 40.7808 5.38619 39.1986 5.56347 32.7838 5.95842 31.4315 6.05947 22.6769 6.71323 32.6926 6.19942 18.4093 6.73274 14.2516 7.43136 17.9876 6.69563 15.4041 7.40602 14.5186 7.64946 13.6036 7.78666 12.7329 8.07929 12.0651 8.30375 11.4124 8.58048 10.7295 8.75257 9.83905 8.97703 8.92894 9.1332 8.05827 9.42584 7.39046 9.6503 6.7378 9.92703 6.05485 10.0991 5.60968 10.2113 5.15883 10.3028 4.71924 10.4358 4.04501 10.6396 3.04972 10.4358 2.71582 10.4358Z" stroke="#000000" stroke-miterlimit="8" fill="#595959" fill-rule="evenodd" transform="matrix(1.00033 0 -0 1 78.5 38.5)"/></g></svg>