<svg width="301" height="250" xmlns="http://www.w3.org/2000/svg" xmlns:xlink="http://www.w3.org/1999/xlink" overflow="hidden"><defs><clipPath id="clip0"><path d="M0 0 301 0 301 250 0 250Z" fill-rule="evenodd" clip-rule="evenodd"/></clipPath></defs><g clip-path="url(#clip0)"><rect x="0" y="0" width="300.901" height="250" fill="#D3D3C3" transform="scale(1.00033 1)"/><path d="M119.883 52.0291 119.883 52.0291C118.881 51.8081 117.852 51.6884 116.878 51.3663 116.497 51.2403 116.243 50.8653 115.877 50.7035 115.233 50.4198 114.564 50.1777 113.873 50.0407 113.317 49.9303 112.752 49.8575 112.204 49.7093 111.525 49.5255 110.895 49.1613 110.201 49.0465 107.422 48.5867 108.868 48.8101 105.861 48.3837 105.527 48.2733 105.203 48.1281 104.859 48.0523 101.908 47.4013 103.849 48.0498 101.521 47.3895 101.182 47.2936 100.858 47.1541 100.519 47.0581 100.078 46.933 99.625 46.8519 99.1838 46.7267 97.3714 46.2127 98.3678 46.2052 95.5114 45.7325 94.8436 45.6221 94.172 45.533 93.5082 45.4012 93.0583 45.3118 92.614 45.1949 92.1728 45.0698 91.8344 44.9738 91.5175 44.8009 91.1712 44.7384 90.2885 44.5791 89.3871 44.5423 88.5004 44.407 87.9395 44.3213 87.3908 44.1682 86.8311 44.0756 86.0549 43.9472 85.2731 43.8546 84.4941 43.7442 79.7338 42.1691 84.6875 43.7517 81.1556 42.75 80.8172 42.6541 80.5006 42.4793 80.154 42.4186 79.8219 42.3605 75.2552 41.8155 73.8107 41.4244 73.1317 41.2406 72.4978 40.8987 71.8076 40.7616 71.2511 40.6512 70.6857 40.5784 70.1383 40.4302 69.4592 40.2464 68.8029 39.9884 68.1352 39.7674 67.8013 39.657 67.475 39.5208 67.1336 39.436 66.6885 39.3256 66.2394 39.2298 65.7982 39.1046 65.4598 39.0087 65.1362 38.8652 64.7966 38.7733 63.9112 38.5336 62.9963 38.3985 62.1258 38.1105 61.7919 38 61.4677 37.8548 61.1242 37.7791 60.4634 37.6332 59.7902 37.5499 59.1211 37.4477 56.6439 37.0694 56.4681 37.0814 53.7794 36.7849 50.9138 35.8367 55.4752 37.2886 50.7747 36.1221 50.0918 35.9527 49.4393 35.6803 48.7715 35.4593L45.7668 34.4651 44.7653 34.1337C44.4314 34.0233 44.1051 33.8871 43.7637 33.8023 43.3186 33.6919 42.8678 33.6018 42.4283 33.4709 41.7542 33.2702 41.108 32.9775 40.4251 32.8081 39.98 32.6977 39.5397 32.5661 39.0897 32.4767 38.4259 32.3449 37.7474 32.2912 37.0866 32.1453 35.2602 31.7425 36.8842 31.9456 35.0835 31.1512 34.4402 30.8675 33.748 30.7093 33.0803 30.4884 32.7465 30.3779 32.3716 30.3507 32.0788 30.157 31.7449 29.936 31.446 29.6511 31.0772 29.4942 30.6871 29.3282 28.3419 28.8786 28.0725 28.8314L24.0662 28.1686C23.3985 28.0582 22.7381 27.8888 22.0631 27.8372L17.723 27.5058C17.3891 27.3954 17.0628 27.2592 16.7214 27.1744 15.2891 26.819 14.5373 26.8071 13.049 26.5116 9.92661 25.8917 13.2576 26.4805 10.712 25.8488 10.1615 25.7122 9.60096 25.6182 9.04271 25.5174 8.01012 25.3311 5.95073 25.1283 5.03644 24.5233L4.03487 23.8605C2.47684 21.5407 3.36716 22.3139 1.69788 21.2093 0.858772 18.7104 1.99073 21.7906 0.696313 19.2209 0.538901 18.9085 0.473707 18.5581 0.362457 18.2267-0.073606 14.7643-0.166034 15.4643 0.362457 11.2674 0.406095 10.9208 0.476441 10.546 0.696313 10.2733 0.946994 9.96221 1.36402 9.83143 1.69788 9.61046 2.53699 7.11159 1.30745 10.0949 3.0333 7.95349 3.8885 6.8924 2.56191 5.67923 4.70258 4.97093 5.37029 4.74996 6.12013 4.69569 6.70572 4.30814 7.03957 4.08717 7.34062 3.80713 7.70728 3.64535 8.3505 3.36165 9.04271 3.20352 9.71042 2.98256L10.712 2.65116C11.0458 2.54073 11.3664 2.37717 11.7136 2.31977L13.7167 1.98837C18.1681 2.0988 22.6181 2.31977 27.0709 2.31977 28.3001 2.31977 29.5328 2.20036 30.7433 1.98837 31.4365 1.86698 32.7465 1.32558 32.7465 1.32558 32.9691 0.994186 33.1008 0.580229 33.4142 0.331395 33.6889 0.113144 34.0638 0 34.4157 0 35.7558 0 37.0866 0.220965 38.422 0.331395 38.7559 0.55236 39.1399 0.712578 39.4236 0.994186 39.7073 1.27579 39.7779 1.73954 40.0913 1.98837 40.3661 2.20662 40.759 2.20934 41.0929 2.31977 41.702 3.22669 41.7079 3.51164 42.7621 3.97674 43.4054 4.26044 44.1797 4.25198 44.7653 4.63953 46.0597 5.49605 45.3862 5.17634 46.7684 5.63372 47.1023 5.96512 47.3771 6.3679 47.77 6.62791 48.0628 6.82163 48.4214 6.92454 48.7715 6.9593 50.6572 7.14645 52.5552 7.18027 54.4471 7.2907 55.4487 7.18027 56.4578 7.1238 57.4518 6.9593 57.7989 6.90189 58.2045 6.87496 58.4534 6.62791 58.7023 6.38085 58.5009 5.83673 58.7872 5.63372 59.7038 4.98387 62.143 4.77909 63.1273 4.63953 63.4612 4.5291 63.777 4.30814 64.1289 4.30814 67.6918 4.30814 71.2605 4.36116 74.8123 4.63953 75.514 4.69454 76.1326 5.13292 76.8154 5.30232 77.7057 5.52329 78.6157 5.67704 79.4863 5.96512 80.3444 6.24902 80.901 6.46143 81.8233 6.62791 83.8541 6.99437 85.7557 7.10324 87.8327 7.2907L91.8389 8.61628 92.8405 8.94767C93.1744 9.0581 93.5492 9.08535 93.8421 9.27907L95.8452 10.6046C96.1791 10.8256 96.4661 11.1415 96.8468 11.2674 97.1806 11.3779 97.5407 11.4292 97.8483 11.5988 98.5498 11.9857 99.1838 12.4826 99.8515 12.9244 100.185 13.1454 100.472 13.4612 100.853 13.5872 101.187 13.6976 101.54 13.7624 101.855 13.9186 102.213 14.0968 102.49 14.4196 102.856 14.5814 103.499 14.8651 104.274 14.8566 104.859 15.2442 107.73 17.1436 104.098 14.8663 106.862 16.2384 107.221 16.4165 107.497 16.7394 107.864 16.9012 108.507 17.1849 109.282 17.1764 109.867 17.5639 112.737 19.4634 109.106 17.1861 111.87 18.5581 112.229 18.7363 112.505 19.0591 112.872 19.2209 113.515 19.5046 114.207 19.6628 114.875 19.8837L116.878 20.5465C117.212 20.6569 117.587 20.6842 117.88 20.8779 118.214 21.0989 118.515 21.3789 118.881 21.5407L121.886 22.5349 124.891 23.5291 125.892 23.8605C126.226 23.9709 126.552 24.1071 126.894 24.1919 130.247 25.024 128.694 24.5666 131.568 25.5174L134.572 26.5116C134.906 26.6221 135.281 26.6493 135.574 26.843 135.908 27.064 136.209 27.344 136.576 27.5058L139.58 28.5 140.582 28.8314C140.916 28.9418 141.291 28.9691 141.583 29.1628 141.917 29.3838 142.218 29.6638 142.585 29.8256 143.228 30.1093 144.003 30.1008 144.588 30.4884 147.458 32.3878 143.827 30.1105 146.591 31.4825 146.95 31.6607 147.226 31.9836 147.593 32.1453 148.236 32.429 149.01 32.4206 149.596 32.8081 152.466 34.7076 148.835 32.4303 151.599 33.8023 151.958 33.9805 152.234 34.3033 152.601 34.4651 153.244 34.7488 153.936 34.9069 154.604 35.1279 154.938 35.2383 155.313 35.2656 155.605 35.4593L156.607 36.1221C158.138 38.4011 157.181 37.8586 158.944 38.4419 159.055 38.7733 159.107 39.1306 159.278 39.436 159.667 40.1323 160.36 40.6687 160.613 41.4244L160.947 42.4186C160.836 46.0639 160.895 49.7184 160.613 53.3546 160.559 54.0513 160.531 54.9555 159.946 55.343 157.65 56.8623 158.704 56.4167 156.941 57 155.16 56.8896 153.373 56.854 151.599 56.6686 148.826 56.3788 152.681 56.1799 149.262 56.0058 145.371 55.8077 141.472 55.7848 137.577 55.6744 136.909 55.4534 136.271 55.1105 135.574 55.0116 131.471 54.4298 134.022 54.729 127.895 54.3488 125.976 53.7137 127.626 54.1937 124.557 53.686 123.997 53.5935 123.438 53.4913 122.888 53.3546 121.271 52.9534 120.384 52.25 119.883 52.0291Z" stroke="#000000" stroke-miterlimit="8" fill="#595959" fill-rule="evenodd" transform="matrix(1.00033 0 -0 1 74.5 34.5)"/><path d="M17.5674 3.34677 17.5674 3.34677C16.4452 4.12765 14.9605 4.55646 14.2007 5.68952 13.9762 6.02419 13.8433 6.44225 13.5273 6.69355 13.2502 6.91396 12.8275 6.85694 12.5173 7.02823 11.8099 7.41888 11.1706 7.92073 10.4972 8.36694L9.48718 9.03629C8.64098 11.5599 9.7825 8.44926 8.47715 11.0444 8.07049 11.8527 8.27122 12.413 7.46712 13.0524 7.19004 13.2728 6.79377 13.2756 6.45709 13.3871 6.2326 13.7218 5.9481 14.0236 5.78374 14.3911 5.49552 15.0359 5.24961 15.7073 5.11038 16.3992 4.91813 17.3546 4.72228 18.466 4.43703 19.4113 4.25835 20.0034 3.80249 21.8571 3.09032 22.4234 2.81324 22.6438 2.41697 22.6465 2.08029 22.7581 1.9681 23.0927 1.90236 23.4466 1.74361 23.7621 1.5626 24.1219 1.23462 24.3986 1.07026 24.7661 0.782044 25.4109 0.396907 26.7742 0.396907 26.7742-0.0412495 44.1972-0.216215 34.821 0.396907 45.1815 0.522247 47.3003 0.479194 49.4329 0.733584 51.5403 0.818098 52.2409 1.18245 52.879 1.40694 53.5484L1.74361 54.5524 2.08029 55.5565C2.19248 56.3373 2.2613 57.1257 2.41697 57.8992 2.83975 60.0004 3.12192 60.6709 3.76367 62.5847L4.10035 63.5887C4.21254 63.9234 4.24022 64.2992 4.43703 64.5928 4.66151 64.9274 4.92937 65.237 5.11038 65.5968 5.26912 65.9123 5.27474 66.2924 5.44706 66.6008 5.84004 67.304 6.53789 67.8457 6.79377 68.6089 7.0156 69.2703 7.2105 70.1451 7.8038 70.6169 8.08088 70.8374 8.47715 70.8401 8.81383 70.9516 9.66002 73.4753 8.4201 70.4624 10.1605 72.625 12.0191 74.9343 8.61267 72.3801 11.5072 74.2984 12.6295 75.9718 11.8439 75.0793 14.2007 76.6411L17.2307 78.6492C17.5674 78.8724 17.8393 79.2687 18.2408 79.3186 24.3881 80.0824 20.0299 79.6243 31.3712 79.9879L33.0546 80.3226C33.7262 80.444 34.4052 80.5241 35.0746 80.6573 35.5284 80.7475 35.9764 80.8656 36.4213 80.9919 36.7626 81.0888 37.0833 81.2575 37.4313 81.3266 38.2095 81.4814 39.0053 81.5316 39.7881 81.6613 43.9721 82.3545 38.1533 81.6662 44.8382 82.3307 45.3146 82.4885 46.7722 83 47.195 83 48.994 83 50.7862 82.7769 52.5818 82.6653 53.2552 82.4422 54.1 82.4949 54.6019 81.996 55.898 80.7076 55.2157 81.2545 56.6219 80.3226 56.7341 79.9879 56.9003 79.6665 56.9586 79.3186 57.7103 74.8349 56.8427 77.6562 57.632 75.3024 57.9667 61.6569 58.212 60.3125 57.632 46.1855 57.6175 45.833 57.4075 45.5161 57.2953 45.1815 57.0054 43.164 56.6836 41.2108 56.6219 39.1573 56.4343 32.9117 56.4912 26.6602 56.2852 20.4153 56.2665 19.8467 56.0772 19.2962 55.9486 18.7419 55.3144 16.0103 55.4058 16.4538 54.6019 14.0565 54.4897 13.7218 54.5605 13.2481 54.2652 13.0524L53.2552 12.3831C52.1329 10.7097 52.9185 11.6022 50.5617 10.0403L49.5517 9.37097C49.215 9.14782 48.9255 8.82884 48.5417 8.70161L47.5317 8.36694C47.3072 8.03226 47.2096 7.56245 46.8583 7.3629 46.3615 7.08072 45.73 7.16621 45.1749 7.02823 44.8306 6.94263 44.5182 6.72696 44.1649 6.69355 42.1509 6.50286 40.1248 6.4704 38.1047 6.35887 37.3192 6.24735 36.5081 6.25083 35.748 6.02419 35.3604 5.90866 35.0998 5.53477 34.7379 5.35484 34.4206 5.19704 34.0646 5.13169 33.7279 5.02016 33.5034 4.68548 33.3705 4.26743 33.0546 4.01613 32.7775 3.79572 32.2955 3.93096 32.0445 3.68145 31.7935 3.43195 31.9588 2.92693 31.7078 2.67742 31.4568 2.42791 31.0152 2.50054 30.6978 2.34274 30.3359 2.16281 30.0497 1.85332 29.6878 1.67339 29.3704 1.51559 28.9951 1.49651 28.6778 1.33871 28.3158 1.15877 28.0375 0.832741 27.6677 0.669355 27.0191 0.38285 25.6477 0 25.6477 0 24.9743 0.111524 24.2752 0.120062 23.6276 0.334677 23.2437 0.461908 22.9873 0.840647 22.6176 1.00403 21.9689 1.29054 21.2709 1.45023 20.5975 1.67339 20.2608 1.78491 19.8828 1.81242 19.5875 2.00806L17.5674 3.34677Z" stroke="#000000" stroke-miterlimit="8" fill="#D9D9D9" fill-rule="evenodd" transform="matrix(1.00033 0 -0 1 73.5 62.5)"/><path d="M77.5231 54.834 77.5231 54.834C78.0439 47.4623 78.2009 47.3924 77.5231 37.341 77.4754 36.6334 77.0795 35.9953 76.8576 35.3225L76.5249 34.3133C76.1258 29.4707 76.933 31.4 74.8613 28.258 74.6395 27.9216 74.5752 27.3767 74.1959 27.2488L72.1996 26.576C71.3633 24.0393 72.4914 27.1661 71.2014 24.5576 71.0446 24.2404 71.0878 23.8252 70.8687 23.5484 70.6189 23.2326 70.2033 23.0999 69.8706 22.8755 69.6487 22.2027 69.5942 21.4472 69.2051 20.8571 68.9833 20.5207 68.7021 20.2174 68.5397 19.8479 68.2549 19.1998 68.0961 18.5023 67.8743 17.8295 67.6037 17.0086 67.5211 16.4632 66.8761 15.811 66.5934 15.5252 66.2107 15.3625 65.878 15.1382 65.6561 14.8018 65.4686 14.4396 65.2125 14.129 64.9113 13.7636 64.4754 13.5156 64.2144 13.1198 64.0199 12.8247 64.167 12.3167 63.8817 12.1106 63.3109 11.6983 62.469 11.8312 61.8854 11.4378 59.5972 9.8955 60.6478 10.3478 58.8909 9.75575 58.6691 9.41934 58.5646 8.96077 58.2255 8.74653 57.6307 8.37061 56.8946 8.29803 56.2292 8.07372L52.2366 6.7281 48.244 5.38248 47.2458 5.04608C46.9131 4.93398 46.5879 4.79571 46.2477 4.70967 45.8041 4.59757 45.3548 4.50613 44.9168 4.37327 44.245 4.16952 43.601 3.87242 42.9205 3.70046 42.4769 3.58836 42.0277 3.49692 41.5896 3.36405 40.9178 3.1603 40.2588 2.91555 39.5933 2.69124 39.2606 2.57914 38.887 2.55149 38.5952 2.35484 37.952 1.92127 37.4091 1.42752 36.5989 1.34562 34.7196 1.15564 32.8281 1.12131 30.9427 1.00922 30.0554 0.897116 29.1607 0.834497 28.2809 0.67281 27.9359 0.609344 27.62 0.433777 27.2828 0.336405 26.8431 0.209366 26.3955 0.1121 25.9519 0 24.1775 0.1121 22.3621-0.0619833 20.6285 0.336405 19.8486 0.515574 19.3909 1.42636 18.6322 1.68203L16.6359 2.35484C16.3031 2.46694 15.9295 2.49459 15.6377 2.69124 12.7772 4.6194 16.3964 2.30769 13.6414 3.70046 13.2837 3.88132 13.0087 4.20904 12.6432 4.37327 12.0022 4.66125 11.3124 4.82177 10.6469 5.04608 10.3142 5.15818 9.94064 5.18583 9.64879 5.38248 6.78827 7.31064 10.4075 4.99893 7.65249 6.3917 7.29483 6.57256 6.98706 6.8402 6.65434 7.06451 5.81809 9.60116 7.04344 6.57277 5.32347 8.74653 5.10435 9.02339 5.14763 9.43863 4.99076 9.75575 4.81187 10.1174 4.54717 10.4286 4.32532 10.765 3.48981 14.1443 3.94912 12.579 2.99445 15.4746 2.88358 15.811 2.85623 16.1888 2.66174 16.4839 1.80181 17.7881 2.12279 17.1095 1.66359 18.5023 1.52285 19.6411 1.39479 22.1058 0.665434 23.212L0 24.2212C0.100287 25.8431 0.144614 29.5156 0.665434 31.6221 0.835513 32.3101 0.941773 33.0504 1.33087 33.6405 1.55271 33.9769 1.81742 34.2881 1.9963 34.6497 2.15318 34.9668 2.15873 35.3489 2.32902 35.6589 2.71738 36.3658 3.2163 37.0046 3.65989 37.6774 3.88173 38.0138 3.94597 38.5587 4.32532 38.6866L5.32347 39.023C5.54532 39.3594 5.68794 39.7659 5.98891 40.0322 6.59073 40.5647 7.98521 41.3778 7.98521 41.3778 8.73448 43.6505 7.69535 41.1871 9.31608 43.0598 9.84276 43.6684 10.2034 44.4055 10.6469 45.0783 10.8688 45.4147 10.933 45.9596 11.3124 46.0875 11.6451 46.1996 12.0039 46.2517 12.3105 46.4239 13.0096 46.8166 13.6414 47.321 14.3068 47.7695L15.305 48.4423C16.5184 52.123 14.4859 46.6463 16.6359 50.1244L17.634 53.152C17.7449 53.4884 17.7722 53.8661 17.9667 54.1612 18.1886 54.4976 18.4697 54.801 18.6322 55.1704L19.6303 58.1981 19.963 59.2073C20.0313 59.9672 19.8361 64.3228 21.6266 64.9262L22.6248 65.2626C22.8466 65.599 22.9511 66.0576 23.2902 66.2718L26.2846 67.281 29.2791 68.2902C29.6118 68.4023 29.927 68.6069 30.2772 68.6266L36.2662 68.963C36.8207 69.0751 37.3811 69.1608 37.9297 69.2994 39.512 69.6994 38.3917 69.6577 40.2588 69.9723 41.9935 70.2646 42.9849 70.2041 44.5841 70.6451 45.2608 70.8316 45.915 71.0936 46.5804 71.3179L48.5767 71.9907 49.5748 72.3271C49.9076 72.4392 50.2225 72.6509 50.573 72.6635L59.8891 72.9999C63.549 72.8878 67.2128 72.8688 70.8687 72.6635 71.2189 72.6438 71.6188 72.5779 71.8669 72.3271 72.4323 71.7554 73.1977 70.3087 73.1977 70.3087 73.2703 69.7221 73.3669 67.5116 73.8632 66.6082 74.2515 65.9014 74.9412 65.3569 75.1941 64.5898 75.3049 64.2534 75.3699 63.8977 75.5268 63.5806 75.7056 63.2189 76.0133 62.933 76.1922 62.5713 76.3491 62.2542 76.368 61.8792 76.5249 61.5621 76.9674 60.6676 77.4301 60.5772 77.5231 59.5437 77.6034 58.6503 77.5231 55.6189 77.5231 54.834Z" stroke="#000000" stroke-miterlimit="8" fill="#A6A6A6" fill-rule="evenodd" transform="matrix(1.00033 0 -0 1 177.5 88.5)"/><path d="M49.782 0 49.782 0C42.6544 0.111076 35.5211 0.0287664 28.3992 0.333333 26.1973 0.427507 26.8758 1.00882 25.3922 1.66667L22.3852 2.66667 20.3806 3.33333 19.3782 3.66667C19.1555 4 19.0123 4.40283 18.71 4.66667L15.7031 6.66667C15.369 6.88892 14.9847 7.05008 14.7007 7.33333 13.4145 8.61659 14.0916 8.07181 12.6961 9 10.9142 11.6667 13.253 8.44441 11.0256 10.6667 10.7416 10.9499 10.6144 11.3589 10.3573 11.6667 9.55338 12.6291 9.33828 12.6778 8.35269 13.3333 8.24136 13.6667 8.17612 14.0191 8.01858 14.3333 7.20199 15.9627 7.43613 14.6576 7.01626 16.3333 6.87851 16.8829 6.8199 17.4504 6.68215 18 6.59671 18.3409 6.44475 18.6622 6.34805 19 6.22187 19.4405 6.11359 19.8861 6.01394 20.3333 5.89071 20.8864 5.81758 21.4504 5.67983 22 5.59438 22.3409 5.44243 22.6622 5.34572 23 5.03119 24.0984 4.90712 24.8544 4.67751 26 4.56617 29.4444 4.53503 32.8924 4.3434 36.3333 4.31194 36.899 4.10263 37.4412 4.00929 38 3.87986 38.775 3.82966 39.5629 3.67518 40.3333 3.49503 41.2318 3.29741 42.1308 3.00697 43 2.89564 43.3333 2.92194 43.7515 2.67286 44 2.42378 44.2485 2.00465 44.2223 1.67054 44.3333 1.5592 44.6667 1.49396 45.0191 1.33643 45.3333 1.1568 45.6917 0.831323 45.9672 0.668215 46.3333 0.382198 46.9755 0 48.3333 0 48.3333 0.111334 49.1111 0.157004 49.9011 0.334108 50.6667 1.33643 55 0.668215 51 1.33643 53.6667 2.38095 57.8349 1.04599 52.6526 2.00465 56 2.13082 56.4405 2.20679 56.8945 2.33875 57.3333 2.54111 58.0064 2.7842 58.6667 3.00697 59.3333 3.1183 59.6667 3.04801 60.1385 3.34108 60.3333L4.3434 61C4.56617 61.6667 4.62089 62.4153 5.01162 63 5.23439 63.3333 5.5002 63.6417 5.67983 64 5.83736 64.3142 5.85641 64.6858 6.01394 65 6.19357 65.3583 6.51905 65.6339 6.68215 66 7.854 68.6305 6.54956 67.4674 8.35269 68.6667 10.2677 71.5325 7.71783 68.1599 10.0232 70 10.3368 70.2503 10.3779 70.7497 10.6914 71 10.9664 71.2195 11.3859 71.1627 11.6938 71.3333 12.3958 71.7224 13.0302 72.2223 13.6984 72.6667 14.0325 72.8889 14.3198 73.2066 14.7007 73.3333L18.71 74.6667C19.0441 74.7777 19.4193 74.8051 19.7124 75L21.717 76.3333C22.4389 76.8134 22.8414 77.2079 23.7216 77.3333 24.9394 77.5069 26.1717 77.5556 27.3968 77.6667 27.7309 77.7777 28.056 77.9209 28.3992 78 29.5059 78.2548 30.6628 78.3083 31.7402 78.6667 32.0743 78.7777 32.3935 78.9536 32.7426 79 34.0718 79.1768 35.4154 79.2223 36.7518 79.3333 39.6475 79.2223 42.5409 79 45.4386 79 64.3106 79 52.7765 79.2594 64.8169 79.6667L78.5153 80 94.5525 79.6667C95.5604 79.6314 96.5647 79.4988 97.5594 79.3333 97.9068 79.2756 98.2102 79.0212 98.5618 79 101.899 78.7982 105.244 78.7777 108.585 78.6667 110.812 78.4444 113.143 78.7062 115.267 78 115.601 77.8889 115.928 77.7519 116.269 77.6667 116.82 77.5292 117.392 77.4824 117.94 77.3333 118.62 77.1484 119.359 77.0565 119.945 76.6667 122.242 75.1385 121.187 75.5867 122.952 75 124.483 72.7076 124.034 73.7601 124.622 72 124.733 70.4444 124.801 68.8851 124.956 67.3333 125.263 64.2759 125.121 66.344 125.624 64.3333 125.762 63.7837 125.847 63.2223 125.959 62.6667 125.847 54.7777 125.925 46.884 125.624 39 125.59 38.0844 125.247 37.2025 124.956 36.3333 124.401 34.6715 124.291 34.5113 123.954 33 123.831 32.4469 123.721 31.8907 123.62 31.3333 123.499 30.6683 123.45 29.989 123.286 29.3333 123.115 28.6515 123.008 27.918 122.618 27.3333 122.042 26.4728 121.021 24.8637 120.279 24 119.971 23.6421 119.611 23.3333 119.276 23 119.165 22.6667 119.1 22.3142 118.942 22 118.477 21.0718 118.011 20.7372 117.272 20 116.506 17.7072 117.554 20.4919 115.935 17.6667 115.761 17.3616 115.772 16.9739 115.601 16.6667 115.115 15.7934 113.216 12.9844 112.26 12.6667L109.253 11.6667 108.251 11.3333C106.351 9.43769 108.18 10.9648 106.246 10 104.479 9.11821 105.966 9.56199 104.242 8.33333 103.836 8.04451 103.363 7.86236 102.905 7.66667 102.104 7.32409 101.414 7.24168 100.566 7 100.228 6.90352 99.912 6.72147 99.5641 6.66667 95.8331 6.07895 93.8083 5.96588 90.2091 5.66667L87.2021 4.66667C86.868 4.55559 86.4929 4.52819 86.1998 4.33333 85.8657 4.11108 85.5644 3.8294 85.1975 3.66667 83.6329 2.97291 83.0943 3.01522 81.5223 2.66667 81.074 2.56724 80.6449 2.3452 80.1858 2.33333 72.0578 2.12273 63.9259 2.11108 55.796 2 53.4347 1.52882 54.6642 1.84588 52.1208 1L51.1185 0.666667C50.7844 0.555591 50.4311 0.490499 50.1162 0.333333L49.782 0Z" stroke="#000000" stroke-miterlimit="8" fill="#595959" fill-rule="evenodd" transform="matrix(1.00033 0 -0 1 24.5 139.5)"/><path d="M33.4491 0.0423801 33.4491 0.0423801C25.7527 0.340846 23.9865 0.288163 16.3901 1.05409 15.2751 1.16646 14.157 1.25122 13.0452 1.39132 12.3722 1.47608 11.6961 1.56275 11.0382 1.72856 10.3541 1.90094 9.70024 2.17817 9.03126 2.40302 8.69677 2.5154 8.37766 2.69618 8.02779 2.74026L5.35186 3.0775 3.34491 3.75196 2.34144 4.0892C2.00695 4.42643 1.70132 4.79553 1.33796 5.1009 1.02918 5.36039 0.585649 5.45885 0.334491 5.77537 0.114201 6.05292 0.111462 6.44984 0 6.78708 0.111462 11.8456 0.0611039 16.9104 0.334491 21.9627 0.50337 25.0835 0.820478 24.4335 1.33796 26.3467 1.57985 27.241 1.78392 28.1453 2.00695 29.0446 2.19395 29.7986 2.68467 31.9243 3.01042 32.4169L7.02431 38.4872 7.6933 39.4989C7.91632 39.8361 8.23512 40.1261 8.36228 40.5106L9.70024 44.5574C9.8117 44.8946 9.8392 45.2733 10.0347 45.5691 10.2578 45.9063 10.5239 46.2183 10.7037 46.5808 10.8614 46.8987 10.7888 47.3411 11.0382 47.5925 11.2876 47.8439 11.7072 47.8174 12.0417 47.9297 12.2647 48.267 12.3967 48.6882 12.7107 48.9415 12.9135 49.105 14.9847 49.61 15.0521 49.6159 17.1654 49.8012 19.289 49.8408 21.4074 49.9532 21.7419 50.0655 22.0956 50.1314 22.4109 50.2904 23.9515 51.0669 23.1201 51.3494 25.4213 51.6393 35.0681 52.8551 27.1985 51.9622 49.1702 52.3138 49.8392 52.5387 50.5904 52.5939 51.1771 52.9883 52.5631 53.9199 51.7906 53.5645 53.5186 54 54.8565 53.8876 56.2081 53.8853 57.5325 53.6627 58.228 53.5459 59.5394 52.9883 59.5394 52.9883 61.3233 53.1007 63.11 53.1758 64.8913 53.3255 65.7871 53.4008 66.6682 53.6627 67.5672 53.6627 70.4683 53.6627 73.365 53.4379 76.264 53.3255L83.2883 50.9649C83.6228 50.8525 83.9984 50.8248 84.2917 50.6276L86.2987 49.2787C86.4102 48.9415 86.4755 48.5849 86.6332 48.267 86.813 47.9045 87.1389 47.6257 87.3022 47.2553 87.5885 46.6056 87.9712 45.2319 87.9712 45.2319 87.4983 42.8485 87.8165 44.0895 86.9677 41.5223 86.8562 41.185 86.8287 40.8064 86.6332 40.5106L85.9642 39.4989C85.8527 37.5878 85.8753 35.6641 85.6297 33.7659 85.5385 33.0609 85.1838 32.4169 84.9607 31.7425 84.8493 31.4052 84.8218 31.0266 84.6262 30.7308 84.4032 30.3935 84.1206 30.0894 83.9573 29.7191 83.6709 29.0693 83.5113 28.3701 83.2883 27.6956 83.1768 27.3584 83.0393 27.0288 82.9538 26.6839 81.9622 22.685 83.4833 29.0161 82.2848 22.9744 82.2157 22.6258 82.0359 22.3075 81.9503 21.9627 81.6989 20.9491 81.5209 19.1213 80.9468 18.2531 80.7238 17.9158 80.4412 17.6117 80.2779 17.2414 79.9915 16.5916 79.8319 15.8924 79.6089 15.218L78.9399 13.1945 78.6054 12.1828C78.4939 11.8456 78.4664 11.4669 78.2709 11.1711L76.9329 9.14773C76.7099 8.81049 76.5985 8.36088 76.264 8.13602L74.257 6.78708C74.034 6.44984 73.929 5.99014 73.588 5.77537 72.9901 5.39852 72.2501 5.32576 71.5811 5.1009L69.5741 4.42643C69.2397 4.31406 68.8641 4.28634 68.5707 4.0892 68.2362 3.86434 67.9346 3.57936 67.5672 3.41473 66.9228 3.12604 66.2292 2.96512 65.5602 2.74026L64.5568 2.40302 61.5464 1.39132C61.2119 1.27894 60.8886 1.12376 60.5429 1.05409 58.7384 0.69019 58.5442 0.6186 56.529 0.379615 55.4162 0.247589 54.3045 0.0594808 53.1841 0.0423801 46.9409-0.0530017 36.7383 0.0423801 33.4491 0.0423801Z" stroke="#000000" stroke-miterlimit="8" fill="#D9D9D9" fill-rule="evenodd" transform="matrix(1.00033 0 -0 1 177.5 159.5)"/></g></svg>