<svg width="301" height="250" xmlns="http://www.w3.org/2000/svg" xmlns:xlink="http://www.w3.org/1999/xlink" overflow="hidden"><defs><clipPath id="clip0"><path d="M0 0 301 0 301 250 0 250Z" fill-rule="evenodd" clip-rule="evenodd"/></clipPath></defs><g clip-path="url(#clip0)"><rect x="0" y="0" width="300.901" height="250" fill="#D3D3C3" transform="scale(1.00033 1)"/><path d="M17.9941 0 17.9941 0 15.3283 0.999999 12.3293 2 11.3296 2.33333C10.9964 2.44441 10.6222 2.47181 10.3299 2.66666L8.33058 3.99999C7.99736 4.22225 7.71084 4.53994 7.33091 4.66666 6.66446 4.88892 5.91605 4.94351 5.33157 5.33333L3.33223 6.66666C3.22119 6.99999 3.15612 7.35243 2.99901 7.66666 2.81986 8.02497 2.49524 8.30056 2.33256 8.66665 2.0473 9.30886 1.8883 9.99998 1.66612 10.6667L1.33289 11.6666C1.22185 13.7777 1.17515 15.8932 0.99967 18 0.807607 20.3051 0.715249 18.9468 0.333223 20.6666 0.186605 21.3264 0.111039 22 0 22.6666 0.0828073 23.2464 0.219035 25.1944 0.666446 26 1.62088 27.7185 1.99745 27.4915 2.33256 29 2.65172 30.4366 2.33833 31.0057 3.33223 32 4.68863 33.3568 4.35153 32.0131 6.33124 33.3333 6.66446 33.5555 6.96494 33.8372 7.33091 34 7.9729 34.2853 8.6638 34.4444 9.33025 34.6666L10.3299 34.9999C14.3439 34.7131 16.8402 34.5101 20.9931 34.3333L30.6565 34 32.6559 33.3333C33.6577 32.9992 33.794 33.0513 34.6552 32.3333 35.2869 31.8067 35.9469 31.0825 36.3213 30.3333 36.4784 30.0191 36.5755 29.6756 36.6546 29.3333 36.9093 28.2291 37.1348 27.1176 37.321 26 37.7295 23.5481 37.4904 24.6556 37.9874 22.6666 37.5671 19.3026 37.9374 20.8498 36.9878 18L36.6546 17 36.3213 16C36.286 15.3625 36.5032 9.77279 35.3217 7.99999L33.9888 5.99999C33.7666 5.66666 33.6555 5.22225 33.3223 4.99999L31.323 3.66666C29.7243 1.26782 31.9882 4.22141 28.6572 2 28.324 1.77774 28.0235 1.49606 27.6575 1.33333 26.6143 0.8695 24.8151 0.381522 23.6588 0.333333 21.6613 0.250078 19.6602 0.333333 17.9941 0Z" stroke="#000000" stroke-miterlimit="8" fill="#D9D9D9" fill-rule="evenodd" transform="matrix(1.00033 0 -0 1 96.5 166.5)"/><path d="M0 15.1964 0 15.1964C0.11104 17.8393 0.161417 20.4854 0.333224 23.125 0.471657 25.2521 0.681142 25.4813 1.3329 27.4196L1.66612 28.4107C1.93585 30.2822 1.88369 30.487 2.33257 32.0446 2.5494 32.7969 2.74808 33.4476 3.33224 34.0268 3.61541 34.3075 3.99869 34.4672 4.33192 34.6875 4.44296 35.0178 4.44569 35.4067 4.66514 35.6786 4.96573 36.0511 6.15431 36.6359 6.66449 36.6696 9.65889 36.8675 12.6625 36.8899 15.6615 37 16.5502 36.8899 17.4517 36.8557 18.3273 36.6696 19.0143 36.5238 19.6602 36.2292 20.3267 36.0089L21.3264 35.6786C21.6596 35.5685 22.0337 35.5413 22.326 35.3482L23.3257 34.6875 23.9922 32.7053 24.3254 31.7143C24.4364 30.8333 24.471 29.9395 24.6586 29.0714 24.8058 28.3904 25.1029 27.75 25.3251 27.0893 25.8031 25.6674 25.5731 26.4361 25.9915 24.7768 25.8805 20.0417 25.8658 15.3034 25.6583 10.5714 25.6336 10.0097 25.0236 8.95117 24.6586 8.58928 24.3754 8.30856 23.9922 8.14884 23.6589 7.92857 23.4367 7.59821 23.1552 7.30032 22.9925 6.9375 22.6835 6.24827 22.4397 4.58307 21.6596 3.96428 21.3853 3.74672 20.967 3.80301 20.6599 3.63393 19.9598 3.24832 19.4204 2.56357 18.6606 2.3125L16.6612 1.65179C16.328 1.5417 15.9538 1.51454 15.6615 1.32143 15.3283 1.10116 15.0278 0.821991 14.6619 0.660714 14.0199 0.377908 12.6625 0 12.6625 0 10.7742 0.110084 8.84866-0.0559786 6.99771 0.330357 6.60582 0.41214 6.51042 0.966307 6.33126 1.32143 6.17415 1.63285 6.07424 1.97257 5.99804 2.3125 5.85142 2.96635 6.0523 3.74588 5.66481 4.29464 5.20544 4.94516 3.66547 5.61607 3.66547 5.61607 3.44328 5.94643 3.1617 6.24432 2.99902 6.60714 2.71376 7.24361 2.72226 8.00983 2.33257 8.58928L1.66612 9.58035C1.32555 14.6456 0.277705 14.2604 0 15.1964Z" stroke="#000000" stroke-miterlimit="8" fill="#595959" fill-rule="evenodd" transform="matrix(1.00033 0 -0 1 165.5 167.5)"/><path d="M35.0353 1.00532 35.0353 1.00532C33.9877 1.11699 32.9428 1.25641 31.8923 1.34043 26.6999 1.75564 23.0922 1.80694 17.5739 2.01064 16.7218 2.28316 16.1556 2.36633 15.4786 3.01596 13.8989 4.53169 15.772 3.70401 13.7324 4.35638 13.4996 4.69149 13.3307 5.07694 13.034 5.3617 11.6079 6.7301 11.5789 5.1942 10.5894 8.04255 10.473 8.37766 10.3412 8.70823 10.2401 9.04787 10.1083 9.49074 10.2069 10.0417 9.89091 10.3883 9.33809 10.9944 8.494 11.282 7.79554 11.7287L6.74786 12.3989C5.87011 14.9258 7.05419 11.8112 5.70017 14.4096 5.53551 14.7255 5.46732 15.0798 5.35094 15.4149 5.105 17.5388 5.18618 18.0641 4.65249 19.7713 4.44097 20.4479 4.36244 21.1941 3.95403 21.7819 3.11797 22.9853 2.91339 23.0888 2.55712 24.7979 2.44075 25.3564 2.33669 25.9174 2.20789 26.4734 2.10373 26.923 1.94457 27.3607 1.85866 27.8138 1.71138 28.591 1.62581 29.3777 1.50944 30.1596 1.39306 33.5106 1.37161 36.866 1.16021 40.2128 1.13799 40.5654 0.912063 40.8784 0.810979 41.2181 0.679098 41.661 0.578124 42.1117 0.461751 42.5585-0.267943 63.5644-0.0285982 52.3728 0.461751 88.133 0.670848 103.383-0.222516 98.5896 1.16021 105.223 1.27031 106.809 1.33752 110.26 1.85866 112.261 2.75962 115.719 2.1089 113.076 3.25558 115.277 3.42024 115.593 3.44014 115.966 3.6048 116.282 3.79256 116.642 4.13277 116.919 4.30326 117.287 4.85653 118.482 4.7517 119.393 5.70017 120.303 6.701 121.264 6.65942 120.763 7.79554 121.309 8.17095 121.489 8.46782 121.799 8.84323 121.979 9.17244 122.137 9.5617 122.156 9.89091 122.314 10.2663 122.494 10.555 122.82 10.9386 122.984 11.6114 123.271 12.3355 123.431 13.034 123.654 13.3832 123.766 13.7753 123.793 14.0816 123.989 14.4309 124.213 14.7458 124.496 15.1293 124.66 15.8022 124.946 16.5262 125.106 17.2247 125.33L18.2724 125.665 19.3201 126C20.717 125.888 22.1281 125.886 23.5108 125.665 24.237 125.549 25.6062 124.995 25.6062 124.995 28.6329 125.106 31.6572 125.33 34.6861 125.33 38.5294 125.33 42.3733 125.199 46.2106 124.995 46.5782 124.975 46.9291 124.818 47.2583 124.66 47.6337 124.479 47.9225 124.153 48.306 123.989 52.0463 122.394 49.0781 124.166 51.4491 122.649 52.2803 120.256 51.7391 121.226 52.846 119.633 52.9623 118.963 53.117 118.298 53.1952 117.622 53.35 116.286 53.314 114.928 53.5444 113.601 53.6654 112.904 54.0644 112.276 54.2429 111.59 54.3593 111.144 54.4542 110.691 54.5921 110.25 54.8036 109.573 55.1462 108.932 55.2906 108.239 55.5306 107.088 55.6603 106.328 55.989 105.223 56.0901 104.884 56.2219 104.553 56.3383 104.218 57.4064 97.0431 56.956 100.979 56.3383 86.4575 56.3233 86.1045 56.1054 85.7872 55.989 85.4521 55.8204 83.5099 55.5929 80.4462 55.2906 78.4149 55.2066 77.8511 55.0577 77.2979 54.9413 76.7394 54.825 63.5586 54.7728 50.377 54.5921 37.1968 54.54 33.3976 54.4457 29.5978 54.2429 25.8032 54.1831 24.6837 53.5433 23.1192 53.1952 22.117 52.6942 20.6747 52.9353 21.4544 52.4967 19.7713 52.3753 18.6061 52.1593 15.7954 51.7983 14.4096 51.6198 13.7242 51.3327 13.0692 51.0998 12.3989L50.4014 10.3883C50.285 10.0532 50.2563 9.67692 50.0522 9.38298 49.8193 9.04787 49.5242 8.7457 49.3537 8.37766 49.0547 7.73204 49.0636 6.9548 48.6552 6.36702 47.0255 4.02128 47.9568 4.80316 46.2106 3.68617 46.0943 3.35106 46.1609 2.88614 45.8614 2.68085 45.2623 2.27017 44.3786 2.40253 43.766 2.01064 42.1058 0.948536 43.1165 1.46782 40.623 0.670213L39.5753 0.335106 38.5276 0 35.0353 1.00532Z" stroke="#000000" stroke-miterlimit="8" fill="#A6A6A6" fill-rule="evenodd" transform="matrix(1.00033 0 -0 1 23.5 79.5)"/><path d="M29.0912 0 29.0912 0C27.0849 0.111749 25.0734 0.152942 23.0723 0.335354 22.3774 0.398727 20.136 1.20516 19.7285 1.34141 19.3941 1.45316 19.0773 1.65818 18.7254 1.67677L12.3721 2.01212C11.7112 2.23309 10.8372 2.42722 10.3658 3.01818 8.51993 5.33217 11.9031 2.77282 9.0283 4.69495 8.80534 5.0303 8.70034 5.48744 8.35954 5.70101 7.76176 6.07576 7.02201 6.14811 6.35325 6.37172 6.01887 6.48347 5.64341 6.51103 5.3501 6.70707 4.05365 7.57382 4.72821 7.25029 3.34381 7.71313L2.34067 10.7313 2.00629 11.7374 1.67191 12.7434C1.56048 14.6438 1.47275 16.5457 1.33753 18.4444 1.2498 19.676 1.00314 20.8986 1.00314 22.1333 1.00314 25.9357 1.16533 29.7369 1.33753 33.5354 1.42009 35.3569 1.74584 37.408 2.00629 39.2364 2.11771 42.7017 2.29517 46.1655 2.34067 49.6323 2.51813 63.1576 2.46105 76.6854 2.67505 90.2101 2.68853 91.06 3.07157 92.0739 3.34381 92.8929 3.23239 100.606 3.31685 108.325 3.00943 116.032 2.98121 116.739 2.56363 117.374 2.34067 118.044L1.67191 120.057 1.00314 122.069C0.716682 122.931 0.502362 123.49 0.334381 124.416 0.193362 125.194 0.111425 125.981 0 126.764 0.111425 133.471 0.0306472 140.184 0.334381 146.885 0.40189 148.375 1.58744 149.776 2.34067 150.909 2.56363 151.244 2.88231 151.533 3.00943 151.915L4.34696 155.939 4.68134 156.945C4.79277 157.281 4.82025 157.657 5.01572 157.952L6.35325 159.964C6.5762 160.299 6.73786 160.685 7.02201 160.97 7.35639 161.305 7.72237 161.611 8.02515 161.976 8.28244 162.285 8.35311 162.768 8.69392 162.982 9.2917 163.357 10.0314 163.429 10.7002 163.653L12.7065 164.323C13.0409 164.435 13.3607 164.609 13.7096 164.659 14.4898 164.77 15.2729 164.864 16.0503 164.994 16.6109 165.088 17.154 165.315 17.7222 165.329 26.1914 165.539 34.6642 165.553 43.1352 165.665 44.8653 165.716 56.8918 166.393 60.523 165.665 60.9171 165.586 61.012 165.019 61.1918 164.659 62.5762 161.882 60.2784 165.53 62.1949 162.646 61.8093 159.939 61.6764 160.477 62.1949 157.616 62.258 157.268 62.3339 156.904 62.5293 156.61 62.7917 156.216 63.1692 155.908 63.5325 155.604 63.8412 155.346 64.1663 155.092 64.5356 154.933 64.958 154.752 65.4273 154.71 65.8731 154.598 66.0961 154.263 66.3621 153.952 66.5419 153.592 67.4537 151.763 66.6735 149.272 66.5419 147.556 66.4474 146.325 66.3816 145.089 66.2075 143.867 66.1577 143.517 65.9699 143.201 65.8731 142.861 65.7469 142.417 65.665 141.962 65.5388 141.519 64.5793 138.152 65.9154 143.365 64.87 139.172 64.7586 129.446 64.7487 119.72 64.5356 109.996 64.5205 109.308 64.0361 108.327 63.8668 107.648 63.729 107.096 63.682 106.522 63.5325 105.972 63.347 105.29 63.0867 104.63 62.8637 103.96L62.5293 102.954C62.4179 101.724 62.3239 100.493 62.1949 99.2647 62.1009 98.3683 61.8833 97.4828 61.8606 96.5818 61.6602 88.6469 61.67 80.7079 61.5262 72.7717 61.2886 59.6678 62.235 63.8777 60.8574 58.3515 60.746 52.3152 60.6423 46.2787 60.523 40.2424 60.4193 34.9884 60.3229 29.7342 60.1886 24.4808 60.1001 21.0148 60.1337 17.5406 59.8543 14.0849 59.7973 13.3801 59.5765 12.6609 59.1855 12.0727 58.7397 11.402 58.6105 10.3155 57.848 10.0606 57.1792 9.837 56.4282 9.78208 55.8417 9.3899 49.5158 5.16043 56.3635 9.4839 52.8323 7.71313 52.4728 7.53283 52.1886 7.22272 51.8291 7.04243 51.5139 6.88431 51.1679 6.79284 50.826 6.70707 48.9169 6.22839 49.5329 6.55276 47.8165 6.03636 43.5032 4.73857 47.4947 6.0426 44.8071 4.69495 44.3602 4.47092 42.8521 4.11022 42.4664 4.02424 41.9116 3.90056 41.3493 3.81257 40.7945 3.68889 40.3459 3.58886 39.9091 3.43603 39.457 3.35354 38.6816 3.21211 37.8965 3.12993 37.1163 3.01818 36.782 2.90643 36.4521 2.7799 36.1132 2.68283 35.6713 2.55619 35.1867 2.55355 34.7757 2.34748 29.3651-0.365667 35.6303 1.91051 31.0975 0.670707 28.5162-0.0353838 29.4256 0.111749 29.0912 0Z" stroke="#000000" stroke-miterlimit="8" fill="#D9D9D9" fill-rule="evenodd" transform="matrix(1.00033 0 -0 1 214.5 37.5)"/><path d="M70.9839 2.98855 70.9839 2.98855C69.9794 3.09921 68.9709 3.1789 67.9705 3.32061 67.4071 3.40041 66.8644 3.61858 66.2963 3.65268 63.175 3.8403 60.0461 3.87408 56.9211 3.98474 56.363 4.09539 55.799 4.1799 55.2469 4.3168 54.9045 4.40172 54.593 4.60797 54.2424 4.64886 52.6866 4.83042 51.1149 4.84025 49.5548 4.98092 48.6586 5.06177 47.7691 5.20233 46.8762 5.31298L43.8627 6.30917C43.5279 6.41982 43.1519 6.44712 42.8582 6.64123 39.9795 8.54449 43.6217 6.26263 40.8492 7.63741 40.4893 7.81594 40.2125 8.13943 39.8448 8.30154 39.1997 8.5858 38.5054 8.74425 37.8358 8.96566L35.8268 9.62978C35.492 9.74043 35.116 9.76773 34.8223 9.96184L32.8133 11.2901C32.4785 11.5115 32.1906 11.828 31.8088 11.9542 28.1454 13.1652 33.6943 11.2338 29.7999 12.9504 29.1548 13.2347 28.3782 13.2262 27.7909 13.6145 27.4561 13.8359 27.0955 14.0231 26.7864 14.2786 26.4227 14.5793 26.1759 15.0143 25.7819 15.2748 25.4882 15.4689 25.093 15.4503 24.7774 15.6069 22.1811 16.8943 25.2932 15.7685 22.7684 16.6031 20.8493 19.458 23.4047 16.0982 21.0943 17.9313 20.78 18.1807 20.7389 18.6782 20.4246 18.9275 20.1491 19.1462 19.7287 19.0896 19.4201 19.2596 18.7166 19.6472 17.9802 20.0235 17.4112 20.5878 17.0763 20.9199 16.7804 21.2956 16.4067 21.584 15.7714 22.074 14.3977 22.9122 14.3977 22.9122 14.2861 23.2443 14.3125 23.6609 14.0629 23.9084 13.4938 24.4728 12.0539 25.2367 12.0539 25.2367 11.161 27.8932 12.5003 24.794 10.7146 26.5649 10.4649 26.8125 10.6002 27.2878 10.3797 27.5611 9.6662 28.4456 9.24426 28.0761 8.37075 28.5573 7.66724 28.9449 6.36177 29.8855 6.36177 29.8855 6.13851 30.2176 5.94974 30.5752 5.69211 30.8817 5.38892 31.2424 4.95031 31.4872 4.68762 31.8779 2.7493 34.7612 6.55275 30.6923 3.3483 33.8703L2.00898 37.855 1.67415 38.8512C1.56257 39.1832 1.39732 39.5021 1.33932 39.8474 1.22774 40.5115 1.10046 41.1732 1.00449 41.8397 0.877202 42.7232 0.806439 43.6143 0.66966 44.4962 0.499661 45.5923 0.266598 46.4271 0 47.4848 0.111575 51.8016 0.12771 56.1218 0.33483 60.4352 0.351598 60.7848 0.615982 61.0854 0.66966 61.4314 0.840186 62.5308 0.797792 63.6586 1.00449 64.752 1.13463 65.44 1.45089 66.0802 1.67415 66.7443L2.00898 67.7405C2.77439 70.0177 1.87051 67.1913 2.67864 70.397 2.76427 70.7366 2.79296 71.1199 3.01347 71.3932 3.26488 71.7049 3.68313 71.8359 4.01796 72.0573 5.74558 77.1974 3.76549 71.8885 5.35728 75.0459 5.51515 75.3589 5.49638 75.7508 5.69211 76.0421 6.02409 76.5359 7.1159 77.4445 7.70109 77.7024 8.34618 77.9866 9.04041 78.1451 9.71007 78.3665 11.7729 79.0484 9.67263 78.4202 13.0584 79.0306 15.0069 79.382 14.077 79.4492 16.4067 80.0268 16.8531 80.1375 17.2967 80.2598 17.746 80.3589 18.3015 80.4813 18.8711 80.5424 19.4201 80.6909 24.5805 82.0866 19.2628 80.6216 22.4336 82.0192 23.0787 82.3034 23.7729 82.4619 24.4426 82.6833L26.4516 83.3474 28.4605 84.0115C28.7954 84.1222 29.1189 84.275 29.465 84.3436 33.1145 85.0674 29.8768 84.5028 36.4965 85.0077 37.6148 85.0931 38.7287 85.2291 39.8448 85.3398 40.8688 85.6783 41.3424 85.8806 42.5234 86.0039 44.0813 86.1665 45.6503 86.2014 47.211 86.336 48.2179 86.4228 49.2188 86.5683 50.2245 86.668L53.9076 87.0001 87.0558 86.668C87.7345 86.6552 88.3871 86.3767 89.0648 86.336 92.0747 86.155 95.0917 86.1146 98.1052 86.0039 99.5561 85.8933 101.013 85.8404 102.458 85.6718 107.637 85.0677 98.6507 85.5754 105.806 85.0077 107.923 84.8398 110.047 84.7863 112.168 84.6757 113.172 84.5097 115.302 84.2641 116.186 83.6795 116.521 83.4581 116.823 83.1775 117.19 83.0154 117.836 82.7311 118.53 82.5726 119.199 82.3512 119.534 82.2406 119.91 82.2133 120.204 82.0192 121.502 81.1609 120.827 81.4813 122.213 81.023 123.45 79.1824 122.175 80.6382 123.887 79.6947 124.591 79.3071 125.896 78.3665 125.896 78.3665 127.459 76.0421 126.566 76.8168 128.24 75.71 129.133 73.0535 127.793 76.1527 129.579 74.3818 129.829 74.1342 129.693 73.6589 129.914 73.3856 130.165 73.0739 130.584 72.9429 130.918 72.7215 131.365 72.0573 131.494 70.9815 132.258 70.7291L134.267 70.065C134.602 69.7329 135.041 69.4793 135.271 69.0688L136.276 66.0802 136.611 65.084C136.722 64.752 136.788 64.4009 136.945 64.0879 137.169 63.6451 137.419 63.2146 137.615 62.7596 138.05 61.7543 138.364 59.8688 138.62 59.1069L138.954 58.1107C138.843 48.0383 138.831 37.9641 138.62 27.8932 138.611 27.4978 138.219 25.771 137.95 25.2367 137.77 24.8797 137.46 24.5974 137.28 24.2405 137.122 23.9275 137.103 23.5573 136.945 23.2443 136.765 22.8873 136.475 22.5946 136.276 22.2481 134.577 19.299 136.568 22.3507 134.936 19.9237 134.228 17.1145 135.193 19.9733 133.597 17.5993 133.401 17.308 133.42 16.9161 133.262 16.6031 133.082 16.2461 132.792 15.9534 132.593 15.6069 132.345 15.1771 132.243 14.6589 131.923 14.2786 131.665 13.9721 131.253 13.8359 130.918 13.6145 130.695 13.2825 130.429 12.9753 130.249 12.6183 130.091 12.3053 130.11 11.9134 129.914 11.6221 129.651 11.2314 129.213 10.9867 128.91 10.626 127.514 8.96566 129.077 10.1833 127.235 8.96566 127.012 8.6336 126.88 8.21881 126.566 7.96947 126.29 7.75078 125.811 7.88497 125.561 7.63741 125.312 7.38986 125.422 6.9325 125.226 6.64123 124.493 5.54987 124.144 5.7466 123.217 4.98092 122.854 4.68024 122.598 4.25771 122.213 3.98474 121.618 3.56305 120.598 3.19501 119.869 2.98855 119.427 2.86315 118.971 2.78764 118.53 2.65649 117.854 2.45537 117.217 2.10741 116.521 1.99237 113.405 1.47739 115.187 1.72735 111.164 1.32825 110.367 1.06511 109.661 0.803118 108.82 0.664123 107.932 0.517388 107.032 0.458297 106.141 0.332061 105.469 0.236888 104.802 0.110652 104.132 0L91.0737 0.332061C90.4586 0.359777 86.7795 1.3089 86.7209 1.32825 85.7569 1.64692 84.1264 2.27747 83.0378 2.32443 74.836 2.67804 72.9929 2.8779 70.9839 2.98855Z" stroke="#000000" stroke-miterlimit="8" fill="#A6A6A6" fill-rule="evenodd" transform="matrix(1.00033 0 -0 1 78.5 81.5)"/></g></svg>