<svg width="301" height="250" xmlns="http://www.w3.org/2000/svg" xmlns:xlink="http://www.w3.org/1999/xlink" overflow="hidden"><defs><clipPath id="clip0"><path d="M0 0 301 0 301 250 0 250Z" fill-rule="evenodd" clip-rule="evenodd"/></clipPath></defs><g clip-path="url(#clip0)"><rect x="0" y="0" width="300.901" height="250" fill="#D3D3C3" transform="scale(1.00033 1)"/><path d="M23.3634 0.338346 23.3634 0.338346C22.3659 0.563946 21.3622 0.762798 20.3708 1.01504 20.0308 1.10157 19.7197 1.29914 19.3733 1.35339 16.8351 1.75077 11.6982 1.92468 9.73048 2.03008 9.06545 2.25568 8.31864 2.31109 7.73541 2.70677 7.4029 2.93237 7.09531 3.20155 6.73788 3.38346 3.98458 4.78427 7.60157 2.45922 4.74281 4.3985 2.92117 7.17891 5.6285 2.70986 3.74528 8.45866 3.49257 9.23019 3.17346 10.2316 2.41523 10.4887L1.4177 10.8271C0.638212 13.2067 1.4951 10.3545 0.752679 14.8872 0.695079 15.239 0.53097 15.5639 0.420168 15.9023-0.0689109 19.8835-0.207152 19.7184 0.420168 25.0376 0.745663 27.7976 0.961926 26.278 1.75021 28.0827 2.03486 28.7346 2.19353 29.4361 2.41523 30.1128L2.74775 31.1279C2.85855 31.4662 2.88588 31.8461 3.08026 32.1429L4.4103 34.173 5.07532 35.188C5.29703 35.5264 5.40783 35.9775 5.74034 36.203L6.73788 36.8797C7.96665 38.7552 6.69986 37.2718 8.40043 38.2331 9.09907 38.6281 9.73048 39.1354 10.3955 39.5865L12.3906 40.9399C12.7231 41.1655 13.009 41.488 13.3881 41.6166 13.7206 41.7293 14.0722 41.7954 14.3856 41.9549 14.7431 42.1368 15.018 42.4664 15.3832 42.6316 16.0238 42.9213 16.7132 43.0827 17.3782 43.3083L18.3758 43.6467C18.5975 43.985 18.7287 44.4077 19.0408 44.6617 19.3144 44.8845 19.6878 45.0001 20.0383 45.0001 25.0272 45.0001 30.0136 44.7745 35.0013 44.6617 35.3338 44.549 35.7072 44.5211 35.9988 44.3234 36.9838 43.6552 37.0418 43.3157 37.3289 42.2933 38.279 38.9097 36.8637 43.5551 37.9939 38.5715 38.1515 37.8765 38.4372 37.2181 38.6589 36.5414L39.6565 33.4963 39.989 32.4812C40.0998 31.5789 40.2381 30.6797 40.3215 29.7745 40.5706 27.0702 40.9865 21.6542 40.9865 21.6542 40.8757 18.3834 40.8547 15.1084 40.654 11.8421 40.6042 11.0307 39.2949 8.89995 38.9914 8.797L37.9939 8.45866C37.3466 6.48261 38.1679 8.29732 36.6639 6.76693 34.4471 4.51125 37.6614 6.87967 35.0013 5.07519 33.0955 2.16627 35.6331 5.58959 33.3388 3.72181 33.0267 3.46776 32.9858 2.96082 32.6737 2.70677 32.4001 2.48394 31.9826 2.54159 31.6762 2.36842 30.9776 1.97349 30.4394 1.27218 29.6811 1.01504 27.1499 0.156439 28.3735 0.478267 26.0235 0 21.1473 0.354438 23.8067 0.281973 23.3634 0.338346Z" stroke="#000000" stroke-miterlimit="8" fill="#D9D9D9" fill-rule="evenodd" transform="matrix(1.00033 0 -0 1 164.5 37.5)"/><path d="M33.3218 0 33.3218 0C31.7667 0.112868 30.1984 0.103587 28.6567 0.338711 27.9621 0.444645 27.3597 0.999917 26.6574 1.01613L11.9958 1.35484C11.6626 1.46771 11.3033 1.5202 10.9962 1.69355 10.2961 2.08891 9.75672 2.79098 8.99688 3.0484 8.66366 3.16127 8.30431 3.21375 7.99722 3.38711 7.2971 3.78247 5.99792 4.74195 5.99792 4.74195 5.77574 5.08066 5.51063 5.39398 5.33148 5.75808 4.78941 6.85999 5.28677 6.81966 4.33183 7.79035 3.37689 8.76104 3.41656 8.25548 2.33252 8.80648 1.97433 8.98859 1.66609 9.25806 1.33287 9.4839 1.11069 9.82262 0.829109 10.128 0.666435 10.5 0.38118 11.1526 0 12.5323 0 12.5323 0.111038 13.6613-0.0197307 14.843 0.333218 15.9194 0.459893 16.3056 0.966909 16.4315 1.33287 16.5968 1.97485 16.8868 2.66574 17.0484 3.33218 17.2743L4.33183 17.613C6.11819 18.2183 4.58497 17.7455 6.99757 18.2904 7.44466 18.3914 7.87874 18.5526 8.33044 18.6291 9.21371 18.7788 10.1111 18.8294 10.9962 18.9678 11.556 19.0554 12.1129 19.1669 12.6623 19.3065 13.003 19.3931 13.3116 19.6189 13.6619 19.6452 16.3227 19.8456 18.9934 19.8711 21.6592 19.9839 22.5478 20.0968 23.4438 20.1599 24.3249 20.3227 24.6705 20.3866 24.9768 20.6109 25.3245 20.6614 26.539 20.8377 27.7681 20.8872 28.9899 21.0001 29.4342 20.8872 29.8702 20.7322 30.3228 20.6614 33.0524 20.2345 32.6759 20.5873 34.6546 19.9839 35.3275 19.7788 36.0695 19.7026 36.6539 19.3065 37.9459 18.4311 37.2737 18.7579 38.6533 18.2904 40.2083 18.4033 41.7594 18.6291 43.3183 18.6291 45.2098 18.6291 47.1009 18.4817 48.983 18.2904 49.3325 18.2549 49.6362 18.0104 49.9827 17.9517 50.9748 17.7835 51.9779 17.6788 52.9816 17.613 55.4227 17.4528 57.8688 17.3871 60.3124 17.2743 60.6456 17.1614 61.0378 17.1586 61.3121 16.9355 62.3386 16.1008 61.9543 15.664 61.6453 14.5646 61.5488 14.2213 61.5315 13.8272 61.3121 13.5484 61.0619 13.2305 60.6456 13.0969 60.3124 12.871 59.2017 11.1775 59.9792 12.0807 57.6467 10.5 57.3134 10.2742 57.0269 9.95138 56.647 9.82262 55.9806 9.59677 55.2322 9.5413 54.6477 9.14519 54.3145 8.91935 53.9557 8.72839 53.648 8.46777 53.2861 8.16107 53.0603 7.68431 52.6484 7.45164 52.0343 7.10482 51.2774 7.09351 50.6491 6.77422 50.2048 6.54837 49.7728 6.29565 49.3162 6.0968 48.9934 5.95619 48.6307 5.91779 48.3166 5.75808 45.1482 4.14785 50.4756 6.15088 45.3176 4.40324L44.318 4.06453C43.9847 3.95166 43.6686 3.75121 43.3183 3.72582L38.6533 3.38711 36.6539 2.03227C36.3207 1.80642 36.0342 1.48361 35.6543 1.35484L33.655 0.677422C32.4446 0.267342 33.3773 0.112868 33.3218 0Z" stroke="#000000" stroke-miterlimit="8" fill="#595959" fill-rule="evenodd" transform="matrix(1.00033 0 -0 1 23.5 184.5)"/><path d="M29.427 0 29.427 0C28.3123 0.111402 27.2006 0.257235 26.083 0.334311 23.9673 0.480144 21.8415 0.476669 19.7294 0.668622 19.3784 0.700526 19.0415 0.845306 18.7262 1.00293 18.3668 1.18267 18.0575 1.44864 17.7231 1.67155 17.6116 2.00586 17.6754 2.46969 17.3887 2.67449 16.815 3.08419 15.3823 3.34311 15.3823 3.34311L13.3759 6.3519C13.1529 6.68622 12.8342 6.97367 12.7071 7.35484 11.8666 9.8757 13.0004 6.76845 11.7039 9.3607 11.5462 9.67585 11.5272 10.0485 11.3695 10.3636 11.1897 10.723 10.864 10.9994 10.7007 11.3666 10.1709 12.5583 10.2713 13.4674 9.36312 14.3754 9.07897 14.6594 8.69433 14.8211 8.35993 15.044 8.13697 15.7126 8.0822 16.4635 7.69114 17.0499 7.24531 17.7185 6.60769 18.2934 6.35355 19.0557 6.13058 19.7243 6.07581 20.4752 5.68475 21.0616 5.46179 21.3959 5.17921 21.6973 5.01596 22.0645 4.28839 23.7011 4.46175 23.9116 4.01277 25.4076 3.81023 26.0827 3.51491 26.7297 3.34397 27.4135 2.83864 29.4345 3.15492 28.3148 2.34078 30.7566L2.00638 31.7595C1.89495 32.0938 1.74108 32.4169 1.67199 32.7625 1.56056 33.3197 1.48715 33.8858 1.33759 34.434 1.15212 35.114 0.807082 35.7487 0.668795 36.4399 0.265306 38.457 0.514182 37.5723 0 39.1144 0.111431 49.8123 0.0198005 60.5143 0.334397 71.2082 0.355146 71.9127 0.780225 72.5454 1.00319 73.2141L1.67199 75.2199C1.78342 75.5542 1.81091 75.9296 2.00638 76.2229 2.22935 76.5572 2.51193 76.8586 2.67518 77.2258L3.67837 80.2346 5.01596 84.2463 5.68475 86.2522C6.19009 88.2732 5.87381 87.1535 6.68795 89.5953L7.69114 92.6041C7.96308 93.4198 8.04607 93.9619 8.69433 94.61 8.97849 94.894 9.36312 95.0557 9.69752 95.2786 10.538 97.7994 9.30646 94.7899 11.0351 96.9501 11.2553 97.2253 11.2118 97.6379 11.3695 97.9531 11.5493 98.3124 11.8585 98.5966 12.0383 98.956 12.196 99.2711 12.1525 99.6838 12.3727 99.9589 12.6238 100.273 13.0415 100.405 13.3759 100.628 13.5989 100.962 13.7422 101.366 14.0447 101.63 14.6496 102.16 15.3823 102.522 16.0511 102.968 16.3855 103.191 16.673 103.509 17.0543 103.636L19.0606 104.305C19.395 104.416 19.7219 104.554 20.0638 104.639 20.5097 104.751 20.9612 104.842 21.4014 104.974 22.0766 105.176 22.739 105.419 23.4078 105.642 23.7422 105.754 24.0653 105.907 24.411 105.977 29.525 106.999 21.4701 105.431 28.7582 106.645 30.3504 106.91 30.3182 107.202 32.1021 107.648L34.7773 108.317C35.2231 108.428 35.6789 108.506 36.1149 108.651 36.7837 108.874 37.4373 109.149 38.1213 109.32 38.5671 109.431 39.0186 109.522 39.4589 109.654 40.1341 109.856 40.7646 110.245 41.4653 110.323 42.4685 110.434 43.4757 110.514 44.4748 110.657 45.1644 110.755 46.7542 111.117 47.4844 111.325 49.4394 111.884 47.473 111.472 49.8252 111.994 50.38 112.117 50.9458 112.191 51.4972 112.328 51.8392 112.414 52.152 112.609 52.5004 112.663 55.5206 113.127 61.3161 113.235 63.5355 113.331 64.4193 113.552 66.0595 114 66.8795 114 69.6683 114 72.4528 113.777 75.2394 113.666 76.5999 113.326 76.6656 113.412 77.9146 112.663 78.6038 112.249 79.921 111.325 79.921 111.325 82.123 111.546 83.5113 111.954 85.6057 111.325 85.9907 111.21 86.2745 110.88 86.6089 110.657 87.7327 107.286 86.018 112.514 87.2777 108.317 87.4802 107.642 87.5554 106.897 87.9465 106.311 88.3923 105.642 89.0299 105.067 89.2841 104.305L90.6217 100.293 91.6249 97.2844 91.9593 96.2815 92.2936 95.2786C92.4051 94.4986 92.4734 93.7111 92.6281 92.9384 93.0052 91.0532 93.1508 90.7019 93.6312 89.261 93.7427 87.0322 93.8007 84.8002 93.9656 82.5748 94.0239 81.7889 94.2363 81.02 94.3 80.2346 94.5709 76.8951 94.9688 70.2053 94.9688 70.2053 94.7894 64.6443 94.7631 60.1509 94.3 54.827 94.2081 53.7696 93.991 51.1877 93.2968 50.1466 92.851 49.478 92.2134 48.9031 91.9593 48.1408 91.8478 47.8064 91.7825 47.453 91.6249 47.1378 91.4451 46.7785 91.1358 46.4943 90.9561 46.1349 90.7984 45.8197 90.7793 45.4471 90.6217 45.132 90.4419 44.7726 90.1327 44.4884 89.9529 44.129 89.7952 43.8139 89.7896 43.4342 89.6185 43.1261 89.2281 42.4237 88.535 41.8826 88.2809 41.1202 87.9349 40.0827 87.8975 39.8128 87.2777 38.78L85.2713 35.7713C85.0483 35.4369 84.7296 35.1495 84.6025 34.7683 84.2674 33.7632 84.3196 33.6265 83.5993 32.7625 83.2965 32.3993 82.8865 32.1327 82.5961 31.7595 82.1027 31.1252 81.9273 30.1994 81.2585 29.7537 79.0413 28.2758 81.5051 30.0127 79.2522 28.0821 78.829 27.7195 78.3378 27.4418 77.9146 27.0792 76.3205 25.7132 77.6146 26.3106 75.9082 25.7419 72.9375 23.5145 76.1547 25.6565 73.233 24.4047 72.8636 24.2464 72.5893 23.9158 72.2298 23.7361 71.9146 23.5784 71.561 23.5132 71.2266 23.4018 70.8922 23.0674 70.6169 22.6611 70.2234 22.3988 69.9301 22.2034 69.4695 22.3137 69.2202 22.0645 68.9709 21.8153 69.0813 21.3548 68.8858 21.0616 68.6235 20.6682 68.1854 20.4218 67.8826 20.0586 67.6254 19.75 67.4712 19.3643 67.2139 19.0557 66.4092 18.0905 66.1939 18.0416 65.2075 17.3842 64.9845 17.0499 64.8525 16.6323 64.5387 16.3812 64.2635 16.1611 63.8507 16.2045 63.5355 16.0469 63.176 15.8672 62.8667 15.6012 62.5323 15.3783 60.6156 12.5041 63.1677 15.8866 60.8603 14.0411 60.5464 13.79 60.5054 13.2891 60.1915 13.0381 59.9163 12.8179 59.5123 12.8426 59.1883 12.7038 58.7302 12.5075 58.3135 12.2203 57.8507 12.0352 57.1962 11.7734 56.4309 11.7575 55.8443 11.3666 55.51 11.1437 55.2261 10.8133 54.8412 10.6979 54.0862 10.4716 53.2806 10.475 52.5004 10.3636L50.494 9.69501 49.4908 9.3607C49.1564 9.02639 48.8811 8.62006 48.4876 8.35777 48.1943 8.16234 47.8084 8.16224 47.4844 8.02346 47.0263 7.82719 46.6096 7.53995 46.1468 7.35484 45.4922 7.09307 44.8092 6.90912 44.1404 6.68622L42.1341 6.01759 41.1309 5.68328C40.7965 5.57188 40.421 5.5444 40.1277 5.34897 39.7933 5.12606 39.4917 4.84356 39.1245 4.68035 38.4802 4.39416 37.7046 4.40269 37.1181 4.01173 36.7837 3.78882 36.4822 3.50631 36.1149 3.34311 35.4707 3.05692 34.6951 3.06545 34.1085 2.67449 31.8948 1.19899 30.2072 0.445713 29.427 0Z" stroke="#000000" stroke-miterlimit="8" fill="#D9D9D9" fill-rule="evenodd" transform="matrix(1.00033 0 -0 1 55.5 87.5)"/><path d="M101.95 27.8299 101.95 27.8299C101.057 27.3718 100.193 26.8496 99.2713 26.4556 98.7556 26.2351 96.6814 25.8772 96.2574 25.7684 93.7041 25.1135 97.0452 25.7239 93.9133 25.0812 92.103 24.7098 92.1202 24.8729 90.5646 24.3941 89.8884 24.186 89.2251 23.936 88.5554 23.7069L86.5461 23.0198C86.2113 22.9053 85.8877 22.7472 85.5415 22.6762 82.9847 22.1516 84.432 22.405 81.1882 21.989 79.2627 21.3306 80.9178 21.8282 77.8395 21.3019 75.0308 20.8216 77.1939 21.1837 75.1605 20.6147 74.2724 20.3663 73.3745 20.1567 72.4815 19.9276 70.4571 19.4084 71.5787 19.7333 69.1328 18.8968L68.1282 18.5533C67.7933 18.4388 67.4173 18.4105 67.1236 18.2097L66.1189 17.5225C65.1213 15.9871 64.7982 15.8817 64.4446 14.4303 64.3065 13.8638 64.2478 13.2789 64.1097 12.7124 64.0241 12.361 64.0245 11.9378 63.7748 11.6817 63.2057 11.0978 61.7656 10.3074 61.7656 10.3074 61.5423 9.96378 61.4102 9.53461 61.0959 9.27663 60.8203 9.05035 60.3409 9.18919 60.0912 8.93305 59.8416 8.67691 59.9769 8.18507 59.7564 7.90231 59.5049 7.57983 59.0866 7.44424 58.7518 7.21515 58.6406 6.87309 58.0826 4.55277 57.4123 4.12295 56.8136 3.739 56.0728 3.66488 55.403 3.43579 52.8969 2.57873 54.3206 2.96928 49.3753 2.74863 45.9165 2.59432 42.4546 2.51954 38.9943 2.40505L37.3199 2.06147C36.6519 1.93681 35.9765 1.85457 35.3107 1.71789 32.1788 1.07521 35.52 1.68565 32.9666 1.03074 32.4145 0.889084 31.8479 0.813876 31.2922 0.687158 30.0308 0.399525 30.0669 0.382644 28.9481 0 24.9297 0.11449 20.9026 0.0496701 16.8927 0.343579 16.1886 0.395197 15.4709 0.628938 14.8835 1.03074L13.8789 1.71789C13.6556 2.06147 13.5235 2.49065 13.2091 2.74863 12.9336 2.97491 12.5202 2.93021 12.2045 3.09221 9.60793 4.42432 12.7204 3.2594 10.1953 4.12295 8.27593 7.07686 10.8316 3.6006 8.52094 5.49726 6.35709 7.27337 9.37167 6.00803 6.84658 6.87158 6.00492 9.46232 7.23819 6.36936 5.50709 8.58947 3.65849 10.9602 7.04666 8.33809 4.1676 10.3074 4.05601 10.6509 4.00412 11.0215 3.83273 11.3381 3.44185 12.06 2.74774 12.6161 2.49324 13.3996L1.48863 16.4918 0.818881 18.5533 0.484009 19.584C0.596652 23.397-1.19974 28.6429 1.48863 31.9528 1.79186 32.3261 2.19001 32.6103 2.49324 32.9836 3.88852 34.7015 2.32586 33.4416 4.1676 34.7015 4.39089 35.045 4.49604 35.5134 4.83735 35.7322 5.436 36.1161 6.17683 36.1903 6.84658 36.4193L10.865 37.7937 11.8697 38.1372C12.2045 38.2517 12.5805 38.28 12.8743 38.4808 13.2091 38.7099 13.509 39.0053 13.8789 39.168 14.3602 39.3796 16.5114 39.7573 16.8927 39.8551 17.2352 39.943 17.5549 40.1108 17.8974 40.1987 18.4495 40.3404 19.0196 40.4006 19.5717 40.5423 19.9142 40.6302 20.2369 40.7864 20.5763 40.8859 21.0189 41.0156 21.475 41.0938 21.9158 41.2295 22.592 41.4375 23.2553 41.6875 23.9251 41.9166L26.9389 42.9473 33.9712 45.3524C37.6351 46.6054 32.0855 44.607 35.9804 46.3831 36.6256 46.6773 37.9897 47.0703 37.9897 47.0703 39.2272 48.9747 37.9514 47.4684 39.664 48.4446 40.8969 49.1473 41.3789 49.9403 42.6779 50.1625 43.6749 50.333 44.6871 50.3916 45.6917 50.5061 46.1382 50.6206 46.5887 50.7199 47.0312 50.8497 48.3845 51.2464 48.256 51.4552 50.0451 51.5368 54.3956 51.7352 58.7518 51.7659 63.1051 51.8804L65.1143 52.5676C65.4492 52.682 65.8252 52.7103 66.1189 52.9111 66.4538 53.1402 66.7467 53.4533 67.1236 53.5983 67.6565 53.8034 68.2423 53.8151 68.7979 53.9419 69.2472 54.0443 69.6965 54.1497 70.1374 54.2854 70.8136 54.4935 71.5593 54.5708 72.1466 54.9726 72.4815 55.2017 72.7835 55.492 73.1513 55.6598 73.7964 55.9539 74.4907 56.1178 75.1605 56.3469 75.4954 56.4614 75.8714 56.4897 76.1651 56.6905L77.1697 57.3777C77.9003 59.6266 76.8856 57.4193 78.5092 58.752 78.8235 59.01 78.8376 59.5639 79.1789 59.7827 79.7776 60.1667 80.5184 60.2408 81.1882 60.4699L82.1928 60.8134 83.1974 61.157C83.5323 61.2715 83.9083 61.2998 84.202 61.5006 84.5369 61.7297 84.8467 62.003 85.2066 62.1878 85.5223 62.3498 85.8956 62.3693 86.2113 62.5313 86.5712 62.7161 86.8559 63.0338 87.2159 63.2185 87.5316 63.3805 87.9048 63.4001 88.2205 63.5621 88.5805 63.7468 88.8573 64.0815 89.2251 64.2492 89.8703 64.5434 91.2343 64.9364 91.2343 64.9364 93.1537 67.8903 90.598 64.414 92.9087 66.3107 93.223 66.5687 93.2641 67.0835 93.5785 67.3414 93.854 67.5677 94.2674 67.523 94.5831 67.685 94.943 67.8697 95.2277 68.1875 95.5877 68.3722 95.9034 68.5342 96.2766 68.5538 96.5923 68.7158 99.1889 70.0479 96.0764 68.8829 98.6015 69.7465 102.174 75.2438 97.4853 68.6013 101.95 73.1823 102.285 73.5259 102.652 73.8398 102.955 74.213 103.213 74.5302 103.31 74.9858 103.625 75.2438 103.9 75.47 104.294 75.4728 104.629 75.5873 105.918 77.5704 104.519 75.8742 107.308 77.3052 107.755 77.5343 108.174 77.8304 108.648 77.9924 109.188 78.1771 109.759 78.2471 110.322 78.336 114.078 78.9289 115.823 78.8111 120.368 79.0231 121.229 79.3175 121.787 79.5377 122.712 79.7103 123.489 79.8552 124.275 79.9394 125.056 80.0539 127.412 80.8593 124.589 79.9739 129.075 80.741 129.423 80.8005 129.74 80.9851 130.079 81.0846 130.522 81.2143 130.976 81.2984 131.419 81.4282 131.758 81.5276 132.077 81.7008 132.424 81.7718 135.708 82.4457 140.435 82.3479 143.14 82.4589 145.418 82.7512 146.809 82.9526 149.167 83.1461 150.84 83.2834 152.516 83.3751 154.19 83.4896 154.637 83.6041 155.07 83.8332 155.53 83.8332 167.327 83.8332 164.289 84.507 169.594 83.1461 169.929 82.917 170.239 82.6436 170.599 82.4589 170.915 82.2969 171.354 82.3715 171.604 82.1153 171.853 81.8592 171.781 81.4085 171.939 81.0846 173.237 78.4205 172.101 81.6139 172.943 79.0231 172.832 69.9756 172.931 60.9226 172.608 51.8804 172.589 51.3451 171.148 50.083 170.934 49.8189 170.676 49.5017 170.567 49.0601 170.264 48.7882 169.658 48.2443 168.925 47.8719 168.255 47.4139 167.92 47.1848 167.632 46.8573 167.25 46.7267L165.241 46.0396 164.236 45.696C163.902 45.5815 163.582 45.3973 163.232 45.3524L160.553 45.0088C158.291 44.2354 161.075 45.1279 157.539 44.3217 157.194 44.2431 156.874 44.0775 156.534 43.9781 156.092 43.8483 155.637 43.7643 155.195 43.6345 151.832 42.6487 157.038 44.0215 152.851 42.9473 152.516 42.7183 152.214 42.4279 151.846 42.2602 151.201 41.9661 150.424 41.9748 149.837 41.573 149.502 41.3439 149.202 41.0485 148.832 40.8859 147.33 40.2253 147.792 40.8674 146.488 40.1987 144.545 39.2019 146.492 39.7279 144.144 38.8244 143.713 38.6586 143.236 38.6466 142.805 38.4808 142.337 38.301 141.929 37.9839 141.465 37.7937 140.81 37.5246 140.126 37.3356 139.456 37.1065 139.121 36.992 138.794 36.8508 138.451 36.7629 138.005 36.6484 137.553 36.555 137.112 36.4193 136.436 36.2113 135.788 35.9078 135.103 35.7322 133.97 35.4417 132.94 35.1386 131.754 35.045 129.525 34.8692 127.289 34.8159 125.056 34.7015 124.172 34.3384 123.296 33.9401 122.377 33.6707 121.935 33.541 121.479 33.4628 121.038 33.3271 120.362 33.119 119.698 32.8691 119.029 32.64 118.694 32.5255 118.367 32.3843 118.024 32.2964 117.578 32.1819 117.142 32.005 116.685 31.9528 115.127 31.7754 113.559 31.7237 111.996 31.6092 110.563 31.2416 110.541 31.2129 108.983 30.9221 108.315 30.7974 107.636 30.7297 106.973 30.5785 106.629 30.4999 102.787 28.288 101.95 27.8299Z" stroke="#000000" stroke-miterlimit="8" fill="#A6A6A6" fill-rule="evenodd" transform="matrix(1.00033 0 -0 1 68.5 49.5)"/><path d="M37.8265 1.36462 37.8265 1.36462C35.037 1.25305 32.2443 1.20401 29.458 1.0298 26.1775 0.824681 28.1262 0.864227 26.1106 0.360139 25.5586 0.222094 24.9948 0.136884 24.4369 0.0253099 21.7589 0.136884 19.0701 0.0933302 16.4031 0.360139 15.7009 0.430374 15.0641 0.806542 14.3947 1.0298L13.3904 1.36462 10.3778 2.36911 9.37356 2.70394C9.03883 2.81551 8.66297 2.84304 8.36934 3.03877L7.36512 3.70843C7.14193 4.04325 6.98009 4.42839 6.69564 4.71291 6.41119 4.99744 5.9046 5.04131 5.69142 5.38257 5.31736 5.98115 5.24514 6.72188 5.02194 7.39154L4.6872 8.39603C4.57566 8.73086 4.43807 9.05809 4.35246 9.40051 4.24092 9.84692 4.14993 10.299 4.01772 10.7398 3.81498 11.4159 3.57144 12.0791 3.34824 12.7488 3.2367 13.0836 3.08267 13.4072 3.0135 13.7533 2.90196 14.3114 2.77228 14.8661 2.67876 15.4274 2.54909 16.2059 2.4988 16.9974 2.34402 17.7712 1.54845 21.7502 1.98103 19.2095 1.3398 21.4543 0.499211 24.3974 1.47296 21.3897 0.670324 23.7982-0.0530313 28.863 0.00084344 27.8811 0.00084344 36.1868 0.00084344 42.7728 0.0320507 49.3628 0.335583 55.9417 0.368161 56.6468 0.781868 57.281 1.00506 57.9507L1.3398 58.9552C1.45135 59.29 1.38092 59.7639 1.67454 59.9597L2.67876 60.6293C3.33043 62.5848 2.50364 60.789 4.01772 62.3035 6.24936 64.5357 3.0135 62.1919 5.69142 63.9776 7.35363 66.4716 5.21731 63.4085 7.36512 65.9866 7.62269 66.2957 7.72042 66.7396 8.03461 66.9911 8.46813 67.3379 11.0271 67.6577 11.0473 67.6607 15.9945 68.422 14.0554 67.9662 22.4284 68.3304L28.7885 68.6652 39.5002 69 58.9151 68.6652C59.1444 68.6578 60.9312 68.1591 61.2583 67.9955 61.6181 67.8155 61.9278 67.5491 62.2625 67.3259 64.1811 64.4472 61.6264 67.8349 63.9362 65.9866 64.2504 65.7352 64.3029 65.2471 64.6057 64.9821 65.2112 64.4521 66.6141 63.6428 66.6141 63.6428L68.6226 60.6293C68.8457 60.2945 69.0076 59.9094 69.292 59.6248 70.5807 58.3358 69.9024 58.883 71.3005 57.9507 71.5237 57.281 72.0402 56.6441 71.97 55.9417 71.8584 54.8256 71.8419 53.6959 71.6352 52.5934 71.5051 51.8996 71.1368 51.2693 70.9657 50.5844 70.5454 48.9027 70.7765 49.6817 70.2963 48.2407 70.1847 43.7763 70.1513 39.3092 69.9615 34.8475 69.928 34.059 69.6514 33.2925 69.6268 32.5037 69.428 26.1441 69.5946 19.774 69.292 13.4185 69.2589 12.7222 68.5787 11.0308 67.9531 10.405 67.6686 10.1205 67.2836 9.9586 66.9489 9.73534 66.2972 7.77984 67.124 9.57568 65.6099 8.0612 65.3254 7.77667 65.2432 7.32173 64.9404 7.05671 63.3432 5.65866 62.8197 5.67996 60.9235 5.04774 60.5888 4.93617 60.2704 4.74803 59.9193 4.71291L56.5719 4.37808C56.2372 4.26651 55.8762 4.21462 55.5677 4.04325 54.8644 3.65243 53.5593 2.70394 53.5593 2.70394 53.3361 2.36911 53.2309 1.91269 52.8898 1.69945 52.2914 1.32529 51.5508 1.25305 50.8813 1.0298L49.8771 0.694967C46.2629-0.5101 48.9216 0.272925 40.5044 0.0253099 39.5006-0.00421831 38.2728 1.14137 37.8265 1.36462Z" stroke="#000000" stroke-miterlimit="8" fill="#D9D9D9" fill-rule="evenodd" transform="matrix(1.00033 0 -0 1 181.5 130.5)"/><path d="M16.4889 0 16.4889 0 13.8633 0.98684C13.5382 1.10536 13.2144 1.23166 12.8787 1.31579 11.8924 1.56299 10.1135 1.73808 9.2686 2.30263L7.29944 3.61841 6.31486 4.27631C6.09603 4.60525 5.93736 4.98362 5.65847 5.26315 5.37958 5.54267 4.93365 5.62349 4.67389 5.92104 1.99366 8.99117 4.59182 7.07241 2.37653 8.55261 2.26717 8.88156 2.21631 9.2363 2.04834 9.53945 1.66526 10.2306 0.984994 10.763 0.735567 11.5131L0.407374 12.5C-0.142234 16.9068-0.129313 15.5841 0.407374 22.0394 0.449858 22.5502 1.01166 23.7082 1.39195 24.0131 1.66206 24.2297 2.0409 24.2579 2.37653 24.3421L5.00208 24.9999C9.04977 24.8903 13.1011 24.8737 17.1452 24.671 17.4908 24.6537 17.8274 24.5104 18.1298 24.3421 18.8194 23.9581 19.3506 23.2763 20.099 23.0263 20.4272 22.9167 20.7811 22.8657 21.0836 22.6973 21.7731 22.3134 22.3043 21.6315 23.0527 21.3815L25.0219 20.7236 26.3347 18.75 26.9911 17.7631C26.5492 15.1054 26.8733 16.4222 26.0065 13.8158L25.6783 12.8289C25.5689 12.5 25.5419 12.1306 25.3501 11.8421L24.0373 9.8684C23.8185 9.53945 23.5057 9.25661 23.3809 8.88156 22.9059 7.45336 23.2974 8.13995 22.0681 6.90788 21.1929 4.27631 22.5057 7.34644 20.7554 5.59209 18.1222 2.95285 20.6859 4.03377 18.458 3.28947L16.4889 0Z" stroke="#000000" stroke-miterlimit="8" fill="#D9D9D9" fill-rule="evenodd" transform="matrix(1.00033 0 -0 1 253.5 172.5)"/></g></svg>