<svg width="301" height="250" xmlns="http://www.w3.org/2000/svg" xmlns:xlink="http://www.w3.org/1999/xlink" overflow="hidden"><defs><clipPath id="clip0"><path d="M0 0 301 0 301 250 0 250Z" fill-rule="evenodd" clip-rule="evenodd"/></clipPath></defs><g clip-path="url(#clip0)"><rect x="0" y="0" width="300.901" height="250" fill="#D3D3C3" transform="scale(1.00033 1)"/><path d="M3.0284 52.0695 3.0284 52.0695C2.80585 51.0682 2.62513 50.0566 2.36084 49.0655L1.35951 46.0615 0.691947 44.0588 0.358168 43.0575C0.04962 37.504-0.263554 35.5092 0.358168 29.7063 0.437539 28.966 1.04307 27.3525 1.69328 26.7023 1.97692 26.4187 2.36084 26.2573 2.69462 26.0348 3.28207 24.2723 2.83328 25.3262 4.36352 23.0307L5.69863 21.0281C5.92119 20.6943 6.03241 20.2493 6.36619 20.0267L9.3702 18.0241C9.70398 17.8015 9.99098 17.4834 10.3715 17.3565L12.3742 16.6889C13.6685 16.2575 14.54 15.9385 16.0458 15.6876L18.0485 15.3538C19.6793 15.1029 21.4212 14.8784 23.0551 14.6863 25.8433 14.3583 25.5102 14.5116 27.728 14.0187 28.113 13.9331 29.6184 13.5741 30.0645 13.3512 30.4233 13.1717 30.6993 12.8465 31.0658 12.6836 31.7089 12.3979 32.4009 12.2386 33.0685 12.016 33.4023 11.9048 33.7771 11.8774 34.0698 11.6823 34.4036 11.4597 34.7124 11.1942 35.0712 11.0147 35.8814 10.6096 36.9035 10.5757 37.7414 10.3471 38.4203 10.162 39.0765 9.90214 39.7441 9.67959L42.7481 8.67825 43.7494 8.34447C44.0832 8.23325 44.458 8.20581 44.7508 8.01069 45.0845 7.78814 45.3855 7.50608 45.7521 7.34314 46.3952 7.0574 47.0872 6.89813 47.7548 6.67558L48.7561 6.3418 53.7628 4.6729 61.7735 2.00267 64.7775 1.00134C65.1113 0.890112 65.4375 0.752921 65.7788 0.667558 67.6643 0.196167 66.6641 0.423768 68.7828 0L78.4624 0.333779C79.5791 0.391073 80.6951 0.497567 81.8002 0.667558 84.9931 1.15882 79.2217 1.15587 85.138 1.33512 91.7003 1.53402 98.2666 1.55767 104.831 1.66889 106.27 2.14848 106.62 2.29377 108.503 2.67023 109.059 2.78146 109.624 2.85473 110.171 3.00401 110.85 3.18914 111.491 3.50095 112.174 3.67157 112.619 3.78279 113.07 3.87352 113.509 4.00535 114.52 4.30864 115.512 4.6729 116.513 5.00668L118.516 5.67424C118.85 5.78547 119.224 5.8129 119.517 6.00802L121.52 7.34314C122.624 10.6559 120.772 5.5954 122.855 9.34581L123.856 12.3498C123.968 12.6836 123.995 13.0584 124.19 13.3512 124.413 13.6849 124.695 13.9859 124.858 14.3525 125.676 16.1938 125.41 16.2292 125.859 18.0241 125.944 18.3654 126.096 18.6871 126.193 19.0254 126.319 19.4665 126.427 19.9127 126.527 20.3605 127.374 24.1742 126.38 20.1084 127.194 23.3645 127.083 25.701 127.047 28.0423 126.86 30.3739 126.824 30.8312 126.617 31.2592 126.527 31.709 126.394 32.3727 126.34 33.0511 126.193 33.7117 126.117 34.0551 125.956 34.3747 125.859 34.713 125.733 35.1541 125.636 35.6031 125.525 36.0481 125.636 39.9422 125.575 43.8451 125.859 47.7304 125.91 48.4322 126.527 49.7331 126.527 49.7331 126.415 51.1794 126.373 52.6328 126.193 54.0722 126.149 54.4213 126.108 54.8247 125.859 55.0735 125.61 55.3224 125.206 55.3608 124.858 55.4073 123.53 55.5843 122.187 55.6299 120.852 55.7411 120.519 55.8523 120.203 56.0626 119.851 56.0749 113.846 56.2855 107.835 56.2908 101.827 56.4086L85.8056 56.7424C82.4126 57.421 85.5301 56.7257 83.1353 57.41 82.6942 57.536 82.2397 57.6119 81.8002 57.7438 81.1632 57.9349 79.3062 58.6459 78.4624 58.7451 77.0218 58.9146 75.5696 58.9676 74.1233 59.0789L56.433 58.7451C52.0495 58.599 56.0508 58.4032 52.0939 57.7438 51.4263 57.6325 50.7518 57.5568 50.0912 57.41 47.291 56.7877 51.7919 57.2148 46.7534 56.7424 43.9752 56.4819 38.409 56.0749 38.409 56.0749 28.047 53.4843 38.8898 56.0859 9.3702 55.4073 8.91163 55.3968 8.47357 55.2084 8.03508 55.0735 7.02628 54.7631 3.8629 52.5702 3.0284 52.0695Z" stroke="#000000" stroke-miterlimit="8" fill="#D9D9D9" fill-rule="evenodd" transform="matrix(0.9979 -0.0696153 0.0695927 0.997575 84.9793 96.6219)"/><path d="M73.9757 15.0968 73.9757 15.0968C73.3092 14.314 72.7004 13.4774 71.9763 12.7484 71.6932 12.4633 71.2269 12.3923 70.9767 12.0774 69.6842 10.4508 71.8249 11.4674 69.6438 10.7355 69.5327 10.4 69.53 10.0051 69.3105 9.72904 67.8666 7.91183 68.6441 10.3161 67.6444 8.05162 67.3592 7.40527 67.3677 6.62716 66.978 6.03871 66.7558 5.70323 66.4907 5.39289 66.3115 5.03226 66.1544 4.71601 66.1489 4.33498 65.9783 4.02581 65.5894 3.32092 65.0897 2.68387 64.6454 2.0129 64.4232 1.67742 64.3675 1.10419 63.979 1.00645 63.5347 0.89466 63.0848 0.803471 62.6461 0.670968 61.9732 0.467776 60.6467 0 60.6467 0 47.2361 0.794173 64.7542-0.18132 42.3194 0.670968 40.6508 0.734367 38.9876 0.901633 37.3211 1.00645L31.6563 1.34194 28.6572 2.34839C28.324 2.46018 27.9499 2.48776 27.6576 2.68387 24.7927 4.60675 28.4174 2.30137 25.6582 3.69033 25.3 3.87069 25.0245 4.19751 24.6586 4.36129 24.0166 4.64849 23.3257 4.80857 22.6592 5.03226 22.326 5.14405 21.9518 5.17163 21.6595 5.36775L20.6599 6.03871 18.6605 9.05807C18.4383 9.39356 18.1208 9.68202 17.9941 10.0645 17.6468 11.1133 17.3101 12.4247 16.328 13.0839 15.6615 13.5312 14.8949 13.8557 14.3286 14.4258 13.9954 14.7613 13.7009 15.141 13.3289 15.4323L10.3299 17.4452 9.33027 18.1161 8.33059 18.7871C7.49307 21.3168 8.62289 18.1987 7.33092 20.8 7.17381 21.1163 7.15481 21.4902 6.9977 21.8065 6.81855 22.1671 6.51041 22.4523 6.33125 22.8129 6.17414 23.1292 6.15514 23.5031 5.99803 23.8194 5.81887 24.18 5.51073 24.4652 5.33158 24.8258 5.17447 25.1421 5.24678 25.5822 4.99836 25.8323 4.74993 26.0824 4.33191 26.056 3.99868 26.1678 3.66546 26.5032 3.39112 26.911 2.99901 27.1742 2.70672 27.3703 2.31346 27.3515 1.99934 27.5097 1.64114 27.6901 1.3329 27.957 0.999671 28.1807 0.662669 28.6895 0 29.499 0 30.1936 0 31.7631 0.151026 33.3315 0.333224 34.8904 0.458957 35.9659 1.52244 37.1895 1.99934 37.9097 2.65467 38.8994 2.70336 39.1153 3.66546 39.9226 3.97308 40.1807 4.35752 40.3354 4.66513 40.5936 5.8152 41.5585 5.97977 42.3767 7.66415 42.942 7.99737 43.0538 8.3497 43.1193 8.66382 43.2775 9.02202 43.4578 9.30529 43.7681 9.66349 43.9484 9.97761 44.1066 10.349 44.1257 10.6632 44.2839 12.0345 44.9742 11.6562 45.4816 13.6622 45.6258 17.1873 45.8793 17.7529 45.8091 20.6599 46.2968 24.3445 46.9151 20.7504 46.3196 23.3257 46.9678 23.8751 47.1061 24.4424 47.165 24.9918 47.3033 25.3326 47.3891 25.6507 47.5529 25.9915 47.6387 26.5409 47.7771 27.1112 47.8242 27.6576 47.9742 28.3354 48.1603 28.9905 48.4215 29.6569 48.6452 29.9901 48.757 30.3643 48.7846 30.6566 48.9807 30.9898 49.2044 31.2903 49.4879 31.6563 49.6516 32.2983 49.9388 32.9892 50.0989 33.6556 50.3226L34.6553 50.6581 37.6543 51.6646 38.654 52C40.7643 51.8882 42.8786 51.8343 44.9852 51.6646 45.6587 51.6104 46.3098 51.3648 46.9846 51.3291 50.5357 51.1409 54.0933 51.1054 57.6477 50.9936 58.2031 50.8818 58.7644 50.7964 59.3138 50.6581 61.2752 50.1644 59.7308 50.0605 62.9793 49.6516L65.6451 49.3162C68.4173 48.3858 63.9996 49.8017 68.9773 48.6452 69.6618 48.4862 70.9767 47.9742 70.9767 47.9742 72.5043 45.667 72.0563 46.7263 72.6428 44.9549 72.8774 43.3009 72.8807 42.7025 73.3092 41.2645 73.5111 40.5871 73.9757 39.2516 73.9757 39.2516 74.1022 33.0073 73.0068 27.2336 74.6421 21.471 74.7386 21.131 74.8643 20.8 74.9753 20.4645 74.6226 17.6237 74.1422 15.9914 73.9757 15.0968Z" stroke="#000000" stroke-miterlimit="8" fill="#595959" fill-rule="evenodd" transform="matrix(1.00033 0 -0 1 148.5 143.5)"/><path d="M47.1848 1.32394 47.1848 1.32394 51.4896 1.65493C53.4754 1.78295 55.4676 1.81359 57.4501 1.98591 58.0108 2.0346 58.5521 2.2163 59.1058 2.3169 59.7664 2.43699 60.4242 2.5843 61.0926 2.64789 62.7445 2.80509 64.404 2.86858 66.0597 2.97887 66.3908 3.08917 66.7045 3.29047 67.0531 3.30986 70.6916 3.51189 74.7624 1.93191 77.9806 3.64084 79.5433 4.47065 77.9255 7.18953 77.6495 8.93662 77.5874 9.32953 77.1653 9.57378 76.9872 9.92957 75.6163 12.6702 77.8918 9.06985 75.9938 11.9155 76.3686 17.9076 75.7654 15.5333 76.9872 19.1972 77.0976 19.5282 77.1248 19.8998 77.3184 20.1901 78.3679 21.7636 77.8548 20.8057 78.6429 23.169L78.9741 24.162C78.8637 28.1338 78.9262 32.1142 78.6429 36.0775 78.5932 36.7734 78.5615 37.6763 77.9806 38.0634L76.9872 38.7253C76.8769 39.0563 76.8742 39.4459 76.6561 39.7183 75.8859 40.6806 74.6298 40.4065 73.6758 41.0422 73.3447 41.2629 73.06 41.5784 72.6824 41.7042 72.0455 41.9165 71.3651 41.9837 70.6956 42.0352 68.4917 42.2046 66.2805 42.2559 64.0728 42.3662L59.1058 44.0211 57.1189 44.6831C56.7878 44.7934 56.4678 44.9457 56.1255 45.0141 52.3824 45.7624 56.9957 44.8898 51.4896 45.676 49.4654 45.9651 50.317 45.9767 48.5093 46.338 47.3607 46.5677 45.3178 46.841 44.2045 47 40.2309 46.8897 36.2538 46.8674 32.2835 46.669 31.7832 46.644 29.0875 45.7529 28.9722 45.676 27.9163 44.9725 27.4469 44.5339 25.9919 44.3521 25.1088 44.2418 24.2206 44.1674 23.3428 44.0211 22.8939 43.9464 22.4626 43.7889 22.0183 43.6901 21.4688 43.5681 20.9163 43.4597 20.3626 43.3591 18.2618 42.9774 18.0295 42.9849 15.7266 42.6972 15.0643 42.4765 14.4171 42.2044 13.7398 42.0352 13.2983 41.9249 12.8512 41.8349 12.4152 41.7042 11.7466 41.5037 11.0907 41.2629 10.4284 41.0422L8.44158 40.3803C8.11044 40.27 7.73863 40.2428 7.44816 40.0493L5.46133 38.7253 4.13678 34.7535 3.80564 33.7606 3.4745 32.7676C3.36416 30.561 3.33485 28.3489 3.14336 26.1479 3.11312 25.8003 2.96836 25.4669 2.81223 25.1549 2.63419 24.7991 2.46075 24.4105 2.14995 24.162 1.87742 23.944 1.48767 23.9413 1.15653 23.831 0.93574 23.5 0.672289 23.1938 0.494257 22.838-0.57884 20.6928 0.417912 16.2176 0.494257 15.2253 0.545779 14.5562 0.705247 13.8997 0.825395 13.2394 1.58905 9.04128 0.611902 14.424 1.81881 9.59859 2.31922 7.59766 2.00602 8.70623 2.81223 6.28873 2.92257 5.95775 2.8529 5.48926 3.14336 5.29577 3.72127 4.91068 4.37833 4.34702 5.13019 4.30282 8.54786 4.10183 11.9738 4.08212 15.3955 3.97183L18.0446 3.30986C18.4861 3.19956 18.9374 3.12273 19.3691 2.97887 21.02 2.42886 21.1792 2.3194 22.6805 1.98591 25.4488 1.37106 23.2974 1.91607 26.6542 1.32394 27.7628 1.12837 28.8735 0.934892 29.9656 0.661972 30.4071 0.551678 30.8439 0.420222 31.2901 0.330986 31.9485 0.199321 32.6147 0.110294 33.277 0 36.6987 0.110294 40.1246 0.129997 43.5423 0.330986 43.8907 0.351523 44.1989 0.57013 44.5357 0.661972 45.4138 0.901324 46.3213 1.03622 47.1848 1.32394L49.1716 1.98591C49.5027 2.09621 49.8181 2.27833 50.165 2.3169L53.1453 2.64789C52.8141 2.42719 52.5078 2.16387 52.1519 1.98591 50.6299 1.22522 51.5754 2.07171 47.1848 1.32394Z" stroke="#000000" stroke-miterlimit="8" fill="#A6A6A6" fill-rule="evenodd" transform="matrix(1.00033 0 -0 1 40.5 148.5)"/><path d="M5.99802 36.6306 5.99802 36.6306C5.49278 36.1857 3.38408 34.435 2.66579 33.5495 2.40939 33.2335 2.16202 32.8985 1.99934 32.5225 1.71408 31.8629 1.33289 30.4684 1.33289 30.4684 1.55109 25.9859 1.95977 23.1226 1.33289 18.8288 1.22868 18.1151 0.88863 17.4594 0.666446 16.7748 0.188389 15.3013 0.418444 16.0978 0 14.3784 0.111039 11.8679 0.138117 9.35192 0.333223 6.84684 0.361245 6.48714 0.418025 6.07503 0.666446 5.81981 0.914868 5.56459 1.35199 5.63888 1.66612 5.47747 2.02432 5.29342 2.30758 4.97684 2.66579 4.79279 2.97991 4.63137 3.35837 4.62566 3.66546 4.45045 4.36559 4.05085 5.66479 3.08108 5.66479 3.08108 6.8962 1.18348 5.6267 2.68439 7.33091 1.71171 10.7683-0.25026 8.06789 0.774609 10.3299 0 11.2186 0.114078 12.1146 0.177802 12.9957 0.342342 13.3413 0.406929 13.747 0.429464 13.9954 0.684684 17.883 4.67871 13.4955 1.48345 16.3279 3.42342 17.4523 6.88868 16.2946 3.01142 16.9944 11.6396 17.0879 12.7922 17.5505 12.6684 17.9941 13.6937 18.2793 14.3532 18.4383 15.063 18.6605 15.7477L18.9937 16.7748C18.8827 21.2252 18.9487 25.6841 18.6605 30.1261 18.6138 30.8462 18.3837 31.5797 17.9941 32.1801 17.7719 32.5225 17.5068 32.8392 17.3276 33.2072 16.5228 34.8608 17.6799 33.7647 15.9947 34.9189 15.2172 36.117 14.995 36.7447 13.3289 37.3153L11.3296 38C7.41676 37.6345 6.88665 36.8589 5.99802 36.6306Z" stroke="#000000" stroke-miterlimit="8" fill="#D9D9D9" fill-rule="evenodd" transform="matrix(1.00033 0 -0 1 47.5 112.5)"/><path d="M30.3234 0 30.3234 0C29.3237 0.110578 28.3278 0.262962 27.3244 0.331838 25.1053 0.484223 22.8694 0.409807 20.6599 0.663677L17.6609 1.65919C14.015 2.86938 19.5373 0.939286 15.6615 2.65471 15.0195 2.93878 14.3286 3.09712 13.6622 3.31838L12.6625 3.65022 11.6628 3.98206 10.6632 4.3139C10.441 4.64574 10.3095 5.06025 9.99671 5.30942 9.72247 5.52796 9.24546 5.39386 8.99704 5.64125 8.43072 6.20522 8.10841 6.96861 7.66415 7.63229 7.44196 7.96412 7.33092 8.40654 6.9977 8.6278L5.99803 9.29148C5.77584 9.95515 5.29033 10.5841 5.33158 11.2825 5.44262 13.163 5.50097 15.0472 5.6648 16.9238 5.78067 18.2507 6.12575 19.2781 6.33125 20.574 6.57621 22.1192 6.9977 25.2197 6.9977 25.2197 6.88666 31.7459 6.96663 38.2781 6.66448 44.7982 6.63205 45.497 6.22021 46.1255 5.99803 46.7892 5.88699 47.1211 5.8596 47.4937 5.6648 47.7847 5.44262 48.1166 5.16103 48.4158 4.99836 48.7803 4.7131 49.4196 4.55409 50.1076 4.33191 50.7713L3.33224 53.7578 2.99901 54.7533C2.88797 55.0852 2.86058 55.4578 2.66579 55.7489 0.755867 58.6018 3.04572 54.9922 1.66612 57.7399 0.0819678 60.8951 2.05255 55.5898 0.333224 60.7264L0 61.722C0.0636011 62.5453-0.052791 65.5988 0.666448 67.0314 0.845601 67.3881 1.04973 67.7449 1.3329 68.0269 1.61606 68.3089 1.99934 68.4693 2.33257 68.6906 2.55475 69.0224 2.69759 69.4234 2.99901 69.6861 4.58904 71.0716 5.11013 71.0505 6.9977 71.6771L9.99671 72.6726C11.2168 73.0776 12.3468 73.4811 13.6622 73.6681L15.9947 74C17.2166 73.8894 18.4483 73.8587 19.6602 73.6681 22.3156 73.2506 21.5917 73.1659 23.3257 72.6726 23.766 72.5473 24.2115 72.4398 24.6586 72.3408 25.2114 72.2184 25.7596 72.0477 26.3247 72.0089 28.9865 71.8261 31.6578 71.8205 34.322 71.6771 35.7682 71.5992 37.21 71.4558 38.654 71.3453 40.2381 70.2935 39.527 71.0599 40.3201 68.6906 41.0702 66.4495 40.2046 69.2081 40.9865 65.704 41.0627 65.3626 41.2233 65.0448 41.3197 64.7085 41.4456 64.27 41.5214 63.818 41.653 63.3811 41.8548 62.7111 42.0972 62.0538 42.3194 61.3901 42.4305 61.0583 42.4579 60.6857 42.6526 60.3946 43.7088 58.817 43.1924 59.7774 43.9855 57.4081L44.3188 56.4125C44.4298 56.0807 44.4572 55.7081 44.652 55.417 44.8742 55.0852 45.1558 54.786 45.3184 54.4215 45.6037 53.7822 45.9849 52.4305 45.9849 52.4305 45.8738 50.3289 45.8347 48.2221 45.6517 46.1255 45.5924 45.447 44.7816 43.1945 44.652 42.8072L43.6523 39.8206C43.5413 39.4888 43.4043 39.1645 43.3191 38.8251 42.9006 37.1584 43.1307 37.9304 42.6526 36.5022 42.7637 29.7549 42.7806 23.0052 42.9859 16.2601 43.0099 15.4696 43.5043 14.084 43.6523 13.2735 43.7928 12.504 43.8745 11.7249 43.9855 10.9507 43.8745 8.51722 44.2882 6.00246 43.6523 3.65022 43.4441 2.88004 42.3194 2.76529 41.653 2.32287L40.6533 1.65919C40.3201 1.43793 40.0336 1.12167 39.6536 0.995515L37.6543 0.331838C36.0992 0.442416 34.5396 0.501154 32.9892 0.663677 29.6166 1.01725 30.7676 0.110578 30.3234 0Z" stroke="#000000" stroke-miterlimit="8" fill="#A6A6A6" fill-rule="evenodd" transform="matrix(1.00033 0 -0 1 225.5 122.5)"/><path d="M12.8668 20 12.8668 20C12.0767 19.3333 11.2323 18.7243 10.4966 18 10.2088 17.7167 10.2176 17.0825 9.81937 17 7.93857 16.6102 5.98195 16.7777 4.06319 16.6667 3.02702 16.4117 2.47247 16.434 1.69299 15.6667-0.564367 13.4444 2.70879 15.7777 0 14 0.107818 12.8329 0.113577 9.66562 1.0158 8.33333L2.37019 6.33333C2.59596 6 2.91867 5.71339 3.04739 5.33333L4.06319 2.33333C4.17602 2 4.06319 1.44441 4.40179 1.33333L7.44918 0.333333 8.46497 0C9.9322 0.111076 11.4132 0.107402 12.8668 0.333333 13.5719 0.44294 14.8984 1 14.8984 1L15.5756 3C15.6884 3.33333 15.8276 3.65911 15.9142 4 16.027 4.44441 16.0447 4.92357 16.2528 5.33333 16.6167 6.04997 17.1557 6.66667 17.6071 7.33333 17.8329 7.66667 18.1556 7.95328 18.2843 8.33333L18.6229 9.33333C18.7071 9.91307 18.8455 11.8611 19.3001 12.6667 21.2407 16.1052 20.227 13.4039 20.9931 15.6667 20.7929 17.2441 21.0748 18.2529 19.9773 19.3333 19.6896 19.6166 19.3001 19.7777 18.9615 20 14.1085 19.6588 13.8826 20 12.8668 20Z" stroke="#000000" stroke-miterlimit="8" fill="#595959" fill-rule="evenodd" transform="matrix(1.00033 0 -0 1 238.5 102.5)"/><path d="M19.3058 34.6666 19.3058 34.6666C16.2631 34.7777 13.2225 34.9999 10.1777 34.9999 9.87797 34.9999 7.95331 34.5963 7.47308 34.3333 6.76274 33.9442 6.21554 33.2533 5.44461 33 4.04491 32.5399 4.72692 32.8615 3.41614 32 1.66846 29.4153 2.32076 30.7601 1.38767 28L1.04959 27 0.711509 26C-0.0655926 19.1039-0.248208 20.3551 0.37343 13 0.419537 12.455 0.993259 11.3402 1.38767 11 1.99919 10.4723 2.73998 10.1111 3.41614 9.66665L4.43037 8.99999C4.76845 8.77773 5.05915 8.46004 5.44461 8.33332 6.12077 8.11106 6.88009 8.05647 7.47308 7.66666 10.3797 5.75611 6.70216 8.04671 9.50155 6.66666 9.86497 6.48744 10.1445 6.16272 10.5158 5.99999 11.1671 5.71464 11.8681 5.55558 12.5443 5.33333L13.5585 4.99999 14.5727 4.66666C14.9108 4.55558 15.2904 4.52818 15.587 4.33333L17.6154 3 18.6297 2.33333C18.8551 2 18.9613 1.54561 19.3058 1.33333 19.9102 0.960838 20.6581 0.888923 21.3343 0.666666 22.9988 0.11958 21.997 0.391076 24.377 0 26.9679 0.283884 29.5926 0.495117 32.1528 0.999999 33.2141 1.20924 33.5527 1.34897 34.5194 1.66666 34.632 2 34.6598 2.37427 34.8575 2.66666 36.3529 4.87831 35.4417 2.48556 36.5478 4.66666 37.9475 7.42676 35.6243 3.80083 37.5621 6.66666 37.6747 7.11107 37.7993 7.55274 37.9002 7.99999 38.0248 8.55306 38.0005 9.15085 38.2382 9.66665 39.0957 11.5266 39.2745 11.4589 40.6048 12.3333 40.7174 12.6666 40.7698 13.0261 40.9429 13.3333 41.3375 14.0337 42.0382 14.5732 42.2952 15.3333L43.3094 18.3333C43.4221 18.6666 43.561 18.9924 43.6475 19.3333L43.9856 20.6666C43.8729 22.5556 43.8957 24.4571 43.6475 26.3333 43.3397 28.6602 43.0835 27.7789 42.2952 29.3333 41.3166 31.2629 42.8655 29.4376 40.9429 31.3333 40.8302 31.6666 40.8568 32.0848 40.6048 32.3333 40.3527 32.5818 39.9093 32.5095 39.5906 32.6666 39.2271 32.8458 38.9397 33.1541 38.5763 33.3333 38.2576 33.4904 37.8808 33.5094 37.5621 33.6666 37.1987 33.8458 36.9531 34.3041 36.5478 34.3333 32.2755 34.6415 27.9834 34.5636 23.7009 34.6666 23.3629 34.6747 20.0383 34.6666 19.3058 34.6666Z" stroke="#000000" stroke-miterlimit="8" fill="#595959" fill-rule="evenodd" transform="matrix(1.00033 0 -0 1 155.5 58.5)"/></g></svg>