<svg width="301" height="250" xmlns="http://www.w3.org/2000/svg" xmlns:xlink="http://www.w3.org/1999/xlink" overflow="hidden"><defs><clipPath id="clip0"><path d="M0 0 301 0 301 250 0 250Z" fill-rule="evenodd" clip-rule="evenodd"/></clipPath></defs><g clip-path="url(#clip0)"><rect x="0" y="0" width="300.901" height="250" fill="#D3D3C3" transform="scale(1.00033 1)"/><path d="M67.3112 0.71938 67.3112 0.71938C66.3116 0.493594 65.3347 0.099828 64.3122 0.0421283 61.2644-0.129904 62.1626 0.249677 60.3135 0.71938L57.6478 1.39663C55.8706 1.28379 54.0888 1.22961 52.3162 1.05801 51.7524 1.0034 51.2164 0.71938 50.6501 0.71938 44.5399 0.71938 38.4318 0.945167 32.3227 1.05801 31.9895 1.17085 31.6301 1.22332 31.3231 1.39663L28.324 3.42839C27.9908 3.65417 27.7043 3.97691 27.3244 4.10564 25.9448 4.573 26.617 4.24632 25.325 5.12152 23.5479 7.83053 25.8804 4.55711 23.6589 6.81465 23.3757 7.1024 23.2756 7.54278 22.9925 7.83053 22.3465 8.48698 21.8062 8.57102 20.9931 8.84641 20.7709 9.18503 20.6394 9.60802 20.3267 9.86228 20.0524 10.0853 19.6411 10.0412 19.327 10.2009 18.9688 10.383 18.6605 10.6524 18.3273 10.8782 16.7722 13.2485 17.6609 12.4585 15.9948 13.5872 15.2677 15.8036 16.2775 13.6282 14.6619 14.9417 14.3491 15.1959 14.2968 15.6895 13.9954 15.9576 13.3927 16.4936 11.9961 17.3121 11.9961 17.3121 10.0861 20.2234 12.6292 16.7972 10.3299 18.6666 8.17674 20.4171 11.1765 19.17 8.66382 20.0211 7.54041 21.7336 8.60725 20.5577 6.9977 21.3756 6.6395 21.5576 6.364 21.8875 5.99803 22.0528 5.35604 22.3427 4.66514 22.5043 3.99869 22.7301 3.66546 22.8429 3.29131 22.8707 2.99902 23.0687L0.999672 24.4232 0.333224 26.455 0 27.4708C0.11104 28.5996 0.163516 29.736 0.333224 30.8571 0.386645 31.2099 0.569997 31.5298 0.666448 31.873 0.792286 32.3205 0.868062 32.7817 0.999672 33.2275 1.2015 33.9112 1.08164 34.8632 1.66612 35.2592 1.99934 35.485 2.29982 35.7712 2.66579 35.9365 3.30779 36.2264 4.08066 36.2177 4.66514 36.6137L5.66481 37.291C7.88634 37.1782 10.1063 36.8771 12.3293 36.9524 15.7506 37.0683 14.6661 37.4614 16.6612 37.9682 17.2106 38.1079 17.7779 38.1673 18.3273 38.3069 18.6681 38.3935 18.9767 38.6192 19.327 38.6455 21.9879 38.8458 24.6586 38.8713 27.3244 38.9841 28.641 39.1752 30.0237 39.3313 31.3231 39.6614 31.6638 39.748 31.9895 39.8872 32.3227 40 41.0976 39.8872 49.8773 39.9759 58.6474 39.6614 59.3495 39.6362 59.9803 39.2099 60.6468 38.9841L63.6458 37.9682C63.979 37.8554 64.3047 37.7162 64.6455 37.6296L65.9784 37.291C66.3116 37.0652 66.6949 36.9015 66.978 36.6137 67.2612 36.326 67.3048 35.8135 67.6445 35.5979 68.2402 35.2195 68.9774 35.1464 69.6438 34.9206L72.6428 33.9047C72.9761 33.7919 73.3502 33.7641 73.6425 33.5661L75.6419 32.2116 76.6415 31.5343C76.7526 31.1957 76.7553 30.7972 76.9748 30.5185 77.4445 29.9217 78.3155 29.7257 78.9741 29.5026 79.5606 27.7145 79.1125 28.7837 80.6402 26.455 80.8624 26.1163 81.18 25.8252 81.3067 25.4391L81.9731 23.4073C82.0842 23.0687 82.2375 22.7415 82.3063 22.3914 82.7294 20.2419 82.5022 21.2566 82.9728 19.3438 82.8617 17.0863 82.7596 14.8283 82.6396 12.5713 82.5374 10.6519 82.551 8.72066 82.3063 6.81465 82.2154 6.10679 82.3063 5.00868 81.6399 4.78289 76.4818 3.03569 81.8093 5.03822 78.6409 3.42839 78.1082 3.1577 76.8065 2.89576 76.3083 2.75114 75.9706 2.65312 75.6577 2.45197 75.3086 2.41251 73.649 2.22512 71.9764 2.18672 70.3103 2.07388L68.3109 1.39663 67.3112 1.05801C66.978 0.945167 66.6629 0.71938 66.3116 0.71938L67.3112 0.71938Z" stroke="#000000" stroke-miterlimit="8" fill="#D9D9D9" fill-rule="evenodd" transform="matrix(1.00033 0 -0 1 178.5 165.5)"/><path d="M65.3384 114.746 65.3384 114.746C66.0017 113.965 66.7439 113.246 67.3284 112.404 67.5289 112.115 67.5037 111.716 67.6601 111.4 67.8384 111.041 68.1451 110.756 68.3234 110.397 68.4798 110.081 68.4987 109.708 68.6551 109.393 68.8334 109.034 69.1401 108.749 69.3184 108.39 69.5563 107.91 69.8755 106.476 69.9817 106.048 69.8712 103.148 69.848 100.244 69.6501 97.3498 69.563 96.0778 68.3795 95.5123 67.9917 94.339 66.2804 89.1606 68.2418 94.5091 66.6651 91.3282 66.5087 91.0128 66.4898 90.64 66.3334 90.3246 66.1551 89.965 65.8484 89.6806 65.6701 89.321 65.4322 88.841 65.113 87.408 65.0067 86.9792 64.1334 79.0515 64.2743 81.5226 65.0067 67.2416 65.0914 65.5897 65.6362 64.9137 66.0017 63.5617 66.2416 62.6746 66.3767 61.7578 66.6651 60.8855L67.9917 56.871 68.3234 55.8674C68.4339 55.5329 68.4612 55.1573 68.6551 54.8638 69.7063 53.2734 69.1923 54.2416 69.9817 51.853L70.3134 50.8494C70.4603 49.8126 70.9767 46.3401 70.9767 45.4968 70.9767 41.4808 70.9288 37.4593 70.6451 33.4536 70.5952 32.7501 70.1513 32.1306 69.9817 31.4463 69.4805 29.424 69.7942 30.5444 68.9867 28.101 68.8762 27.7664 68.849 27.3908 68.6551 27.0974 68.4339 26.7628 68.1536 26.4612 67.9917 26.0938 67.7078 25.4493 67.5495 24.7556 67.3284 24.0866L66.3334 21.0757 66.0017 20.0721C65.8912 19.7376 65.8639 19.362 65.6701 19.0685 62.7253 14.6131 66.9636 21.2164 64.6751 17.0613 64.2879 16.3584 63.7906 15.7232 63.3484 15.0541L62.6851 14.0505 62.0217 13.0469C61.8006 12.7123 61.6402 12.3276 61.3584 12.0433 61.0267 11.7087 60.6637 11.4031 60.3634 11.0397 58.9815 9.36699 60.5292 10.5937 58.7051 9.36699 57.5995 7.69432 58.3734 8.58645 56.0517 7.02525L55.0567 6.35617C54.7251 6.13312 54.4399 5.81428 54.0617 5.6871 50.0407 4.33516 54.1013 5.58448 50.0817 4.6835 47.3476 4.07069 51.6633 4.4636 46.765 4.01443 45.1098 3.8627 43.4478 3.79938 41.79 3.67989 40.3522 3.57632 38.9186 3.4072 37.4784 3.34536 33.7213 3.18415 29.9606 3.1223 26.2017 3.01082 25.87 2.89934 25.4797 2.8966 25.2067 2.67628 23.4102 1.22667 25.7871 2.00721 23.5484 1.00361 21.5885 0.125069 20.8503 0.255195 18.5734 0 17.9885 0.0590047 15.0277 0.194505 13.93 0.669071 13.5637 0.827435 13.2811 1.13869 12.935 1.33814 11.9028 1.93304 11.4949 1.93535 10.6133 2.67628 10.2531 2.97921 9.97445 3.37201 9.61834 3.67989 9.19861 4.04277 8.68257 4.28922 8.29167 4.6835 8.00984 4.96777 7.86275 5.36195 7.62834 5.6871 7.51187 5.84863 5.48979 8.45822 4.975 9.36699 4.72973 9.79994 4.56604 10.2775 4.31167 10.7051 3.90145 11.3946 3.34153 11.9931 2.985 12.7123 2.39542 13.9018 2.3153 13.9055 1.99 15.0541 1.86475 15.4962 1.78933 15.9518 1.65833 16.3922 1.45745 17.0677 0.995001 18.3995 0.995001 18.3995 0.226578 24.5999 1.14302 16.9062 0.331667 25.0902 0.242979 25.9847 0.110521 26.8743 0 27.7664 0.110521 35.5722 0.119714 43.3802 0.331667 51.1839 0.341278 51.5364 0.567333 51.8485 0.663334 52.1875 0.788584 52.6297 0.834965 53.0952 0.995001 53.5257 1.16862 53.9927 1.47469 54.4009 1.65833 54.8638 1.91803 55.5187 2.00901 56.2402 2.32167 56.871 2.54281 57.3171 2.80136 57.7462 2.985 58.2092 3.77317 60.1967 3.49133 59.8294 3.98 61.5545 4.076 61.8936 4.21567 62.2191 4.31167 62.5581 4.43692 63.0003 4.51809 63.4542 4.64334 63.8963 4.73934 64.2354 4.88297 64.5597 4.975 64.8999 5.21485 65.7871 5.63834 67.5762 5.63834 67.5762 5.74886 77.5008 5.65944 87.4296 5.97001 97.3498 5.99267 98.0754 6.88415 99.9671 7.29667 100.695 7.49442 101.044 7.78169 101.339 7.96001 101.699 8.11639 102.014 8.15399 102.378 8.29167 102.702 9.15077 104.724 8.66669 103.364 9.61834 105.044 9.86362 105.477 10.0273 105.955 10.2817 106.382 10.6919 107.072 11.2518 107.67 11.6083 108.39 12.6472 110.485 11.8315 109.039 13.2667 111.066 13.4984 111.393 13.6482 111.785 13.93 112.069 14.2119 112.354 14.6188 112.481 14.925 112.738 15.2853 113.041 15.5297 113.48 15.92 113.742 16.2109 113.938 16.5789 113.98 16.915 114.077 19.0712 114.698 19.1368 114.486 22.2217 114.746 22.8524 114.873 24.1951 115.072 24.875 115.415 25.2316 115.595 25.5135 115.904 25.87 116.084 26.1827 116.242 26.5524 116.261 26.865 116.418 27.2216 116.598 27.4819 116.96 27.86 117.087 28.498 117.302 29.1791 117.377 29.85 117.422 32.4998 117.6 35.1567 117.645 37.81 117.757 47.2212 120.13 39.5518 118.44 61.3584 118.091 62.0217 117.645 62.5921 117.007 63.3484 116.753 64.4917 116.369 65.0067 115.08 65.3384 114.746Z" stroke="#000000" stroke-miterlimit="8" fill="#595959" fill-rule="evenodd" transform="matrix(1.00033 0 -0 1 21.5 87.5)"/><path d="M2.99064 47.5812 2.99064 47.5812C3.87679 48.028 4.73835 48.528 5.64899 48.9215 6.29285 49.1998 6.97816 49.3683 7.64275 49.5917 9.90496 50.3521 8.29059 49.8974 12.6271 50.2618 13.2917 50.4853 14.0381 50.5401 14.6209 50.932 14.9532 51.1554 15.311 51.3443 15.6178 51.6022 15.9788 51.9056 16.2237 52.3445 16.6147 52.6074 16.9061 52.8033 17.2983 52.7845 17.6115 52.9425 17.9688 53.1226 18.2512 53.4325 18.6084 53.6126 18.9217 53.7706 19.2921 53.7897 19.6053 53.9477 19.9625 54.1279 20.2372 54.4543 20.6022 54.6179 21.2424 54.9047 22.0131 54.8962 22.5959 55.288 22.9282 55.5114 23.2279 55.7946 23.5928 55.9582 24.233 56.245 25.0037 56.2365 25.5866 56.6283 28.4435 58.5489 24.8289 56.2463 27.5803 57.6336 27.9376 57.8137 28.22 58.1236 28.5772 58.3037 28.8905 58.4617 29.2362 58.5458 29.5741 58.6388 35.7124 60.327 29.2467 58.5282 34.2262 59.6441 34.5681 59.7207 34.8833 59.8934 35.2231 59.9791 35.771 60.1173 36.3367 60.1761 36.8846 60.3142 37.2244 60.3999 37.5435 60.5563 37.8814 60.6493 38.7627 60.8916 39.6536 61.096 40.5398 61.3195 40.9828 61.4311 41.4357 61.5089 41.869 61.6545 42.2013 61.7662 42.5224 61.9204 42.8658 61.9896 43.6338 62.1445 44.4155 62.2203 45.1919 62.3247 49.6778 62.9278 48.218 62.6774 54.8284 62.9948L57.819 63.3299C58.5962 63.4279 59.3673 63.5728 60.1451 63.665 61.2506 63.7962 62.3604 63.8884 63.468 64.0001L73.1045 63.665C75.8904 63.5131 75.1611 63.346 77.4244 62.9948 78.3069 62.858 79.1952 62.7592 80.0827 62.6598 84.4728 62.1679 84.2435 62.2803 89.7192 61.9896 90.0515 61.8779 90.3658 61.6545 90.7161 61.6545 103.334 61.6545 100.692 61.3683 107.331 62.3247 108.992 62.213 110.673 62.2657 112.315 61.9896 112.709 61.9234 112.955 61.4996 113.312 61.3195 113.625 61.1615 113.977 61.096 114.309 60.9844 116.027 58.3862 115.386 59.738 116.303 56.9634L116.635 55.9582C116.746 48.6981 116.775 41.4363 116.967 34.1781 116.997 33.056 117.13 31.9367 117.3 30.8273 117.353 30.4781 117.547 30.1647 117.632 29.822 118.237 27.3829 117.704 28.8248 118.296 26.1362 118.372 25.7914 118.533 25.4705 118.629 25.1309 118.754 24.6881 118.85 24.2373 118.961 23.7906 118.85 20.5515 119.083 17.2817 118.629 14.0733 118.516 13.276 117.743 12.733 117.3 12.0628 116.635 11.0576 116.746 10.9459 115.638 10.3874 115.325 10.2295 114.974 10.164 114.641 10.0524 114.309 9.71729 114.035 9.31002 113.644 9.04713 113.206 8.75279 111.226 8.42531 110.986 8.37698 110.1 8.48863 109.206 8.551 108.328 8.71205 107.983 8.77527 107.681 9.03605 107.331 9.04713 100.576 9.26 93.8175 9.27055 87.0609 9.38221 85.781 9.70484 85.1452 9.90304 83.7379 10.0524 82.3017 10.2049 80.858 10.2758 79.4181 10.3874L59.8128 10.0524C59.1864 10.0323 58.1172 9.55561 57.4868 9.38221 56.6055 9.1399 55.6949 9.00333 54.8284 8.71205 54.1638 8.48863 53.5216 8.18046 52.8346 8.04189 51.886 7.85056 50.7826 7.65563 49.844 7.37174 49.173 7.16879 48.5148 6.925 47.8502 6.70158L42.8658 5.02618 39.8752 4.02095C39.5429 3.90929 39.2218 3.7551 38.8783 3.68587L37.2169 3.35079C36.5539 3.22921 35.8838 3.149 35.2231 3.01571 33.9748 2.76401 32.8161 2.26218 31.5679 2.01047 30.9072 1.87718 30.2318 1.82283 29.5741 1.67539 29.2322 1.59878 28.9227 1.39836 28.5772 1.34032 26.3536 0.966611 23.0032 0.868778 20.9345 0.670158 20.1548 0.595227 19.3902 0.382887 18.6084 0.335079 15.7317 0.159255 12.8487 0.111658 9.9688 0 7.86431 0.111658 5.75469 0.151023 3.65523 0.335079 3.20027 0.374972 2.72261 0.441671 2.32605 0.670158 1.91799 0.905294 1.61772 1.30137 1.32917 1.67539 0.838845 2.31115 0 3.68587 0 3.68587 0.11073 7.93024 0.131975 12.1779 0.332293 16.4189 0.354063 16.8789 0.533344 17.318 0.664587 17.7592 0.865847 18.4358 1.10761 19.0995 1.32917 19.7697L1.99376 21.7801 2.32605 22.7854 2.65835 23.7906C2.54762 25.0193 2.47781 26.2524 2.32605 27.4765 2.25604 28.0416 2.07969 28.5889 1.99376 29.1519 1.85802 30.0419 1.74614 30.9361 1.66147 31.8325 1.52457 33.2823 1.4399 34.7366 1.32917 36.1885 1.4399 38.7575 1.46586 41.3315 1.66147 43.8953 2.06378 49.1698 2.76908 46.9669 2.99064 47.5812Z" stroke="#000000" stroke-miterlimit="8" fill="#595959" fill-rule="evenodd" transform="matrix(1.00033 0 -0 1 123.5 104.5)"/><path d="M59.606 63.5615 59.606 63.5615C60.3874 62.781 61.2109 62.0402 61.9501 61.2198 63.6244 59.3612 61.5036 60.9596 63.6244 59.5471 63.8477 59.2126 64.1307 58.9109 64.2942 58.5435 64.5808 57.899 64.7406 57.2054 64.9639 56.5363L65.6336 54.5291 66.3033 52.5219 66.6382 51.5183C66.7498 50.7377 66.8531 49.9559 66.9731 49.1765 67.0763 48.5061 67.2182 47.8417 67.3079 47.1693 67.8064 43.4346 67.2797 45.2469 67.9777 43.1549 67.8025 40.0038 67.907 37.9192 67.3079 35.1261 67.115 34.2269 66.9293 33.3221 66.6382 32.4498 66.5266 32.1153 66.4612 31.7616 66.3033 31.4462 65.9516 30.7433 65.2349 29.9098 64.629 29.439 63.9937 28.9454 62.6198 28.1009 62.6198 28.1009 62.5082 27.7663 62.5346 27.3467 62.285 27.0973 62.0353 26.8479 61.589 26.934 61.2804 26.7627 60.5768 26.3723 59.8403 25.9932 59.2712 25.4246 58.5306 24.6847 58.1944 24.2176 57.262 23.7519 56.9463 23.5942 56.566 23.5886 56.2574 23.4174 52.803 21.5002 55.5168 22.5017 53.2436 21.7447 52.9087 21.4102 52.6128 21.0316 52.239 20.7411 51.6036 20.2475 50.2298 19.403 50.2298 19.403 50.0065 19.0685 49.8446 18.6837 49.5601 18.3994 49.2755 18.1151 48.8069 18.0443 48.5555 17.7303 48.3349 17.455 48.392 17.035 48.2206 16.7267 47.0715 14.6605 47.3441 15.0278 45.8766 14.0504L44.5371 12.0432C44.3138 11.7087 43.9947 11.4211 43.8674 11.0396 43.7558 10.7051 43.6091 10.3803 43.5325 10.036 43.3852 9.37391 43.345 8.69094 43.1976 8.02882 43.042 7.3292 42.7091 6.53717 42.193 6.02162 41.9085 5.73734 41.5233 5.57561 41.1884 5.35255 40.742 4.68348 40.6126 3.59959 39.849 3.34534 36.1852 2.12532 41.7347 4.0711 37.8398 2.34174 37.1946 2.05536 36.5003 1.89573 35.8306 1.67267L34.826 1.33814C34.4911 1.22666 34.1696 1.06155 33.8214 1.0036 33.1517 0.892126 32.4761 0.811206 31.8122 0.669068 30.9121 0.476356 29.1333 0 29.1333 0L14.3992 0.334534C13.7208 0.361613 13.0558 0.535992 12.39 0.669068 11.1248 0.921839 10.3227 1.24594 9.04137 1.67267 8.7065 1.78415 8.3305 1.81165 8.03677 2.00721L6.02758 3.34534C4.24166 6.02162 6.58572 2.78775 4.35325 5.01801 2.12078 7.24828 5.35785 4.90654 2.67892 6.69068 1.85943 9.14675 2.50838 8.1992 1.0046 9.70149 0.189318 12.1449 0.506042 11.0245 0 13.0468 0.111587 19.7375 0.334865 26.4273 0.334865 33.1189 0.334865 35.9088 0 38.6923 0 41.4822 0 46.2786 0.022465 51.0811 0.334865 55.8672 0.361022 56.2684 0.72004 56.5865 1.0046 56.8708 1.28915 57.1551 1.67433 57.3168 2.00919 57.5399 2.12078 57.8744 2.09441 58.2941 2.34406 58.5435 3.64239 59.8405 4.7283 60.0065 6.36244 60.5507L7.36704 60.8852 14.3992 63.227 16.4084 63.896C17.0434 64.1075 18.1218 64.4951 18.7525 64.5651 20.3096 64.7379 21.8778 64.7882 23.4406 64.8996 29.7891 64.7647 36.104 65.634 42.193 63.896 42.5324 63.7992 42.8628 63.673 43.1976 63.5615 44.5371 63.673 45.8801 63.7478 47.216 63.896 47.8908 63.971 48.5467 64.2045 49.2252 64.2306 51.456 64.3163 57.8759 63.673 59.606 63.5615Z" stroke="#000000" stroke-miterlimit="8" fill="#A6A6A6" fill-rule="evenodd" transform="matrix(1.00033 0 -0 1 165.5 50.5)"/><path d="M14.7623 0.339557 14.7623 0.339557C12.0745 0.0429301 12.2297-0.246874 10.0652 0.339557 9.38275 0.524398 8.64062 0.616346 8.05214 1.00608L6.0391 2.33911 5.03259 3.00563C4.18933 5.51856 5.42494 2.51849 3.69056 4.67193 3.46961 4.9462 3.51325 5.35755 3.35506 5.6717 3.17468 6.02994 2.84784 6.30547 2.68405 6.67148 1.8615 8.50992 2.12853 8.54529 1.67753 10.3373 1.59172 10.6781 1.45382 11.0038 1.34202 11.3371 1.45382 14.1142 1.67753 16.8893 1.67753 19.6686 1.67753 21.8412 1.36516 20.7832 0.671012 22.3347 0.383797 22.9767 0 24.3342 0 24.3342 0.1118 24.6675 0.114547 25.0597 0.335506 25.334 0.915534 26.0541 2.73995 26.4634 3.35506 26.667 3.69056 26.7781 4.06728 26.8055 4.36158 27.0003 5.66239 27.8616 4.98556 27.5401 6.37461 28.0001L19.7948 27.6668C21.0292 27.6187 22.2524 27.4078 23.4854 27.3335 25.9438 27.1855 28.4072 27.1323 30.8665 27.0003 32.5453 26.9101 34.2216 26.7781 35.8991 26.667L37.9122 26.3338C38.5137 26.2251 39.931 25.9976 40.5962 25.6672 41.702 25.118 41.3912 24.8536 42.6092 24.6675 43.72 24.4977 44.846 24.4453 45.9643 24.3342 47.661 23.2107 46.496 24.2776 47.3063 22.6679 47.4867 22.3097 47.8135 22.0341 47.9773 21.6681 48.2645 21.0261 48.4246 20.3351 48.6483 19.6686L48.9838 18.6688C48.855 17.9008 48.7258 16.4899 48.3128 15.6695 47.6138 14.2809 47.1385 14.3364 45.6288 13.3367 45.2933 13.1145 45.0048 12.7968 44.6223 12.6701L42.6092 12.0036C42.2737 11.8926 41.9458 11.7556 41.6027 11.6704 41.1727 11.5636 39.7355 11.2429 39.2542 11.0038 38.8935 10.8247 38.5832 10.5595 38.2477 10.3373 37.8004 9.67081 37.5766 8.78209 36.9056 8.33778L34.8926 7.00474C34.1098 5.83838 33.8861 5.22739 32.2086 4.67193 31.5375 4.44972 30.784 4.39514 30.1955 4.00541 29.5892 3.60392 28.2016 2.43169 27.176 2.33911 25.0569 2.14776 22.9262 2.1169 20.8014 2.00585L17.7818 1.00608 16.7753 0.672816 14.7623 0.339557Z" stroke="#000000" stroke-miterlimit="8" fill="#D9D9D9" fill-rule="evenodd" transform="matrix(1.00033 0 -0 1 107.5 151.5)"/><path d="M62.1997 0 62.1997 0C55.3829 0.759409 63.7491 0 53.4584 0 51.2143 0 48.9757 0.224754 46.7343 0.337079L44.7171 1.01124 43.7085 1.34831C43.5965 1.68539 43.5937 2.08214 43.3723 2.35955 43.1199 2.67593 42.6494 2.74727 42.3637 3.03371 42.078 3.32015 41.9155 3.70786 41.6913 4.04494 40.6827 3.93262 39.6664 3.87518 38.6654 3.70786 38.3159 3.64947 38.0071 3.42483 37.6568 3.37079 36.5437 3.19912 35.4154 3.14603 34.2948 3.03371 31.6052 3.14603 28.9045 3.10219 26.2259 3.37079 25.5207 3.44149 24.9168 4.01405 24.2087 4.04494L16.476 4.38202C16.0278 4.49435 15.5933 4.7191 15.1312 4.7191 11.389 4.7191 11.1055 4.58607 8.40711 4.04494 8.12099 4.06883 4.57576 4.0442 3.36405 4.7191 2.65765 5.11255 1.34683 6.06742 1.34683 6.06742 1.45886 6.8539 1.52758 7.64792 1.68303 8.42697 1.89502 9.48969 2.50316 9.52197 1.34683 10.4494 1.07013 10.6714 0.674419 10.6742 0.338216 10.7865-0.00285906 11.8123-0.334721 11.9237 0.674419 12.809 1.28255 13.3426 2.69164 14.1573 2.69164 14.1573 4.17284 16.385 4.32257 15.5773 3.70025 17.8652 3.51378 18.5508 3.02785 19.8876 3.02785 19.8876 3.13988 20.6741 3.18584 21.473 3.36405 22.2472 4.37266 26.6292 3.70025 22.5843 4.37266 25.2809 4.48469 25.7303 4.4525 26.2437 4.70886 26.6292 4.93304 26.9663 5.35607 27.1221 5.71748 27.3034 6.70385 27.7978 8.10606 27.8 9.07951 27.9775 10.1974 28.1813 11.3889 28.6369 12.4416 28.9888L13.4502 29.3258C13.7864 29.4382 14.105 29.642 14.4588 29.6629L20.1742 30 55.4756 29.6629C55.8299 29.6563 56.1301 29.339 56.4842 29.3258 62.1969 29.1137 67.9152 29.1011 73.6306 28.9888 73.9668 28.6517 74.3755 28.3742 74.6393 27.9775 74.8358 27.6819 74.9754 27.3216 74.9754 26.9663 74.9754 26.7224 74.9699 23.1137 74.303 21.9101 73.9106 21.2019 73.2137 20.6563 72.9582 19.8876L72.2858 17.8652 71.9496 16.8539C71.7923 15.5921 71.6327 13.7785 71.2772 12.4719 71.0907 11.7863 70.829 11.1236 70.6048 10.4494 70.4928 10.1124 70.4651 9.73388 70.2686 9.4382L68.9238 7.41573 68.2514 6.40449C68.1393 5.84266 68.1516 5.2407 67.9152 4.7191 67.2747 3.30656 66.09 1.86195 64.5531 1.34831 64.2169 1.23599 63.8941 1.06963 63.5445 1.01124 63.2129 0.955817 62.4239 0.168592 62.1997 0Z" stroke="#000000" stroke-miterlimit="8" fill="#A6A6A6" fill-rule="evenodd" transform="matrix(1.00033 0 -0 1 99.5 175.5)"/></g></svg>