<svg width="301" height="250" xmlns="http://www.w3.org/2000/svg" xmlns:xlink="http://www.w3.org/1999/xlink" overflow="hidden"><defs><clipPath id="clip0"><path d="M0 0 301 0 301 250 0 250Z" fill-rule="evenodd" clip-rule="evenodd"/></clipPath></defs><g clip-path="url(#clip0)"><rect x="0" y="0" width="300.901" height="250" fill="#D3D3C3" transform="scale(1.00033 1)"/><path d="M3.94608 1.97873 3.94608 1.97873C3.65183 4.63469 3.38307 4.80836 3.94608 7.25534 4.10196 7.93278 4.3845 8.57449 4.60376 9.23407L4.9326 10.2234C4.82302 11.2128 4.79848 12.2153 4.60376 13.1915 4.46777 13.8733 4.16534 14.5107 3.94608 15.1702L3.61724 16.1596C3.50766 16.4894 3.48063 16.8597 3.2884 17.149 3.06914 17.4788 2.80752 17.7838 2.63072 18.1383 2.47567 18.4492 2.54704 18.8818 2.30188 19.1277 2.05673 19.3736 1.6442 19.3476 1.31536 19.4575L0.32884 22.4256 0 23.4149C0.109579 25.0639-0.0485751 26.7531 0.32884 28.3618 0.419362 28.7475 0.954206 28.8603 1.31536 29.0213 1.94891 29.3037 2.63072 29.461 3.2884 29.6809L5.26144 30.3405 6.24796 30.6703 7.23448 31.0001C10.8517 30.8902 14.4723 30.861 18.0862 30.6703 20.299 30.5535 19.0583 30.3434 20.7169 30.0107 21.4769 29.8582 22.2516 29.7908 23.0188 29.6809 23.3477 29.461 23.7259 29.3016 24.0053 29.0213 24.6428 28.382 24.7244 27.8473 24.9919 27.0426 24.8823 25.7235 24.88 24.3909 24.663 23.0852 24.5491 22.3994 24.2246 21.766 24.0053 21.1064L23.0188 18.1383 22.3611 16.1596C22.2516 15.8298 22.1164 15.5075 22.0323 15.1702 21.9227 14.7306 21.8333 14.2853 21.7035 13.8511 21.5043 13.1852 21.265 12.5319 21.0458 11.8724L19.7304 7.91491C18.5312 4.30667 20.4438 9.77201 18.7439 5.93618 18.4624 5.30081 18.3055 4.61703 18.0862 3.95746L17.7574 2.96809C17.6478 2.6383 17.5126 2.31599 17.4285 1.97873 17.3189 1.53905 17.4428 0.954568 17.0997 0.659576 16.5733 0.207117 15.1266 0 15.1266 0 13.2632 0.109895 11.3897 0.106779 9.53636 0.329788 8.63892 0.437813 7.76311 0.702682 6.90564 0.989364 6.5768 1.09926 6.26308 1.27605 5.91912 1.31915 5.37527 1.38729 4.27492 1.86883 3.94608 1.97873Z" stroke="#000000" stroke-miterlimit="8" fill="#595959" fill-rule="evenodd" transform="matrix(1.00033 0 -0 1 257.5 167.5)"/><path d="M82.9052 15.3512 82.9052 15.3512C82.3483 14.9546 80.17 13.5966 79.558 12.6814 79.3623 12.3887 79.3811 11.9948 79.2232 11.6803 79.0433 11.3215 78.7337 11.0378 78.5538 10.6791 78.396 10.3645 78.4395 9.95257 78.2191 9.67792 77.5058 8.78902 77.0839 9.16037 76.2107 8.67676 75.5074 8.28722 74.8718 7.7868 74.2024 7.34187 73.8676 7.11936 73.5798 6.8013 73.1982 6.67443L70.1856 5.67327 67.1731 4.6721 66.1689 4.33838C65.8342 4.22717 65.4584 4.19974 65.1647 4.00466 62.287 2.09188 65.928 4.38515 63.1564 3.00349 62.7966 2.82407 62.5198 2.49897 62.1522 2.33605 61.5073 2.05036 60.8133 1.89112 60.1439 1.66861L59.1397 1.33489C58.805 1.22368 58.4835 1.05897 58.1355 1.00116L56.1272 0.667443C55.3473 0.547829 54.5623 0.463006 53.7841 0.333722 53.2229 0.24049 52.6684 0.111205 52.1104 0 50.9947 0.111205 49.8653 0.127708 48.7632 0.333722 48.0696 0.463426 47.4243 0.778648 46.7548 1.00116 46.4201 1.11237 46.0443 1.1398 45.7507 1.33489 45.4159 1.5574 45.1141 1.83941 44.7465 2.00233 44.1016 2.28802 43.4076 2.44726 42.7381 2.66977L41.7339 3.00349 36.3783 2.66977C35.3712 2.58947 34.3762 2.33605 33.3658 2.33605 29.9052 2.33605 26.4481 2.55857 22.9893 2.66977 22.6742 2.74829 21.0391 3.11964 20.6462 3.33722 19.9429 3.72675 19.3073 4.22717 18.6379 4.6721L17.6337 5.33954 16.6295 6.00699 15.6253 6.67443 14.2864 8.67676C14.0632 9.01048 13.7442 9.29743 13.617 9.67792 13.5054 10.0116 13.5027 10.4044 13.2822 10.6791 13.0309 10.9923 12.6128 11.124 12.2781 11.3465 11.4368 13.8629 12.5717 10.7612 11.2739 13.3489 11.1161 13.6635 11.097 14.0354 10.9392 14.35 10.7592 14.7088 10.4331 14.9847 10.2697 15.3512 9.98316 15.9941 9.82344 16.6861 9.60026 17.3535L9.26553 18.3547 7.92663 22.3593 7.5919 23.3605C7.48036 23.6942 7.32633 24.0167 7.25717 24.3617 6.43833 28.4436 7.35965 24.2095 6.58772 27.0314 5.45514 31.1716 6.35399 28.398 5.58354 30.7024 5.47475 32.6544 5.21519 38.3128 4.91409 40.714 4.85706 41.1691 4.71157 41.6096 4.57937 42.0489 4.37663 42.7228 4.1331 43.3838 3.90991 44.0512L3.24046 46.0536 2.90574 47.0547C2.7942 47.3885 2.76668 47.7632 2.57101 48.0559 0.652478 50.9251 2.95265 47.2949 1.56683 50.0582 0.269046 52.6459 1.40395 49.5441 0.562656 52.0606-0.34316 62.8981-0.0143379 57.381 0.562656 78.0908 0.598395 79.3723 0.86839 80.0064 1.23211 81.0943 1.34365 81.873 1.47469 82.6492 1.56683 83.4304 2.03756 87.4193 1.51528 85.6121 2.23629 87.7688 2.34783 88.5474 2.45104 89.3273 2.57101 90.1048 2.76151 91.3392 2.89013 92.2779 3.24046 93.442 3.4432 94.1159 3.68673 94.7769 3.90991 95.4444L5.24882 99.449 5.58354 100.45C5.69508 100.784 5.84911 101.106 5.91827 101.451 6.14146 102.564 6.2279 103.712 6.58772 104.789L7.5919 107.792 8.26135 109.794C8.37289 110.128 8.40041 110.503 8.59608 110.796 8.81926 111.129 9.10212 111.43 9.26553 111.797L10.2697 114.8 11.9433 119.806 12.9475 122.81 13.2822 123.811C13.3938 125.146 13.4503 126.486 13.617 127.815 13.674 128.27 13.8553 128.702 13.9517 129.15 14.146 130.054 14.5737 132.552 14.9559 133.822 15.1586 134.496 15.4021 135.157 15.6253 135.825L15.96 136.826C16.2323 137.64 16.3153 138.181 16.9642 138.828 17.2487 139.112 17.6337 139.273 17.9684 139.496 18.1916 139.829 18.2967 140.284 18.6379 140.497 19.2362 140.87 19.9768 140.942 20.6462 141.164L21.6504 141.498 23.6587 142.165C23.9935 142.277 24.3169 142.43 24.6629 142.499 25.2208 142.61 25.7812 142.71 26.3365 142.833 26.7857 142.932 27.219 143.11 27.6755 143.167 29.0087 143.333 30.3533 143.389 31.6922 143.5 38.8216 145.87 45.3628 144.683 53.4493 144.835L79.2232 144.501C86.6858 144.351 84.5923 145.494 87.5914 143.5 88.0377 142.833 88.3614 142.065 88.9303 141.498 89.265 141.164 89.6438 140.869 89.9345 140.497 90.4284 139.864 90.8271 139.162 91.2734 138.494 91.4966 138.161 91.8156 137.874 91.9428 137.493 92.0544 137.16 92.1062 136.8 92.2775 136.492 92.6683 135.791 93.3621 135.251 93.6165 134.49L94.9554 130.485C95.0669 130.151 95.0944 129.777 95.2901 129.484 96.4184 127.796 96.9025 127.453 97.2984 125.479L97.9679 122.142C97.8564 111.018 97.8191 99.893 97.6332 88.7699 97.596 86.5427 97.5208 84.312 97.2984 82.0955 97.2587 81.699 96.5125 77.5828 95.9595 76.756 95.7364 76.4222 95.4535 76.1213 95.2901 75.7548 95.0035 75.1118 95.0121 74.3378 94.6206 73.7525 94.1744 73.085 93.5361 72.5111 93.2817 71.7501L91.9428 67.7455 91.6081 66.7443C91.4966 66.4106 91.3425 66.0881 91.2734 65.7431 90.0396 59.5929 91.6332 67.1781 90.6039 63.0734 90.4659 62.5231 90.3807 61.961 90.2692 61.4048 90.1577 59.7361 89.9811 58.0706 89.9345 56.3989 89.3335 34.8288 90.5307 43.8733 89.265 35.0408 89.1535 31.7035 89.2084 28.3567 88.9303 25.0291 88.6774 22.003 87.8873 23.9118 86.9219 21.0245 86.0806 18.508 87.2156 21.6098 85.9178 19.0221 85.7599 18.7075 85.8035 18.2956 85.583 18.021 85.3317 17.7077 84.893 17.6041 84.5789 17.3535 84.3325 17.157 83.1842 15.6849 82.9052 15.3512Z" stroke="#000000" stroke-miterlimit="8" fill="#A6A6A6" fill-rule="evenodd" transform="matrix(1.00033 0 -0 1 44.5 53.5)"/><path d="M0.350611 0 0.350611 0C3.11476 0.111388 5.88246 0.154764 8.64315 0.33427 13.7686 0.667487 8.54463 0.484823 11.6285 1.00281 12.6161 1.16873 13.6132 1.2997 14.6138 1.33708 19.5871 1.52269 24.5648 1.55996 29.5404 1.67135 30.3143 1.78274 31.0956 1.85106 31.8623 2.00562 33.4347 2.32252 32.3293 2.46644 34.1842 2.67416 35.7266 2.84682 37.28 2.89704 38.828 3.00843L40.8182 3.67697C41.1499 3.78836 41.5224 3.81583 41.8133 4.01124L45.7937 6.6854 47.784 8.02247 48.7791 8.69101C49.0002 9.02528 49.1311 9.44283 49.4425 9.69382 49.7154 9.91397 50.1319 9.85701 50.4376 10.0281 51.1345 10.4183 51.7644 10.9195 52.4278 11.3652L53.4229 12.0337C53.6441 12.368 53.775 12.7855 54.0863 13.0365 54.3593 13.2567 54.8341 13.1216 55.0814 13.3708 55.3287 13.62 55.2567 14.0585 55.4131 14.3736 55.5914 14.7329 55.8982 15.0171 56.0765 15.3764 56.2329 15.6915 56.2384 16.0712 56.4082 16.3792 56.7954 17.0816 57.2928 17.7163 57.735 18.3848 57.9562 18.7191 58.2723 19.0065 58.3984 19.3876 58.5089 19.7219 58.5603 20.0824 58.7301 20.3905 59.3678 21.5472 60.0517 22.5588 61.052 23.3989 61.3582 23.6561 61.7154 23.8445 62.0471 24.0674 62.6815 25.9852 61.9246 24.1951 63.3739 26.073 63.8634 26.7073 64.2585 27.4101 64.7007 28.0787 66.6019 30.9525 64.3225 27.3164 65.6958 30.0843 65.8742 30.4436 66.1381 30.7528 66.3592 31.0871 66.4698 31.867 66.2573 32.7714 66.6909 33.427 66.8848 33.7202 67.5441 32.7708 67.6861 33.0927 68.1374 34.1159 67.88 35.3243 68.0178 36.4354 68.0961 37.0667 68.5197 39.9497 69.0129 40.4466L70.008 41.4494C70.8417 43.97 69.6201 40.9608 71.3348 43.1208 71.5532 43.3959 71.4967 43.8156 71.6665 44.1236 72.8047 46.1882 72.5348 45.8212 73.9884 46.7978L75.3152 48.8034C75.5364 49.1377 75.6469 49.5833 75.9786 49.8062L76.9737 50.4747C77.0842 50.809 77.1356 51.1695 77.3054 51.4775L79.2956 54.486 79.959 55.4888C80.1802 55.823 80.4963 56.1105 80.6224 56.4916 80.7329 56.8259 80.7977 57.1793 80.9541 57.4944 81.1325 57.8537 81.4556 58.1301 81.6175 58.4972 81.9015 59.1412 81.893 59.9165 82.2809 60.5028 84.1821 63.3767 81.9027 59.7406 83.276 62.5084 83.4544 62.8678 83.7775 63.1441 83.9394 63.5112 84.2234 64.1553 84.3817 64.8483 84.6028 65.5169L85.2662 67.5225C85.3768 67.8568 85.404 68.2321 85.5979 68.5253 86.1943 69.4268 86.3641 69.4929 86.593 70.5309 87.1845 73.2131 86.6528 71.7746 87.2565 74.2079 87.3413 74.5497 87.4776 74.8764 87.5882 75.2107 87.9732 80.2557 88.2106 81.0559 87.5882 86.9101 87.526 87.4951 86.79 89.1246 86.593 89.9186 86.4825 90.3642 86.3866 90.8139 86.2613 91.2556 86.1653 91.5944 86.0145 91.9166 85.9296 92.2585 85.7929 92.8096 85.7085 93.3726 85.5979 93.9298 85.4874 100.615 85.5675 107.307 85.2662 113.986 85.2452 114.452 84.5527 116.5 83.9394 116.994 83.6665 117.215 83.2931 117.303 82.9443 117.329 80.2956 117.526 77.6371 117.552 74.9835 117.663 74.3201 117.774 73.6509 117.855 72.9933 117.997 67.2077 119.247 73.0681 118.207 68.3495 119 67.9754 118.985 55.5014 118.552 53.7546 118.331 53.0607 118.244 52.4278 117.886 51.7644 117.663L49.7742 116.994C49.4425 116.883 49.1239 116.718 48.7791 116.66 45.3669 116.087 47.4595 116.378 42.4767 115.992L38.4963 114.655 37.5012 114.32C37.1695 114.209 36.8557 113.991 36.5061 113.986L15.2772 113.652C14.6138 113.429 13.5081 113.652 13.287 112.983 13.0172 112.168 12.9349 111.626 12.2919 110.978 12.01 110.694 11.6285 110.532 11.2968 110.309 11.1862 109.975 11.1835 109.581 10.9651 109.306 10.716 108.992 10.2762 108.895 9.96996 108.638 9.60963 108.335 9.26289 108.008 8.97486 107.635 8.4854 107.001 8.09028 106.298 7.64805 105.629L6.98464 104.626 5.65784 102.621C5.43667 102.287 5.12053 101.999 4.99443 101.618L4.33103 99.6124 2.67252 94.5983 2.00912 92.5927 1.67742 91.5899C1.56689 88.1358 1.44956 84.6818 1.34572 81.2275 0.973061 68.835 1.77688 73.3719 0.682313 67.8568-0.663194 46.1625 0.405878 11.3095 0.350611 0Z" stroke="#000000" stroke-miterlimit="8" fill="#595959" fill-rule="evenodd" transform="matrix(1.00033 0 -0 1 170.5 80.5)"/><path d="M25.167 1.33333 25.167 1.33333C24.1467 1.22225 23.1208 1.15296 22.1062 0.999997 18.4434 0.447663 22.6883 0.914118 19.7255 0.333332 18.9395 0.179212 18.1383 0.111076 17.3448 0 14.5107 0.111076 11.6716 0.135223 8.84246 0.333332 6.42399 0.502676 8.9936 0.608502 7.48208 1.66666 6.89862 2.07517 6.03805 1.94351 5.44151 2.33333 3.10263 3.86151 4.17647 3.41332 2.38066 3.99999 0.431358 6.86581 2.76842 3.23989 1.36038 5.99998 1.17753 6.3583 0.84622 6.63389 0.680189 6.99998 0.389047 7.64219 0 8.99998 0 8.99998 0.367624 18.3689-0.592675 14.924 1.02028 19.6666 1.13361 19.9999 1.16157 20.3742 1.36038 20.6666L2.72076 22.6666C2.94752 22.9999 3.01319 23.5399 3.40095 23.6666 3.74104 23.7777 4.10781 23.8293 4.42123 23.9999 5.1358 24.389 6.4618 25.3333 6.4618 25.3333 8.0934 27.7321 5.78289 24.7785 9.18256 26.9999 9.52265 27.2222 9.82932 27.5039 10.2028 27.6666 10.8581 27.952 11.5632 28.111 12.2434 28.3333 14.9878 29.2298 12.9059 28.6447 18.7052 28.9999 21.426 28.8888 24.1518 28.8638 26.8675 28.6666 28.1862 28.5708 28.6775 27.4085 29.9283 26.9999L30.9486 26.6666C32.5078 24.3742 32.0505 25.4267 32.6491 23.6666 32.7624 22.8889 32.9892 22.119 32.9892 21.3333 32.9892 19.0445 32.9253 17.3468 32.309 15.3333L31.2887 12.3333 30.9486 11.3333 30.6085 10.3333C30.4952 8.44439 30.4605 6.54938 30.2684 4.66665 30.2328 4.31705 30.1819 3.91516 29.9283 3.66666 29.6748 3.41815 29.2481 3.4444 28.908 3.33332 28.7947 2.99999 28.8215 2.58183 28.568 2.33333 28.3144 2.08482 27.8683 2.15716 27.5477 1.99999 25.9358 1.21008 25.5638 1.44441 25.167 1.33333Z" stroke="#000000" stroke-miterlimit="8" fill="#D9D9D9" fill-rule="evenodd" transform="matrix(1.00033 0 -0 1 26.5 168.5)"/><path d="M113.217 51.6708 113.217 51.6708C112.209 51.7805 111.207 51.9999 110.193 51.9999 104.08 51.9999 108.652 51.8296 104.482 51.0126 102.455 50.6155 103.344 50.8604 101.794 50.3544 92.959 51.2199 97.2872 50.927 80.6293 50.3544 80.1678 50.3385 79.7277 50.1552 79.2855 50.0253 78.2679 49.7262 77.2697 49.367 76.2618 49.0379L73.2383 48.0506 72.2304 47.7215C71.8944 47.6118 71.5172 47.5847 71.2225 47.3923 70.8866 47.1729 70.5836 46.8948 70.2147 46.7341 69.5674 46.4524 68.7882 46.4608 68.1989 46.0759 67.863 45.8564 67.56 45.5783 67.1911 45.4177 66.5438 45.1359 65.8472 44.9789 65.1753 44.7594 64.8394 44.6498 64.5194 44.4687 64.1675 44.4303L61.1439 44.1012 58.1203 43.1139C57.7843 43.0042 57.4071 42.9771 57.1124 42.7848L55.0967 41.4683C54.7607 41.2489 54.4718 40.9352 54.0888 40.8101L53.0809 40.481C52.348 38.3267 53.366 40.4411 51.7371 39.1645 51.4218 38.9174 51.3691 38.4377 51.0652 38.1772 50.4575 37.6562 49.7214 37.2995 49.0495 36.8607 48.7135 36.6413 48.4247 36.3276 48.0416 36.2025 47.7057 36.0928 47.3504 36.0285 47.0337 35.8734 46.6726 35.6964 46.4189 35.3057 46.0259 35.2151 44.4843 34.8598 42.8903 34.7764 41.3225 34.5569L41.3225 34.5569C40.7625 34.4472 40.1967 34.3635 39.6427 34.2278 39.2991 34.1436 38.9836 33.959 38.6349 33.8987 37.0753 33.6291 35.4679 33.6167 33.9315 33.2405 33.4836 33.1308 33.0419 32.9923 32.5877 32.9114 31.1455 32.6545 29.9489 32.6253 28.5562 32.2531 27.8729 32.0706 27.2124 31.8143 26.5405 31.5949 22.8647 30.3946 28.4323 32.3089 24.5247 30.6076 23.8775 30.3258 23.1809 30.1688 22.509 29.9493L21.5011 29.6202C21.1652 29.5105 20.8406 29.3591 20.4933 29.2911 19.5917 29.1145 17.5285 28.781 16.7978 28.3038L14.782 26.9873C14.4461 26.7679 14.1572 26.4542 13.7742 26.3291 13.4382 26.2194 13.0759 26.1684 12.7663 26 12.0604 25.6158 10.7506 24.6835 10.7506 24.6835 10.5266 24.3544 10.3641 23.9758 10.0787 23.6962 9.79318 23.4165 9.28475 23.3734 9.07079 23.0379 8.69537 22.4496 8.79177 21.6405 8.39888 21.0633 5.99789 17.5351 9.73699 22.8897 6.71911 19.0886 6.22337 18.4641 5.82319 17.7721 5.37529 17.1139 4.25547 15.4683 5.03933 16.346 2.68764 14.8101L1.67978 14.1519C-0.245803 11.3223 2.06282 14.9024 0.671911 12.1772 0.491288 11.8234 0.224005 11.519 0 11.1899 0.11195 9.54429 0.118193 7.88857 0.335955 6.25316 0.455418 5.3561 0.715823 4.47843 1.00787 3.62025 1.11982 3.29114 1.18542 2.94316 1.34382 2.63291 1.52444 2.27912 1.67332 1.85516 2.01573 1.64557 2.50406 1.34662 5.00515 0.69119 5.71124 0.658227 9.85148 0.465113 13.9982 0.438783 18.1416 0.329114 18.4775 0.219444 18.7953 0 19.1495 0 21.2801 0 23.4171 0.0804385 25.5326 0.329114 26.2358 0.411729 26.8612 0.819104 27.5483 0.987341 27.9962 1.09701 28.4499 1.18647 28.8922 1.31645 29.5705 1.51579 30.236 1.75524 30.9079 1.97468 31.2438 2.08435 31.5722 2.21962 31.9158 2.30379 32.8117 2.52324 33.7274 2.67593 34.6034 2.96202 34.9394 3.07169 35.2595 3.25061 35.6113 3.29114 37.1723 3.47109 38.7474 3.50218 40.3146 3.62025L44.3461 3.94936C44.6821 4.05903 45.0123 4.18715 45.354 4.27848 46.2449 4.51647 47.1656 4.65061 48.0416 4.9367L50.0573 5.59493C50.3933 5.7046 50.7179 5.85604 51.0652 5.92404 51.9974 6.10669 53.8703 6.49209 54.7607 6.58227 57.3324 6.84287 62.4877 7.2405 62.4877 7.2405 63.4482 7.55417 63.7847 7.69213 64.8394 7.89872 65.5074 8.02964 66.1871 8.09692 66.8551 8.22784 67.3079 8.31657 67.7566 8.42696 68.1989 8.55695 68.8773 8.75629 69.5093 9.15236 70.2147 9.21518L73.9102 9.54429C84.1967 12.9033 73.5912 9.55186 104.146 10.2025 104.717 10.2146 105.269 10.4102 105.826 10.5316 110.625 11.5764 102.486 9.87817 109.185 11.519 109.633 11.6286 110.087 11.7181 110.529 11.8481 111.208 12.0474 111.873 12.2869 112.545 12.5063L115.569 13.4937 118.592 14.481 119.6 14.8101 120.608 15.1392C120.832 15.4683 121.116 15.7651 121.28 16.1266 121.567 16.7606 121.728 17.443 121.952 18.1012L122.288 19.0886C122.4 19.4177 122.538 19.7393 122.624 20.0759L122.96 21.3924C122.848 22.1603 122.802 22.9403 122.624 23.6962 122.464 24.3722 122.176 25.0126 121.952 25.6709L121.28 27.6455 120.608 29.6202C120.496 29.9493 120.468 30.3189 120.272 30.6076 119.404 31.8836 119.728 31.2197 119.264 32.5822 119.152 35.5443 119.202 38.5164 118.928 41.4683 118.864 42.1593 118.48 42.7848 118.256 43.443L117.92 44.4303C117.624 45.2997 117.107 47.1095 116.241 47.3923L115.233 47.7215C115.009 48.0506 114.846 48.4291 114.561 48.7088 114.275 48.9885 113.441 51.1772 113.217 51.6708Z" stroke="#000000" stroke-miterlimit="8" fill="#A6A6A6" fill-rule="evenodd" transform="matrix(1.00033 0 -0 1 91.5 29.5)"/></g></svg>