<svg width="301" height="250" xmlns="http://www.w3.org/2000/svg" xmlns:xlink="http://www.w3.org/1999/xlink" overflow="hidden"><defs><clipPath id="clip0"><path d="M0 0 301 0 301 250 0 250Z" fill-rule="evenodd" clip-rule="evenodd"/></clipPath></defs><g clip-path="url(#clip0)"><rect x="0" y="0" width="300.901" height="250" fill="#D3D3C3" transform="scale(1.00033 1)"/><path d="M20.1764 0 20.1764 0C20.8489 0.785012 21.4633 1.62407 22.194 2.35514 22.4797 2.64104 22.9503 2.71225 23.2028 3.02804 23.4242 3.30493 23.3669 3.72732 23.539 4.03739 24.6929 6.11542 24.4193 5.74602 25.8929 6.72898 26.4847 8.50553 25.9342 7.54165 28.2468 9.08412L29.2556 9.75702C30.1837 12.5429 29.5349 11.1856 31.2732 13.7944 31.4974 14.1308 31.6094 14.5794 31.9457 14.8037L32.9545 15.4766C34.6385 20.5313 33.8998 17.5343 33.2908 27.5888 33.2555 28.1714 32.6622 29.2271 32.282 29.6075 31.9962 29.8934 31.6094 30.0561 31.2732 30.2804 31.1611 30.6168 31.1876 31.0389 30.9369 31.2897 30.6862 31.5406 30.2451 31.4676 29.9281 31.6262 29.5666 31.8071 29.2556 32.0747 28.9193 32.2991 27.3061 34.7203 29.5906 31.7391 26.2292 33.9813 23.3381 35.9097 26.996 33.5977 24.2116 34.9907 23.8501 35.1716 23.5812 35.5216 23.2028 35.6636 22.6676 35.8644 22.0819 35.8879 21.5214 36 19.6159 35.8879 17.7042 35.8536 15.8049 35.6636 15.4522 35.6283 15.1474 35.374 14.7961 35.3271 13.4582 35.1487 12.1059 35.1028 10.7609 34.9907L8.74327 34.3178C8.407 34.2057 8.02943 34.178 7.73446 33.9813L6.72566 33.3084C6.4522 32.4875 6.36874 31.942 5.71686 31.2897 5.43111 31.0038 5.07737 30.7811 4.70806 30.6168 3.65552 30.1488 2.46328 29.8871 1.34539 29.6075 1.00912 29.3832 0.589077 29.2504 0.336585 28.9346 0.115125 28.6577 0.000317733 28.2799 0.000317733 27.9252 0.000317733 26.5748-0.0246773 25.189 0.336585 23.8879 0.552961 23.1087 1.42609 22.6364 1.68165 21.8692L2.35419 19.8505 2.69046 18.8411C2.80251 17.271 2.7933 15.6875 3.02672 14.1308 3.48013 11.1067 3.50385 13.0568 4.37179 11.1028 4.65966 10.4546 4.65108 9.67425 5.04433 9.08412 6.61361 6.72898 5.71686 7.51399 7.3982 6.39253 8.93984 4.07871 7.97647 4.62954 9.75207 4.03739 9.97628 3.70094 10.0516 3.1836 10.4246 3.02804 11.4798 2.58817 12.7029 2.71681 13.7873 2.35514 14.1235 2.24303 14.4443 2.06267 14.7961 2.01869 15.3522 1.94918 19.2796 0.336449 20.1764 0Z" stroke="#000000" stroke-miterlimit="8" fill="#D9D9D9" fill-rule="evenodd" transform="matrix(1.00033 0 -0 1 223.5 62.5)"/><path d="M26.3601 0 26.3601 0C25.3716 0.110222 24.3756 0.166583 23.3946 0.330769 23.052 0.388068 22.7445 0.583092 22.4061 0.661539 21.3146 0.914382 19.1111 1.32308 19.1111 1.32308 18.8914 1.65385 18.7501 2.05358 18.4521 2.31539 17.8561 2.83899 17.2264 3.38708 16.4751 3.63846 15.8161 3.85901 15.172 4.13092 14.498 4.3 13.6193 4.52055 12.7212 4.674 11.862 4.96154L9.88503 5.62308C6.27993 6.82937 11.7405 4.90549 7.90803 6.61539 7.2732 6.89855 5.93102 7.27692 5.93102 7.27692 5.71132 7.60769 5.55201 7.98816 5.27202 8.26923 4.99202 8.55031 4.53092 8.62032 4.28351 8.93077 4.06651 9.20299 4.06381 9.59231 3.95401 9.92308 4.24449 13.4227 4.53134 13.3101 3.95401 16.2077 3.88593 16.5496 3.87016 16.9534 3.62451 17.2 3.37886 17.4466 2.96551 17.4206 2.63601 17.5308 2.52621 17.8615 2.55215 18.2765 2.30651 18.5231 2.06086 18.7697 1.47336 18.542 1.318 18.8539 0.970653 19.5511 1.12746 20.4022 0.988503 21.1692 0.907451 21.6165 0.789142 22.0568 0.659002 22.4923 0.459433 23.1602 0 24.4769 0 24.4769 0.398618 28.4785-0.0195106 26.7335 0.988503 29.7692 1.0983 30.1 1.02898 30.5682 1.318 30.7615L2.30651 31.4231C3.41737 33.0959 2.36244 31.9473 3.95401 32.7462 4.30821 32.924 4.58064 33.2462 4.94252 33.4077 5.57734 33.6909 6.34157 33.6824 6.91952 34.0692 8.00257 34.794 7.70285 34.7192 8.89653 35.0615 9.24782 35.1623 10.7848 35.4898 11.203 35.7231L14.1685 37.7077C14.498 37.9282 14.7814 38.2435 15.157 38.3692 15.4865 38.4795 15.8349 38.5441 16.1456 38.7 18.7005 39.9825 15.638 38.861 18.1226 39.6923 19.1669 41.2648 18.4059 40.5589 20.7586 41.3462L22.7356 42.0077C23.0651 42.1179 23.3803 42.2892 23.7241 42.3385 26.4789 42.7335 25.2771 42.4802 27.3486 43 29.7649 42.8898 32.1865 42.8629 34.5976 42.6692 34.9438 42.6414 35.2391 42.353 35.5861 42.3385 40.5255 42.1319 45.4711 42.1179 50.4137 42.0077 54.88 40.5131 50.8003 42.3296 53.0497 40.3539 53.6457 39.8302 55.0267 39.0308 55.0267 39.0308 56.2283 35.4118 54.3118 40.8934 56.0152 37.0462 56.2973 36.4089 56.4545 35.7231 56.6742 35.0615 56.784 34.7308 56.9466 34.4131 57.0037 34.0692 57.1135 33.4077 57.1712 32.7352 57.3332 32.0846 57.5016 31.4081 57.6068 30.6802 57.9922 30.1 58.8438 28.8176 58.5259 29.4848 58.9807 28.1154 58.6182 20.4727 59.3814 23.3683 57.9922 19.1846L57.0037 16.2077 56.6742 15.2154C56.784 13.6718 57.0037 12.1321 57.0037 10.5846 57.0037 8.04629 56.8681 5.50775 56.6742 2.97692 56.5782 1.72479 55.5299 1.05044 54.3677 0.661539 54.0382 0.551317 53.7265 0.334936 53.3792 0.330769L26.3601 0Z" stroke="#000000" stroke-miterlimit="8" fill="#D9D9D9" fill-rule="evenodd" transform="matrix(1.00033 0 -0 1 211.5 133.5)"/><path d="M54.947 58.6387 54.947 58.6387C55.3965 57.7451 55.8142 56.8351 56.2954 55.9581 56.4894 55.6045 56.8051 55.3209 56.9696 54.9529 57.4386 53.904 57.7007 52.716 57.9809 51.6021 57.8686 48.5864 57.9187 45.5603 57.6438 42.555 57.5795 41.8515 57.1944 41.2146 56.9696 40.5445L56.6325 39.5393C56.5202 38.7574 56.4513 37.9681 56.2954 37.1937 56.2258 36.8473 55.9955 36.5397 55.9583 36.1885 55.7698 34.4078 55.9022 32.5959 55.6212 30.8272 55.5581 30.4294 55.1116 30.19 54.947 29.822 54.6585 29.1764 54.4976 28.4817 54.2728 27.8115L53.2616 24.7958 52.9245 23.7906 52.5874 22.7853C52.475 19.993 52.4372 17.1968 52.2503 14.4084 52.1708 13.2244 51.6019 11.8047 51.239 10.7225L50.9019 9.71727C50.7895 9.3822 50.7618 9.00596 50.5648 8.71204 50.34 8.37696 50.0718 8.067 49.8906 7.7068 48.5577 5.05689 50.9385 8.55468 48.5422 5.69633 48.2828 5.38701 48.1729 4.95631 47.868 4.6911 45.819 2.90901 46.1872 3.53801 43.8228 3.01571 43.4759 2.93909 43.1614 2.74205 42.8115 2.68063 41.2466 2.40613 38.0921 2.01047 38.0921 2.01047 36.2018 1.38411 37.4256 1.76109 34.384 1.00524 33.9346 0.893578 33.4752 0.815797 33.0356 0.670157L31.0131 0C28.2496 0.119467 23.0789-0.0517129 19.8888 1.00524L16.8549 2.01047C16.5178 2.12213 16.1987 2.33246 15.8436 2.34555L6.74197 2.68063C5.91945 2.95312 5.37287 3.03629 4.71938 3.68586 2.47202 5.91975 5.73067 3.5742 3.03389 5.36125 1.80451 9.02738 3.7652 3.47437 2.02259 7.37173 1.73401 8.01729 1.57316 8.71204 1.34839 9.3822 0.540101 11.7924 1.52071 8.78254 0.674197 11.7277-0.293037 15.0927 1.05387 9.88328 0 14.0733 0.165736 17.6987-0.102563 20.0322 0.674197 23.1204 0.760409 23.4631 0.898965 23.7906 1.0113 24.1256 1.12363 30.6038 1.04315 37.0882 1.34839 43.5602 1.45361 45.7907 2.02578 45.0753 2.69679 46.5759 2.98536 47.2215 2.97676 47.9986 3.37098 48.5864 3.59575 48.9214 3.88061 49.2236 4.04518 49.5916 4.33376 50.2372 4.49461 50.9319 4.71938 51.6021 4.83171 51.9372 4.85942 52.3134 5.05648 52.6073 5.28124 52.9424 5.56611 53.2445 5.73067 53.6125 6.01925 54.2581 6.01065 55.0353 6.40487 55.623 6.8543 56.2932 7.49707 56.8694 7.75326 57.6335 8.21851 59.0208 7.79467 58.4429 9.10166 59.3089 9.21399 59.644 9.21675 60.0383 9.43876 60.3141 10.0828 61.1144 10.6471 60.9146 11.4613 61.3194 11.8237 61.4995 12.1024 61.8259 12.4726 61.9895 15.1187 63.1584 16.5375 62.7865 19.8888 62.9947 20.2259 63.1064 20.5532 63.2532 20.9001 63.3298 21.5673 63.4773 22.2524 63.5316 22.9227 63.6649 23.377 63.7552 23.8217 63.8883 24.2711 64L48.2051 63.6649C48.6682 63.6527 49.1097 63.4622 49.5535 63.3298 50.2341 63.1269 50.9019 62.8831 51.5761 62.6597L52.5874 62.3246C52.9245 62.2129 53.2809 62.1475 53.5986 61.9895L54.947 58.6387Z" stroke="#000000" stroke-miterlimit="8" fill="#595959" fill-rule="evenodd" transform="matrix(1.00033 0 -0 1 40.5 113.5)"/><path d="M3.01605 4.73846 3.01605 4.73846C5.69699 4.62568 8.3889 4.6697 11.0589 4.4 11.7618 4.329 12.3993 3.94875 13.0696 3.72308L16.0856 2.70769 17.091 2.36923C17.4261 2.25645 17.8024 2.22862 18.0963 2.03077 18.4314 1.80509 18.7414 1.53582 19.1017 1.35385 19.4176 1.19426 19.7662 1.1093 20.107 1.01538 20.9957 0.770626 21.8674 0.369483 22.788 0.338462L32.8415 0C34.0703 0.112785 35.3127 0.121953 36.5277 0.338462 37.2235 0.46244 38.5384 1.01538 38.5384 1.01538 39.2011 3.02313 38.4364 1.65798 41.5545 2.70769L43.5652 3.38462C43.7887 3.72308 44.0553 4.03617 44.2354 4.4 44.3934 4.71906 44.399 5.10347 44.5706 5.41539 44.9617 6.12653 45.4642 6.76923 45.911 7.44616 46.1069 7.74304 46.0881 8.14248 46.2461 8.46154 46.4263 8.82537 46.7528 9.1052 46.9164 9.47693 47.2033 10.129 47.5866 11.5077 47.5866 11.5077 47.6983 14.7795 47.6449 18.0613 47.9217 21.3231 47.9821 22.034 48.3685 22.6769 48.592 23.3539L48.9271 24.3692C49.0387 24.7077 49.193 25.0348 49.2622 25.3846 49.3739 25.9488 49.4474 26.522 49.5973 27.0769 49.7832 27.7654 49.6797 28.7119 50.2675 29.1077L51.2729 29.7846C51.3846 30.1231 51.4365 30.4881 51.608 30.8 51.9992 31.5112 52.6938 32.059 52.9485 32.8308L53.6187 34.8615C53.8907 37.059 53.7969 37.1838 54.2889 38.9231 54.3859 39.2661 54.4661 39.6194 54.6241 39.9385 54.8042 40.3023 55.1307 40.5821 55.2943 40.9539 55.5812 41.6059 55.5726 42.391 55.9645 42.9846 56.6198 43.9773 56.6924 43.8944 56.9699 45.0154 57.108 45.5735 57.1551 46.1527 57.305 46.7077 57.4909 47.3961 57.8591 48.0347 57.9752 48.7385 58.0869 49.4154 58.2205 50.089 58.3104 50.7692 58.8092 54.5479 58.2821 52.7142 58.9806 54.8308 58.8689 55.282 58.7778 55.739 58.6455 56.1846 58.311 57.3109 57.6939 59.533 56.6348 60.2462L55.6294 60.9231C55.406 61.2616 55.2737 61.6843 54.9592 61.9385 54.6834 62.1614 54.2697 62.1174 53.9538 62.2769 53.5936 62.4589 53.3087 62.7719 52.9485 62.9539 52.1824 63.3407 51.0323 63.4377 50.2675 63.6308 49.9248 63.7174 49.6018 63.8713 49.2622 63.9692 47.8319 64.382 47.801 64.2972 46.2461 64.6462 45.7965 64.7471 45.36 64.9082 44.9057 64.9846 44.0174 65.1342 43.1148 65.1848 42.2247 65.3231 41.6617 65.4106 41.111 65.567 40.5491 65.6616 39.77 65.7927 38.9852 65.8872 38.2033 66L16.7558 65.6616C15.3951 65.6205 15.8825 65.2514 15.4154 64.3077 15.2352 63.9439 14.9253 63.6562 14.7451 63.2923 14.2 62.1912 14.7002 62.2315 13.7398 61.2616 13.455 60.9739 13.0696 60.8103 12.7344 60.5846 12.123 59.6584 12.1171 59.3673 11.0589 58.8923 10.4132 58.6026 9.04816 58.2154 9.04816 58.2154 8.82471 57.8769 8.68106 57.4679 8.37792 57.2 7.77176 56.6642 6.36722 55.8462 6.36722 55.8462 6.14378 55.5077 5.98176 55.1184 5.69699 54.8308 4.53521 53.6574 4.73628 54.7631 4.0214 53.1385 3.73452 52.4864 3.57462 51.7846 3.35117 51.1077L3.01605 50.0923C3.12772 45.4666 3.16804 40.8387 3.35117 36.2154 3.56005 30.9409 4.32296 34.9513 3.35117 27.7539 3.25575 27.0469 2.85224 26.4154 2.68094 25.7231 2.17451 23.677 2.49148 24.8106 1.67558 22.3385L1.34047 21.3231 1.00535 20.3077C0.89368 17.8257 0.866449 15.3382 0.670234 12.8615 0.642052 12.5059 0.432116 12.1892 0.335117 11.8462 0.208564 11.3989 0.11167 10.9436 0 10.4923 0.0161489 10.3451 0.292475 5.89542 1.00535 5.41539L3.01605 4.73846Z" stroke="#000000" stroke-miterlimit="8" fill="#595959" fill-rule="evenodd" transform="matrix(1.00033 0 -0 1 152.5 110.5)"/><path d="M124.959 11.8636 124.959 11.8636C124.848 13.2916 124.805 14.7265 124.625 16.1477 124.581 16.4924 124.54 16.8906 124.291 17.1363 123.723 17.6964 122.955 18.0151 122.287 18.4545 121.953 18.6742 121.665 18.9883 121.284 19.1136L119.28 19.7727C118.946 19.8825 118.623 20.0341 118.278 20.1022 117.721 20.212 117.155 20.2844 116.608 20.4318 115.928 20.6145 115.272 20.8711 114.603 21.0909 114.269 21.2007 113.894 21.2278 113.601 21.4204L110.595 23.3977C110.261 23.6174 109.974 23.9315 109.593 24.0568 109.259 24.1666 108.906 24.2309 108.591 24.3863 107.733 24.8095 107.586 25.2961 106.586 25.3749 104.142 25.5679 101.687 25.5947 99.2373 25.7045 98.7919 25.8143 98.3409 25.9039 97.9011 26.034 90.2141 28.3091 102.583 26.5497 80.5306 27.0227L78.5263 27.3522C77.9678 27.4524 77.4199 27.6163 76.8561 27.6817 75.5244 27.8363 74.1801 27.8653 72.8475 28.0113 72.1744 28.0851 71.5044 28.1958 70.8432 28.3408 70.4995 28.4162 70.1876 28.6082 69.8411 28.6704 68.9578 28.8288 68.0595 28.8901 67.1687 28.9999L35.1001 28.6704C34.3962 28.6499 33.764 28.231 33.0959 28.0113L32.0937 27.6817C31.7597 27.5719 31.4433 27.3687 31.0916 27.3522L24.0766 27.0227C23.1857 26.8029 22.2752 26.65 21.4042 26.3636 21.0701 26.2538 20.7458 26.1094 20.402 26.034 17.7217 25.4464 19.1592 25.9747 16.7275 25.3749 16.3859 25.2907 16.0403 25.2008 15.7254 25.0454 15.3663 24.8682 15.0823 24.5635 14.7232 24.3863 14.4083 24.2309 14.036 24.2121 13.7211 24.0568 13.362 23.8796 13.0858 23.5585 12.719 23.3977L9.71253 22.409C7.3097 21.6189 10.3103 22.5775 7.37419 21.7499 7.03562 21.6546 6.6799 21.5891 6.37205 21.4204 5.67018 21.0357 5.03586 20.5416 4.36776 20.1022L3.36562 19.4431 2.02943 17.4659C1.8067 17.1363 1.48833 16.853 1.36134 16.4772 0.900298 15.1129 1.22256 15.7777 0.359193 14.5 0.0959532 10.6041-0.296908 10.4922 0.359193 7.57953 0.435577 7.24043 0.522272 6.89459 0.693241 6.59089 1.08316 5.89849 1.2677 4.86408 2.02943 4.61362 2.36348 4.50381 2.72372 4.45274 3.03157 4.28408 3.73344 3.89942 4.27413 3.21636 5.03586 2.9659L9.04443 1.64772C9.37848 1.53791 9.75356 1.51082 10.0466 1.31818 10.8489 0.790492 11.1001 0.500077 12.0509 0.329545 12.9341 0.171156 13.8324 0.109814 14.7232 0 17.841 0.109814 20.9622 0.14884 24.0766 0.329545 28.2635 0.572525 24.4842 0.522497 27.083 0.988634 27.8044 1.11806 32.1782 1.58379 32.7618 1.64772 33.8778 2.01474 33.8418 2.03093 35.1001 2.30681 35.6544 2.42835 36.2161 2.51481 36.7704 2.63636 42.394 3.86922 34.6448 2.19451 39.1087 3.29545 39.6595 3.43131 40.2247 3.50345 40.7789 3.62499 43.1287 4.14012 41.1643 3.73356 43.1173 4.28408 43.5588 4.40853 43.9945 4.60138 44.4535 4.61362 52.2459 4.82142 60.0424 4.83336 67.8368 4.94317 72.3178 5.57465 68.2633 4.95978 71.8454 5.60226 72.9374 5.79812 74.4197 5.99003 75.5199 6.26135 78.067 6.88951 74.7341 6.30401 77.8582 6.92044 79.0169 7.14909 81.0778 7.42124 82.2009 7.57953 83.6928 8.07016 83.1497 7.94862 85.2073 8.23862 89.0369 8.77834 89.2132 8.63739 94.2266 8.8977L99.9054 9.55679C100.576 9.65125 101.249 9.74134 101.91 9.88634 102.253 9.96169 102.56 10.2047 102.912 10.2159 109.701 10.432 121.284 11.589 124.959 11.8636Z" stroke="#000000" stroke-miterlimit="8" fill="#D9D9D9" fill-rule="evenodd" transform="matrix(1.00033 0 -0 1 59.5 88.5)"/><path d="M15.3283 37.2895 15.3283 37.2895C17.5498 37.4035 19.7832 37.3699 21.9928 37.6316L24.9918 38.6579 25.9915 39C28.6573 38.886 31.334 38.9305 33.9888 38.6579 34.6878 38.5862 35.3217 38.2018 35.9882 37.9737L36.9879 37.6316C37.21 37.2895 37.3415 36.8622 37.6543 36.6053 37.9285 36.38 38.4056 36.5182 38.654 36.2632 39.2203 35.6818 39.5426 34.8948 39.9869 34.2106L41.9862 31.1316C42.2084 30.7895 42.526 30.4953 42.6527 30.1053 43.8679 26.3623 41.9298 32.0317 43.6523 28.0527 43.9376 27.3935 44.0966 26.6842 44.3188 26L44.652 24.9737 44.9852 23.9474C44.8742 21.2105 44.9175 18.4625 44.652 15.7369 44.5821 15.0192 44.57 14.0843 43.9856 13.6842L42.9859 13C42.4438 12.1652 42.4195 11.4126 41.3198 12.3158 41.007 12.5727 40.8325 12.9744 40.6533 13.3421 40.4962 13.6646 40.3201 14.7291 40.3201 14.3684 40.3201 13.8982 40.5217 13.4504 40.6533 13 40.8551 12.3092 41.3198 10.9474 41.3198 10.9474 41.2087 9.46496 41.1662 7.97532 40.9865 6.50001 40.943 6.14217 40.8728 5.75524 40.6533 5.47369 40.4031 5.15259 39.9869 5.01758 39.6536 4.78948 38.055 2.3275 40.3188 5.35883 36.9879 3.07895 36.3214 2.62284 35.7484 1.97053 34.9885 1.71053 30.6993 0.242652 35.091 1.65127 31.323 0.684211 30.9823 0.596718 30.6642 0.429598 30.3234 0.342106 29.774 0.201061 29.2127 0.113999 28.6573 0L14.9951 0.342106C14.2103 0.375723 13.4431 0.59521 12.6625 0.684211 11.4432 0.823316 10.2189 0.912317 8.99705 1.02632 7.85181 1.26143 7.09604 1.38846 5.99803 1.71053 5.66029 1.80955 5.33158 1.93863 4.99836 2.05263 4.77617 2.39474 4.64467 2.82207 4.33191 3.07895 4.05767 3.30425 3.58066 3.16601 3.33224 3.42106 3.08382 3.6761 3.15613 4.12488 2.99902 4.44737 2.81986 4.81512 2.49524 5.09797 2.33257 5.47369 2.04731 6.13279 1.8883 6.84211 1.66612 7.52632L1.3329 8.55264C1.22186 8.89474 1.06852 9.22532 0.999672 9.57896 0.770666 10.7547 0.646927 11.5306 0.333224 12.6579 0.236773 13.0046 0.11104 13.3421 0 13.6842 0.11104 16.6492 0.140951 19.6184 0.333224 22.579 0.36366 23.0481 0.58448 23.4848 0.666448 23.9474 0.806979 24.7407 0.823037 25.5564 0.999672 26.3421 1.15763 27.0449 1.44394 27.7106 1.66612 28.3948 1.77716 28.7369 1.70705 29.2211 1.99934 29.4211L2.99902 30.1053C3.23673 30.8373 3.3907 31.6117 3.99869 32.1579 4.60143 32.6995 5.33158 33.0702 5.99803 33.5263 6.33125 33.7544 6.61777 34.0805 6.9977 34.2106 7.33093 34.3246 7.69028 34.3776 7.99737 34.5527 8.69751 34.952 9.23686 35.6611 9.99672 35.9211L12.9957 36.9474C13.329 37.0614 13.6441 37.2895 13.9954 37.2895L15.3283 37.2895Z" stroke="#000000" stroke-miterlimit="8" fill="#A6A6A6" fill-rule="evenodd" transform="matrix(1.00033 0 -0 1 219.5 97.5)"/></g></svg>