<svg width="301" height="250" xmlns="http://www.w3.org/2000/svg" xmlns:xlink="http://www.w3.org/1999/xlink" overflow="hidden"><defs><clipPath id="clip0"><path d="M0 0 301 0 301 250 0 250Z" fill-rule="evenodd" clip-rule="evenodd"/></clipPath></defs><g clip-path="url(#clip0)"><rect x="0" y="0" width="300.901" height="250" fill="#D3D3C3" transform="scale(1.00033 1)"/><path d="M10.8311 0.330838 10.8311 0.330838 7.44638 2.6467C7.11196 2.87303 6.43096 3.30838 6.43096 3.30838 6.31818 3.63921 6.26573 3.996 6.09249 4.30089L4.06166 7.27843C3.83598 7.60927 3.51339 7.89374 3.38472 8.27094L2.3693 11.2485 1.35389 14.226 1.01542 15.2185C0.902627 16.5419 0.856467 17.8723 0.676944 19.1886 0.629824 19.5342 0.436442 19.8458 0.338472 20.1811 0.210652 20.6183 0.112788 21.0634 0 21.5044 0.112788 24.0409 0.0712123 26.5884 0.338472 29.1137 0.411923 29.8075 0.789732 30.4371 1.01542 31.0987 1.1282 31.4296 1.15603 31.8011 1.35389 32.0913 1.57957 32.4221 1.86559 32.7204 2.03083 33.0838 2.85329 34.8926 2.65916 35.1623 3.04625 37.0538 3.1375 37.4997 3.29346 37.9313 3.38472 38.3772 3.51936 39.035 3.55678 39.7115 3.72319 40.3622L4.73861 43.3397C4.85139 43.6706 4.78018 44.1389 5.07708 44.3322 7.98708 46.2285 4.30525 43.955 7.10791 45.3248 7.47175 45.5026 7.75948 45.8086 8.12332 45.9864 8.44239 46.1424 8.82681 46.1479 9.13874 46.3173 9.80907 46.6813 11.1246 47.8947 12.185 47.9715 14.8878 48.1672 17.6005 48.1921 20.3083 48.3023 20.6468 48.4125 20.9684 48.6016 21.3237 48.6331 27.3833 49.1715 26.555 49.0706 31.4779 48.6331 32.1548 48.1921 33.0575 47.9715 33.5087 47.3098 33.7344 46.979 33.868 46.5657 34.1857 46.3173 34.4642 46.0994 34.882 46.1424 35.2011 45.9864 35.5649 45.8086 35.878 45.5454 36.2165 45.3248 36.4422 44.9939 36.5757 44.5807 36.8934 44.3322 37.172 44.1144 37.6565 44.2481 37.9088 44.0014 38.1612 43.7548 38.0741 43.3138 38.2473 43.0089 39.4088 40.9655 39.1333 41.3288 40.6166 40.3622L41.9705 36.3921 42.309 35.3996 42.6474 34.4071C42.7602 33.3044 42.9859 32.207 42.9859 31.0987 42.9859 29.2207 42.8959 27.3367 42.6474 25.4745 42.2754 22.6862 42.1192 24.3128 41.2936 22.497 41.0038 21.8596 41.0124 21.0922 40.6166 20.5119 40.3909 20.1811 40.1049 19.8828 39.9397 19.5194 38.7525 16.9086 40.074 18.063 38.2473 16.8727 37.6516 15.1258 38.1067 16.1704 36.555 13.8952 36.3293 13.5643 36.2165 13.1233 35.878 12.9027L34.8626 12.241C34.1241 10.0755 35.1498 12.2009 33.5087 10.9176 33.191 10.6692 33.1194 10.2063 32.8318 9.92513 32.5441 9.644 32.1548 9.48405 31.8164 9.26346 31.5907 8.93262 31.4571 8.51936 31.1394 8.27094 30.8608 8.05306 30.3763 8.18675 30.124 7.9401 29.8717 7.69346 30.0379 7.19423 29.7855 6.94759 29.5332 6.70095 29.082 6.78608 28.7701 6.61675 28.0589 6.23059 27.5111 5.54484 26.7393 5.2934 25.3379 4.83679 26.0208 5.15596 24.7084 4.30089 23.5802 2.6467 24.37 3.52897 22.0007 1.98503 21.2476 1.49434 20.8807 1.12954 19.9698 0.992513 18.8492 0.82402 17.7091 0.808182 16.5851 0.661675 15.2237 0.484221 15.0163 0.371059 13.8773 0L10.8311 0.330838Z" stroke="#000000" stroke-miterlimit="8" fill="#D9D9D9" fill-rule="evenodd" transform="matrix(1.00033 0 -0 1 60.5 44.5)"/><path d="M13.8157 1.64948 13.8157 1.64948C12.8048 1.53955 11.7862 1.48334 10.783 1.31959 10.4326 1.26244 10.1273 0.98969 9.77206 0.98969 8.7549 0.98969 7.75025 1.20966 6.73935 1.31959 6.06542 1.53955 5.11161 1.40074 4.71755 1.97938 3.84663 3.25845 4.42781 2.84366 3.03271 3.29897 2.58345 3.95876 1.94093 4.52608 1.68484 5.27835L0.673935 8.24742 0.336968 9.23711 0 10.2268C0.112287 19.9037 0.122157 29.5824 0.336968 39.2577 0.34705 39.7111 0.603464 40.1292 0.673935 40.5773 1.74119 47.3688 0.435882 40.7314 1.34787 45.1959 1.46016 47.7251 1.4938 50.2588 1.68484 52.7835 1.73578 53.4573 2.10087 54.6269 2.69574 55.0928 2.97306 55.31 3.36968 55.3127 3.70664 55.4227 4.29971 57.1646 3.84663 56.123 5.39148 58.3917 5.61616 58.7216 5.93732 59.0053 6.06542 59.3814 6.1777 59.7113 6.09397 60.1986 6.40238 60.3711 6.99555 60.703 7.7614 60.5388 8.42419 60.701L11.4569 61.6907C11.7939 61.8006 12.1722 61.8278 12.4678 62.0206 12.8048 62.2406 13.0827 62.5973 13.4787 62.6804 14.6918 62.9348 15.9498 62.9004 17.1853 63.0103L19.2072 63.6701 20.2181 64C24.374 63.89 28.5334 63.8684 32.6859 63.6701 33.1939 63.6458 35.9396 62.756 36.0555 62.6804 37.2003 61.9332 37.4843 61.6225 39.0882 61.3608 42.9969 60.723 40.428 61.0702 46.8385 60.701 49.1493 59.9469 46.2812 60.8374 49.5342 60.0412 49.8788 59.9568 50.2082 59.8213 50.5451 59.7113 51.3314 59.8213 52.1251 59.8887 52.9039 60.0412 53.2522 60.1094 53.5596 60.3711 53.9148 60.3711 54.8204 60.3711 55.7119 60.1511 56.6106 60.0412 57.6414 57.0134 57.3552 58.7538 56.9475 54.7629 57.0598 48.9347 57.0757 43.104 57.2845 37.2783 57.3007 36.8252 57.4884 36.3931 57.6215 35.9588 58.0282 34.6315 58.5212 33.3161 58.9693 32L59.6433 30.0206 59.9802 29.0309C59.8679 25.9519 59.8459 22.8684 59.6433 19.7938 59.6205 19.4468 59.4652 19.1151 59.3063 18.8041 59.1251 18.4495 58.9187 18.0948 58.6324 17.8144 58.346 17.5341 57.9584 17.3746 57.6215 17.1546 56.7745 14.6671 57.917 17.7333 56.6106 15.1753 56.3412 14.6479 56.0805 13.3592 55.9366 12.866 55.8391 12.5316 55.7119 12.2062 55.5997 11.8763 55.375 8.79728 56.6747 5.20759 54.9257 2.63917 54.3093 1.73385 54.4128 1.44708 53.2409 1.31959 51.5626 1.13703 49.8712 1.09962 48.1864 0.98969 45.7252 0.186509 46.8538 0.498534 44.8167 0 42.6826 0.109931 40.5426 0.140479 38.4143 0.329897 38.0606 0.36138 37.7584 0.647429 37.4034 0.659794 31.453 0.86781 25.4973 0.879759 19.5441 0.98969 18.9825 1.09962 18.4149 1.18358 17.8593 1.31959 17.5147 1.40396 17.2023 1.6206 16.8484 1.64948 15.841 1.73167 14.3211 1.64948 13.8157 1.64948Z" stroke="#000000" stroke-miterlimit="8" fill="#A6A6A6" fill-rule="evenodd" transform="matrix(1.00033 0 -0 1 62.5 93.5)"/><path d="M28.665 13.8061 28.665 13.8061C28.2312 12.9081 27.7648 12.0263 27.3633 11.1122 27.2214 10.7891 27.1913 10.4195 27.0379 10.102 26.8629 9.74007 26.5459 9.46167 26.3871 9.09184L25.4108 6.06123C25.3023 5.72449 25.4108 5.16323 25.0854 5.05102L24.1091 4.71429C23.3991 2.51019 24.3852 4.67345 22.8074 3.36735 22.5019 3.11451 22.4882 2.57159 22.1565 2.35714 21.5748 1.98085 20.8548 1.9082 20.204 1.68367L19.2277 1.34694C18.9023 1.23473 18.5369 1.20705 18.2514 1.0102 16.9897 0.139891 17.6462 0.464747 16.2989 0 13.5436 0.150072 10.845 0.0568472 8.16322 0.67347 7.82836 0.750468 7.48684 0.83786 7.18694 1.0102 6.50319 1.40326 5.23438 2.35714 5.23438 2.35714 5.0174 2.69388 4.86007 3.0812 4.58353 3.36735 3.95267 4.02014 3.42502 4.10371 2.63098 4.37755 0.948706 6.9886 1.5766 5.6301 0.678423 8.41837L0.352997 9.42857C0.0121971 13.3073-0.232154 13.9451 0.352997 18.1837 0.450061 18.8864 0.786864 19.5306 1.00385 20.2041L1.6547 22.2245 2.30555 24.2449C2.41399 24.5816 2.44074 24.9597 2.63098 25.2551 2.84796 25.5918 3.12296 25.8955 3.28183 26.2653 3.79739 27.4657 3.69971 28.3814 4.58353 29.2959 4.86007 29.5821 5.2024 29.805 5.55981 29.9694 6.18678 30.2577 7.51236 30.6429 7.51236 30.6429 7.72935 30.9796 7.85778 31.4002 8.16322 31.6531 8.43104 31.8748 8.83272 31.831 9.13949 31.9898 11.3868 33.1525 8.70839 32.2992 11.4175 33 17.7284 32.5919 14.9191 33.0161 19.8785 31.9898 20.421 31.8776 20.9809 31.8341 21.5057 31.6531L24.4345 30.6429 25.4108 30.3061 26.7125 28.2857C26.9295 27.949 27.2396 27.6594 27.3633 27.2755L28.0142 25.2551C28.1226 24.9184 28.1494 24.5403 28.3396 24.2449L28.9905 23.2347C28.882 21.551 28.876 19.857 28.665 18.1837 27.8827 11.9768 28.665 14.5357 28.665 13.8061Z" stroke="#000000" stroke-miterlimit="8" fill="#A6A6A6" fill-rule="evenodd" transform="matrix(1.00033 0 -0 1 13.5 159.5)"/><path d="M0 18.3272 0 18.3272C0.555408 17.5636 1.03137 16.7378 1.66612 16.0363 1.93217 15.7423 2.38263 15.6599 2.66579 15.3818 4.17301 13.9015 2.38578 14.7098 4.33191 14.0727 4.55409 13.7454 4.6856 13.3366 4.99836 13.0909 5.2726 12.8753 5.68391 12.9179 5.99803 12.7636 6.35623 12.5877 6.66448 12.3273 6.9977 12.1091 7.21988 11.7818 7.35139 11.373 7.66415 11.1272 7.93839 10.9117 8.3497 10.9543 8.66382 10.8 9.02202 10.624 9.35588 10.3972 9.66349 10.1454 12.2292 8.04553 9.18081 10.1342 11.6628 8.50907 11.885 8.1818 12.0165 7.77299 12.3293 7.52726 12.6035 7.31172 13.0148 7.35429 13.329 7.19998 16.4974 5.64413 11.1699 7.57952 16.328 5.8909 16.6612 5.78184 17.0353 5.75494 17.3276 5.56362 17.8748 5.20543 19.3321 4.00241 20.3267 3.92726 22.8763 3.73461 25.436 3.70905 27.9908 3.59999 28.324 3.49094 28.6763 3.42703 28.9905 3.27272 30.4163 2.57251 29.888 2.15123 31.9895 1.96363L35.6549 1.63636C37.21 1.74542 38.7717 1.78469 40.3201 1.96363 40.6689 2.00394 40.9685 2.2909 41.3198 2.2909 43.4257 2.2909 52.9916 1.77366 55.6484 1.63636 59.9803 1.74542 64.3107 1.96363 68.6441 1.96363 74.0596 1.96363 77.0757 1.67903 81.9731 1.30909L83.9724 0.654544C84.3056 0.545488 84.6313 0.410971 84.9721 0.327272L86.305 0C89.6372 0.109056 92.9733 0.135032 96.3017 0.327272 96.8125 0.356752 99.5066 1.2257 99.6339 1.30909 100.696 2.00476 101.169 2.43841 102.633 2.61818 104.4 2.83515 105.884 3.00173 107.631 3.27272L111.63 3.92726C111.963 4.14548 112.379 4.27464 112.63 4.58181 112.849 4.85115 112.714 5.31964 112.963 5.56362 113.211 5.80761 113.648 5.73659 113.963 5.8909 114.321 6.06685 114.596 6.38567 114.962 6.54544 115.604 6.8256 116.962 7.19998 116.962 7.19998 117.295 7.52726 117.569 7.92503 117.961 8.1818 118.254 8.37311 118.712 8.26509 118.961 8.50907 119.527 9.06528 119.627 10.0364 120.294 10.4727L122.293 11.7818C122.515 12.1091 122.647 12.5179 122.96 12.7636 123.234 12.9791 123.711 12.8469 123.959 13.0909 124.695 13.814 125.386 14.9781 125.625 16.0363 125.772 16.6841 125.848 17.3454 125.959 18 125.8 19.5583 125.952 21.9337 124.626 23.2363 124.343 23.5144 123.959 23.6726 123.626 23.8909 123.515 24.2181 123.369 24.5359 123.293 24.8727 123.226 25.1685 122.892 27.6237 122.626 28.1454 122.268 28.849 121.96 29.6727 121.293 30.109 120.627 30.5453 120.054 31.1694 119.294 31.4181 118.628 31.6363 117.879 31.6899 117.295 32.0727 116.628 32.509 115.862 32.8255 115.295 33.3817 114.962 33.709 114.688 34.1068 114.296 34.3636 114.003 34.5549 113.635 34.6 113.296 34.6908 109.162 35.7982 111.932 34.9193 109.631 35.6726 108.076 35.5636 106.507 35.5726 104.965 35.3454 104.271 35.243 102.966 34.6908 102.966 34.6908L97.9678 35.0181 93.9691 35.3454C91.8602 35.479 89.7482 35.5636 87.6379 35.6726 85.0831 35.5636 82.5309 35.3454 79.9737 35.3454 78.6961 35.3454 70.647 35.8905 68.9773 35.9999L50.3168 35.6726C49.4218 35.6451 48.5444 35.4059 47.651 35.3454 45.3214 35.1876 42.9859 35.1272 40.6533 35.0181 34.5701 34.0224 38.004 34.4333 30.3234 34.0363 29.4347 33.8181 28.5265 33.6662 27.6576 33.3817 26.8011 33.1014 26.2455 32.8916 25.325 32.7272 23.5243 32.4057 21.4474 32.2482 19.6602 32.0727 18.9938 31.8544 18.3424 31.5854 17.6609 31.4181 17.2166 31.3091 16.7667 31.2201 16.328 31.0908 15.6551 30.8926 15.024 30.5339 14.3286 30.4363L11.9961 30.109 9.99671 29.4545C9.66349 29.3454 9.28934 29.3185 8.99704 29.1272 8.3306 28.6909 7.75756 28.0668 6.9977 27.8181 6.66448 27.7091 6.30512 27.6583 5.99803 27.4908 5.29789 27.1088 4.75854 26.4305 3.99869 26.1818L1.99934 25.5272C1.55508 24.8727 0.919698 24.3099 0.666448 23.5636 0.444263 22.909 0.681561 21.7672 0 21.5999L0 18.3272Z" stroke="#000000" stroke-miterlimit="8" fill="#595959" fill-rule="evenodd" transform="matrix(1.00033 0 -0 1 42.5 155.5)"/><path d="M0 6.04152 0 6.04152C5.88227 14.3364 1.99934 7.91899 1.99934 30.5433 1.99934 36.9214 1.86396 43.2997 1.66612 49.6747 1.64156 50.4655 1.43669 51.24 1.3329 52.0242 1.21451 52.9183 1.11071 53.8143 0.999672 54.7093 1.11071 61.3103 1.12163 67.9137 1.3329 74.5121 1.36879 75.6328 2.72687 76.7106 2.99902 77.5329 3.11006 77.8685 3.24702 78.1965 3.33224 78.5398 3.46962 79.0932 3.54257 79.6611 3.66546 80.218 3.76485 80.6683 3.90885 81.1082 3.99869 81.5605 4.13124 82.2279 4.16808 82.9142 4.33191 83.5744 4.50225 84.2609 4.77618 84.9169 4.99836 85.5882 5.1094 85.9239 5.13679 86.3007 5.33158 86.5951 5.55377 86.9308 5.81888 87.2413 5.99803 87.6021 7.75756 91.1466 3.46154 84.2731 7.66415 90.6228L8.3306 91.6297C8.55278 91.9654 8.66382 92.4129 8.99705 92.6367L9.99672 93.3079C10.2189 93.6436 10.3235 94.1011 10.6632 94.3149 11.2589 94.6899 11.9961 94.7624 12.6625 94.9861L13.6622 95.3218 14.6619 95.6574 15.6615 95.9931C17.5498 95.8812 19.4483 95.8844 21.3263 95.6574 22.2358 95.5475 23.1232 95.2779 23.9921 94.9861 24.3254 94.8743 24.6415 94.6766 24.9918 94.6505 27.6527 94.452 30.3252 94.4639 32.9892 94.3149 34.3246 94.2401 35.655 94.0911 36.9879 93.9792 38.9872 94.0911 40.991 94.1401 42.9859 94.3149 43.5501 94.3642 44.1026 94.5121 44.652 94.6505 44.9928 94.7363 45.3022 94.9509 45.6517 94.9861 49.5835 95.3821 60.4207 95.5915 62.6461 95.6574L65.3119 96.3287C65.7562 96.4406 66.1931 96.5886 66.6448 96.6644L68.6441 97C73.3093 96.8881 77.9777 96.873 82.6396 96.6644 82.9904 96.6486 83.2985 96.4146 83.6392 96.3287 84.1887 96.1903 84.7499 96.1049 85.3054 95.9931 87.8151 94.3078 84.6255 96.2865 87.6379 94.9861 89.358 94.2436 87.8821 94.3328 89.6373 93.9792 90.4074 93.824 91.1951 93.7736 91.9698 93.6436 92.6833 93.5238 94.22 93.1986 94.9688 92.9723 95.6417 92.769 96.3018 92.5248 96.9682 92.301 97.3014 92.1892 97.6756 92.1616 97.9679 91.9654 99.3808 91.0166 98.6093 91.4746 100.3 90.6228 101.871 88.2498 99.8999 91.1875 101.967 88.2733 102.199 87.9451 102.454 87.6272 102.633 87.2664 102.79 86.95 102.809 86.5759 102.966 86.2595 103.145 85.8987 103.47 85.6212 103.633 85.2526 103.918 84.6059 104.077 83.91 104.299 83.2387L104.632 82.2318 104.966 81.2249C104.855 72.4983 104.844 63.7697 104.632 55.045 104.619 54.4977 103.692 51.8672 103.633 51.6886L103.299 50.6817C103.188 49.6747 103.062 48.6694 102.966 47.6609 102.839 46.3197 102.81 44.9686 102.633 43.6332 102.587 43.2826 102.392 42.9676 102.3 42.6263 102.059 41.7362 101.923 40.8164 101.633 39.9412 101.411 39.2699 101.105 38.6212 100.967 37.9273 100.232 34.224 100.659 35.6533 99.9672 33.564 99.776 29.9046 100.111 28.5631 99.3008 25.8443 98.998 24.8276 98.6343 23.8304 98.3011 22.8235 98.19 22.4879 98.1627 22.111 97.9679 21.8166 97.2132 20.6764 96.8993 20.3935 96.635 18.7958 96.4684 17.7892 96.222 15.6547 95.6353 14.7682L93.636 11.7474C93.4138 11.4118 93.2527 11.0257 92.9695 10.7405L91.9698 9.73356C91.1323 7.20268 92.3595 10.2242 90.6369 8.05536 90.4175 7.77913 90.4743 7.35776 90.3037 7.04844 89.9148 6.34323 89.4151 5.70588 88.9708 5.0346L87.6379 3.02076C87.4157 2.68512 87.0982 2.39652 86.9715 2.01384 86.8604 1.6782 86.8577 1.28315 86.6382 1.00692 86.1685 0.415454 85.2975 0.221152 84.6389 0 84.3057 0.111845 83.9442 0.160156 83.6392 0.33564 82.5827 0.943809 82.3381 1.49436 81.3067 2.01384 80.9925 2.17209 80.6569 2.31882 80.307 2.34948 78.0911 2.54357 75.864 2.57328 73.6425 2.68512 70.5483 3.46433 72.8983 2.95881 66.978 3.3564L62.3129 3.69204C61.7575 3.80389 61.1932 3.87757 60.6468 4.02768 59.969 4.21384 59.3139 4.47517 58.6474 4.69896 58.3142 4.81081 57.9972 4.9994 57.6478 5.0346 56.537 5.14645 55.4294 5.2954 54.3155 5.37024 48.0735 5.7894 41.5041 5.87323 35.3217 6.04152 34.0999 6.15337 32.8708 6.20242 31.6563 6.37716 29.669 6.66312 31.7272 7.0144 28.9905 7.04844 20.5495 7.15342 4.8317 6.20929 0 6.04152Z" stroke="#000000" stroke-miterlimit="8" fill="#D9D9D9" fill-rule="evenodd" transform="matrix(1.00033 0 -0 1 120.5 59.5)"/><path d="M14.3286 6.72269 14.3286 6.72269C13.44 7.05882 12.5268 7.33493 11.6628 7.73109 11.2982 7.89826 11.0291 8.23926 10.6632 8.40336 10.0212 8.69111 9.33027 8.85151 8.66383 9.07563 8.3306 9.18764 8.00494 9.3258 7.66416 9.41177 5.6497 9.91972 6.76576 9.6018 4.33191 10.4202L3.33224 10.7563C2.88798 11.4286 2.25259 12.0066 1.99934 12.7731 1.8883 13.1092 1.82323 13.4646 1.66612 13.7815 1.48697 14.1428 1.16235 14.4207 0.999672 14.7899 0.714411 15.4375 0.555408 16.1345 0.333224 16.8067L0 17.8151C0.11104 18.7115 0.214838 19.6088 0.333224 20.5042 0.437022 21.2895 0.629925 22.0658 0.666448 22.8571 0.852319 26.888 0.692896 30.9347 0.999672 34.958 1.03042 35.3608 1.32649 35.7523 1.66612 35.9664 2.26183 36.342 3.08099 36.2456 3.66547 36.6387 6.31835 38.4227 4.87189 37.869 7.99738 38.3193 8.66383 38.5434 9.30131 38.8913 9.99672 38.9916 17.1397 40.021 11.052 39.2384 26.6579 39.6639L36.9879 40C37.3889 39.9633 40.5241 39.9603 41.653 39.3277 42.3532 38.9354 42.8517 38.0029 43.6524 37.9832L57.3145 37.6471C57.6478 37.535 58.04 37.5323 58.3142 37.3109 59.1101 36.6687 58.9114 36.106 59.3139 35.2941 59.493 34.9328 59.7582 34.6218 59.9803 34.2857 59.7484 31.2438 59.8138 30.4204 59.3139 27.8992 58.785 25.2317 59.1642 27.9677 58.3142 24.5378 58.092 23.6414 57.9374 22.7252 57.6478 21.8487 57.1697 20.402 57.3998 21.1841 56.9813 19.4958 56.8703 14.3418 56.9425 9.18034 56.6481 4.03361 56.6076 3.3262 56.2038 2.68908 55.9816 2.01681 55.8706 1.68067 55.8432 1.30325 55.6484 1.0084L54.982 0C54.5549 0.107669 53.1275 0.431205 52.6494 0.672269 52.2912 0.852987 52.0079 1.16382 51.6497 1.34454 51.3356 1.50302 50.9642 1.52219 50.6501 1.68067 49.6289 2.19573 49.7928 2.53546 48.6507 2.68908 47.325 2.86736 45.9849 2.9132 44.652 3.02521 42.0931 3.67059 44.5685 3.0953 40.9866 3.69748 40.4279 3.79138 39.8776 3.93145 39.3204 4.03361 38.6557 4.15557 37.9765 4.20449 37.3211 4.36975L34.3221 5.37815C31.8094 6.22299 34.9066 5.08331 32.3227 6.38655 32.0086 6.54504 31.6372 6.5642 31.3231 6.72269 30.6067 7.08402 30.1985 7.71235 29.3237 7.73109 24.4376 7.83601 16.8279 6.89081 14.3286 6.72269Z" stroke="#000000" stroke-miterlimit="8" fill="#A6A6A6" fill-rule="evenodd" transform="matrix(1.00033 0 -0 1 178.5 149.5)"/><path d="M23.7471 0 23.7471 0C20.1285 0.111773 16.5058 0.131211 12.8913 0.335423 11.3424 0.422898 12.3357 0.902738 10.8558 1.34169 10.0899 1.56883 9.27264 1.56534 8.48111 1.67712 8.14186 1.90077 7.67942 2.0061 7.46337 2.34796 7.08428 2.94761 7.01108 3.68966 6.78489 4.36051L6.1064 6.37305C5.25375 8.9023 6.40397 5.78471 5.08866 8.38559 4.92871 8.70178 4.90937 9.07566 4.74942 9.39186 4.56703 9.75243 4.23655 10.0297 4.07093 10.3981 3.78052 11.0444 3.61864 11.7398 3.39244 12.4107 2.90575 13.8543 3.13996 13.0739 2.71395 14.7586 2.827 22.138 2.74248 29.5229 3.0532 36.8966 3.08301 37.6031 3.50549 38.2383 3.73169 38.9091L4.07093 39.9154 4.41018 40.9217C4.52322 41.9279 4.68745 42.9299 4.74942 43.9405 4.91375 46.6212 4.888 49.3122 5.08866 51.9906 5.11506 52.3433 5.32971 52.6569 5.42791 52.9969 5.55602 53.4402 5.65411 53.8914 5.76715 54.3386 6.10394 58.3348 6.32704 58.1782 5.76715 62.0533 5.71661 62.4033 5.60154 62.7505 5.42791 63.0596 5.03193 63.7644 4.52322 64.4013 4.07093 65.0722L2.71395 67.0847 2.03547 68.091 1.35698 69.0972C1.24393 72.5632 1.20707 76.0325 1.01773 79.4954 0.88898 81.8506 0.756061 80.8659 0.339244 82.5142 0.199379 83.0672 0.113046 83.6322 0 84.1913 0.113046 86.5393 0.0767173 88.8989 0.339244 91.2352 0.418205 91.938 0.422693 92.8555 1.01773 93.2477L2.03547 93.9186 3.0532 96.9374 3.39244 97.9437C3.50549 100.292 3.53423 102.645 3.73169 104.988 3.76139 105.34 3.77998 105.788 4.07093 105.994 4.65294 106.405 5.42791 106.441 6.1064 106.665L7.12413 107C8.48111 106.888 9.88574 107.035 11.1951 106.665 11.5871 106.554 11.466 105.672 11.8736 105.658 18.4296 105.442 24.991 105.882 31.5497 105.994 31.889 106.217 32.16 106.649 32.5675 106.665 38.598 106.903 37.9253 107.023 41.0486 105.994 41.2748 105.658 41.4086 105.239 41.7271 104.988 42.0062 104.767 42.4919 104.902 42.7448 104.652 42.9977 104.402 42.9241 103.962 43.084 103.646 43.6495 102.528 43.7625 102.64 44.7802 101.969 45.5877 99.5738 45.062 100.545 46.1372 98.9499 46.2503 98.5027 46.393 98.0618 46.4765 97.6082 47.1639 93.8698 47.248 89.8647 46.1372 86.2038 45.9318 85.5266 45.6322 84.8774 45.4587 84.1913 45.3457 83.7441 45.2535 83.2912 45.1195 82.8496 44.914 82.1723 44.6672 81.5079 44.441 80.8371L44.1018 79.8308C43.7387 69.0613 44.8359 72.9519 43.084 67.7555L41.7271 63.7305 41.3878 62.7242 41.0486 61.7179C40.3676 48.9256 40.2985 50.3002 41.0486 30.5235 41.0754 29.8169 41.5536 29.1971 41.7271 28.511 41.8401 28.0638 41.9323 27.6109 42.0663 27.1693 42.2718 26.492 42.5714 25.8428 42.7448 25.1568 42.971 24.2623 43.1284 23.348 43.4233 22.4734L44.7802 18.4483 45.1195 17.442C45.2325 17.1066 45.372 16.7788 45.4587 16.4358 45.5718 15.9886 45.6699 15.5373 45.798 15.0941 46.7714 11.7257 45.4159 16.9404 46.4765 12.7461 46.4454 12.2538 46.6453 8.04858 45.798 6.37305 45.3457 5.47855 45.0064 5.14313 44.1018 4.69593 43.782 4.53778 43.4038 4.51866 43.084 4.36051 42.7194 4.18017 42.4389 3.85341 42.0663 3.68966 41.4127 3.40251 40.7093 3.24246 40.0308 3.01881L37.9954 2.34796 36.9776 2.01254C36.6384 1.90077 36.3139 1.72709 35.9599 1.67712 35.1684 1.56534 34.3719 1.48315 33.5852 1.34169 33.1265 1.25919 32.6943 1.01905 32.2282 1.00627 28.611 0.906964 25.1606 0.167659 23.7471 0Z" stroke="#000000" stroke-miterlimit="8" fill="#595959" fill-rule="evenodd" transform="matrix(1.00033 0 -0 1 237.5 81.5)"/></g></svg>