<svg width="301" height="250" xmlns="http://www.w3.org/2000/svg" xmlns:xlink="http://www.w3.org/1999/xlink" overflow="hidden"><defs><clipPath id="clip0"><path d="M0 0 301 0 301 250 0 250Z" fill-rule="evenodd" clip-rule="evenodd"/></clipPath></defs><g clip-path="url(#clip0)"><rect x="0" y="0" width="300.901" height="250" fill="#D3D3C3" transform="scale(1.00033 1)"/><path d="M46.5425 1 46.5425 1C45.4506 1.12095 40.7042 1.66667 39.8524 1.66667 38.3986 1.66667 36.9534 1.44441 35.5039 1.33334 32.9393 1.44441 30.3636 1.40347 27.8103 1.66667 27.1088 1.73901 26.39 1.94352 25.8032 2.33334 25.1642 2.7578 24.6041 3.2567 23.7962 3.33334 21.7952 3.52326 19.7821 3.5556 17.7751 3.66667 16.0088 4.25334 17.065 3.80515 14.7646 5.33334L13.7611 6.00001C12.7009 7.58468 13.4734 6.87329 11.085 7.66668L10.0815 8.00001 9.07799 8.33335C7.294 11 9.63553 7.77775 7.40546 10 7.12121 10.2833 7.0207 10.7168 6.73645 11 6.08799 11.6462 5.54562 11.7289 4.72942 12 3.97613 14.252 5.02084 11.811 3.39141 13.6667L1.38438 16.6667 0.715366 17.6667 0.0463566 18.6667C0.0921864 19.3061-0.405725 23.1729 1.04987 24.3334 1.32517 24.5529 1.71888 24.5556 2.05339 24.6667 2.49936 25.3334 2.62863 26.4134 3.39141 26.6667L7.40546 28C7.73997 28.1111 8.11556 28.1385 8.40898 28.3334 8.74348 28.5556 9.04512 28.8373 9.41249 29 10.057 29.2854 10.8328 29.2769 11.4195 29.6667 14.2954 31.5773 10.6567 29.2867 13.4266 30.6667 16.6071 32.2514 11.2592 30.2801 16.4371 32L17.4406 32.3334C17.7751 32.4445 18.0933 32.6318 18.4441 32.6667L21.7892 33C22.2351 33.1111 22.6851 33.2075 23.1272 33.3334 23.4662 33.4299 23.7801 33.63 24.1307 33.6667 25.9084 33.8532 27.6988 33.889 29.4828 34 32.5009 34.752 31.2866 34.377 33.1623 35.0001 34.5004 34.889 35.8348 34.7202 37.1764 34.6667 41.4115 34.4979 45.6589 34.6207 49.8876 34.3334 50.5912 34.2856 51.2256 33.889 51.8946 33.6667L54.9052 32.6667C55.2397 32.5556 55.5629 32.4023 55.9087 32.3334 56.4662 32.2223 57.0262 32.123 57.5812 32 58.03 31.9006 58.4641 31.7315 58.9192 31.6667 60.0285 31.5088 61.1493 31.4445 62.2643 31.3334 64.6527 30.54 63.6846 31.0565 65.2748 30 67.1921 27.1342 64.6392 30.5068 66.9473 28.6667 67.2613 28.4164 67.3138 27.9305 67.6163 27.6667 68.2214 27.139 69.6234 26.3334 69.6234 26.3334 69.8464 26 70.0081 25.6166 70.2924 25.3334 70.5766 25.0501 71.0447 24.9796 71.2959 24.6667 72.5934 23.0505 70.4444 24.0606 72.6339 23.3334 73.4747 20.8199 72.2427 23.8206 73.9719 21.6667 74.1922 21.3924 74.1487 20.9809 74.3064 20.6667 74.4863 20.3084 74.7524 20 74.9754 19.6667 74.8578 18.4938 74.8147 15.5931 73.9719 14.3334 73.526 13.6667 73.3029 12.7778 72.6339 12.3334L70.6269 11C70.4039 10.6667 70.2421 10.2833 69.9579 10 69.6736 9.71676 69.2191 9.63487 68.9544 9.33335 68.4249 8.73041 68.0623 8.00001 67.6163 7.33334 67.3933 7.00001 67.3287 6.46006 66.9473 6.33334L65.9438 6.00001C65.4501 5.26216 65.044 4.51329 64.2713 4.00001 63.9779 3.80515 63.6023 3.77775 63.2678 3.66667 62.14 1.9809 63.211 3.13838 61.5953 2.33334 61.2357 2.15412 60.9591 1.8294 60.5917 1.66667 59.9473 1.38131 59.1714 1.38982 58.5847 1 58.2502 0.777744 57.9792 0.390027 57.5812 0.333334 55.5912 0.0500788 53.5671 0.111076 51.5601 0 50.4451 0.111076 49.3165 0.127559 48.2151 0.333334 47.5219 0.462888 46.7948 0.610185 46.208 1L46.5425 1Z" stroke="#000000" stroke-miterlimit="8" fill="#595959" fill-rule="evenodd" transform="matrix(1.00033 0 -0 1 60.5 43.5)"/><path d="M9.36743 15.1119 9.36743 15.1119C10.3711 15 11.3823 14.9428 12.3784 14.7761 12.7262 14.7179 13.0294 14.4403 13.382 14.4403 17.9556 14.4403 22.5264 14.6642 27.0986 14.7761 27.4332 14.888 27.7496 15.1119 28.1023 15.1119 29.2229 15.1119 32.165 14.4242 33.1206 14.1045 33.7897 13.8805 34.423 13.4581 35.1279 13.4328 49.9573 12.9012 41.3715 13.161 60.8883 12.7612 65.3329 11.274 60.9939 12.619 72.5976 12.0895 73.9099 12.0297 77.3311 11.7437 78.954 11.4179 79.8558 11.2368 80.7383 10.9702 81.6305 10.7463 82.0765 10.6344 82.5324 10.5564 82.9687 10.4104L84.976 9.73879C85.3105 9.62689 85.6305 9.453 85.9796 9.40297L88.3215 9.06715C93.0917 7.47108 88.1277 9.07477 91.667 8.05969 92.0061 7.96249 92.3285 7.80976 92.6706 7.72387 93.2223 7.58542 93.7918 7.5265 94.3434 7.38805 94.6855 7.30217 95.0049 7.13812 95.347 7.05223 95.8987 6.91378 96.4712 6.8666 97.0198 6.71641 97.7003 6.53015 98.3428 6.21643 99.0271 6.04477 99.4731 5.93286 99.9249 5.84158 100.365 5.70895 102.748 4.9914 101.728 5.14382 103.711 4.70149 104.266 4.57763 104.817 4.41305 105.384 4.36567 107.498 4.18882 109.621 4.14175 111.74 4.02985 112.186 3.91794 112.636 3.82084 113.078 3.69403 113.417 3.59682 113.736 3.42759 114.082 3.35821 116.485 2.87579 119.511 2.82872 121.777 2.68656L124.788 1.6791C125.122 1.5672 125.449 1.42917 125.791 1.34328 126.237 1.23138 126.687 1.13428 127.129 1.00746 127.468 0.910259 127.787 0.741026 128.133 0.671641 130.536 0.189223 133.562 0.142155 135.828 0L149.879 0.33582C150.291 0.353061 152.253 0.652179 152.89 1.00746 156.341 2.93206 153.63 1.92671 155.901 2.68656 156.124 3.02238 156.312 3.38401 156.57 3.69403 158.717 6.27968 156.581 3.20759 158.243 5.70895 158.354 6.71641 158.411 7.73149 158.577 8.73133 158.635 9.08048 158.854 9.38965 158.912 9.73879 159.078 10.7386 159.135 11.7537 159.246 12.7612 159.358 15.3358 159.434 17.9122 159.581 20.4851 159.657 21.8308 159.915 23.167 159.915 24.5149 159.915 34.316 160.17 29.7462 159.246 33.9179 159.123 34.4751 159.05 35.0433 158.912 35.597 158.826 35.9404 158.663 36.261 158.577 36.6044 158.439 37.1581 158.381 37.7298 158.243 38.2835 158.091 38.8919 157.75 39.8881 157.239 40.2985 156.964 40.5196 156.551 40.4759 156.235 40.6343 155.876 40.8148 155.566 41.082 155.232 41.3059 153.336 41.194 151.427 41.2167 149.544 40.9701 148.845 40.8785 148.206 40.5224 147.537 40.2985L145.53 39.6268C145.195 39.5149 144.82 39.4873 144.526 39.291 144.191 39.0671 143.882 38.7999 143.522 38.6194 142.876 38.295 141.419 38.0435 140.846 37.9477 134.837 36.9424 131.879 37.4608 123.784 37.2761 121.665 37.5 119.449 37.2714 117.427 37.9477 115.133 38.7154 117.981 37.8088 114.751 38.6194 110.28 39.7413 118.041 38.0347 112.409 39.291 111.854 39.4149 111.288 39.4884 110.736 39.6268 110.394 39.7127 110.083 39.9187 109.733 39.9626 108.29 40.1437 106.833 40.1866 105.384 40.2985 103.806 40.5624 103.435 40.5693 102.038 40.9701 100.622 41.3763 101.176 41.4141 99.3617 41.6417 98.1395 41.7951 96.9078 41.8604 95.6816 41.9776 81.1294 43.3688 100.71 42.224 60.8883 42.6492 57.5153 43.7778 62.7472 42.0558 58.5464 43.3208 57.8709 43.5242 57.243 43.9483 56.5391 43.9925L51.1863 44.3283 49.179 44.6641C48.6196 44.7662 48.0748 44.9999 47.5062 44.9999L8.69833 44.6641 4.68371 41.9776 3.68006 41.3059 2.67641 40.6343 1.3382 38.6194C1.11514 38.2835 0.796284 37.9948 0.669102 37.6119L0 35.597C0.111482 34.4776 0.128025 33.3445 0.334551 32.2388 0.464578 31.5429 0.780584 30.8955 1.00365 30.2238 1.11514 29.888 1.14264 29.511 1.3382 29.2164 1.56127 28.8806 1.84398 28.5777 2.00731 28.2089 2.2937 27.5619 2.45334 26.8656 2.67641 26.194L3.34551 24.1791 3.68006 23.1716C3.79154 22.8358 3.81905 22.4587 4.01461 22.1642 4.23768 21.8283 4.50385 21.5177 4.68371 21.1567 4.84145 20.8401 4.84704 20.4587 5.01827 20.1492 6.16628 18.0751 5.894 18.4438 7.36012 17.4627 7.58319 17.1268 7.74494 16.7406 8.02923 16.4552 9.2982 15.1814 8.67599 16.2671 10.0365 15.4477 10.307 15.2849 9.47891 15.1679 9.36743 15.1119Z" stroke="#000000" stroke-miterlimit="8" fill="#A6A6A6" fill-rule="evenodd" transform="matrix(1.00033 0 -0 1 41.5 65.5)"/><path d="M56.3651 0.51287 56.3651 0.51287 53.681 1.51085C48.8389 3.2567 47.8468 1.72385 39.2543 1.51085 38.9188 1.39999 38.6014 1.17819 38.2477 1.17819 35.607 1.17819 35.1923 1.35347 33.2151 1.8435 32.8796 2.06531 32.5771 2.34642 32.2086 2.50882L29.1891 3.5068 28.1825 3.83946C27.847 3.95031 27.5228 4.10338 27.176 4.17211 26.6168 4.28296 26.0486 4.35599 25.4985 4.50477 24.8161 4.68928 24.1717 5.00004 23.4855 5.17009 22.5907 5.3919 21.6763 5.54623 20.8014 5.83541 20.4659 5.94626 20.1041 5.99781 19.7949 6.16807 19.0899 6.55636 18.5469 7.24588 17.7818 7.4987 16.3928 7.95782 17.0696 7.6369 15.7688 8.49667 15.1156 10.4395 15.9443 8.6553 14.4268 10.16 14.1417 10.4426 14.0707 10.9082 13.7558 11.1579 13.4796 11.377 13.0655 11.3338 12.7492 11.4906 12.3886 11.6694 12.1034 11.9771 11.7427 12.1559 8.96463 13.5332 12.6142 11.2472 9.72969 13.1539 7.80668 16.0139 10.3672 12.6481 8.05216 14.4845 7.73726 14.7343 7.66624 15.1998 7.38114 15.4825 7.09604 15.7652 6.71013 15.926 6.37462 16.1478 6.15092 16.4805 5.98871 16.8631 5.70361 17.1458 5.41851 17.4285 4.94901 17.4989 4.69709 17.8111 4.47613 18.0849 4.51977 18.4955 4.36158 18.8091 4.1812 19.1667 3.85436 19.4417 3.69057 19.8071 3.40336 20.448 3.41192 21.2195 3.01956 21.803 1.95619 23.3845 2.47609 22.4217 1.67753 24.7969L0.671013 27.7909 0.335506 28.7888 0 29.7868C0.507011 31.7979 0.18968 30.6837 1.00652 33.1134L1.34203 34.1114 1.67753 35.1094C1.78933 35.9965 1.96908 36.8777 2.01304 37.7706 2.14566 40.4666 1.87493 47.0659 2.68405 51.077 2.75337 51.4208 2.90776 51.7423 3.01956 52.0749 3.13136 53.0729 3.30688 54.0659 3.35506 55.0689 3.53069 58.7256 3.40737 62.3965 3.69057 66.0466 3.84792 68.0751 4.33474 67.6567 5.0326 69.0405 5.19079 69.3541 5.19639 69.7319 5.3681 70.0385 5.75972 70.7374 6.45514 71.2759 6.71013 72.0344 6.82193 72.3671 6.82468 72.7586 7.04564 73.0324 7.29756 73.3447 7.71665 73.4759 8.05216 73.6977 9.17048 75.361 8.38766 74.4739 10.7362 76.0263 11.0717 76.2482 11.3602 76.5652 11.7427 76.6917 12.0782 76.8025 12.433 76.8675 12.7492 77.0243 13.1099 77.2032 13.3873 77.5272 13.7558 77.6896 14.4022 77.9744 15.7688 78.355 15.7688 78.355 16.381 79.2653 16.3869 79.5514 17.4463 80.0182 18.0927 80.303 18.8709 80.2945 19.4594 80.6836 21.0544 81.7379 20.0834 81.2224 22.4789 82.0142L24.492 82.6795C24.8275 82.7904 25.1517 82.9434 25.4985 83.0122 26.0577 83.123 26.6228 83.2077 27.176 83.3448 27.5191 83.4299 27.8304 83.6443 28.1825 83.6775 30.1896 83.867 32.2086 83.8993 34.2217 84.0102 36.2299 84.5079 38.9402 85.255 40.9318 85.3408L48.6484 85.6734C49.3385 85.9015 50.2948 86.2459 50.997 86.3388 52.2214 86.5006 53.4537 86.6117 54.6876 86.6714 58.0405 86.8336 61.3977 86.8932 64.7528 87.0041 66.6227 87.3749 66.9581 87.4835 69.1143 87.6694 70.7892 87.8138 72.4694 87.8912 74.1469 88.0021 74.7832 88.2123 75.8636 88.5978 76.4955 88.6674 78.0556 88.8392 79.6268 88.8892 81.1926 89 82.9819 88.8892 84.7777 88.8534 86.5607 88.6674 86.9123 88.6307 87.2911 88.5538 87.5672 88.3347 87.8821 88.0849 87.9531 87.6194 88.2382 87.3367 88.5233 87.0541 88.9092 86.8932 89.2447 86.6714 91.0341 84.0102 88.6855 87.2259 90.9223 85.0081 92.5061 83.4378 90.8373 84.6356 91.9288 83.0122 92.192 82.6207 92.5998 82.3469 92.9353 82.0142 94.0628 78.6603 92.3425 83.8626 93.6063 79.6856L94.6128 76.6917 94.9483 75.6937 95.2838 74.6957C95.3329 74.2583 95.6175 70.9304 95.9549 70.0385 96.0965 69.6641 96.4455 69.3981 96.6259 69.0405 96.7841 68.7269 96.8221 68.3648 96.9614 68.0425 98.2051 65.1651 97.1811 68.0544 97.9679 65.7139 97.8561 62.2765 97.8303 58.8352 97.6324 55.4015 97.6061 54.945 97.3935 54.518 97.2969 54.0709 97.058 52.9652 96.7871 51.8637 96.6259 50.7443 96.2404 48.0686 96.5405 49.1596 95.9549 47.4177 95.8063 43.735 95.8945 40.0732 95.2838 36.44 94.7259 33.1206 95.1722 37.55 94.2773 33.1134 94.1655 32.5589 94.0656 32.0021 93.9418 31.4501 93.4033 29.0474 93.7768 31.2153 93.2708 28.4562 93.1491 27.7925 93.1003 27.1145 92.9353 26.4602 92.3517 24.1457 92.2838 25.0696 91.9288 23.1336 91.7873 22.3622 91.7711 21.5691 91.5933 20.805 91.4342 20.1217 90.9223 18.8091 90.9223 18.8091 90.7185 17.1932 90.6355 16.0085 90.2512 14.4845 90.1654 14.1443 90.0128 13.8237 89.9157 13.4866 89.789 13.0469 89.7619 12.5762 89.5802 12.1559 89.4214 11.7885 89.0896 11.5155 88.9092 11.1579 88.751 10.8444 88.7698 10.4518 88.5737 10.16 88.3105 9.76853 87.9027 9.49465 87.5672 9.16199 86.9767 7.40545 87.4278 8.45581 85.8897 6.16807 85.666 5.83541 85.5542 5.3919 85.2186 5.17009L84.2121 4.50477C83.4293 3.34052 83.2056 2.73063 81.5281 2.17616L79.515 1.51085 78.5085 1.17819C71.2423-1.22335 77.8557 0.845529 56.3651 0.51287Z" stroke="#000000" stroke-miterlimit="8" fill="#D9D9D9" fill-rule="evenodd" transform="matrix(1.00033 0 -0 1 10.5 110.5)"/><path d="M22.8637 0 22.8637 0C21.8696 0.112297 20.87 0.18235 19.8814 0.336996 19.4313 0.407474 19.0083 0.619861 18.556 0.673993 17.1258 0.845092 15.6842 0.898693 14.2484 1.01099L11.2661 2.02198 10.2721 2.35898C9.94072 2.47127 9.61687 2.60979 9.278 2.69597 7.6137 3.11915 8.38464 2.88649 6.9585 3.36996 6.73756 3.70696 6.57736 4.09459 6.29579 4.38095 6.01421 4.66732 5.55052 4.73865 5.30172 5.05495 5.08349 5.33229 5.12659 5.74826 4.97036 6.06594 4.79221 6.42819 4.46941 6.70681 4.30764 7.07693 4.02398 7.72619 3.86587 8.42491 3.64493 9.0989L2.65086 12.1319 2.3195 13.1429C2.20908 13.4799 2.05661 13.8055 1.98814 14.1539L1.65679 15.8388C1.59271 16.8169 1.71857 21.3051 0.662715 22.9158L0 23.9268C1.14853 32.1036-0.711975 18.1999 0.662715 40.1026 0.707174 40.8116 1.10449 41.4506 1.32543 42.1246L1.65679 43.1356C1.7672 44.5958 1.81991 46.062 1.98814 47.5165 2.06381 48.1704 2.4366 49.2217 2.65086 49.8755 2.76128 51.5605 2.80834 53.251 2.98222 54.9304 3.12655 56.3249 3.37797 56.0676 3.64493 57.2894 3.79073 57.9564 3.86587 58.6374 3.97629 59.3114 4.11979 62.2301 4.01125 65.2005 4.639 68.0733 4.71477 68.4201 4.85994 68.7473 4.97036 69.0843 5.08078 73.8022 5.10019 78.5233 5.30172 83.2381 5.32155 83.7009 5.45367 84.1604 5.63307 84.5861 5.78993 84.9584 6.11764 85.2349 6.29579 85.5971 6.45202 85.9148 6.40892 86.3307 6.62715 86.6081 7.09428 87.202 7.9604 87.397 8.61529 87.6191 8.72571 88.4054 8.62948 89.2522 8.94665 89.9781 9.10841 90.3482 9.5768 90.4875 9.94072 90.6521 10.5791 90.9405 11.2661 91.1013 11.9289 91.326 12.2602 91.4383 12.5763 91.619 12.9229 91.663L15.5738 92 22.5323 91.663C23.7499 91.5857 24.9584 91.3788 26.1772 91.326 30.1514 91.1541 34.1298 91.1013 38.1061 90.9891L40.0942 90.3151C40.4256 90.2028 40.7412 90.0173 41.0883 89.9781L44.0705 89.6411C45.8202 89.048 44.8709 89.5997 46.39 87.2821L47.7154 85.2601C47.9364 84.9231 48.0468 84.4738 48.3782 84.2491L49.3722 83.5751C50.3134 80.7035 50.0511 81.9147 49.3722 76.1612 49.2957 75.5131 48.5821 73.9577 48.3782 73.1282 47.9621 71.4356 48.1908 72.2197 47.7154 70.7693 47.605 69.5336 47.5961 68.2842 47.3841 67.0623 47.2627 66.3626 46.9423 65.7143 46.7214 65.0403L45.7273 62.0074 45.3959 60.9964C45.2855 60.6594 45.2583 60.281 45.0646 59.9854 44.2082 58.6788 44.5278 59.3586 44.0705 57.9634 43.8007 45.0691 43.3975 45.6368 44.0705 36.3956 44.1479 35.334 44.4783 31.963 44.7332 30.6667 45.5208 26.662 45.0926 29.2191 45.7273 26.9597 45.8524 26.5144 45.9482 26.061 46.0587 25.6117 45.9482 21.6801 46.0095 17.7396 45.7273 13.8169 45.6764 13.1083 45.234 12.4842 45.0646 11.7949 44.9542 11.3456 44.8641 10.8906 44.7332 10.4469 44.5325 9.76642 44.2399 9.11419 44.0705 8.42491 43.8496 7.52622 43.6959 6.60768 43.4078 5.72894 43.2974 5.39194 43.1724 5.05951 43.0764 4.71795 42.9513 4.27258 42.8702 3.81533 42.7451 3.36996 42.5026 2.50683 42.4594 1.94938 41.4197 1.68498 40.4494 1.43831 39.4308 1.46686 38.4374 1.34799 37.5531 1.24216 36.6762 1.05122 35.7866 1.01099 28.0625 0.661893 25.0174 0.168445 22.8637 0Z" stroke="#000000" stroke-miterlimit="8" fill="#D9D9D9" fill-rule="evenodd" transform="matrix(1.00033 0 -0 1 158.5 104.5)"/><path d="M1.33289 6.33332 1.33289 6.33332C1.55508 5.33333 1.75092 4.32713 1.99934 3.33333 2.18007 2.61039 2.45609 1.87643 2.99901 1.33333 3.28218 1.05008 3.63272 0.829395 3.99868 0.666666 4.64068 0.381312 5.99803 0 5.99803 0 10.2189 0.111076 14.4481 0.0459842 18.6605 0.333333 19.3614 0.381102 19.9934 0.777742 20.6599 0.999999L21.6595 1.33333C21.8817 1.66666 22.0428 2.05008 22.326 2.33333 23.6867 3.69448 23.7144 2.16672 24.6586 4.99999L25.325 6.99999C25.214 7.99999 25.1447 9.00555 24.9918 9.99998 24.9221 10.4528 24.6586 10.8752 24.6586 11.3333 24.6586 12.1711 25.3212 12.6592 25.6582 13.3333 25.8153 13.6475 25.8343 14.0191 25.9915 14.3333 26.1706 14.6916 26.4952 14.9672 26.6579 15.3333 26.9432 15.9755 27.1022 16.6666 27.3243 17.3333L27.6576 18.3333 27.9908 19.3333C28.1018 20.5556 28.1109 21.7914 28.324 23 28.4461 23.692 28.9905 25 28.9905 25 28.8794 25.5556 28.9382 26.1748 28.6572 26.6666 28.4586 27.0144 28.0158 27.1541 27.6576 27.3333 27.1795 27.5723 25.7521 27.8932 25.325 28 23.4367 27.8889 21.5358 27.9113 19.6602 27.6666 18.9636 27.5757 18.3273 27.2222 17.6609 27L15.6615 26.3333C15.2173 26.2222 14.769 26.1258 14.3286 26 13.9909 25.9035 13.6796 25.6878 13.3289 25.6666 10.001 25.4648 6.66447 25.4444 3.33224 25.3333 2.66579 25.2222 1.99242 25.1466 1.33289 25 0.990016 24.9237 0.581646 24.9151 0.333224 24.6666 0.0848015 24.4181 0.11104 24 0 23.6666 0.11104 23 0.169393 22.3223 0.333224 21.6666 0.503561 20.9848 0.999671 19.6666 0.999671 19.6666 1.11071 18.5556 1.16319 17.4369 1.33289 16.3333 1.38632 15.986 1.56967 15.6712 1.66612 15.3333 1.82733 14.7689 2.29216 12.8186 2.33257 12.3333 2.39711 11.5582 1.49956 7.33332 1.33289 6.33332Z" stroke="#000000" stroke-miterlimit="8" fill="#A6A6A6" fill-rule="evenodd" transform="matrix(1.00033 0 -0 1 205.5 166.5)"/><path d="M2.012 20.7716 2.012 20.7716C2.34733 19.8781 2.69164 18.9881 3.01799 18.0914 3.28911 17.3465 3.37582 16.6479 4.02399 16.0812 5.62408 14.6823 6.14847 14.7037 8.04798 14.0711L11.066 13.066 12.072 12.731C12.4073 12.6193 12.7838 12.5918 13.078 12.3959 14.3781 11.53 13.7016 11.8533 15.09 11.3909 15.4253 11.0558 15.7014 10.6486 16.096 10.3858 16.3901 10.1899 16.826 10.2714 17.102 10.0508 17.4167 9.79921 17.4693 9.31086 17.7726 9.04569L20.7906 7.03554 26.8266 3.01523 28.8386 1.67513C29.1739 1.45174 29.4623 1.13244 29.8446 1.00508L31.8566 0.335025 32.8626 0C37.9637 0.268231 37.6414-0.0557145 40.9106 0.670051 42.4309 1.00761 42.5921 1.1184 44.2639 1.67513L45.2699 2.01015C47.0583 4.69036 44.711 1.45174 46.9466 3.68528 47.7437 4.48164 47.9558 5.70535 48.2879 6.70051L48.6232 7.70559 48.9586 8.71066C49.1155 9.96477 49.2747 11.7674 49.6292 13.066 49.8152 13.7474 50.0763 14.4061 50.2999 15.0761 50.4116 15.4112 50.5495 15.7386 50.6352 16.0812L51.3059 18.7614C51.4176 20.995 51.3847 23.2404 51.6412 25.4619 51.7222 26.1635 52.1732 26.7795 52.3119 27.4721L52.6472 29.1472C52.759 38.1929 52.9826 47.2379 52.9826 56.2843 52.9826 58.0745 52.8348 59.8643 52.6472 61.6447 52.6103 61.9959 52.5995 62.4445 52.3119 62.6498 51.7366 63.0603 50.2999 63.3198 50.2999 63.3198 45.8288 63.2082 41.3543 63.1923 36.8866 62.9848 36.5335 62.9684 36.2256 62.7264 35.8806 62.6498 35.2169 62.5023 34.5393 62.4264 33.8686 62.3147 32.5273 62.4264 31.1723 62.4287 29.8446 62.6498 29.1473 62.7658 27.8326 63.3198 27.8326 63.3198 25.9106 66.2002 28.4698 62.8105 26.1559 64.6599 24.0507 66.3425 27.2245 65.2306 24.1439 66 21.1218 65.7843 20.3449 66.0004 18.108 65.33 17.4309 65.1271 16.7666 64.8833 16.096 64.6599L15.09 64.3249C11.8484 64.4365 8.60881 64.6599 5.36532 64.6599 4.68536 64.6599 3.91035 64.7145 3.35333 64.3249 2.35071 63.6237 2.03238 62.3758 1.67666 61.3097 1.56492 59.7462 1.51454 58.1772 1.34133 56.6193 1.29042 56.1617 1.08173 55.7334 1.006 55.2792 0.857818 54.3911 0.782408 53.4924 0.670665 52.599 0.558923 49.9188 0.51393 47.235 0.335333 44.5584 0.290129 43.8806 0 43.2276 0 42.5482 0 40.0889 0.14649 37.6299 0.335333 35.1777 0.370714 34.7186 0.538222 34.2786 0.670665 33.8376L1.67666 30.8223 2.012 29.8173 2.34733 28.8122 2.012 20.7716Z" stroke="#000000" stroke-miterlimit="8" fill="#595959" fill-rule="evenodd" transform="matrix(1.00033 0 -0 1 231.5 129.5)"/></g></svg>