<svg width="301" height="250" xmlns="http://www.w3.org/2000/svg" xmlns:xlink="http://www.w3.org/1999/xlink" overflow="hidden"><defs><clipPath id="clip0"><path d="M0 0 301 0 301 250 0 250Z" fill-rule="evenodd" clip-rule="evenodd"/></clipPath></defs><g clip-path="url(#clip0)"><rect x="0" y="0" width="300.901" height="250" fill="#D3D3C3" transform="scale(1.00033 1)"/><path d="M1.67914 15.2457 1.67914 15.2457C1.45522 16.24 1.33389 17.2623 1.00748 18.2286 0.879814 18.6065 0.51638 18.8666 0.335827 19.2229 0.177486 19.5353 0.111907 19.8857 0 20.2172 0.799321 22.5836 0.278922 21.6244 1.34331 23.2 1.60034 24.4683 1.9423 26.4291 2.35079 27.84 2.44799 28.1759 2.57471 28.5029 2.68662 28.8343 2.89044 34.2652 2.31165 35.4934 3.35827 39.1086 3.45548 39.4445 3.53576 39.7905 3.6941 40.1029 3.87465 40.4592 4.14183 40.7658 4.36575 41.0972 4.47766 43.6382 4.29446 46.2086 4.70158 48.7201 4.76536 49.1134 5.34806 49.2047 5.70906 49.3829 6.47676 49.7617 7.62925 49.8567 8.39568 50.0458 8.73912 50.1305 9.09367 50.2076 9.40316 50.3772 10.1088 50.7641 10.6523 51.451 11.4181 51.7029 12.0898 51.9239 12.844 51.9782 13.4331 52.3658 13.7689 52.5868 14.0717 52.8668 14.4406 53.0286 15.0876 53.3124 15.7839 53.4705 16.4555 53.6915 16.7914 53.8019 17.1684 53.8292 17.463 54.0229 20.3503 55.9225 16.6972 53.645 19.478 55.0172 19.839 55.1954 20.1245 55.5019 20.4855 55.6801 20.802 55.8363 21.1764 55.8552 21.4929 56.0115 21.8539 56.1897 22.1394 56.4962 22.5004 56.6743 22.817 56.8306 23.1913 56.8495 23.5079 57.0058 25.8271 58.1502 23.063 57.3103 25.8587 58.0001L56.419 57.6686C57.1266 57.647 58.4339 57.0058 58.4339 57.0058 58.6578 56.6743 58.7904 56.2603 59.1056 56.0115 59.382 55.7932 59.7965 55.8363 60.113 55.6801 63.3062 54.1044 57.9371 56.0644 63.1355 54.3543 63.4713 54.2439 63.7958 54.0914 64.143 54.0229 65.1017 53.8337 66.2169 53.6409 67.1654 53.3601 67.8435 53.1593 68.4935 52.8666 69.1804 52.6972 69.9313 52.5119 72.0481 52.0257 72.5387 51.7029L73.5461 51.0401C73.9939 50.3772 74.6342 49.8072 74.8894 49.0515 75.7335 46.5524 74.5949 49.6328 75.8969 47.0629 76.0553 46.7505 76.0116 46.3414 76.2327 46.0686 76.4849 45.7575 76.9044 45.6268 77.2402 45.4058 78.8075 43.0858 77.9119 43.8591 79.591 42.7543L81.606 39.7715C81.8299 39.44 82.15 39.1551 82.2776 38.7772L84.2926 32.8115 85.3001 29.8286 85.6359 28.8343 85.9717 27.84C85.8598 25.9619 86.0286 24.0467 85.6359 22.2057 85.5528 21.816 84.9138 21.8245 84.6284 21.5429 84.3431 21.2612 84.1373 20.9049 83.9568 20.5486 83.7984 20.2362 83.7182 19.8902 83.6209 19.5543 83.4941 19.1163 83.5412 18.6076 83.2851 18.2286 82.9131 17.6778 81.8448 17.4233 81.2702 17.2343 80.4261 14.7352 81.5647 17.8156 80.2627 15.2457 80.1043 14.9333 80.1772 14.4985 79.9268 14.2514 79.6765 14.0044 79.2552 14.0305 78.9194 13.92 77.6783 12.0829 78.9578 13.536 77.2402 12.5943 76.5346 12.2074 75.8969 11.7105 75.2253 11.2686L73.2103 9.94287 71.1953 8.61715C70.8595 8.39616 70.5708 8.08029 70.1879 7.95429 69.852 7.84385 69.497 7.77913 69.1804 7.62287 68.8194 7.44468 68.5417 7.12181 68.1729 6.96001 67.5259 6.67628 66.8296 6.51814 66.1579 6.29715L64.143 5.63429C63.8071 5.52385 63.4301 5.49661 63.1355 5.30286 62.7997 5.08188 62.4968 4.80181 62.128 4.64001 61.481 4.35628 60.7847 4.19813 60.113 3.97715L59.1056 3.64572C58.7697 3.53528 58.4415 3.39905 58.0981 3.31429 57.2025 3.0933 56.2872 2.93954 55.4115 2.65143 55.0756 2.54099 54.7511 2.38848 54.404 2.32 48.3875 1.1325 54.6921 2.63964 50.7099 1.65714 47.8226-0.242491 51.4757 2.03503 48.6949 0.662858 48.3339 0.484669 48.0233 0.220987 47.6875 0L41.6426 0.331429C38.2853 0.469533 34.9221 0.468176 31.5677 0.662858 31.107 0.689581 30.6666 0.863385 30.2244 0.994287 29.5463 1.19502 28.8811 1.43616 28.2095 1.65714 27.8737 1.76759 27.5454 1.90381 27.202 1.98857 24.7672 2.58932 26.318 2.2747 22.5004 2.65143 21.3785 3.02054 21.4147 3.03683 20.1496 3.31429 19.5924 3.43653 19.0242 3.50908 18.4705 3.64572 18.127 3.73048 17.8045 3.88518 17.463 3.97715 16.5724 4.21682 15.6521 4.3519 14.7764 4.64001 14.1047 4.86099 13.3505 4.91527 12.7614 5.30286L10.7465 6.62858C9.14994 7.67903 10.1219 7.16544 7.72402 7.95429 7.3882 8.06474 7.01112 8.09198 6.71654 8.28572L4.70158 9.61144 4.02993 11.6C3.91802 11.9314 3.98867 12.4006 3.6941 12.5943 2.55493 13.3438 2.01496 14.8039 1.67914 15.2457Z" stroke="#000000" stroke-miterlimit="8" fill="#D9D9D9" fill-rule="evenodd" transform="matrix(1.00033 0 -0 1 194.5 144.5)"/><path d="M5.96254 22.6667 5.96254 22.6667C4.52715 18.3333 5.96254 19.1111 3.64377 18.3333L2.98127 16.3333C2.87089 16 2.94058 15.5282 2.65002 15.3333L1.65626 14.6667C0.137613 12.3743 0.583004 13.4268 0 11.6667 0.110383 10.8889 0.0510181 10.0667 0.331252 9.33333 0.61712 8.58551 1.40451 8.09343 1.65626 7.33333 1.76664 7 1.74056 6.58183 1.98751 6.33333 2.55049 5.76682 3.21967 5.25333 3.97503 5 4.63753 4.77774 5.38152 4.72315 5.96254 4.33333 6.62504 3.88892 7.19469 3.25333 7.95005 3L9.93757 2.33333C10.2688 2.22226 10.5869 2.05774 10.9313 2 11.5938 1.88892 12.2673 1.83055 12.9188 1.66667 13.5964 1.49627 14.9064 1 14.9064 1 22.0376 1.21743 25.128 1.63811 31.469 1 31.8164 0.965039 32.127 0.763149 32.4627 0.666666 35.3743-0.170394 32.3988 0.799265 34.7815 0 35.8856 0.111076 37.0127 0.0822047 38.094 0.333333 38.4819 0.423412 38.7317 0.820787 39.0878 1 39.4 1.15716 39.7364 1.27989 40.0815 1.33333 41.1782 1.5031 42.2941 1.51905 43.394 1.66667 43.9614 1.74278 45.7456 2.1432 46.3753 2.33333 47.0442 2.53522 47.7003 2.77774 48.3628 3 48.6941 3.11107 49.066 3.13848 49.3566 3.33333L51.3441 4.66666 52.3378 5.33333C53.8837 7.66666 53.0004 6.88892 54.6566 8L55.6504 11 55.9816 12C55.8869 13.1434 55.9161 16.5988 54.9879 18 54.5462 18.6667 54.4182 19.7467 53.6629 20L50.6816 21C50.3503 21.1111 49.9784 21.1385 49.6878 21.3333 47.1193 23.0565 48.4557 22.4133 45.7128 23.3333 45.3815 23.4444 45.0678 23.65 44.719 23.6667L37.7628 24C37.1081 24.2196 36.2422 24.4126 35.7752 25 35.5571 25.2743 35.7281 25.7958 35.444 26 34.8757 26.4085 34.119 26.4444 33.4565 26.6667L32.4627 27C30.2543 26.8889 28.0423 26.8373 25.8377 26.6667 21.8076 26.3547 25.3702 26.5059 22.8564 26 22.0908 25.8459 21.3105 25.7777 20.5376 25.6667 19.1862 25.2133 19.0331 25.0957 17.2251 25 6.23067 24.4177 7.83967 23.0555 5.96254 22.6667Z" stroke="#000000" stroke-miterlimit="8" fill="#D9D9D9" fill-rule="evenodd" transform="matrix(1.00033 0 -0 1 166.5 39.5)"/><path d="M43.748 1.0104 43.748 1.0104C39.1488 0.898167 34.5466 0.878012 29.9506 0.673599 29.4885 0.653019 29.067 0.336799 28.6045 0.336799 23.8918 0.336799 19.1818 0.561368 14.4705 0.673599 13.4609 0.561368 12.4437 0.503979 11.4418 0.336799 11.0919 0.278456 10.787 0 10.4322 0 9.19318 0 7.96442 0.224568 6.73046 0.336799 6.39394 0.44903 6.06197 0.576112 5.72089 0.673599 5.27615 0.800787 4.73591 0.721228 4.3748 1.0104 4.09784 1.23221 4.19695 1.7033 4.03828 2.0208 3.85735 2.38284 3.54616 2.66915 3.36523 3.03119 3.20656 3.34869 3.27959 3.7905 3.02871 4.04159 2.45678 4.61399 1.00957 5.38879 1.00957 5.38879 0.669231 5.89966 0 6.71233 0 7.40958 0 10.2425 0.266675 9.75424 0.673046 11.788 0.806914 12.4576 0.89743 13.1352 1.00957 13.8088 1.12171 15.3805 1.17227 16.9578 1.34609 18.524 1.39718 18.984 1.60662 19.4146 1.68262 19.8712 1.83132 20.7639 1.89121 21.6695 2.01914 22.5656 2.11559 23.2416 2.20759 23.9198 2.35566 24.5863 2.43261 24.9329 2.4413 25.3457 2.69218 25.5967 2.94307 25.8478 3.36523 25.8213 3.70175 25.9335 5.27806 30.6662 3.58368 24.9883 4.71132 34.0167 4.7993 34.7213 5.38437 36.0375 5.38437 36.0375 5.49651 37.0479 5.47457 38.0825 5.72089 39.0687 5.81893 39.4614 6.38811 39.6744 6.39394 40.0791 6.5012 47.4888 6.36564 54.9039 6.05742 62.3079L5.04785 65.3391 4.71132 66.3495C4.32424 71.7728 4.87264 69.5698 3.70175 73.0854L3.02871 75.1062 2.69218 76.1166C2.58005 77.2393 2.50469 78.3662 2.35566 79.4846 2.28009 80.052 2.14771 80.6109 2.01914 81.1686 1.44986 83.6377 1.56581 83.2032 1.00957 84.8734 0.89743 85.996 0.832457 87.1245 0.673046 88.2414 0.567373 88.9815 0.239753 89.8793 0 90.599 0.112139 91.6094 0.16948 92.6274 0.336523 93.6302 0.394818 93.9804 0.422164 94.3895 0.673046 94.6406 0.923928 94.8917 1.36538 94.8186 1.68262 94.9774 2.04436 95.1585 2.33044 95.4699 2.69218 95.651 3.00942 95.8098 3.38452 95.829 3.70175 95.9878 5.90373 97.0897 3.48808 96.182 5.72089 97.6718 6.01608 97.8687 6.41323 97.8498 6.73046 98.0086 7.09221 98.1897 7.37044 98.5178 7.74003 98.6822 8.38838 98.9705 9.08612 99.1312 9.75917 99.3558 10.0957 99.468 10.4736 99.4957 10.7687 99.6926 11.4418 100.142 11.9811 100.982 12.7879 101.04L17.4992 101.377C17.8357 101.601 18.2228 101.764 18.5088 102.05 18.7947 102.336 18.8388 102.846 19.1818 103.061 21.2268 104.34 27.1578 104.032 27.9314 104.071 39.7416 108.011 29.2412 104.752 60.9107 104.408 61.2472 104.296 61.5792 104.168 61.9203 104.071 64.8782 103.225 61.8553 104.205 64.2759 103.397 65.1217 100.858 63.9807 103.988 65.2855 101.377 65.4442 101.059 65.4633 100.684 65.622 100.366 66.4445 98.7199 66.2087 100.039 66.6316 98.3454 66.7703 97.7901 66.8872 97.2281 66.9681 96.6614 67.2239 94.8693 67.0692 92.9899 67.6411 91.2726L67.9777 90.2622C67.8655 84.6489 67.8527 79.0327 67.6411 73.4222 67.6278 73.0675 67.3844 72.7578 67.3046 72.4118 67.0474 71.2962 66.9933 70.13 66.6316 69.0439 66.2402 67.8685 66.1616 67.772 65.9585 66.3495 65.7028 64.5574 65.6402 62.7358 65.2855 60.9607 65.1733 60.3993 65.043 59.8413 64.949 59.2767 64.7426 58.0375 64.6158 56.4824 64.2759 55.2351 63.2341 51.4119 64.1338 54.6137 62.9298 52.2039 62.6885 51.7207 62.3646 50.2779 62.2568 49.8463 61.4907 42.9453 62.3919 51.4693 61.5837 41.7631 61.4528 40.1912 61.295 38.5867 60.9107 37.0479 60.8246 36.7035 60.6863 36.3743 60.5742 36.0375 61.6262 31.826 60.2816 37.0621 61.2472 33.6799 62.2644 30.1169 60.6574 35.1142 62.2568 30.3119 62.3689 29.9751 62.3966 29.597 62.5933 29.3015 64.5221 26.4059 62.2096 30.0695 63.6029 27.2807 64.9076 24.6692 63.7666 27.7996 64.6124 25.2599 64.7255 24.0144 65.0181 20.3326 65.2855 18.8608 65.349 18.5114 65.5099 18.1872 65.622 17.8504 65.5099 16.3909 65.5136 14.9178 65.2855 13.472 65.1748 12.7706 64.8368 12.1248 64.6124 11.4512L64.2759 10.4408 63.9394 9.43038C63.8273 9.09358 63.9394 8.53221 63.6029 8.41998 59.9209 7.1917 65.4979 9.15065 61.5837 7.40958 60.9354 7.12126 60.1549 7.12986 59.5646 6.73599 59.2281 6.51142 58.9168 6.24346 58.555 6.06239 57.9896 5.77937 56.7384 5.55066 56.1994 5.38879 55.5198 5.1848 54.8533 4.93976 54.1802 4.71519L51.1515 3.70479C50.815 3.59256 50.4371 3.56487 50.1419 3.36799 49.8054 3.14342 49.5041 2.85383 49.1324 2.69439 47.9028 2.16697 44.6454 1.29108 43.748 1.0104Z" stroke="#000000" stroke-miterlimit="8" fill="#A6A6A6" fill-rule="evenodd" transform="matrix(1.00033 0 -0 1 131.5 100.5)"/><path d="M11.9961 0.333334 11.9961 0.333334C11.1074 0.666667 10.1791 0.908767 9.33027 1.33333 8.61386 1.69165 7.99737 2.22226 7.33093 2.66667 6.9977 2.88893 6.71118 3.20662 6.33125 3.33334 3.81859 4.17113 6.91573 3.04095 4.33191 4.33334 1.57271 5.71339 5.19745 3.42278 2.33257 5.33334L0.999672 7.33334C0.777488 7.66667 0.459901 7.95329 0.333224 8.33334L0 9.33334C0.105582 10.2839 0.108206 12.2165 0.666448 13.3333 0.845602 13.6917 0.99327 14.1211 1.3329 14.3333 1.92861 14.7058 2.65068 14.8296 3.33224 15 3.7765 15.1111 4.21804 15.2339 4.66513 15.3333 5.21802 15.4563 5.78487 15.5176 6.33125 15.6667L9.33027 16.6667 12.3293 17.6667C12.6625 17.7778 13.0367 17.8052 13.329 18 16.1938 19.9106 12.5691 17.62 15.3283 19 15.6865 19.1792 15.962 19.504 16.328 19.6667 16.97 19.952 17.7428 19.9435 18.3273 20.3333 19.9115 21.3898 18.9471 20.8733 21.3263 21.6667 21.6596 21.7778 21.9762 21.9682 22.326 22L25.9915 22.3334C29.6373 23.549 24.115 21.6102 27.9908 23.3334 28.6328 23.6187 29.3237 23.7778 29.9902 24L32.9892 25 34.9885 25.6667 35.9882 26C38.8762 25.8889 41.7688 25.8656 44.652 25.6667 45.0024 25.6425 45.3094 25.4124 45.6517 25.3334 46.7695 25.0753 48.9619 24.74 50.3168 24.3334 50.9897 24.1315 52.3162 23.6667 52.3162 23.6667 53.4396 21.9809 52.3727 23.1384 53.9823 22.3334 54.3405 22.1541 54.616 21.8294 54.9819 21.6667 55.6239 21.3813 56.3148 21.2223 56.9813 21L58.9806 20.3333C59.3139 20.2223 59.688 20.1949 59.9803 20L60.98 19.3333 61.6464 17.3333 61.9796 16.3333C61.8686 14.8889 61.9133 13.4239 61.6464 12 61.5726 11.6062 61.1591 11.3583 60.98 11 60.8229 10.6858 60.8415 10.2924 60.6468 10 60.3853 9.60778 59.9488 9.36211 59.6471 9.00001 58.4877 7.6082 59.6221 8.21387 57.981 7.66667 57.6477 7.33334 57.2427 7.0589 56.9813 6.66667 56.7865 6.37428 56.8675 5.941 56.6481 5.66667 56.3979 5.35381 56.0144 5.16273 55.6484 5 55.0064 4.71465 54.3155 4.55559 53.649 4.33334L51.6497 3.66667 48.6507 2.66667C48.3175 2.55559 47.9433 2.52819 47.651 2.33334 47.3178 2.11108 47.0095 1.84588 46.6513 1.66667 46.3372 1.5095 45.9906 1.42583 45.6517 1.33333 44.768 1.09228 43.9009 0.708242 42.9859 0.666667L35.655 0.333334 24.3253 0C17.1082 0.424672 14.0509 0.277795 11.9961 0.333334Z" stroke="#000000" stroke-miterlimit="8" fill="#D9D9D9" fill-rule="evenodd" transform="matrix(1.00033 0 -0 1 61.5 33.5)"/><path d="M2.3721 4.44304 2.3721 4.44304C0.00469617 10.8102 2.16248 4.69202 1.01662 8.5443 0.811371 9.23441 0.564822 9.91139 0.338872 10.5949L0 11.6202C0.112922 12.8734 0.122101 14.1405 0.338872 15.3797 0.463 16.0893 0.422229 17.0307 1.01662 17.4304L2.03323 18.1139C2.84577 20.5723 1.86001 17.5023 2.71097 20.5063 2.80906 20.8527 2.82667 21.2504 3.04985 21.5316 3.30429 21.8524 3.69429 22.0483 4.06646 22.2152 4.71934 22.5078 5.42195 22.6708 6.09969 22.8987L7.1163 23.2405C7.34226 23.5823 7.50609 23.9754 7.79405 24.2658 8.08201 24.5562 8.43849 24.7825 8.81066 24.9494 12.3227 26.5237 15.517 25.7971 19.6546 25.9747L26.7709 26.3164C27.3357 26.4303 27.903 26.5322 28.4652 26.6582 28.9199 26.7602 29.3549 27 29.8207 27 31.2935 27 32.7576 26.7721 34.226 26.6582 34.9038 26.4303 35.863 26.5741 36.2593 25.9747 37.8407 23.5823 36.937 24.3797 38.6314 23.2405 38.8573 22.8987 39.1437 22.5905 39.3091 22.2152 39.5992 21.5567 39.9869 20.1645 39.9869 20.1645 39.8739 19.1392 39.8035 18.1082 39.648 17.0886 39.5771 16.6243 39.3435 16.19 39.3091 15.7215 39.117 13.106 39.2378 10.4695 38.9702 7.86076 38.8967 7.14406 38.5185 6.49367 38.2925 5.81012 37.9016 4.62754 38.1632 4.71968 36.937 4.10126 36.6176 3.94012 36.2327 3.93441 35.9204 3.75949 31.6911 1.38969 36.3327 2.55689 28.8041 2.05063L24.7376 0.683544 23.721 0.341772 22.7044 0C19.0897 0.113888 15.471 0.133695 11.8605 0.341772 11.5039 0.362332 11.1885 0.588709 10.8439 0.683544 9.94522 0.930696 9.01655 1.06999 8.13292 1.36709L6.09969 2.05063C5.76082 2.16452 5.33571 2.13761 5.08308 2.3924L2.3721 4.44304Z" stroke="#000000" stroke-miterlimit="8" fill="#D9D9D9" fill-rule="evenodd" transform="matrix(1.00033 0 -0 1 125.5 40.5)"/><path d="M63.5085 0 63.5085 0C57.2691 0.11026 51.0234 0.0323067 44.7902 0.330883 44.0864 0.364544 43.4882 0.951692 42.7847 0.992648L37.1024 1.32353C36.5452 1.43379 35.9822 1.518 35.4311 1.65441 35.0892 1.73904 34.7723 1.90964 34.4283 1.9853 33.5935 2.16892 30.8294 2.54149 30.083 2.64706 25.5904 4.12952 31.506 2.28241 18.7183 3.30883 18.0159 3.36521 17.3813 3.74997 16.7128 3.97059L14.7072 4.63236 13.7045 4.96324C13.3702 5.0735 12.9949 5.1007 12.7017 5.29412 12.3675 5.51475 12.066 5.79436 11.6989 5.95589L8.69064 6.94854 4.67958 8.27207C4.34532 8.38233 3.97001 8.40953 3.67681 8.60295L1.67128 9.92648C0.0793791 12.2902 0.529124 11.1402 0 13.2353 0.111383 17.5368 0.045164 21.8464 0.334256 26.1397 0.381104 26.8358 0.611872 27.5447 1.00277 28.125 1.44841 28.7868 2.08575 29.3558 2.33979 30.1103 2.80111 31.4802 2.38085 30.9096 3.67681 31.7647 3.89968 32.0956 4.0316 32.5089 4.34532 32.7574 4.62041 32.9753 5.03299 32.9323 5.34809 33.0883 5.7074 33.2662 5.99154 33.5721 6.35085 33.75 6.66595 33.906 7.04558 33.9116 7.35362 34.0809 8.05593 34.4671 8.59695 35.153 9.35915 35.4045 10.0277 35.6251 10.7784 35.6793 11.3647 36.0662 11.6989 36.2868 12.0004 36.5665 12.3675 36.728 13.0114 37.0112 13.7045 37.1691 14.373 37.3897L15.3758 37.7206 16.3785 38.0515 17.3813 38.3824C18.9849 40.7636 16.714 37.8317 20.0553 40.0368 20.3896 40.2574 20.6988 40.5207 21.0581 40.6986 21.3732 40.8546 21.7153 40.9611 22.0609 41.0295 24.7783 41.5674 28.2446 41.5606 30.7515 41.6912 31.5314 41.8015 32.3161 41.8826 33.0913 42.0221 33.5433 42.1035 33.9689 42.353 34.4283 42.353 34.7264 42.353 37.6704 41.7988 38.1051 41.6912 38.447 41.6066 38.7573 41.395 39.1079 41.3603 40.9958 41.1735 42.8961 41.1397 44.7902 41.0295L60.8345 41.3603C61.6219 41.3887 62.3871 41.6581 63.1743 41.6912 67.6284 41.8788 72.0887 41.8799 76.5445 42.0221 78.9969 42.1004 81.447 42.2427 83.8981 42.353 84.678 42.4632 85.462 42.5483 86.2379 42.6839 87.3569 42.8794 88.445 43.3055 89.5805 43.3456L98.9396 43.6765C104.218 45.4184 98.9989 43.8036 113.313 44.3383 114.778 44.393 119.69 44.8521 121.335 45.0001 124.343 44.8898 127.356 44.861 130.36 44.6692 130.818 44.6399 131.244 44.413 131.697 44.3383 132.583 44.1921 133.479 44.1177 134.371 44.0074 135.004 43.7985 136.871 43.1259 137.713 43.0148 138.933 42.8537 140.164 42.7941 141.39 42.6839 142.059 42.4632 142.897 42.5154 143.396 42.0221 144.051 41.3728 144.394 40.7377 145.401 40.6986 150.746 40.4911 156.097 40.478 161.445 40.3677 165.929 39.7337 161.872 40.351 165.456 39.7059 166.123 39.5859 166.8 39.5206 167.462 39.375 167.806 39.2994 168.113 39.0573 168.465 39.0442 174.033 38.8362 179.607 38.8235 185.178 38.7133 185.512 38.603 185.856 38.5198 186.18 38.3824 186.638 38.1881 187.03 37.824 187.517 37.7206 188.612 37.4883 189.742 37.4437 190.86 37.3897 194.312 37.2231 197.768 37.1691 201.222 37.0589 201.333 36.728 201.336 36.3385 201.556 36.0662 201.807 35.7557 202.2 35.5823 202.559 35.4045 203.763 34.8082 205.946 34.8376 206.904 34.7427L208.91 34.0809 209.912 33.75C211.063 32.8957 212.455 31.9597 213.255 30.7721 213.478 30.4412 213.666 30.0849 213.924 29.7794 214.226 29.42 214.624 29.1462 214.926 28.7868 215.646 27.9316 215.594 27.7963 215.929 26.8015 215.893 26.4033 215.675 22.6014 215.261 21.5074 215.119 21.135 214.906 20.7632 214.592 20.5147 214.317 20.2968 213.924 20.2941 213.589 20.1838 211.033 18.2859 213.485 19.9828 210.915 18.5294 210.566 18.3322 210.282 18.0243 209.912 17.8677 209.49 17.6885 209.021 17.647 208.575 17.5368 206.3 16.1852 207.52 16.7475 204.899 15.8824L203.896 15.5515C203.562 15.4412 203.186 15.414 202.893 15.2206 202.559 15 202.257 14.7204 201.89 14.5588 201.246 14.2756 199.885 13.8971 199.885 13.8971 199.662 13.5662 199.557 13.1151 199.216 12.9044 198.619 12.5347 197.879 12.4633 197.211 12.2427L196.208 11.9118C193.616 11.0566 195.557 11.6041 190.191 11.25 189.857 11.1398 189.537 10.9722 189.189 10.9191 187.375 10.643 185.617 10.6969 183.841 10.2574 183.157 10.0882 182.519 9.76474 181.835 9.5956 181.389 9.48534 180.938 9.3954 180.498 9.26472 179.823 9.06431 179.197 8.62088 178.492 8.60295L165.456 8.27207C156.971 7.2221 161.835 7.6967 144.398 8.27207 143.831 8.29083 143.275 8.45497 142.727 8.60295 142.047 8.78647 141.426 9.23981 140.722 9.26472L131.362 9.5956C131.028 9.70586 130.705 9.85812 130.36 9.92648 125.785 10.8321 121.508 10.0678 116.655 9.92648 115.875 9.81622 115.1 9.66959 114.315 9.5956 111.537 9.33371 110.061 9.46856 107.63 8.93383 107.286 8.85817 106.969 8.68757 106.628 8.60295 106.076 8.46653 105.507 8.40849 104.956 8.27207 104.614 8.18745 104.292 8.03696 103.953 7.94119 103.512 7.81623 103.058 7.73526 102.616 7.6103 102.278 7.51453 101.954 7.37123 101.614 7.27942 100.727 7.04014 99.8112 6.90529 98.9396 6.61765 98.6054 6.5074 98.2787 6.37139 97.9369 6.28677 97.3857 6.15035 96.825 6.05364 96.2656 5.95589 94.9308 5.72266 93.5404 5.71838 92.2545 5.29412 91.1378 4.92562 91.1739 4.90936 89.9147 4.63236 89.3601 4.51032 88.7946 4.43789 88.2435 4.30148 87.9016 4.21685 87.5795 4.06637 87.2407 3.97059 83.7045 2.97044 88.6641 4.55055 83.8981 2.97794 83.5639 2.86769 83.2429 2.70438 82.8954 2.64706 82.0014 2.4996 80.1529 2.21655 79.2186 1.9853 78.8767 1.90067 78.5576 1.73904 78.2158 1.65441 77.7477 1.53863 74.8767 1.00244 74.539 0.992648 71.4206 0.901877 65.3469 0.165389 63.5085 0Z" stroke="#000000" stroke-miterlimit="8" fill="#595959" fill-rule="evenodd" transform="matrix(1.00033 0 -0 1 19.5 57.5)"/><path d="M61.9797 0.333334 61.9797 0.333334C59.8693 0.44441 57.7505 0.449134 55.6484 0.666667 53.516 0.88735 52.912 1.1347 51.3165 1.66667 49.095 1.44441 46.8179 1.54163 44.652 1 40.4852-0.0420998 45.6658 1.28976 42.3195 0.333334 41.8791 0.207454 41.4308 0.111076 40.9866 0 36.6546 0.111076 32.3193 0.127139 27.9908 0.333334 27.64 0.350026 27.3289 0.570184 26.9911 0.666667 26.5508 0.792546 26.1158 0.981313 25.6582 1 20.6628 1.20399 15.6615 1.22226 10.6632 1.33333 9.99672 1.55559 9.05351 1.41533 8.66382 2 7.77519 3.33334 8.3306 2.77774 6.9977 3.66667 6.88666 4 6.9129 4.41817 6.66448 4.66667 6.41606 4.91517 5.97893 4.84284 5.66481 5 5.30661 5.17922 4.99836 5.44441 4.66514 5.66667 2.75521 8.5325 5.29831 5.1599 2.99902 7 2.27894 7.57628 1.86973 9.38888 1.66612 10L0.999672 12 0.666448 13C0.378039 15.0194 0 17.3405 0 19.3333 0 22.3354 0.0615021 25.3436 0.333224 28.3334 0.396825 29.0332 0.999672 30.3334 0.999672 30.3334 1.11071 34.2223 1.24547 38.1106 1.3329 42 1.7504 60.5847-0.235513 54.2933 1.99934 61 1.8883 61.7778 1.66612 62.5477 1.66612 63.3334 1.66612 64.3386 3.14196 65.7624 3.33224 66.3334L3.99869 68.3334C3.88765 69.6667 3.88534 71.0136 3.66546 72.3334 3.55002 73.0265 2.99902 74.3334 2.99902 74.3334 3.17786 75.2279 3.51549 77.275 3.99869 78.0001L5.33158 80.0001C5.55377 80.3334 5.87136 80.62 5.99803 81.0001 6.83555 83.5135 5.70574 80.4154 6.9977 83.0001 7.15482 83.3143 7.11147 83.7257 7.33093 84.0001 7.58113 84.3129 7.99738 84.4445 8.3306 84.6667 8.55278 85.3334 8.60736 86.0821 8.99705 86.6667L10.9964 89.6667 11.6628 90.6667C11.885 91.0001 11.9494 91.54 12.3293 91.6667 14.842 92.5045 11.7448 91.3743 14.3286 92.6667 14.6428 92.8239 14.9951 92.889 15.3283 93.0001 16.1214 95.3801 15.4103 94.6103 16.9944 95.6667 17.2166 96.0001 17.3777 96.3835 17.6609 96.6667 18.6158 97.622 18.5762 97.1245 19.6602 97.6667 20.0184 97.846 20.2849 98.1927 20.6599 98.3334 21.1902 98.5324 21.7599 98.6493 22.326 98.6667 28.9883 98.8718 35.655 98.889 42.3195 99.0001 42.6527 99.2223 42.9609 99.4875 43.3191 99.6667 43.8518 99.9332 45.1535 100.191 45.6517 100.333 48.998 101.29 43.8174 99.958 47.9843 101 48.9839 100.889 49.9912 100.832 50.9833 100.667 52.4416 100.424 51.6009 100.281 52.9826 99.6667 53.6246 99.3814 54.3155 99.2223 54.982 99.0001 55.3152 98.889 55.6893 98.8616 55.9816 98.6667 56.3149 98.4445 56.6153 98.1628 56.9813 98.0001 57.6233 97.7147 58.3962 97.7232 58.9806 97.3334L60.98 96.0001C61.2022 95.6667 61.4673 95.3584 61.6464 95.0001 61.8036 94.6858 61.8091 94.3073 61.9797 94.0001 62.3686 93.2997 62.8683 92.6667 63.3126 92.0001 63.5347 91.6667 63.8523 91.3801 63.979 91.0001 64.8165 88.4866 63.6867 91.5847 64.9787 89.0001 65.1358 88.6858 65.1548 88.3143 65.3119 88.0001 65.4911 87.6417 65.8157 87.3661 65.9784 87.0001 66.2636 86.3579 66.4226 85.6667 66.6448 85.0001L67.3112 83.0001C67.4223 82.6667 67.4497 82.2924 67.6445 82.0001 68.5057 80.7077 68.1842 81.3801 68.6441 80.0001 68.7552 78.6667 68.7151 77.3121 68.9774 76.0001 69.0559 75.6072 69.4811 75.3661 69.6438 75.0001 69.9291 74.3578 70.0881 73.6667 70.3103 73L70.6435 72.0001 70.9767 71.0001C71.0922 67.1903 70.627 62.3992 71.6432 58.3334 71.7284 57.9925 71.8653 57.6667 71.9764 57.3334 71.8653 49.3334 71.8536 41.3314 71.6432 33.3334 71.627 32.7189 71.1462 31.6219 70.9767 31 70.7357 30.116 70.3103 28.3334 70.3103 28.3334 70.1291 22.3531 70.8457 20.2081 69.6438 16 69.5474 15.6622 69.4677 15.3142 69.3106 15 69.1314 14.6417 68.8068 14.3661 68.6441 14 68.3589 13.3578 68.1999 12.6667 67.9777 12 67.8667 11.6667 67.8393 11.2924 67.6445 11 67.4223 10.6667 67.1407 10.3661 66.978 10 66.6928 9.3578 66.7013 8.58468 66.3116 8.00001 66.0894 7.66667 65.8243 7.35833 65.6451 7 65.488 6.68578 65.4825 6.3072 65.3119 6 64.923 5.29964 64.6455 4.44441 63.979 4L61.9797 0.333334Z" stroke="#000000" stroke-miterlimit="8" fill="#A6A6A6" fill-rule="evenodd" transform="matrix(1.00033 0 -0 1 48.5 101.5)"/><path d="M7.06498 6.99999 7.06498 6.99999C7.84995 6.4444 8.57059 5.78645 9.41998 5.33333 10.0444 5.0002 10.7657 4.88892 11.4385 4.66666 13.4 4.01889 12.4667 4.24556 15.8121 3.99999 17.7167 3.86026 19.6249 3.77774 21.5314 3.66666 22.2042 3.4444 22.9598 3.38981 23.5499 3 23.8864 2.77774 24.1897 2.49606 24.5592 2.33333 25.2074 2.04798 25.9877 2.05648 26.5778 1.66666 26.9142 1.44441 27.2176 1.16273 27.5871 0.999999 28.2352 0.714645 28.9328 0.55559 29.6056 0.333333L30.6149 0C30.6987 0.0165879 32.9616 0.393385 33.3064 0.666666 34.1099 1.30352 33.9093 1.86152 34.3156 2.66666 34.4965 3.02498 34.7642 3.33333 34.9885 3.66666 34.8764 4.55558 34.9562 5.48976 34.6521 6.33332 34.3801 7.08786 33.3064 8.33332 33.3064 8.33332 33.1942 9.66665 33.1374 11.0057 32.9699 12.3333 32.8855 13.003 32.5205 14.0025 32.2971 14.6666 32.185 15.7777 32.2141 16.9119 31.9606 18 31.8697 18.3903 31.4687 18.6417 31.2878 19 31.1292 19.3142 31.0635 19.6666 30.9514 20 31.0635 21.8889 31.0408 23.7904 31.2878 25.6666 31.3795 26.3634 31.7363 27 31.9606 27.6666L32.2971 28.6666 32.6335 29.6666C32.7456 30.4444 32.8396 31.2249 32.9699 32 33.0639 32.5588 33.2432 33.1036 33.3064 33.6666 33.9123 39.0708 33.1217 36.4509 33.9792 38.9999 33.5037 41.3557 33.8237 40.1291 32.9699 42.6666 32.8578 42.9999 32.9286 43.4717 32.6335 43.6666L31.6242 44.3333C30.49 46.019 31.5671 44.8616 29.9421 45.6666 29.5804 45.8458 29.2944 46.1541 28.9328 46.3333 28.3675 46.6134 27.1167 46.8397 26.5778 46.9999 25.8985 47.2018 25.2548 47.5287 24.5592 47.6666 23.9985 47.7777 23.4287 47.8508 22.8771 47.9999 22.1928 48.1848 21.5314 48.4443 20.8585 48.6666L19.8492 48.9999C17.6063 48.8888 15.3515 48.9216 13.1207 48.6666 9.62141 48.2666 12.5058 47.7969 9.08355 46.6666L7.06498 45.9999C5.28854 45.4133 6.3508 45.8615 4.03713 44.3333L3.02785 43.6666 2.01857 42.9999C1.79425 42.3333 1.73915 41.5846 1.34571 40.9999 1.12139 40.6666 0.837096 40.366 0.672856 39.9999 0.384852 39.3577 0 37.9999 0 37.9999 0.112107 34.8889 0.0602921 31.7676 0.336428 28.6666 0.398733 27.9666 0.784963 27.3333 1.00928 26.6666L1.34571 25.6666 1.68214 24.6666 2.01857 23.6666C2.13067 22.2222 2.12697 20.7643 2.35499 19.3333 3.04141 15.0261 2.91055 19.682 4.37356 15.3333 5.60049 11.6863 3.6437 17.2104 5.38284 13.3333 5.67085 12.6911 5.66226 11.918 6.0557 11.3333 6.86768 10.1266 6.89682 7.72219 7.06498 6.99999Z" stroke="#000000" stroke-miterlimit="8" fill="#595959" fill-rule="evenodd" transform="matrix(1.00033 0 -0 1 12.5 152.5)"/></g></svg>