<svg width="301" height="250" xmlns="http://www.w3.org/2000/svg" xmlns:xlink="http://www.w3.org/1999/xlink" overflow="hidden"><defs><clipPath id="clip0"><path d="M0 0 301 0 301 250 0 250Z" fill-rule="evenodd" clip-rule="evenodd"/></clipPath></defs><g clip-path="url(#clip0)"><rect x="0" y="0" width="300.901" height="250" fill="#D3D3C3" transform="scale(1.00033 1)"/><path d="M21.1878 0.011597 21.1878 0.011597C14.0853 0.809472 22.9305 0.011597 14.2355 0.011597 11.9155 0.011597 9.60071 0.234787 7.2833 0.346329 5.38578 3.22418 7.66076-0.416966 6.29012 2.35472 6.11213 2.71455 5.78962 2.99129 5.628 3.35892 5.3446 4.00382 5.18663 4.69785 4.96589 5.36731L4.63483 6.37151 3.64165 9.3841 3.31059 10.3883C3.20027 10.723 3.0642 11.0502 2.97953 11.3925 2.86921 11.8388 2.77923 12.2907 2.64847 12.7314 2.44796 13.4073 2.20709 14.0703 1.98635 14.7398 1.87604 15.0745 1.84882 15.4504 1.6553 15.744 0.799651 17.0418 1.11903 16.3666 0.662118 17.7524 0.5518 19.6493 0.501229 21.5505 0.331059 23.4428 0.280071 24.0094 0 24.5476 0 25.1165 0 28.4657 0.0559933 31.8208 0.331059 35.1585 0.389033 35.8617 0.772436 36.4974 0.993177 37.1669 1.50223 38.7108 1.25583 37.8251 1.6553 39.8447 1.76561 42.411 1.69513 44.9918 1.98635 47.5436 2.03192 47.9432 2.48685 48.1801 2.64847 48.5478L3.64165 51.5603 3.97271 52.5645C4.08303 54.6845 4.11368 56.8103 4.30377 58.9244 4.33536 59.2758 4.57237 59.5815 4.63483 59.9286 4.79394 60.8137 4.80677 61.7214 4.96589 62.6065 5.02834 62.9537 5.01302 63.4056 5.29694 63.6107 5.86491 64.0209 7.2833 64.2802 7.2833 64.2802 7.72468 64.9496 8.35593 65.5253 8.60753 66.2886 8.71785 66.6233 8.7825 66.9772 8.93859 67.2928 9.11658 67.6526 9.42272 67.9371 9.60071 68.297 9.7568 68.6125 9.68496 69.0516 9.93177 69.3011 10.4944 69.87 11.256 70.1938 11.9181 70.6401 13.2017 71.5052 12.5338 71.1823 13.9045 71.6443 15.4222 73.9463 14.4738 73.3983 16.2219 73.9874 16.4426 74.3221 16.5733 74.7403 16.884 74.9916 17.1565 75.212 17.5651 75.1685 17.8772 75.3263 18.2331 75.5063 18.4978 75.8545 18.8704 75.9958 19.3972 76.1956 19.9635 76.3052 20.5257 76.3305 24.9368 76.5287 29.3539 76.5537 33.768 76.6653 34.3198 76.7768 34.8607 77 35.4233 77 36.6259 77 38.467 76.5853 39.7271 76.3305 42.5734 74.412 38.9722 76.4578 41.7134 75.9958 42.1059 75.9297 42.3756 75.5495 42.7066 75.3263 43.4946 72.9363 42.7881 73.7094 44.3619 72.6485 46.0417 67.5531 43.278 76.2588 45.024 59.9286 45.0668 59.5287 45.6861 59.4824 46.0172 59.2592L46.6793 57.2508C46.7896 56.9161 46.9257 56.5889 47.0104 56.2466 47.1207 55.8003 47.2107 55.3484 47.3414 54.9077 47.542 54.2318 48.0036 52.8993 48.0036 52.8993 48.1139 50.4446 48.0757 47.9785 48.3346 45.5352 48.5676 43.337 48.926 44.0046 49.6589 42.5226 49.8149 42.207 49.8338 41.8339 49.9899 41.5184 50.1679 41.1586 50.4904 40.8818 50.652 40.5142 50.9354 39.8693 51.0934 39.1753 51.3141 38.5058 51.6828 37.3875 51.6991 37.4236 51.9763 36.1627 52.0984 35.6073 52.1593 35.0379 52.3073 34.489 52.4909 33.8082 52.5823 33.0677 52.9694 32.4806 53.8251 31.1828 53.5057 31.8581 53.9626 30.4722 54.0729 29.2448 54.0383 27.9952 54.2937 26.7902 54.3771 26.3968 54.9378 26.1879 54.9558 25.786 55.0511 23.6653 54.8749 21.5339 54.6247 19.4261L53.6316 16.4135C53.5212 16.0787 53.6316 15.5208 53.3005 15.4093L52.3073 15.0745C51.9623 14.0281 51.6278 12.7196 50.652 12.062L49.6589 11.3925C49.077 9.62774 49.7123 11.0556 48.3346 9.3841 48.0799 9.07509 48.0099 8.59307 47.6725 8.3799 47.0807 8.00584 46.2668 8.10189 45.6861 7.71044 44.1123 6.64952 45.0704 7.16822 42.7066 6.37151L40.7203 5.70204C40.3892 5.5905 40.0175 5.56298 39.7271 5.36731 38.1532 4.30639 39.1114 4.8251 36.7476 4.02838L34.7612 3.35892C34.4301 3.24738 34.0584 3.21986 33.768 3.02419 32.1942 1.96327 33.1523 2.48197 30.7885 1.68526L29.7953 1.35053C29.4643 1.23898 29.1476 1.06566 28.8021 1.01579L26.4847 0.681061C23.4515-0.341269 22.0706 0.123139 21.1878 0.011597Z" stroke="#000000" stroke-miterlimit="8" fill="#A6A6A6" fill-rule="evenodd" transform="matrix(1.00033 0 -0 1 44.5 116.5)"/><path d="M0 4.6 0 4.6C0.434604 5.47623 0.838509 6.3686 1.30391 7.22858 2.38719 9.23043 1.62086 7.20125 2.28185 9.2 2.17322 10.7334 2.32579 12.3087 1.95587 13.8 1.8609 14.1831 1.04231 14.0676 0.977935 14.4572 0.220228 19.0398 1.53174 16.4604 2.60783 19.7143 2.82261 20.3637 3.01132 21.2225 3.58576 21.6857 3.85404 21.9021 4.25641 21.8594 4.5637 22.0143 6.81485 23.1488 4.13187 22.3162 6.84555 23 7.4975 22.8905 8.15326 22.8021 8.80142 22.6714 10.033 22.4232 10.8139 22.1048 12.0612 21.6857L13.0391 21.3572 14.0171 21.0286C15.4057 18.929 14.343 20.9876 14.343 16.7572 14.343 13.8777 14.3917 13.9814 14.995 12.1571 14.5024 10.1708 14.8107 11.2713 14.0171 8.87143L13.6911 7.88572 14.343 5.91429 14.669 4.92857 12.7132 1.97143C12.4958 1.64286 12.4413 1.08144 12.0612 0.985715 11.6266 0.876225 11.1864 0.786916 10.7573 0.657143 10.0991 0.458137 8.80142 0 8.80142 0 7.82379 0.164234 5.75067 0.407222 4.88968 0.985715 3.93361 1.62816 4.01349 1.69936 2.93381 1.97143 2.82836 1.99803 0.488916 4.16194 0 4.6Z" stroke="#000000" stroke-miterlimit="8" fill="#595959" fill-rule="evenodd" transform="matrix(1.00033 0 -0 1 56.5 93.5)"/><path d="M35.837 27.6666 35.837 27.6666C35.4006 27.6179 32.0811 27.3351 31.1914 27 30.1624 26.6123 30.3484 26.0443 29.2005 26 23.7836 25.7907 18.3609 25.7777 12.9411 25.6666L10.9502 25C10.6184 24.8889 10.2458 24.8615 9.95471 24.6666L7.96377 23.3333 6.9683 22.6666C6.38429 20.9065 6.92754 21.8615 4.64553 20.3333L3.65006 19.6666 2.65459 19 0.663648 16 0 15C0.110573 12.6666 0.138687 10.3279 0.331824 7.99999 0.360878 7.64986 0.493817 7.30718 0.663648 6.99999 1.05097 6.29962 1.54855 5.66666 1.99094 4.99999 2.21219 4.66666 2.32277 4.22225 2.65459 3.99999 4.08838 3.03979 4.888 2.25092 6.63648 2L11.282 1.33333C13.2052 0.689343 11.722 1.02625 14.9321 1.33333 16.3677 1.47065 17.8079 1.55559 19.2458 1.66666 20.1017 1.54383 21.6374 1.4654 22.564 0.999999 24.8555-0.150971 22.1244 0.693752 24.8868 0L31.5233 0.333333C34.9512 0.468346 38.3904 0.388136 41.8098 0.666666 43.3738 0.794015 44.5682 1.84724 45.7917 2.66666 46.1235 2.88892 46.3907 3.28913 46.7872 3.33333 48.7781 3.55559 50.7957 3.60535 52.76 3.99999 53.3131 4.11107 53.8685 4.21039 54.4191 4.33333 54.8643 4.43275 55.2949 4.60188 55.7464 4.66666 56.8468 4.82456 57.9586 4.88892 59.0646 4.99999L62.051 5.99999C62.3829 6.11107 62.7035 6.26445 63.0465 6.33332 63.5996 6.4444 64.1551 6.54372 64.7056 6.66666 65.1509 6.76608 65.5831 6.92471 66.0329 6.99999 66.9125 7.14729 67.8026 7.22225 68.6875 7.33332 69.0193 7.4444 69.3772 7.49605 69.683 7.66666 70.3802 8.05574 71.6739 8.99999 71.6739 8.99999 71.8952 9.33332 72.0374 9.73615 72.3376 9.99998 72.9378 10.5276 74.3285 11.3333 74.3285 11.3333 75.8771 13.6666 74.9922 12.8889 76.6513 14 76.8726 14.3333 77.033 14.7167 77.3149 15 77.5969 15.2832 78.0991 15.3269 78.3104 15.6666 78.6812 16.2625 78.9741 17.6666 78.9741 17.6666 78.8635 18.2222 78.9885 18.8861 78.6422 19.3333 78.1526 19.9657 77.3149 20.2222 76.6513 20.6666 75.0738 21.7231 76.0342 21.2066 73.6649 22 73.3331 22.111 73.0177 22.3015 72.6694 22.3333L69.0193 22.6666 65.0375 24C64.497 24.181 63.224 24.6357 62.7147 24.6666 59.511 24.8617 56.2995 24.8889 53.0918 25 51.8751 25.111 50.6449 25.1201 49.4417 25.3333 48.7528 25.4554 48.1145 25.7777 47.4508 26L46.4553 26.3333C46.1235 26.4444 45.7992 26.5814 45.4599 26.6666 44.575 26.8889 43.6705 27.0435 42.8053 27.3333 42.1416 27.5555 41.5138 28 40.8143 28L35.837 27.6666Z" stroke="#000000" stroke-miterlimit="8" fill="#595959" fill-rule="evenodd" transform="matrix(1.00033 0 -0 1 91.5 162.5)"/><path d="M37.7975 0 37.7975 0C31.5295 1.39774 38.1685 0.0427113 31.4422 1.00699 30.987 1.07222 30.5593 1.27743 30.1042 1.34266 28.9949 1.50166 27.8742 1.56647 26.7593 1.67832L23.7489 2.68531C23.4144 2.79717 23.0388 2.82476 22.7454 3.02098 22.4109 3.24479 22.1093 3.52844 21.7419 3.6923 21.0975 3.97965 20.404 4.13982 19.735 4.36363L17.728 5.03496C17.3935 5.14681 17.0703 5.30127 16.7246 5.37062 16.0884 5.49834 14.7344 5.69794 14.0486 6.04195 13.6891 6.22242 13.4125 6.54941 13.0452 6.71328 12.4007 7.00063 11.7072 7.1608 11.0382 7.38461L9.03126 8.05594C8.69677 8.16779 8.32119 8.19538 8.02779 8.3916 5.15201 10.3155 8.79053 8.00889 6.02084 9.39859 5.66127 9.57906 5.38473 9.90605 5.01737 10.0699 1.43489 11.6677 4.2779 9.89326 2.00695 11.4126 1.56099 12.0839 0.923195 12.6611 0.668982 13.4266L0 15.4405C0.111462 20.028 0.126843 24.6187 0.334491 29.2028 0.350504 29.5562 0.572164 29.8696 0.668982 30.2098 0.795299 30.6534 0.903705 31.102 1.00347 31.5524 1.12684 32.1094 1.18837 32.6804 1.33796 33.2307 1.52349 33.9135 1.83596 34.5582 2.00695 35.2447 2.11841 35.6922 2.20933 36.1455 2.34144 36.5874 2.54403 37.2652 2.34144 38.3776 3.01042 38.6014 4.39527 39.0646 3.72049 38.7408 5.01737 39.6084 5.2404 39.944 5.3724 40.3633 5.68635 40.6153 5.96163 40.8364 6.3745 40.7927 6.68982 40.951 7.04939 41.1315 7.33373 41.4419 7.6933 41.6223 8.00861 41.7806 8.38851 41.7862 8.69677 41.958 9.39957 42.3498 10.0347 42.8531 10.7037 43.3007 11.0382 43.5245 11.3258 43.8444 11.7072 43.972L14.7176 44.979C15.3519 45.1912 16.429 45.5801 17.059 45.6503 18.6145 45.8237 20.1824 45.8555 21.7419 45.986 22.8585 46.0793 23.9719 46.2098 25.0868 46.3216 27.1264 47.0039 25.5158 46.5432 29.1007 46.993 29.8831 47.0911 30.6645 47.1986 31.4422 47.3286 32.7161 47.5417 33.2498 47.6982 34.4526 48 34.5252 47.9818 38.1778 47.0201 38.801 46.993 43.3694 46.7937 47.9437 46.7692 52.5151 46.6573 58.2257 42.8369 52.1788 46.6215 70.2431 45.6503 72.5079 45.5285 71.7337 44.9854 73.2535 44.3077 73.898 44.0203 74.569 43.7751 75.2605 43.6363 78.8556 42.9148 74.935 43.6354 80.9468 42.965 81.6209 42.8898 82.2959 42.7944 82.9538 42.6293 83.6379 42.4577 84.9607 41.958 84.9607 41.958 86.4942 39.6496 86.0445 40.7094 86.6332 38.937 86.5217 38.3776 86.4366 37.8122 86.2987 37.2587 86.2132 36.9154 85.9642 36.6056 85.9642 36.2517 85.9642 33.6758 86.0346 31.0936 86.2987 28.5314 86.5238 26.3477 86.902 26.9848 87.6367 25.5105 87.7944 25.194 87.8597 24.8391 87.9712 24.5035 87.8597 23.049 87.8634 21.5808 87.6367 20.1398 87.5267 19.4408 87.1907 18.7972 86.9677 18.1259L86.6332 17.1189C86.5217 16.7832 86.3842 16.4552 86.2987 16.1119 86.1872 15.6644 86.0905 15.2128 85.9642 14.7692 85.8674 14.429 85.85 14.0385 85.6297 13.7622 85.3786 13.4472 84.9607 13.3147 84.6262 13.0909 83.0215 10.6753 85.294 13.6495 81.9503 11.4126 81.6158 11.1888 81.3142 10.9051 80.9468 10.7412 80.3024 10.4539 79.5266 10.4625 78.9399 10.0699L77.9364 9.39859C76.8087 7.70103 77.8796 8.86661 76.264 8.05594 75.9044 7.87547 75.6279 7.54848 75.2605 7.38461 74.6161 7.09726 73.8402 7.10582 73.2535 6.71328 71.8675 5.786 72.6401 6.13974 70.9121 5.70629 70.5776 5.48248 70.276 5.19883 69.9086 5.03496L66.8982 4.02797 63.8878 3.02098C63.2388 2.80393 62.1954 2.4263 61.5464 2.34965 59.6259 2.12288 53.0055 1.76649 51.5116 1.67832L49.5047 1.00699C46.3857-0.0362623 39.7487 0.167779 37.7975 0Z" stroke="#000000" stroke-miterlimit="8" fill="#595959" fill-rule="evenodd" transform="matrix(1.00033 0 -0 1 168.5 142.5)"/><path d="M64.1503 2.83476 64.1503 2.83476C63.3747 3.39196 62.6627 4.05182 61.8236 4.50625 61.2066 4.84034 60.494 4.95195 59.8292 5.17485L58.8321 5.50915C58.4997 5.62055 58.1818 5.79365 57.8349 5.84345L55.5082 6.17775C55.1759 6.28915 54.8491 6.41929 54.5111 6.51205 53.6296 6.7538 52.7187 6.89005 51.852 7.18065L48.8605 8.18355 46.8662 8.85215C46.5339 8.96355 46.1606 8.99103 45.8691 9.18645 45.2043 9.63215 44.6327 10.2696 43.8748 10.5236L41.8805 11.1922C41.5481 11.3036 41.1749 11.3311 40.8833 11.5265 40.5509 11.7494 40.2512 12.0319 39.8862 12.1951 38.259 12.9225 38.0497 12.7492 36.5623 13.198 35.8912 13.4005 35.2328 13.6437 34.568 13.8666L32.5737 14.5352 31.5765 14.8695C31.2442 14.9809 30.8709 15.0084 30.5794 15.2038 28.9992 16.2634 29.9612 15.7454 27.5879 16.541L26.5908 16.8753C26.2584 16.9867 25.8852 17.0142 25.5936 17.2096 23.3078 18.7423 24.3573 18.2928 22.6022 18.8811 22.3805 19.2154 22.2494 19.633 21.9374 19.884 21.6638 20.1042 21.2536 20.0607 20.9402 20.2183 18.3629 21.5145 21.4523 20.381 18.9459 21.2212 18.3395 22.1361 18.3336 22.4236 17.284 22.8927 16.6436 23.1789 15.8727 23.1704 15.2897 23.5613 14.9573 23.7842 14.6498 24.0502 14.2925 24.2299 13.9792 24.3876 13.6017 24.3931 13.2954 24.5642 12.597 24.9544 12.059 25.6474 11.3011 25.9014 10.9687 26.0128 10.6173 26.0781 10.3039 26.2357 9.94663 26.4155 9.66407 26.7246 9.30677 26.9043 8.99344 27.062 8.61594 27.0675 8.30962 27.2386 7.61124 27.6288 6.31531 28.5758 6.31531 28.5758L4.321 31.5845C4.09938 31.9188 3.78259 32.2063 3.65623 32.5874 3.54547 32.9217 3.48057 33.2752 3.32385 33.5903 3.14514 33.9497 2.82134 34.2261 2.65908 34.5932 2.37454 35.2373 2.21593 35.9304 1.99431 36.599L1.32954 38.6048C1.21878 38.9391 1.19146 39.3145 0.997154 39.6077 0.138084 40.9039 0.458743 40.2295 0 41.6135 0.11076 42.8393 0.119763 44.0787 0.332385 45.2908 0.800131 47.9566 0.792803 46.5513 1.66192 48.2995 1.81864 48.6146 1.83759 48.9873 1.99431 49.3024 2.17301 49.6618 2.35841 50.0407 2.65908 50.3053 3.2603 50.8345 4.65339 51.6425 4.65339 51.6425 4.87501 51.9768 5.00618 52.3944 5.31816 52.6454 5.59171 52.8656 6.00198 52.8221 6.31531 52.9797 6.67261 53.1594 6.95516 53.4686 7.31246 53.6483 7.62579 53.8059 7.99629 53.825 8.30962 53.9826 8.66692 54.1623 8.94947 54.4715 9.30677 54.6512 9.6201 54.8088 9.99761 54.8144 10.3039 54.9855 11.0023 55.3757 11.6335 55.877 12.2982 56.3227 12.6306 56.5456 12.9164 56.8642 13.2954 56.9913 13.9602 57.2142 14.7067 57.269 15.2897 57.6599 15.6221 57.8828 15.9218 58.1653 16.2868 58.3285 16.9272 58.6147 17.6982 58.6062 18.2812 58.9971 18.6135 59.22 18.8877 59.5815 19.2783 59.6657 20.4749 59.9236 21.7158 59.8886 22.9345 60 25.2612 59.8886 27.5996 59.9244 29.9146 59.6657 30.6111 59.5879 31.2218 59.1353 31.9089 58.9971 34.3391 58.5082 33.0116 58.7431 35.8975 58.3285L39.8862 56.9913 40.8833 56.657C41.2157 56.5456 41.5349 56.3806 41.8805 56.3227 42.5452 56.2113 43.221 56.1528 43.8748 55.9884 44.5546 55.8175 45.1719 55.3899 45.8691 55.3198L49.1929 54.9855C49.6361 54.8741 50.0849 54.7832 50.5225 54.6512 51.1936 54.4487 51.852 54.2055 52.5168 53.9826L54.5111 53.314 55.5082 52.9797C55.8406 52.8683 56.2138 52.8408 56.5054 52.6454 56.8378 52.4225 57.1375 52.14 57.5026 51.9768 58.1429 51.6906 58.8321 51.5311 59.4969 51.3082L61.4912 50.6396 63.4855 49.971C63.8179 49.8596 64.1427 49.7222 64.4826 49.6367 64.9258 49.5253 65.3569 49.3405 65.8122 49.3024 68.0232 49.1171 70.2439 49.0795 72.4599 48.9681 74.8876 48.1542 73.7743 48.4704 75.7837 47.9652 76.1161 47.7423 76.4236 47.4763 76.7809 47.2966 77.0942 47.139 77.5045 47.1825 77.778 46.9623 78.09 46.7113 78.1308 46.2104 78.4428 45.9594 78.7163 45.7393 79.1266 45.7827 79.4399 45.6251 79.7972 45.4454 80.1047 45.1794 80.4371 44.9565 82.2098 42.2821 79.8831 45.5137 82.099 43.285 82.3815 43.0009 82.508 42.5907 82.7638 42.2821 83.0648 41.919 83.46 41.6424 83.7609 41.2792 84.9494 39.8448 83.8338 40.6052 85.4229 39.2734 88.1289 37.0054 84.0663 40.8516 88.4143 37.9362 88.7467 37.7133 89.0464 37.4308 89.4115 37.2676 90.0519 36.9814 90.741 36.8219 91.4058 36.599L92.4029 36.2647C92.7353 36.1533 93.0602 36.0159 93.4001 35.9304 93.8432 35.819 94.292 35.7282 94.7296 35.5961 96.4255 35.0844 96.5213 34.9014 98.0535 34.5932 98.7144 34.4602 99.3899 34.406 100.048 34.2589 100.39 34.1825 100.696 33.958 101.045 33.9246 103.033 33.7341 105.034 33.7017 107.028 33.5903 107.36 33.4789 107.685 33.3415 108.025 33.256 111.453 32.3941 114.536 32.7341 118.329 32.5874 120.678 32.1149 119.455 32.4329 121.985 31.5845L122.982 31.2502C123.315 31.1388 123.688 31.1114 123.979 30.9159 124.312 30.693 124.619 30.4271 124.977 30.2473 125.29 30.0897 125.667 30.0841 125.974 29.913 126.672 29.5228 127.303 29.0215 127.968 28.5758L128.965 27.9072C130.177 24.2496 128.244 29.7897 129.962 25.9014 130.247 25.2574 130.406 24.5642 130.627 23.8956L130.96 22.8927C131.07 22.5584 131.098 22.1831 131.292 21.8898L131.957 20.8869C131.846 19.3268 131.855 17.7535 131.624 16.2067 131.358 14.4209 130.606 13.6674 129.63 12.1951L128.965 11.1922C128.744 10.8579 128.633 10.4122 128.301 10.1893L127.303 9.52075C127.082 9.18645 126.939 8.78245 126.639 8.51785 123.844 6.05835 125.625 7.84114 123.647 6.84635 123.29 6.66662 123.015 6.34095 122.65 6.17775 122.01 5.89157 121.32 5.73206 120.656 5.50915L119.658 5.17485 118.661 4.84055C118.329 4.72916 117.956 4.70167 117.664 4.50625 117.332 4.28335 117.032 4.00086 116.667 3.83766 116.027 3.55147 115.337 3.39196 114.673 3.16906L112.678 2.50046 110.684 1.83186C110.352 1.72046 110.035 1.54125 109.687 1.49756 107.801 1.26044 105.195 0.902346 103.372 0.828958 99.0526 0.655227 94.7296 0.606056 90.4086 0.494658 83.6474-0.260912 86.6733-0.0613848 74.7866 0.494658 73.5758 0.551305 73.1678 0.864336 72.1275 1.16326 71.6882 1.2895 71.2372 1.37131 70.7979 1.49756 70.4611 1.59432 70.1428 1.75542 69.8008 1.83186 68.9706 2.01738 66.222 2.3938 65.4798 2.50046L63.4855 3.16906C62.3832 3.53863 64.0395 2.89046 64.1503 2.83476Z" stroke="#000000" stroke-miterlimit="8" fill="#D9D9D9" fill-rule="evenodd" transform="matrix(1.00033 0 -0 1 104.5 103.5)"/><path d="M12.9506 2.63013 12.9506 2.63013C10.8483 2.73969 8.74089 2.77831 6.6436 2.9589 6.18911 2.99804 5.75282 3.15782 5.3158 3.28767 4.64552 3.48679 3.988 3.72599 3.3241 3.9452 2.99215 4.05476 2.61942 4.08178 2.32825 4.27397L1.3324 4.9315C0.889834 5.58904-0.074754 6.11776 0.00460025 6.9041 0.115215 7.99996 0.179305 9.10151 0.33655 10.1918 0.401058 10.6391 0.537393 11.074 0.6685 11.5068 0.97013 12.5027 1.3324 13.4794 1.66435 14.4657L1.9963 15.452C2.10691 15.7808 2.1342 16.15 2.32825 16.4383 2.54958 16.7671 2.81368 17.0712 2.99215 17.4246 3.14866 17.7346 3.10548 18.1404 3.3241 18.4109 3.9583 19.1962 4.51399 19.0001 5.3158 19.3972 5.67263 19.574 5.9797 19.8356 6.31165 20.0548 6.53298 20.3835 6.69347 20.7617 6.97554 21.0411 7.76459 21.8226 8.97707 22.0306 9.96309 22.3561L10.9589 22.6849C11.2909 22.7945 11.6153 22.9296 11.9548 23.0137 12.3974 23.1232 12.8271 23.318 13.2826 23.3424 16.9304 23.5377 20.5852 23.5708 24.2369 23.6712L37.183 24C39.396 23.8904 41.6146 23.8613 43.822 23.6712 44.1705 23.6412 44.5049 23.4975 44.8178 23.3424 45.1747 23.1657 45.4817 22.9041 45.8137 22.6849 46.1494 22.1862 46.8095 21.3929 46.8095 20.7123 46.8095 9.88889 47.6022 12.8759 45.8137 7.56164L44.4859 3.61644C44.3753 3.28767 44.4451 2.82232 44.1539 2.63013 42.5758 1.58812 43.5365 2.09758 41.1664 1.31507 40.8344 1.20551 40.4617 1.17849 40.1705 0.9863 38.8835 0.136581 39.5531 0.45375 38.1788 0 37.183 0.109554 36.1738 0.134095 35.1913 0.328767L32.2037 1.31507C31.8718 1.42462 31.5563 1.61246 31.2079 1.64383L27.5564 1.9726 23.2411 2.30137C22.353 2.38514 21.4707 2.52058 20.5855 2.63013 19.9789 2.8304 18.8573 3.22865 18.2618 3.28767 17.6013 3.35311 13.8359 2.73969 12.9506 2.63013Z" stroke="#000000" stroke-miterlimit="8" fill="#595959" fill-rule="evenodd" transform="matrix(1.00033 0 -0 1 171.5 80.5)"/><path d="M10.6631 0 10.6631 0C11.2185 0.802922 11.8763 1.54005 12.3293 2.40888 12.6623 3.04759 12.9957 4.47363 12.9957 4.47363L11.6628 6.53838C11.0548 7.48014 11.0489 7.77603 9.99669 8.259 9.3547 8.55359 7.99735 8.94725 7.99735 8.94725 5.55375 8.83258 3.01475 9.31045 0.666446 8.60313-0.00797636 8.40001 0 6.53838 0 6.53838 0.111039 6.07958 0.0791339 5.55542 0.333223 5.16188 0.555407 4.81775 0.966924 4.64162 1.33289 4.47363 1.97488 4.17903 2.66578 4.01483 3.33223 3.78538L6.33124 2.753 8.33058 2.06475 10.6631 0Z" stroke="#000000" stroke-miterlimit="8" fill="#A6A6A6" fill-rule="evenodd" transform="matrix(1.00033 0 -0 1 199.5 72.5)"/><path d="M2.90228 14.8585 2.90228 14.8585C0.964989 20.1482 2.70402 14.6283 1.61238 22.4529 1.51619 23.1419 1.18244 23.7736 0.967426 24.434L0.644951 25.4246C0.537493 25.7548 0.404948 26.0775 0.322476 26.4151L0 27.7359C0.102176 28.6775 0.104716 30.5918 0.644951 31.6982 0.818326 32.0531 0.998201 32.4274 1.2899 32.6887 2.82864 34.0674 3.33292 34.0464 5.15961 34.6699L6.12704 35.0001C7.26174 34.8839 10.0679 34.8414 11.2866 34.0095L12.2541 33.3491C12.4691 33.0189 12.7256 32.7135 12.899 32.3585 13.0511 32.0473 13.0091 31.6397 13.2215 31.368 13.4636 31.0581 13.8664 30.9278 14.1889 30.7076 14.2964 30.3774 14.299 29.9888 14.5114 29.717 15.0689 29.0035 16.8225 28.598 17.4137 28.3963L18.3811 28.0661C19.1916 25.5763 18.0982 28.6452 19.3485 26.0849 19.5006 25.7737 19.5635 25.4246 19.671 25.0944 19.5635 24.6542 19.4703 24.21 19.3485 23.7736 19.2552 23.439 19.0261 23.1311 19.0261 22.7831 19.0261 21.6208 19.3385 20.8328 19.671 19.8114 19.7785 18.6006 19.9935 17.395 19.9935 16.1793 19.9935 12.0016 19.981 12.5087 19.0261 9.57549L18.7036 8.58492C18.5961 8.25473 18.5696 7.88398 18.3811 7.59435 18.1661 7.26416 17.8936 6.96642 17.7362 6.60378L16.7687 3.63208C16.5387 2.92553 16.3897 2.1781 15.8013 1.65095 15.218 1.12826 14.6018 0.581133 13.8664 0.330189L12.899 0C11.9794 0.104621 10.1098 0.10722 9.02931 0.660378 8.68267 0.837901 8.38436 1.1006 8.06189 1.32076 7.95443 1.65095 7.90446 2.00703 7.73941 2.31132 7.363 3.00509 6.69459 3.53952 6.44951 4.29246L5.80456 6.27359 5.48208 7.26416 5.15961 8.25473C5.02473 10.3264 5.16956 12.5167 4.51466 14.5283 4.43868 14.7618 3.17103 14.8035 2.90228 14.8585Z" stroke="#000000" stroke-miterlimit="8" fill="#A6A6A6" fill-rule="evenodd" transform="matrix(1.00033 0 -0 1 185.5 47.5)"/></g></svg>