<svg width="301" height="250" xmlns="http://www.w3.org/2000/svg" xmlns:xlink="http://www.w3.org/1999/xlink" overflow="hidden"><defs><clipPath id="clip0"><path d="M0 0 301 0 301 250 0 250Z" fill-rule="evenodd" clip-rule="evenodd"/></clipPath></defs><g clip-path="url(#clip0)"><rect x="0" y="0" width="300.901" height="250" fill="#D3D3C3" transform="scale(1.00033 1)"/><path d="M61.5436 50.6957 61.5436 50.6957C58.5405 50.586 55.5246 50.6614 52.5344 50.3665 52.1354 50.3271 51.8998 49.8688 51.5334 49.7081 50.8905 49.4263 50.1987 49.2692 49.5313 49.0497L48.5303 48.7205C48.1967 48.8302 47.8775 49.0007 47.5293 49.0497 45.5352 49.3308 41.5232 49.7081 41.5232 49.7081 36.4594 51.3733 40.2242 50.3425 29.8446 50.6957 28.7324 50.8054 27.6127 50.8572 26.5079 51.0249 26.1603 51.0776 25.8551 51.305 25.5069 51.354 24.2908 51.5254 23.06 51.5735 21.8365 51.6832 19.454 52.4668 20.4197 51.9566 18.8334 53 18.0055 52.9372 14.9352 53.0522 13.4947 52.3416 13.136 52.1646 12.8273 51.9027 12.4937 51.6832 12.2712 51.354 12.1281 50.9562 11.8263 50.6957 11.2228 50.1746 9.82427 49.3789 9.82427 49.3789L8.48958 47.4037C8.2671 47.0745 8.20268 46.5413 7.82224 46.4162L6.82122 46.087C6.2348 44.3514 6.87513 45.7557 5.48653 44.1118 5.22978 43.8079 5.13236 43.3714 4.81918 43.1242 4.54457 42.9074 4.15184 42.9047 3.81816 42.795 3.59568 42.4658 3.43436 42.0872 3.15082 41.8075 2.86727 41.5277 2.40034 41.458 2.1498 41.1491 0.30782 38.8776 3.68385 41.3899 0.815108 39.5031-0.338612 36.0883-0.0924826 37.6395 0.481435 32.2609 0.545332 31.6624 1.07227 30.6904 1.48245 30.2857 1.766 30.006 2.1498 29.8468 2.48347 29.6273 3.0699 27.8918 2.42956 29.2961 3.81816 27.6522 4.07491 27.3483 4.18368 26.9252 4.48551 26.6646 5.08906 26.1435 6.48755 25.3478 6.48755 25.3478 7.61247 23.683 6.54419 24.8261 8.15591 24.0311 8.5146 23.8541 8.79047 23.5334 9.15693 23.3727 9.79979 23.0909 11.159 22.7143 11.159 22.7143 11.3814 22.3851 11.5131 21.9739 11.8263 21.7267 12.1009 21.5099 12.5786 21.6429 12.8273 21.3975 13.3944 20.838 13.7172 20.0807 14.162 19.4224 14.3845 19.0932 14.4957 18.6543 14.8294 18.4348L15.8304 17.7764C16.0529 17.4472 16.2142 17.0686 16.4977 16.7888 17.454 15.8454 17.4143 16.3368 18.4998 15.8012 18.8585 15.6243 19.1421 15.3198 19.5008 15.1429 19.8153 14.9876 20.1943 14.9822 20.5018 14.8137 21.2029 14.4294 21.7257 13.6888 22.5038 13.4969 22.9315 13.3915 24.3608 13.0746 24.8396 12.8385 26.0822 12.2255 25.7346 12.1026 26.8416 11.1925 27.1496 10.9393 27.4839 10.7112 27.8426 10.5342 28.1572 10.379 28.5361 10.3735 28.8436 10.205 29.5447 9.82072 30.1783 9.32709 30.8457 8.8882L32.8477 7.57143 34.8497 6.25466C35.1834 6.03516 35.4703 5.72142 35.8508 5.59627 37.2322 5.14194 36.5591 5.45952 37.8528 4.6087 39.0859 2.78398 37.8146 4.22725 39.5212 3.29193 40.2222 2.90768 41.5232 1.97516 41.5232 1.97516 42.4641 0.582801 41.9667 0.798564 44.1926 0.658385 48.7489 0.371495 57.8732 0 57.8732 0 62.4334 0.109696 67.0015 0.0425099 71.5537 0.329193L74.5568 1.31677 75.5578 1.64596C75.8915 1.75566 76.2098 1.93213 76.5588 1.97516L79.2282 2.30435C81.4377 3.03096 80.1154 2.68258 84.2333 2.96273 86.1229 3.0913 88.0149 3.18223 89.9058 3.29193 90.5731 3.51142 91.3225 3.56534 91.9078 3.95031 92.2415 4.16981 92.5424 4.44799 92.9088 4.6087L95.9119 5.59627 97.9139 6.25466C98.2476 6.36436 98.5737 6.49966 98.9149 6.58385 100.932 7.08132 99.8145 6.76996 102.252 7.57143L103.253 7.90062C103.586 8.01032 103.961 8.03738 104.254 8.22981 104.587 8.44931 104.886 8.73237 105.255 8.8882 105.676 9.06643 106.15 9.08737 106.589 9.21739 107.6 9.51652 108.591 9.87578 109.592 10.205 109.926 10.3147 110.279 10.379 110.593 10.5342 112.557 11.5029 111.456 11.0373 113.93 11.8509L114.931 12.1801C115.265 12.2898 115.64 12.3169 115.932 12.5093 116.266 12.7288 116.567 13.007 116.933 13.1677L119.936 14.1553C120.569 14.3634 121.644 14.7448 122.272 14.8137 123.824 14.9837 125.386 15.0332 126.943 15.1429L128.278 17.118C128.501 17.4472 128.662 17.8259 128.945 18.1056 131.231 20.3605 130.162 19.5643 131.949 20.7391 134.333 24.2682 130.62 18.9122 133.617 22.7143 135.713 25.3731 134.015 24.0733 135.953 25.3478L136.954 28.3106 137.287 29.2981C137.398 29.6273 137.536 29.9491 137.621 30.2857L137.955 31.6025C137.843 33.3581 137.775 35.117 137.621 36.8696 137.515 38.0667 137.307 39.328 136.954 40.4907 136.752 41.1554 136.676 41.8884 136.286 42.4658 135.383 43.802 135.438 44.5976 133.951 44.7702 132.4 44.9502 130.834 44.966 129.279 45.0994 128.276 45.1854 127.277 45.3189 126.276 45.4286 123.412 46.3704 127.971 44.9282 123.273 46.087 122.591 46.2552 121.938 46.5259 121.271 46.7453L116.266 48.3913 115.265 48.7205C114.931 48.8302 114.613 49.0067 114.264 49.0497 113.374 49.1594 112.481 49.2444 111.594 49.3789 111.034 49.464 110.489 49.6427 109.926 49.7081 108.596 49.8625 107.257 49.9276 105.922 50.0373 105.366 50.147 104.816 50.2925 104.254 50.3665 103.146 50.5122 102.016 50.4924 100.917 50.6957 98.5827 51.1274 99.5302 51.4267 97.5802 51.6832 96.3625 51.8434 95.1333 51.9027 93.9098 52.0124L71.8874 51.6832C71.0873 51.6284 70.6463 50.6167 69.8854 50.3665 68.7005 49.9768 68.3505 49.8046 66.8823 49.7081 65.8835 49.6423 62.4334 50.5311 61.5436 50.6957Z" stroke="#000000" stroke-miterlimit="8" fill="#A6A6A6" fill-rule="evenodd" transform="matrix(1.00033 0 -0 1 75.5 49.5)"/><path d="M42.1934 0.334645 42.1934 0.334645C35.1475 0.526474 30.9524 1.00963 24.5871 0.334645 24.2389 0.297755 23.9227 0.111513 23.5906 0 22.7047 0.111513 21.7619 0.000632401 20.933 0.334645 20.5623 0.483997 20.5509 1.05421 20.2686 1.33858 19.3166 2.29762 19.3562 1.79813 18.2755 2.34252 17.9184 2.52244 17.636 2.83189 17.2789 3.01181 16.3043 3.50266 14.9188 3.50487 13.9569 3.6811 13.0392 3.84921 12.4855 4.0637 11.6316 4.35039 11.4101 4.68504 11.279 5.10305 10.9672 5.35433 10.6938 5.57472 10.2183 5.43949 9.97062 5.68897 7.30533 8.37394 9.90031 7.2743 7.64526 8.03149 7.00996 9.95146 7.76799 8.15934 6.31649 10.0394 4.22958 12.7422 5.92037 11.4208 3.99114 12.7165 3.88044 13.0512 3.81557 13.405 3.65894 13.7205 3.48034 14.0802 3.15181 14.3548 2.99455 14.7244 2.8147 15.1472 2.77306 15.6168 2.66236 16.063 2.55166 17.1784 2.53524 18.3076 2.33017 19.4094 2.20106 20.1029 1.66578 21.4173 1.66578 21.4173 0.994593 28.1782 1.72395 22.4631 1.00139 26.1023 0.416733 29.0471 0.983502 27.1604 0.337006 29.1142 0.125449 36.9997-0.301851 40.7748 0.337006 47.8543 0.440483 49.0015 0.782512 48.9343 1.66578 49.5275L2.33017 51.5354 2.66236 52.5393C2.77306 54.1011 2.81292 55.6694 2.99455 57.2244 3.12304 58.3243 3.5088 58.2603 3.99114 59.2322 4.14776 59.5477 4.1667 59.9207 4.32333 60.2362 4.50193 60.5959 4.80912 60.8804 4.98772 61.2401 5.14434 61.5556 5.10113 61.9686 5.31991 62.2441 5.56934 62.5581 5.9843 62.6902 6.31649 62.9133L8.97404 66.9291C9.19553 67.2637 9.30623 67.7099 9.63842 67.933L10.635 68.6023C11.2994 69.6063 11.1887 69.7178 12.296 70.2755 12.6091 70.4333 12.9864 70.4389 13.2926 70.6102 17.1564 72.7726 13.3986 71.3151 17.2789 72.6181L19.272 73.2874C19.6042 73.3989 19.9772 73.4264 20.2686 73.622 23.1246 75.5401 19.5111 73.2405 22.2618 74.6259 22.6189 74.8059 22.8935 75.1319 23.2584 75.2952 23.8984 75.5817 24.6688 75.5732 25.2515 75.9645 25.5837 76.1877 25.8833 76.4704 26.2481 76.6338 26.8881 76.9203 27.5769 77.08 28.2413 77.3031L30.2344 77.9724 32.2276 78.6417C32.5598 78.7532 32.8844 78.8907 33.2242 78.9763 33.6671 79.0878 34.1139 79.1846 34.5529 79.311 34.8896 79.4078 35.2083 79.5663 35.5495 79.6456 36.6499 79.9014 37.7642 80.0918 38.8715 80.3149 39.4251 80.4264 39.9689 80.614 40.5324 80.6496L45.8475 80.9842C46.3864 81.0618 48.7185 81.3154 49.5016 81.6535 49.8686 81.8119 50.1334 82.1594 50.4982 82.3228 51.1916 82.6332 52.9417 83.1497 53.8202 83.3267 57.3679 84.0415 58.7737 83.791 63.4538 83.996 64.3397 84.1075 65.233 84.1698 66.1113 84.3307 66.4559 84.3938 66.7682 84.5797 67.1079 84.6653 67.6556 84.8033 68.2152 84.8884 68.7689 84.9999 73.0874 84.8884 77.4249 85.0879 81.7244 84.6653 82.1218 84.6262 82.0502 83.8745 82.3888 83.6614 82.9827 83.2874 83.7993 83.3834 84.382 82.9921 84.7142 82.7689 84.9882 82.4071 85.3785 82.3228 86.5744 82.0647 87.8146 82.0996 89.0327 81.9881 89.6971 81.542 90.2683 80.9039 91.0258 80.6496L93.019 79.9803C93.3792 78.8916 93.1719 78.8335 94.3478 78.307 94.9878 78.0206 96.3409 77.6377 96.3409 77.6377 96.4516 77.3031 96.4255 76.8833 96.6731 76.6338 97.2377 76.0651 98.6663 75.2952 98.6663 75.2952 98.8878 74.9606 99.0484 74.5757 99.3307 74.2913 99.613 74.0069 100.064 73.9247 100.327 73.622 100.853 73.0167 101.213 72.2834 101.656 71.6141 101.878 71.2795 101.988 70.8333 102.32 70.6102L103.317 69.9409C104.152 67.4175 103.026 70.5279 104.314 67.933 104.47 67.6176 104.489 67.2446 104.646 66.9291 104.824 66.5694 105.148 66.2927 105.31 65.9252 105.595 65.2804 105.753 64.5866 105.975 63.9173 106.085 63.5826 106.113 63.2069 106.307 62.9133 106.528 62.5787 106.809 62.2769 106.971 61.9094 107.256 61.2647 107.414 60.5708 107.636 59.9015 107.746 59.5669 107.883 59.2398 107.968 58.8976 108.189 58.0052 108.343 57.093 108.632 56.2204L108.964 55.2165C108.854 51.87 108.833 48.5193 108.632 45.1771 108.611 44.825 108.457 44.4887 108.3 44.1732 108.121 43.8135 107.814 43.529 107.636 43.1693 106.833 41.5528 107.987 42.6242 106.307 41.496 105.961 40.4498 105.625 39.1417 104.646 38.4842L102.653 37.1456C100.881 34.4685 103.206 37.7034 100.992 35.4724 99.4891 33.9588 101.271 34.7853 99.3307 34.1338 98.2234 32.4606 98.9985 33.353 96.6731 31.7913 96.3409 31.5682 96.0553 31.2492 95.6765 31.122 95.0122 30.8989 94.2661 30.8441 93.6834 30.4527 90.8274 28.5347 94.4409 30.8343 91.6902 29.4488 91.3331 29.2689 91.0724 28.9067 90.6936 28.7795 90.0547 28.5649 89.361 28.578 88.7005 28.4449 88.2528 28.3546 87.8091 28.2424 87.3717 28.1102 86.7009 27.9075 85.3785 27.4409 85.3785 27.4409 85.1571 27.1063 85.0527 26.6501 84.7142 26.437 84.1203 26.063 83.3854 25.9908 82.721 25.7677 82.3888 25.6562 82.0158 25.6287 81.7244 25.4331 81.06 24.9869 80.4888 24.3488 79.7313 24.0945L77.7381 23.4252C77.4059 23.3137 77.0329 23.2862 76.7415 23.0905 76.4093 22.8674 76.1098 22.5846 75.7449 22.4212 71.6189 20.5739 75.9026 23.1965 71.7586 20.4134L70.762 19.7441 69.4333 17.7362C69.2118 17.4016 69.1011 16.9554 68.7689 16.7323L67.7723 16.063C67.5021 15.2464 67.4197 14.7038 66.7757 14.0551 66.4934 13.7707 66.1113 13.609 65.7791 13.3858 65.1945 11.6188 65.6411 12.6754 64.1182 10.374L62.125 7.3622 61.4606 6.35826C61.2391 6.02362 60.9225 5.73588 60.7962 5.35433L60.464 4.35039C60.3533 3.45797 60.5816 2.45003 60.1318 1.67323 59.064-0.170854 55.9578 0.134912 54.4846 0 44.5195 0.371852 44.2419 0.278889 42.1934 0.334645Z" stroke="#000000" stroke-miterlimit="8" fill="#595959" fill-rule="evenodd" transform="matrix(1.00033 0 -0 1 32.5 99.5)"/><path d="M11.0736 16.6532 11.0736 16.6532C10.1508 16.3064 9.1868 16.0545 8.30532 15.6128 7.56138 15.24 6.92119 14.688 6.22912 14.2256 5.88309 13.9944 5.58556 13.6639 5.19103 13.5321 3.16203 12.8542 4.51542 13.2257 1.03864 12.8385 0.807917 12.4917 0.478124 12.1935 0.346577 11.7981-0.217864 10.1011-0.000653919 9.02996 0.346577 7.28977 0.418072 6.93129 0.464718 6.53479 0.692609 6.24939 0.952433 5.92389 1.38467 5.78703 1.73071 5.5558 1.84601 5.209 1.81877 4.77396 2.07674 4.51542 4.75497 1.83129 3.23298 3.87164 5.19103 2.78145 8.9734 0.675565 5.40595 1.58083 10.7275 1.04748 13.3805 1.16304 16.0642 0.973862 18.6863 1.39427 19.0969 1.46014 19.31 2.02353 19.3783 2.43466 19.4383 2.79521 19.1476 3.12824 19.0323 3.47504 19.1476 2.55022 19.033 1.56598 19.3783 0.700687 19.5328 0.313698 20.0062 0.0755846 20.4164 0.00709971 20.9895-0.0885826 22.1311 0.805981 22.4926 1.04748L24.5688 4.16862C24.7996 4.51542 24.9668 4.91431 25.2609 5.209 26.593 6.54408 26.0275 5.84132 26.9911 7.28977 26.8757 9.1393 27.0462 11.0295 26.645 12.8385 26.5548 13.2453 25.9789 13.3456 25.6069 13.5321 22.7417 14.9678 26.5057 12.5847 23.5307 14.5724 23.3531 15.1064 23.0451 16.3369 22.4926 16.6532 21.982 16.9456 21.35 16.9732 20.7625 17L11.0736 16.6532Z" stroke="#000000" stroke-miterlimit="8" fill="#D9D9D9" fill-rule="evenodd" transform="matrix(1.00033 0 -0 1 39.5 82.5)"/><path d="M13.9417 2.66667 13.9417 2.66667C13.1672 3.22226 12.2912 3.65743 11.6181 4.33333L9.62644 7.33334C9.40511 7.66667 9.34102 8.20662 8.96255 8.33334L7.96671 8.66667C7.1324 11.1802 8.3549 8.17943 6.63892 10.3333 4.80648 12.6334 8.16504 10.0895 5.31114 12L3.98335 14C3.76202 14.3333 3.44565 14.62 3.31946 15 2.86132 16.3801 3.18156 15.7076 2.32362 17 1.32245 22.0268 2.59733 15.7633 1.65973 20 1.5373 20.5531 1.46464 21.1171 1.32778 21.6667 1.24289 22.0076 1.09192 22.3288 0.995838 22.6667 0.870483 23.1072 0.789248 23.5595 0.663892 24-0.288558 27.3474 1.03776 22.1652 0 26.3333 0.110614 31.4444 0.12431 36.5587 0.331946 41.6667 0.372721 42.6707 0.94555 42.8032 1.32778 43.6667 1.61195 44.3089 1.60348 45.082 1.99168 45.6667 2.84961 46.9591 2.52938 46.2866 2.98752 47.6667 3.09813 48.5556 3.0194 49.4898 3.31946 50.3334 3.58784 51.0879 4.39497 51.5733 4.64725 52.3334 5.85783 55.9804 3.92711 50.4563 5.64308 54.3334 5.92725 54.9756 6.08564 55.6667 6.30698 56.3334 6.41759 56.6667 6.44488 57.041 6.63892 57.3334 6.86025 57.6667 7.14076 57.9673 7.30281 58.3334 7.58698 58.9756 7.57851 59.7487 7.96671 60.3334 8.18804 60.6667 8.46855 60.9673 8.6306 61.3334 8.91477 61.9756 8.9063 62.7487 9.29449 63.3334 9.51582 63.6667 9.79633 63.9673 9.95838 64.3334L10.9542 67.3334 12.9459 73.3334C13.0565 73.6667 13.2203 73.9868 13.2778 74.3334 13.4992 75.6667 13.5161 77.0511 13.9417 78.3334L14.6056 80.3334 14.9376 81.3334C15.1744 82.0467 15.3278 82.8012 15.9334 83.3334 16.5338 83.861 17.2612 84.2223 17.9251 84.6667 18.257 84.889 18.5425 85.2066 18.9209 85.3334 19.5848 85.5556 20.3304 85.6102 20.9126 86 21.2446 86.2223 21.5439 86.504 21.9084 86.6667 22.548 86.9521 23.3179 86.9436 23.9001 87.3334 24.2321 87.5556 24.5391 87.8208 24.896 88 25.2089 88.1572 25.5554 88.2369 25.8918 88.3334 28.2771 89.0178 26.1413 88.3127 28.8793 89 29.2188 89.0853 29.5268 89.3001 29.8752 89.3334 31.8609 89.5233 33.8609 89.5188 35.8502 89.6667 39.2303 89.9182 38.8426 90.1742 42.4891 90.3334 46.3598 90.5024 50.2345 90.5556 54.1072 90.6667 58.1087 91.6712 51.1153 89.9994 60.4142 91.3334 61.1069 91.4328 62.4059 92 62.4059 92 64.3976 91.889 66.4016 91.9152 68.3809 91.6667 69.0753 91.5796 70.3726 91 70.3726 91 72.8349 87.2911 70.531 89.8746 72.6962 88.6667 73.3937 88.2776 74.024 87.7778 74.6879 87.3334 75.0198 87.1111 75.3052 86.7934 75.6837 86.6667L77.6754 86 78.6712 85.6667 79.999 83.6667C80.2203 83.3334 80.5367 83.0468 80.6629 82.6667L81.3268 80.6667C82.271 70.2374 82.1018 73.5312 81.3268 54.3334 81.299 53.6454 80.6165 51.9534 79.999 51.3334 79.7169 51.0501 79.3351 50.8889 79.0032 50.6667 78.419 48.9066 78.8653 49.9591 77.3434 47.6667 77.1221 47.3334 76.9616 46.9499 76.6796 46.6667 76.3476 46.3334 75.972 46.0388 75.6837 45.6667 75.1939 45.0342 74.7985 44.3334 74.3559 43.6667L73.0281 41.6667C72.8068 41.3334 72.4904 41.0467 72.3643 40.6667 72.2536 40.3334 72.2509 39.941 72.0323 39.6667 71.7831 39.3538 71.3684 39.2223 71.0365 39 70.9259 38.6667 70.8986 38.2924 70.7045 38 67.9583 33.8635 71.2168 39.817 69.0448 36 68.7993 35.5686 68.6355 35.0928 68.3809 34.6667 67.9703 33.9796 67.4957 33.3333 67.0531 32.6667 66.8318 32.3333 66.6713 31.9499 66.3892 31.6667L65.3934 30.6667C64.5591 28.1532 65.7816 31.1539 64.0656 29 62.7781 27.3838 64.9106 28.3939 62.7378 27.6667 61.5111 25.819 62.7758 27.2804 61.0781 26.3333 60.3806 25.9443 59.7503 25.4444 59.0864 25 58.7545 24.7778 58.469 24.4601 58.0906 24.3333 56.2647 23.7222 57.9007 24.3673 56.0989 23.3333 55.6693 23.0868 55.2007 22.9132 54.7711 22.6667 54.4247 22.4679 54.1321 22.1792 53.7753 22 53.4624 21.8428 53.0853 21.8373 52.7794 21.6667 52.082 21.2776 50.7878 20.3333 50.7878 20.3333 49.0174 17.6667 51.341 20.8889 49.128 18.6667 48.846 18.3834 48.7644 17.9305 48.4641 17.6667 47.8637 17.139 47.1363 16.7778 46.4725 16.3333 46.1405 16.1111 45.7587 15.9499 45.4766 15.6667L43.4849 13.6667C43.0424 13.2223 42.5044 12.8563 42.1572 12.3333 41.2719 11 41.8252 11.5556 40.4974 10.6667L38.5057 7.66667C38.2844 7.33334 38.1738 6.88893 37.8419 6.66667L36.846 6C36.6247 5.66667 36.4642 5.28326 36.1821 5 35.9001 4.71675 35.4355 4.6462 35.1863 4.33333 33.3538 2.03328 36.7124 4.57722 33.8585 2.66667 33.6372 2.33333 33.5062 1.91696 33.1946 1.66667 32.9214 1.44714 32.5117 1.4905 32.1988 1.33333 31.8419 1.15412 31.5598 0.84588 31.2029 0.666667 30.276 0.20126 28.7397 0.122835 27.8835 0 24.7853 0.111076 21.6771 0.0597376 18.589 0.333333 17.8918 0.395066 17.2612 0.777743 16.5973 1L15.6015 1.33333C15.2695 1.44441 14.8968 1.47181 14.6056 1.66667 14.2737 1.88892 13.9666 2.15412 13.6098 2.33333 12.0841 3.09942 13.8864 2.61113 13.9417 2.66667Z" stroke="#000000" stroke-miterlimit="8" fill="#D9D9D9" fill-rule="evenodd" transform="matrix(1.00033 0 -0 1 193.5 93.5)"/></g></svg>