<svg width="301" height="250" xmlns="http://www.w3.org/2000/svg" xmlns:xlink="http://www.w3.org/1999/xlink" overflow="hidden"><defs><clipPath id="clip0"><path d="M0 0 301 0 301 250 0 250Z" fill-rule="evenodd" clip-rule="evenodd"/></clipPath></defs><g clip-path="url(#clip0)"><rect x="0" y="0" width="300.901" height="250" fill="#D3D3C3" transform="scale(1.00033 1)"/><path d="M13.2418 4.74576 13.2418 4.74576C12.4696 5.87567 12.0456 7.37051 10.9252 8.13559L8.93948 9.49152C8.60853 9.71755 8.32397 10.0406 7.94664 10.1695L6.95381 10.5085C6.68467 11.3356 6.60254 11.8852 5.96097 12.5424 5.67975 12.8304 5.29908 12.9943 4.96814 13.2203 3.20313 15.9322 5.51975 12.6553 3.31341 14.9153 3.03219 15.2033 2.96214 15.6777 2.65152 15.9322 2.37916 16.1555 1.97066 16.1114 1.65869 16.2712 1.30293 16.4534 0.996796 16.7231 0.665851 16.9492 0.445186 17.6271-0.0495115 18.2705 0.00396092 18.983 0.114241 20.4519 0.156456 21.928 0.334906 23.3898 0.378163 23.7444 0.581213 24.0601 0.665851 24.4068 0.802294 24.9657 0.848783 25.5459 0.996796 26.1017 1.18035 26.7912 1.27166 27.541 1.65869 28.1356 2.09991 28.8136 2.73095 29.3965 2.98247 30.1695 3.43922 31.5729 3.02312 30.9883 4.30625 31.8644 4.41653 32.2034 4.39047 32.6286 4.63719 32.8814 4.88392 33.1341 5.31805 33.0605 5.63003 33.2203 5.98578 33.4026 6.2594 33.7328 6.62286 33.8983 7.26047 34.1885 7.94664 34.3502 8.60853 34.5763 8.93948 34.6892 9.31108 34.7171 9.60137 34.9153 10.2633 35.3672 10.8324 36.0136 11.587 36.2712 12.2489 36.4972 12.9922 36.5527 13.5727 36.9492 13.9037 37.1752 14.2098 37.4449 14.5655 37.6271 14.8775 37.7869 15.2464 37.8063 15.5584 37.9661 15.9141 38.1483 16.1955 38.4618 16.5512 38.6441 16.8632 38.8039 17.2321 38.8232 17.5441 38.9831 20.1102 40.2973 17.0342 39.148 19.5297 40 23.1701 39.887 26.8196 39.9472 30.4509 39.661 31.1466 39.6062 31.7398 39.0187 32.4366 38.9831L39.0555 38.6441C39.4967 38.5311 39.9436 38.439 40.3793 38.3051 41.3817 37.9971 42.3649 37.6271 43.3578 37.2881L45.3434 36.6102C45.6744 36.4972 46.046 36.4693 46.3363 36.2712L47.3291 35.5932C48.8464 33.262 48.4014 34.3323 48.9838 32.5424 48.6119 26.0662 49.2469 28.6052 47.991 24.7458 47.8807 24.4068 47.8535 24.0262 47.6601 23.7288L46.3363 21.6949C46.1156 21.3559 45.8002 21.0645 45.6744 20.678 45.5641 20.339 45.4995 19.9806 45.3434 19.661 45.1655 19.2966 44.8431 19.0164 44.6816 18.6441L43.6887 15.5932 43.3578 14.5763C43.2475 14.2373 43.0952 13.9097 43.0268 13.5593 42.8492 12.6497 42.5139 10.5678 42.034 9.83051 41.8133 9.49152 41.5337 9.18585 41.3721 8.81356 40.8478 7.60518 40.9471 6.68336 40.0483 5.76271 39.7671 5.47466 39.361 5.34558 39.0555 5.08475 37.9576 4.14766 38.3023 4.02103 37.0698 3.38983 36.7578 3.23 36.389 3.21068 36.077 3.05085 35.7212 2.8686 35.4476 2.53837 35.0841 2.37288 34.4465 2.08269 33.7604 1.92094 33.0985 1.69492L32.1056 1.35593 29.1271 0.338983 28.1343 0C25.2661 0.112959 22.3933 0.136661 19.5297 0.338983 18.5648 0.4071 18.3651 0.935486 17.5441 1.35593 17.2321 1.51576 16.8822 1.58196 16.5512 1.69492 15.9629 2.59891 15.7785 3.02608 14.8965 3.72881 12.819 5.3839 13.5176 4.57622 13.2418 4.74576Z" stroke="#000000" stroke-miterlimit="8" fill="#D9D9D9" fill-rule="evenodd" transform="matrix(1.00033 0 -0 1 214.5 87.5)"/><path d="M23.2227 0 23.2227 0C21.7459 0.111836 18.6407 0.219931 16.8523 0.66 16.1666 0.82869 15.5112 1.09997 14.8406 1.32L11.8231 2.31 9.81139 2.97C9.4761 3.07997 9.09963 3.10709 8.80554 3.3 8.47025 3.52004 8.16792 3.7989 7.79969 3.96 7.15373 4.2425 6.45855 4.39997 5.78799 4.62 5.45271 4.72997 5.07624 4.75709 4.78214 4.95 3.48219 5.80291 4.15857 5.48455 2.77044 5.94 1.92775 8.42836 3.06454 5.36118 1.76459 7.92 1.60651 8.23109 1.65012 8.63842 1.42931 8.91 1.17756 9.21974 0.758743 9.34997 0.42346 9.57-0.16611 13.0515-0.115844 11.8514 0.42346 17.16 0.458625 17.5061 0.587141 17.8459 0.758743 18.15 1.1501 18.8434 1.84506 19.3775 2.09988 20.13 2.56262 21.4963 2.14106 20.9271 3.44101 21.78 4.19605 24.0095 3.14891 21.5929 4.78214 23.43 6.99744 25.9219 5.06135 25.0616 7.12912 25.74 7.36831 26.4462 7.52322 27.1932 8.13497 27.72 10.9541 30.1479 9.15698 28.388 11.1525 29.37 11.5129 29.5474 11.7901 29.8689 12.1584 30.03 12.8043 30.3125 14.1701 30.69 14.1701 30.69 14.5336 31.7636 14.3243 31.8208 15.5112 32.34 16.1572 32.6225 17.5229 33 17.5229 33 19.5346 32.89 21.5523 32.858 23.558 32.67 25.5776 32.4807 23.6478 32.3261 25.2344 31.35 25.4244 31.2332 28.033 30.4111 28.5872 30.36 31.7108 30.0718 37.9752 29.7 37.9752 29.7 39.5691 28.6541 38.8535 29.4163 39.6516 27.06L39.9869 26.07C39.7022 21.8664 39.735 21.5291 39.3163 17.82 39.1205 16.0857 39.099 15.347 38.6457 13.86 38.4427 13.1937 38.1987 12.54 37.9752 11.88 37.8634 11.55 37.8359 11.1795 37.6399 10.89L36.2987 8.91C36.0752 8.58 35.7556 8.29625 35.6282 7.92 35.0381 6.1775 35.4889 7.21947 33.9518 4.95 33.7282 4.62 33.6165 4.18004 33.2812 3.96L31.2695 2.64C31.0459 2.31 30.9136 1.89779 30.5989 1.65 30.323 1.43267 29.936 1.4044 29.5931 1.32 29.0403 1.18395 28.4773 1.0903 27.9167 0.99 25.8705 0.62383 24.005 0.164948 23.2227 0Z" stroke="#000000" stroke-miterlimit="8" fill="#D9D9D9" fill-rule="evenodd" transform="matrix(1.00033 0 -0 1 21.5 162.5)"/><path d="M19.6602 0 19.6602 0C18.8693 0.578722 18.0139 1.07466 17.2874 1.73606 13.8977 4.82235 19.4342 0.848726 15.5926 3.47211L14.2367 5.55538C14.0107 5.90259 13.8977 6.3655 13.5588 6.59701L12.5418 7.29144 11.5249 10.4163 11.186 11.458C11.073 12.8468 11.0268 14.2431 10.847 15.6245 10.6704 16.9812 10.3743 16.4538 9.8301 17.7078 9.53992 18.3767 9.37817 19.0966 9.15216 19.791L7.45731 24.9992 6.77938 27.0825C6.66642 27.4297 6.5271 27.769 6.44041 28.1241L6.10144 29.513C5.98849 30.5546 5.93073 31.6041 5.76247 32.6379 5.70375 32.9988 5.51019 33.3244 5.4235 33.6795 5.05998 35.1691 5.04781 35.951 4.74556 37.4988 4.65418 37.9668 4.48998 38.4182 4.4066 38.8877 4.06645 40.8037 3.99097 42.9426 3.38969 44.7903 1.93527 49.2595 3.33097 44.6834 2.37278 48.6096 2.28609 48.9647 2.13193 49.2993 2.03381 49.6512 1.90581 50.1101 1.8078 50.5771 1.69484 51.0401 1.56043 52.4174 1.31669 55.4075 1.01691 56.9426 0.946871 57.3016 0.764628 57.6292 0.677938 57.9843 0.538186 58.5568 0.451923 59.1416 0.338969 59.7203 0.101851 63.6066-0.28783 65.457 0.338969 69.095 0.463133 69.8159 0.6205 70.5693 1.01691 71.1783L2.37278 73.2616C3.27673 74.6504 2.71175 74.0717 4.06763 74.9976 5.87542 77.7753 3.50264 74.4189 5.76247 76.7337 7.29568 78.3042 5.47763 77.4466 7.45731 78.1225 9.01134 80.5104 8.04023 79.9419 9.8301 80.553 11.3841 82.9408 10.413 82.3724 12.2029 82.9835 13.7848 85.414 12.8808 84.6038 14.5757 85.7612 14.8017 86.1084 14.947 86.528 15.2536 86.8028 16.2342 87.6817 17.9597 88.7311 19.3212 88.8861L22.3719 89.2333C23.9347 89.7668 23.846 89.8122 26.1006 89.9277 29.7135 90.1127 33.3319 90.1592 36.9476 90.2749 37.6255 90.5064 38.2881 91.1468 38.9814 90.9694 39.6899 90.7879 41.3722 90.3336 42.0321 90.2749 44.0615 90.0942 46.0998 90.0434 48.1336 89.9277 48.1453 89.9248 50.3443 89.3993 50.5064 89.2333 53.226 86.4475 50.5781 87.5884 52.8791 86.8028L54.235 84.7195C54.461 84.3723 54.7841 84.0738 54.913 83.6779L55.9299 80.553 56.2688 79.5114C56.3818 79.1642 56.5211 78.8248 56.6078 78.4697 56.7208 78.0068 56.8129 77.538 56.9468 77.0809 57.1521 76.3798 57.3987 75.692 57.6247 74.9976L58.3026 72.9144C58.4156 72.5671 58.5549 72.2278 58.6416 71.8727L58.9806 70.4839C58.8676 65.7386 58.8473 60.9902 58.6416 56.2482 58.6209 55.7715 58.4365 55.3165 58.3026 54.8594 58.0973 54.1583 57.8507 53.4705 57.6247 52.7761L56.9468 50.6928 56.6078 49.6512C56.4948 49.304 56.3555 48.9647 56.2688 48.6096 56.1559 48.1467 56.0637 47.6778 55.9299 47.2207 55.7246 46.5196 55.4252 45.8476 55.2519 45.1375 55.0624 44.3611 54.5651 42.1726 54.235 41.6653L52.8791 39.5821C52.6531 39.2349 52.3301 38.9363 52.2012 38.5404 52.0882 38.1932 52.0855 37.7846 51.8622 37.4988 51.6077 37.1729 51.1843 37.0359 50.8453 36.8044 49.0375 34.0267 51.4103 37.3831 49.1505 35.0683 47.6173 33.4978 49.4353 34.3554 47.4556 33.6795 47.1167 33.7952 46.5714 34.3665 46.4387 34.0267 46.2218 33.4712 46.8799 31.6294 47.1167 30.9018 46.881 28.4888 46.9917 27.9288 46.4387 26.0408 46.2334 25.3398 45.9868 24.652 45.7608 23.9576L45.0829 21.8743 44.7439 20.8327C44.6309 20.4855 44.4916 20.1461 44.4049 19.791 44.1002 18.5425 43.9421 17.9885 43.727 16.6661 43.5957 15.8589 43.5447 15.0381 43.388 14.2357 43.318 13.8767 43.2723 13.4798 43.049 13.194 42.7945 12.8681 42.3711 12.7311 42.0321 12.4996 41.8061 12.1524 41.6422 11.753 41.3542 11.458 41.0662 11.1629 40.5918 11.0894 40.3373 10.7635 38.4661 8.36774 41.8957 11.0176 38.9814 9.02749 38.8685 8.68028 38.8952 8.24471 38.6425 7.98586 38.0664 7.39576 36.6086 6.59701 36.6086 6.59701 36.3853 5.91079 36.1891 5.00323 35.5917 4.51375 35.3128 4.28508 34.8944 4.33024 34.5748 4.16653 34.2104 3.97986 33.9302 3.64162 33.5579 3.47211L30.5072 2.43048 29.4903 2.08327C29.1513 1.96757 28.7707 1.93902 28.4734 1.73606 26.8619 0.635588 27.843 1.17363 25.4227 0.347211L24.4058 0C23.9713 0.111217 22.5193 0.445415 22.033 0.694422 21.2664 1.08702 20.0556 0.115701 19.6602 0Z" stroke="#000000" stroke-miterlimit="8" fill="#D9D9D9" fill-rule="evenodd" transform="matrix(1.00033 0 -0 1 57.5 105.5)"/><path d="M60.9559 0 60.9559 0 57.9416 0.337121C57.1582 0.435656 56.3866 0.674243 55.5971 0.674243 53.473 0.674243 51.3547 0.44946 49.2336 0.337121 48.6511 0.420897 46.6938 0.558719 45.8844 1.01136 45.1807 1.40487 44.6386 2.10364 43.8748 2.35985L41.8653 3.03409C41.5304 3.14643 41.2121 3.33904 40.8605 3.37121L37.1764 3.70833C36.7299 3.82067 36.2776 3.91231 35.8367 4.04546 35.1604 4.24964 34.5196 4.58028 33.8272 4.7197 32.9284 4.90063 30.8715 5.24221 30.143 5.73106 29.0421 6.46976 29.3468 6.39352 28.1335 6.74243 24.5903 7.76144 29.5598 6.15154 24.7843 7.75379 24.4493 7.86613 24.0733 7.89384 23.7795 8.09091 20.9 10.0232 24.5432 7.70654 21.77 9.10228 19.173 10.4094 22.2859 9.26632 19.7604 10.1136 16.6069 13.2879 21.6638 8.49917 16.7461 11.7992 13.8666 13.7315 17.5098 11.4149 14.7366 12.8106 14.3766 12.9919 14.0918 13.3036 13.7318 13.4849 10.9586 14.8806 14.6018 12.564 11.7223 14.4962 10.6059 16.1818 11.3874 15.2828 9.0429 16.8561L8.03814 17.5303C7.81482 17.8674 7.68264 18.2885 7.36829 18.5417 7.09265 18.7637 6.61321 18.6275 6.36352 18.8788 6.11384 19.1301 6.18652 19.5724 6.0286 19.8902 5.47036 21.0139 5.35876 20.9015 4.35399 21.5758 4.13067 21.9129 3.84765 22.2169 3.68415 22.5871 3.39743 23.2366 3.40598 24.0185 3.0143 24.6099 1.09464 27.5083 3.39617 23.8411 2.00953 26.6326 1.82947 26.995 1.50319 27.2737 1.33969 27.6439L0.334922 30.678 0 31.6894C0.111606 36.6339 0.130382 41.5813 0.334922 46.5227 0.358973 47.105 1.26374 49.6646 1.33969 49.894L2.34446 52.928C2.45606 53.2652 2.48359 53.6437 2.67938 53.9394 2.9027 54.2765 3.16916 54.5884 3.34922 54.9508 3.50714 55.2686 3.51273 55.6515 3.68415 55.9621 4.07508 56.6705 4.57731 57.3106 5.02384 57.9849 5.24715 58.322 5.35876 58.7715 5.69368 58.9962L6.69845 59.6705 8.03814 61.6932C8.26145 62.0303 8.42338 62.4181 8.70798 62.7046L9.71275 63.7159C9.82435 64.0531 9.79798 64.476 10.0477 64.7273 10.6169 65.3002 12.0572 66.0758 12.0572 66.0758 12.2805 66.4129 12.4127 66.834 12.727 67.0871 13.0027 67.3092 13.4821 67.1729 13.7318 67.4243 17.6393 71.3574 13.2295 68.2108 16.0763 70.1212 17.6117 72.4397 16.6522 71.8877 18.4207 72.4811 19.5371 74.1667 18.7557 73.2677 21.1001 74.8409L22.1049 75.5152C22.4398 75.74 22.7278 76.0613 23.1096 76.1894 23.4446 76.3018 23.8058 76.354 24.1144 76.5265 24.8181 76.92 25.3602 77.6188 26.1239 77.875 28.6494 78.7223 25.5365 77.5793 28.1335 78.8864 28.4492 79.0453 28.8296 79.051 29.1382 79.2235 29.842 79.617 30.3841 80.3158 31.1478 80.572 33.6733 81.4193 30.5603 80.2763 33.1573 81.5834 33.473 81.7423 33.8534 81.7479 34.1621 81.9205 34.8658 82.314 35.4079 83.0128 36.1716 83.269 36.5065 83.3813 36.8607 83.4471 37.1764 83.6061 37.5364 83.7873 37.8211 84.0991 38.1811 84.2803 38.4969 84.4393 38.8702 84.4585 39.1859 84.6175 39.5459 84.7987 39.8124 85.1532 40.1907 85.2917 40.6819 85.4716 44.2003 86.1844 44.8796 86.6402 46.4613 87.7016 45.3436 87.137 47.559 87.6515 48.456 87.8599 49.3183 88.2949 50.2384 88.3258L60.286 88.6629C63.5236 88.5506 66.7593 88.3258 69.9988 88.3258 72.792 88.3258 75.5796 88.5859 78.3718 88.6629L94.4481 89C97.574 88.8877 100.704 88.8656 103.826 88.6629 104.178 88.6401 104.491 88.4234 104.831 88.3258 105.273 88.1985 105.728 88.116 106.17 87.9887 106.51 87.8911 106.836 87.7491 107.175 87.6515 107.618 87.5242 108.074 87.4476 108.515 87.3144 109.191 87.1102 109.937 87.0344 110.524 86.6402 111.823 85.7689 111.147 86.0941 112.534 85.6288 112.757 85.2917 112.889 84.8706 113.204 84.6175 113.479 84.3954 113.9 84.4529 114.209 84.2803 114.912 83.8868 115.548 83.3813 116.218 82.9318L119.232 80.9091 120.237 80.2349C120.572 80.0101 120.957 79.8471 121.242 79.5606 122.531 78.2628 121.853 78.8138 123.251 77.875L124.591 73.8296C124.703 73.4925 124.73 73.1139 124.926 72.8182 125.149 72.4811 125.432 72.1771 125.596 71.8068 125.883 71.1573 126.042 70.4584 126.266 69.7841L126.601 68.7728C126.712 66.1881 126.936 63.606 126.936 61.019 126.936 55.2386 127.149 53.8967 126.266 49.894 126.166 49.4416 126.063 48.9893 125.931 48.5455 125.626 47.5243 125.261 46.5227 124.926 45.5114 124.653 44.686 124.439 43.8806 123.921 43.1515 123.646 42.7635 123.192 42.5281 122.916 42.1402 122.626 41.7313 122.494 41.228 122.247 40.7917 122.047 40.4399 121.777 40.1321 121.577 39.7803 121.227 39.1634 120.781 37.968 120.237 37.4205 119.953 37.134 119.567 36.971 119.232 36.7462 118.618 34.8919 119.266 36.5534 118.228 34.7235 116.168 31.0952 119.495 36.3005 116.218 31.3523 115.995 31.0152 115.676 30.7253 115.548 30.3409 115.437 30.0038 115.434 29.607 115.213 29.3296 114.962 29.0131 114.543 28.8801 114.209 28.6553 113.367 26.1133 114.502 29.2466 113.204 26.6326 112.234 24.681 113.769 26.527 111.864 24.6099 111.569 23.7193 111.053 21.8655 110.189 21.5758L109.185 21.2386C108.964 20.5724 108.77 19.6912 108.18 19.2159 107.904 18.9939 107.51 18.9911 107.175 18.8788 104.691 15.1277 107.015 17.7405 104.831 16.5189 104.127 16.1254 102.821 15.1705 102.821 15.1705 101.035 12.4735 103.379 15.7324 101.147 13.4849 100.187 12.5187 100.687 12.5589 100.142 11.4621 99.8329 10.8402 99.0227 9.8122 98.4672 9.4394 98.1734 9.24233 97.7973 9.21461 97.4624 9.10228 96.7217 8.35668 96.3855 7.88598 95.4529 7.41667 95.1372 7.25772 94.7568 7.25209 94.4481 7.07955 93.7444 6.68605 93.1084 6.18052 92.4386 5.73106 92.1037 5.50628 91.8157 5.18498 91.4338 5.05682 90.764 4.83204 90.1167 4.52199 89.4243 4.38258 88.2732 4.15089 87.5136 4.02571 86.41 3.70833 86.0705 3.61075 85.7498 3.4483 85.4052 3.37121 84.7423 3.22288 84.0585 3.18243 83.3957 3.03409 83.051 2.95701 82.7383 2.76057 82.3909 2.69697 79.3091 2.13294 74.4775 2.13082 72.0083 2.02273 70.9507 1.80984 69.3648 1.47176 68.3242 1.34849 67.0994 1.20344 65.8716 1.07337 64.64 1.01136 63.6365 0.960822 62.6305 1.01136 60.9559 0Z" stroke="#000000" stroke-miterlimit="8" fill="#A6A6A6" fill-rule="evenodd" transform="matrix(1.00033 0 -0 1 75.5 41.5)"/><path d="M84.6389 0.331776 84.6389 0.331776C83.6392 0.221219 82.6457 0 81.6399 0 81.0736 0 80.5324 0.239087 79.9738 0.331776 79.3541 0.4346 75.4567 0.971397 74.9754 0.995327 71.4237 1.17213 67.8667 1.21655 64.3122 1.3271 62.6509 1.87842 62.4908 1.98815 60.98 2.32243 60.4271 2.44479 59.8799 2.63477 59.3139 2.6542 53.4294 2.8562 47.54 2.87542 41.653 2.98598 38.0072 4.19594 43.432 2.16924 39.9869 4.31308 39.3912 4.68384 38.654 4.75541 37.9875 4.97663 35.1274 5.92588 39.6801 4.47233 34.9885 5.64018 34.307 5.80978 33.6556 6.08252 32.9892 6.30374 30.4765 7.13762 33.5737 6.01271 30.9898 7.29906 30.6757 7.45549 30.3043 7.47441 29.9902 7.63084 29.632 7.80921 29.3565 8.13242 28.9905 8.29439 28.3485 8.57841 27.6576 8.73672 26.9911 8.95794L25.9915 9.28972C25.6582 9.40027 25.3326 9.53664 24.9918 9.62149 24.5475 9.73205 24.0976 9.82223 23.6589 9.95327L20.6599 10.9486C20.3267 11.0591 19.9525 11.0864 19.6602 11.2804 19.327 11.5016 19.0265 11.782 18.6605 11.9439 18.0185 12.2279 17.2457 12.2195 16.6612 12.6075L14.6619 13.9346 13.6622 14.5981C13.44 14.9299 13.2972 15.3309 12.9957 15.5935 12.393 16.1186 10.9964 16.9206 10.9964 16.9206 10.2694 19.0922 11.2791 16.9608 9.6635 18.2477 7.51029 19.9628 10.51 18.7409 7.99738 19.5748 7.77519 19.9065 7.61409 20.2882 7.33093 20.5701 7.04777 20.852 6.595 20.9335 6.33126 21.2336 5.80376 21.8338 5.44262 22.5607 4.99836 23.2243L4.33191 24.2196C4.10973 24.5514 3.79214 24.8367 3.66546 25.2149L2.66579 28.2009 1.66612 31.1869 1.3329 32.1822 0.999672 33.1776C0.888632 34.8364 0.88244 36.5056 0.666448 38.1542 0.547957 39.0585 0 40.8084 0 40.8084 0.11104 42.3567 0.101909 43.9182 0.333224 45.4533 0.733093 48.1075 0.966402 46.6145 1.3329 48.4392 1.73497 50.4411 1.48697 49.5631 1.99934 51.0934 2.11038 51.8675 2.1785 52.6491 2.33257 53.4159 2.40142 53.7588 2.56934 54.0749 2.66579 54.4112 2.79163 54.8497 2.86741 55.3015 2.99902 55.7383 3.20084 56.4082 3.44328 57.0654 3.66546 57.7289 3.93645 58.5385 4.01915 59.0764 4.66514 59.7196 4.9483 60.0015 5.33158 60.1619 5.66481 60.3831 5.93579 61.1927 6.0185 61.7306 6.66448 62.3738 6.94764 62.6557 7.33093 62.8161 7.66415 63.0374 8.88601 64.8622 7.66415 63.3139 9.33027 64.6962 10.4357 65.6134 10.0887 65.7373 11.3296 66.3551 11.6437 66.5115 12.0152 66.5304 12.3293 66.6869 12.6875 66.8653 12.963 67.1885 13.329 67.3504 13.971 67.6345 14.6619 67.7928 15.3283 68.014L17.3276 68.6775 20.3267 69.6729C20.6599 69.7834 20.9819 69.9361 21.3263 70.0046 21.8817 70.1152 22.443 70.1996 22.9925 70.3364 23.3332 70.4213 23.6513 70.5833 23.9921 70.6682 24.5416 70.805 25.1028 70.8894 25.6582 71L35.3217 70.6682C36.2159 70.62 37.0932 70.3832 37.9875 70.3364 41.317 70.1619 44.652 70.1152 47.9843 70.0046 48.7733 69.9064 51.6885 69.5803 52.6494 69.3411 53.331 69.1715 53.9823 68.8988 54.6487 68.6775L55.6484 68.3458C57.0923 68.4563 58.5332 68.6199 59.9803 68.6775 73.2215 69.2049 68.3614 67.6989 73.3093 69.3411 78.4187 69.2305 83.5269 69.0093 88.6376 69.0093 99.9826 69.0093 91.5706 69.2179 97.9678 69.6729 100.186 69.8307 102.411 69.8941 104.632 70.0046 105.123 69.9558 107.91 69.9244 108.964 69.3411 112.84 67.1972 109.071 68.6422 112.963 67.3504L115.962 66.3551C116.295 66.2446 116.669 66.2173 116.962 66.0233 119.827 64.1217 116.202 66.4016 118.961 65.028 119.319 64.8496 119.602 64.5428 119.961 64.3645 120.275 64.208 120.646 64.1891 120.96 64.0327 123.544 62.7463 120.447 63.8712 122.96 63.0374 123.182 62.7056 123.313 62.2911 123.626 62.042 123.9 61.8235 124.377 61.9576 124.626 61.7103 126.403 59.9408 123.293 61.2679 125.959 60.3831 126.181 60.0514 126.462 59.7522 126.625 59.3878 127.153 58.2051 127.053 57.3029 127.958 56.4018 128.241 56.1199 128.624 55.9595 128.958 55.7383 129.069 55.4065 129.12 55.0487 129.291 54.743L131.29 51.757 133.956 47.7757 134.622 46.7804C134.845 46.4486 134.956 46.0062 135.289 45.785L136.289 45.1215 137.288 42.1355 137.622 41.1402C137.733 40.8084 137.886 40.4878 137.955 40.1448 138.357 38.143 138.109 39.021 138.621 37.4906 138.732 33.8411 138.954 30.1932 138.954 26.542 138.954 24.6587 138.866 22.7693 138.621 20.9019 138.53 20.2083 138.539 19.2992 137.955 18.9112L136.955 18.2477C136.733 17.5841 136.678 16.8389 136.289 16.257 136.066 15.9252 135.801 15.6183 135.622 15.2617 135.465 14.9489 135.508 14.5394 135.289 14.2663 135.039 13.955 134.622 13.824 134.289 13.6028 134.018 12.7933 133.936 12.2553 133.29 11.6121 133.006 11.3302 132.623 11.1698 132.29 10.9486 131.996 10.0722 131.483 8.24778 130.624 7.96261L129.624 7.63084C129.402 7.29906 129.27 6.88463 128.958 6.63551 128.683 6.41701 128.272 6.46017 127.958 6.30374 127.6 6.12536 127.324 5.80215 126.958 5.64018 126.316 5.35616 125.625 5.19785 124.959 4.97663L123.959 4.64486C123.626 4.5343 123.3 4.39793 122.96 4.31308 121.343 3.91077 120.059 3.56876 118.295 3.31776 117.517 3.2072 116.732 3.13938 115.962 2.98598 115.064 2.80708 114.2 2.47238 113.296 2.32243 112.63 2.21187 111.961 2.11459 111.297 1.99065 110.183 1.78281 109.089 1.46702 107.965 1.3271 107.076 1.21655 106.194 1.0227 105.299 0.995327 98.9695 0.801382 92.6366 0.752373 86.305 0.663551 84.7501 0.641711 84.9166 0.387054 84.6389 0.331776Z" stroke="#000000" stroke-miterlimit="8" fill="#595959" fill-rule="evenodd" transform="matrix(1.00033 0 -0 1 131.5 126.5)"/></g></svg>