<svg width="301" height="250" xmlns="http://www.w3.org/2000/svg" xmlns:xlink="http://www.w3.org/1999/xlink" overflow="hidden"><defs><clipPath id="clip0"><path d="M0 0 301 0 301 250 0 250Z" fill-rule="evenodd" clip-rule="evenodd"/></clipPath></defs><g clip-path="url(#clip0)"><rect x="0" y="0" width="300.901" height="250" fill="#D3D3C3" transform="scale(1.00033 1)"/><path d="M58.3287 21.2259 58.3287 21.2259C58.0953 19.0906 58.1723 18.5624 57.6659 16.846 57.4651 16.1657 57.003 14.8245 57.003 14.8245 56.8926 12.0168 56.8686 9.20422 56.6716 6.40147 56.6468 6.04726 56.5873 5.64189 56.3402 5.39071 56.0931 5.13954 55.6584 5.21265 55.346 5.05379 54.9897 4.87265 54.708 4.5611 54.3517 4.37995 54.0393 4.2211 53.6934 4.14056 53.3575 4.04304 50.9266 3.33694 50.6414 3.58981 47.0606 3.3692L41.0952 3.03228 35.7926 2.69536C35.3508 2.58309 34.9033 2.49151 34.467 2.35844L31.4842 1.34768 30.49 1.01076C30.1586 0.898488 29.8424 0.717877 29.4958 0.673839 25.8518 0.210747 27.7296 0.436881 23.8617 0 21.3209 0.112271 18.775 0.138588 16.2392 0.33692 15.8909 0.364192 15.5574 0.514983 15.245 0.673839 14.8887 0.85498 14.6147 1.1832 14.2508 1.34768L11.268 2.35844C10.9366 2.47071 10.5645 2.4984 10.2738 2.69536L8.28533 4.04304C8.06435 4.37995 7.90412 4.76749 7.6225 5.05379 7.34088 5.3401 6.87711 5.41141 6.62826 5.72763 6.41 6.00492 6.46647 6.4279 6.29685 6.73839 5.91001 7.44629 5.41304 8.08607 4.9712 8.75991 4.75022 9.09683 4.43436 9.38653 4.30837 9.77067 4.19793 10.1076 4.14658 10.4709 3.97696 10.7814 3.59012 11.4893 3.09315 12.1291 2.6513 12.8029 2.43033 13.1399 2.11447 13.4296 1.98848 13.8137 1.58525 15.0436 1.55414 14.9989 1.32565 16.5091 0.790276 20.0467 1.33891 18.1533 0.662826 20.2152 0.581095 20.7967 0 24.8336 0 25.269 0 27.8545 0.167638 30.438 0.331413 33.0181 0.581512 36.9593 0.512933 34.4301 1.32565 37.735 1.43181 38.1668 1.7508 39.6101 1.98848 40.0934 2.16666 40.4556 2.47312 40.742 2.6513 41.1042 2.80756 41.4218 2.76445 41.8377 2.98272 42.1149 3.23156 42.4312 3.64554 42.5641 3.97696 42.7888 4.19793 43.1257 4.35816 43.5132 4.63978 43.7995 5.42755 44.6004 6.63807 44.8136 7.6225 45.1472L8.61674 45.4841C8.94815 45.5964 9.26641 45.7627 9.61098 45.8211 10.8289 46.0275 12.0522 46.2123 13.2565 46.4949 14.1442 46.7031 15.0436 46.8759 15.9078 47.1687L16.9021 47.5057C18.6696 50.201 16.3497 46.9441 18.5591 49.1903 18.8407 49.4766 18.8331 50.1132 19.222 50.201 20.9507 50.5916 22.7571 50.4257 24.5246 50.5379 28.063 51.2574 26.2896 51.0412 32.4785 50.5379 33.1483 50.4835 33.7976 50.2602 34.467 50.201 37.3514 49.946 45.3707 49.6312 47.7235 49.5272 51.0648 48.3949 45.882 50.1225 50.0434 48.8533 50.7126 48.6493 51.354 48.3517 52.0318 48.1795L54.6831 47.5057C55.0146 47.281 55.3958 47.1181 55.6774 46.8318 55.959 46.5455 56.0292 46.074 56.3402 45.8211 56.613 45.5992 57.003 45.5964 57.3344 45.4841 57.9796 43.5164 57.1611 45.3235 58.6601 43.7995 59.4479 42.9987 59.6576 41.7681 59.9858 40.7673L60.6486 38.7458 60.98 37.735C60.8696 36.275 60.8273 34.808 60.6486 33.355 60.6053 33.0026 60.393 32.691 60.3172 32.3443 60.1713 31.6774 60.0962 30.9966 59.9858 30.3228 59.6213 22.9114 58.6049 22.742 58.3287 21.2259Z" stroke="#000000" stroke-miterlimit="8" fill="#595959" fill-rule="evenodd" transform="matrix(1.00033 0 -0 1 154.5 83.5)"/><path d="M18.9724 0 18.9724 0C17.9739 0.216251 16.9885 0.50084 15.977 0.648651 14.7653 0.825779 13.5228 0.76551 12.3161 0.972976 11.6251 1.09178 10.9999 1.45584 10.3192 1.62163 6.97593 2.43607 8.52449 1.98834 5.65976 2.91893L4.66131 3.24325C4.32849 3.35133 3.9548 3.37799 3.66286 3.56758L1.66597 4.86488 0.667519 5.51353C-0.0936077 7.73876-0.202939 6.98551 0.334703 9.08111 0.41982 9.41279 0.4194 9.8123 0.667519 10.0541 0.915637 10.2959 1.35223 10.2255 1.66597 10.3784 2.02373 10.5528 2.29889 10.8687 2.66441 11.0271 4.24663 11.7124 4.98375 11.7281 6.6582 12L16.6427 11.6757C17.5359 11.63 18.4198 11.4747 19.3052 11.3514 19.9733 11.2584 20.6287 11.0694 21.3021 11.0271 24.0721 10.8529 26.8491 10.8108 29.6225 10.7027 29.9553 10.5947 30.2825 10.4684 30.6209 10.3784 31.5036 10.1439 32.4156 10.0117 33.2835 9.72976L34.2819 9.40544C35.008 7.28256 33.9995 9.36611 35.6132 8.10814 35.9256 7.86461 35.996 7.41076 36.2788 7.13516 36.5616 6.85956 36.9445 6.70276 37.2773 6.48651 37.4992 5.83786 38.1648 5.18921 37.9429 4.54056 37.832 4.21623 37.8046 3.85207 37.6101 3.56758 37.349 3.18595 37.0033 2.84906 36.6116 2.5946 36.3124 2.40021 34.4761 1.99999 34.2819 1.94595 33.9446 1.85208 33.6208 1.7155 33.2835 1.62163 31.9891 1.26124 31.0366 1.10424 29.6225 0.972976 28.0724 0.82915 26.5163 0.756725 24.9631 0.648651 21.2321-0.0785532 19.9708 0.108074 18.9724 0Z" stroke="#000000" stroke-miterlimit="8" fill="#A6A6A6" fill-rule="evenodd" transform="matrix(1.00033 0 -0 1 25.5 166.5)"/><path d="M28.4747 0 28.4747 0C24.7578 0.410919 26.419 0.0151181 23.4497 1L20.4348 2C20.0998 2.11108 19.7824 2.31381 19.4298 2.33333L13.3999 2.66667C12.7299 2.88892 12.0751 3.16294 11.3899 3.33333 10.9606 3.44011 9.5255 3.76095 9.0449 4 8.68479 4.17921 8.37491 4.44441 8.03991 4.66667 6.2533 7.33333 8.59827 4.11108 6.36493 6.33333 4.13159 8.55559 7.36992 6.22226 4.68995 8 4.03779 9.94677 4.8652 8.15895 3.34996 9.66667 2.38992 10.6219 2.88994 10.5823 2.34497 11.6667 2.16487 12.025 1.83852 12.3006 1.67498 12.6667 1.3882 13.3089 1.00499 14.6667 1.00499 14.6667 0.893359 16.2223 0.902538 17.7911 0.669993 19.3333 0.56522 20.0282 0 21.3333 0 21.3333 0.11163 26 0.0423098 30.6744 0.334996 35.3333 0.3791 36.0347 1.00499 37.3333 1.00499 37.3333 1.11662 38.2223 1.29388 39.1054 1.33999 40 1.48728 42.8584 1.23374 48.8049 2.00998 52.6667 2.07919 53.0112 2.23334 53.3333 2.34497 53.6667 2.55346 55.5335 2.58828 56.6353 3.01497 58.3333 3.10064 58.6742 3.23833 59 3.34996 59.3333 3.46159 60.6667 3.50728 62.0072 3.68496 63.3333 3.73159 63.6816 3.77021 64.0848 4.01996 64.3334 4.2697 64.5819 4.68995 64.5556 5.02494 64.6667 6.15433 66.3525 5.08181 65.195 6.69993 66 7.06003 66.1792 7.337 66.504 7.70491 66.6667 8.35032 66.952 9.0449 67.1111 9.71489 67.3334 10.0499 67.4444 10.426 67.4718 10.7199 67.6667 12.0187 68.5282 11.3429 68.2066 12.7299 68.6667 14.635 70.5623 12.8006 69.0352 14.7398 70 15.0999 70.1792 15.3769 70.504 15.7448 70.6667 16.3902 70.952 17.1672 70.9435 17.7548 71.3334 18.0898 71.5556 18.3919 71.8373 18.7598 72 19.4052 72.2854 20.0998 72.4444 20.7698 72.6667 21.1048 72.7778 21.4285 72.9311 21.7748 73 22.3331 73.1111 22.8974 73.1959 23.4497 73.3334 23.7923 73.4186 24.1084 73.5978 24.4547 73.6667 25.229 73.8208 26.0208 73.8709 26.7997 74 28.1555 74.2249 29.0883 74.5278 30.4847 74.6667 32.0442 74.8219 33.6113 74.8889 35.1746 75 35.6212 75.1111 36.0736 75.2017 36.5146 75.3334 37.191 75.5352 38.5246 76 38.5246 76 42.9281 74.9046 37.8593 76.0687 48.5745 75.3334 49.5512 75.2664 49.7533 74.7468 50.5844 74.3334 53.3583 72.9533 49.7143 75.2439 52.5944 73.3334 53.5994 73.4444 54.5982 73.6667 55.6094 73.6667 56.4308 73.6667 58.0739 73.2203 58.9593 73 59.2943 72.7778 59.7128 72.6462 59.9643 72.3334 60.185 72.059 60.1414 71.6476 60.2993 71.3334 61.5982 68.7487 60.4623 71.8468 61.3043 69.3334 61.4159 68.3334 61.473 67.3258 61.6393 66.3334 61.8498 65.0766 62.0656 65.4852 62.6443 64.3334 62.8023 64.0191 62.8677 63.6667 62.9793 63.3333 62.8677 55.5556 62.8584 47.7757 62.6443 40 62.619 39.0822 61.2182 37.3716 60.9693 37 60.746 36.6667 60.4267 36.3801 60.2993 36L59.6293 34 59.2943 33C59.1827 32.1111 58.994 31.2285 58.9593 30.3333 58.7705 25.4468 58.9187 20.548 58.6243 15.6667 58.5081 13.7384 58.1538 13.799 56.9494 13 56.2185 10.8182 57.2336 12.9596 55.6094 11.6667 55.295 11.4164 55.2538 10.917 54.9394 10.6667 54.6637 10.4471 54.2502 10.4905 53.9344 10.3333 53.5743 10.1541 53.2994 9.82446 52.9294 9.66667 52.5155 9.49019 50.2125 9.05932 49.9144 9 49.4678 8.33334 49.2444 7.44441 48.5745 7 48.2395 6.77774 47.9374 6.49606 47.5695 6.33333 46.9241 6.04798 46.2295 5.88893 45.5595 5.66667 45.2245 5.55559 44.8971 5.41858 44.5545 5.33333 44.1079 5.22226 43.6556 5.13165 43.2145 5 42.5381 4.79811 41.8745 4.55559 41.2045 4.33333L37.1846 3 32.1596 1.33333 31.1547 1 28.4747 0Z" stroke="#000000" stroke-miterlimit="8" fill="#D9D9D9" fill-rule="evenodd" transform="matrix(1.00033 0 -0 1 59.5 111.5)"/><path d="M72.8979 10.943 72.8979 10.943C72.002 11.2746 71.0814 11.547 70.2104 11.9378 69.8428 12.1027 69.5637 12.4227 69.2026 12.601 68.6656 12.8661 67.3533 13.1226 66.8511 13.2642 66.5106 13.3602 66.1917 13.5333 65.8433 13.5958 62.4693 14.2014 64.1483 13.6001 61.812 14.2591 61.4716 14.355 61.1138 14.4209 60.8042 14.5907 57.3389 16.4911 60.0613 15.4984 57.7808 16.2487 54.6177 19.371 59.69 14.6606 54.7574 17.9067 54.4215 18.1278 54.129 18.4337 53.7496 18.5699 52.8818 18.8814 51.9381 18.9449 51.0621 19.2332 50.7262 19.3437 50.371 19.4084 50.0543 19.5648 48.7942 20.1867 49.2875 20.4676 47.7028 20.5596 44.3473 20.7544 40.9841 20.7807 37.6247 20.8912 36.805 21.1609 36.2603 21.2432 35.6091 21.886 34.0896 23.3859 35.8914 22.5669 33.9294 23.2124 33.7054 23.544 33.5614 23.9448 33.2576 24.2072L30.2341 26.1969 29.2263 26.8601C28.8904 27.0812 28.6016 27.3972 28.2185 27.5233 27.5467 27.7444 26.7922 27.7987 26.2029 28.1865 24.6059 29.2375 25.5781 28.7237 23.1795 29.5129 22.8436 29.6234 22.5249 29.8197 22.1717 29.8445L17.4686 30.1762C16.7967 30.3973 16.0422 30.4516 15.453 30.8394L12.4296 32.829C12.0937 33.0501 11.8048 33.3662 11.4218 33.4922L10.414 33.8238C9.29424 35.4819 10.078 34.5975 7.72651 36.1451L6.7187 36.8083 5.7109 37.4715C5.4869 37.8031 5.32449 38.1845 5.03902 38.4663 4.75356 38.7481 4.28346 38.8183 4.03122 39.1295 3.80998 39.4024 3.85368 39.8117 3.69529 40.1243 3.51467 40.4808 3.18741 40.755 3.02342 41.1192 2.73583 41.758 2.57554 42.4456 2.35154 43.1088 2.2396 43.4404 2.21199 43.8127 2.01561 44.1036L1.34374 45.0984C1.2318 45.6511 1.10166 46.2005 1.0078 46.7565 0.877663 47.5275 0.813545 48.3087 0.67187 49.0777 0.503109 49.9938 0.287793 50.5466 0 51.3989 0.180294 52.2888 0.520673 54.3253 1.0078 55.0466 1.2318 55.3782 1.39421 55.7596 1.67967 56.0414 2.4782 56.8297 3.70523 57.0395 4.70309 57.3679 5.03902 57.4784 5.41622 57.5056 5.7109 57.6995 7.30794 58.7505 6.33568 58.2366 8.73431 59.0259 9.07024 59.1364 9.44744 59.1636 9.74212 59.3575 10.078 59.5786 10.381 59.8588 10.7499 60.0207 11.3971 60.3046 12.1763 60.2961 12.7655 60.6839 13.1015 60.905 13.4044 61.1852 13.7733 61.3471 14.4206 61.631 15.1171 61.7892 15.7889 62.0103L18.8124 63.0052 20.828 63.6684 21.8358 64C22.9555 63.8895 24.0811 63.8255 25.1951 63.6684 25.6522 63.6039 26.0861 63.4262 26.5389 63.3368 28.4238 62.9646 29.5611 62.8948 31.5779 62.6735 34.688 61.6502 31.1653 62.6735 38.6325 62.6735 42.4414 62.6735 46.2471 62.4524 50.0543 62.3419L52.7418 61.6787C53.1897 61.5682 53.6475 61.4913 54.0855 61.3471 54.4215 61.2366 54.7441 61.073 55.0933 61.0155 58.0045 60.5365 57.6467 60.8976 60.1324 60.3523 60.478 60.2765 60.7918 60.0833 61.1402 60.0207 64.1318 59.4838 63.1083 59.9495 65.5073 59.3575 65.8509 59.2727 66.2055 59.1956 66.5151 59.0259 67.221 58.6388 67.7647 57.9515 68.5307 57.6995 69.9216 57.2418 69.2439 57.5617 70.5463 56.7046 71.1376 54.9537 70.5876 55.9037 72.8979 54.3834L73.9057 53.7202C74.1297 53.3886 74.2352 52.9366 74.5776 52.7254L77.601 51.7306 78.6088 51.3989C78.9447 51.2884 79.3219 51.2612 79.6166 51.0673 79.9525 50.8462 80.245 50.5403 80.6244 50.4041 81.4922 50.0927 82.4359 50.0292 83.3119 49.7409 83.6478 49.6304 84.0101 49.579 84.3197 49.4093 85.0255 49.0222 85.6634 48.525 86.3353 48.0829 86.6712 47.8618 86.9601 47.5457 87.3431 47.4197L89.3587 46.7565 90.3665 46.4249C93.6157 44.0193 90.1531 46.3644 92.7181 45.0984 93.0792 44.9201 93.3647 44.6135 93.7259 44.4352 94.0425 44.2789 94.417 44.26 94.7337 44.1036 95.0948 43.9253 95.3804 43.6187 95.7415 43.4404 96.0582 43.284 96.4326 43.2651 96.7493 43.1088 97.1104 42.9305 97.3612 42.5237 97.7571 42.4456 99.0793 42.1846 100.445 42.2245 101.788 42.114 102.46 41.8929 103.303 41.9451 103.804 41.4508L105.82 39.4611C106.105 39.1793 106.517 39.0531 106.827 38.7979 107.192 38.4976 107.42 38.0309 107.835 37.8031 108.454 37.4636 109.851 37.1399 109.851 37.1399L111.194 35.1502C111.418 34.8186 111.739 34.5335 111.866 34.1554 111.978 33.8238 111.981 33.4335 112.202 33.1606 112.455 32.8494 112.874 32.7185 113.21 32.4974 113.967 30.2571 112.917 32.6854 114.554 30.8394 117.297 27.7444 114.638 29.6787 116.905 28.1865 118.831 25.3355 116.267 28.6907 118.585 26.8601 120.756 25.1459 117.732 26.3671 120.265 25.5337 121.161 22.8808 119.817 25.9758 121.608 24.2072 121.859 23.96 121.786 23.525 121.944 23.2124 122.552 22.0125 122.462 22.2685 123.624 21.886 123.736 21.5544 123.788 21.1968 123.96 20.8912 124.352 20.1944 125.048 19.6577 125.304 18.9015 125.577 18.0924 125.66 17.5548 126.312 16.9119 126.597 16.6301 126.983 16.4698 127.319 16.2487 128.263 13.4558 128.074 14.4175 127.319 8.95337 127.265 8.55847 126.963 8.20754 126.647 7.95855 126.371 7.74016 125.976 7.73744 125.64 7.62694 125.416 7.29533 125.283 6.88111 124.968 6.63212 124.691 6.41373 124.27 6.47024 123.96 6.30052 123.254 5.91345 122.616 5.4162 121.944 4.97409L120.937 4.31088C120.601 4.08977 120.312 3.77373 119.929 3.64767L117.913 2.98445C117.577 2.87395 117.253 2.72136 116.905 2.65285 115.946 2.46349 114.831 2.27059 113.882 1.98964L110.859 0.994818C110.523 0.884318 110.204 0.680654 109.851 0.663212L103.132 0.331606 94.3977 0C89.8983 0.403776 91.7315-0.345601 88.6868 1.65803L87.679 2.32124 86.6712 2.98445 85.3275 4.97409C85.1035 5.3057 84.9916 5.7478 84.6556 5.96891L83.6478 6.63212C82.4064 8.47021 83.6862 7.01637 81.9681 7.95855 81.2623 8.34561 80.7186 9.03295 79.9525 9.28497L76.9291 10.2798 74.9135 10.943C73.7995 11.3096 73.2338 10.943 72.8979 10.943Z" stroke="#000000" stroke-miterlimit="8" fill="#A6A6A6" fill-rule="evenodd" transform="matrix(1.00033 0 -0 1 60.5 47.5)"/><path d="M50.3162 0.647477 50.3162 0.647477C48.8722 0.758593 47.4213 0.801128 45.9843 0.98093 45.6358 1.02452 45.3355 1.29684 44.9846 1.31438 40.8785 1.51981 36.7652 1.53672 32.6555 1.64784 29.2959 2.76845 34.5071 1.05865 30.323 2.31474 29.3137 2.61774 28.3237 2.98165 27.324 3.3151 26.9908 3.42622 26.6651 3.56328 26.3243 3.64855L24.9915 3.98201C24.6582 4.20435 24.3578 4.48613 23.9918 4.64891 21.8228 5.61357 20.9559 5.41013 18.3271 5.64927 17.8828 5.76039 17.4038 5.77782 16.9942 5.98273 16.2778 6.34118 15.6613 6.87197 14.9949 7.31654 14.6617 7.53888 14.3751 7.85668 13.9952 7.98345 12.6156 8.44366 13.2879 8.12197 11.9959 8.9838 11.7737 9.31726 11.6126 9.70081 11.3295 9.98416 10.3356 10.9787 9.76664 10.6651 8.33049 10.9845 7.98761 11.0608 7.66405 11.2069 7.33083 11.318 7.10865 11.6514 6.97714 12.068 6.66439 12.3183 6.39015 12.5379 5.91315 12.4032 5.66473 12.6518 2.99121 15.3272 5.59421 14.2315 3.3322 14.986 3.11001 15.3194 2.84491 15.6279 2.66576 15.9863 2.50864 16.3007 2.55199 16.7123 2.33254 16.9867 2.08233 17.2997 1.6661 17.4312 1.33288 17.6536 0.582268 19.9069 1.23916 17.6901 0.666439 21.9885 0.487708 23.3297 0.373731 23.534 0 24.6561 0.223441 28.0101 0.25755 31.4314 1.33288 34.6597 1.57059 35.3732 1.72456 36.128 2.33254 36.6604 2.93527 37.1883 3.76554 37.4275 4.33185 37.9942 4.66507 38.3277 4.95957 38.705 5.33151 38.9946 5.96374 39.4866 6.66439 39.8838 7.33083 40.3284L8.33049 40.9953C8.55267 41.3288 8.68417 41.7453 8.99693 41.9957 9.27116 42.2153 9.6895 42.1585 9.99659 42.3291 10.6967 42.7183 11.3295 43.2184 11.9959 43.6629L12.9956 44.3298 13.9952 44.9967C15.9051 47.8636 13.6153 44.2364 14.9949 46.9975 15.174 47.3559 15.4822 47.6394 15.6613 47.9978 15.8184 48.3122 15.7088 48.7939 15.9945 48.9982 16.5662 49.4068 17.4094 49.2751 17.9939 49.6651 19.9223 50.9516 18.595 50.2921 22.3257 50.6654L24.325 51.3324C24.6582 51.4435 25.0324 51.4709 25.3247 51.6658 25.6579 51.8881 25.9661 52.1534 26.3243 52.3327 26.6385 52.4899 26.9863 52.5696 27.324 52.6662 28.7159 53.0641 29.0852 53.071 30.6562 53.3331L35.9877 52.9996C37.5433 52.8959 39.0938 52.6662 40.6528 52.6662 42.5443 52.6662 44.4292 52.8885 46.3175 52.9996 46.7618 53.1107 47.21 53.2071 47.6504 53.3331 47.9881 53.4296 48.2988 53.6665 48.6501 53.6665 49.4355 53.6665 50.202 53.4198 50.9826 53.3331 52.2019 53.1975 53.4262 53.1107 54.648 52.9996 62.7563 53.1107 70.8698 53.0251 78.973 53.3331 79.675 53.3597 80.9724 54 80.9724 54 82.9717 53.8889 84.977 53.8565 86.9703 53.6665 87.32 53.6332 87.6558 53.4903 87.97 53.3331 88.3282 53.1538 88.5709 52.7036 88.9696 52.6662 92.1786 52.3652 95.4118 52.4438 98.633 52.3327 101.994 50.0905 99.8911 50.9069 105.631 51.3324L109.629 51.6658 114.294 51.9993C115.516 51.8881 116.76 51.923 117.96 51.6658 118.351 51.5818 118.593 51.1617 118.959 50.9989 119.601 50.7134 120.292 50.5543 120.959 50.332 121.292 50.2209 121.666 50.1935 121.958 49.9985L122.958 49.3316C123.847 46.664 122.514 49.7762 124.291 47.9978 124.857 47.4311 125.18 46.664 125.624 45.9971L126.957 43.9964C127.179 43.6629 127.496 43.3762 127.623 42.996L129.289 37.9942 129.956 35.9935C130.067 35.6601 129.997 35.1881 130.289 34.9931L131.288 34.3262C131.511 33.6593 131.99 33.0276 131.955 32.3255 131.566 24.5408 131.843 27.8712 131.288 22.3219 131.248 21.3952 132.271 14.4188 129.622 12.6518L128.623 11.9849C127.024 9.58518 129.288 12.5398 125.957 10.3176 125.624 10.0953 125.323 9.8135 124.957 9.65071 124.315 9.36525 123.542 9.37376 122.958 8.9838 121.037 7.70219 122.89 8.81178 120.959 7.98345 117.527 6.51153 122.177 8.16766 117.627 6.64963L115.627 5.98273C115.294 5.87161 114.978 5.66996 114.628 5.64927L108.963 5.31582C108.63 5.2047 108.309 5.04349 107.963 4.98237 102.946 4.09627 103.867 4.44916 98.9662 3.98201 98.0748 3.89704 97.194 3.70821 96.3005 3.64855 93.8597 3.48577 91.4124 3.44376 88.9696 3.3151L83.6381 2.98165C82.8923 2.87505 79.2649 2.34257 78.6398 2.31474 74.5327 2.1321 70.4204 2.09241 66.3107 1.98129 64.9661 1.6449 62.7379 1.06505 61.6456 0.98093 56.311 0.570284 58.7532 0.807534 54.3148 0.314024 50.9345-0.531635 50.9826 0.591919 50.3162 0.647477Z" stroke="#000000" stroke-miterlimit="8" fill="#D9D9D9" fill-rule="evenodd" transform="matrix(1.00033 0 -0 1 140.5 132.5)"/><path d="M10.0717 1.7033 10.0717 1.7033C9.31178 2.00212 7.31197 2.55297 6.49785 3.4066 4.33187 5.6777 7.47253 3.29308 4.87339 5.1099 4.65676 5.45056 4.52854 5.87609 4.2236 6.13188 3.95622 6.35624 3.55519 6.31192 3.24892 6.47254 2.89968 6.65569 2.59914 6.92672 2.27425 7.15386 2.16598 7.49452 2.10254 7.85471 1.94936 8.17584 1.77468 8.54204 1.45818 8.82369 1.29957 9.19782 1.02144 9.85414 0.649785 11.2418 0.649785 11.2418 0.541522 12.2638 0.486162 13.2935 0.324893 14.3077 0.268612 14.6619 0 14.9706 0 15.3297 0 17.8304 0.134664 20.3315 0.324893 22.8242 0.352214 23.1822 0.566694 23.4978 0.649785 23.8462 0.783733 24.4079 0.901717 24.9756 0.974678 25.5495 1.11855 26.6807 1.13411 27.8282 1.29957 28.9561 1.5337 30.552 1.91426 30.0794 3.57382 30.6594L4.54849 31.0001C7.07058 30.7797 11.3268 30.4644 13.6455 29.9781 14.187 29.8646 14.7372 29.7898 15.2699 29.6374 15.9308 29.4485 16.5396 29.0452 17.2193 28.9561L19.8184 28.6155C20.3495 28.4298 21.4364 28.1496 21.7678 27.5935 22.1309 26.9845 22.4176 25.5495 22.4176 25.5495 22.6464 23.87 22.6496 23.2624 23.0674 21.8022 23.2641 21.1144 23.3372 20.3558 23.7172 19.7583L25.0167 17.7143C25.2334 17.3737 25.543 17.0808 25.6665 16.6923L25.9914 15.6704C25.8831 12.6044 25.9576 9.52539 25.6665 6.47254 25.5273 5.01334 23.825 5.29885 23.0674 4.76924 22.7425 4.5421 22.4495 4.25423 22.0927 4.08792 21.4667 3.7963 20.7132 3.80499 20.1433 3.4066L18.194 2.04396C17.8691 1.81682 17.5897 1.49215 17.2193 1.36264 16.8944 1.24912 16.5509 1.1826 16.2446 1.02198 13.7254-0.298815 16.7451 0.85621 14.2953 0 13.8789 0.109119 12.4871 0.437011 12.021 0.68132 11.6718 0.864472 11.3712 1.1355 11.0463 1.36264 10.3365 2.47915 10.2341 1.64654 10.0717 1.7033Z" stroke="#000000" stroke-miterlimit="8" fill="#A6A6A6" fill-rule="evenodd" transform="matrix(1.00033 0 -0 1 215.5 104.5)"/></g></svg>