<svg width="301" height="250" xmlns="http://www.w3.org/2000/svg" xmlns:xlink="http://www.w3.org/1999/xlink" overflow="hidden"><defs><clipPath id="clip0"><path d="M0 0 301 0 301 250 0 250Z" fill-rule="evenodd" clip-rule="evenodd"/></clipPath></defs><g clip-path="url(#clip0)"><rect x="0" y="0" width="300.901" height="250" fill="#D3D3C3" transform="scale(1.00033 1)"/><path d="M16.9944 1.00961 16.9944 1.00961C17.8831 1.34615 18.901 1.4442 19.6602 2.01923 20.301 2.50458 20.2333 3.78269 20.9931 4.03846L22.9925 4.71153C23.3257 4.82368 23.6457 4.98977 23.9922 5.04807 25.3251 5.27246 26.6799 5.39012 27.9909 5.72115 28.7359 5.90929 30.8363 6.40302 31.3231 6.73076 31.9896 7.17944 32.5626 7.82114 33.3225 8.07691 33.9889 8.3013 34.7373 8.35642 35.3218 8.74999L37.3211 10.0961C37.7654 10.7692 38.5744 11.3104 38.654 12.1154 38.737 12.9528 39.0605 16.6986 39.3205 17.8365 39.4784 18.5278 39.7648 19.1827 39.9869 19.8557 40.098 20.1923 40.1254 20.5702 40.3202 20.8654L40.9866 21.875C40.8756 25.1282 40.9287 28.3913 40.6534 31.6346 40.5934 32.3415 40.3766 33.0635 39.9869 33.6538 39.7648 33.9903 39.7124 34.5801 39.3205 34.6634 37.4695 35.057 35.544 34.8878 33.6557 34.9999L5.99804 34.6634C5.1983 34.618 3.99869 33.3173 3.99869 33.3173L3.33225 31.298C3.22121 30.9615 3.19381 30.5836 2.99902 30.2884 1.27643 27.6789 1.91937 29.0366 0.999674 26.25L0.333225 24.2307 0 23.2211C0.11104 19.6313 0.0294917 16.0302 0.333225 12.4519 0.367439 12.0489 0.69825 11.7087 0.999674 11.4423 1.60242 10.9096 2.99902 10.0961 2.99902 10.0961 3.11006 9.7596 3.08382 9.33742 3.33225 9.08652 3.58067 8.83563 4.12779 9.03861 4.33192 8.74999 4.74029 8.17263 4.77618 7.40383 4.99837 6.73076L5.66482 4.71153C5.77586 4.37499 5.92919 4.0498 5.99804 3.70192 6.10908 3.14099 5.93077 2.42371 6.33127 2.01923 6.82801 1.51755 7.74613 1.73972 8.33061 1.34615 8.66384 1.12176 8.96432 0.83737 9.33029 0.673076 9.97228 0.384978 11.3296 0 11.3296 0 12.5515 0.112144 13.7806 0.161326 14.9951 0.336538 15.3428 0.386674 15.7464 0.422183 15.9948 0.673076 16.2432 0.923969 16.8279 0.953542 16.9944 1.00961Z" stroke="#000000" stroke-miterlimit="8" fill="#D9D9D9" fill-rule="evenodd" transform="matrix(1.00033 0 -0 1 157.5 149.5)"/><path d="M0 13 0 13C0.356579 22.3689-0.57487 18.924 0.989632 23.6667 1.09956 24 1.12667 24.3743 1.31951 24.6667L2.63902 26.6667C2.85897 27 2.9689 27.4444 3.29877 27.6667L5.27804 29C5.60791 29.2223 5.89156 29.54 6.26767 29.6667 6.92742 29.8889 7.66832 29.9435 8.24693 30.3334 8.57681 30.5556 8.87427 30.8373 9.23656 31 9.87211 31.2854 10.5561 31.4444 11.2158 31.6667 11.5457 31.7778 11.9161 31.8052 12.2055 32 15.0416 33.9106 11.4532 31.62 14.1847 33 14.5393 33.1792 14.8197 33.4875 15.1744 33.6667 15.4853 33.8239 15.853 33.8429 16.164 34 16.5186 34.1792 16.799 34.4875 17.1536 34.6667 17.4646 34.8239 17.8323 34.8429 18.1433 35 20.4213 36.151 17.7063 35.3063 20.4524 36 23.2013 35.8889 25.961 35.9345 28.6993 35.6667 29.3915 35.599 30.6786 35 30.6786 35 32.5693 32.1342 30.3025 35.7601 31.6682 33 31.8456 32.6417 32.108 32.3334 32.328 32 32.4379 28.7778 32.5061 25.5538 32.6579 22.3333 32.8309 18.6601 33.3079 18.2847 32.6579 15 31.5362 9.33271 32.6247 16.8994 30.6786 11 28.9765 5.84021 30.9273 11.1695 29.3591 8 29.2035 7.68578 29.198 7.3072 29.0292 7 27.8972 4.94121 28.1657 5.30719 26.7201 4.33334L25.4006 2.33333C25.1806 2 25.0707 1.55559 24.7408 1.33333L22.7615 0C21.943 0.0636221 18.9076-0.0528084 17.4835 0.666667 17.1289 0.84588 16.8736 1.21827 16.4939 1.33333 15.6214 1.5978 10.8367 1.97417 10.5561 2L9.23656 4C9.01661 4.33334 8.90669 4.77775 8.57681 5 7.91705 5.44441 7.34977 6.08 6.59755 6.33334L3.62865 7.33334C3.29877 7.44441 2.92838 7.47182 2.63902 7.66667 1.36003 8.52819 2.0255 8.20662 0.659755 8.66667-0.182965 9.94405 0.109924 12.2778 0 13Z" stroke="#000000" stroke-miterlimit="8" fill="#595959" fill-rule="evenodd" transform="matrix(1.00033 0 -0 1 137.5 42.5)"/><path d="M38.9872 0 38.9872 0C32.1005 0.112985 25.2081 0.0302218 18.3273 0.339061 17.6255 0.370564 16.9944 0.791106 16.328 1.01718L13.329 2.03436C12.9957 2.14735 12.6757 2.31469 12.3293 2.37342 11.6628 2.48641 10.9854 2.54578 10.3299 2.71249 9.64838 2.88581 8.3306 3.39061 8.3306 3.39061 7.99738 3.72967 7.72303 4.14177 7.33093 4.40779 7.03863 4.60599 6.6055 4.52355 6.33126 4.74685 4.17805 6.49961 7.1778 5.2509 4.66514 6.10309 2.88798 8.81558 5.22054 5.53796 2.99902 7.7984 0.777488 10.0588 3.99869 7.68541 1.3329 9.4937 0.521614 11.9702 0.836786 10.8346 0.333224 12.8843 0.222184 13.9015 0 14.9124 0 15.9359 0 19.0222 0.103693 21.5492 0.666448 24.4124 0.756287 24.8693 0.900282 25.3137 0.999672 25.7686 1.20832 26.724 1.4792 28.7044 1.99934 29.4983 2.44361 30.1764 2.57238 31.275 3.33224 31.5326 3.99869 31.7587 4.7471 31.8142 5.33158 32.2108 5.66481 32.4368 5.96529 32.7234 6.33126 32.8889 6.97325 33.1791 7.74612 33.1705 8.3306 33.567 8.66382 33.7931 8.9643 34.0796 9.33027 34.2451 9.97226 34.5354 11.3296 34.9233 11.3296 34.9233 18.0921 34.5185 19.3686 34.2669 27.3244 34.9233 28.0246 34.981 28.6573 35.3753 29.3237 35.6014 31.4339 36.3171 33.7667 35.8274 35.9882 35.9404 39.2094 35.8274 42.4288 35.6386 45.6517 35.6014L94.6356 35.2623C95.3379 35.2483 95.9685 34.8103 96.6349 34.5842L98.6343 33.9061C98.9675 33.7931 99.2832 33.5869 99.634 33.567L105.632 33.2279C106.777 32.9949 107.533 32.869 108.631 32.5498 109.531 32.2883 109.987 32.0042 110.964 31.8717 112.18 31.7067 113.407 31.6456 114.629 31.5326 115.073 31.4197 115.507 31.248 115.962 31.1936 117.4 31.0214 118.87 31.1261 120.294 30.8545 120.688 30.7794 120.96 30.4025 121.294 30.1764 122.662 25.9978 121.638 29.7129 122.293 22.378 122.345 21.8041 122.525 21.2497 122.626 20.6827 122.747 20.0063 122.849 19.3265 122.96 18.6483 122.849 14.6926 122.932 10.7263 122.626 6.78121 122.595 6.37498 122.3 5.97996 121.96 5.76403 121.364 5.38514 120.627 5.31199 119.961 5.08591L116.962 4.06873 114.962 3.39061 113.963 3.05155 97.3014 3.39061C96.1369 3.43364 95.6479 3.77441 94.6356 4.06873 94.1952 4.19677 93.747 4.2948 93.3027 4.40779 91.0812 4.2948 88.8478 4.32812 86.6382 4.06873 85.9404 3.98682 85.3204 3.56393 84.6389 3.39061 84.1946 3.27762 83.7464 3.17959 83.306 3.05155 81.3579 2.48513 83.3173 2.90343 80.9734 2.37342 78.5423 1.82367 76.1186 1.60816 73.6425 1.35624 71.421 1.46923 69.2023 1.6953 66.978 1.6953 62.3115 1.6953 57.6486 1.42128 52.9826 1.35624 49.5396 1.30829 41.3198 0.226076 38.9872 0Z" stroke="#000000" stroke-miterlimit="8" fill="#595959" fill-rule="evenodd" transform="matrix(1.00033 0 -0 1 25.5 147.5)"/><path d="M60.528 0 60.528 0 52.125 0.334783C50.5544 0.415025 48.9918 0.669565 47.4193 0.669565 45.8467 0.669565 44.2822 0.446342 42.7136 0.334783 40.4727 0.446342 38.2276 0.491366 35.9911 0.669565 35.4217 0.714906 34.8617 0.854618 34.3105 1.00435 33.2851 1.28293 32.2938 1.67391 31.2854 2.0087 30.9493 2.12025 30.6296 2.30837 30.2771 2.34348L26.9159 2.67826C26.2436 2.90148 25.4887 2.95631 24.8991 3.34783 24.563 3.57105 24.2599 3.85395 23.8908 4.01739 23.2432 4.30399 22.5463 4.46373 21.874 4.68696L20.8657 5.02174C20.5295 5.1333 20.201 5.2709 19.8573 5.35652 19.4092 5.46808 18.9553 5.55908 18.5128 5.6913 17.4947 5.99551 16.4961 6.36087 15.4877 6.69565L14.4794 7.03043C14.1432 7.14199 13.7658 7.16951 13.471 7.36522L12.4626 8.03478C8.87731 13.3913 13.583 6.91887 9.10142 11.3826 7.84248 12.6365 8.54404 12.2372 7.0847 12.7217 6.86058 13.0565 6.72793 13.4747 6.41245 13.7261 6.18654 13.9061 4.15626 14.3668 4.0596 14.3957 3.3809 14.5984 2.71512 14.842 2.04288 15.0652L1.03451 15.4C0.922507 15.7348 0.856871 16.0888 0.698391 16.4043 0.51768 16.7642 0.0571671 17.0075 0.0261486 17.4087-0.108723 19.1548 0.301292 20.5135 0.698391 22.0956 0.810396 24.5507 0.885243 27.0077 1.03451 29.4609 1.10936 30.6912 1.37063 31.9108 1.37063 33.1435 1.37063 34.9324 1.14652 36.7145 1.03451 38.5 1.14652 39.8391 1.17055 41.1885 1.37063 42.5174 1.50773 43.4275 1.81876 44.3029 2.04288 45.1956 2.46496 46.8772 2.2329 46.0982 2.71512 47.5391 2.82712 48.9898 2.88059 50.4463 3.05124 51.8913 3.10523 52.3483 3.28711 52.7812 3.38736 53.2304 3.51133 53.7859 3.61148 54.3463 3.72348 54.9043 3.83549 56.2435 3.83782 57.5962 4.0596 58.9217 4.36884 60.7698 5.04394 61.3967 6.07633 62.9391L6.74857 63.9435C6.97269 64.2783 7.0847 64.7246 7.42082 64.9478L8.42918 65.6174C8.54119 65.9522 8.47703 66.4166 8.7653 66.6217 9.34195 67.032 10.1925 66.8998 10.782 67.2913 13.6718 69.2102 10.0156 66.9096 12.7988 68.2956 13.1601 68.4756 13.471 68.742 13.8071 68.9652 15.7337 71.8435 13.1684 68.4562 15.4877 70.3043 17.6597 72.035 14.6338 70.802 17.1683 71.6435 18.3015 73.3366 17.2254 72.1741 18.8489 72.9826 19.2103 73.1626 19.496 73.4722 19.8573 73.6522 20.1742 73.81 20.5139 73.9449 20.8657 73.9869 23.3231 74.2807 25.8102 74.3079 28.2603 74.6565L30.6132 74.9913C33.7503 74.8797 36.8919 74.8578 40.0246 74.6565 40.3782 74.6338 40.6923 74.4186 41.0329 74.3217 42.1405 74.0066 42.9028 73.8822 44.058 73.6522L60.528 73.9869C61.3899 74.0166 64.4603 74.4109 65.5698 74.6565 66.4774 74.8574 66.9371 75.27 67.9226 75.3261 71.3921 75.5236 74.8692 75.5493 78.3424 75.6609 79.0146 75.8841 79.6602 76.2144 80.3591 76.3304 83.1574 76.7949 81.7012 76.5693 84.7287 77 86.9614 76.9073 91.5162 77.1345 94.4762 76.3304 95.1599 76.1447 95.8207 75.8841 96.493 75.6609 96.8291 75.5493 97.2065 75.5218 97.5013 75.3261 97.8374 75.1029 98.1165 74.7487 98.5097 74.6565 100.052 74.2951 103.215 73.9869 103.215 73.9869L105.232 73.3174C105.568 73.2058 105.946 73.1783 106.24 72.9826 107.544 72.1173 106.866 72.4403 108.257 71.9782 108.369 71.6435 108.435 71.2895 108.593 70.9739 108.774 70.614 109.181 70.363 109.266 69.9696 109.525 68.7643 109.525 67.5172 109.602 66.2869 109.749 63.9454 109.757 61.5958 109.938 59.2565 109.985 58.6426 110.442 56.9127 110.61 56.2435 110.722 51.2217 110.749 46.1974 110.946 41.1783 111.015 39.4218 111.742 37.7954 112.291 36.1565L112.627 35.1522 112.963 34.1478C112.851 32.4739 112.71 30.8017 112.627 29.1261 112.373 23.9941 112.226 18.8572 111.955 13.7261 111.843 11.6058 111.872 9.47334 111.618 7.36522 111.528 6.61182 110.935 5.01056 110.274 4.35217 109.988 4.06769 109.627 3.8626 109.266 3.68261 108.949 3.52476 108.574 3.50567 108.257 3.34783 107.896 3.16783 107.618 2.8417 107.249 2.67826 101.355 0.0690654 87.5569 1.69437 86.4093 1.67391 85.7371 1.56235 85.0578 1.48643 84.3926 1.33913 84.0467 1.26258 83.7384 1.00994 83.3842 1.00435 76.6627 0.898061 69.9394 1.00435 60.528 0Z" stroke="#000000" stroke-miterlimit="8" fill="#A6A6A6" fill-rule="evenodd" transform="matrix(1.00033 0 -0 1 74.5 75.5)"/><path d="M32.9891 0 32.9891 0C29.2919 0.410919 30.9443 0.0151181 27.9908 1L26.9911 1.33333C26.6579 1.44441 26.2837 1.47181 25.9914 1.66667 25.325 2.11108 24.5584 2.43349 23.9921 3 23.2551 3.73722 22.9206 4.20263 21.9928 4.66667 21.6786 4.82383 21.3263 4.88893 20.9931 5 19.7617 6.84767 21.0312 5.38625 19.327 6.33334 18.6268 6.72242 17.3276 7.66667 17.3276 7.66667 15.5505 10.3333 17.883 7.11108 15.6615 9.33334 13.44 11.5556 16.6612 9.22226 13.9954 11 13.6481 12.0421 13.3114 13.3451 12.3293 14L11.3296 14.6667C10.5365 17.0467 11.0528 16.082 9.99671 17.6667 9.88567 20.4444 9.86153 23.2271 9.66348 26 9.6385 26.3505 9.50081 26.6928 9.33026 27 8.94131 27.7004 8.25061 28.2399 7.99736 29 7.53746 30.3801 7.95643 29.8052 6.66447 30.6667L5.6648 33.6667 5.33158 34.6667C5.22054 35 5.0672 35.3221 4.99835 35.6667 4.88731 36.2223 4.81416 36.7868 4.66513 37.3333 4.48031 38.0113 4.22087 38.6667 3.99868 39.3333L3.33224 41.3333C3.2212 41.6667 3.08423 41.9925 2.99901 42.3333 2.77683 43.2223 2.62223 44.1308 2.33256 45 1.85451 46.4347 2.08456 45.6591 1.66612 47.3334 1.55508 48.7778 1.51257 50.2292 1.33289 51.6667 1.28934 52.0153 1.09213 52.3277 0.999671 52.6667 0.396825 54.8779 0.388638 55.0564 0 57 0.11104 61.5556 0.05489 66.1183 0.333224 70.6667 0.389163 71.5812 0.710002 72.4642 0.999671 73.3334L2.33256 77.3334C2.4436 77.6667 2.471 78.041 2.66579 78.3334L3.99868 80.3334C4.22087 80.6667 4.53845 80.9533 4.66513 81.3334 4.77617 81.6667 4.7789 82.059 4.99835 82.3334 5.24856 82.6462 5.6648 82.7778 5.99802 83 6.83554 85.5135 5.60834 82.5128 7.33092 84.6667 9.17042 86.9668 5.79893 84.4228 8.66381 86.3334 8.886 86.6667 8.99063 87.1211 9.33026 87.3334 9.92597 87.7059 10.6632 87.7778 11.3296 88L12.3293 88.3334C12.6625 88.4444 12.9812 88.617 13.3289 88.6667L15.6615 89C17.2166 88.889 18.7849 88.8981 20.3266 88.6667 23.0581 88.2568 21.4801 87.7864 23.9921 87.6667 28.0987 87.4711 32.2116 87.4444 36.3214 87.3334 39.6615 86.2197 36.9546 87.0066 40.32 86.3334 40.7691 86.2435 41.2126 86.1259 41.6529 86 41.9907 85.9035 42.3027 85.6971 42.6526 85.6667 44.8685 85.4739 47.0956 85.4444 49.3171 85.3334 50.2057 85.1111 51.114 84.9565 51.9829 84.6667 52.3161 84.5556 52.6381 84.4022 52.9825 84.3334 53.7527 84.1792 54.5363 84.1017 55.3151 84 58.5419 83.579 59.5636 83.6905 61.9796 83 62.3173 82.9035 62.6651 82.8239 62.9792 82.6667 63.3374 82.4875 63.6457 82.2223 63.9789 82 64.4232 81.3334 65.0586 80.7601 65.3118 80L65.9783 78C65.8672 74.1111 65.8301 70.2194 65.645 66.3334 65.5963 65.3102 65.2986 63.7339 64.9786 62.6667 64.7768 61.9936 64.4825 61.3485 64.3121 60.6667L63.9789 59.3334C63.7249 55.7769 63.5662 52.1896 62.9792 48.6667 62.8603 47.953 62.5375 46.4158 62.3128 45.6667 62.111 44.9936 62.036 44.2514 61.6464 43.6667L60.9799 42.6667C60.7936 41.9214 60.3047 39.8203 59.9802 39.3333 59.758 39 59.4765 38.6994 59.3138 38.3333 59.0285 37.6911 58.8695 37 58.6473 36.3333L58.3141 35.3333C58.2031 35 58.0661 34.6742 57.9809 34.3333L57.6477 33C57.5366 29.3333 57.5071 25.6633 57.3144 22 57.2846 21.4342 57.0825 20.8907 56.9812 20.3333 55.8187 13.937 57.6039 22.8249 55.9816 16.3333 55.8705 15.8889 55.7477 15.4472 55.6483 15 55.5254 14.4469 55.4525 13.8829 55.3151 13.3333 55.2299 12.9924 55.0929 12.6667 54.9819 12.3333 54.7795 10.7141 54.697 9.52704 54.3154 8 54.1347 7.27706 53.8587 6.5431 53.3158 6 53.0326 5.71675 52.6842 5.49113 52.3161 5.33334 51.0122 4.77428 50.3278 5.22961 48.9839 4.33333 42.6799 0.129344 49.5039 4.42677 45.9848 2.66667 45.6266 2.48745 45.3434 2.17921 44.9852 2 44.6711 1.84284 44.2996 1.82383 43.9855 1.66667 42.9296 1.13858 43.1588 0.834226 41.9862 0.666667 37.8233 0.0718111 34.4886 0.111076 32.9891 0Z" stroke="#000000" stroke-miterlimit="8" fill="#D9D9D9" fill-rule="evenodd" transform="matrix(1.00033 0 -0 1 197.5 96.5)"/></g></svg>